<?xml version="1.0" encoding="utf-8" standalone="no"?>
<!DOCTYPE svg PUBLIC "-//W3C//DTD SVG 1.1//EN"
  "http://www.w3.org/Graphics/SVG/1.1/DTD/svg11.dtd">
<svg xmlns:xlink="http://www.w3.org/1999/xlink" width="998.735625pt" height="424.243725pt" viewBox="0 0 998.735625 424.243725" xmlns="http://www.w3.org/2000/svg" version="1.1">
 <metadata>
  <rdf:RDF xmlns:dc="http://purl.org/dc/elements/1.1/" xmlns:cc="http://creativecommons.org/ns#" xmlns:rdf="http://www.w3.org/1999/02/22-rdf-syntax-ns#">
   <cc:Work>
    <dc:type rdf:resource="http://purl.org/dc/dcmitype/StillImage"/>
    <dc:date>2025-11-03T08:51:37.746195</dc:date>
    <dc:format>image/svg+xml</dc:format>
    <dc:creator>
     <cc:Agent>
      <dc:title>Matplotlib v3.8.0, https://matplotlib.org/</dc:title>
     </cc:Agent>
    </dc:creator>
   </cc:Work>
  </rdf:RDF>
 </metadata>
 <defs>
  <style type="text/css">*{stroke-linejoin: round; stroke-linecap: butt}</style>
 </defs>
 <g id="figure_1">
  <g id="patch_1">
   <path d="M 0 424.243725 
L 998.735625 424.243725 
L 998.735625 0 
L 0 0 
z
" style="fill: #ffffff"/>
  </g>
  <g id="axes_1">
   <g id="patch_2">
    <path d="M 363.107812 358.181812 
L 635.627812 358.181812 
L 635.627812 23.837812 
L 363.107812 23.837812 
z
" style="fill: #ffffff"/>
   </g>
   <g id="matplotlib.axis_1">
    <g id="xtick_1">
     <g id="line2d_1">
      <path d="M 399.958632 358.181812 
L 399.958632 23.837812 
" clip-path="url(#p3ebd0032cd)" style="fill: none; stroke: #b0b0b0; stroke-opacity: 0.3; stroke-width: 0.8; stroke-linecap: square"/>
     </g>
     <g id="line2d_2">
      <defs>
       <path id="m76bf51d299" d="M 0 0 
L 0 4.8 
" style="stroke: #000000"/>
      </defs>
      <g>
       <use xlink:href="#m76bf51d299" x="399.958632" y="358.181812" style="stroke: #000000"/>
      </g>
     </g>
     <g id="text_1">
      <!-- 40000 -->
      <g transform="translate(384.052382 374.08025) scale(0.1 -0.1)">
       <defs>
        <path id="DejaVuSans-34" d="M 2419 4116 
L 825 1625 
L 2419 1625 
L 2419 4116 
z
M 2253 4666 
L 3047 4666 
L 3047 1625 
L 3713 1625 
L 3713 1100 
L 3047 1100 
L 3047 0 
L 2419 0 
L 2419 1100 
L 313 1100 
L 313 1709 
L 2253 4666 
z
" transform="scale(0.015625)"/>
        <path id="DejaVuSans-30" d="M 2034 4250 
Q 1547 4250 1301 3770 
Q 1056 3291 1056 2328 
Q 1056 1369 1301 889 
Q 1547 409 2034 409 
Q 2525 409 2770 889 
Q 3016 1369 3016 2328 
Q 3016 3291 2770 3770 
Q 2525 4250 2034 4250 
z
M 2034 4750 
Q 2819 4750 3233 4129 
Q 3647 3509 3647 2328 
Q 3647 1150 3233 529 
Q 2819 -91 2034 -91 
Q 1250 -91 836 529 
Q 422 1150 422 2328 
Q 422 3509 836 4129 
Q 1250 4750 2034 4750 
z
" transform="scale(0.015625)"/>
       </defs>
       <use xlink:href="#DejaVuSans-34"/>
       <use xlink:href="#DejaVuSans-30" x="63.623047"/>
       <use xlink:href="#DejaVuSans-30" x="127.246094"/>
       <use xlink:href="#DejaVuSans-30" x="190.869141"/>
       <use xlink:href="#DejaVuSans-30" x="254.492188"/>
      </g>
     </g>
    </g>
    <g id="xtick_2">
     <g id="line2d_3">
      <path d="M 451.363436 358.181812 
L 451.363436 23.837812 
" clip-path="url(#p3ebd0032cd)" style="fill: none; stroke: #b0b0b0; stroke-opacity: 0.3; stroke-width: 0.8; stroke-linecap: square"/>
     </g>
     <g id="line2d_4">
      <g>
       <use xlink:href="#m76bf51d299" x="451.363436" y="358.181812" style="stroke: #000000"/>
      </g>
     </g>
     <g id="text_2">
      <!-- 50000 -->
      <g transform="translate(435.457186 374.08025) scale(0.1 -0.1)">
       <defs>
        <path id="DejaVuSans-35" d="M 691 4666 
L 3169 4666 
L 3169 4134 
L 1269 4134 
L 1269 2991 
Q 1406 3038 1543 3061 
Q 1681 3084 1819 3084 
Q 2600 3084 3056 2656 
Q 3513 2228 3513 1497 
Q 3513 744 3044 326 
Q 2575 -91 1722 -91 
Q 1428 -91 1123 -41 
Q 819 9 494 109 
L 494 744 
Q 775 591 1075 516 
Q 1375 441 1709 441 
Q 2250 441 2565 725 
Q 2881 1009 2881 1497 
Q 2881 1984 2565 2268 
Q 2250 2553 1709 2553 
Q 1456 2553 1204 2497 
Q 953 2441 691 2322 
L 691 4666 
z
" transform="scale(0.015625)"/>
       </defs>
       <use xlink:href="#DejaVuSans-35"/>
       <use xlink:href="#DejaVuSans-30" x="63.623047"/>
       <use xlink:href="#DejaVuSans-30" x="127.246094"/>
       <use xlink:href="#DejaVuSans-30" x="190.869141"/>
       <use xlink:href="#DejaVuSans-30" x="254.492188"/>
      </g>
     </g>
    </g>
    <g id="xtick_3">
     <g id="line2d_5">
      <path d="M 502.76824 358.181812 
L 502.76824 23.837812 
" clip-path="url(#p3ebd0032cd)" style="fill: none; stroke: #b0b0b0; stroke-opacity: 0.3; stroke-width: 0.8; stroke-linecap: square"/>
     </g>
     <g id="line2d_6">
      <g>
       <use xlink:href="#m76bf51d299" x="502.76824" y="358.181812" style="stroke: #000000"/>
      </g>
     </g>
     <g id="text_3">
      <!-- 60000 -->
      <g transform="translate(486.86199 374.08025) scale(0.1 -0.1)">
       <defs>
        <path id="DejaVuSans-36" d="M 2113 2584 
Q 1688 2584 1439 2293 
Q 1191 2003 1191 1497 
Q 1191 994 1439 701 
Q 1688 409 2113 409 
Q 2538 409 2786 701 
Q 3034 994 3034 1497 
Q 3034 2003 2786 2293 
Q 2538 2584 2113 2584 
z
M 3366 4563 
L 3366 3988 
Q 3128 4100 2886 4159 
Q 2644 4219 2406 4219 
Q 1781 4219 1451 3797 
Q 1122 3375 1075 2522 
Q 1259 2794 1537 2939 
Q 1816 3084 2150 3084 
Q 2853 3084 3261 2657 
Q 3669 2231 3669 1497 
Q 3669 778 3244 343 
Q 2819 -91 2113 -91 
Q 1303 -91 875 529 
Q 447 1150 447 2328 
Q 447 3434 972 4092 
Q 1497 4750 2381 4750 
Q 2619 4750 2861 4703 
Q 3103 4656 3366 4563 
z
" transform="scale(0.015625)"/>
       </defs>
       <use xlink:href="#DejaVuSans-36"/>
       <use xlink:href="#DejaVuSans-30" x="63.623047"/>
       <use xlink:href="#DejaVuSans-30" x="127.246094"/>
       <use xlink:href="#DejaVuSans-30" x="190.869141"/>
       <use xlink:href="#DejaVuSans-30" x="254.492188"/>
      </g>
     </g>
    </g>
    <g id="xtick_4">
     <g id="line2d_7">
      <path d="M 554.173045 358.181812 
L 554.173045 23.837812 
" clip-path="url(#p3ebd0032cd)" style="fill: none; stroke: #b0b0b0; stroke-opacity: 0.3; stroke-width: 0.8; stroke-linecap: square"/>
     </g>
     <g id="line2d_8">
      <g>
       <use xlink:href="#m76bf51d299" x="554.173045" y="358.181812" style="stroke: #000000"/>
      </g>
     </g>
     <g id="text_4">
      <!-- 70000 -->
      <g transform="translate(538.266795 374.08025) scale(0.1 -0.1)">
       <defs>
        <path id="DejaVuSans-37" d="M 525 4666 
L 3525 4666 
L 3525 4397 
L 1831 0 
L 1172 0 
L 2766 4134 
L 525 4134 
L 525 4666 
z
" transform="scale(0.015625)"/>
       </defs>
       <use xlink:href="#DejaVuSans-37"/>
       <use xlink:href="#DejaVuSans-30" x="63.623047"/>
       <use xlink:href="#DejaVuSans-30" x="127.246094"/>
       <use xlink:href="#DejaVuSans-30" x="190.869141"/>
       <use xlink:href="#DejaVuSans-30" x="254.492188"/>
      </g>
     </g>
    </g>
    <g id="xtick_5">
     <g id="line2d_9">
      <path d="M 605.577849 358.181812 
L 605.577849 23.837812 
" clip-path="url(#p3ebd0032cd)" style="fill: none; stroke: #b0b0b0; stroke-opacity: 0.3; stroke-width: 0.8; stroke-linecap: square"/>
     </g>
     <g id="line2d_10">
      <g>
       <use xlink:href="#m76bf51d299" x="605.577849" y="358.181812" style="stroke: #000000"/>
      </g>
     </g>
     <g id="text_5">
      <!-- 80000 -->
      <g transform="translate(589.671599 374.08025) scale(0.1 -0.1)">
       <defs>
        <path id="DejaVuSans-38" d="M 2034 2216 
Q 1584 2216 1326 1975 
Q 1069 1734 1069 1313 
Q 1069 891 1326 650 
Q 1584 409 2034 409 
Q 2484 409 2743 651 
Q 3003 894 3003 1313 
Q 3003 1734 2745 1975 
Q 2488 2216 2034 2216 
z
M 1403 2484 
Q 997 2584 770 2862 
Q 544 3141 544 3541 
Q 544 4100 942 4425 
Q 1341 4750 2034 4750 
Q 2731 4750 3128 4425 
Q 3525 4100 3525 3541 
Q 3525 3141 3298 2862 
Q 3072 2584 2669 2484 
Q 3125 2378 3379 2068 
Q 3634 1759 3634 1313 
Q 3634 634 3220 271 
Q 2806 -91 2034 -91 
Q 1263 -91 848 271 
Q 434 634 434 1313 
Q 434 1759 690 2068 
Q 947 2378 1403 2484 
z
M 1172 3481 
Q 1172 3119 1398 2916 
Q 1625 2713 2034 2713 
Q 2441 2713 2670 2916 
Q 2900 3119 2900 3481 
Q 2900 3844 2670 4047 
Q 2441 4250 2034 4250 
Q 1625 4250 1398 4047 
Q 1172 3844 1172 3481 
z
" transform="scale(0.015625)"/>
       </defs>
       <use xlink:href="#DejaVuSans-38"/>
       <use xlink:href="#DejaVuSans-30" x="63.623047"/>
       <use xlink:href="#DejaVuSans-30" x="127.246094"/>
       <use xlink:href="#DejaVuSans-30" x="190.869141"/>
       <use xlink:href="#DejaVuSans-30" x="254.492188"/>
      </g>
     </g>
    </g>
    <g id="text_6">
     <!-- Output Tokens (count) -->
     <g transform="translate(423.778125 389.278062) scale(0.12 -0.12)">
      <defs>
       <path id="DejaVuSans-Bold-4f" d="M 2719 3878 
Q 2169 3878 1866 3472 
Q 1563 3066 1563 2328 
Q 1563 1594 1866 1187 
Q 2169 781 2719 781 
Q 3272 781 3575 1187 
Q 3878 1594 3878 2328 
Q 3878 3066 3575 3472 
Q 3272 3878 2719 3878 
z
M 2719 4750 
Q 3844 4750 4481 4106 
Q 5119 3463 5119 2328 
Q 5119 1197 4481 553 
Q 3844 -91 2719 -91 
Q 1597 -91 958 553 
Q 319 1197 319 2328 
Q 319 3463 958 4106 
Q 1597 4750 2719 4750 
z
" transform="scale(0.015625)"/>
       <path id="DejaVuSans-Bold-75" d="M 500 1363 
L 500 3500 
L 1625 3500 
L 1625 3150 
Q 1625 2866 1622 2436 
Q 1619 2006 1619 1863 
Q 1619 1441 1641 1255 
Q 1663 1069 1716 984 
Q 1784 875 1895 815 
Q 2006 756 2150 756 
Q 2500 756 2700 1025 
Q 2900 1294 2900 1772 
L 2900 3500 
L 4019 3500 
L 4019 0 
L 2900 0 
L 2900 506 
Q 2647 200 2364 54 
Q 2081 -91 1741 -91 
Q 1134 -91 817 281 
Q 500 653 500 1363 
z
" transform="scale(0.015625)"/>
       <path id="DejaVuSans-Bold-74" d="M 1759 4494 
L 1759 3500 
L 2913 3500 
L 2913 2700 
L 1759 2700 
L 1759 1216 
Q 1759 972 1856 886 
Q 1953 800 2241 800 
L 2816 800 
L 2816 0 
L 1856 0 
Q 1194 0 917 276 
Q 641 553 641 1216 
L 641 2700 
L 84 2700 
L 84 3500 
L 641 3500 
L 641 4494 
L 1759 4494 
z
" transform="scale(0.015625)"/>
       <path id="DejaVuSans-Bold-70" d="M 1656 506 
L 1656 -1331 
L 538 -1331 
L 538 3500 
L 1656 3500 
L 1656 2988 
Q 1888 3294 2169 3439 
Q 2450 3584 2816 3584 
Q 3463 3584 3878 3070 
Q 4294 2556 4294 1747 
Q 4294 938 3878 423 
Q 3463 -91 2816 -91 
Q 2450 -91 2169 54 
Q 1888 200 1656 506 
z
M 2400 2772 
Q 2041 2772 1848 2508 
Q 1656 2244 1656 1747 
Q 1656 1250 1848 986 
Q 2041 722 2400 722 
Q 2759 722 2948 984 
Q 3138 1247 3138 1747 
Q 3138 2247 2948 2509 
Q 2759 2772 2400 2772 
z
" transform="scale(0.015625)"/>
       <path id="DejaVuSans-Bold-20" transform="scale(0.015625)"/>
       <path id="DejaVuSans-Bold-54" d="M 31 4666 
L 4331 4666 
L 4331 3756 
L 2784 3756 
L 2784 0 
L 1581 0 
L 1581 3756 
L 31 3756 
L 31 4666 
z
" transform="scale(0.015625)"/>
       <path id="DejaVuSans-Bold-6f" d="M 2203 2784 
Q 1831 2784 1636 2517 
Q 1441 2250 1441 1747 
Q 1441 1244 1636 976 
Q 1831 709 2203 709 
Q 2569 709 2762 976 
Q 2956 1244 2956 1747 
Q 2956 2250 2762 2517 
Q 2569 2784 2203 2784 
z
M 2203 3584 
Q 3106 3584 3614 3096 
Q 4122 2609 4122 1747 
Q 4122 884 3614 396 
Q 3106 -91 2203 -91 
Q 1297 -91 786 396 
Q 275 884 275 1747 
Q 275 2609 786 3096 
Q 1297 3584 2203 3584 
z
" transform="scale(0.015625)"/>
       <path id="DejaVuSans-Bold-6b" d="M 538 4863 
L 1656 4863 
L 1656 2216 
L 2944 3500 
L 4244 3500 
L 2534 1894 
L 4378 0 
L 3022 0 
L 1656 1459 
L 1656 0 
L 538 0 
L 538 4863 
z
" transform="scale(0.015625)"/>
       <path id="DejaVuSans-Bold-65" d="M 4031 1759 
L 4031 1441 
L 1416 1441 
Q 1456 1047 1700 850 
Q 1944 653 2381 653 
Q 2734 653 3104 758 
Q 3475 863 3866 1075 
L 3866 213 
Q 3469 63 3072 -14 
Q 2675 -91 2278 -91 
Q 1328 -91 801 392 
Q 275 875 275 1747 
Q 275 2603 792 3093 
Q 1309 3584 2216 3584 
Q 3041 3584 3536 3087 
Q 4031 2591 4031 1759 
z
M 2881 2131 
Q 2881 2450 2695 2645 
Q 2509 2841 2209 2841 
Q 1884 2841 1681 2658 
Q 1478 2475 1428 2131 
L 2881 2131 
z
" transform="scale(0.015625)"/>
       <path id="DejaVuSans-Bold-6e" d="M 4056 2131 
L 4056 0 
L 2931 0 
L 2931 347 
L 2931 1631 
Q 2931 2084 2911 2256 
Q 2891 2428 2841 2509 
Q 2775 2619 2662 2680 
Q 2550 2741 2406 2741 
Q 2056 2741 1856 2470 
Q 1656 2200 1656 1722 
L 1656 0 
L 538 0 
L 538 3500 
L 1656 3500 
L 1656 2988 
Q 1909 3294 2193 3439 
Q 2478 3584 2822 3584 
Q 3428 3584 3742 3212 
Q 4056 2841 4056 2131 
z
" transform="scale(0.015625)"/>
       <path id="DejaVuSans-Bold-73" d="M 3272 3391 
L 3272 2541 
Q 2913 2691 2578 2766 
Q 2244 2841 1947 2841 
Q 1628 2841 1473 2761 
Q 1319 2681 1319 2516 
Q 1319 2381 1436 2309 
Q 1553 2238 1856 2203 
L 2053 2175 
Q 2913 2066 3209 1816 
Q 3506 1566 3506 1031 
Q 3506 472 3093 190 
Q 2681 -91 1863 -91 
Q 1516 -91 1145 -36 
Q 775 19 384 128 
L 384 978 
Q 719 816 1070 734 
Q 1422 653 1784 653 
Q 2113 653 2278 743 
Q 2444 834 2444 1013 
Q 2444 1163 2330 1236 
Q 2216 1309 1875 1350 
L 1678 1375 
Q 931 1469 631 1722 
Q 331 1975 331 2491 
Q 331 3047 712 3315 
Q 1094 3584 1881 3584 
Q 2191 3584 2531 3537 
Q 2872 3491 3272 3391 
z
" transform="scale(0.015625)"/>
       <path id="DejaVuSans-Bold-28" d="M 2413 -844 
L 1484 -844 
Q 1006 -72 778 623 
Q 550 1319 550 2003 
Q 550 2688 779 3389 
Q 1009 4091 1484 4856 
L 2413 4856 
Q 2013 4116 1813 3408 
Q 1613 2700 1613 2009 
Q 1613 1319 1811 609 
Q 2009 -100 2413 -844 
z
" transform="scale(0.015625)"/>
       <path id="DejaVuSans-Bold-63" d="M 3366 3391 
L 3366 2478 
Q 3138 2634 2908 2709 
Q 2678 2784 2431 2784 
Q 1963 2784 1702 2511 
Q 1441 2238 1441 1747 
Q 1441 1256 1702 982 
Q 1963 709 2431 709 
Q 2694 709 2930 787 
Q 3166 866 3366 1019 
L 3366 103 
Q 3103 6 2833 -42 
Q 2563 -91 2291 -91 
Q 1344 -91 809 395 
Q 275 881 275 1747 
Q 275 2613 809 3098 
Q 1344 3584 2291 3584 
Q 2566 3584 2833 3536 
Q 3100 3488 3366 3391 
z
" transform="scale(0.015625)"/>
       <path id="DejaVuSans-Bold-29" d="M 513 -844 
Q 913 -100 1113 609 
Q 1313 1319 1313 2009 
Q 1313 2700 1113 3408 
Q 913 4116 513 4856 
L 1441 4856 
Q 1916 4091 2145 3389 
Q 2375 2688 2375 2003 
Q 2375 1319 2147 623 
Q 1919 -72 1441 -844 
L 513 -844 
z
" transform="scale(0.015625)"/>
      </defs>
      <use xlink:href="#DejaVuSans-Bold-4f"/>
      <use xlink:href="#DejaVuSans-Bold-75" x="85.009766"/>
      <use xlink:href="#DejaVuSans-Bold-74" x="156.201172"/>
      <use xlink:href="#DejaVuSans-Bold-70" x="204.003906"/>
      <use xlink:href="#DejaVuSans-Bold-75" x="275.585938"/>
      <use xlink:href="#DejaVuSans-Bold-74" x="346.777344"/>
      <use xlink:href="#DejaVuSans-Bold-20" x="394.580078"/>
      <use xlink:href="#DejaVuSans-Bold-54" x="429.394531"/>
      <use xlink:href="#DejaVuSans-Bold-6f" x="484.357422"/>
      <use xlink:href="#DejaVuSans-Bold-6b" x="553.058594"/>
      <use xlink:href="#DejaVuSans-Bold-65" x="616.9375"/>
      <use xlink:href="#DejaVuSans-Bold-6e" x="684.759766"/>
      <use xlink:href="#DejaVuSans-Bold-73" x="755.951172"/>
      <use xlink:href="#DejaVuSans-Bold-20" x="815.472656"/>
      <use xlink:href="#DejaVuSans-Bold-28" x="850.287109"/>
      <use xlink:href="#DejaVuSans-Bold-63" x="895.990234"/>
      <use xlink:href="#DejaVuSans-Bold-6f" x="955.267578"/>
      <use xlink:href="#DejaVuSans-Bold-75" x="1023.96875"/>
      <use xlink:href="#DejaVuSans-Bold-6e" x="1095.160156"/>
      <use xlink:href="#DejaVuSans-Bold-74" x="1166.351562"/>
      <use xlink:href="#DejaVuSans-Bold-29" x="1214.154297"/>
     </g>
    </g>
   </g>
   <g id="matplotlib.axis_2">
    <g id="ytick_1">
     <g id="line2d_11">
      <path d="M 363.107812 191.009812 
L 635.627812 191.009812 
" clip-path="url(#p3ebd0032cd)" style="fill: none; stroke: #b0b0b0; stroke-opacity: 0.3; stroke-width: 0.8; stroke-linecap: square"/>
     </g>
     <g id="line2d_12">
      <defs>
       <path id="m9e625f03d3" d="M 0 0 
L -4.8 0 
" style="stroke: #000000"/>
      </defs>
      <g>
       <use xlink:href="#m9e625f03d3" x="363.107812" y="191.009812" style="stroke: #000000"/>
      </g>
     </g>
     <g id="text_7">
      <!-- chatdev -->
      <g transform="translate(305.27 195.188953) scale(0.11 -0.11)">
       <defs>
        <path id="DejaVuSans-Bold-68" d="M 4056 2131 
L 4056 0 
L 2931 0 
L 2931 347 
L 2931 1625 
Q 2931 2084 2911 2256 
Q 2891 2428 2841 2509 
Q 2775 2619 2662 2680 
Q 2550 2741 2406 2741 
Q 2056 2741 1856 2470 
Q 1656 2200 1656 1722 
L 1656 0 
L 538 0 
L 538 4863 
L 1656 4863 
L 1656 2988 
Q 1909 3294 2193 3439 
Q 2478 3584 2822 3584 
Q 3428 3584 3742 3212 
Q 4056 2841 4056 2131 
z
" transform="scale(0.015625)"/>
        <path id="DejaVuSans-Bold-61" d="M 2106 1575 
Q 1756 1575 1579 1456 
Q 1403 1338 1403 1106 
Q 1403 894 1545 773 
Q 1688 653 1941 653 
Q 2256 653 2472 879 
Q 2688 1106 2688 1447 
L 2688 1575 
L 2106 1575 
z
M 3816 1997 
L 3816 0 
L 2688 0 
L 2688 519 
Q 2463 200 2181 54 
Q 1900 -91 1497 -91 
Q 953 -91 614 226 
Q 275 544 275 1050 
Q 275 1666 698 1953 
Q 1122 2241 2028 2241 
L 2688 2241 
L 2688 2328 
Q 2688 2594 2478 2717 
Q 2269 2841 1825 2841 
Q 1466 2841 1156 2769 
Q 847 2697 581 2553 
L 581 3406 
Q 941 3494 1303 3539 
Q 1666 3584 2028 3584 
Q 2975 3584 3395 3211 
Q 3816 2838 3816 1997 
z
" transform="scale(0.015625)"/>
        <path id="DejaVuSans-Bold-64" d="M 2919 2988 
L 2919 4863 
L 4044 4863 
L 4044 0 
L 2919 0 
L 2919 506 
Q 2688 197 2409 53 
Q 2131 -91 1766 -91 
Q 1119 -91 703 423 
Q 288 938 288 1747 
Q 288 2556 703 3070 
Q 1119 3584 1766 3584 
Q 2128 3584 2408 3439 
Q 2688 3294 2919 2988 
z
M 2181 722 
Q 2541 722 2730 984 
Q 2919 1247 2919 1747 
Q 2919 2247 2730 2509 
Q 2541 2772 2181 2772 
Q 1825 2772 1636 2509 
Q 1447 2247 1447 1747 
Q 1447 1247 1636 984 
Q 1825 722 2181 722 
z
" transform="scale(0.015625)"/>
        <path id="DejaVuSans-Bold-76" d="M 97 3500 
L 1216 3500 
L 2088 1081 
L 2956 3500 
L 4078 3500 
L 2700 0 
L 1472 0 
L 97 3500 
z
" transform="scale(0.015625)"/>
       </defs>
       <use xlink:href="#DejaVuSans-Bold-63"/>
       <use xlink:href="#DejaVuSans-Bold-68" x="59.277344"/>
       <use xlink:href="#DejaVuSans-Bold-61" x="130.46875"/>
       <use xlink:href="#DejaVuSans-Bold-74" x="197.949219"/>
       <use xlink:href="#DejaVuSans-Bold-64" x="245.751953"/>
       <use xlink:href="#DejaVuSans-Bold-65" x="317.333984"/>
       <use xlink:href="#DejaVuSans-Bold-76" x="385.15625"/>
      </g>
     </g>
    </g>
   </g>
   <g id="patch_3">
    <path d="M 417.792243 274.595812 
L 417.792243 107.423812 
L 473.824765 107.423812 
L 473.824765 274.595812 
L 417.792243 274.595812 
z
" clip-path="url(#p3ebd0032cd)" style="fill: #add8e6; opacity: 0.7; stroke: #000000; stroke-linejoin: miter"/>
   </g>
   <g id="line2d_13">
    <path d="M 417.792243 191.009812 
L 375.495085 191.009812 
" clip-path="url(#p3ebd0032cd)" style="fill: none; stroke: #000000; stroke-width: 1.5; stroke-linecap: square"/>
   </g>
   <g id="line2d_14">
    <path d="M 473.824765 191.009812 
L 553.638435 191.009812 
" clip-path="url(#p3ebd0032cd)" style="fill: none; stroke: #000000; stroke-width: 1.5; stroke-linecap: square"/>
   </g>
   <g id="line2d_15">
    <path d="M 375.495085 232.802812 
L 375.495085 149.216812 
" clip-path="url(#p3ebd0032cd)" style="fill: none; stroke: #000000; stroke-width: 1.5; stroke-linecap: square"/>
   </g>
   <g id="line2d_16">
    <path d="M 553.638435 232.802812 
L 553.638435 149.216812 
" clip-path="url(#p3ebd0032cd)" style="fill: none; stroke: #000000; stroke-width: 1.5; stroke-linecap: square"/>
   </g>
   <g id="line2d_17">
    <defs>
     <path id="m7a0cf1b606" d="M 0 3 
C 0.795609 3 1.55874 2.683901 2.12132 2.12132 
C 2.683901 1.55874 3 0.795609 3 0 
C 3 -0.795609 2.683901 -1.55874 2.12132 -2.12132 
C 1.55874 -2.683901 0.795609 -3 0 -3 
C -0.795609 -3 -1.55874 -2.683901 -2.12132 -2.12132 
C -2.683901 -1.55874 -3 -0.795609 -3 0 
C -3 0.795609 -2.683901 1.55874 -2.12132 2.12132 
C -1.55874 2.683901 -0.795609 3 0 3 
z
" style="stroke: #000000"/>
    </defs>
    <g clip-path="url(#p3ebd0032cd)">
     <use xlink:href="#m7a0cf1b606" x="569.692155" y="191.009812" style="fill-opacity: 0; stroke: #000000"/>
     <use xlink:href="#m7a0cf1b606" x="584.743482" y="191.009812" style="fill-opacity: 0; stroke: #000000"/>
     <use xlink:href="#m7a0cf1b606" x="605.541866" y="191.009812" style="fill-opacity: 0; stroke: #000000"/>
     <use xlink:href="#m7a0cf1b606" x="571.77919" y="191.009812" style="fill-opacity: 0; stroke: #000000"/>
     <use xlink:href="#m7a0cf1b606" x="623.24054" y="191.009812" style="fill-opacity: 0; stroke: #000000"/>
     <use xlink:href="#m7a0cf1b606" x="581.355905" y="191.009812" style="fill-opacity: 0; stroke: #000000"/>
    </g>
   </g>
   <g id="PathCollection_1">
    <defs>
     <path id="mf5037619db" d="M 0 4.472136 
C 1.186024 4.472136 2.323632 4.000923 3.162278 3.162278 
C 4.000923 2.323632 4.472136 1.186024 4.472136 0 
C 4.472136 -1.186024 4.000923 -2.323632 3.162278 -3.162278 
C 2.323632 -4.000923 1.186024 -4.472136 0 -4.472136 
C -1.186024 -4.472136 -2.323632 -4.000923 -3.162278 -3.162278 
C -4.000923 -2.323632 -4.472136 -1.186024 -4.472136 0 
C -4.472136 1.186024 -4.000923 2.323632 -3.162278 3.162278 
C -2.323632 4.000923 -1.186024 4.472136 0 4.472136 
z
" style="stroke: #00008b; stroke-opacity: 0.6"/>
    </defs>
    <g clip-path="url(#p3ebd0032cd)">
     <use xlink:href="#mf5037619db" x="425.753562" y="202.243463" style="fill: #0000ff; fill-opacity: 0.6; stroke: #00008b; stroke-opacity: 0.6"/>
    </g>
   </g>
   <g id="PathCollection_2">
    <g clip-path="url(#p3ebd0032cd)">
     <use xlink:href="#mf5037619db" x="430.030442" y="188.864217" style="fill: #0000ff; fill-opacity: 0.6; stroke: #00008b; stroke-opacity: 0.6"/>
    </g>
   </g>
   <g id="PathCollection_3">
    <g clip-path="url(#p3ebd0032cd)">
     <use xlink:href="#mf5037619db" x="449.605392" y="184.573009" style="fill: #0000ff; fill-opacity: 0.6; stroke: #00008b; stroke-opacity: 0.6"/>
    </g>
   </g>
   <g id="PathCollection_4">
    <g clip-path="url(#p3ebd0032cd)">
     <use xlink:href="#mf5037619db" x="426.190503" y="199.796652" style="fill: #0000ff; fill-opacity: 0.6; stroke: #00008b; stroke-opacity: 0.6"/>
    </g>
   </g>
   <g id="PathCollection_5">
    <g clip-path="url(#p3ebd0032cd)">
     <use xlink:href="#mf5037619db" x="446.654756" y="187.806535" style="fill: #0000ff; fill-opacity: 0.6; stroke: #00008b; stroke-opacity: 0.6"/>
    </g>
   </g>
   <g id="PathCollection_6">
    <g clip-path="url(#p3ebd0032cd)">
     <use xlink:href="#mf5037619db" x="498.27032" y="199.449856" style="fill: #0000ff; fill-opacity: 0.6; stroke: #00008b; stroke-opacity: 0.6"/>
    </g>
   </g>
   <g id="PathCollection_7">
    <g clip-path="url(#p3ebd0032cd)">
     <use xlink:href="#mf5037619db" x="487.521575" y="184.243077" style="fill: #0000ff; fill-opacity: 0.6; stroke: #00008b; stroke-opacity: 0.6"/>
    </g>
   </g>
   <g id="PathCollection_8">
    <g clip-path="url(#p3ebd0032cd)">
     <use xlink:href="#mf5037619db" x="420.839263" y="202.807841" style="fill: #0000ff; fill-opacity: 0.6; stroke: #00008b; stroke-opacity: 0.6"/>
    </g>
   </g>
   <g id="PathCollection_9">
    <g clip-path="url(#p3ebd0032cd)">
     <use xlink:href="#mf5037619db" x="459.953179" y="195.752134" style="fill: #0000ff; fill-opacity: 0.6; stroke: #00008b; stroke-opacity: 0.6"/>
    </g>
   </g>
   <g id="PathCollection_10">
    <g clip-path="url(#p3ebd0032cd)">
     <use xlink:href="#mf5037619db" x="457.789037" y="190.299015" style="fill: #0000ff; fill-opacity: 0.6; stroke: #00008b; stroke-opacity: 0.6"/>
    </g>
   </g>
   <g id="PathCollection_11">
    <g clip-path="url(#p3ebd0032cd)">
     <use xlink:href="#mf5037619db" x="440.871715" y="196.027229" style="fill: #0000ff; fill-opacity: 0.6; stroke: #00008b; stroke-opacity: 0.6"/>
    </g>
   </g>
   <g id="PathCollection_12">
    <g clip-path="url(#p3ebd0032cd)">
     <use xlink:href="#mf5037619db" x="506.006743" y="190.949283" style="fill: #0000ff; fill-opacity: 0.6; stroke: #00008b; stroke-opacity: 0.6"/>
    </g>
   </g>
   <g id="PathCollection_13">
    <g clip-path="url(#p3ebd0032cd)">
     <use xlink:href="#mf5037619db" x="402.158757" y="192.231414" style="fill: #0000ff; fill-opacity: 0.6; stroke: #00008b; stroke-opacity: 0.6"/>
    </g>
   </g>
   <g id="PathCollection_14">
    <g clip-path="url(#p3ebd0032cd)">
     <use xlink:href="#mf5037619db" x="473.457221" y="193.085697" style="fill: #0000ff; fill-opacity: 0.6; stroke: #00008b; stroke-opacity: 0.6"/>
    </g>
   </g>
   <g id="PathCollection_15">
    <g clip-path="url(#p3ebd0032cd)">
     <use xlink:href="#mf5037619db" x="417.904049" y="196.81761" style="fill: #0000ff; fill-opacity: 0.6; stroke: #00008b; stroke-opacity: 0.6"/>
    </g>
   </g>
   <g id="PathCollection_16">
    <g clip-path="url(#p3ebd0032cd)">
     <use xlink:href="#mf5037619db" x="447.472092" y="183.720637" style="fill: #0000ff; fill-opacity: 0.6; stroke: #00008b; stroke-opacity: 0.6"/>
    </g>
   </g>
   <g id="PathCollection_17">
    <g clip-path="url(#p3ebd0032cd)">
     <use xlink:href="#mf5037619db" x="400.36987" y="195.842093" style="fill: #0000ff; fill-opacity: 0.6; stroke: #00008b; stroke-opacity: 0.6"/>
    </g>
   </g>
   <g id="PathCollection_18">
    <g clip-path="url(#p3ebd0032cd)">
     <use xlink:href="#mf5037619db" x="514.462833" y="206.26557" style="fill: #0000ff; fill-opacity: 0.6; stroke: #00008b; stroke-opacity: 0.6"/>
    </g>
   </g>
   <g id="PathCollection_19">
    <g clip-path="url(#p3ebd0032cd)">
     <use xlink:href="#mf5037619db" x="449.605392" y="186.46426" style="fill: #0000ff; fill-opacity: 0.6; stroke: #00008b; stroke-opacity: 0.6"/>
    </g>
   </g>
   <g id="PathCollection_20">
    <g clip-path="url(#p3ebd0032cd)">
     <use xlink:href="#mf5037619db" x="406.312265" y="184.871714" style="fill: #0000ff; fill-opacity: 0.6; stroke: #00008b; stroke-opacity: 0.6"/>
    </g>
   </g>
   <g id="PathCollection_21">
    <g clip-path="url(#p3ebd0032cd)">
     <use xlink:href="#mf5037619db" x="413.200509" y="195.618012" style="fill: #0000ff; fill-opacity: 0.6; stroke: #00008b; stroke-opacity: 0.6"/>
    </g>
   </g>
   <g id="PathCollection_22">
    <g clip-path="url(#p3ebd0032cd)">
     <use xlink:href="#mf5037619db" x="451.661584" y="188.65666" style="fill: #0000ff; fill-opacity: 0.6; stroke: #00008b; stroke-opacity: 0.6"/>
    </g>
   </g>
   <g id="PathCollection_23">
    <g clip-path="url(#p3ebd0032cd)">
     <use xlink:href="#mf5037619db" x="451.759253" y="181.797462" style="fill: #0000ff; fill-opacity: 0.6; stroke: #00008b; stroke-opacity: 0.6"/>
    </g>
   </g>
   <g id="PathCollection_24">
    <g clip-path="url(#p3ebd0032cd)">
     <use xlink:href="#mf5037619db" x="459.845229" y="192.408787" style="fill: #0000ff; fill-opacity: 0.6; stroke: #00008b; stroke-opacity: 0.6"/>
    </g>
   </g>
   <g id="PathCollection_25">
    <g clip-path="url(#p3ebd0032cd)">
     <use xlink:href="#mf5037619db" x="474.927398" y="190.384675" style="fill: #0000ff; fill-opacity: 0.6; stroke: #00008b; stroke-opacity: 0.6"/>
    </g>
   </g>
   <g id="PathCollection_26">
    <g clip-path="url(#p3ebd0032cd)">
     <use xlink:href="#mf5037619db" x="424.607235" y="180.442124" style="fill: #0000ff; fill-opacity: 0.6; stroke: #00008b; stroke-opacity: 0.6"/>
    </g>
   </g>
   <g id="PathCollection_27">
    <g clip-path="url(#p3ebd0032cd)">
     <use xlink:href="#mf5037619db" x="525.422338" y="192.649924" style="fill: #0000ff; fill-opacity: 0.6; stroke: #00008b; stroke-opacity: 0.6"/>
    </g>
   </g>
   <g id="PathCollection_28">
    <g clip-path="url(#p3ebd0032cd)">
     <use xlink:href="#mf5037619db" x="407.268395" y="193.646379" style="fill: #0000ff; fill-opacity: 0.6; stroke: #00008b; stroke-opacity: 0.6"/>
    </g>
   </g>
   <g id="PathCollection_29">
    <g clip-path="url(#p3ebd0032cd)">
     <use xlink:href="#mf5037619db" x="512.859003" y="186.961449" style="fill: #0000ff; fill-opacity: 0.6; stroke: #00008b; stroke-opacity: 0.6"/>
    </g>
   </g>
   <g id="PathCollection_30">
    <g clip-path="url(#p3ebd0032cd)">
     <use xlink:href="#mf5037619db" x="414.819761" y="190.905862" style="fill: #0000ff; fill-opacity: 0.6; stroke: #00008b; stroke-opacity: 0.6"/>
    </g>
   </g>
   <g id="PathCollection_31">
    <g clip-path="url(#p3ebd0032cd)">
     <use xlink:href="#mf5037619db" x="441.416606" y="189.546791" style="fill: #0000ff; fill-opacity: 0.6; stroke: #00008b; stroke-opacity: 0.6"/>
    </g>
   </g>
   <g id="PathCollection_32">
    <g clip-path="url(#p3ebd0032cd)">
     <use xlink:href="#mf5037619db" x="531.560071" y="187.923723" style="fill: #0000ff; fill-opacity: 0.6; stroke: #00008b; stroke-opacity: 0.6"/>
    </g>
   </g>
   <g id="PathCollection_33">
    <g clip-path="url(#p3ebd0032cd)">
     <use xlink:href="#mf5037619db" x="447.281894" y="181.763987" style="fill: #0000ff; fill-opacity: 0.6; stroke: #00008b; stroke-opacity: 0.6"/>
    </g>
   </g>
   <g id="PathCollection_34">
    <g clip-path="url(#p3ebd0032cd)">
     <use xlink:href="#mf5037619db" x="548.621326" y="201.013407" style="fill: #0000ff; fill-opacity: 0.6; stroke: #00008b; stroke-opacity: 0.6"/>
    </g>
   </g>
   <g id="PathCollection_35">
    <g clip-path="url(#p3ebd0032cd)">
     <use xlink:href="#mf5037619db" x="407.165585" y="198.128969" style="fill: #0000ff; fill-opacity: 0.6; stroke: #00008b; stroke-opacity: 0.6"/>
    </g>
   </g>
   <g id="PathCollection_36">
    <g clip-path="url(#p3ebd0032cd)">
     <use xlink:href="#mf5037619db" x="499.426928" y="191.56865" style="fill: #0000ff; fill-opacity: 0.6; stroke: #00008b; stroke-opacity: 0.6"/>
    </g>
   </g>
   <g id="PathCollection_37">
    <g clip-path="url(#p3ebd0032cd)">
     <use xlink:href="#mf5037619db" x="404.477114" y="192.238446" style="fill: #0000ff; fill-opacity: 0.6; stroke: #00008b; stroke-opacity: 0.6"/>
    </g>
   </g>
   <g id="PathCollection_38">
    <g clip-path="url(#p3ebd0032cd)">
     <use xlink:href="#mf5037619db" x="455.995009" y="179.684573" style="fill: #0000ff; fill-opacity: 0.6; stroke: #00008b; stroke-opacity: 0.6"/>
    </g>
   </g>
   <g id="PathCollection_39">
    <g clip-path="url(#p3ebd0032cd)">
     <use xlink:href="#mf5037619db" x="405.895887" y="185.367765" style="fill: #0000ff; fill-opacity: 0.6; stroke: #00008b; stroke-opacity: 0.6"/>
    </g>
   </g>
   <g id="PathCollection_40">
    <g clip-path="url(#p3ebd0032cd)">
     <use xlink:href="#mf5037619db" x="418.901302" y="188.605018" style="fill: #0000ff; fill-opacity: 0.6; stroke: #00008b; stroke-opacity: 0.6"/>
    </g>
   </g>
   <g id="PathCollection_41">
    <g clip-path="url(#p3ebd0032cd)">
     <use xlink:href="#mf5037619db" x="442.933048" y="184.862303" style="fill: #0000ff; fill-opacity: 0.6; stroke: #00008b; stroke-opacity: 0.6"/>
    </g>
   </g>
   <g id="PathCollection_42">
    <g clip-path="url(#p3ebd0032cd)">
     <use xlink:href="#mf5037619db" x="417.456827" y="182.244755" style="fill: #0000ff; fill-opacity: 0.6; stroke: #00008b; stroke-opacity: 0.6"/>
    </g>
   </g>
   <g id="PathCollection_43">
    <g clip-path="url(#p3ebd0032cd)">
     <use xlink:href="#mf5037619db" x="462.939798" y="194.49551" style="fill: #0000ff; fill-opacity: 0.6; stroke: #00008b; stroke-opacity: 0.6"/>
    </g>
   </g>
   <g id="PathCollection_44">
    <g clip-path="url(#p3ebd0032cd)">
     <use xlink:href="#mf5037619db" x="461.700942" y="184.142432" style="fill: #0000ff; fill-opacity: 0.6; stroke: #00008b; stroke-opacity: 0.6"/>
    </g>
   </g>
   <g id="PathCollection_45">
    <g clip-path="url(#p3ebd0032cd)">
     <use xlink:href="#mf5037619db" x="431.284719" y="193.02221" style="fill: #0000ff; fill-opacity: 0.6; stroke: #00008b; stroke-opacity: 0.6"/>
    </g>
   </g>
   <g id="PathCollection_46">
    <g clip-path="url(#p3ebd0032cd)">
     <use xlink:href="#mf5037619db" x="433.135292" y="180.671043" style="fill: #0000ff; fill-opacity: 0.6; stroke: #00008b; stroke-opacity: 0.6"/>
    </g>
   </g>
   <g id="PathCollection_47">
    <g clip-path="url(#p3ebd0032cd)">
     <use xlink:href="#mf5037619db" x="430.924886" y="193.417163" style="fill: #0000ff; fill-opacity: 0.6; stroke: #00008b; stroke-opacity: 0.6"/>
    </g>
   </g>
   <g id="PathCollection_48">
    <g clip-path="url(#p3ebd0032cd)">
     <use xlink:href="#mf5037619db" x="409.422256" y="193.43766" style="fill: #0000ff; fill-opacity: 0.6; stroke: #00008b; stroke-opacity: 0.6"/>
    </g>
   </g>
   <g id="PathCollection_49">
    <g clip-path="url(#p3ebd0032cd)">
     <use xlink:href="#mf5037619db" x="428.169588" y="183.601144" style="fill: #0000ff; fill-opacity: 0.6; stroke: #00008b; stroke-opacity: 0.6"/>
    </g>
   </g>
   <g id="PathCollection_50">
    <g clip-path="url(#p3ebd0032cd)">
     <use xlink:href="#mf5037619db" x="548.652169" y="199.069135" style="fill: #0000ff; fill-opacity: 0.6; stroke: #00008b; stroke-opacity: 0.6"/>
    </g>
   </g>
   <g id="PathCollection_51">
    <g clip-path="url(#p3ebd0032cd)">
     <use xlink:href="#mf5037619db" x="412.979469" y="178.080552" style="fill: #0000ff; fill-opacity: 0.6; stroke: #00008b; stroke-opacity: 0.6"/>
    </g>
   </g>
   <g id="PathCollection_52">
    <g clip-path="url(#p3ebd0032cd)">
     <use xlink:href="#mf5037619db" x="449.543706" y="198.565454" style="fill: #0000ff; fill-opacity: 0.6; stroke: #00008b; stroke-opacity: 0.6"/>
    </g>
   </g>
   <g id="PathCollection_53">
    <g clip-path="url(#p3ebd0032cd)">
     <use xlink:href="#mf5037619db" x="409.509644" y="174.979854" style="fill: #0000ff; fill-opacity: 0.6; stroke: #00008b; stroke-opacity: 0.6"/>
    </g>
   </g>
   <g id="PathCollection_54">
    <g clip-path="url(#p3ebd0032cd)">
     <use xlink:href="#mf5037619db" x="411.319093" y="204.18828" style="fill: #0000ff; fill-opacity: 0.6; stroke: #00008b; stroke-opacity: 0.6"/>
    </g>
   </g>
   <g id="PathCollection_55">
    <g clip-path="url(#p3ebd0032cd)">
     <use xlink:href="#mf5037619db" x="415.493163" y="193.431489" style="fill: #0000ff; fill-opacity: 0.6; stroke: #00008b; stroke-opacity: 0.6"/>
    </g>
   </g>
   <g id="PathCollection_56">
    <g clip-path="url(#p3ebd0032cd)">
     <use xlink:href="#mf5037619db" x="394.252698" y="196.918917" style="fill: #0000ff; fill-opacity: 0.6; stroke: #00008b; stroke-opacity: 0.6"/>
    </g>
   </g>
   <g id="PathCollection_57">
    <g clip-path="url(#p3ebd0032cd)">
     <use xlink:href="#mf5037619db" x="450.726016" y="200.988071" style="fill: #0000ff; fill-opacity: 0.6; stroke: #00008b; stroke-opacity: 0.6"/>
    </g>
   </g>
   <g id="PathCollection_58">
    <g clip-path="url(#p3ebd0032cd)">
     <use xlink:href="#mf5037619db" x="421.944466" y="196.244642" style="fill: #0000ff; fill-opacity: 0.6; stroke: #00008b; stroke-opacity: 0.6"/>
    </g>
   </g>
   <g id="PathCollection_59">
    <g clip-path="url(#p3ebd0032cd)">
     <use xlink:href="#mf5037619db" x="483.316662" y="187.091931" style="fill: #0000ff; fill-opacity: 0.6; stroke: #00008b; stroke-opacity: 0.6"/>
    </g>
   </g>
   <g id="PathCollection_60">
    <g clip-path="url(#p3ebd0032cd)">
     <use xlink:href="#mf5037619db" x="443.005015" y="190.328699" style="fill: #0000ff; fill-opacity: 0.6; stroke: #00008b; stroke-opacity: 0.6"/>
    </g>
   </g>
   <g id="PathCollection_61">
    <g clip-path="url(#p3ebd0032cd)">
     <use xlink:href="#mf5037619db" x="511.769222" y="191.250799" style="fill: #0000ff; fill-opacity: 0.6; stroke: #00008b; stroke-opacity: 0.6"/>
    </g>
   </g>
   <g id="PathCollection_62">
    <g clip-path="url(#p3ebd0032cd)">
     <use xlink:href="#mf5037619db" x="417.127836" y="191.94264" style="fill: #0000ff; fill-opacity: 0.6; stroke: #00008b; stroke-opacity: 0.6"/>
    </g>
   </g>
   <g id="PathCollection_63">
    <g clip-path="url(#p3ebd0032cd)">
     <use xlink:href="#mf5037619db" x="472.999718" y="180.286366" style="fill: #0000ff; fill-opacity: 0.6; stroke: #00008b; stroke-opacity: 0.6"/>
    </g>
   </g>
   <g id="PathCollection_64">
    <g clip-path="url(#p3ebd0032cd)">
     <use xlink:href="#mf5037619db" x="405.489789" y="195.218881" style="fill: #0000ff; fill-opacity: 0.6; stroke: #00008b; stroke-opacity: 0.6"/>
    </g>
   </g>
   <g id="PathCollection_65">
    <g clip-path="url(#p3ebd0032cd)">
     <use xlink:href="#mf5037619db" x="477.574746" y="188.675882" style="fill: #0000ff; fill-opacity: 0.6; stroke: #00008b; stroke-opacity: 0.6"/>
    </g>
   </g>
   <g id="PathCollection_66">
    <g clip-path="url(#p3ebd0032cd)">
     <use xlink:href="#mf5037619db" x="394.340087" y="194.321753" style="fill: #0000ff; fill-opacity: 0.6; stroke: #00008b; stroke-opacity: 0.6"/>
    </g>
   </g>
   <g id="PathCollection_67">
    <g clip-path="url(#p3ebd0032cd)">
     <use xlink:href="#mf5037619db" x="553.638435" y="191.152693" style="fill: #0000ff; fill-opacity: 0.6; stroke: #00008b; stroke-opacity: 0.6"/>
    </g>
   </g>
   <g id="PathCollection_68">
    <g clip-path="url(#p3ebd0032cd)">
     <use xlink:href="#mf5037619db" x="426.833063" y="199.627769" style="fill: #0000ff; fill-opacity: 0.6; stroke: #00008b; stroke-opacity: 0.6"/>
    </g>
   </g>
   <g id="PathCollection_69">
    <g clip-path="url(#p3ebd0032cd)">
     <use xlink:href="#mf5037619db" x="434.219934" y="187.477796" style="fill: #0000ff; fill-opacity: 0.6; stroke: #00008b; stroke-opacity: 0.6"/>
    </g>
   </g>
   <g id="PathCollection_70">
    <g clip-path="url(#p3ebd0032cd)">
     <use xlink:href="#mf5037619db" x="407.64879" y="174.368239" style="fill: #0000ff; fill-opacity: 0.6; stroke: #00008b; stroke-opacity: 0.6"/>
    </g>
   </g>
   <g id="PathCollection_71">
    <g clip-path="url(#p3ebd0032cd)">
     <use xlink:href="#mf5037619db" x="424.967069" y="197.898266" style="fill: #0000ff; fill-opacity: 0.6; stroke: #00008b; stroke-opacity: 0.6"/>
    </g>
   </g>
   <g id="PathCollection_72">
    <g clip-path="url(#p3ebd0032cd)">
     <use xlink:href="#mf5037619db" x="422.5202" y="187.492488" style="fill: #0000ff; fill-opacity: 0.6; stroke: #00008b; stroke-opacity: 0.6"/>
    </g>
   </g>
   <g id="PathCollection_73">
    <g clip-path="url(#p3ebd0032cd)">
     <use xlink:href="#mf5037619db" x="422.751522" y="188.670019" style="fill: #0000ff; fill-opacity: 0.6; stroke: #00008b; stroke-opacity: 0.6"/>
    </g>
   </g>
   <g id="PathCollection_74">
    <g clip-path="url(#p3ebd0032cd)">
     <use xlink:href="#mf5037619db" x="375.495085" y="194.062945" style="fill: #0000ff; fill-opacity: 0.6; stroke: #00008b; stroke-opacity: 0.6"/>
    </g>
   </g>
   <g id="PathCollection_75">
    <g clip-path="url(#p3ebd0032cd)">
     <use xlink:href="#mf5037619db" x="391.348327" y="181.852843" style="fill: #0000ff; fill-opacity: 0.6; stroke: #00008b; stroke-opacity: 0.6"/>
    </g>
   </g>
   <g id="PathCollection_76">
    <g clip-path="url(#p3ebd0032cd)">
     <use xlink:href="#mf5037619db" x="446.762706" y="186.182111" style="fill: #0000ff; fill-opacity: 0.6; stroke: #00008b; stroke-opacity: 0.6"/>
    </g>
   </g>
   <g id="PathCollection_77">
    <g clip-path="url(#p3ebd0032cd)">
     <use xlink:href="#mf5037619db" x="489.557206" y="187.940129" style="fill: #0000ff; fill-opacity: 0.6; stroke: #00008b; stroke-opacity: 0.6"/>
    </g>
   </g>
   <g id="PathCollection_78">
    <g clip-path="url(#p3ebd0032cd)">
     <use xlink:href="#mf5037619db" x="461.664959" y="194.287272" style="fill: #0000ff; fill-opacity: 0.6; stroke: #00008b; stroke-opacity: 0.6"/>
    </g>
   </g>
   <g id="PathCollection_79">
    <g clip-path="url(#p3ebd0032cd)">
     <use xlink:href="#mf5037619db" x="439.684264" y="191.061466" style="fill: #0000ff; fill-opacity: 0.6; stroke: #00008b; stroke-opacity: 0.6"/>
    </g>
   </g>
   <g id="PathCollection_80">
    <g clip-path="url(#p3ebd0032cd)">
     <use xlink:href="#mf5037619db" x="413.436971" y="192.70335" style="fill: #0000ff; fill-opacity: 0.6; stroke: #00008b; stroke-opacity: 0.6"/>
    </g>
   </g>
   <g id="PathCollection_81">
    <g clip-path="url(#p3ebd0032cd)">
     <use xlink:href="#mf5037619db" x="442.41386" y="187.826452" style="fill: #0000ff; fill-opacity: 0.6; stroke: #00008b; stroke-opacity: 0.6"/>
    </g>
   </g>
   <g id="PathCollection_82">
    <g clip-path="url(#p3ebd0032cd)">
     <use xlink:href="#mf5037619db" x="420.494851" y="192.015107" style="fill: #0000ff; fill-opacity: 0.6; stroke: #00008b; stroke-opacity: 0.6"/>
    </g>
   </g>
   <g id="PathCollection_83">
    <g clip-path="url(#p3ebd0032cd)">
     <use xlink:href="#mf5037619db" x="498.172651" y="182.128371" style="fill: #0000ff; fill-opacity: 0.6; stroke: #00008b; stroke-opacity: 0.6"/>
    </g>
   </g>
   <g id="PathCollection_84">
    <g clip-path="url(#p3ebd0032cd)">
     <use xlink:href="#mf5037619db" x="428.061638" y="181.073002" style="fill: #0000ff; fill-opacity: 0.6; stroke: #00008b; stroke-opacity: 0.6"/>
    </g>
   </g>
   <g id="PathCollection_85">
    <g clip-path="url(#p3ebd0032cd)">
     <use xlink:href="#mf5037619db" x="467.8798" y="183.081251" style="fill: #0000ff; fill-opacity: 0.6; stroke: #00008b; stroke-opacity: 0.6"/>
    </g>
   </g>
   <g id="PathCollection_86">
    <g clip-path="url(#p3ebd0032cd)">
     <use xlink:href="#mf5037619db" x="383.524516" y="189.528675" style="fill: #0000ff; fill-opacity: 0.6; stroke: #00008b; stroke-opacity: 0.6"/>
    </g>
   </g>
   <g id="PathCollection_87">
    <g clip-path="url(#p3ebd0032cd)">
     <use xlink:href="#mf5037619db" x="426.58632" y="206.994756" style="fill: #0000ff; fill-opacity: 0.6; stroke: #00008b; stroke-opacity: 0.6"/>
    </g>
   </g>
   <g id="PathCollection_88">
    <g clip-path="url(#p3ebd0032cd)">
     <use xlink:href="#mf5037619db" x="414.819761" y="190.486391" style="fill: #0000ff; fill-opacity: 0.6; stroke: #00008b; stroke-opacity: 0.6"/>
    </g>
   </g>
   <g id="PathCollection_89">
    <g clip-path="url(#p3ebd0032cd)">
     <use xlink:href="#mf5037619db" x="418.459221" y="200.854524" style="fill: #0000ff; fill-opacity: 0.6; stroke: #00008b; stroke-opacity: 0.6"/>
    </g>
   </g>
   <g id="PathCollection_90">
    <g clip-path="url(#p3ebd0032cd)">
     <use xlink:href="#mf5037619db" x="511.573883" y="187.506255" style="fill: #0000ff; fill-opacity: 0.6; stroke: #00008b; stroke-opacity: 0.6"/>
    </g>
   </g>
   <g id="PathCollection_91">
    <g clip-path="url(#p3ebd0032cd)">
     <use xlink:href="#mf5037619db" x="423.502032" y="177.518987" style="fill: #0000ff; fill-opacity: 0.6; stroke: #00008b; stroke-opacity: 0.6"/>
    </g>
   </g>
   <g id="PathCollection_92">
    <g clip-path="url(#p3ebd0032cd)">
     <use xlink:href="#mf5037619db" x="452.47892" y="190.093459" style="fill: #0000ff; fill-opacity: 0.6; stroke: #00008b; stroke-opacity: 0.6"/>
    </g>
   </g>
   <g id="PathCollection_93">
    <g clip-path="url(#p3ebd0032cd)">
     <use xlink:href="#mf5037619db" x="440.91798" y="186.709812" style="fill: #0000ff; fill-opacity: 0.6; stroke: #00008b; stroke-opacity: 0.6"/>
    </g>
   </g>
   <g id="PathCollection_94">
    <g clip-path="url(#p3ebd0032cd)">
     <use xlink:href="#mf5037619db" x="547.217975" y="181.832324" style="fill: #0000ff; fill-opacity: 0.6; stroke: #00008b; stroke-opacity: 0.6"/>
    </g>
   </g>
   <g id="line2d_18">
    <path d="M 441.167293 274.595812 
L 441.167293 107.423812 
" clip-path="url(#p3ebd0032cd)" style="fill: none; stroke: #ff0000; stroke-width: 2"/>
   </g>
   <g id="patch_4">
    <path d="M 363.107812 358.181812 
L 363.107812 23.837812 
" style="fill: none; stroke: #000000; stroke-linejoin: miter; stroke-linecap: square"/>
   </g>
   <g id="patch_5">
    <path d="M 635.627812 358.181812 
L 635.627812 23.837812 
" style="fill: none; stroke: #000000; stroke-linejoin: miter; stroke-linecap: square"/>
   </g>
   <g id="patch_6">
    <path d="M 363.107812 358.181812 
L 635.627812 358.181812 
" style="fill: none; stroke: #000000; stroke-linejoin: miter; stroke-linecap: square"/>
   </g>
   <g id="patch_7">
    <path d="M 363.107812 23.837812 
L 635.627812 23.837812 
" style="fill: none; stroke: #000000; stroke-linejoin: miter; stroke-linecap: square"/>
   </g>
   <g id="PathCollection_95">
    <defs>
     <path id="m34d6bd4fce" d="M -3.061862 6.123724 
L 0 3.061862 
L 3.061862 6.123724 
L 6.123724 3.061862 
L 3.061862 0 
L 6.123724 -3.061862 
L 3.061862 -6.123724 
L 0 -3.061862 
L -3.061862 -6.123724 
L -6.123724 -3.061862 
L -3.061862 0 
L -6.123724 3.061862 
z
" style="stroke: #8b0000; stroke-opacity: 0.9; stroke-width: 2"/>
    </defs>
    <g clip-path="url(#p3ebd0032cd)">
     <use xlink:href="#m34d6bd4fce" x="569.692155" y="180.581503" style="fill: #ff0000; fill-opacity: 0.9; stroke: #8b0000; stroke-opacity: 0.9; stroke-width: 2"/>
    </g>
   </g>
   <g id="PathCollection_96">
    <g clip-path="url(#p3ebd0032cd)">
     <use xlink:href="#m34d6bd4fce" x="584.743482" y="192.394456" style="fill: #ff0000; fill-opacity: 0.9; stroke: #8b0000; stroke-opacity: 0.9; stroke-width: 2"/>
    </g>
   </g>
   <g id="PathCollection_97">
    <g clip-path="url(#p3ebd0032cd)">
     <use xlink:href="#m34d6bd4fce" x="605.541866" y="193.953217" style="fill: #ff0000; fill-opacity: 0.9; stroke: #8b0000; stroke-opacity: 0.9; stroke-width: 2"/>
    </g>
   </g>
   <g id="PathCollection_98">
    <g clip-path="url(#p3ebd0032cd)">
     <use xlink:href="#m34d6bd4fce" x="571.77919" y="180.693929" style="fill: #ff0000; fill-opacity: 0.9; stroke: #8b0000; stroke-opacity: 0.9; stroke-width: 2"/>
    </g>
   </g>
   <g id="PathCollection_99">
    <g clip-path="url(#p3ebd0032cd)">
     <use xlink:href="#m34d6bd4fce" x="623.24054" y="197.180625" style="fill: #ff0000; fill-opacity: 0.9; stroke: #8b0000; stroke-opacity: 0.9; stroke-width: 2"/>
    </g>
   </g>
   <g id="PathCollection_100">
    <g clip-path="url(#p3ebd0032cd)">
     <use xlink:href="#m34d6bd4fce" x="581.355905" y="200.293417" style="fill: #ff0000; fill-opacity: 0.9; stroke: #8b0000; stroke-opacity: 0.9; stroke-width: 2"/>
    </g>
   </g>
   <g id="text_8">
    <g id="patch_8">
     <path d="M 553.907702 143.558212 
L 585.476608 143.558212 
Q 588.176608 143.558212 588.176608 140.858212 
L 588.176608 132.1479 
Q 588.176608 129.4479 585.476608 129.4479 
L 553.907702 129.4479 
Q 551.207702 129.4479 551.207702 132.1479 
L 551.207702 140.858212 
Q 551.207702 143.558212 553.907702 143.558212 
z
" style="fill: #ffff00; opacity: 0.7; stroke: #000000; stroke-width: 0.8; stroke-linejoin: miter"/>
    </g>
    <!-- Run 12 -->
    <g transform="translate(553.907702 138.986494) scale(0.09 -0.09)">
     <defs>
      <path id="DejaVuSans-52" d="M 2841 2188 
Q 3044 2119 3236 1894 
Q 3428 1669 3622 1275 
L 4263 0 
L 3584 0 
L 2988 1197 
Q 2756 1666 2539 1819 
Q 2322 1972 1947 1972 
L 1259 1972 
L 1259 0 
L 628 0 
L 628 4666 
L 2053 4666 
Q 2853 4666 3247 4331 
Q 3641 3997 3641 3322 
Q 3641 2881 3436 2590 
Q 3231 2300 2841 2188 
z
M 1259 4147 
L 1259 2491 
L 2053 2491 
Q 2509 2491 2742 2702 
Q 2975 2913 2975 3322 
Q 2975 3731 2742 3939 
Q 2509 4147 2053 4147 
L 1259 4147 
z
" transform="scale(0.015625)"/>
      <path id="DejaVuSans-75" d="M 544 1381 
L 544 3500 
L 1119 3500 
L 1119 1403 
Q 1119 906 1312 657 
Q 1506 409 1894 409 
Q 2359 409 2629 706 
Q 2900 1003 2900 1516 
L 2900 3500 
L 3475 3500 
L 3475 0 
L 2900 0 
L 2900 538 
Q 2691 219 2414 64 
Q 2138 -91 1772 -91 
Q 1169 -91 856 284 
Q 544 659 544 1381 
z
M 1991 3584 
L 1991 3584 
z
" transform="scale(0.015625)"/>
      <path id="DejaVuSans-6e" d="M 3513 2113 
L 3513 0 
L 2938 0 
L 2938 2094 
Q 2938 2591 2744 2837 
Q 2550 3084 2163 3084 
Q 1697 3084 1428 2787 
Q 1159 2491 1159 1978 
L 1159 0 
L 581 0 
L 581 3500 
L 1159 3500 
L 1159 2956 
Q 1366 3272 1645 3428 
Q 1925 3584 2291 3584 
Q 2894 3584 3203 3211 
Q 3513 2838 3513 2113 
z
" transform="scale(0.015625)"/>
      <path id="DejaVuSans-20" transform="scale(0.015625)"/>
      <path id="DejaVuSans-31" d="M 794 531 
L 1825 531 
L 1825 4091 
L 703 3866 
L 703 4441 
L 1819 4666 
L 2450 4666 
L 2450 531 
L 3481 531 
L 3481 0 
L 794 0 
L 794 531 
z
" transform="scale(0.015625)"/>
      <path id="DejaVuSans-32" d="M 1228 531 
L 3431 531 
L 3431 0 
L 469 0 
L 469 531 
Q 828 903 1448 1529 
Q 2069 2156 2228 2338 
Q 2531 2678 2651 2914 
Q 2772 3150 2772 3378 
Q 2772 3750 2511 3984 
Q 2250 4219 1831 4219 
Q 1534 4219 1204 4116 
Q 875 4013 500 3803 
L 500 4441 
Q 881 4594 1212 4672 
Q 1544 4750 1819 4750 
Q 2544 4750 2975 4387 
Q 3406 4025 3406 3419 
Q 3406 3131 3298 2873 
Q 3191 2616 2906 2266 
Q 2828 2175 2409 1742 
Q 1991 1309 1228 531 
z
" transform="scale(0.015625)"/>
     </defs>
     <use xlink:href="#DejaVuSans-52"/>
     <use xlink:href="#DejaVuSans-75" x="64.982422"/>
     <use xlink:href="#DejaVuSans-6e" x="128.361328"/>
     <use xlink:href="#DejaVuSans-20" x="191.740234"/>
     <use xlink:href="#DejaVuSans-31" x="223.527344"/>
     <use xlink:href="#DejaVuSans-32" x="287.150391"/>
    </g>
   </g>
   <g id="text_9">
    <g id="patch_9">
     <path d="M 568.959029 143.558212 
L 600.527935 143.558212 
Q 603.227935 143.558212 603.227935 140.858212 
L 603.227935 132.1479 
Q 603.227935 129.4479 600.527935 129.4479 
L 568.959029 129.4479 
Q 566.259029 129.4479 566.259029 132.1479 
L 566.259029 140.858212 
Q 566.259029 143.558212 568.959029 143.558212 
z
" style="fill: #ffff00; opacity: 0.7; stroke: #000000; stroke-width: 0.8; stroke-linejoin: miter"/>
    </g>
    <!-- Run 18 -->
    <g transform="translate(568.959029 138.986494) scale(0.09 -0.09)">
     <use xlink:href="#DejaVuSans-52"/>
     <use xlink:href="#DejaVuSans-75" x="64.982422"/>
     <use xlink:href="#DejaVuSans-6e" x="128.361328"/>
     <use xlink:href="#DejaVuSans-20" x="191.740234"/>
     <use xlink:href="#DejaVuSans-31" x="223.527344"/>
     <use xlink:href="#DejaVuSans-38" x="287.150391"/>
    </g>
   </g>
   <g id="text_10">
    <g id="patch_10">
     <path d="M 589.757413 143.558212 
L 621.326319 143.558212 
Q 624.026319 143.558212 624.026319 140.858212 
L 624.026319 132.1479 
Q 624.026319 129.4479 621.326319 129.4479 
L 589.757413 129.4479 
Q 587.057413 129.4479 587.057413 132.1479 
L 587.057413 140.858212 
Q 587.057413 143.558212 589.757413 143.558212 
z
" style="fill: #ffff00; opacity: 0.7; stroke: #000000; stroke-width: 0.8; stroke-linejoin: miter"/>
    </g>
    <!-- Run 21 -->
    <g transform="translate(589.757413 138.986494) scale(0.09 -0.09)">
     <use xlink:href="#DejaVuSans-52"/>
     <use xlink:href="#DejaVuSans-75" x="64.982422"/>
     <use xlink:href="#DejaVuSans-6e" x="128.361328"/>
     <use xlink:href="#DejaVuSans-20" x="191.740234"/>
     <use xlink:href="#DejaVuSans-32" x="223.527344"/>
     <use xlink:href="#DejaVuSans-31" x="287.150391"/>
    </g>
   </g>
   <g id="text_11">
    <g id="patch_11">
     <path d="M 555.994737 143.558212 
L 587.563643 143.558212 
Q 590.263643 143.558212 590.263643 140.858212 
L 590.263643 132.1479 
Q 590.263643 129.4479 587.563643 129.4479 
L 555.994737 129.4479 
Q 553.294737 129.4479 553.294737 132.1479 
L 553.294737 140.858212 
Q 553.294737 143.558212 555.994737 143.558212 
z
" style="fill: #ffff00; opacity: 0.7; stroke: #000000; stroke-width: 0.8; stroke-linejoin: miter"/>
    </g>
    <!-- Run 27 -->
    <g transform="translate(555.994737 138.986494) scale(0.09 -0.09)">
     <use xlink:href="#DejaVuSans-52"/>
     <use xlink:href="#DejaVuSans-75" x="64.982422"/>
     <use xlink:href="#DejaVuSans-6e" x="128.361328"/>
     <use xlink:href="#DejaVuSans-20" x="191.740234"/>
     <use xlink:href="#DejaVuSans-32" x="223.527344"/>
     <use xlink:href="#DejaVuSans-37" x="287.150391"/>
    </g>
   </g>
   <g id="text_12">
    <g id="patch_12">
     <path d="M 607.456087 143.558212 
L 639.024993 143.558212 
Q 641.724993 143.558212 641.724993 140.858212 
L 641.724993 132.1479 
Q 641.724993 129.4479 639.024993 129.4479 
L 607.456087 129.4479 
Q 604.756087 129.4479 604.756087 132.1479 
L 604.756087 140.858212 
Q 604.756087 143.558212 607.456087 143.558212 
z
" style="fill: #ffff00; opacity: 0.7; stroke: #000000; stroke-width: 0.8; stroke-linejoin: miter"/>
    </g>
    <!-- Run 81 -->
    <g transform="translate(607.456087 138.986494) scale(0.09 -0.09)">
     <use xlink:href="#DejaVuSans-52"/>
     <use xlink:href="#DejaVuSans-75" x="64.982422"/>
     <use xlink:href="#DejaVuSans-6e" x="128.361328"/>
     <use xlink:href="#DejaVuSans-20" x="191.740234"/>
     <use xlink:href="#DejaVuSans-38" x="223.527344"/>
     <use xlink:href="#DejaVuSans-31" x="287.150391"/>
    </g>
   </g>
   <g id="text_13">
    <g id="patch_13">
     <path d="M 565.571452 143.558212 
L 597.140358 143.558212 
Q 599.840358 143.558212 599.840358 140.858212 
L 599.840358 132.1479 
Q 599.840358 129.4479 597.140358 129.4479 
L 565.571452 129.4479 
Q 562.871452 129.4479 562.871452 132.1479 
L 562.871452 140.858212 
Q 562.871452 143.558212 565.571452 143.558212 
z
" style="fill: #ffff00; opacity: 0.7; stroke: #000000; stroke-width: 0.8; stroke-linejoin: miter"/>
    </g>
    <!-- Run 87 -->
    <g transform="translate(565.571452 138.986494) scale(0.09 -0.09)">
     <use xlink:href="#DejaVuSans-52"/>
     <use xlink:href="#DejaVuSans-75" x="64.982422"/>
     <use xlink:href="#DejaVuSans-6e" x="128.361328"/>
     <use xlink:href="#DejaVuSans-20" x="191.740234"/>
     <use xlink:href="#DejaVuSans-38" x="223.527344"/>
     <use xlink:href="#DejaVuSans-37" x="287.150391"/>
    </g>
   </g>
   <g id="text_14">
    <g id="patch_14">
     <path d="M 368.558212 44.47063 
L 470.28415 44.47063 
Q 473.58415 44.47063 473.58415 41.17063 
L 473.58415 30.524693 
Q 473.58415 27.224693 470.28415 27.224693 
L 368.558212 27.224693 
Q 365.258212 27.224693 365.258212 30.524693 
L 365.258212 41.17063 
Q 365.258212 44.47063 368.558212 44.47063 
z
" style="fill: #ffffff; opacity: 0.9; stroke: #000000; stroke-width: 0.8; stroke-linejoin: miter"/>
    </g>
    <!-- IQR Factor: 0.0 -->
    <g transform="translate(368.558212 38.882974) scale(0.11 -0.11)">
     <defs>
      <path id="DejaVuSans-Bold-49" d="M 588 4666 
L 1791 4666 
L 1791 0 
L 588 0 
L 588 4666 
z
" transform="scale(0.015625)"/>
      <path id="DejaVuSans-Bold-51" d="M 2847 -84 
L 2753 -84 
Q 1600 -84 959 553 
Q 319 1191 319 2328 
Q 319 3463 958 4106 
Q 1597 4750 2719 4750 
Q 3853 4750 4486 4112 
Q 5119 3475 5119 2328 
Q 5119 1541 4783 972 
Q 4447 403 3816 116 
L 4756 -934 
L 3609 -934 
L 2847 -84 
z
M 2719 3878 
Q 2169 3878 1866 3472 
Q 1563 3066 1563 2328 
Q 1563 1578 1859 1179 
Q 2156 781 2719 781 
Q 3272 781 3575 1187 
Q 3878 1594 3878 2328 
Q 3878 3066 3575 3472 
Q 3272 3878 2719 3878 
z
" transform="scale(0.015625)"/>
      <path id="DejaVuSans-Bold-52" d="M 2297 2597 
Q 2675 2597 2839 2737 
Q 3003 2878 3003 3200 
Q 3003 3519 2839 3656 
Q 2675 3794 2297 3794 
L 1791 3794 
L 1791 2597 
L 2297 2597 
z
M 1791 1766 
L 1791 0 
L 588 0 
L 588 4666 
L 2425 4666 
Q 3347 4666 3776 4356 
Q 4206 4047 4206 3378 
Q 4206 2916 3982 2619 
Q 3759 2322 3309 2181 
Q 3556 2125 3751 1926 
Q 3947 1728 4147 1325 
L 4800 0 
L 3519 0 
L 2950 1159 
Q 2778 1509 2601 1637 
Q 2425 1766 2131 1766 
L 1791 1766 
z
" transform="scale(0.015625)"/>
      <path id="DejaVuSans-Bold-46" d="M 588 4666 
L 3834 4666 
L 3834 3756 
L 1791 3756 
L 1791 2888 
L 3713 2888 
L 3713 1978 
L 1791 1978 
L 1791 0 
L 588 0 
L 588 4666 
z
" transform="scale(0.015625)"/>
      <path id="DejaVuSans-Bold-72" d="M 3138 2547 
Q 2991 2616 2845 2648 
Q 2700 2681 2553 2681 
Q 2122 2681 1889 2404 
Q 1656 2128 1656 1613 
L 1656 0 
L 538 0 
L 538 3500 
L 1656 3500 
L 1656 2925 
Q 1872 3269 2151 3426 
Q 2431 3584 2822 3584 
Q 2878 3584 2943 3579 
Q 3009 3575 3134 3559 
L 3138 2547 
z
" transform="scale(0.015625)"/>
      <path id="DejaVuSans-Bold-3a" d="M 716 3500 
L 1844 3500 
L 1844 2291 
L 716 2291 
L 716 3500 
z
M 716 1209 
L 1844 1209 
L 1844 0 
L 716 0 
L 716 1209 
z
" transform="scale(0.015625)"/>
      <path id="DejaVuSans-Bold-30" d="M 2944 2338 
Q 2944 3213 2780 3570 
Q 2616 3928 2228 3928 
Q 1841 3928 1675 3570 
Q 1509 3213 1509 2338 
Q 1509 1453 1675 1090 
Q 1841 728 2228 728 
Q 2613 728 2778 1090 
Q 2944 1453 2944 2338 
z
M 4147 2328 
Q 4147 1169 3647 539 
Q 3147 -91 2228 -91 
Q 1306 -91 806 539 
Q 306 1169 306 2328 
Q 306 3491 806 4120 
Q 1306 4750 2228 4750 
Q 3147 4750 3647 4120 
Q 4147 3491 4147 2328 
z
" transform="scale(0.015625)"/>
      <path id="DejaVuSans-Bold-2e" d="M 653 1209 
L 1778 1209 
L 1778 0 
L 653 0 
L 653 1209 
z
" transform="scale(0.015625)"/>
      <path id="DejaVuSans-Bold-d7" d="M 4563 3359 
L 3206 2003 
L 4563 653 
L 4038 128 
L 2681 1478 
L 1325 128 
L 800 653 
L 2156 2003 
L 800 3359 
L 1325 3884 
L 2681 2528 
L 4038 3884 
L 4563 3359 
z
" transform="scale(0.015625)"/>
     </defs>
     <use xlink:href="#DejaVuSans-Bold-49"/>
     <use xlink:href="#DejaVuSans-Bold-51" x="37.207031"/>
     <use xlink:href="#DejaVuSans-Bold-52" x="122.216797"/>
     <use xlink:href="#DejaVuSans-Bold-20" x="199.21875"/>
     <use xlink:href="#DejaVuSans-Bold-46" x="234.033203"/>
     <use xlink:href="#DejaVuSans-Bold-61" x="296.46875"/>
     <use xlink:href="#DejaVuSans-Bold-63" x="363.949219"/>
     <use xlink:href="#DejaVuSans-Bold-74" x="423.226562"/>
     <use xlink:href="#DejaVuSans-Bold-6f" x="471.029297"/>
     <use xlink:href="#DejaVuSans-Bold-72" x="539.730469"/>
     <use xlink:href="#DejaVuSans-Bold-3a" x="589.046875"/>
     <use xlink:href="#DejaVuSans-Bold-20" x="629.037109"/>
     <use xlink:href="#DejaVuSans-Bold-30" x="663.851562"/>
     <use xlink:href="#DejaVuSans-Bold-2e" x="733.431641"/>
     <use xlink:href="#DejaVuSans-Bold-30" x="771.419922"/>
     <use xlink:href="#DejaVuSans-Bold-d7" x="841"/>
    </g>
   </g>
   <g id="text_15">
    <!-- Box plot shows quartiles (Q1, median, Q3) and whiskers at 0.0IQR. Red X markers indicate outlier runs. 6/100 runs identified as outliers. Useful for data quality assessment and identifying anomalous benchmark runs. -->
    <g transform="translate(7.2 415.172006) scale(0.09 -0.09)">
     <defs>
      <path id="DejaVuSans-Oblique-42" d="M 1081 4666 
L 2694 4666 
Q 3350 4666 3675 4422 
Q 4000 4178 4000 3688 
Q 4000 3238 3720 2911 
Q 3441 2584 2988 2516 
Q 3375 2428 3569 2181 
Q 3763 1934 3763 1522 
Q 3763 819 3242 409 
Q 2722 0 1819 0 
L 172 0 
L 1081 4666 
z
M 1234 2228 
L 903 519 
L 1919 519 
Q 2491 519 2800 781 
Q 3109 1044 3109 1522 
Q 3109 1891 2904 2059 
Q 2700 2228 2247 2228 
L 1234 2228 
z
M 1606 4147 
L 1331 2741 
L 2272 2741 
Q 2775 2741 3058 2959 
Q 3341 3178 3341 3566 
Q 3341 3869 3150 4008 
Q 2959 4147 2541 4147 
L 1606 4147 
z
" transform="scale(0.015625)"/>
      <path id="DejaVuSans-Oblique-6f" d="M 1625 -91 
Q 1009 -91 651 289 
Q 294 669 294 1325 
Q 294 1706 417 2101 
Q 541 2497 738 2766 
Q 1047 3184 1428 3384 
Q 1809 3584 2291 3584 
Q 2888 3584 3255 3212 
Q 3622 2841 3622 2241 
Q 3622 1825 3500 1412 
Q 3378 1000 3181 728 
Q 2875 309 2494 109 
Q 2113 -91 1625 -91 
z
M 891 1344 
Q 891 869 1089 633 
Q 1288 397 1691 397 
Q 2269 397 2648 901 
Q 3028 1406 3028 2181 
Q 3028 2634 2825 2865 
Q 2622 3097 2228 3097 
Q 1903 3097 1650 2945 
Q 1397 2794 1197 2484 
Q 1050 2253 970 1956 
Q 891 1659 891 1344 
z
" transform="scale(0.015625)"/>
      <path id="DejaVuSans-Oblique-78" d="M 3841 3500 
L 2234 1784 
L 3219 0 
L 2559 0 
L 1819 1388 
L 531 0 
L -166 0 
L 1556 1844 
L 641 3500 
L 1300 3500 
L 1972 2234 
L 3144 3500 
L 3841 3500 
z
" transform="scale(0.015625)"/>
      <path id="DejaVuSans-Oblique-20" transform="scale(0.015625)"/>
      <path id="DejaVuSans-Oblique-70" d="M 3175 2156 
Q 3175 2616 2975 2859 
Q 2775 3103 2400 3103 
Q 2144 3103 1911 2972 
Q 1678 2841 1497 2591 
Q 1319 2344 1212 1994 
Q 1106 1644 1106 1300 
Q 1106 863 1306 627 
Q 1506 391 1875 391 
Q 2147 391 2380 519 
Q 2613 647 2778 891 
Q 2956 1147 3065 1494 
Q 3175 1841 3175 2156 
z
M 1394 2969 
Q 1625 3272 1939 3428 
Q 2253 3584 2638 3584 
Q 3175 3584 3472 3232 
Q 3769 2881 3769 2247 
Q 3769 1728 3584 1258 
Q 3400 788 3053 416 
Q 2822 169 2531 39 
Q 2241 -91 1919 -91 
Q 1547 -91 1294 64 
Q 1041 219 916 525 
L 556 -1331 
L -19 -1331 
L 922 3500 
L 1497 3500 
L 1394 2969 
z
" transform="scale(0.015625)"/>
      <path id="DejaVuSans-Oblique-6c" d="M 1172 4863 
L 1747 4863 
L 800 0 
L 225 0 
L 1172 4863 
z
" transform="scale(0.015625)"/>
      <path id="DejaVuSans-Oblique-74" d="M 2706 3500 
L 2619 3053 
L 1472 3053 
L 1100 1153 
Q 1081 1047 1072 975 
Q 1063 903 1063 863 
Q 1063 663 1183 572 
Q 1303 481 1569 481 
L 2150 481 
L 2053 0 
L 1503 0 
Q 991 0 739 200 
Q 488 400 488 806 
Q 488 878 497 964 
Q 506 1050 525 1153 
L 897 3053 
L 409 3053 
L 500 3500 
L 978 3500 
L 1172 4494 
L 1747 4494 
L 1556 3500 
L 2706 3500 
z
" transform="scale(0.015625)"/>
      <path id="DejaVuSans-Oblique-73" d="M 3200 3397 
L 3091 2853 
Q 2863 2978 2609 3040 
Q 2356 3103 2088 3103 
Q 1634 3103 1373 2948 
Q 1113 2794 1113 2528 
Q 1113 2219 1719 2053 
Q 1766 2041 1788 2034 
L 1972 1978 
Q 2547 1819 2739 1644 
Q 2931 1469 2931 1166 
Q 2931 609 2489 259 
Q 2047 -91 1331 -91 
Q 1053 -91 747 -37 
Q 441 16 72 128 
L 184 722 
Q 500 559 806 475 
Q 1113 391 1394 391 
Q 1816 391 2080 572 
Q 2344 753 2344 1031 
Q 2344 1331 1650 1516 
L 1591 1531 
L 1394 1581 
Q 956 1697 753 1886 
Q 550 2075 550 2369 
Q 550 2928 970 3256 
Q 1391 3584 2113 3584 
Q 2397 3584 2667 3537 
Q 2938 3491 3200 3397 
z
" transform="scale(0.015625)"/>
      <path id="DejaVuSans-Oblique-68" d="M 3566 2113 
L 3156 0 
L 2578 0 
L 2988 2091 
Q 3016 2238 3031 2350 
Q 3047 2463 3047 2528 
Q 3047 2791 2881 2937 
Q 2716 3084 2419 3084 
Q 1956 3084 1617 2771 
Q 1278 2459 1178 1941 
L 800 0 
L 225 0 
L 1172 4863 
L 1747 4863 
L 1375 2950 
Q 1594 3244 1934 3414 
Q 2275 3584 2650 3584 
Q 3113 3584 3367 3334 
Q 3622 3084 3622 2631 
Q 3622 2519 3608 2391 
Q 3594 2263 3566 2113 
z
" transform="scale(0.015625)"/>
      <path id="DejaVuSans-Oblique-77" d="M 544 3500 
L 1113 3500 
L 1259 684 
L 2566 3500 
L 3231 3500 
L 3425 684 
L 4666 3500 
L 5241 3500 
L 3641 0 
L 2969 0 
L 2797 2900 
L 1459 0 
L 781 0 
L 544 3500 
z
" transform="scale(0.015625)"/>
      <path id="DejaVuSans-Oblique-71" d="M 2669 525 
Q 2438 222 2123 65 
Q 1809 -91 1428 -91 
Q 897 -91 595 267 
Q 294 625 294 1253 
Q 294 1759 480 2231 
Q 666 2703 1013 3078 
Q 1238 3322 1530 3453 
Q 1822 3584 2144 3584 
Q 2531 3584 2781 3431 
Q 3031 3278 3144 2969 
L 3244 3494 
L 3822 3494 
L 2888 -1319 
L 2309 -1319 
L 2669 525 
z
M 891 1338 
Q 891 875 1084 633 
Q 1278 391 1644 391 
Q 2188 391 2572 911 
Q 2956 1431 2956 2175 
Q 2956 2625 2757 2864 
Q 2559 3103 2188 3103 
Q 1916 3103 1684 2976 
Q 1453 2850 1281 2606 
Q 1100 2350 995 2006 
Q 891 1663 891 1338 
z
" transform="scale(0.015625)"/>
      <path id="DejaVuSans-Oblique-75" d="M 428 1388 
L 838 3500 
L 1416 3500 
L 1006 1409 
Q 975 1256 961 1147 
Q 947 1038 947 966 
Q 947 700 1109 554 
Q 1272 409 1569 409 
Q 2031 409 2368 721 
Q 2706 1034 2809 1563 
L 3194 3500 
L 3769 3500 
L 3091 0 
L 2516 0 
L 2631 550 
Q 2388 244 2052 76 
Q 1716 -91 1338 -91 
Q 878 -91 622 161 
Q 366 413 366 863 
Q 366 956 381 1097 
Q 397 1238 428 1388 
z
" transform="scale(0.015625)"/>
      <path id="DejaVuSans-Oblique-61" d="M 3438 1997 
L 3047 0 
L 2472 0 
L 2578 531 
Q 2325 219 2001 64 
Q 1678 -91 1281 -91 
Q 834 -91 548 182 
Q 263 456 263 884 
Q 263 1497 752 1853 
Q 1241 2209 2100 2209 
L 2900 2209 
L 2931 2363 
Q 2938 2388 2941 2417 
Q 2944 2447 2944 2509 
Q 2944 2788 2717 2942 
Q 2491 3097 2081 3097 
Q 1800 3097 1504 3025 
Q 1209 2953 897 2809 
L 997 3341 
Q 1322 3463 1633 3523 
Q 1944 3584 2234 3584 
Q 2853 3584 3176 3315 
Q 3500 3047 3500 2534 
Q 3500 2431 3484 2292 
Q 3469 2153 3438 1997 
z
M 2816 1759 
L 2241 1759 
Q 1534 1759 1195 1570 
Q 856 1381 856 984 
Q 856 709 1029 553 
Q 1203 397 1509 397 
Q 1978 397 2328 733 
Q 2678 1069 2791 1631 
L 2816 1759 
z
" transform="scale(0.015625)"/>
      <path id="DejaVuSans-Oblique-72" d="M 2853 2969 
Q 2766 3016 2653 3041 
Q 2541 3066 2413 3066 
Q 1953 3066 1609 2717 
Q 1266 2369 1153 1784 
L 800 0 
L 225 0 
L 909 3500 
L 1484 3500 
L 1375 2956 
Q 1603 3259 1920 3421 
Q 2238 3584 2597 3584 
Q 2691 3584 2781 3573 
Q 2872 3563 2963 3538 
L 2853 2969 
z
" transform="scale(0.015625)"/>
      <path id="DejaVuSans-Oblique-69" d="M 1172 4863 
L 1747 4863 
L 1606 4134 
L 1031 4134 
L 1172 4863 
z
M 909 3500 
L 1484 3500 
L 800 0 
L 225 0 
L 909 3500 
z
" transform="scale(0.015625)"/>
      <path id="DejaVuSans-Oblique-65" d="M 3078 2063 
Q 3088 2113 3092 2166 
Q 3097 2219 3097 2272 
Q 3097 2653 2873 2875 
Q 2650 3097 2266 3097 
Q 1838 3097 1509 2826 
Q 1181 2556 1013 2059 
L 3078 2063 
z
M 3578 1613 
L 903 1613 
Q 884 1494 878 1425 
Q 872 1356 872 1306 
Q 872 872 1139 634 
Q 1406 397 1894 397 
Q 2269 397 2603 481 
Q 2938 566 3225 728 
L 3116 159 
Q 2806 34 2476 -28 
Q 2147 -91 1806 -91 
Q 1078 -91 686 257 
Q 294 606 294 1247 
Q 294 1794 489 2264 
Q 684 2734 1063 3103 
Q 1306 3334 1642 3459 
Q 1978 3584 2356 3584 
Q 2950 3584 3301 3228 
Q 3653 2872 3653 2272 
Q 3653 2128 3634 1964 
Q 3616 1800 3578 1613 
z
" transform="scale(0.015625)"/>
      <path id="DejaVuSans-Oblique-28" d="M 2731 4856 
Q 1903 3822 1495 2892 
Q 1088 1963 1088 1100 
Q 1088 606 1206 120 
Q 1325 -366 1563 -844 
L 1063 -844 
Q 775 -306 634 201 
Q 494 709 494 1197 
Q 494 2125 923 3036 
Q 1353 3947 2222 4856 
L 2731 4856 
z
" transform="scale(0.015625)"/>
      <path id="DejaVuSans-Oblique-51" d="M 2309 -84 
Q 2275 -88 2237 -89 
Q 2200 -91 2125 -91 
Q 1250 -91 756 411 
Q 263 913 263 1797 
Q 263 2319 452 2844 
Q 641 3369 978 3788 
Q 1369 4269 1858 4509 
Q 2347 4750 2938 4750 
Q 3794 4750 4287 4245 
Q 4781 3741 4781 2869 
Q 4781 1928 4265 1147 
Q 3750 366 2919 44 
L 3553 -825 
L 2847 -825 
L 2309 -84 
z
M 2919 4238 
Q 2400 4238 2003 3986 
Q 1606 3734 1313 3219 
Q 1125 2891 1026 2522 
Q 928 2153 928 1778 
Q 928 1128 1239 775 
Q 1550 422 2119 422 
Q 2631 422 3032 676 
Q 3434 931 3719 1434 
Q 3909 1772 4009 2142 
Q 4109 2513 4109 2881 
Q 4109 3528 3796 3883 
Q 3484 4238 2919 4238 
z
" transform="scale(0.015625)"/>
      <path id="DejaVuSans-Oblique-31" d="M 416 531 
L 1447 531 
L 2144 4122 
L 978 3897 
L 1088 4441 
L 2247 4666 
L 2881 4666 
L 2075 531 
L 3103 531 
L 3003 0 
L 313 0 
L 416 531 
z
" transform="scale(0.015625)"/>
      <path id="DejaVuSans-Oblique-2c" d="M 575 794 
L 1234 794 
L 1131 256 
L 422 -744 
L 19 -744 
L 469 256 
L 575 794 
z
" transform="scale(0.015625)"/>
      <path id="DejaVuSans-Oblique-6d" d="M 5747 2113 
L 5338 0 
L 4763 0 
L 5166 2094 
Q 5191 2228 5203 2325 
Q 5216 2422 5216 2491 
Q 5216 2772 5059 2928 
Q 4903 3084 4622 3084 
Q 4203 3084 3875 2770 
Q 3547 2456 3450 1953 
L 3066 0 
L 2491 0 
L 2900 2094 
Q 2925 2209 2937 2307 
Q 2950 2406 2950 2484 
Q 2950 2769 2794 2926 
Q 2638 3084 2363 3084 
Q 1938 3084 1609 2770 
Q 1281 2456 1184 1953 
L 800 0 
L 225 0 
L 909 3500 
L 1484 3500 
L 1375 2956 
Q 1609 3263 1923 3423 
Q 2238 3584 2597 3584 
Q 2978 3584 3223 3384 
Q 3469 3184 3519 2828 
Q 3781 3197 4126 3390 
Q 4472 3584 4856 3584 
Q 5306 3584 5551 3325 
Q 5797 3066 5797 2591 
Q 5797 2488 5784 2364 
Q 5772 2241 5747 2113 
z
" transform="scale(0.015625)"/>
      <path id="DejaVuSans-Oblique-64" d="M 2675 525 
Q 2444 222 2128 65 
Q 1813 -91 1428 -91 
Q 903 -91 598 267 
Q 294 625 294 1247 
Q 294 1766 478 2236 
Q 663 2706 1013 3078 
Q 1244 3325 1534 3454 
Q 1825 3584 2144 3584 
Q 2481 3584 2739 3421 
Q 2997 3259 3138 2956 
L 3513 4863 
L 4091 4863 
L 3144 0 
L 2566 0 
L 2675 525 
z
M 891 1350 
Q 891 897 1095 644 
Q 1300 391 1663 391 
Q 1931 391 2161 520 
Q 2391 650 2566 903 
Q 2750 1166 2856 1509 
Q 2963 1853 2963 2188 
Q 2963 2622 2758 2865 
Q 2553 3109 2194 3109 
Q 1922 3109 1687 2981 
Q 1453 2853 1288 2613 
Q 1106 2353 998 2009 
Q 891 1666 891 1350 
z
" transform="scale(0.015625)"/>
      <path id="DejaVuSans-Oblique-6e" d="M 3566 2113 
L 3156 0 
L 2578 0 
L 2988 2091 
Q 3016 2238 3031 2350 
Q 3047 2463 3047 2528 
Q 3047 2791 2881 2937 
Q 2716 3084 2419 3084 
Q 1956 3084 1622 2776 
Q 1288 2469 1184 1941 
L 800 0 
L 225 0 
L 903 3500 
L 1478 3500 
L 1363 2950 
Q 1603 3253 1940 3418 
Q 2278 3584 2650 3584 
Q 3113 3584 3367 3334 
Q 3622 3084 3622 2631 
Q 3622 2519 3608 2391 
Q 3594 2263 3566 2113 
z
" transform="scale(0.015625)"/>
      <path id="DejaVuSans-Oblique-33" d="M 1013 4550 
Q 1356 4650 1679 4700 
Q 2003 4750 2316 4750 
Q 2934 4750 3296 4475 
Q 3659 4200 3659 3738 
Q 3659 3284 3373 2959 
Q 3088 2634 2584 2516 
Q 2978 2403 3162 2165 
Q 3347 1928 3347 1538 
Q 3347 1163 3167 834 
Q 2988 506 2650 269 
Q 2394 88 2037 -1 
Q 1681 -91 1216 -91 
Q 922 -91 622 -33 
Q 322 25 13 141 
L 128 738 
Q 422 575 720 495 
Q 1019 416 1331 416 
Q 1947 416 2330 733 
Q 2713 1050 2713 1556 
Q 2713 1881 2469 2057 
Q 2225 2234 1772 2234 
L 1228 2234 
L 1325 2747 
L 1900 2747 
Q 2419 2747 2717 2984 
Q 3016 3222 3016 3628 
Q 3016 3922 2797 4083 
Q 2578 4244 2181 4244 
Q 1881 4244 1567 4180 
Q 1253 4116 916 3988 
L 1013 4550 
z
" transform="scale(0.015625)"/>
      <path id="DejaVuSans-Oblique-29" d="M -397 -844 
Q 434 191 840 1120 
Q 1247 2050 1247 2913 
Q 1247 3406 1130 3892 
Q 1013 4378 775 4856 
L 1275 4856 
Q 1563 4316 1703 3812 
Q 1844 3309 1844 2822 
Q 1844 1891 1411 973 
Q 978 56 116 -844 
L -397 -844 
z
" transform="scale(0.015625)"/>
      <path id="DejaVuSans-Oblique-6b" d="M 1172 4863 
L 1747 4863 
L 1197 2028 
L 3169 3500 
L 3916 3500 
L 1716 1825 
L 3322 0 
L 2625 0 
L 1131 1709 
L 800 0 
L 225 0 
L 1172 4863 
z
" transform="scale(0.015625)"/>
      <path id="DejaVuSans-Oblique-30" d="M 2444 4750 
Q 3078 4750 3414 4328 
Q 3750 3906 3750 3116 
Q 3750 2516 3592 1923 
Q 3434 1331 3150 863 
Q 2859 394 2467 151 
Q 2075 -91 1600 -91 
Q 988 -91 653 334 
Q 319 759 319 1544 
Q 319 2138 480 2733 
Q 641 3328 928 3794 
Q 1216 4263 1602 4506 
Q 1988 4750 2444 4750 
z
M 2406 4250 
Q 2169 4250 1955 4123 
Q 1741 3997 1569 3750 
Q 1281 3338 1111 2720 
Q 941 2103 941 1453 
Q 941 938 1123 673 
Q 1306 409 1663 409 
Q 1913 409 2125 536 
Q 2338 663 2509 909 
Q 2794 1319 2961 1936 
Q 3128 2553 3128 3206 
Q 3128 3722 2945 3986 
Q 2763 4250 2406 4250 
z
" transform="scale(0.015625)"/>
      <path id="DejaVuSans-Oblique-2e" d="M 525 794 
L 1184 794 
L 1031 0 
L 372 0 
L 525 794 
z
" transform="scale(0.015625)"/>
      <path id="DejaVuSans-Oblique-d7" d="M 4488 3438 
L 3059 2003 
L 4488 575 
L 4116 197 
L 2681 1631 
L 1247 197 
L 878 575 
L 2303 2003 
L 878 3438 
L 1247 3816 
L 2681 2381 
L 4116 3816 
L 4488 3438 
z
" transform="scale(0.015625)"/>
      <path id="DejaVuSans-Oblique-49" d="M 1081 4666 
L 1716 4666 
L 806 0 
L 172 0 
L 1081 4666 
z
" transform="scale(0.015625)"/>
      <path id="DejaVuSans-Oblique-52" d="M 1613 4147 
L 1294 2491 
L 2106 2491 
Q 2584 2491 2879 2755 
Q 3175 3019 3175 3444 
Q 3175 3784 2976 3965 
Q 2778 4147 2406 4147 
L 1613 4147 
z
M 2772 2241 
Q 2972 2194 3105 2009 
Q 3238 1825 3413 1275 
L 3809 0 
L 3144 0 
L 2778 1197 
Q 2638 1659 2453 1815 
Q 2269 1972 1888 1972 
L 1191 1972 
L 806 0 
L 172 0 
L 1081 4666 
L 2503 4666 
Q 3150 4666 3495 4373 
Q 3841 4081 3841 3531 
Q 3841 3044 3547 2687 
Q 3253 2331 2772 2241 
z
" transform="scale(0.015625)"/>
      <path id="DejaVuSans-Oblique-58" d="M 878 4666 
L 1516 4666 
L 2316 2981 
L 3763 4666 
L 4500 4666 
L 2578 2438 
L 3738 0 
L 3103 0 
L 2163 1966 
L 459 0 
L -275 0 
L 1906 2509 
L 878 4666 
z
" transform="scale(0.015625)"/>
      <path id="DejaVuSans-Oblique-63" d="M 3431 3366 
L 3316 2797 
Q 3109 2947 2876 3022 
Q 2644 3097 2394 3097 
Q 2119 3097 1870 3000 
Q 1622 2903 1453 2725 
Q 1184 2453 1037 2087 
Q 891 1722 891 1331 
Q 891 859 1127 628 
Q 1363 397 1844 397 
Q 2081 397 2348 469 
Q 2616 541 2906 684 
L 2797 116 
Q 2547 13 2283 -39 
Q 2019 -91 1741 -91 
Q 1044 -91 669 257 
Q 294 606 294 1253 
Q 294 1797 489 2255 
Q 684 2713 1069 3078 
Q 1331 3328 1684 3456 
Q 2038 3584 2456 3584 
Q 2700 3584 2940 3529 
Q 3181 3475 3431 3366 
z
" transform="scale(0.015625)"/>
      <path id="DejaVuSans-Oblique-36" d="M 2938 1728 
Q 2938 2125 2734 2354 
Q 2531 2584 2181 2584 
Q 1697 2584 1367 2211 
Q 1038 1838 1038 1288 
Q 1038 875 1239 642 
Q 1441 409 1797 409 
Q 2284 409 2611 792 
Q 2938 1175 2938 1728 
z
M 3788 4556 
L 3681 3981 
Q 3500 4100 3265 4162 
Q 3031 4225 2766 4225 
Q 2119 4225 1726 3819 
Q 1334 3413 1141 2547 
Q 1369 2813 1670 2948 
Q 1972 3084 2322 3084 
Q 2894 3084 3233 2754 
Q 3572 2425 3572 1869 
Q 3572 1413 3405 1020 
Q 3238 628 2919 331 
Q 2700 128 2409 18 
Q 2119 -91 1791 -91 
Q 1147 -91 775 318 
Q 403 728 403 1441 
Q 403 2103 573 2717 
Q 744 3331 1050 3781 
Q 1372 4256 1830 4503 
Q 2288 4750 2841 4750 
Q 3084 4750 3321 4701 
Q 3559 4653 3788 4556 
z
" transform="scale(0.015625)"/>
      <path id="DejaVuSans-Oblique-2f" d="M 2175 4666 
L 2731 4666 
L 84 -594 
L -469 -594 
L 2175 4666 
z
" transform="scale(0.015625)"/>
      <path id="DejaVuSans-Oblique-66" d="M 3059 4863 
L 2969 4384 
L 2419 4384 
Q 2106 4384 1964 4261 
Q 1822 4138 1753 3809 
L 1691 3500 
L 2638 3500 
L 2553 3053 
L 1606 3053 
L 1013 0 
L 434 0 
L 1031 3053 
L 481 3053 
L 563 3500 
L 1113 3500 
L 1159 3744 
Q 1278 4363 1576 4613 
Q 1875 4863 2516 4863 
L 3059 4863 
z
" transform="scale(0.015625)"/>
      <path id="DejaVuSans-Oblique-55" d="M 991 4666 
L 1625 4666 
L 1075 1831 
Q 1041 1641 1027 1517 
Q 1013 1394 1013 1300 
Q 1013 869 1253 645 
Q 1494 422 1959 422 
Q 2563 422 2898 753 
Q 3234 1084 3378 1831 
L 3928 4666 
L 4563 4666 
L 4000 1753 
Q 3816 809 3300 359 
Q 2784 -91 1888 -91 
Q 1188 -91 780 261 
Q 372 613 372 1216 
Q 372 1325 387 1461 
Q 403 1597 434 1753 
L 991 4666 
z
" transform="scale(0.015625)"/>
      <path id="DejaVuSans-Oblique-79" d="M 1588 -325 
Q 1188 -997 936 -1164 
Q 684 -1331 294 -1331 
L -159 -1331 
L -63 -850 
L 269 -850 
Q 509 -850 678 -719 
Q 847 -588 1056 -206 
L 1234 128 
L 459 3500 
L 1069 3500 
L 1650 819 
L 3256 3500 
L 3859 3500 
L 1588 -325 
z
" transform="scale(0.015625)"/>
      <path id="DejaVuSans-Oblique-67" d="M 3816 3500 
L 3219 434 
Q 3047 -456 2561 -893 
Q 2075 -1331 1253 -1331 
Q 950 -1331 690 -1286 
Q 431 -1241 206 -1147 
L 313 -588 
Q 525 -725 762 -790 
Q 1000 -856 1269 -856 
Q 1816 -856 2167 -557 
Q 2519 -259 2631 300 
L 2681 563 
Q 2441 288 2122 144 
Q 1803 0 1434 0 
Q 903 0 598 351 
Q 294 703 294 1319 
Q 294 1803 478 2267 
Q 663 2731 997 3091 
Q 1219 3328 1514 3456 
Q 1809 3584 2131 3584 
Q 2484 3584 2746 3420 
Q 3009 3256 3138 2956 
L 3238 3500 
L 3816 3500 
z
M 2950 2216 
Q 2950 2641 2750 2872 
Q 2550 3103 2181 3103 
Q 1953 3103 1747 3012 
Q 1541 2922 1394 2759 
Q 1156 2491 1023 2127 
Q 891 1763 891 1375 
Q 891 944 1092 712 
Q 1294 481 1672 481 
Q 2219 481 2584 976 
Q 2950 1472 2950 2216 
z
" transform="scale(0.015625)"/>
      <path id="DejaVuSans-Oblique-62" d="M 3169 2138 
Q 3169 2591 2961 2847 
Q 2753 3103 2388 3103 
Q 2122 3103 1889 2973 
Q 1656 2844 1484 2597 
Q 1303 2338 1198 1995 
Q 1094 1653 1094 1313 
Q 1094 881 1298 636 
Q 1503 391 1863 391 
Q 2134 391 2365 517 
Q 2597 644 2772 891 
Q 2950 1147 3059 1487 
Q 3169 1828 3169 2138 
z
M 1381 2969 
Q 1594 3256 1914 3420 
Q 2234 3584 2584 3584 
Q 3122 3584 3439 3221 
Q 3756 2859 3756 2241 
Q 3756 1734 3570 1259 
Q 3384 784 3041 416 
Q 2816 172 2522 40 
Q 2228 -91 1906 -91 
Q 1566 -91 1316 65 
Q 1066 222 909 531 
L 806 0 
L 231 0 
L 1178 4863 
L 1753 4863 
L 1381 2969 
z
" transform="scale(0.015625)"/>
     </defs>
     <use xlink:href="#DejaVuSans-Oblique-42"/>
     <use xlink:href="#DejaVuSans-Oblique-6f" x="68.603516"/>
     <use xlink:href="#DejaVuSans-Oblique-78" x="129.785156"/>
     <use xlink:href="#DejaVuSans-Oblique-20" x="188.964844"/>
     <use xlink:href="#DejaVuSans-Oblique-70" x="220.751953"/>
     <use xlink:href="#DejaVuSans-Oblique-6c" x="284.228516"/>
     <use xlink:href="#DejaVuSans-Oblique-6f" x="312.011719"/>
     <use xlink:href="#DejaVuSans-Oblique-74" x="373.193359"/>
     <use xlink:href="#DejaVuSans-Oblique-20" x="412.402344"/>
     <use xlink:href="#DejaVuSans-Oblique-73" x="444.189453"/>
     <use xlink:href="#DejaVuSans-Oblique-68" x="496.289062"/>
     <use xlink:href="#DejaVuSans-Oblique-6f" x="559.667969"/>
     <use xlink:href="#DejaVuSans-Oblique-77" x="620.849609"/>
     <use xlink:href="#DejaVuSans-Oblique-73" x="702.636719"/>
     <use xlink:href="#DejaVuSans-Oblique-20" x="754.736328"/>
     <use xlink:href="#DejaVuSans-Oblique-71" x="786.523438"/>
     <use xlink:href="#DejaVuSans-Oblique-75" x="850"/>
     <use xlink:href="#DejaVuSans-Oblique-61" x="913.378906"/>
     <use xlink:href="#DejaVuSans-Oblique-72" x="974.658203"/>
     <use xlink:href="#DejaVuSans-Oblique-74" x="1015.771484"/>
     <use xlink:href="#DejaVuSans-Oblique-69" x="1054.980469"/>
     <use xlink:href="#DejaVuSans-Oblique-6c" x="1082.763672"/>
     <use xlink:href="#DejaVuSans-Oblique-65" x="1110.546875"/>
     <use xlink:href="#DejaVuSans-Oblique-73" x="1172.070312"/>
     <use xlink:href="#DejaVuSans-Oblique-20" x="1224.169922"/>
     <use xlink:href="#DejaVuSans-Oblique-28" x="1255.957031"/>
     <use xlink:href="#DejaVuSans-Oblique-51" x="1294.970703"/>
     <use xlink:href="#DejaVuSans-Oblique-31" x="1373.681641"/>
     <use xlink:href="#DejaVuSans-Oblique-2c" x="1437.304688"/>
     <use xlink:href="#DejaVuSans-Oblique-20" x="1469.091797"/>
     <use xlink:href="#DejaVuSans-Oblique-6d" x="1500.878906"/>
     <use xlink:href="#DejaVuSans-Oblique-65" x="1598.291016"/>
     <use xlink:href="#DejaVuSans-Oblique-64" x="1659.814453"/>
     <use xlink:href="#DejaVuSans-Oblique-69" x="1723.291016"/>
     <use xlink:href="#DejaVuSans-Oblique-61" x="1751.074219"/>
     <use xlink:href="#DejaVuSans-Oblique-6e" x="1812.353516"/>
     <use xlink:href="#DejaVuSans-Oblique-2c" x="1875.732422"/>
     <use xlink:href="#DejaVuSans-Oblique-20" x="1907.519531"/>
     <use xlink:href="#DejaVuSans-Oblique-51" x="1939.306641"/>
     <use xlink:href="#DejaVuSans-Oblique-33" x="2018.017578"/>
     <use xlink:href="#DejaVuSans-Oblique-29" x="2081.640625"/>
     <use xlink:href="#DejaVuSans-Oblique-20" x="2120.654297"/>
     <use xlink:href="#DejaVuSans-Oblique-61" x="2152.441406"/>
     <use xlink:href="#DejaVuSans-Oblique-6e" x="2213.720703"/>
     <use xlink:href="#DejaVuSans-Oblique-64" x="2277.099609"/>
     <use xlink:href="#DejaVuSans-Oblique-20" x="2340.576172"/>
     <use xlink:href="#DejaVuSans-Oblique-77" x="2372.363281"/>
     <use xlink:href="#DejaVuSans-Oblique-68" x="2454.150391"/>
     <use xlink:href="#DejaVuSans-Oblique-69" x="2517.529297"/>
     <use xlink:href="#DejaVuSans-Oblique-73" x="2545.3125"/>
     <use xlink:href="#DejaVuSans-Oblique-6b" x="2597.412109"/>
     <use xlink:href="#DejaVuSans-Oblique-65" x="2655.322266"/>
     <use xlink:href="#DejaVuSans-Oblique-72" x="2716.845703"/>
     <use xlink:href="#DejaVuSans-Oblique-73" x="2757.958984"/>
     <use xlink:href="#DejaVuSans-Oblique-20" x="2810.058594"/>
     <use xlink:href="#DejaVuSans-Oblique-61" x="2841.845703"/>
     <use xlink:href="#DejaVuSans-Oblique-74" x="2903.125"/>
     <use xlink:href="#DejaVuSans-Oblique-20" x="2942.333984"/>
     <use xlink:href="#DejaVuSans-Oblique-30" x="2974.121094"/>
     <use xlink:href="#DejaVuSans-Oblique-2e" x="3037.744141"/>
     <use xlink:href="#DejaVuSans-Oblique-30" x="3069.53125"/>
     <use xlink:href="#DejaVuSans-Oblique-d7" x="3133.154297"/>
     <use xlink:href="#DejaVuSans-Oblique-49" x="3216.943359"/>
     <use xlink:href="#DejaVuSans-Oblique-51" x="3246.435547"/>
     <use xlink:href="#DejaVuSans-Oblique-52" x="3325.146484"/>
     <use xlink:href="#DejaVuSans-Oblique-2e" x="3394.628906"/>
     <use xlink:href="#DejaVuSans-Oblique-20" x="3426.416016"/>
     <use xlink:href="#DejaVuSans-Oblique-52" x="3458.203125"/>
     <use xlink:href="#DejaVuSans-Oblique-65" x="3527.685547"/>
     <use xlink:href="#DejaVuSans-Oblique-64" x="3589.208984"/>
     <use xlink:href="#DejaVuSans-Oblique-20" x="3652.685547"/>
     <use xlink:href="#DejaVuSans-Oblique-58" x="3684.472656"/>
     <use xlink:href="#DejaVuSans-Oblique-20" x="3752.978516"/>
     <use xlink:href="#DejaVuSans-Oblique-6d" x="3784.765625"/>
     <use xlink:href="#DejaVuSans-Oblique-61" x="3882.177734"/>
     <use xlink:href="#DejaVuSans-Oblique-72" x="3943.457031"/>
     <use xlink:href="#DejaVuSans-Oblique-6b" x="3984.570312"/>
     <use xlink:href="#DejaVuSans-Oblique-65" x="4042.480469"/>
     <use xlink:href="#DejaVuSans-Oblique-72" x="4104.003906"/>
     <use xlink:href="#DejaVuSans-Oblique-73" x="4145.117188"/>
     <use xlink:href="#DejaVuSans-Oblique-20" x="4197.216797"/>
     <use xlink:href="#DejaVuSans-Oblique-69" x="4229.003906"/>
     <use xlink:href="#DejaVuSans-Oblique-6e" x="4256.787109"/>
     <use xlink:href="#DejaVuSans-Oblique-64" x="4320.166016"/>
     <use xlink:href="#DejaVuSans-Oblique-69" x="4383.642578"/>
     <use xlink:href="#DejaVuSans-Oblique-63" x="4411.425781"/>
     <use xlink:href="#DejaVuSans-Oblique-61" x="4466.40625"/>
     <use xlink:href="#DejaVuSans-Oblique-74" x="4527.685547"/>
     <use xlink:href="#DejaVuSans-Oblique-65" x="4566.894531"/>
     <use xlink:href="#DejaVuSans-Oblique-20" x="4628.417969"/>
     <use xlink:href="#DejaVuSans-Oblique-6f" x="4660.205078"/>
     <use xlink:href="#DejaVuSans-Oblique-75" x="4721.386719"/>
     <use xlink:href="#DejaVuSans-Oblique-74" x="4784.765625"/>
     <use xlink:href="#DejaVuSans-Oblique-6c" x="4823.974609"/>
     <use xlink:href="#DejaVuSans-Oblique-69" x="4851.757812"/>
     <use xlink:href="#DejaVuSans-Oblique-65" x="4879.541016"/>
     <use xlink:href="#DejaVuSans-Oblique-72" x="4941.064453"/>
     <use xlink:href="#DejaVuSans-Oblique-20" x="4982.177734"/>
     <use xlink:href="#DejaVuSans-Oblique-72" x="5013.964844"/>
     <use xlink:href="#DejaVuSans-Oblique-75" x="5055.078125"/>
     <use xlink:href="#DejaVuSans-Oblique-6e" x="5118.457031"/>
     <use xlink:href="#DejaVuSans-Oblique-73" x="5181.835938"/>
     <use xlink:href="#DejaVuSans-Oblique-2e" x="5233.935547"/>
     <use xlink:href="#DejaVuSans-Oblique-20" x="5265.722656"/>
     <use xlink:href="#DejaVuSans-Oblique-36" x="5297.509766"/>
     <use xlink:href="#DejaVuSans-Oblique-2f" x="5361.132812"/>
     <use xlink:href="#DejaVuSans-Oblique-31" x="5394.824219"/>
     <use xlink:href="#DejaVuSans-Oblique-30" x="5458.447266"/>
     <use xlink:href="#DejaVuSans-Oblique-30" x="5522.070312"/>
     <use xlink:href="#DejaVuSans-Oblique-20" x="5585.693359"/>
     <use xlink:href="#DejaVuSans-Oblique-72" x="5617.480469"/>
     <use xlink:href="#DejaVuSans-Oblique-75" x="5658.59375"/>
     <use xlink:href="#DejaVuSans-Oblique-6e" x="5721.972656"/>
     <use xlink:href="#DejaVuSans-Oblique-73" x="5785.351562"/>
     <use xlink:href="#DejaVuSans-Oblique-20" x="5837.451172"/>
     <use xlink:href="#DejaVuSans-Oblique-69" x="5869.238281"/>
     <use xlink:href="#DejaVuSans-Oblique-64" x="5897.021484"/>
     <use xlink:href="#DejaVuSans-Oblique-65" x="5960.498047"/>
     <use xlink:href="#DejaVuSans-Oblique-6e" x="6022.021484"/>
     <use xlink:href="#DejaVuSans-Oblique-74" x="6085.400391"/>
     <use xlink:href="#DejaVuSans-Oblique-69" x="6124.609375"/>
     <use xlink:href="#DejaVuSans-Oblique-66" x="6152.392578"/>
     <use xlink:href="#DejaVuSans-Oblique-69" x="6187.597656"/>
     <use xlink:href="#DejaVuSans-Oblique-65" x="6215.380859"/>
     <use xlink:href="#DejaVuSans-Oblique-64" x="6276.904297"/>
     <use xlink:href="#DejaVuSans-Oblique-20" x="6340.380859"/>
     <use xlink:href="#DejaVuSans-Oblique-61" x="6372.167969"/>
     <use xlink:href="#DejaVuSans-Oblique-73" x="6433.447266"/>
     <use xlink:href="#DejaVuSans-Oblique-20" x="6485.546875"/>
     <use xlink:href="#DejaVuSans-Oblique-6f" x="6517.333984"/>
     <use xlink:href="#DejaVuSans-Oblique-75" x="6578.515625"/>
     <use xlink:href="#DejaVuSans-Oblique-74" x="6641.894531"/>
     <use xlink:href="#DejaVuSans-Oblique-6c" x="6681.103516"/>
     <use xlink:href="#DejaVuSans-Oblique-69" x="6708.886719"/>
     <use xlink:href="#DejaVuSans-Oblique-65" x="6736.669922"/>
     <use xlink:href="#DejaVuSans-Oblique-72" x="6798.193359"/>
     <use xlink:href="#DejaVuSans-Oblique-73" x="6839.306641"/>
     <use xlink:href="#DejaVuSans-Oblique-2e" x="6891.40625"/>
     <use xlink:href="#DejaVuSans-Oblique-20" x="6923.193359"/>
     <use xlink:href="#DejaVuSans-Oblique-55" x="6954.980469"/>
     <use xlink:href="#DejaVuSans-Oblique-73" x="7028.173828"/>
     <use xlink:href="#DejaVuSans-Oblique-65" x="7080.273438"/>
     <use xlink:href="#DejaVuSans-Oblique-66" x="7141.796875"/>
     <use xlink:href="#DejaVuSans-Oblique-75" x="7177.001953"/>
     <use xlink:href="#DejaVuSans-Oblique-6c" x="7240.380859"/>
     <use xlink:href="#DejaVuSans-Oblique-20" x="7268.164062"/>
     <use xlink:href="#DejaVuSans-Oblique-66" x="7299.951172"/>
     <use xlink:href="#DejaVuSans-Oblique-6f" x="7335.15625"/>
     <use xlink:href="#DejaVuSans-Oblique-72" x="7396.337891"/>
     <use xlink:href="#DejaVuSans-Oblique-20" x="7437.451172"/>
     <use xlink:href="#DejaVuSans-Oblique-64" x="7469.238281"/>
     <use xlink:href="#DejaVuSans-Oblique-61" x="7532.714844"/>
     <use xlink:href="#DejaVuSans-Oblique-74" x="7593.994141"/>
     <use xlink:href="#DejaVuSans-Oblique-61" x="7633.203125"/>
     <use xlink:href="#DejaVuSans-Oblique-20" x="7694.482422"/>
     <use xlink:href="#DejaVuSans-Oblique-71" x="7726.269531"/>
     <use xlink:href="#DejaVuSans-Oblique-75" x="7789.746094"/>
     <use xlink:href="#DejaVuSans-Oblique-61" x="7853.125"/>
     <use xlink:href="#DejaVuSans-Oblique-6c" x="7914.404297"/>
     <use xlink:href="#DejaVuSans-Oblique-69" x="7942.1875"/>
     <use xlink:href="#DejaVuSans-Oblique-74" x="7969.970703"/>
     <use xlink:href="#DejaVuSans-Oblique-79" x="8009.179688"/>
     <use xlink:href="#DejaVuSans-Oblique-20" x="8068.359375"/>
     <use xlink:href="#DejaVuSans-Oblique-61" x="8100.146484"/>
     <use xlink:href="#DejaVuSans-Oblique-73" x="8161.425781"/>
     <use xlink:href="#DejaVuSans-Oblique-73" x="8213.525391"/>
     <use xlink:href="#DejaVuSans-Oblique-65" x="8265.625"/>
     <use xlink:href="#DejaVuSans-Oblique-73" x="8327.148438"/>
     <use xlink:href="#DejaVuSans-Oblique-73" x="8379.248047"/>
     <use xlink:href="#DejaVuSans-Oblique-6d" x="8431.347656"/>
     <use xlink:href="#DejaVuSans-Oblique-65" x="8528.759766"/>
     <use xlink:href="#DejaVuSans-Oblique-6e" x="8590.283203"/>
     <use xlink:href="#DejaVuSans-Oblique-74" x="8653.662109"/>
     <use xlink:href="#DejaVuSans-Oblique-20" x="8692.871094"/>
     <use xlink:href="#DejaVuSans-Oblique-61" x="8724.658203"/>
     <use xlink:href="#DejaVuSans-Oblique-6e" x="8785.9375"/>
     <use xlink:href="#DejaVuSans-Oblique-64" x="8849.316406"/>
     <use xlink:href="#DejaVuSans-Oblique-20" x="8912.792969"/>
     <use xlink:href="#DejaVuSans-Oblique-69" x="8944.580078"/>
     <use xlink:href="#DejaVuSans-Oblique-64" x="8972.363281"/>
     <use xlink:href="#DejaVuSans-Oblique-65" x="9035.839844"/>
     <use xlink:href="#DejaVuSans-Oblique-6e" x="9097.363281"/>
     <use xlink:href="#DejaVuSans-Oblique-74" x="9160.742188"/>
     <use xlink:href="#DejaVuSans-Oblique-69" x="9199.951172"/>
     <use xlink:href="#DejaVuSans-Oblique-66" x="9227.734375"/>
     <use xlink:href="#DejaVuSans-Oblique-79" x="9262.939453"/>
     <use xlink:href="#DejaVuSans-Oblique-69" x="9322.119141"/>
     <use xlink:href="#DejaVuSans-Oblique-6e" x="9349.902344"/>
     <use xlink:href="#DejaVuSans-Oblique-67" x="9413.28125"/>
     <use xlink:href="#DejaVuSans-Oblique-20" x="9476.757812"/>
     <use xlink:href="#DejaVuSans-Oblique-61" x="9508.544922"/>
     <use xlink:href="#DejaVuSans-Oblique-6e" x="9569.824219"/>
     <use xlink:href="#DejaVuSans-Oblique-6f" x="9633.203125"/>
     <use xlink:href="#DejaVuSans-Oblique-6d" x="9694.384766"/>
     <use xlink:href="#DejaVuSans-Oblique-61" x="9791.796875"/>
     <use xlink:href="#DejaVuSans-Oblique-6c" x="9853.076172"/>
     <use xlink:href="#DejaVuSans-Oblique-6f" x="9880.859375"/>
     <use xlink:href="#DejaVuSans-Oblique-75" x="9942.041016"/>
     <use xlink:href="#DejaVuSans-Oblique-73" x="10005.419922"/>
     <use xlink:href="#DejaVuSans-Oblique-20" x="10057.519531"/>
     <use xlink:href="#DejaVuSans-Oblique-62" x="10089.306641"/>
     <use xlink:href="#DejaVuSans-Oblique-65" x="10152.783203"/>
     <use xlink:href="#DejaVuSans-Oblique-6e" x="10214.306641"/>
     <use xlink:href="#DejaVuSans-Oblique-63" x="10277.685547"/>
     <use xlink:href="#DejaVuSans-Oblique-68" x="10332.666016"/>
     <use xlink:href="#DejaVuSans-Oblique-6d" x="10396.044922"/>
     <use xlink:href="#DejaVuSans-Oblique-61" x="10493.457031"/>
     <use xlink:href="#DejaVuSans-Oblique-72" x="10554.736328"/>
     <use xlink:href="#DejaVuSans-Oblique-6b" x="10595.849609"/>
     <use xlink:href="#DejaVuSans-Oblique-20" x="10653.759766"/>
     <use xlink:href="#DejaVuSans-Oblique-72" x="10685.546875"/>
     <use xlink:href="#DejaVuSans-Oblique-75" x="10726.660156"/>
     <use xlink:href="#DejaVuSans-Oblique-6e" x="10790.039062"/>
     <use xlink:href="#DejaVuSans-Oblique-73" x="10853.417969"/>
     <use xlink:href="#DejaVuSans-Oblique-2e" x="10905.517578"/>
    </g>
   </g>
   <g id="text_16">
    <!-- Outlier Detection: chatdev - tokens_out -->
    <g transform="translate(343.61125 17.837812) scale(0.14 -0.14)">
     <defs>
      <path id="DejaVuSans-Bold-6c" d="M 538 4863 
L 1656 4863 
L 1656 0 
L 538 0 
L 538 4863 
z
" transform="scale(0.015625)"/>
      <path id="DejaVuSans-Bold-69" d="M 538 3500 
L 1656 3500 
L 1656 0 
L 538 0 
L 538 3500 
z
M 538 4863 
L 1656 4863 
L 1656 3950 
L 538 3950 
L 538 4863 
z
" transform="scale(0.015625)"/>
      <path id="DejaVuSans-Bold-44" d="M 1791 3756 
L 1791 909 
L 2222 909 
Q 2959 909 3348 1275 
Q 3738 1641 3738 2338 
Q 3738 3031 3350 3393 
Q 2963 3756 2222 3756 
L 1791 3756 
z
M 588 4666 
L 1856 4666 
Q 2919 4666 3439 4514 
Q 3959 4363 4331 4000 
Q 4659 3684 4818 3271 
Q 4978 2859 4978 2338 
Q 4978 1809 4818 1395 
Q 4659 981 4331 666 
Q 3956 303 3431 151 
Q 2906 0 1856 0 
L 588 0 
L 588 4666 
z
" transform="scale(0.015625)"/>
      <path id="DejaVuSans-Bold-2d" d="M 347 2297 
L 2309 2297 
L 2309 1388 
L 347 1388 
L 347 2297 
z
" transform="scale(0.015625)"/>
      <path id="DejaVuSans-Bold-5f" d="M 3200 -916 
L 3200 -1509 
L 0 -1509 
L 0 -916 
L 3200 -916 
z
" transform="scale(0.015625)"/>
     </defs>
     <use xlink:href="#DejaVuSans-Bold-4f"/>
     <use xlink:href="#DejaVuSans-Bold-75" x="85.009766"/>
     <use xlink:href="#DejaVuSans-Bold-74" x="156.201172"/>
     <use xlink:href="#DejaVuSans-Bold-6c" x="204.003906"/>
     <use xlink:href="#DejaVuSans-Bold-69" x="238.28125"/>
     <use xlink:href="#DejaVuSans-Bold-65" x="272.558594"/>
     <use xlink:href="#DejaVuSans-Bold-72" x="340.380859"/>
     <use xlink:href="#DejaVuSans-Bold-20" x="389.697266"/>
     <use xlink:href="#DejaVuSans-Bold-44" x="424.511719"/>
     <use xlink:href="#DejaVuSans-Bold-65" x="507.519531"/>
     <use xlink:href="#DejaVuSans-Bold-74" x="575.341797"/>
     <use xlink:href="#DejaVuSans-Bold-65" x="623.144531"/>
     <use xlink:href="#DejaVuSans-Bold-63" x="690.966797"/>
     <use xlink:href="#DejaVuSans-Bold-74" x="750.244141"/>
     <use xlink:href="#DejaVuSans-Bold-69" x="798.046875"/>
     <use xlink:href="#DejaVuSans-Bold-6f" x="832.324219"/>
     <use xlink:href="#DejaVuSans-Bold-6e" x="901.025391"/>
     <use xlink:href="#DejaVuSans-Bold-3a" x="972.216797"/>
     <use xlink:href="#DejaVuSans-Bold-20" x="1012.207031"/>
     <use xlink:href="#DejaVuSans-Bold-63" x="1047.021484"/>
     <use xlink:href="#DejaVuSans-Bold-68" x="1106.298828"/>
     <use xlink:href="#DejaVuSans-Bold-61" x="1177.490234"/>
     <use xlink:href="#DejaVuSans-Bold-74" x="1244.970703"/>
     <use xlink:href="#DejaVuSans-Bold-64" x="1292.773438"/>
     <use xlink:href="#DejaVuSans-Bold-65" x="1364.355469"/>
     <use xlink:href="#DejaVuSans-Bold-76" x="1432.177734"/>
     <use xlink:href="#DejaVuSans-Bold-20" x="1497.363281"/>
     <use xlink:href="#DejaVuSans-Bold-2d" x="1532.177734"/>
     <use xlink:href="#DejaVuSans-Bold-20" x="1573.681641"/>
     <use xlink:href="#DejaVuSans-Bold-74" x="1608.496094"/>
     <use xlink:href="#DejaVuSans-Bold-6f" x="1656.298828"/>
     <use xlink:href="#DejaVuSans-Bold-6b" x="1725"/>
     <use xlink:href="#DejaVuSans-Bold-65" x="1788.878906"/>
     <use xlink:href="#DejaVuSans-Bold-6e" x="1856.701172"/>
     <use xlink:href="#DejaVuSans-Bold-73" x="1927.892578"/>
     <use xlink:href="#DejaVuSans-Bold-5f" x="1987.414062"/>
     <use xlink:href="#DejaVuSans-Bold-6f" x="2037.414062"/>
     <use xlink:href="#DejaVuSans-Bold-75" x="2106.115234"/>
     <use xlink:href="#DejaVuSans-Bold-74" x="2177.306641"/>
    </g>
   </g>
   <g id="legend_1">
    <g id="patch_15">
     <path d="M 538.093437 61.194062 
L 628.627812 61.194062 
Q 630.627812 61.194062 630.627812 59.194062 
L 630.627812 30.837812 
Q 630.627812 28.837812 628.627812 28.837812 
L 538.093437 28.837812 
Q 536.093437 28.837812 536.093437 30.837812 
L 536.093437 59.194062 
Q 536.093437 61.194062 538.093437 61.194062 
z
" style="fill: #ffffff; opacity: 0.9; stroke: #cccccc; stroke-width: 0.8; stroke-linejoin: miter"/>
    </g>
    <g id="PathCollection_101">
     <g>
      <use xlink:href="#mf5037619db" x="550.093437" y="37.81125" style="fill: #0000ff; fill-opacity: 0.6; stroke: #00008b; stroke-opacity: 0.6"/>
     </g>
    </g>
    <g id="text_17">
     <!-- Normal Run -->
     <g transform="translate(568.093437 40.43625) scale(0.1 -0.1)">
      <defs>
       <path id="DejaVuSans-4e" d="M 628 4666 
L 1478 4666 
L 3547 763 
L 3547 4666 
L 4159 4666 
L 4159 0 
L 3309 0 
L 1241 3903 
L 1241 0 
L 628 0 
L 628 4666 
z
" transform="scale(0.015625)"/>
       <path id="DejaVuSans-6f" d="M 1959 3097 
Q 1497 3097 1228 2736 
Q 959 2375 959 1747 
Q 959 1119 1226 758 
Q 1494 397 1959 397 
Q 2419 397 2687 759 
Q 2956 1122 2956 1747 
Q 2956 2369 2687 2733 
Q 2419 3097 1959 3097 
z
M 1959 3584 
Q 2709 3584 3137 3096 
Q 3566 2609 3566 1747 
Q 3566 888 3137 398 
Q 2709 -91 1959 -91 
Q 1206 -91 779 398 
Q 353 888 353 1747 
Q 353 2609 779 3096 
Q 1206 3584 1959 3584 
z
" transform="scale(0.015625)"/>
       <path id="DejaVuSans-72" d="M 2631 2963 
Q 2534 3019 2420 3045 
Q 2306 3072 2169 3072 
Q 1681 3072 1420 2755 
Q 1159 2438 1159 1844 
L 1159 0 
L 581 0 
L 581 3500 
L 1159 3500 
L 1159 2956 
Q 1341 3275 1631 3429 
Q 1922 3584 2338 3584 
Q 2397 3584 2469 3576 
Q 2541 3569 2628 3553 
L 2631 2963 
z
" transform="scale(0.015625)"/>
       <path id="DejaVuSans-6d" d="M 3328 2828 
Q 3544 3216 3844 3400 
Q 4144 3584 4550 3584 
Q 5097 3584 5394 3201 
Q 5691 2819 5691 2113 
L 5691 0 
L 5113 0 
L 5113 2094 
Q 5113 2597 4934 2840 
Q 4756 3084 4391 3084 
Q 3944 3084 3684 2787 
Q 3425 2491 3425 1978 
L 3425 0 
L 2847 0 
L 2847 2094 
Q 2847 2600 2669 2842 
Q 2491 3084 2119 3084 
Q 1678 3084 1418 2786 
Q 1159 2488 1159 1978 
L 1159 0 
L 581 0 
L 581 3500 
L 1159 3500 
L 1159 2956 
Q 1356 3278 1631 3431 
Q 1906 3584 2284 3584 
Q 2666 3584 2933 3390 
Q 3200 3197 3328 2828 
z
" transform="scale(0.015625)"/>
       <path id="DejaVuSans-61" d="M 2194 1759 
Q 1497 1759 1228 1600 
Q 959 1441 959 1056 
Q 959 750 1161 570 
Q 1363 391 1709 391 
Q 2188 391 2477 730 
Q 2766 1069 2766 1631 
L 2766 1759 
L 2194 1759 
z
M 3341 1997 
L 3341 0 
L 2766 0 
L 2766 531 
Q 2569 213 2275 61 
Q 1981 -91 1556 -91 
Q 1019 -91 701 211 
Q 384 513 384 1019 
Q 384 1609 779 1909 
Q 1175 2209 1959 2209 
L 2766 2209 
L 2766 2266 
Q 2766 2663 2505 2880 
Q 2244 3097 1772 3097 
Q 1472 3097 1187 3025 
Q 903 2953 641 2809 
L 641 3341 
Q 956 3463 1253 3523 
Q 1550 3584 1831 3584 
Q 2591 3584 2966 3190 
Q 3341 2797 3341 1997 
z
" transform="scale(0.015625)"/>
       <path id="DejaVuSans-6c" d="M 603 4863 
L 1178 4863 
L 1178 0 
L 603 0 
L 603 4863 
z
" transform="scale(0.015625)"/>
      </defs>
      <use xlink:href="#DejaVuSans-4e"/>
      <use xlink:href="#DejaVuSans-6f" x="74.804688"/>
      <use xlink:href="#DejaVuSans-72" x="135.986328"/>
      <use xlink:href="#DejaVuSans-6d" x="175.349609"/>
      <use xlink:href="#DejaVuSans-61" x="272.761719"/>
      <use xlink:href="#DejaVuSans-6c" x="334.041016"/>
      <use xlink:href="#DejaVuSans-20" x="361.824219"/>
      <use xlink:href="#DejaVuSans-52" x="393.611328"/>
      <use xlink:href="#DejaVuSans-75" x="458.59375"/>
      <use xlink:href="#DejaVuSans-6e" x="521.972656"/>
     </g>
    </g>
    <g id="PathCollection_102">
     <g>
      <use xlink:href="#m34d6bd4fce" x="550.093437" y="52.489375" style="fill: #ff0000; fill-opacity: 0.9; stroke: #8b0000; stroke-opacity: 0.9; stroke-width: 2"/>
     </g>
    </g>
    <g id="text_18">
     <!-- Outlier -->
     <g transform="translate(568.093437 55.114375) scale(0.1 -0.1)">
      <defs>
       <path id="DejaVuSans-4f" d="M 2522 4238 
Q 1834 4238 1429 3725 
Q 1025 3213 1025 2328 
Q 1025 1447 1429 934 
Q 1834 422 2522 422 
Q 3209 422 3611 934 
Q 4013 1447 4013 2328 
Q 4013 3213 3611 3725 
Q 3209 4238 2522 4238 
z
M 2522 4750 
Q 3503 4750 4090 4092 
Q 4678 3434 4678 2328 
Q 4678 1225 4090 567 
Q 3503 -91 2522 -91 
Q 1538 -91 948 565 
Q 359 1222 359 2328 
Q 359 3434 948 4092 
Q 1538 4750 2522 4750 
z
" transform="scale(0.015625)"/>
       <path id="DejaVuSans-74" d="M 1172 4494 
L 1172 3500 
L 2356 3500 
L 2356 3053 
L 1172 3053 
L 1172 1153 
Q 1172 725 1289 603 
Q 1406 481 1766 481 
L 2356 481 
L 2356 0 
L 1766 0 
Q 1100 0 847 248 
Q 594 497 594 1153 
L 594 3053 
L 172 3053 
L 172 3500 
L 594 3500 
L 594 4494 
L 1172 4494 
z
" transform="scale(0.015625)"/>
       <path id="DejaVuSans-69" d="M 603 3500 
L 1178 3500 
L 1178 0 
L 603 0 
L 603 3500 
z
M 603 4863 
L 1178 4863 
L 1178 4134 
L 603 4134 
L 603 4863 
z
" transform="scale(0.015625)"/>
       <path id="DejaVuSans-65" d="M 3597 1894 
L 3597 1613 
L 953 1613 
Q 991 1019 1311 708 
Q 1631 397 2203 397 
Q 2534 397 2845 478 
Q 3156 559 3463 722 
L 3463 178 
Q 3153 47 2828 -22 
Q 2503 -91 2169 -91 
Q 1331 -91 842 396 
Q 353 884 353 1716 
Q 353 2575 817 3079 
Q 1281 3584 2069 3584 
Q 2775 3584 3186 3129 
Q 3597 2675 3597 1894 
z
M 3022 2063 
Q 3016 2534 2758 2815 
Q 2500 3097 2075 3097 
Q 1594 3097 1305 2825 
Q 1016 2553 972 2059 
L 3022 2063 
z
" transform="scale(0.015625)"/>
      </defs>
      <use xlink:href="#DejaVuSans-4f"/>
      <use xlink:href="#DejaVuSans-75" x="78.710938"/>
      <use xlink:href="#DejaVuSans-74" x="142.089844"/>
      <use xlink:href="#DejaVuSans-6c" x="181.298828"/>
      <use xlink:href="#DejaVuSans-69" x="209.082031"/>
      <use xlink:href="#DejaVuSans-65" x="236.865234"/>
      <use xlink:href="#DejaVuSans-72" x="298.388672"/>
     </g>
    </g>
   </g>
  </g>
 </g>
 <defs>
  <clipPath id="p3ebd0032cd">
   <rect x="363.107812" y="23.837812" width="272.52" height="334.344"/>
  </clipPath>
 </defs>
</svg>
