<?xml version="1.0" encoding="utf-8" standalone="no"?>
<!DOCTYPE svg PUBLIC "-//W3C//DTD SVG 1.1//EN"
  "http://www.w3.org/Graphics/SVG/1.1/DTD/svg11.dtd">
<svg xmlns:xlink="http://www.w3.org/1999/xlink" width="450.211562pt" height="463.659562pt" viewBox="0 0 450.211562 463.659562" xmlns="http://www.w3.org/2000/svg" version="1.1">
 <metadata>
  <rdf:RDF xmlns:dc="http://purl.org/dc/elements/1.1/" xmlns:cc="http://creativecommons.org/ns#" xmlns:rdf="http://www.w3.org/1999/02/22-rdf-syntax-ns#">
   <cc:Work>
    <dc:type rdf:resource="http://purl.org/dc/dcmitype/StillImage"/>
    <dc:date>2025-11-03T08:21:27.076751</dc:date>
    <dc:format>image/svg+xml</dc:format>
    <dc:creator>
     <cc:Agent>
      <dc:title>Matplotlib v3.8.0, https://matplotlib.org/</dc:title>
     </cc:Agent>
    </dc:creator>
   </cc:Work>
  </rdf:RDF>
 </metadata>
 <defs>
  <style type="text/css">*{stroke-linejoin: round; stroke-linecap: butt}</style>
 </defs>
 <g id="figure_1">
  <g id="patch_1">
   <path d="M 0 463.659562 
L 450.211562 463.659562 
L 450.211562 0 
L 0 0 
z
" style="fill: #ffffff"/>
  </g>
  <g id="axes_1">
   <g id="patch_2">
    <path d="M 52.411563 423.8355 
L 443.011563 423.8355 
L 443.011563 35.7555 
L 52.411563 35.7555 
z
" style="fill: #ffffff"/>
   </g>
   <g id="matplotlib.axis_1">
    <g id="xtick_1">
     <g id="line2d_1">
      <path d="M 103.48514 423.8355 
L 103.48514 35.7555 
" clip-path="url(#p04ccaf1729)" style="fill: none; stroke: #b0b0b0; stroke-opacity: 0.3; stroke-width: 0.8; stroke-linecap: square"/>
     </g>
     <g id="line2d_2">
      <defs>
       <path id="mca28e6c060" d="M 0 0 
L 0 4.8 
" style="stroke: #000000"/>
      </defs>
      <g>
       <use xlink:href="#mca28e6c060" x="103.48514" y="423.8355" style="stroke: #000000"/>
      </g>
     </g>
     <g id="text_1">
      <!-- −2 -->
      <g transform="translate(96.114046 439.733937) scale(0.1 -0.1)">
       <defs>
        <path id="DejaVuSans-2212" d="M 678 2272 
L 4684 2272 
L 4684 1741 
L 678 1741 
L 678 2272 
z
" transform="scale(0.015625)"/>
        <path id="DejaVuSans-32" d="M 1228 531 
L 3431 531 
L 3431 0 
L 469 0 
L 469 531 
Q 828 903 1448 1529 
Q 2069 2156 2228 2338 
Q 2531 2678 2651 2914 
Q 2772 3150 2772 3378 
Q 2772 3750 2511 3984 
Q 2250 4219 1831 4219 
Q 1534 4219 1204 4116 
Q 875 4013 500 3803 
L 500 4441 
Q 881 4594 1212 4672 
Q 1544 4750 1819 4750 
Q 2544 4750 2975 4387 
Q 3406 4025 3406 3419 
Q 3406 3131 3298 2873 
Q 3191 2616 2906 2266 
Q 2828 2175 2409 1742 
Q 1991 1309 1228 531 
z
" transform="scale(0.015625)"/>
       </defs>
       <use xlink:href="#DejaVuSans-2212"/>
       <use xlink:href="#DejaVuSans-32" x="83.789062"/>
      </g>
     </g>
    </g>
    <g id="xtick_2">
     <g id="line2d_3">
      <path d="M 175.598351 423.8355 
L 175.598351 35.7555 
" clip-path="url(#p04ccaf1729)" style="fill: none; stroke: #b0b0b0; stroke-opacity: 0.3; stroke-width: 0.8; stroke-linecap: square"/>
     </g>
     <g id="line2d_4">
      <g>
       <use xlink:href="#mca28e6c060" x="175.598351" y="423.8355" style="stroke: #000000"/>
      </g>
     </g>
     <g id="text_2">
      <!-- −1 -->
      <g transform="translate(168.227258 439.733937) scale(0.1 -0.1)">
       <defs>
        <path id="DejaVuSans-31" d="M 794 531 
L 1825 531 
L 1825 4091 
L 703 3866 
L 703 4441 
L 1819 4666 
L 2450 4666 
L 2450 531 
L 3481 531 
L 3481 0 
L 794 0 
L 794 531 
z
" transform="scale(0.015625)"/>
       </defs>
       <use xlink:href="#DejaVuSans-2212"/>
       <use xlink:href="#DejaVuSans-31" x="83.789062"/>
      </g>
     </g>
    </g>
    <g id="xtick_3">
     <g id="line2d_5">
      <path d="M 247.711563 423.8355 
L 247.711563 35.7555 
" clip-path="url(#p04ccaf1729)" style="fill: none; stroke: #b0b0b0; stroke-opacity: 0.3; stroke-width: 0.8; stroke-linecap: square"/>
     </g>
     <g id="line2d_6">
      <g>
       <use xlink:href="#mca28e6c060" x="247.711563" y="423.8355" style="stroke: #000000"/>
      </g>
     </g>
     <g id="text_3">
      <!-- 0 -->
      <g transform="translate(244.530313 439.733937) scale(0.1 -0.1)">
       <defs>
        <path id="DejaVuSans-30" d="M 2034 4250 
Q 1547 4250 1301 3770 
Q 1056 3291 1056 2328 
Q 1056 1369 1301 889 
Q 1547 409 2034 409 
Q 2525 409 2770 889 
Q 3016 1369 3016 2328 
Q 3016 3291 2770 3770 
Q 2525 4250 2034 4250 
z
M 2034 4750 
Q 2819 4750 3233 4129 
Q 3647 3509 3647 2328 
Q 3647 1150 3233 529 
Q 2819 -91 2034 -91 
Q 1250 -91 836 529 
Q 422 1150 422 2328 
Q 422 3509 836 4129 
Q 1250 4750 2034 4750 
z
" transform="scale(0.015625)"/>
       </defs>
       <use xlink:href="#DejaVuSans-30"/>
      </g>
     </g>
    </g>
    <g id="xtick_4">
     <g id="line2d_7">
      <path d="M 319.824774 423.8355 
L 319.824774 35.7555 
" clip-path="url(#p04ccaf1729)" style="fill: none; stroke: #b0b0b0; stroke-opacity: 0.3; stroke-width: 0.8; stroke-linecap: square"/>
     </g>
     <g id="line2d_8">
      <g>
       <use xlink:href="#mca28e6c060" x="319.824774" y="423.8355" style="stroke: #000000"/>
      </g>
     </g>
     <g id="text_4">
      <!-- 1 -->
      <g transform="translate(316.643524 439.733937) scale(0.1 -0.1)">
       <use xlink:href="#DejaVuSans-31"/>
      </g>
     </g>
    </g>
    <g id="xtick_5">
     <g id="line2d_9">
      <path d="M 391.937985 423.8355 
L 391.937985 35.7555 
" clip-path="url(#p04ccaf1729)" style="fill: none; stroke: #b0b0b0; stroke-opacity: 0.3; stroke-width: 0.8; stroke-linecap: square"/>
     </g>
     <g id="line2d_10">
      <g>
       <use xlink:href="#mca28e6c060" x="391.937985" y="423.8355" style="stroke: #000000"/>
      </g>
     </g>
     <g id="text_5">
      <!-- 2 -->
      <g transform="translate(388.756735 439.733937) scale(0.1 -0.1)">
       <use xlink:href="#DejaVuSans-32"/>
      </g>
     </g>
    </g>
    <g id="text_6">
     <!-- Theoretical Quantiles -->
     <g transform="translate(189.108203 454.171906) scale(0.11 -0.11)">
      <defs>
       <path id="DejaVuSans-54" d="M -19 4666 
L 3928 4666 
L 3928 4134 
L 2272 4134 
L 2272 0 
L 1638 0 
L 1638 4134 
L -19 4134 
L -19 4666 
z
" transform="scale(0.015625)"/>
       <path id="DejaVuSans-68" d="M 3513 2113 
L 3513 0 
L 2938 0 
L 2938 2094 
Q 2938 2591 2744 2837 
Q 2550 3084 2163 3084 
Q 1697 3084 1428 2787 
Q 1159 2491 1159 1978 
L 1159 0 
L 581 0 
L 581 4863 
L 1159 4863 
L 1159 2956 
Q 1366 3272 1645 3428 
Q 1925 3584 2291 3584 
Q 2894 3584 3203 3211 
Q 3513 2838 3513 2113 
z
" transform="scale(0.015625)"/>
       <path id="DejaVuSans-65" d="M 3597 1894 
L 3597 1613 
L 953 1613 
Q 991 1019 1311 708 
Q 1631 397 2203 397 
Q 2534 397 2845 478 
Q 3156 559 3463 722 
L 3463 178 
Q 3153 47 2828 -22 
Q 2503 -91 2169 -91 
Q 1331 -91 842 396 
Q 353 884 353 1716 
Q 353 2575 817 3079 
Q 1281 3584 2069 3584 
Q 2775 3584 3186 3129 
Q 3597 2675 3597 1894 
z
M 3022 2063 
Q 3016 2534 2758 2815 
Q 2500 3097 2075 3097 
Q 1594 3097 1305 2825 
Q 1016 2553 972 2059 
L 3022 2063 
z
" transform="scale(0.015625)"/>
       <path id="DejaVuSans-6f" d="M 1959 3097 
Q 1497 3097 1228 2736 
Q 959 2375 959 1747 
Q 959 1119 1226 758 
Q 1494 397 1959 397 
Q 2419 397 2687 759 
Q 2956 1122 2956 1747 
Q 2956 2369 2687 2733 
Q 2419 3097 1959 3097 
z
M 1959 3584 
Q 2709 3584 3137 3096 
Q 3566 2609 3566 1747 
Q 3566 888 3137 398 
Q 2709 -91 1959 -91 
Q 1206 -91 779 398 
Q 353 888 353 1747 
Q 353 2609 779 3096 
Q 1206 3584 1959 3584 
z
" transform="scale(0.015625)"/>
       <path id="DejaVuSans-72" d="M 2631 2963 
Q 2534 3019 2420 3045 
Q 2306 3072 2169 3072 
Q 1681 3072 1420 2755 
Q 1159 2438 1159 1844 
L 1159 0 
L 581 0 
L 581 3500 
L 1159 3500 
L 1159 2956 
Q 1341 3275 1631 3429 
Q 1922 3584 2338 3584 
Q 2397 3584 2469 3576 
Q 2541 3569 2628 3553 
L 2631 2963 
z
" transform="scale(0.015625)"/>
       <path id="DejaVuSans-74" d="M 1172 4494 
L 1172 3500 
L 2356 3500 
L 2356 3053 
L 1172 3053 
L 1172 1153 
Q 1172 725 1289 603 
Q 1406 481 1766 481 
L 2356 481 
L 2356 0 
L 1766 0 
Q 1100 0 847 248 
Q 594 497 594 1153 
L 594 3053 
L 172 3053 
L 172 3500 
L 594 3500 
L 594 4494 
L 1172 4494 
z
" transform="scale(0.015625)"/>
       <path id="DejaVuSans-69" d="M 603 3500 
L 1178 3500 
L 1178 0 
L 603 0 
L 603 3500 
z
M 603 4863 
L 1178 4863 
L 1178 4134 
L 603 4134 
L 603 4863 
z
" transform="scale(0.015625)"/>
       <path id="DejaVuSans-63" d="M 3122 3366 
L 3122 2828 
Q 2878 2963 2633 3030 
Q 2388 3097 2138 3097 
Q 1578 3097 1268 2742 
Q 959 2388 959 1747 
Q 959 1106 1268 751 
Q 1578 397 2138 397 
Q 2388 397 2633 464 
Q 2878 531 3122 666 
L 3122 134 
Q 2881 22 2623 -34 
Q 2366 -91 2075 -91 
Q 1284 -91 818 406 
Q 353 903 353 1747 
Q 353 2603 823 3093 
Q 1294 3584 2113 3584 
Q 2378 3584 2631 3529 
Q 2884 3475 3122 3366 
z
" transform="scale(0.015625)"/>
       <path id="DejaVuSans-61" d="M 2194 1759 
Q 1497 1759 1228 1600 
Q 959 1441 959 1056 
Q 959 750 1161 570 
Q 1363 391 1709 391 
Q 2188 391 2477 730 
Q 2766 1069 2766 1631 
L 2766 1759 
L 2194 1759 
z
M 3341 1997 
L 3341 0 
L 2766 0 
L 2766 531 
Q 2569 213 2275 61 
Q 1981 -91 1556 -91 
Q 1019 -91 701 211 
Q 384 513 384 1019 
Q 384 1609 779 1909 
Q 1175 2209 1959 2209 
L 2766 2209 
L 2766 2266 
Q 2766 2663 2505 2880 
Q 2244 3097 1772 3097 
Q 1472 3097 1187 3025 
Q 903 2953 641 2809 
L 641 3341 
Q 956 3463 1253 3523 
Q 1550 3584 1831 3584 
Q 2591 3584 2966 3190 
Q 3341 2797 3341 1997 
z
" transform="scale(0.015625)"/>
       <path id="DejaVuSans-6c" d="M 603 4863 
L 1178 4863 
L 1178 0 
L 603 0 
L 603 4863 
z
" transform="scale(0.015625)"/>
       <path id="DejaVuSans-20" transform="scale(0.015625)"/>
       <path id="DejaVuSans-51" d="M 2522 4238 
Q 1834 4238 1429 3725 
Q 1025 3213 1025 2328 
Q 1025 1447 1429 934 
Q 1834 422 2522 422 
Q 3209 422 3611 934 
Q 4013 1447 4013 2328 
Q 4013 3213 3611 3725 
Q 3209 4238 2522 4238 
z
M 3406 84 
L 4238 -825 
L 3475 -825 
L 2784 -78 
Q 2681 -84 2626 -87 
Q 2572 -91 2522 -91 
Q 1538 -91 948 567 
Q 359 1225 359 2328 
Q 359 3434 948 4092 
Q 1538 4750 2522 4750 
Q 3503 4750 4090 4092 
Q 4678 3434 4678 2328 
Q 4678 1516 4351 937 
Q 4025 359 3406 84 
z
" transform="scale(0.015625)"/>
       <path id="DejaVuSans-75" d="M 544 1381 
L 544 3500 
L 1119 3500 
L 1119 1403 
Q 1119 906 1312 657 
Q 1506 409 1894 409 
Q 2359 409 2629 706 
Q 2900 1003 2900 1516 
L 2900 3500 
L 3475 3500 
L 3475 0 
L 2900 0 
L 2900 538 
Q 2691 219 2414 64 
Q 2138 -91 1772 -91 
Q 1169 -91 856 284 
Q 544 659 544 1381 
z
M 1991 3584 
L 1991 3584 
z
" transform="scale(0.015625)"/>
       <path id="DejaVuSans-6e" d="M 3513 2113 
L 3513 0 
L 2938 0 
L 2938 2094 
Q 2938 2591 2744 2837 
Q 2550 3084 2163 3084 
Q 1697 3084 1428 2787 
Q 1159 2491 1159 1978 
L 1159 0 
L 581 0 
L 581 3500 
L 1159 3500 
L 1159 2956 
Q 1366 3272 1645 3428 
Q 1925 3584 2291 3584 
Q 2894 3584 3203 3211 
Q 3513 2838 3513 2113 
z
" transform="scale(0.015625)"/>
       <path id="DejaVuSans-73" d="M 2834 3397 
L 2834 2853 
Q 2591 2978 2328 3040 
Q 2066 3103 1784 3103 
Q 1356 3103 1142 2972 
Q 928 2841 928 2578 
Q 928 2378 1081 2264 
Q 1234 2150 1697 2047 
L 1894 2003 
Q 2506 1872 2764 1633 
Q 3022 1394 3022 966 
Q 3022 478 2636 193 
Q 2250 -91 1575 -91 
Q 1294 -91 989 -36 
Q 684 19 347 128 
L 347 722 
Q 666 556 975 473 
Q 1284 391 1588 391 
Q 1994 391 2212 530 
Q 2431 669 2431 922 
Q 2431 1156 2273 1281 
Q 2116 1406 1581 1522 
L 1381 1569 
Q 847 1681 609 1914 
Q 372 2147 372 2553 
Q 372 3047 722 3315 
Q 1072 3584 1716 3584 
Q 2034 3584 2315 3537 
Q 2597 3491 2834 3397 
z
" transform="scale(0.015625)"/>
      </defs>
      <use xlink:href="#DejaVuSans-54"/>
      <use xlink:href="#DejaVuSans-68" x="61.083984"/>
      <use xlink:href="#DejaVuSans-65" x="124.462891"/>
      <use xlink:href="#DejaVuSans-6f" x="185.986328"/>
      <use xlink:href="#DejaVuSans-72" x="247.167969"/>
      <use xlink:href="#DejaVuSans-65" x="286.03125"/>
      <use xlink:href="#DejaVuSans-74" x="347.554688"/>
      <use xlink:href="#DejaVuSans-69" x="386.763672"/>
      <use xlink:href="#DejaVuSans-63" x="414.546875"/>
      <use xlink:href="#DejaVuSans-61" x="469.527344"/>
      <use xlink:href="#DejaVuSans-6c" x="530.806641"/>
      <use xlink:href="#DejaVuSans-20" x="558.589844"/>
      <use xlink:href="#DejaVuSans-51" x="590.376953"/>
      <use xlink:href="#DejaVuSans-75" x="669.087891"/>
      <use xlink:href="#DejaVuSans-61" x="732.466797"/>
      <use xlink:href="#DejaVuSans-6e" x="793.746094"/>
      <use xlink:href="#DejaVuSans-74" x="857.125"/>
      <use xlink:href="#DejaVuSans-69" x="896.333984"/>
      <use xlink:href="#DejaVuSans-6c" x="924.117188"/>
      <use xlink:href="#DejaVuSans-65" x="951.900391"/>
      <use xlink:href="#DejaVuSans-73" x="1013.423828"/>
     </g>
    </g>
   </g>
   <g id="matplotlib.axis_2">
    <g id="ytick_1">
     <g id="line2d_11">
      <path d="M 52.411563 383.338408 
L 443.011563 383.338408 
" clip-path="url(#p04ccaf1729)" style="fill: none; stroke: #b0b0b0; stroke-opacity: 0.3; stroke-width: 0.8; stroke-linecap: square"/>
     </g>
     <g id="line2d_12">
      <defs>
       <path id="m4c191e4e68" d="M 0 0 
L -4.8 0 
" style="stroke: #000000"/>
      </defs>
      <g>
       <use xlink:href="#m4c191e4e68" x="52.411563" y="383.338408" style="stroke: #000000"/>
      </g>
     </g>
     <g id="text_7">
      <!-- 17.5 -->
      <g transform="translate(21.845938 387.137627) scale(0.1 -0.1)">
       <defs>
        <path id="DejaVuSans-37" d="M 525 4666 
L 3525 4666 
L 3525 4397 
L 1831 0 
L 1172 0 
L 2766 4134 
L 525 4134 
L 525 4666 
z
" transform="scale(0.015625)"/>
        <path id="DejaVuSans-2e" d="M 684 794 
L 1344 794 
L 1344 0 
L 684 0 
L 684 794 
z
" transform="scale(0.015625)"/>
        <path id="DejaVuSans-35" d="M 691 4666 
L 3169 4666 
L 3169 4134 
L 1269 4134 
L 1269 2991 
Q 1406 3038 1543 3061 
Q 1681 3084 1819 3084 
Q 2600 3084 3056 2656 
Q 3513 2228 3513 1497 
Q 3513 744 3044 326 
Q 2575 -91 1722 -91 
Q 1428 -91 1123 -41 
Q 819 9 494 109 
L 494 744 
Q 775 591 1075 516 
Q 1375 441 1709 441 
Q 2250 441 2565 725 
Q 2881 1009 2881 1497 
Q 2881 1984 2565 2268 
Q 2250 2553 1709 2553 
Q 1456 2553 1204 2497 
Q 953 2441 691 2322 
L 691 4666 
z
" transform="scale(0.015625)"/>
       </defs>
       <use xlink:href="#DejaVuSans-31"/>
       <use xlink:href="#DejaVuSans-37" x="63.623047"/>
       <use xlink:href="#DejaVuSans-2e" x="127.246094"/>
       <use xlink:href="#DejaVuSans-35" x="159.033203"/>
      </g>
     </g>
    </g>
    <g id="ytick_2">
     <g id="line2d_13">
      <path d="M 52.411563 317.349826 
L 443.011563 317.349826 
" clip-path="url(#p04ccaf1729)" style="fill: none; stroke: #b0b0b0; stroke-opacity: 0.3; stroke-width: 0.8; stroke-linecap: square"/>
     </g>
     <g id="line2d_14">
      <g>
       <use xlink:href="#m4c191e4e68" x="52.411563" y="317.349826" style="stroke: #000000"/>
      </g>
     </g>
     <g id="text_8">
      <!-- 18.0 -->
      <g transform="translate(21.845938 321.149045) scale(0.1 -0.1)">
       <defs>
        <path id="DejaVuSans-38" d="M 2034 2216 
Q 1584 2216 1326 1975 
Q 1069 1734 1069 1313 
Q 1069 891 1326 650 
Q 1584 409 2034 409 
Q 2484 409 2743 651 
Q 3003 894 3003 1313 
Q 3003 1734 2745 1975 
Q 2488 2216 2034 2216 
z
M 1403 2484 
Q 997 2584 770 2862 
Q 544 3141 544 3541 
Q 544 4100 942 4425 
Q 1341 4750 2034 4750 
Q 2731 4750 3128 4425 
Q 3525 4100 3525 3541 
Q 3525 3141 3298 2862 
Q 3072 2584 2669 2484 
Q 3125 2378 3379 2068 
Q 3634 1759 3634 1313 
Q 3634 634 3220 271 
Q 2806 -91 2034 -91 
Q 1263 -91 848 271 
Q 434 634 434 1313 
Q 434 1759 690 2068 
Q 947 2378 1403 2484 
z
M 1172 3481 
Q 1172 3119 1398 2916 
Q 1625 2713 2034 2713 
Q 2441 2713 2670 2916 
Q 2900 3119 2900 3481 
Q 2900 3844 2670 4047 
Q 2441 4250 2034 4250 
Q 1625 4250 1398 4047 
Q 1172 3844 1172 3481 
z
" transform="scale(0.015625)"/>
       </defs>
       <use xlink:href="#DejaVuSans-31"/>
       <use xlink:href="#DejaVuSans-38" x="63.623047"/>
       <use xlink:href="#DejaVuSans-2e" x="127.246094"/>
       <use xlink:href="#DejaVuSans-30" x="159.033203"/>
      </g>
     </g>
    </g>
    <g id="ytick_3">
     <g id="line2d_15">
      <path d="M 52.411563 251.361245 
L 443.011563 251.361245 
" clip-path="url(#p04ccaf1729)" style="fill: none; stroke: #b0b0b0; stroke-opacity: 0.3; stroke-width: 0.8; stroke-linecap: square"/>
     </g>
     <g id="line2d_16">
      <g>
       <use xlink:href="#m4c191e4e68" x="52.411563" y="251.361245" style="stroke: #000000"/>
      </g>
     </g>
     <g id="text_9">
      <!-- 18.5 -->
      <g transform="translate(21.845938 255.160464) scale(0.1 -0.1)">
       <use xlink:href="#DejaVuSans-31"/>
       <use xlink:href="#DejaVuSans-38" x="63.623047"/>
       <use xlink:href="#DejaVuSans-2e" x="127.246094"/>
       <use xlink:href="#DejaVuSans-35" x="159.033203"/>
      </g>
     </g>
    </g>
    <g id="ytick_4">
     <g id="line2d_17">
      <path d="M 52.411563 185.372663 
L 443.011563 185.372663 
" clip-path="url(#p04ccaf1729)" style="fill: none; stroke: #b0b0b0; stroke-opacity: 0.3; stroke-width: 0.8; stroke-linecap: square"/>
     </g>
     <g id="line2d_18">
      <g>
       <use xlink:href="#m4c191e4e68" x="52.411563" y="185.372663" style="stroke: #000000"/>
      </g>
     </g>
     <g id="text_10">
      <!-- 19.0 -->
      <g transform="translate(21.845938 189.171882) scale(0.1 -0.1)">
       <defs>
        <path id="DejaVuSans-39" d="M 703 97 
L 703 672 
Q 941 559 1184 500 
Q 1428 441 1663 441 
Q 2288 441 2617 861 
Q 2947 1281 2994 2138 
Q 2813 1869 2534 1725 
Q 2256 1581 1919 1581 
Q 1219 1581 811 2004 
Q 403 2428 403 3163 
Q 403 3881 828 4315 
Q 1253 4750 1959 4750 
Q 2769 4750 3195 4129 
Q 3622 3509 3622 2328 
Q 3622 1225 3098 567 
Q 2575 -91 1691 -91 
Q 1453 -91 1209 -44 
Q 966 3 703 97 
z
M 1959 2075 
Q 2384 2075 2632 2365 
Q 2881 2656 2881 3163 
Q 2881 3666 2632 3958 
Q 2384 4250 1959 4250 
Q 1534 4250 1286 3958 
Q 1038 3666 1038 3163 
Q 1038 2656 1286 2365 
Q 1534 2075 1959 2075 
z
" transform="scale(0.015625)"/>
       </defs>
       <use xlink:href="#DejaVuSans-31"/>
       <use xlink:href="#DejaVuSans-39" x="63.623047"/>
       <use xlink:href="#DejaVuSans-2e" x="127.246094"/>
       <use xlink:href="#DejaVuSans-30" x="159.033203"/>
      </g>
     </g>
    </g>
    <g id="ytick_5">
     <g id="line2d_19">
      <path d="M 52.411563 119.384082 
L 443.011563 119.384082 
" clip-path="url(#p04ccaf1729)" style="fill: none; stroke: #b0b0b0; stroke-opacity: 0.3; stroke-width: 0.8; stroke-linecap: square"/>
     </g>
     <g id="line2d_20">
      <g>
       <use xlink:href="#m4c191e4e68" x="52.411563" y="119.384082" style="stroke: #000000"/>
      </g>
     </g>
     <g id="text_11">
      <!-- 19.5 -->
      <g transform="translate(21.845938 123.1833) scale(0.1 -0.1)">
       <use xlink:href="#DejaVuSans-31"/>
       <use xlink:href="#DejaVuSans-39" x="63.623047"/>
       <use xlink:href="#DejaVuSans-2e" x="127.246094"/>
       <use xlink:href="#DejaVuSans-35" x="159.033203"/>
      </g>
     </g>
    </g>
    <g id="ytick_6">
     <g id="line2d_21">
      <path d="M 52.411563 53.3955 
L 443.011563 53.3955 
" clip-path="url(#p04ccaf1729)" style="fill: none; stroke: #b0b0b0; stroke-opacity: 0.3; stroke-width: 0.8; stroke-linecap: square"/>
     </g>
     <g id="line2d_22">
      <g>
       <use xlink:href="#m4c191e4e68" x="52.411563" y="53.3955" style="stroke: #000000"/>
      </g>
     </g>
     <g id="text_12">
      <!-- 20.0 -->
      <g transform="translate(21.845938 57.194719) scale(0.1 -0.1)">
       <use xlink:href="#DejaVuSans-32"/>
       <use xlink:href="#DejaVuSans-30" x="63.623047"/>
       <use xlink:href="#DejaVuSans-2e" x="127.246094"/>
       <use xlink:href="#DejaVuSans-30" x="159.033203"/>
      </g>
     </g>
    </g>
    <g id="text_13">
     <!-- Sample Quantiles -->
     <g transform="translate(15.558281 278.299484) rotate(-90) scale(0.11 -0.11)">
      <defs>
       <path id="DejaVuSans-53" d="M 3425 4513 
L 3425 3897 
Q 3066 4069 2747 4153 
Q 2428 4238 2131 4238 
Q 1616 4238 1336 4038 
Q 1056 3838 1056 3469 
Q 1056 3159 1242 3001 
Q 1428 2844 1947 2747 
L 2328 2669 
Q 3034 2534 3370 2195 
Q 3706 1856 3706 1288 
Q 3706 609 3251 259 
Q 2797 -91 1919 -91 
Q 1588 -91 1214 -16 
Q 841 59 441 206 
L 441 856 
Q 825 641 1194 531 
Q 1563 422 1919 422 
Q 2459 422 2753 634 
Q 3047 847 3047 1241 
Q 3047 1584 2836 1778 
Q 2625 1972 2144 2069 
L 1759 2144 
Q 1053 2284 737 2584 
Q 422 2884 422 3419 
Q 422 4038 858 4394 
Q 1294 4750 2059 4750 
Q 2388 4750 2728 4690 
Q 3069 4631 3425 4513 
z
" transform="scale(0.015625)"/>
       <path id="DejaVuSans-6d" d="M 3328 2828 
Q 3544 3216 3844 3400 
Q 4144 3584 4550 3584 
Q 5097 3584 5394 3201 
Q 5691 2819 5691 2113 
L 5691 0 
L 5113 0 
L 5113 2094 
Q 5113 2597 4934 2840 
Q 4756 3084 4391 3084 
Q 3944 3084 3684 2787 
Q 3425 2491 3425 1978 
L 3425 0 
L 2847 0 
L 2847 2094 
Q 2847 2600 2669 2842 
Q 2491 3084 2119 3084 
Q 1678 3084 1418 2786 
Q 1159 2488 1159 1978 
L 1159 0 
L 581 0 
L 581 3500 
L 1159 3500 
L 1159 2956 
Q 1356 3278 1631 3431 
Q 1906 3584 2284 3584 
Q 2666 3584 2933 3390 
Q 3200 3197 3328 2828 
z
" transform="scale(0.015625)"/>
       <path id="DejaVuSans-70" d="M 1159 525 
L 1159 -1331 
L 581 -1331 
L 581 3500 
L 1159 3500 
L 1159 2969 
Q 1341 3281 1617 3432 
Q 1894 3584 2278 3584 
Q 2916 3584 3314 3078 
Q 3713 2572 3713 1747 
Q 3713 922 3314 415 
Q 2916 -91 2278 -91 
Q 1894 -91 1617 61 
Q 1341 213 1159 525 
z
M 3116 1747 
Q 3116 2381 2855 2742 
Q 2594 3103 2138 3103 
Q 1681 3103 1420 2742 
Q 1159 2381 1159 1747 
Q 1159 1113 1420 752 
Q 1681 391 2138 391 
Q 2594 391 2855 752 
Q 3116 1113 3116 1747 
z
" transform="scale(0.015625)"/>
      </defs>
      <use xlink:href="#DejaVuSans-53"/>
      <use xlink:href="#DejaVuSans-61" x="63.476562"/>
      <use xlink:href="#DejaVuSans-6d" x="124.755859"/>
      <use xlink:href="#DejaVuSans-70" x="222.167969"/>
      <use xlink:href="#DejaVuSans-6c" x="285.644531"/>
      <use xlink:href="#DejaVuSans-65" x="313.427734"/>
      <use xlink:href="#DejaVuSans-20" x="374.951172"/>
      <use xlink:href="#DejaVuSans-51" x="406.738281"/>
      <use xlink:href="#DejaVuSans-75" x="485.449219"/>
      <use xlink:href="#DejaVuSans-61" x="548.828125"/>
      <use xlink:href="#DejaVuSans-6e" x="610.107422"/>
      <use xlink:href="#DejaVuSans-74" x="673.486328"/>
      <use xlink:href="#DejaVuSans-69" x="712.695312"/>
      <use xlink:href="#DejaVuSans-6c" x="740.478516"/>
      <use xlink:href="#DejaVuSans-65" x="768.261719"/>
      <use xlink:href="#DejaVuSans-73" x="829.785156"/>
     </g>
    </g>
   </g>
   <g id="line2d_23">
    <defs>
     <path id="mcde7f89856" d="M 0 3.5 
C 0.928211 3.5 1.81853 3.131218 2.474874 2.474874 
C 3.131218 1.81853 3.5 0.928211 3.5 0 
C 3.5 -0.928211 3.131218 -1.81853 2.474874 -2.474874 
C 1.81853 -3.131218 0.928211 -3.5 0 -3.5 
C -0.928211 -3.5 -1.81853 -3.131218 -2.474874 -2.474874 
C -3.131218 -1.81853 -3.5 -0.928211 -3.5 0 
C -3.5 0.928211 -3.131218 1.81853 -2.474874 2.474874 
C -1.81853 3.131218 -0.928211 3.5 0 3.5 
z
" style="stroke: #0000ff; stroke-opacity: 0.7"/>
    </defs>
    <g clip-path="url(#p04ccaf1729)">
     <use xlink:href="#mcde7f89856" x="70.166108" y="317.349826" style="fill: #0000ff; fill-opacity: 0.7; stroke: #0000ff; stroke-opacity: 0.7"/>
     <use xlink:href="#mcde7f89856" x="94.41997" y="317.349826" style="fill: #0000ff; fill-opacity: 0.7; stroke: #0000ff; stroke-opacity: 0.7"/>
     <use xlink:href="#mcde7f89856" x="108.444526" y="317.349826" style="fill: #0000ff; fill-opacity: 0.7; stroke: #0000ff; stroke-opacity: 0.7"/>
     <use xlink:href="#mcde7f89856" x="118.596713" y="317.349826" style="fill: #0000ff; fill-opacity: 0.7; stroke: #0000ff; stroke-opacity: 0.7"/>
     <use xlink:href="#mcde7f89856" x="126.691674" y="317.349826" style="fill: #0000ff; fill-opacity: 0.7; stroke: #0000ff; stroke-opacity: 0.7"/>
     <use xlink:href="#mcde7f89856" x="133.49785" y="317.349826" style="fill: #0000ff; fill-opacity: 0.7; stroke: #0000ff; stroke-opacity: 0.7"/>
     <use xlink:href="#mcde7f89856" x="139.41618" y="317.349826" style="fill: #0000ff; fill-opacity: 0.7; stroke: #0000ff; stroke-opacity: 0.7"/>
     <use xlink:href="#mcde7f89856" x="144.683603" y="317.349826" style="fill: #0000ff; fill-opacity: 0.7; stroke: #0000ff; stroke-opacity: 0.7"/>
     <use xlink:href="#mcde7f89856" x="149.452359" y="317.349826" style="fill: #0000ff; fill-opacity: 0.7; stroke: #0000ff; stroke-opacity: 0.7"/>
     <use xlink:href="#mcde7f89856" x="153.826355" y="317.349826" style="fill: #0000ff; fill-opacity: 0.7; stroke: #0000ff; stroke-opacity: 0.7"/>
     <use xlink:href="#mcde7f89856" x="157.879833" y="317.349826" style="fill: #0000ff; fill-opacity: 0.7; stroke: #0000ff; stroke-opacity: 0.7"/>
     <use xlink:href="#mcde7f89856" x="161.667778" y="317.349826" style="fill: #0000ff; fill-opacity: 0.7; stroke: #0000ff; stroke-opacity: 0.7"/>
     <use xlink:href="#mcde7f89856" x="165.232114" y="317.349826" style="fill: #0000ff; fill-opacity: 0.7; stroke: #0000ff; stroke-opacity: 0.7"/>
     <use xlink:href="#mcde7f89856" x="168.605583" y="317.349826" style="fill: #0000ff; fill-opacity: 0.7; stroke: #0000ff; stroke-opacity: 0.7"/>
     <use xlink:href="#mcde7f89856" x="171.814274" y="317.349826" style="fill: #0000ff; fill-opacity: 0.7; stroke: #0000ff; stroke-opacity: 0.7"/>
     <use xlink:href="#mcde7f89856" x="174.879334" y="317.349826" style="fill: #0000ff; fill-opacity: 0.7; stroke: #0000ff; stroke-opacity: 0.7"/>
     <use xlink:href="#mcde7f89856" x="177.818165" y="317.349826" style="fill: #0000ff; fill-opacity: 0.7; stroke: #0000ff; stroke-opacity: 0.7"/>
     <use xlink:href="#mcde7f89856" x="180.645272" y="317.349826" style="fill: #0000ff; fill-opacity: 0.7; stroke: #0000ff; stroke-opacity: 0.7"/>
     <use xlink:href="#mcde7f89856" x="183.372881" y="317.349826" style="fill: #0000ff; fill-opacity: 0.7; stroke: #0000ff; stroke-opacity: 0.7"/>
     <use xlink:href="#mcde7f89856" x="186.011412" y="317.349826" style="fill: #0000ff; fill-opacity: 0.7; stroke: #0000ff; stroke-opacity: 0.7"/>
     <use xlink:href="#mcde7f89856" x="188.569818" y="317.349826" style="fill: #0000ff; fill-opacity: 0.7; stroke: #0000ff; stroke-opacity: 0.7"/>
     <use xlink:href="#mcde7f89856" x="191.055864" y="317.349826" style="fill: #0000ff; fill-opacity: 0.7; stroke: #0000ff; stroke-opacity: 0.7"/>
     <use xlink:href="#mcde7f89856" x="193.476329" y="317.349826" style="fill: #0000ff; fill-opacity: 0.7; stroke: #0000ff; stroke-opacity: 0.7"/>
     <use xlink:href="#mcde7f89856" x="195.837178" y="317.349826" style="fill: #0000ff; fill-opacity: 0.7; stroke: #0000ff; stroke-opacity: 0.7"/>
     <use xlink:href="#mcde7f89856" x="198.143692" y="317.349826" style="fill: #0000ff; fill-opacity: 0.7; stroke: #0000ff; stroke-opacity: 0.7"/>
     <use xlink:href="#mcde7f89856" x="200.400574" y="317.349826" style="fill: #0000ff; fill-opacity: 0.7; stroke: #0000ff; stroke-opacity: 0.7"/>
     <use xlink:href="#mcde7f89856" x="202.612037" y="317.349826" style="fill: #0000ff; fill-opacity: 0.7; stroke: #0000ff; stroke-opacity: 0.7"/>
     <use xlink:href="#mcde7f89856" x="204.781874" y="317.349826" style="fill: #0000ff; fill-opacity: 0.7; stroke: #0000ff; stroke-opacity: 0.7"/>
     <use xlink:href="#mcde7f89856" x="206.913519" y="317.349826" style="fill: #0000ff; fill-opacity: 0.7; stroke: #0000ff; stroke-opacity: 0.7"/>
     <use xlink:href="#mcde7f89856" x="209.010093" y="317.349826" style="fill: #0000ff; fill-opacity: 0.7; stroke: #0000ff; stroke-opacity: 0.7"/>
     <use xlink:href="#mcde7f89856" x="211.07445" y="317.349826" style="fill: #0000ff; fill-opacity: 0.7; stroke: #0000ff; stroke-opacity: 0.7"/>
     <use xlink:href="#mcde7f89856" x="213.109208" y="317.349826" style="fill: #0000ff; fill-opacity: 0.7; stroke: #0000ff; stroke-opacity: 0.7"/>
     <use xlink:href="#mcde7f89856" x="215.116779" y="317.349826" style="fill: #0000ff; fill-opacity: 0.7; stroke: #0000ff; stroke-opacity: 0.7"/>
     <use xlink:href="#mcde7f89856" x="217.099397" y="317.349826" style="fill: #0000ff; fill-opacity: 0.7; stroke: #0000ff; stroke-opacity: 0.7"/>
     <use xlink:href="#mcde7f89856" x="219.059139" y="317.349826" style="fill: #0000ff; fill-opacity: 0.7; stroke: #0000ff; stroke-opacity: 0.7"/>
     <use xlink:href="#mcde7f89856" x="220.997942" y="317.349826" style="fill: #0000ff; fill-opacity: 0.7; stroke: #0000ff; stroke-opacity: 0.7"/>
     <use xlink:href="#mcde7f89856" x="222.917623" y="317.349826" style="fill: #0000ff; fill-opacity: 0.7; stroke: #0000ff; stroke-opacity: 0.7"/>
     <use xlink:href="#mcde7f89856" x="224.81989" y="317.349826" style="fill: #0000ff; fill-opacity: 0.7; stroke: #0000ff; stroke-opacity: 0.7"/>
     <use xlink:href="#mcde7f89856" x="226.706357" y="317.349826" style="fill: #0000ff; fill-opacity: 0.7; stroke: #0000ff; stroke-opacity: 0.7"/>
     <use xlink:href="#mcde7f89856" x="228.578556" y="317.349826" style="fill: #0000ff; fill-opacity: 0.7; stroke: #0000ff; stroke-opacity: 0.7"/>
     <use xlink:href="#mcde7f89856" x="230.437945" y="317.349826" style="fill: #0000ff; fill-opacity: 0.7; stroke: #0000ff; stroke-opacity: 0.7"/>
     <use xlink:href="#mcde7f89856" x="232.285918" y="317.349826" style="fill: #0000ff; fill-opacity: 0.7; stroke: #0000ff; stroke-opacity: 0.7"/>
     <use xlink:href="#mcde7f89856" x="234.123815" y="317.349826" style="fill: #0000ff; fill-opacity: 0.7; stroke: #0000ff; stroke-opacity: 0.7"/>
     <use xlink:href="#mcde7f89856" x="235.952927" y="317.349826" style="fill: #0000ff; fill-opacity: 0.7; stroke: #0000ff; stroke-opacity: 0.7"/>
     <use xlink:href="#mcde7f89856" x="237.774504" y="317.349826" style="fill: #0000ff; fill-opacity: 0.7; stroke: #0000ff; stroke-opacity: 0.7"/>
     <use xlink:href="#mcde7f89856" x="239.589761" y="317.349826" style="fill: #0000ff; fill-opacity: 0.7; stroke: #0000ff; stroke-opacity: 0.7"/>
     <use xlink:href="#mcde7f89856" x="241.399886" y="317.349826" style="fill: #0000ff; fill-opacity: 0.7; stroke: #0000ff; stroke-opacity: 0.7"/>
     <use xlink:href="#mcde7f89856" x="243.206042" y="317.349826" style="fill: #0000ff; fill-opacity: 0.7; stroke: #0000ff; stroke-opacity: 0.7"/>
     <use xlink:href="#mcde7f89856" x="245.009376" y="317.349826" style="fill: #0000ff; fill-opacity: 0.7; stroke: #0000ff; stroke-opacity: 0.7"/>
     <use xlink:href="#mcde7f89856" x="246.811021" y="317.349826" style="fill: #0000ff; fill-opacity: 0.7; stroke: #0000ff; stroke-opacity: 0.7"/>
     <use xlink:href="#mcde7f89856" x="248.612104" y="317.349826" style="fill: #0000ff; fill-opacity: 0.7; stroke: #0000ff; stroke-opacity: 0.7"/>
     <use xlink:href="#mcde7f89856" x="250.413749" y="317.349826" style="fill: #0000ff; fill-opacity: 0.7; stroke: #0000ff; stroke-opacity: 0.7"/>
     <use xlink:href="#mcde7f89856" x="252.217083" y="317.349826" style="fill: #0000ff; fill-opacity: 0.7; stroke: #0000ff; stroke-opacity: 0.7"/>
     <use xlink:href="#mcde7f89856" x="254.023239" y="317.349826" style="fill: #0000ff; fill-opacity: 0.7; stroke: #0000ff; stroke-opacity: 0.7"/>
     <use xlink:href="#mcde7f89856" x="255.833364" y="317.349826" style="fill: #0000ff; fill-opacity: 0.7; stroke: #0000ff; stroke-opacity: 0.7"/>
     <use xlink:href="#mcde7f89856" x="257.648621" y="317.349826" style="fill: #0000ff; fill-opacity: 0.7; stroke: #0000ff; stroke-opacity: 0.7"/>
     <use xlink:href="#mcde7f89856" x="259.470198" y="317.349826" style="fill: #0000ff; fill-opacity: 0.7; stroke: #0000ff; stroke-opacity: 0.7"/>
     <use xlink:href="#mcde7f89856" x="261.29931" y="317.349826" style="fill: #0000ff; fill-opacity: 0.7; stroke: #0000ff; stroke-opacity: 0.7"/>
     <use xlink:href="#mcde7f89856" x="263.137207" y="317.349826" style="fill: #0000ff; fill-opacity: 0.7; stroke: #0000ff; stroke-opacity: 0.7"/>
     <use xlink:href="#mcde7f89856" x="264.98518" y="317.349826" style="fill: #0000ff; fill-opacity: 0.7; stroke: #0000ff; stroke-opacity: 0.7"/>
     <use xlink:href="#mcde7f89856" x="266.844569" y="317.349826" style="fill: #0000ff; fill-opacity: 0.7; stroke: #0000ff; stroke-opacity: 0.7"/>
     <use xlink:href="#mcde7f89856" x="268.716768" y="317.349826" style="fill: #0000ff; fill-opacity: 0.7; stroke: #0000ff; stroke-opacity: 0.7"/>
     <use xlink:href="#mcde7f89856" x="270.603235" y="317.349826" style="fill: #0000ff; fill-opacity: 0.7; stroke: #0000ff; stroke-opacity: 0.7"/>
     <use xlink:href="#mcde7f89856" x="272.505502" y="317.349826" style="fill: #0000ff; fill-opacity: 0.7; stroke: #0000ff; stroke-opacity: 0.7"/>
     <use xlink:href="#mcde7f89856" x="274.425183" y="317.349826" style="fill: #0000ff; fill-opacity: 0.7; stroke: #0000ff; stroke-opacity: 0.7"/>
     <use xlink:href="#mcde7f89856" x="276.363986" y="317.349826" style="fill: #0000ff; fill-opacity: 0.7; stroke: #0000ff; stroke-opacity: 0.7"/>
     <use xlink:href="#mcde7f89856" x="278.323728" y="317.349826" style="fill: #0000ff; fill-opacity: 0.7; stroke: #0000ff; stroke-opacity: 0.7"/>
     <use xlink:href="#mcde7f89856" x="280.306346" y="317.349826" style="fill: #0000ff; fill-opacity: 0.7; stroke: #0000ff; stroke-opacity: 0.7"/>
     <use xlink:href="#mcde7f89856" x="282.313917" y="317.349826" style="fill: #0000ff; fill-opacity: 0.7; stroke: #0000ff; stroke-opacity: 0.7"/>
     <use xlink:href="#mcde7f89856" x="284.348675" y="317.349826" style="fill: #0000ff; fill-opacity: 0.7; stroke: #0000ff; stroke-opacity: 0.7"/>
     <use xlink:href="#mcde7f89856" x="286.413032" y="317.349826" style="fill: #0000ff; fill-opacity: 0.7; stroke: #0000ff; stroke-opacity: 0.7"/>
     <use xlink:href="#mcde7f89856" x="288.509606" y="185.372663" style="fill: #0000ff; fill-opacity: 0.7; stroke: #0000ff; stroke-opacity: 0.7"/>
     <use xlink:href="#mcde7f89856" x="290.641251" y="185.372663" style="fill: #0000ff; fill-opacity: 0.7; stroke: #0000ff; stroke-opacity: 0.7"/>
     <use xlink:href="#mcde7f89856" x="292.811088" y="185.372663" style="fill: #0000ff; fill-opacity: 0.7; stroke: #0000ff; stroke-opacity: 0.7"/>
     <use xlink:href="#mcde7f89856" x="295.022551" y="185.372663" style="fill: #0000ff; fill-opacity: 0.7; stroke: #0000ff; stroke-opacity: 0.7"/>
     <use xlink:href="#mcde7f89856" x="297.279433" y="185.372663" style="fill: #0000ff; fill-opacity: 0.7; stroke: #0000ff; stroke-opacity: 0.7"/>
     <use xlink:href="#mcde7f89856" x="299.585947" y="185.372663" style="fill: #0000ff; fill-opacity: 0.7; stroke: #0000ff; stroke-opacity: 0.7"/>
     <use xlink:href="#mcde7f89856" x="301.946796" y="185.372663" style="fill: #0000ff; fill-opacity: 0.7; stroke: #0000ff; stroke-opacity: 0.7"/>
     <use xlink:href="#mcde7f89856" x="304.367261" y="185.372663" style="fill: #0000ff; fill-opacity: 0.7; stroke: #0000ff; stroke-opacity: 0.7"/>
     <use xlink:href="#mcde7f89856" x="306.853307" y="185.372663" style="fill: #0000ff; fill-opacity: 0.7; stroke: #0000ff; stroke-opacity: 0.7"/>
     <use xlink:href="#mcde7f89856" x="309.411713" y="185.372663" style="fill: #0000ff; fill-opacity: 0.7; stroke: #0000ff; stroke-opacity: 0.7"/>
     <use xlink:href="#mcde7f89856" x="312.050244" y="185.372663" style="fill: #0000ff; fill-opacity: 0.7; stroke: #0000ff; stroke-opacity: 0.7"/>
     <use xlink:href="#mcde7f89856" x="314.777853" y="185.372663" style="fill: #0000ff; fill-opacity: 0.7; stroke: #0000ff; stroke-opacity: 0.7"/>
     <use xlink:href="#mcde7f89856" x="317.60496" y="185.372663" style="fill: #0000ff; fill-opacity: 0.7; stroke: #0000ff; stroke-opacity: 0.7"/>
     <use xlink:href="#mcde7f89856" x="320.543791" y="185.372663" style="fill: #0000ff; fill-opacity: 0.7; stroke: #0000ff; stroke-opacity: 0.7"/>
     <use xlink:href="#mcde7f89856" x="323.608851" y="185.372663" style="fill: #0000ff; fill-opacity: 0.7; stroke: #0000ff; stroke-opacity: 0.7"/>
     <use xlink:href="#mcde7f89856" x="326.817542" y="185.372663" style="fill: #0000ff; fill-opacity: 0.7; stroke: #0000ff; stroke-opacity: 0.7"/>
     <use xlink:href="#mcde7f89856" x="330.191011" y="185.372663" style="fill: #0000ff; fill-opacity: 0.7; stroke: #0000ff; stroke-opacity: 0.7"/>
     <use xlink:href="#mcde7f89856" x="333.755347" y="185.372663" style="fill: #0000ff; fill-opacity: 0.7; stroke: #0000ff; stroke-opacity: 0.7"/>
     <use xlink:href="#mcde7f89856" x="337.543292" y="185.372663" style="fill: #0000ff; fill-opacity: 0.7; stroke: #0000ff; stroke-opacity: 0.7"/>
     <use xlink:href="#mcde7f89856" x="341.59677" y="185.372663" style="fill: #0000ff; fill-opacity: 0.7; stroke: #0000ff; stroke-opacity: 0.7"/>
     <use xlink:href="#mcde7f89856" x="345.970766" y="185.372663" style="fill: #0000ff; fill-opacity: 0.7; stroke: #0000ff; stroke-opacity: 0.7"/>
     <use xlink:href="#mcde7f89856" x="350.739522" y="185.372663" style="fill: #0000ff; fill-opacity: 0.7; stroke: #0000ff; stroke-opacity: 0.7"/>
     <use xlink:href="#mcde7f89856" x="356.006945" y="185.372663" style="fill: #0000ff; fill-opacity: 0.7; stroke: #0000ff; stroke-opacity: 0.7"/>
     <use xlink:href="#mcde7f89856" x="361.925275" y="185.372663" style="fill: #0000ff; fill-opacity: 0.7; stroke: #0000ff; stroke-opacity: 0.7"/>
     <use xlink:href="#mcde7f89856" x="368.731451" y="185.372663" style="fill: #0000ff; fill-opacity: 0.7; stroke: #0000ff; stroke-opacity: 0.7"/>
     <use xlink:href="#mcde7f89856" x="376.826412" y="185.372663" style="fill: #0000ff; fill-opacity: 0.7; stroke: #0000ff; stroke-opacity: 0.7"/>
     <use xlink:href="#mcde7f89856" x="386.978599" y="185.372663" style="fill: #0000ff; fill-opacity: 0.7; stroke: #0000ff; stroke-opacity: 0.7"/>
     <use xlink:href="#mcde7f89856" x="401.003155" y="53.3955" style="fill: #0000ff; fill-opacity: 0.7; stroke: #0000ff; stroke-opacity: 0.7"/>
     <use xlink:href="#mcde7f89856" x="425.257017" y="53.3955" style="fill: #0000ff; fill-opacity: 0.7; stroke: #0000ff; stroke-opacity: 0.7"/>
    </g>
   </g>
   <g id="line2d_24">
    <path d="M 70.166108 406.1955 
L 94.41997 388.469633 
L 108.444526 378.219827 
L 118.596713 370.800129 
L 126.691674 364.88395 
L 133.49785 359.909675 
L 139.41618 355.58428 
L 144.683603 351.734599 
L 149.452359 348.249367 
L 153.826355 345.052644 
L 157.879833 342.090172 
L 161.667778 339.321763 
L 165.232114 336.716778 
L 168.605583 334.251287 
L 171.814274 331.906225 
L 174.879334 329.666134 
L 177.818165 327.518298 
L 180.645272 325.452115 
L 183.372881 323.458649 
L 186.011412 321.530287 
L 188.569818 319.660482 
L 191.055864 317.843563 
L 193.476329 316.074573 
L 195.837178 314.349153 
L 198.143692 312.663444 
L 200.400574 311.014008 
L 202.612037 309.397767 
L 204.781874 307.811947 
L 206.913519 306.254041 
L 209.010093 304.721765 
L 211.07445 303.213036 
L 213.109208 301.725939 
L 215.116779 300.258712 
L 217.099397 298.809721 
L 219.059139 297.377449 
L 220.997942 295.96048 
L 222.917623 294.557486 
L 224.81989 293.16722 
L 226.706357 291.788501 
L 228.578556 290.42021 
L 230.437945 289.061281 
L 232.285918 287.710694 
L 234.123815 286.367473 
L 235.952927 285.030671 
L 237.774504 283.699377 
L 239.589761 282.372701 
L 241.399886 281.049777 
L 243.206042 279.729753 
L 245.009376 278.411791 
L 246.811021 277.095064 
L 248.612104 275.778747 
L 250.413749 274.46202 
L 252.217083 273.144059 
L 254.023239 271.824035 
L 255.833364 270.50111 
L 257.648621 269.174435 
L 259.470198 267.84314 
L 261.29931 266.506339 
L 263.137207 265.163117 
L 264.98518 263.812531 
L 266.844569 262.453602 
L 268.716768 261.085311 
L 270.603235 259.706591 
L 272.505502 258.316325 
L 274.425183 256.913332 
L 276.363986 255.496363 
L 278.323728 254.064091 
L 280.306346 252.6151 
L 282.313917 251.147872 
L 284.348675 249.660776 
L 286.413032 248.152046 
L 288.509606 246.619771 
L 290.641251 245.061864 
L 292.811088 243.476045 
L 295.022551 241.859804 
L 297.279433 240.210368 
L 299.585947 238.524658 
L 301.946796 236.799238 
L 304.367261 235.030248 
L 306.853307 233.213329 
L 309.411713 231.343525 
L 312.050244 229.415162 
L 314.777853 227.421696 
L 317.60496 225.355514 
L 320.543791 223.207677 
L 323.608851 220.967586 
L 326.817542 218.622524 
L 330.191011 216.157034 
L 333.755347 213.552049 
L 337.543292 210.78364 
L 341.59677 207.821167 
L 345.970766 204.624444 
L 350.739522 201.139212 
L 356.006945 197.289531 
L 361.925275 192.964136 
L 368.731451 187.989862 
L 376.826412 182.073683 
L 386.978599 174.653985 
L 401.003155 164.404178 
L 425.257017 146.678312 
" clip-path="url(#p04ccaf1729)" style="fill: none; stroke-dasharray: 7.4,3.2; stroke-dashoffset: 0; stroke: #ff0000; stroke-opacity: 0.7; stroke-width: 2"/>
   </g>
   <g id="patch_3">
    <path d="M 52.411563 423.8355 
L 52.411563 35.7555 
" style="fill: none; stroke: #000000; stroke-linejoin: miter; stroke-linecap: square"/>
   </g>
   <g id="patch_4">
    <path d="M 443.011563 423.8355 
L 443.011563 35.7555 
" style="fill: none; stroke: #000000; stroke-linejoin: miter; stroke-linecap: square"/>
   </g>
   <g id="patch_5">
    <path d="M 52.411563 423.8355 
L 443.011563 423.8355 
" style="fill: none; stroke: #000000; stroke-linejoin: miter; stroke-linecap: square"/>
   </g>
   <g id="patch_6">
    <path d="M 52.411563 35.7555 
L 443.011563 35.7555 
" style="fill: none; stroke: #000000; stroke-linejoin: miter; stroke-linecap: square"/>
   </g>
   <g id="text_14">
    <g id="patch_7">
     <path d="M 71.941563 96.803906 
L 148.638438 96.803906 
Q 151.338437 96.803906 151.338437 94.103906 
L 151.338437 55.1595 
Q 151.338437 52.4595 148.638438 52.4595 
L 71.941563 52.4595 
Q 69.241563 52.4595 69.241563 55.1595 
L 69.241563 94.103906 
Q 69.241563 96.803906 71.941563 96.803906 
z
" style="fill: #f8d7da; opacity: 0.8; stroke: #721c24; stroke-width: 0.8; stroke-linejoin: miter"/>
    </g>
    <!-- Shapiro-Wilk Test -->
    <g style="fill: #721c24" transform="translate(71.941563 61.998094) scale(0.09 -0.09)">
     <defs>
      <path id="DejaVuSans-2d" d="M 313 2009 
L 1997 2009 
L 1997 1497 
L 313 1497 
L 313 2009 
z
" transform="scale(0.015625)"/>
      <path id="DejaVuSans-57" d="M 213 4666 
L 850 4666 
L 1831 722 
L 2809 4666 
L 3519 4666 
L 4500 722 
L 5478 4666 
L 6119 4666 
L 4947 0 
L 4153 0 
L 3169 4050 
L 2175 0 
L 1381 0 
L 213 4666 
z
" transform="scale(0.015625)"/>
      <path id="DejaVuSans-6b" d="M 581 4863 
L 1159 4863 
L 1159 1991 
L 2875 3500 
L 3609 3500 
L 1753 1863 
L 3688 0 
L 2938 0 
L 1159 1709 
L 1159 0 
L 581 0 
L 581 4863 
z
" transform="scale(0.015625)"/>
     </defs>
     <use xlink:href="#DejaVuSans-53"/>
     <use xlink:href="#DejaVuSans-68" x="63.476562"/>
     <use xlink:href="#DejaVuSans-61" x="126.855469"/>
     <use xlink:href="#DejaVuSans-70" x="188.134766"/>
     <use xlink:href="#DejaVuSans-69" x="251.611328"/>
     <use xlink:href="#DejaVuSans-72" x="279.394531"/>
     <use xlink:href="#DejaVuSans-6f" x="318.257812"/>
     <use xlink:href="#DejaVuSans-2d" x="381.314453"/>
     <use xlink:href="#DejaVuSans-57" x="413.398438"/>
     <use xlink:href="#DejaVuSans-69" x="510.025391"/>
     <use xlink:href="#DejaVuSans-6c" x="537.808594"/>
     <use xlink:href="#DejaVuSans-6b" x="565.591797"/>
     <use xlink:href="#DejaVuSans-20" x="623.501953"/>
     <use xlink:href="#DejaVuSans-54" x="655.289062"/>
     <use xlink:href="#DejaVuSans-65" x="699.373047"/>
     <use xlink:href="#DejaVuSans-73" x="760.896484"/>
     <use xlink:href="#DejaVuSans-74" x="812.996094"/>
    </g>
    <!-- p &lt; 0.001 -->
    <g style="fill: #721c24" transform="translate(71.941563 72.076125) scale(0.09 -0.09)">
     <defs>
      <path id="DejaVuSans-3c" d="M 4684 3150 
L 1459 2003 
L 4684 863 
L 4684 294 
L 678 1747 
L 678 2266 
L 4684 3719 
L 4684 3150 
z
" transform="scale(0.015625)"/>
     </defs>
     <use xlink:href="#DejaVuSans-70"/>
     <use xlink:href="#DejaVuSans-20" x="63.476562"/>
     <use xlink:href="#DejaVuSans-3c" x="95.263672"/>
     <use xlink:href="#DejaVuSans-20" x="179.052734"/>
     <use xlink:href="#DejaVuSans-30" x="210.839844"/>
     <use xlink:href="#DejaVuSans-2e" x="274.462891"/>
     <use xlink:href="#DejaVuSans-30" x="306.25"/>
     <use xlink:href="#DejaVuSans-30" x="369.873047"/>
     <use xlink:href="#DejaVuSans-31" x="433.496094"/>
    </g>
    <!-- ⚠️ Non-normal -->
    <g style="fill: #721c24" transform="translate(71.941563 82.154156) scale(0.09 -0.09)">
     <defs>
      <path id="DejaVuSans-26a0" d="M 2897 4663 
L 2919 4663 
L 5425 28 
L 5425 0 
L 366 0 
L 341 28 
L 313 28 
Q 2797 4559 2897 4663 
z
M 2869 4075 
L 794 322 
L 794 269 
L 4972 269 
L 4972 297 
Q 2959 3988 2869 4075 
z
M 2897 3381 
Q 3138 3381 3138 3169 
Q 2975 1253 2897 1253 
Q 2825 1253 2656 3197 
Q 2734 3381 2897 3381 
z
M 2894 1022 
Q 2953 1022 3011 990 
Q 3069 959 3101 903 
Q 3134 847 3134 781 
Q 3134 719 3103 662 
Q 3072 606 3012 575 
Q 2953 544 2894 544 
Q 2831 544 2775 575 
Q 2719 606 2686 662 
Q 2653 719 2653 781 
Q 2653 847 2686 903 
Q 2719 959 2775 990 
Q 2831 1022 2894 1022 
z
" transform="scale(0.015625)"/>
      <path id="DejaVuSans-fe0f" transform="scale(0.015625)"/>
      <path id="DejaVuSans-4e" d="M 628 4666 
L 1478 4666 
L 3547 763 
L 3547 4666 
L 4159 4666 
L 4159 0 
L 3309 0 
L 1241 3903 
L 1241 0 
L 628 0 
L 628 4666 
z
" transform="scale(0.015625)"/>
     </defs>
     <use xlink:href="#DejaVuSans-26a0"/>
     <use xlink:href="#DejaVuSans-fe0f" x="89.648438"/>
     <use xlink:href="#DejaVuSans-20" x="89.648438"/>
     <use xlink:href="#DejaVuSans-4e" x="121.435547"/>
     <use xlink:href="#DejaVuSans-6f" x="196.240234"/>
     <use xlink:href="#DejaVuSans-6e" x="257.421875"/>
     <use xlink:href="#DejaVuSans-2d" x="320.800781"/>
     <use xlink:href="#DejaVuSans-6e" x="356.884766"/>
     <use xlink:href="#DejaVuSans-6f" x="420.263672"/>
     <use xlink:href="#DejaVuSans-72" x="481.445312"/>
     <use xlink:href="#DejaVuSans-6d" x="520.808594"/>
     <use xlink:href="#DejaVuSans-61" x="618.220703"/>
     <use xlink:href="#DejaVuSans-6c" x="679.5"/>
    </g>
    <!-- (α = 0.05) -->
    <g style="fill: #721c24" transform="translate(71.941563 92.232187) scale(0.09 -0.09)">
     <defs>
      <path id="DejaVuSans-28" d="M 1984 4856 
Q 1566 4138 1362 3434 
Q 1159 2731 1159 2009 
Q 1159 1288 1364 580 
Q 1569 -128 1984 -844 
L 1484 -844 
Q 1016 -109 783 600 
Q 550 1309 550 2009 
Q 550 2706 781 3412 
Q 1013 4119 1484 4856 
L 1984 4856 
z
" transform="scale(0.015625)"/>
      <path id="DejaVuSans-3b1" d="M 2644 1628 
L 2506 2350 
Q 2366 3091 1809 3091 
Q 1391 3091 1200 2747 
Q 959 2316 959 1747 
Q 959 1059 1194 731 
Q 1431 397 1809 397 
Q 2228 397 2453 1063 
L 2644 1628 
z
M 2966 2584 
L 3275 3500 
L 3788 3500 
L 3147 1603 
L 3272 919 
Q 3300 766 3409 638 
Q 3538 488 3638 488 
L 3913 488 
L 3913 0 
L 3569 0 
Q 3275 0 3013 263 
Q 2884 394 2831 669 
Q 2688 322 2394 50 
Q 2256 -78 1809 -78 
Q 1075 -78 719 397 
Q 353 888 353 1747 
Q 353 2666 750 3097 
Q 1191 3578 1809 3578 
Q 2781 3578 2966 2584 
z
" transform="scale(0.015625)"/>
      <path id="DejaVuSans-3d" d="M 678 2906 
L 4684 2906 
L 4684 2381 
L 678 2381 
L 678 2906 
z
M 678 1631 
L 4684 1631 
L 4684 1100 
L 678 1100 
L 678 1631 
z
" transform="scale(0.015625)"/>
      <path id="DejaVuSans-29" d="M 513 4856 
L 1013 4856 
Q 1481 4119 1714 3412 
Q 1947 2706 1947 2009 
Q 1947 1309 1714 600 
Q 1481 -109 1013 -844 
L 513 -844 
Q 928 -128 1133 580 
Q 1338 1288 1338 2009 
Q 1338 2731 1133 3434 
Q 928 4138 513 4856 
z
" transform="scale(0.015625)"/>
     </defs>
     <use xlink:href="#DejaVuSans-28"/>
     <use xlink:href="#DejaVuSans-3b1" x="39.013672"/>
     <use xlink:href="#DejaVuSans-20" x="104.931641"/>
     <use xlink:href="#DejaVuSans-3d" x="136.71875"/>
     <use xlink:href="#DejaVuSans-20" x="220.507812"/>
     <use xlink:href="#DejaVuSans-30" x="252.294922"/>
     <use xlink:href="#DejaVuSans-2e" x="315.917969"/>
     <use xlink:href="#DejaVuSans-30" x="347.705078"/>
     <use xlink:href="#DejaVuSans-35" x="411.328125"/>
     <use xlink:href="#DejaVuSans-29" x="474.951172"/>
    </g>
   </g>
   <g id="text_15">
    <!-- Q-Q Plot: API Calls (count) -->
    <g transform="translate(169.33375 16.318125) scale(0.12 -0.12)">
     <defs>
      <path id="DejaVuSans-50" d="M 1259 4147 
L 1259 2394 
L 2053 2394 
Q 2494 2394 2734 2622 
Q 2975 2850 2975 3272 
Q 2975 3691 2734 3919 
Q 2494 4147 2053 4147 
L 1259 4147 
z
M 628 4666 
L 2053 4666 
Q 2838 4666 3239 4311 
Q 3641 3956 3641 3272 
Q 3641 2581 3239 2228 
Q 2838 1875 2053 1875 
L 1259 1875 
L 1259 0 
L 628 0 
L 628 4666 
z
" transform="scale(0.015625)"/>
      <path id="DejaVuSans-3a" d="M 750 794 
L 1409 794 
L 1409 0 
L 750 0 
L 750 794 
z
M 750 3309 
L 1409 3309 
L 1409 2516 
L 750 2516 
L 750 3309 
z
" transform="scale(0.015625)"/>
      <path id="DejaVuSans-41" d="M 2188 4044 
L 1331 1722 
L 3047 1722 
L 2188 4044 
z
M 1831 4666 
L 2547 4666 
L 4325 0 
L 3669 0 
L 3244 1197 
L 1141 1197 
L 716 0 
L 50 0 
L 1831 4666 
z
" transform="scale(0.015625)"/>
      <path id="DejaVuSans-49" d="M 628 4666 
L 1259 4666 
L 1259 0 
L 628 0 
L 628 4666 
z
" transform="scale(0.015625)"/>
      <path id="DejaVuSans-43" d="M 4122 4306 
L 4122 3641 
Q 3803 3938 3442 4084 
Q 3081 4231 2675 4231 
Q 1875 4231 1450 3742 
Q 1025 3253 1025 2328 
Q 1025 1406 1450 917 
Q 1875 428 2675 428 
Q 3081 428 3442 575 
Q 3803 722 4122 1019 
L 4122 359 
Q 3791 134 3420 21 
Q 3050 -91 2638 -91 
Q 1578 -91 968 557 
Q 359 1206 359 2328 
Q 359 3453 968 4101 
Q 1578 4750 2638 4750 
Q 3056 4750 3426 4639 
Q 3797 4528 4122 4306 
z
" transform="scale(0.015625)"/>
     </defs>
     <use xlink:href="#DejaVuSans-51"/>
     <use xlink:href="#DejaVuSans-2d" x="81.460938"/>
     <use xlink:href="#DejaVuSans-51" x="121.169922"/>
     <use xlink:href="#DejaVuSans-20" x="199.880859"/>
     <use xlink:href="#DejaVuSans-50" x="231.667969"/>
     <use xlink:href="#DejaVuSans-6c" x="291.970703"/>
     <use xlink:href="#DejaVuSans-6f" x="319.753906"/>
     <use xlink:href="#DejaVuSans-74" x="380.935547"/>
     <use xlink:href="#DejaVuSans-3a" x="420.144531"/>
     <use xlink:href="#DejaVuSans-20" x="453.835938"/>
     <use xlink:href="#DejaVuSans-41" x="485.623047"/>
     <use xlink:href="#DejaVuSans-50" x="554.03125"/>
     <use xlink:href="#DejaVuSans-49" x="614.333984"/>
     <use xlink:href="#DejaVuSans-20" x="643.826172"/>
     <use xlink:href="#DejaVuSans-43" x="675.613281"/>
     <use xlink:href="#DejaVuSans-61" x="745.4375"/>
     <use xlink:href="#DejaVuSans-6c" x="806.716797"/>
     <use xlink:href="#DejaVuSans-6c" x="834.5"/>
     <use xlink:href="#DejaVuSans-73" x="862.283203"/>
     <use xlink:href="#DejaVuSans-20" x="914.382812"/>
     <use xlink:href="#DejaVuSans-28" x="946.169922"/>
     <use xlink:href="#DejaVuSans-63" x="985.183594"/>
     <use xlink:href="#DejaVuSans-6f" x="1040.164062"/>
     <use xlink:href="#DejaVuSans-75" x="1101.345703"/>
     <use xlink:href="#DejaVuSans-6e" x="1164.724609"/>
     <use xlink:href="#DejaVuSans-74" x="1228.103516"/>
     <use xlink:href="#DejaVuSans-29" x="1267.3125"/>
    </g>
    <!-- Framework: baes -->
    <g transform="translate(196.265313 29.7555) scale(0.12 -0.12)">
     <defs>
      <path id="DejaVuSans-46" d="M 628 4666 
L 3309 4666 
L 3309 4134 
L 1259 4134 
L 1259 2759 
L 3109 2759 
L 3109 2228 
L 1259 2228 
L 1259 0 
L 628 0 
L 628 4666 
z
" transform="scale(0.015625)"/>
      <path id="DejaVuSans-77" d="M 269 3500 
L 844 3500 
L 1563 769 
L 2278 3500 
L 2956 3500 
L 3675 769 
L 4391 3500 
L 4966 3500 
L 4050 0 
L 3372 0 
L 2619 2869 
L 1863 0 
L 1184 0 
L 269 3500 
z
" transform="scale(0.015625)"/>
      <path id="DejaVuSans-62" d="M 3116 1747 
Q 3116 2381 2855 2742 
Q 2594 3103 2138 3103 
Q 1681 3103 1420 2742 
Q 1159 2381 1159 1747 
Q 1159 1113 1420 752 
Q 1681 391 2138 391 
Q 2594 391 2855 752 
Q 3116 1113 3116 1747 
z
M 1159 2969 
Q 1341 3281 1617 3432 
Q 1894 3584 2278 3584 
Q 2916 3584 3314 3078 
Q 3713 2572 3713 1747 
Q 3713 922 3314 415 
Q 2916 -91 2278 -91 
Q 1894 -91 1617 61 
Q 1341 213 1159 525 
L 1159 0 
L 581 0 
L 581 4863 
L 1159 4863 
L 1159 2969 
z
" transform="scale(0.015625)"/>
     </defs>
     <use xlink:href="#DejaVuSans-46"/>
     <use xlink:href="#DejaVuSans-72" x="50.269531"/>
     <use xlink:href="#DejaVuSans-61" x="91.382812"/>
     <use xlink:href="#DejaVuSans-6d" x="152.662109"/>
     <use xlink:href="#DejaVuSans-65" x="250.074219"/>
     <use xlink:href="#DejaVuSans-77" x="311.597656"/>
     <use xlink:href="#DejaVuSans-6f" x="393.384766"/>
     <use xlink:href="#DejaVuSans-72" x="454.566406"/>
     <use xlink:href="#DejaVuSans-6b" x="495.679688"/>
     <use xlink:href="#DejaVuSans-3a" x="553.589844"/>
     <use xlink:href="#DejaVuSans-20" x="587.28125"/>
     <use xlink:href="#DejaVuSans-62" x="619.068359"/>
     <use xlink:href="#DejaVuSans-61" x="682.544922"/>
     <use xlink:href="#DejaVuSans-65" x="743.824219"/>
     <use xlink:href="#DejaVuSans-73" x="805.347656"/>
    </g>
   </g>
  </g>
 </g>
 <defs>
  <clipPath id="p04ccaf1729">
   <rect x="52.411563" y="35.7555" width="390.6" height="388.08"/>
  </clipPath>
 </defs>
</svg>
