<?xml version="1.0" encoding="utf-8" standalone="no"?>
<!DOCTYPE svg PUBLIC "-//W3C//DTD SVG 1.1//EN"
  "http://www.w3.org/Graphics/SVG/1.1/DTD/svg11.dtd">
<svg xmlns:xlink="http://www.w3.org/1999/xlink" width="453.395937pt" height="463.659562pt" viewBox="0 0 453.395937 463.659562" xmlns="http://www.w3.org/2000/svg" version="1.1">
 <metadata>
  <rdf:RDF xmlns:dc="http://purl.org/dc/elements/1.1/" xmlns:cc="http://creativecommons.org/ns#" xmlns:rdf="http://www.w3.org/1999/02/22-rdf-syntax-ns#">
   <cc:Work>
    <dc:type rdf:resource="http://purl.org/dc/dcmitype/StillImage"/>
    <dc:date>2025-11-03T08:29:22.650833</dc:date>
    <dc:format>image/svg+xml</dc:format>
    <dc:creator>
     <cc:Agent>
      <dc:title>Matplotlib v3.8.0, https://matplotlib.org/</dc:title>
     </cc:Agent>
    </dc:creator>
   </cc:Work>
  </rdf:RDF>
 </metadata>
 <defs>
  <style type="text/css">*{stroke-linejoin: round; stroke-linecap: butt}</style>
 </defs>
 <g id="figure_1">
  <g id="patch_1">
   <path d="M 0 463.659562 
L 453.395937 463.659562 
L 453.395937 0 
L 0 0 
z
" style="fill: #ffffff"/>
  </g>
  <g id="axes_1">
   <g id="patch_2">
    <path d="M 55.595938 423.8355 
L 446.195938 423.8355 
L 446.195938 35.7555 
L 55.595938 35.7555 
z
" style="fill: #ffffff"/>
   </g>
   <g id="matplotlib.axis_1">
    <g id="xtick_1">
     <g id="line2d_1">
      <path d="M 106.669515 423.8355 
L 106.669515 35.7555 
" clip-path="url(#pd95900e973)" style="fill: none; stroke: #b0b0b0; stroke-opacity: 0.3; stroke-width: 0.8; stroke-linecap: square"/>
     </g>
     <g id="line2d_2">
      <defs>
       <path id="m5328aa943f" d="M 0 0 
L 0 4.8 
" style="stroke: #000000"/>
      </defs>
      <g>
       <use xlink:href="#m5328aa943f" x="106.669515" y="423.8355" style="stroke: #000000"/>
      </g>
     </g>
     <g id="text_1">
      <!-- −2 -->
      <g transform="translate(99.298421 439.733937) scale(0.1 -0.1)">
       <defs>
        <path id="DejaVuSans-2212" d="M 678 2272 
L 4684 2272 
L 4684 1741 
L 678 1741 
L 678 2272 
z
" transform="scale(0.015625)"/>
        <path id="DejaVuSans-32" d="M 1228 531 
L 3431 531 
L 3431 0 
L 469 0 
L 469 531 
Q 828 903 1448 1529 
Q 2069 2156 2228 2338 
Q 2531 2678 2651 2914 
Q 2772 3150 2772 3378 
Q 2772 3750 2511 3984 
Q 2250 4219 1831 4219 
Q 1534 4219 1204 4116 
Q 875 4013 500 3803 
L 500 4441 
Q 881 4594 1212 4672 
Q 1544 4750 1819 4750 
Q 2544 4750 2975 4387 
Q 3406 4025 3406 3419 
Q 3406 3131 3298 2873 
Q 3191 2616 2906 2266 
Q 2828 2175 2409 1742 
Q 1991 1309 1228 531 
z
" transform="scale(0.015625)"/>
       </defs>
       <use xlink:href="#DejaVuSans-2212"/>
       <use xlink:href="#DejaVuSans-32" x="83.789062"/>
      </g>
     </g>
    </g>
    <g id="xtick_2">
     <g id="line2d_3">
      <path d="M 178.782726 423.8355 
L 178.782726 35.7555 
" clip-path="url(#pd95900e973)" style="fill: none; stroke: #b0b0b0; stroke-opacity: 0.3; stroke-width: 0.8; stroke-linecap: square"/>
     </g>
     <g id="line2d_4">
      <g>
       <use xlink:href="#m5328aa943f" x="178.782726" y="423.8355" style="stroke: #000000"/>
      </g>
     </g>
     <g id="text_2">
      <!-- −1 -->
      <g transform="translate(171.411633 439.733937) scale(0.1 -0.1)">
       <defs>
        <path id="DejaVuSans-31" d="M 794 531 
L 1825 531 
L 1825 4091 
L 703 3866 
L 703 4441 
L 1819 4666 
L 2450 4666 
L 2450 531 
L 3481 531 
L 3481 0 
L 794 0 
L 794 531 
z
" transform="scale(0.015625)"/>
       </defs>
       <use xlink:href="#DejaVuSans-2212"/>
       <use xlink:href="#DejaVuSans-31" x="83.789062"/>
      </g>
     </g>
    </g>
    <g id="xtick_3">
     <g id="line2d_5">
      <path d="M 250.895938 423.8355 
L 250.895938 35.7555 
" clip-path="url(#pd95900e973)" style="fill: none; stroke: #b0b0b0; stroke-opacity: 0.3; stroke-width: 0.8; stroke-linecap: square"/>
     </g>
     <g id="line2d_6">
      <g>
       <use xlink:href="#m5328aa943f" x="250.895938" y="423.8355" style="stroke: #000000"/>
      </g>
     </g>
     <g id="text_3">
      <!-- 0 -->
      <g transform="translate(247.714687 439.733937) scale(0.1 -0.1)">
       <defs>
        <path id="DejaVuSans-30" d="M 2034 4250 
Q 1547 4250 1301 3770 
Q 1056 3291 1056 2328 
Q 1056 1369 1301 889 
Q 1547 409 2034 409 
Q 2525 409 2770 889 
Q 3016 1369 3016 2328 
Q 3016 3291 2770 3770 
Q 2525 4250 2034 4250 
z
M 2034 4750 
Q 2819 4750 3233 4129 
Q 3647 3509 3647 2328 
Q 3647 1150 3233 529 
Q 2819 -91 2034 -91 
Q 1250 -91 836 529 
Q 422 1150 422 2328 
Q 422 3509 836 4129 
Q 1250 4750 2034 4750 
z
" transform="scale(0.015625)"/>
       </defs>
       <use xlink:href="#DejaVuSans-30"/>
      </g>
     </g>
    </g>
    <g id="xtick_4">
     <g id="line2d_7">
      <path d="M 323.009149 423.8355 
L 323.009149 35.7555 
" clip-path="url(#pd95900e973)" style="fill: none; stroke: #b0b0b0; stroke-opacity: 0.3; stroke-width: 0.8; stroke-linecap: square"/>
     </g>
     <g id="line2d_8">
      <g>
       <use xlink:href="#m5328aa943f" x="323.009149" y="423.8355" style="stroke: #000000"/>
      </g>
     </g>
     <g id="text_4">
      <!-- 1 -->
      <g transform="translate(319.827899 439.733937) scale(0.1 -0.1)">
       <use xlink:href="#DejaVuSans-31"/>
      </g>
     </g>
    </g>
    <g id="xtick_5">
     <g id="line2d_9">
      <path d="M 395.12236 423.8355 
L 395.12236 35.7555 
" clip-path="url(#pd95900e973)" style="fill: none; stroke: #b0b0b0; stroke-opacity: 0.3; stroke-width: 0.8; stroke-linecap: square"/>
     </g>
     <g id="line2d_10">
      <g>
       <use xlink:href="#m5328aa943f" x="395.12236" y="423.8355" style="stroke: #000000"/>
      </g>
     </g>
     <g id="text_5">
      <!-- 2 -->
      <g transform="translate(391.94111 439.733937) scale(0.1 -0.1)">
       <use xlink:href="#DejaVuSans-32"/>
      </g>
     </g>
    </g>
    <g id="text_6">
     <!-- Theoretical Quantiles -->
     <g transform="translate(192.292578 454.171906) scale(0.11 -0.11)">
      <defs>
       <path id="DejaVuSans-54" d="M -19 4666 
L 3928 4666 
L 3928 4134 
L 2272 4134 
L 2272 0 
L 1638 0 
L 1638 4134 
L -19 4134 
L -19 4666 
z
" transform="scale(0.015625)"/>
       <path id="DejaVuSans-68" d="M 3513 2113 
L 3513 0 
L 2938 0 
L 2938 2094 
Q 2938 2591 2744 2837 
Q 2550 3084 2163 3084 
Q 1697 3084 1428 2787 
Q 1159 2491 1159 1978 
L 1159 0 
L 581 0 
L 581 4863 
L 1159 4863 
L 1159 2956 
Q 1366 3272 1645 3428 
Q 1925 3584 2291 3584 
Q 2894 3584 3203 3211 
Q 3513 2838 3513 2113 
z
" transform="scale(0.015625)"/>
       <path id="DejaVuSans-65" d="M 3597 1894 
L 3597 1613 
L 953 1613 
Q 991 1019 1311 708 
Q 1631 397 2203 397 
Q 2534 397 2845 478 
Q 3156 559 3463 722 
L 3463 178 
Q 3153 47 2828 -22 
Q 2503 -91 2169 -91 
Q 1331 -91 842 396 
Q 353 884 353 1716 
Q 353 2575 817 3079 
Q 1281 3584 2069 3584 
Q 2775 3584 3186 3129 
Q 3597 2675 3597 1894 
z
M 3022 2063 
Q 3016 2534 2758 2815 
Q 2500 3097 2075 3097 
Q 1594 3097 1305 2825 
Q 1016 2553 972 2059 
L 3022 2063 
z
" transform="scale(0.015625)"/>
       <path id="DejaVuSans-6f" d="M 1959 3097 
Q 1497 3097 1228 2736 
Q 959 2375 959 1747 
Q 959 1119 1226 758 
Q 1494 397 1959 397 
Q 2419 397 2687 759 
Q 2956 1122 2956 1747 
Q 2956 2369 2687 2733 
Q 2419 3097 1959 3097 
z
M 1959 3584 
Q 2709 3584 3137 3096 
Q 3566 2609 3566 1747 
Q 3566 888 3137 398 
Q 2709 -91 1959 -91 
Q 1206 -91 779 398 
Q 353 888 353 1747 
Q 353 2609 779 3096 
Q 1206 3584 1959 3584 
z
" transform="scale(0.015625)"/>
       <path id="DejaVuSans-72" d="M 2631 2963 
Q 2534 3019 2420 3045 
Q 2306 3072 2169 3072 
Q 1681 3072 1420 2755 
Q 1159 2438 1159 1844 
L 1159 0 
L 581 0 
L 581 3500 
L 1159 3500 
L 1159 2956 
Q 1341 3275 1631 3429 
Q 1922 3584 2338 3584 
Q 2397 3584 2469 3576 
Q 2541 3569 2628 3553 
L 2631 2963 
z
" transform="scale(0.015625)"/>
       <path id="DejaVuSans-74" d="M 1172 4494 
L 1172 3500 
L 2356 3500 
L 2356 3053 
L 1172 3053 
L 1172 1153 
Q 1172 725 1289 603 
Q 1406 481 1766 481 
L 2356 481 
L 2356 0 
L 1766 0 
Q 1100 0 847 248 
Q 594 497 594 1153 
L 594 3053 
L 172 3053 
L 172 3500 
L 594 3500 
L 594 4494 
L 1172 4494 
z
" transform="scale(0.015625)"/>
       <path id="DejaVuSans-69" d="M 603 3500 
L 1178 3500 
L 1178 0 
L 603 0 
L 603 3500 
z
M 603 4863 
L 1178 4863 
L 1178 4134 
L 603 4134 
L 603 4863 
z
" transform="scale(0.015625)"/>
       <path id="DejaVuSans-63" d="M 3122 3366 
L 3122 2828 
Q 2878 2963 2633 3030 
Q 2388 3097 2138 3097 
Q 1578 3097 1268 2742 
Q 959 2388 959 1747 
Q 959 1106 1268 751 
Q 1578 397 2138 397 
Q 2388 397 2633 464 
Q 2878 531 3122 666 
L 3122 134 
Q 2881 22 2623 -34 
Q 2366 -91 2075 -91 
Q 1284 -91 818 406 
Q 353 903 353 1747 
Q 353 2603 823 3093 
Q 1294 3584 2113 3584 
Q 2378 3584 2631 3529 
Q 2884 3475 3122 3366 
z
" transform="scale(0.015625)"/>
       <path id="DejaVuSans-61" d="M 2194 1759 
Q 1497 1759 1228 1600 
Q 959 1441 959 1056 
Q 959 750 1161 570 
Q 1363 391 1709 391 
Q 2188 391 2477 730 
Q 2766 1069 2766 1631 
L 2766 1759 
L 2194 1759 
z
M 3341 1997 
L 3341 0 
L 2766 0 
L 2766 531 
Q 2569 213 2275 61 
Q 1981 -91 1556 -91 
Q 1019 -91 701 211 
Q 384 513 384 1019 
Q 384 1609 779 1909 
Q 1175 2209 1959 2209 
L 2766 2209 
L 2766 2266 
Q 2766 2663 2505 2880 
Q 2244 3097 1772 3097 
Q 1472 3097 1187 3025 
Q 903 2953 641 2809 
L 641 3341 
Q 956 3463 1253 3523 
Q 1550 3584 1831 3584 
Q 2591 3584 2966 3190 
Q 3341 2797 3341 1997 
z
" transform="scale(0.015625)"/>
       <path id="DejaVuSans-6c" d="M 603 4863 
L 1178 4863 
L 1178 0 
L 603 0 
L 603 4863 
z
" transform="scale(0.015625)"/>
       <path id="DejaVuSans-20" transform="scale(0.015625)"/>
       <path id="DejaVuSans-51" d="M 2522 4238 
Q 1834 4238 1429 3725 
Q 1025 3213 1025 2328 
Q 1025 1447 1429 934 
Q 1834 422 2522 422 
Q 3209 422 3611 934 
Q 4013 1447 4013 2328 
Q 4013 3213 3611 3725 
Q 3209 4238 2522 4238 
z
M 3406 84 
L 4238 -825 
L 3475 -825 
L 2784 -78 
Q 2681 -84 2626 -87 
Q 2572 -91 2522 -91 
Q 1538 -91 948 567 
Q 359 1225 359 2328 
Q 359 3434 948 4092 
Q 1538 4750 2522 4750 
Q 3503 4750 4090 4092 
Q 4678 3434 4678 2328 
Q 4678 1516 4351 937 
Q 4025 359 3406 84 
z
" transform="scale(0.015625)"/>
       <path id="DejaVuSans-75" d="M 544 1381 
L 544 3500 
L 1119 3500 
L 1119 1403 
Q 1119 906 1312 657 
Q 1506 409 1894 409 
Q 2359 409 2629 706 
Q 2900 1003 2900 1516 
L 2900 3500 
L 3475 3500 
L 3475 0 
L 2900 0 
L 2900 538 
Q 2691 219 2414 64 
Q 2138 -91 1772 -91 
Q 1169 -91 856 284 
Q 544 659 544 1381 
z
M 1991 3584 
L 1991 3584 
z
" transform="scale(0.015625)"/>
       <path id="DejaVuSans-6e" d="M 3513 2113 
L 3513 0 
L 2938 0 
L 2938 2094 
Q 2938 2591 2744 2837 
Q 2550 3084 2163 3084 
Q 1697 3084 1428 2787 
Q 1159 2491 1159 1978 
L 1159 0 
L 581 0 
L 581 3500 
L 1159 3500 
L 1159 2956 
Q 1366 3272 1645 3428 
Q 1925 3584 2291 3584 
Q 2894 3584 3203 3211 
Q 3513 2838 3513 2113 
z
" transform="scale(0.015625)"/>
       <path id="DejaVuSans-73" d="M 2834 3397 
L 2834 2853 
Q 2591 2978 2328 3040 
Q 2066 3103 1784 3103 
Q 1356 3103 1142 2972 
Q 928 2841 928 2578 
Q 928 2378 1081 2264 
Q 1234 2150 1697 2047 
L 1894 2003 
Q 2506 1872 2764 1633 
Q 3022 1394 3022 966 
Q 3022 478 2636 193 
Q 2250 -91 1575 -91 
Q 1294 -91 989 -36 
Q 684 19 347 128 
L 347 722 
Q 666 556 975 473 
Q 1284 391 1588 391 
Q 1994 391 2212 530 
Q 2431 669 2431 922 
Q 2431 1156 2273 1281 
Q 2116 1406 1581 1522 
L 1381 1569 
Q 847 1681 609 1914 
Q 372 2147 372 2553 
Q 372 3047 722 3315 
Q 1072 3584 1716 3584 
Q 2034 3584 2315 3537 
Q 2597 3491 2834 3397 
z
" transform="scale(0.015625)"/>
      </defs>
      <use xlink:href="#DejaVuSans-54"/>
      <use xlink:href="#DejaVuSans-68" x="61.083984"/>
      <use xlink:href="#DejaVuSans-65" x="124.462891"/>
      <use xlink:href="#DejaVuSans-6f" x="185.986328"/>
      <use xlink:href="#DejaVuSans-72" x="247.167969"/>
      <use xlink:href="#DejaVuSans-65" x="286.03125"/>
      <use xlink:href="#DejaVuSans-74" x="347.554688"/>
      <use xlink:href="#DejaVuSans-69" x="386.763672"/>
      <use xlink:href="#DejaVuSans-63" x="414.546875"/>
      <use xlink:href="#DejaVuSans-61" x="469.527344"/>
      <use xlink:href="#DejaVuSans-6c" x="530.806641"/>
      <use xlink:href="#DejaVuSans-20" x="558.589844"/>
      <use xlink:href="#DejaVuSans-51" x="590.376953"/>
      <use xlink:href="#DejaVuSans-75" x="669.087891"/>
      <use xlink:href="#DejaVuSans-61" x="732.466797"/>
      <use xlink:href="#DejaVuSans-6e" x="793.746094"/>
      <use xlink:href="#DejaVuSans-74" x="857.125"/>
      <use xlink:href="#DejaVuSans-69" x="896.333984"/>
      <use xlink:href="#DejaVuSans-6c" x="924.117188"/>
      <use xlink:href="#DejaVuSans-65" x="951.900391"/>
      <use xlink:href="#DejaVuSans-73" x="1013.423828"/>
     </g>
    </g>
   </g>
   <g id="matplotlib.axis_2">
    <g id="ytick_1">
     <g id="line2d_11">
      <path d="M 55.595938 385.9173 
L 446.195938 385.9173 
" clip-path="url(#pd95900e973)" style="fill: none; stroke: #b0b0b0; stroke-opacity: 0.3; stroke-width: 0.8; stroke-linecap: square"/>
     </g>
     <g id="line2d_12">
      <defs>
       <path id="m89477f2f2a" d="M 0 0 
L -4.8 0 
" style="stroke: #000000"/>
      </defs>
      <g>
       <use xlink:href="#m89477f2f2a" x="55.595938" y="385.9173" style="stroke: #000000"/>
      </g>
     </g>
     <g id="text_7">
      <!-- 600 -->
      <g transform="translate(28.208438 389.716519) scale(0.1 -0.1)">
       <defs>
        <path id="DejaVuSans-36" d="M 2113 2584 
Q 1688 2584 1439 2293 
Q 1191 2003 1191 1497 
Q 1191 994 1439 701 
Q 1688 409 2113 409 
Q 2538 409 2786 701 
Q 3034 994 3034 1497 
Q 3034 2003 2786 2293 
Q 2538 2584 2113 2584 
z
M 3366 4563 
L 3366 3988 
Q 3128 4100 2886 4159 
Q 2644 4219 2406 4219 
Q 1781 4219 1451 3797 
Q 1122 3375 1075 2522 
Q 1259 2794 1537 2939 
Q 1816 3084 2150 3084 
Q 2853 3084 3261 2657 
Q 3669 2231 3669 1497 
Q 3669 778 3244 343 
Q 2819 -91 2113 -91 
Q 1303 -91 875 529 
Q 447 1150 447 2328 
Q 447 3434 972 4092 
Q 1497 4750 2381 4750 
Q 2619 4750 2861 4703 
Q 3103 4656 3366 4563 
z
" transform="scale(0.015625)"/>
       </defs>
       <use xlink:href="#DejaVuSans-36"/>
       <use xlink:href="#DejaVuSans-30" x="63.623047"/>
       <use xlink:href="#DejaVuSans-30" x="127.246094"/>
      </g>
     </g>
    </g>
    <g id="ytick_2">
     <g id="line2d_13">
      <path d="M 55.595938 306.800482 
L 446.195938 306.800482 
" clip-path="url(#pd95900e973)" style="fill: none; stroke: #b0b0b0; stroke-opacity: 0.3; stroke-width: 0.8; stroke-linecap: square"/>
     </g>
     <g id="line2d_14">
      <g>
       <use xlink:href="#m89477f2f2a" x="55.595938" y="306.800482" style="stroke: #000000"/>
      </g>
     </g>
     <g id="text_8">
      <!-- 800 -->
      <g transform="translate(28.208438 310.599701) scale(0.1 -0.1)">
       <defs>
        <path id="DejaVuSans-38" d="M 2034 2216 
Q 1584 2216 1326 1975 
Q 1069 1734 1069 1313 
Q 1069 891 1326 650 
Q 1584 409 2034 409 
Q 2484 409 2743 651 
Q 3003 894 3003 1313 
Q 3003 1734 2745 1975 
Q 2488 2216 2034 2216 
z
M 1403 2484 
Q 997 2584 770 2862 
Q 544 3141 544 3541 
Q 544 4100 942 4425 
Q 1341 4750 2034 4750 
Q 2731 4750 3128 4425 
Q 3525 4100 3525 3541 
Q 3525 3141 3298 2862 
Q 3072 2584 2669 2484 
Q 3125 2378 3379 2068 
Q 3634 1759 3634 1313 
Q 3634 634 3220 271 
Q 2806 -91 2034 -91 
Q 1263 -91 848 271 
Q 434 634 434 1313 
Q 434 1759 690 2068 
Q 947 2378 1403 2484 
z
M 1172 3481 
Q 1172 3119 1398 2916 
Q 1625 2713 2034 2713 
Q 2441 2713 2670 2916 
Q 2900 3119 2900 3481 
Q 2900 3844 2670 4047 
Q 2441 4250 2034 4250 
Q 1625 4250 1398 4047 
Q 1172 3844 1172 3481 
z
" transform="scale(0.015625)"/>
       </defs>
       <use xlink:href="#DejaVuSans-38"/>
       <use xlink:href="#DejaVuSans-30" x="63.623047"/>
       <use xlink:href="#DejaVuSans-30" x="127.246094"/>
      </g>
     </g>
    </g>
    <g id="ytick_3">
     <g id="line2d_15">
      <path d="M 55.595938 227.683664 
L 446.195938 227.683664 
" clip-path="url(#pd95900e973)" style="fill: none; stroke: #b0b0b0; stroke-opacity: 0.3; stroke-width: 0.8; stroke-linecap: square"/>
     </g>
     <g id="line2d_16">
      <g>
       <use xlink:href="#m89477f2f2a" x="55.595938" y="227.683664" style="stroke: #000000"/>
      </g>
     </g>
     <g id="text_9">
      <!-- 1000 -->
      <g transform="translate(21.845938 231.482883) scale(0.1 -0.1)">
       <use xlink:href="#DejaVuSans-31"/>
       <use xlink:href="#DejaVuSans-30" x="63.623047"/>
       <use xlink:href="#DejaVuSans-30" x="127.246094"/>
       <use xlink:href="#DejaVuSans-30" x="190.869141"/>
      </g>
     </g>
    </g>
    <g id="ytick_4">
     <g id="line2d_17">
      <path d="M 55.595938 148.566846 
L 446.195938 148.566846 
" clip-path="url(#pd95900e973)" style="fill: none; stroke: #b0b0b0; stroke-opacity: 0.3; stroke-width: 0.8; stroke-linecap: square"/>
     </g>
     <g id="line2d_18">
      <g>
       <use xlink:href="#m89477f2f2a" x="55.595938" y="148.566846" style="stroke: #000000"/>
      </g>
     </g>
     <g id="text_10">
      <!-- 1200 -->
      <g transform="translate(21.845938 152.366065) scale(0.1 -0.1)">
       <use xlink:href="#DejaVuSans-31"/>
       <use xlink:href="#DejaVuSans-32" x="63.623047"/>
       <use xlink:href="#DejaVuSans-30" x="127.246094"/>
       <use xlink:href="#DejaVuSans-30" x="190.869141"/>
      </g>
     </g>
    </g>
    <g id="ytick_5">
     <g id="line2d_19">
      <path d="M 55.595938 69.450028 
L 446.195938 69.450028 
" clip-path="url(#pd95900e973)" style="fill: none; stroke: #b0b0b0; stroke-opacity: 0.3; stroke-width: 0.8; stroke-linecap: square"/>
     </g>
     <g id="line2d_20">
      <g>
       <use xlink:href="#m89477f2f2a" x="55.595938" y="69.450028" style="stroke: #000000"/>
      </g>
     </g>
     <g id="text_11">
      <!-- 1400 -->
      <g transform="translate(21.845938 73.249246) scale(0.1 -0.1)">
       <defs>
        <path id="DejaVuSans-34" d="M 2419 4116 
L 825 1625 
L 2419 1625 
L 2419 4116 
z
M 2253 4666 
L 3047 4666 
L 3047 1625 
L 3713 1625 
L 3713 1100 
L 3047 1100 
L 3047 0 
L 2419 0 
L 2419 1100 
L 313 1100 
L 313 1709 
L 2253 4666 
z
" transform="scale(0.015625)"/>
       </defs>
       <use xlink:href="#DejaVuSans-31"/>
       <use xlink:href="#DejaVuSans-34" x="63.623047"/>
       <use xlink:href="#DejaVuSans-30" x="127.246094"/>
       <use xlink:href="#DejaVuSans-30" x="190.869141"/>
      </g>
     </g>
    </g>
    <g id="text_12">
     <!-- Sample Quantiles -->
     <g transform="translate(15.558281 278.299484) rotate(-90) scale(0.11 -0.11)">
      <defs>
       <path id="DejaVuSans-53" d="M 3425 4513 
L 3425 3897 
Q 3066 4069 2747 4153 
Q 2428 4238 2131 4238 
Q 1616 4238 1336 4038 
Q 1056 3838 1056 3469 
Q 1056 3159 1242 3001 
Q 1428 2844 1947 2747 
L 2328 2669 
Q 3034 2534 3370 2195 
Q 3706 1856 3706 1288 
Q 3706 609 3251 259 
Q 2797 -91 1919 -91 
Q 1588 -91 1214 -16 
Q 841 59 441 206 
L 441 856 
Q 825 641 1194 531 
Q 1563 422 1919 422 
Q 2459 422 2753 634 
Q 3047 847 3047 1241 
Q 3047 1584 2836 1778 
Q 2625 1972 2144 2069 
L 1759 2144 
Q 1053 2284 737 2584 
Q 422 2884 422 3419 
Q 422 4038 858 4394 
Q 1294 4750 2059 4750 
Q 2388 4750 2728 4690 
Q 3069 4631 3425 4513 
z
" transform="scale(0.015625)"/>
       <path id="DejaVuSans-6d" d="M 3328 2828 
Q 3544 3216 3844 3400 
Q 4144 3584 4550 3584 
Q 5097 3584 5394 3201 
Q 5691 2819 5691 2113 
L 5691 0 
L 5113 0 
L 5113 2094 
Q 5113 2597 4934 2840 
Q 4756 3084 4391 3084 
Q 3944 3084 3684 2787 
Q 3425 2491 3425 1978 
L 3425 0 
L 2847 0 
L 2847 2094 
Q 2847 2600 2669 2842 
Q 2491 3084 2119 3084 
Q 1678 3084 1418 2786 
Q 1159 2488 1159 1978 
L 1159 0 
L 581 0 
L 581 3500 
L 1159 3500 
L 1159 2956 
Q 1356 3278 1631 3431 
Q 1906 3584 2284 3584 
Q 2666 3584 2933 3390 
Q 3200 3197 3328 2828 
z
" transform="scale(0.015625)"/>
       <path id="DejaVuSans-70" d="M 1159 525 
L 1159 -1331 
L 581 -1331 
L 581 3500 
L 1159 3500 
L 1159 2969 
Q 1341 3281 1617 3432 
Q 1894 3584 2278 3584 
Q 2916 3584 3314 3078 
Q 3713 2572 3713 1747 
Q 3713 922 3314 415 
Q 2916 -91 2278 -91 
Q 1894 -91 1617 61 
Q 1341 213 1159 525 
z
M 3116 1747 
Q 3116 2381 2855 2742 
Q 2594 3103 2138 3103 
Q 1681 3103 1420 2742 
Q 1159 2381 1159 1747 
Q 1159 1113 1420 752 
Q 1681 391 2138 391 
Q 2594 391 2855 752 
Q 3116 1113 3116 1747 
z
" transform="scale(0.015625)"/>
      </defs>
      <use xlink:href="#DejaVuSans-53"/>
      <use xlink:href="#DejaVuSans-61" x="63.476562"/>
      <use xlink:href="#DejaVuSans-6d" x="124.755859"/>
      <use xlink:href="#DejaVuSans-70" x="222.167969"/>
      <use xlink:href="#DejaVuSans-6c" x="285.644531"/>
      <use xlink:href="#DejaVuSans-65" x="313.427734"/>
      <use xlink:href="#DejaVuSans-20" x="374.951172"/>
      <use xlink:href="#DejaVuSans-51" x="406.738281"/>
      <use xlink:href="#DejaVuSans-75" x="485.449219"/>
      <use xlink:href="#DejaVuSans-61" x="548.828125"/>
      <use xlink:href="#DejaVuSans-6e" x="610.107422"/>
      <use xlink:href="#DejaVuSans-74" x="673.486328"/>
      <use xlink:href="#DejaVuSans-69" x="712.695312"/>
      <use xlink:href="#DejaVuSans-6c" x="740.478516"/>
      <use xlink:href="#DejaVuSans-65" x="768.261719"/>
      <use xlink:href="#DejaVuSans-73" x="829.785156"/>
     </g>
    </g>
   </g>
   <g id="line2d_21">
    <defs>
     <path id="m4c5a7cc0a1" d="M 0 3.5 
C 0.928211 3.5 1.81853 3.131218 2.474874 2.474874 
C 3.131218 1.81853 3.5 0.928211 3.5 0 
C 3.5 -0.928211 3.131218 -1.81853 2.474874 -2.474874 
C 1.81853 -3.131218 0.928211 -3.5 0 -3.5 
C -0.928211 -3.5 -1.81853 -3.131218 -2.474874 -2.474874 
C -3.131218 -1.81853 -3.5 -0.928211 -3.5 0 
C -3.5 0.928211 -3.131218 1.81853 -2.474874 2.474874 
C -1.81853 3.131218 -0.928211 3.5 0 3.5 
z
" style="stroke: #0000ff; stroke-opacity: 0.7"/>
    </defs>
    <g clip-path="url(#pd95900e973)">
     <use xlink:href="#m4c5a7cc0a1" x="73.350483" y="396.931677" style="fill: #0000ff; fill-opacity: 0.7; stroke: #0000ff; stroke-opacity: 0.7"/>
     <use xlink:href="#m4c5a7cc0a1" x="97.604345" y="388.830845" style="fill: #0000ff; fill-opacity: 0.7; stroke: #0000ff; stroke-opacity: 0.7"/>
     <use xlink:href="#m4c5a7cc0a1" x="111.628901" y="378.852932" style="fill: #0000ff; fill-opacity: 0.7; stroke: #0000ff; stroke-opacity: 0.7"/>
     <use xlink:href="#m4c5a7cc0a1" x="121.781088" y="368.342415" style="fill: #0000ff; fill-opacity: 0.7; stroke: #0000ff; stroke-opacity: 0.7"/>
     <use xlink:href="#m4c5a7cc0a1" x="129.876049" y="356.096314" style="fill: #0000ff; fill-opacity: 0.7; stroke: #0000ff; stroke-opacity: 0.7"/>
     <use xlink:href="#m4c5a7cc0a1" x="136.682225" y="355.475317" style="fill: #0000ff; fill-opacity: 0.7; stroke: #0000ff; stroke-opacity: 0.7"/>
     <use xlink:href="#m4c5a7cc0a1" x="142.600555" y="352.803395" style="fill: #0000ff; fill-opacity: 0.7; stroke: #0000ff; stroke-opacity: 0.7"/>
     <use xlink:href="#m4c5a7cc0a1" x="147.867978" y="352.449117" style="fill: #0000ff; fill-opacity: 0.7; stroke: #0000ff; stroke-opacity: 0.7"/>
     <use xlink:href="#m4c5a7cc0a1" x="152.636734" y="348.460796" style="fill: #0000ff; fill-opacity: 0.7; stroke: #0000ff; stroke-opacity: 0.7"/>
     <use xlink:href="#m4c5a7cc0a1" x="157.01073" y="336.540094" style="fill: #0000ff; fill-opacity: 0.7; stroke: #0000ff; stroke-opacity: 0.7"/>
     <use xlink:href="#m4c5a7cc0a1" x="161.064208" y="318.84431" style="fill: #0000ff; fill-opacity: 0.7; stroke: #0000ff; stroke-opacity: 0.7"/>
     <use xlink:href="#m4c5a7cc0a1" x="164.852153" y="314.964902" style="fill: #0000ff; fill-opacity: 0.7; stroke: #0000ff; stroke-opacity: 0.7"/>
     <use xlink:href="#m4c5a7cc0a1" x="168.416489" y="309.706451" style="fill: #0000ff; fill-opacity: 0.7; stroke: #0000ff; stroke-opacity: 0.7"/>
     <use xlink:href="#m4c5a7cc0a1" x="171.789958" y="309.018485" style="fill: #0000ff; fill-opacity: 0.7; stroke: #0000ff; stroke-opacity: 0.7"/>
     <use xlink:href="#m4c5a7cc0a1" x="174.998649" y="307.80771" style="fill: #0000ff; fill-opacity: 0.7; stroke: #0000ff; stroke-opacity: 0.7"/>
     <use xlink:href="#m4c5a7cc0a1" x="178.063709" y="299.580501" style="fill: #0000ff; fill-opacity: 0.7; stroke: #0000ff; stroke-opacity: 0.7"/>
     <use xlink:href="#m4c5a7cc0a1" x="181.00254" y="299.014557" style="fill: #0000ff; fill-opacity: 0.7; stroke: #0000ff; stroke-opacity: 0.7"/>
     <use xlink:href="#m4c5a7cc0a1" x="183.829647" y="297.324958" style="fill: #0000ff; fill-opacity: 0.7; stroke: #0000ff; stroke-opacity: 0.7"/>
     <use xlink:href="#m4c5a7cc0a1" x="186.557256" y="295.697969" style="fill: #0000ff; fill-opacity: 0.7; stroke: #0000ff; stroke-opacity: 0.7"/>
     <use xlink:href="#m4c5a7cc0a1" x="189.195787" y="293.609271" style="fill: #0000ff; fill-opacity: 0.7; stroke: #0000ff; stroke-opacity: 0.7"/>
     <use xlink:href="#m4c5a7cc0a1" x="191.754193" y="282.178071" style="fill: #0000ff; fill-opacity: 0.7; stroke: #0000ff; stroke-opacity: 0.7"/>
     <use xlink:href="#m4c5a7cc0a1" x="194.240239" y="280.477944" style="fill: #0000ff; fill-opacity: 0.7; stroke: #0000ff; stroke-opacity: 0.7"/>
     <use xlink:href="#m4c5a7cc0a1" x="196.660704" y="276.610996" style="fill: #0000ff; fill-opacity: 0.7; stroke: #0000ff; stroke-opacity: 0.7"/>
     <use xlink:href="#m4c5a7cc0a1" x="199.021553" y="276.111487" style="fill: #0000ff; fill-opacity: 0.7; stroke: #0000ff; stroke-opacity: 0.7"/>
     <use xlink:href="#m4c5a7cc0a1" x="201.328067" y="273.062332" style="fill: #0000ff; fill-opacity: 0.7; stroke: #0000ff; stroke-opacity: 0.7"/>
     <use xlink:href="#m4c5a7cc0a1" x="203.584949" y="273.010597" style="fill: #0000ff; fill-opacity: 0.7; stroke: #0000ff; stroke-opacity: 0.7"/>
     <use xlink:href="#m4c5a7cc0a1" x="205.796412" y="271.402987" style="fill: #0000ff; fill-opacity: 0.7; stroke: #0000ff; stroke-opacity: 0.7"/>
     <use xlink:href="#m4c5a7cc0a1" x="207.966249" y="271.226253" style="fill: #0000ff; fill-opacity: 0.7; stroke: #0000ff; stroke-opacity: 0.7"/>
     <use xlink:href="#m4c5a7cc0a1" x="210.097894" y="269.351259" style="fill: #0000ff; fill-opacity: 0.7; stroke: #0000ff; stroke-opacity: 0.7"/>
     <use xlink:href="#m4c5a7cc0a1" x="212.194468" y="269.161394" style="fill: #0000ff; fill-opacity: 0.7; stroke: #0000ff; stroke-opacity: 0.7"/>
     <use xlink:href="#m4c5a7cc0a1" x="214.258825" y="268.235946" style="fill: #0000ff; fill-opacity: 0.7; stroke: #0000ff; stroke-opacity: 0.7"/>
     <use xlink:href="#m4c5a7cc0a1" x="216.293583" y="266.765782" style="fill: #0000ff; fill-opacity: 0.7; stroke: #0000ff; stroke-opacity: 0.7"/>
     <use xlink:href="#m4c5a7cc0a1" x="218.301154" y="266.031179" style="fill: #0000ff; fill-opacity: 0.7; stroke: #0000ff; stroke-opacity: 0.7"/>
     <use xlink:href="#m4c5a7cc0a1" x="220.283772" y="265.19264" style="fill: #0000ff; fill-opacity: 0.7; stroke: #0000ff; stroke-opacity: 0.7"/>
     <use xlink:href="#m4c5a7cc0a1" x="222.243514" y="263.371688" style="fill: #0000ff; fill-opacity: 0.7; stroke: #0000ff; stroke-opacity: 0.7"/>
     <use xlink:href="#m4c5a7cc0a1" x="224.182317" y="262.287586" style="fill: #0000ff; fill-opacity: 0.7; stroke: #0000ff; stroke-opacity: 0.7"/>
     <use xlink:href="#m4c5a7cc0a1" x="226.101998" y="255.735626" style="fill: #0000ff; fill-opacity: 0.7; stroke: #0000ff; stroke-opacity: 0.7"/>
     <use xlink:href="#m4c5a7cc0a1" x="228.004265" y="255.540097" style="fill: #0000ff; fill-opacity: 0.7; stroke: #0000ff; stroke-opacity: 0.7"/>
     <use xlink:href="#m4c5a7cc0a1" x="229.890732" y="253.075648" style="fill: #0000ff; fill-opacity: 0.7; stroke: #0000ff; stroke-opacity: 0.7"/>
     <use xlink:href="#m4c5a7cc0a1" x="231.762931" y="252.819079" style="fill: #0000ff; fill-opacity: 0.7; stroke: #0000ff; stroke-opacity: 0.7"/>
     <use xlink:href="#m4c5a7cc0a1" x="233.62232" y="248.514821" style="fill: #0000ff; fill-opacity: 0.7; stroke: #0000ff; stroke-opacity: 0.7"/>
     <use xlink:href="#m4c5a7cc0a1" x="235.470293" y="248.489971" style="fill: #0000ff; fill-opacity: 0.7; stroke: #0000ff; stroke-opacity: 0.7"/>
     <use xlink:href="#m4c5a7cc0a1" x="237.30819" y="247.549599" style="fill: #0000ff; fill-opacity: 0.7; stroke: #0000ff; stroke-opacity: 0.7"/>
     <use xlink:href="#m4c5a7cc0a1" x="239.137302" y="247.266745" style="fill: #0000ff; fill-opacity: 0.7; stroke: #0000ff; stroke-opacity: 0.7"/>
     <use xlink:href="#m4c5a7cc0a1" x="240.958879" y="246.973094" style="fill: #0000ff; fill-opacity: 0.7; stroke: #0000ff; stroke-opacity: 0.7"/>
     <use xlink:href="#m4c5a7cc0a1" x="242.774136" y="242.544329" style="fill: #0000ff; fill-opacity: 0.7; stroke: #0000ff; stroke-opacity: 0.7"/>
     <use xlink:href="#m4c5a7cc0a1" x="244.584261" y="240.568609" style="fill: #0000ff; fill-opacity: 0.7; stroke: #0000ff; stroke-opacity: 0.7"/>
     <use xlink:href="#m4c5a7cc0a1" x="246.390417" y="240.257747" style="fill: #0000ff; fill-opacity: 0.7; stroke: #0000ff; stroke-opacity: 0.7"/>
     <use xlink:href="#m4c5a7cc0a1" x="248.193751" y="239.712927" style="fill: #0000ff; fill-opacity: 0.7; stroke: #0000ff; stroke-opacity: 0.7"/>
     <use xlink:href="#m4c5a7cc0a1" x="249.995396" y="239.153486" style="fill: #0000ff; fill-opacity: 0.7; stroke: #0000ff; stroke-opacity: 0.7"/>
     <use xlink:href="#m4c5a7cc0a1" x="251.796479" y="239.071392" style="fill: #0000ff; fill-opacity: 0.7; stroke: #0000ff; stroke-opacity: 0.7"/>
     <use xlink:href="#m4c5a7cc0a1" x="253.598124" y="236.896669" style="fill: #0000ff; fill-opacity: 0.7; stroke: #0000ff; stroke-opacity: 0.7"/>
     <use xlink:href="#m4c5a7cc0a1" x="255.401458" y="232.27973" style="fill: #0000ff; fill-opacity: 0.7; stroke: #0000ff; stroke-opacity: 0.7"/>
     <use xlink:href="#m4c5a7cc0a1" x="257.207614" y="231.849092" style="fill: #0000ff; fill-opacity: 0.7; stroke: #0000ff; stroke-opacity: 0.7"/>
     <use xlink:href="#m4c5a7cc0a1" x="259.017739" y="230.687624" style="fill: #0000ff; fill-opacity: 0.7; stroke: #0000ff; stroke-opacity: 0.7"/>
     <use xlink:href="#m4c5a7cc0a1" x="260.832996" y="226.432304" style="fill: #0000ff; fill-opacity: 0.7; stroke: #0000ff; stroke-opacity: 0.7"/>
     <use xlink:href="#m4c5a7cc0a1" x="262.654573" y="226.098778" style="fill: #0000ff; fill-opacity: 0.7; stroke: #0000ff; stroke-opacity: 0.7"/>
     <use xlink:href="#m4c5a7cc0a1" x="264.483685" y="226.028698" style="fill: #0000ff; fill-opacity: 0.7; stroke: #0000ff; stroke-opacity: 0.7"/>
     <use xlink:href="#m4c5a7cc0a1" x="266.321582" y="225.657487" style="fill: #0000ff; fill-opacity: 0.7; stroke: #0000ff; stroke-opacity: 0.7"/>
     <use xlink:href="#m4c5a7cc0a1" x="268.169555" y="222.322517" style="fill: #0000ff; fill-opacity: 0.7; stroke: #0000ff; stroke-opacity: 0.7"/>
     <use xlink:href="#m4c5a7cc0a1" x="270.028944" y="221.955893" style="fill: #0000ff; fill-opacity: 0.7; stroke: #0000ff; stroke-opacity: 0.7"/>
     <use xlink:href="#m4c5a7cc0a1" x="271.901143" y="220.25548" style="fill: #0000ff; fill-opacity: 0.7; stroke: #0000ff; stroke-opacity: 0.7"/>
     <use xlink:href="#m4c5a7cc0a1" x="273.78761" y="219.653202" style="fill: #0000ff; fill-opacity: 0.7; stroke: #0000ff; stroke-opacity: 0.7"/>
     <use xlink:href="#m4c5a7cc0a1" x="275.689877" y="216.756879" style="fill: #0000ff; fill-opacity: 0.7; stroke: #0000ff; stroke-opacity: 0.7"/>
     <use xlink:href="#m4c5a7cc0a1" x="277.609558" y="211.990101" style="fill: #0000ff; fill-opacity: 0.7; stroke: #0000ff; stroke-opacity: 0.7"/>
     <use xlink:href="#m4c5a7cc0a1" x="279.548361" y="211.24115" style="fill: #0000ff; fill-opacity: 0.7; stroke: #0000ff; stroke-opacity: 0.7"/>
     <use xlink:href="#m4c5a7cc0a1" x="281.508103" y="211.154476" style="fill: #0000ff; fill-opacity: 0.7; stroke: #0000ff; stroke-opacity: 0.7"/>
     <use xlink:href="#m4c5a7cc0a1" x="283.490721" y="207.532816" style="fill: #0000ff; fill-opacity: 0.7; stroke: #0000ff; stroke-opacity: 0.7"/>
     <use xlink:href="#m4c5a7cc0a1" x="285.498292" y="206.274397" style="fill: #0000ff; fill-opacity: 0.7; stroke: #0000ff; stroke-opacity: 0.7"/>
     <use xlink:href="#m4c5a7cc0a1" x="287.53305" y="206.214934" style="fill: #0000ff; fill-opacity: 0.7; stroke: #0000ff; stroke-opacity: 0.7"/>
     <use xlink:href="#m4c5a7cc0a1" x="289.597407" y="205.930808" style="fill: #0000ff; fill-opacity: 0.7; stroke: #0000ff; stroke-opacity: 0.7"/>
     <use xlink:href="#m4c5a7cc0a1" x="291.693981" y="205.880717" style="fill: #0000ff; fill-opacity: 0.7; stroke: #0000ff; stroke-opacity: 0.7"/>
     <use xlink:href="#m4c5a7cc0a1" x="293.825626" y="203.022065" style="fill: #0000ff; fill-opacity: 0.7; stroke: #0000ff; stroke-opacity: 0.7"/>
     <use xlink:href="#m4c5a7cc0a1" x="295.995463" y="202.964991" style="fill: #0000ff; fill-opacity: 0.7; stroke: #0000ff; stroke-opacity: 0.7"/>
     <use xlink:href="#m4c5a7cc0a1" x="298.206926" y="202.728024" style="fill: #0000ff; fill-opacity: 0.7; stroke: #0000ff; stroke-opacity: 0.7"/>
     <use xlink:href="#m4c5a7cc0a1" x="300.463808" y="199.641572" style="fill: #0000ff; fill-opacity: 0.7; stroke: #0000ff; stroke-opacity: 0.7"/>
     <use xlink:href="#m4c5a7cc0a1" x="302.770322" y="198.062452" style="fill: #0000ff; fill-opacity: 0.7; stroke: #0000ff; stroke-opacity: 0.7"/>
     <use xlink:href="#m4c5a7cc0a1" x="305.131171" y="196.941003" style="fill: #0000ff; fill-opacity: 0.7; stroke: #0000ff; stroke-opacity: 0.7"/>
     <use xlink:href="#m4c5a7cc0a1" x="307.551636" y="192.469739" style="fill: #0000ff; fill-opacity: 0.7; stroke: #0000ff; stroke-opacity: 0.7"/>
     <use xlink:href="#m4c5a7cc0a1" x="310.037682" y="189.481699" style="fill: #0000ff; fill-opacity: 0.7; stroke: #0000ff; stroke-opacity: 0.7"/>
     <use xlink:href="#m4c5a7cc0a1" x="312.596088" y="186.235575" style="fill: #0000ff; fill-opacity: 0.7; stroke: #0000ff; stroke-opacity: 0.7"/>
     <use xlink:href="#m4c5a7cc0a1" x="315.234619" y="186.099566" style="fill: #0000ff; fill-opacity: 0.7; stroke: #0000ff; stroke-opacity: 0.7"/>
     <use xlink:href="#m4c5a7cc0a1" x="317.962228" y="185.790256" style="fill: #0000ff; fill-opacity: 0.7; stroke: #0000ff; stroke-opacity: 0.7"/>
     <use xlink:href="#m4c5a7cc0a1" x="320.789335" y="183.032302" style="fill: #0000ff; fill-opacity: 0.7; stroke: #0000ff; stroke-opacity: 0.7"/>
     <use xlink:href="#m4c5a7cc0a1" x="323.728166" y="182.95888" style="fill: #0000ff; fill-opacity: 0.7; stroke: #0000ff; stroke-opacity: 0.7"/>
     <use xlink:href="#m4c5a7cc0a1" x="326.793226" y="182.176966" style="fill: #0000ff; fill-opacity: 0.7; stroke: #0000ff; stroke-opacity: 0.7"/>
     <use xlink:href="#m4c5a7cc0a1" x="330.001917" y="178.901735" style="fill: #0000ff; fill-opacity: 0.7; stroke: #0000ff; stroke-opacity: 0.7"/>
     <use xlink:href="#m4c5a7cc0a1" x="333.375386" y="176.977053" style="fill: #0000ff; fill-opacity: 0.7; stroke: #0000ff; stroke-opacity: 0.7"/>
     <use xlink:href="#m4c5a7cc0a1" x="336.939722" y="168.819346" style="fill: #0000ff; fill-opacity: 0.7; stroke: #0000ff; stroke-opacity: 0.7"/>
     <use xlink:href="#m4c5a7cc0a1" x="340.727667" y="158.231644" style="fill: #0000ff; fill-opacity: 0.7; stroke: #0000ff; stroke-opacity: 0.7"/>
     <use xlink:href="#m4c5a7cc0a1" x="344.781145" y="155.374169" style="fill: #0000ff; fill-opacity: 0.7; stroke: #0000ff; stroke-opacity: 0.7"/>
     <use xlink:href="#m4c5a7cc0a1" x="349.155141" y="150.809034" style="fill: #0000ff; fill-opacity: 0.7; stroke: #0000ff; stroke-opacity: 0.7"/>
     <use xlink:href="#m4c5a7cc0a1" x="353.923897" y="145.013245" style="fill: #0000ff; fill-opacity: 0.7; stroke: #0000ff; stroke-opacity: 0.7"/>
     <use xlink:href="#m4c5a7cc0a1" x="359.19132" y="132.272529" style="fill: #0000ff; fill-opacity: 0.7; stroke: #0000ff; stroke-opacity: 0.7"/>
     <use xlink:href="#m4c5a7cc0a1" x="365.10965" y="109.138274" style="fill: #0000ff; fill-opacity: 0.7; stroke: #0000ff; stroke-opacity: 0.7"/>
     <use xlink:href="#m4c5a7cc0a1" x="371.915826" y="104.263403" style="fill: #0000ff; fill-opacity: 0.7; stroke: #0000ff; stroke-opacity: 0.7"/>
     <use xlink:href="#m4c5a7cc0a1" x="380.010787" y="101.117724" style="fill: #0000ff; fill-opacity: 0.7; stroke: #0000ff; stroke-opacity: 0.7"/>
     <use xlink:href="#m4c5a7cc0a1" x="390.162974" y="93.384305" style="fill: #0000ff; fill-opacity: 0.7; stroke: #0000ff; stroke-opacity: 0.7"/>
     <use xlink:href="#m4c5a7cc0a1" x="404.18753" y="65.259996" style="fill: #0000ff; fill-opacity: 0.7; stroke: #0000ff; stroke-opacity: 0.7"/>
     <use xlink:href="#m4c5a7cc0a1" x="428.441392" y="53.3955" style="fill: #0000ff; fill-opacity: 0.7; stroke: #0000ff; stroke-opacity: 0.7"/>
    </g>
   </g>
   <g id="line2d_22">
    <path d="M 73.350483 406.1955 
L 97.604345 383.218574 
L 111.628901 369.932395 
L 121.781088 360.314708 
L 129.876049 352.645938 
L 136.682225 346.198099 
L 142.600555 340.591361 
L 147.867978 335.601262 
L 152.636734 331.083575 
L 157.01073 326.939865 
L 161.064208 323.099798 
L 164.852153 319.511284 
L 168.416489 316.134605 
L 171.789958 312.938745 
L 174.998649 309.898989 
L 178.063709 306.9953 
L 181.00254 304.211195 
L 183.829647 301.532932 
L 186.557256 298.948928 
L 189.195787 296.449313 
L 191.754193 294.025603 
L 194.240239 291.670445 
L 196.660704 289.377415 
L 199.021553 287.140862 
L 201.328067 284.955783 
L 203.584949 282.817723 
L 205.796412 280.722691 
L 207.966249 278.667093 
L 210.097894 276.647677 
L 212.194468 274.661485 
L 214.258825 272.705814 
L 216.293583 270.778184 
L 218.301154 268.876309 
L 220.283772 266.998073 
L 222.243514 265.141509 
L 224.182317 263.304781 
L 226.101998 261.48617 
L 228.004265 259.684055 
L 229.890732 257.896908 
L 231.762931 256.123278 
L 233.62232 254.361784 
L 235.470293 252.611104 
L 237.30819 250.86997 
L 239.137302 249.137159 
L 240.958879 247.411486 
L 242.774136 245.691799 
L 244.584261 243.976976 
L 246.390417 242.265911 
L 248.193751 240.557521 
L 249.995396 238.85073 
L 251.796479 237.144472 
L 253.598124 235.437681 
L 255.401458 233.729291 
L 257.207614 232.018227 
L 259.017739 230.303403 
L 260.832996 228.583717 
L 262.654573 226.858044 
L 264.483685 225.125233 
L 266.321582 223.384099 
L 268.169555 221.633419 
L 270.028944 219.871925 
L 271.901143 218.098295 
L 273.78761 216.311148 
L 275.689877 214.509033 
L 277.609558 212.690421 
L 279.548361 210.853694 
L 281.508103 208.99713 
L 283.490721 207.118894 
L 285.498292 205.217019 
L 287.53305 203.289389 
L 289.597407 201.333718 
L 291.693981 199.347526 
L 293.825626 197.32811 
L 295.995463 195.272512 
L 298.206926 193.17748 
L 300.463808 191.03942 
L 302.770322 188.854341 
L 305.131171 186.617788 
L 307.551636 184.324757 
L 310.037682 181.969599 
L 312.596088 179.54589 
L 315.234619 177.046275 
L 317.962228 174.46227 
L 320.789335 171.784008 
L 323.728166 168.999903 
L 326.793226 166.096214 
L 330.001917 163.056457 
L 333.375386 159.860597 
L 336.939722 156.483919 
L 340.727667 152.895405 
L 344.781145 149.055338 
L 349.155141 144.911627 
L 353.923897 140.393941 
L 359.19132 135.403841 
L 365.10965 129.797104 
L 371.915826 123.349265 
L 380.010787 115.680495 
L 390.162974 106.062807 
L 404.18753 92.776628 
L 428.441392 69.799703 
" clip-path="url(#pd95900e973)" style="fill: none; stroke-dasharray: 7.4,3.2; stroke-dashoffset: 0; stroke: #ff0000; stroke-opacity: 0.7; stroke-width: 2"/>
   </g>
   <g id="patch_3">
    <path d="M 55.595938 423.8355 
L 55.595938 35.7555 
" style="fill: none; stroke: #000000; stroke-linejoin: miter; stroke-linecap: square"/>
   </g>
   <g id="patch_4">
    <path d="M 446.195938 423.8355 
L 446.195938 35.7555 
" style="fill: none; stroke: #000000; stroke-linejoin: miter; stroke-linecap: square"/>
   </g>
   <g id="patch_5">
    <path d="M 55.595937 423.8355 
L 446.195938 423.8355 
" style="fill: none; stroke: #000000; stroke-linejoin: miter; stroke-linecap: square"/>
   </g>
   <g id="patch_6">
    <path d="M 55.595937 35.7555 
L 446.195938 35.7555 
" style="fill: none; stroke: #000000; stroke-linejoin: miter; stroke-linecap: square"/>
   </g>
   <g id="text_13">
    <g id="patch_7">
     <path d="M 75.125938 96.803906 
L 154.808281 96.803906 
Q 157.508281 96.803906 157.508281 94.103906 
L 157.508281 55.1595 
Q 157.508281 52.4595 154.808281 52.4595 
L 75.125938 52.4595 
Q 72.425938 52.4595 72.425938 55.1595 
L 72.425938 94.103906 
Q 72.425938 96.803906 75.125938 96.803906 
z
" style="fill: #d4edda; opacity: 0.8; stroke: #155724; stroke-width: 0.8; stroke-linejoin: miter"/>
    </g>
    <!-- Shapiro-Wilk Test -->
    <g style="fill: #155724" transform="translate(75.125938 61.998094) scale(0.09 -0.09)">
     <defs>
      <path id="DejaVuSans-2d" d="M 313 2009 
L 1997 2009 
L 1997 1497 
L 313 1497 
L 313 2009 
z
" transform="scale(0.015625)"/>
      <path id="DejaVuSans-57" d="M 213 4666 
L 850 4666 
L 1831 722 
L 2809 4666 
L 3519 4666 
L 4500 722 
L 5478 4666 
L 6119 4666 
L 4947 0 
L 4153 0 
L 3169 4050 
L 2175 0 
L 1381 0 
L 213 4666 
z
" transform="scale(0.015625)"/>
      <path id="DejaVuSans-6b" d="M 581 4863 
L 1159 4863 
L 1159 1991 
L 2875 3500 
L 3609 3500 
L 1753 1863 
L 3688 0 
L 2938 0 
L 1159 1709 
L 1159 0 
L 581 0 
L 581 4863 
z
" transform="scale(0.015625)"/>
     </defs>
     <use xlink:href="#DejaVuSans-53"/>
     <use xlink:href="#DejaVuSans-68" x="63.476562"/>
     <use xlink:href="#DejaVuSans-61" x="126.855469"/>
     <use xlink:href="#DejaVuSans-70" x="188.134766"/>
     <use xlink:href="#DejaVuSans-69" x="251.611328"/>
     <use xlink:href="#DejaVuSans-72" x="279.394531"/>
     <use xlink:href="#DejaVuSans-6f" x="318.257812"/>
     <use xlink:href="#DejaVuSans-2d" x="381.314453"/>
     <use xlink:href="#DejaVuSans-57" x="413.398438"/>
     <use xlink:href="#DejaVuSans-69" x="510.025391"/>
     <use xlink:href="#DejaVuSans-6c" x="537.808594"/>
     <use xlink:href="#DejaVuSans-6b" x="565.591797"/>
     <use xlink:href="#DejaVuSans-20" x="623.501953"/>
     <use xlink:href="#DejaVuSans-54" x="655.289062"/>
     <use xlink:href="#DejaVuSans-65" x="699.373047"/>
     <use xlink:href="#DejaVuSans-73" x="760.896484"/>
     <use xlink:href="#DejaVuSans-74" x="812.996094"/>
    </g>
    <!-- p = 0.275 -->
    <g style="fill: #155724" transform="translate(75.125938 72.076125) scale(0.09 -0.09)">
     <defs>
      <path id="DejaVuSans-3d" d="M 678 2906 
L 4684 2906 
L 4684 2381 
L 678 2381 
L 678 2906 
z
M 678 1631 
L 4684 1631 
L 4684 1100 
L 678 1100 
L 678 1631 
z
" transform="scale(0.015625)"/>
      <path id="DejaVuSans-2e" d="M 684 794 
L 1344 794 
L 1344 0 
L 684 0 
L 684 794 
z
" transform="scale(0.015625)"/>
      <path id="DejaVuSans-37" d="M 525 4666 
L 3525 4666 
L 3525 4397 
L 1831 0 
L 1172 0 
L 2766 4134 
L 525 4134 
L 525 4666 
z
" transform="scale(0.015625)"/>
      <path id="DejaVuSans-35" d="M 691 4666 
L 3169 4666 
L 3169 4134 
L 1269 4134 
L 1269 2991 
Q 1406 3038 1543 3061 
Q 1681 3084 1819 3084 
Q 2600 3084 3056 2656 
Q 3513 2228 3513 1497 
Q 3513 744 3044 326 
Q 2575 -91 1722 -91 
Q 1428 -91 1123 -41 
Q 819 9 494 109 
L 494 744 
Q 775 591 1075 516 
Q 1375 441 1709 441 
Q 2250 441 2565 725 
Q 2881 1009 2881 1497 
Q 2881 1984 2565 2268 
Q 2250 2553 1709 2553 
Q 1456 2553 1204 2497 
Q 953 2441 691 2322 
L 691 4666 
z
" transform="scale(0.015625)"/>
     </defs>
     <use xlink:href="#DejaVuSans-70"/>
     <use xlink:href="#DejaVuSans-20" x="63.476562"/>
     <use xlink:href="#DejaVuSans-3d" x="95.263672"/>
     <use xlink:href="#DejaVuSans-20" x="179.052734"/>
     <use xlink:href="#DejaVuSans-30" x="210.839844"/>
     <use xlink:href="#DejaVuSans-2e" x="274.462891"/>
     <use xlink:href="#DejaVuSans-32" x="306.25"/>
     <use xlink:href="#DejaVuSans-37" x="369.873047"/>
     <use xlink:href="#DejaVuSans-35" x="433.496094"/>
    </g>
    <!-- ✅ Appears normal -->
    <g style="fill: #155724" transform="translate(75.125938 82.154156) scale(0.09 -0.09)">
     <defs>
      <path id="DejaVuSans-2705" d="M 319 -1131 
L 319 4513 
L 3519 4513 
L 3519 -1131 
L 319 -1131 
z
M 678 -775 
L 3163 -775 
L 3163 4153 
L 678 4153 
L 678 -775 
z
" transform="scale(0.015625)"/>
      <path id="DejaVuSans-41" d="M 2188 4044 
L 1331 1722 
L 3047 1722 
L 2188 4044 
z
M 1831 4666 
L 2547 4666 
L 4325 0 
L 3669 0 
L 3244 1197 
L 1141 1197 
L 716 0 
L 50 0 
L 1831 4666 
z
" transform="scale(0.015625)"/>
     </defs>
     <use xlink:href="#DejaVuSans-2705"/>
     <use xlink:href="#DejaVuSans-20" x="60.009766"/>
     <use xlink:href="#DejaVuSans-41" x="91.796875"/>
     <use xlink:href="#DejaVuSans-70" x="160.205078"/>
     <use xlink:href="#DejaVuSans-70" x="223.681641"/>
     <use xlink:href="#DejaVuSans-65" x="287.158203"/>
     <use xlink:href="#DejaVuSans-61" x="348.681641"/>
     <use xlink:href="#DejaVuSans-72" x="409.960938"/>
     <use xlink:href="#DejaVuSans-73" x="451.074219"/>
     <use xlink:href="#DejaVuSans-20" x="503.173828"/>
     <use xlink:href="#DejaVuSans-6e" x="534.960938"/>
     <use xlink:href="#DejaVuSans-6f" x="598.339844"/>
     <use xlink:href="#DejaVuSans-72" x="659.521484"/>
     <use xlink:href="#DejaVuSans-6d" x="698.884766"/>
     <use xlink:href="#DejaVuSans-61" x="796.296875"/>
     <use xlink:href="#DejaVuSans-6c" x="857.576172"/>
    </g>
    <!-- (α = 0.05) -->
    <g style="fill: #155724" transform="translate(75.125938 92.232187) scale(0.09 -0.09)">
     <defs>
      <path id="DejaVuSans-28" d="M 1984 4856 
Q 1566 4138 1362 3434 
Q 1159 2731 1159 2009 
Q 1159 1288 1364 580 
Q 1569 -128 1984 -844 
L 1484 -844 
Q 1016 -109 783 600 
Q 550 1309 550 2009 
Q 550 2706 781 3412 
Q 1013 4119 1484 4856 
L 1984 4856 
z
" transform="scale(0.015625)"/>
      <path id="DejaVuSans-3b1" d="M 2644 1628 
L 2506 2350 
Q 2366 3091 1809 3091 
Q 1391 3091 1200 2747 
Q 959 2316 959 1747 
Q 959 1059 1194 731 
Q 1431 397 1809 397 
Q 2228 397 2453 1063 
L 2644 1628 
z
M 2966 2584 
L 3275 3500 
L 3788 3500 
L 3147 1603 
L 3272 919 
Q 3300 766 3409 638 
Q 3538 488 3638 488 
L 3913 488 
L 3913 0 
L 3569 0 
Q 3275 0 3013 263 
Q 2884 394 2831 669 
Q 2688 322 2394 50 
Q 2256 -78 1809 -78 
Q 1075 -78 719 397 
Q 353 888 353 1747 
Q 353 2666 750 3097 
Q 1191 3578 1809 3578 
Q 2781 3578 2966 2584 
z
" transform="scale(0.015625)"/>
      <path id="DejaVuSans-29" d="M 513 4856 
L 1013 4856 
Q 1481 4119 1714 3412 
Q 1947 2706 1947 2009 
Q 1947 1309 1714 600 
Q 1481 -109 1013 -844 
L 513 -844 
Q 928 -128 1133 580 
Q 1338 1288 1338 2009 
Q 1338 2731 1133 3434 
Q 928 4138 513 4856 
z
" transform="scale(0.015625)"/>
     </defs>
     <use xlink:href="#DejaVuSans-28"/>
     <use xlink:href="#DejaVuSans-3b1" x="39.013672"/>
     <use xlink:href="#DejaVuSans-20" x="104.931641"/>
     <use xlink:href="#DejaVuSans-3d" x="136.71875"/>
     <use xlink:href="#DejaVuSans-20" x="220.507812"/>
     <use xlink:href="#DejaVuSans-30" x="252.294922"/>
     <use xlink:href="#DejaVuSans-2e" x="315.917969"/>
     <use xlink:href="#DejaVuSans-30" x="347.705078"/>
     <use xlink:href="#DejaVuSans-35" x="411.328125"/>
     <use xlink:href="#DejaVuSans-29" x="474.951172"/>
    </g>
   </g>
   <g id="text_14">
    <!-- Q-Q Plot: Execution Time (seconds) -->
    <g transform="translate(144.617188 16.318125) scale(0.12 -0.12)">
     <defs>
      <path id="DejaVuSans-50" d="M 1259 4147 
L 1259 2394 
L 2053 2394 
Q 2494 2394 2734 2622 
Q 2975 2850 2975 3272 
Q 2975 3691 2734 3919 
Q 2494 4147 2053 4147 
L 1259 4147 
z
M 628 4666 
L 2053 4666 
Q 2838 4666 3239 4311 
Q 3641 3956 3641 3272 
Q 3641 2581 3239 2228 
Q 2838 1875 2053 1875 
L 1259 1875 
L 1259 0 
L 628 0 
L 628 4666 
z
" transform="scale(0.015625)"/>
      <path id="DejaVuSans-3a" d="M 750 794 
L 1409 794 
L 1409 0 
L 750 0 
L 750 794 
z
M 750 3309 
L 1409 3309 
L 1409 2516 
L 750 2516 
L 750 3309 
z
" transform="scale(0.015625)"/>
      <path id="DejaVuSans-45" d="M 628 4666 
L 3578 4666 
L 3578 4134 
L 1259 4134 
L 1259 2753 
L 3481 2753 
L 3481 2222 
L 1259 2222 
L 1259 531 
L 3634 531 
L 3634 0 
L 628 0 
L 628 4666 
z
" transform="scale(0.015625)"/>
      <path id="DejaVuSans-78" d="M 3513 3500 
L 2247 1797 
L 3578 0 
L 2900 0 
L 1881 1375 
L 863 0 
L 184 0 
L 1544 1831 
L 300 3500 
L 978 3500 
L 1906 2253 
L 2834 3500 
L 3513 3500 
z
" transform="scale(0.015625)"/>
      <path id="DejaVuSans-64" d="M 2906 2969 
L 2906 4863 
L 3481 4863 
L 3481 0 
L 2906 0 
L 2906 525 
Q 2725 213 2448 61 
Q 2172 -91 1784 -91 
Q 1150 -91 751 415 
Q 353 922 353 1747 
Q 353 2572 751 3078 
Q 1150 3584 1784 3584 
Q 2172 3584 2448 3432 
Q 2725 3281 2906 2969 
z
M 947 1747 
Q 947 1113 1208 752 
Q 1469 391 1925 391 
Q 2381 391 2643 752 
Q 2906 1113 2906 1747 
Q 2906 2381 2643 2742 
Q 2381 3103 1925 3103 
Q 1469 3103 1208 2742 
Q 947 2381 947 1747 
z
" transform="scale(0.015625)"/>
     </defs>
     <use xlink:href="#DejaVuSans-51"/>
     <use xlink:href="#DejaVuSans-2d" x="81.460938"/>
     <use xlink:href="#DejaVuSans-51" x="121.169922"/>
     <use xlink:href="#DejaVuSans-20" x="199.880859"/>
     <use xlink:href="#DejaVuSans-50" x="231.667969"/>
     <use xlink:href="#DejaVuSans-6c" x="291.970703"/>
     <use xlink:href="#DejaVuSans-6f" x="319.753906"/>
     <use xlink:href="#DejaVuSans-74" x="380.935547"/>
     <use xlink:href="#DejaVuSans-3a" x="420.144531"/>
     <use xlink:href="#DejaVuSans-20" x="453.835938"/>
     <use xlink:href="#DejaVuSans-45" x="485.623047"/>
     <use xlink:href="#DejaVuSans-78" x="548.806641"/>
     <use xlink:href="#DejaVuSans-65" x="604.861328"/>
     <use xlink:href="#DejaVuSans-63" x="666.384766"/>
     <use xlink:href="#DejaVuSans-75" x="721.365234"/>
     <use xlink:href="#DejaVuSans-74" x="784.744141"/>
     <use xlink:href="#DejaVuSans-69" x="823.953125"/>
     <use xlink:href="#DejaVuSans-6f" x="851.736328"/>
     <use xlink:href="#DejaVuSans-6e" x="912.917969"/>
     <use xlink:href="#DejaVuSans-20" x="976.296875"/>
     <use xlink:href="#DejaVuSans-54" x="1008.083984"/>
     <use xlink:href="#DejaVuSans-69" x="1066.042969"/>
     <use xlink:href="#DejaVuSans-6d" x="1093.826172"/>
     <use xlink:href="#DejaVuSans-65" x="1191.238281"/>
     <use xlink:href="#DejaVuSans-20" x="1252.761719"/>
     <use xlink:href="#DejaVuSans-28" x="1284.548828"/>
     <use xlink:href="#DejaVuSans-73" x="1323.5625"/>
     <use xlink:href="#DejaVuSans-65" x="1375.662109"/>
     <use xlink:href="#DejaVuSans-63" x="1437.185547"/>
     <use xlink:href="#DejaVuSans-6f" x="1492.166016"/>
     <use xlink:href="#DejaVuSans-6e" x="1553.347656"/>
     <use xlink:href="#DejaVuSans-64" x="1616.726562"/>
     <use xlink:href="#DejaVuSans-73" x="1680.203125"/>
     <use xlink:href="#DejaVuSans-29" x="1732.302734"/>
    </g>
    <!-- Framework: ghspec -->
    <g transform="translate(192.215937 29.7555) scale(0.12 -0.12)">
     <defs>
      <path id="DejaVuSans-46" d="M 628 4666 
L 3309 4666 
L 3309 4134 
L 1259 4134 
L 1259 2759 
L 3109 2759 
L 3109 2228 
L 1259 2228 
L 1259 0 
L 628 0 
L 628 4666 
z
" transform="scale(0.015625)"/>
      <path id="DejaVuSans-77" d="M 269 3500 
L 844 3500 
L 1563 769 
L 2278 3500 
L 2956 3500 
L 3675 769 
L 4391 3500 
L 4966 3500 
L 4050 0 
L 3372 0 
L 2619 2869 
L 1863 0 
L 1184 0 
L 269 3500 
z
" transform="scale(0.015625)"/>
      <path id="DejaVuSans-67" d="M 2906 1791 
Q 2906 2416 2648 2759 
Q 2391 3103 1925 3103 
Q 1463 3103 1205 2759 
Q 947 2416 947 1791 
Q 947 1169 1205 825 
Q 1463 481 1925 481 
Q 2391 481 2648 825 
Q 2906 1169 2906 1791 
z
M 3481 434 
Q 3481 -459 3084 -895 
Q 2688 -1331 1869 -1331 
Q 1566 -1331 1297 -1286 
Q 1028 -1241 775 -1147 
L 775 -588 
Q 1028 -725 1275 -790 
Q 1522 -856 1778 -856 
Q 2344 -856 2625 -561 
Q 2906 -266 2906 331 
L 2906 616 
Q 2728 306 2450 153 
Q 2172 0 1784 0 
Q 1141 0 747 490 
Q 353 981 353 1791 
Q 353 2603 747 3093 
Q 1141 3584 1784 3584 
Q 2172 3584 2450 3431 
Q 2728 3278 2906 2969 
L 2906 3500 
L 3481 3500 
L 3481 434 
z
" transform="scale(0.015625)"/>
     </defs>
     <use xlink:href="#DejaVuSans-46"/>
     <use xlink:href="#DejaVuSans-72" x="50.269531"/>
     <use xlink:href="#DejaVuSans-61" x="91.382812"/>
     <use xlink:href="#DejaVuSans-6d" x="152.662109"/>
     <use xlink:href="#DejaVuSans-65" x="250.074219"/>
     <use xlink:href="#DejaVuSans-77" x="311.597656"/>
     <use xlink:href="#DejaVuSans-6f" x="393.384766"/>
     <use xlink:href="#DejaVuSans-72" x="454.566406"/>
     <use xlink:href="#DejaVuSans-6b" x="495.679688"/>
     <use xlink:href="#DejaVuSans-3a" x="553.589844"/>
     <use xlink:href="#DejaVuSans-20" x="587.28125"/>
     <use xlink:href="#DejaVuSans-67" x="619.068359"/>
     <use xlink:href="#DejaVuSans-68" x="682.544922"/>
     <use xlink:href="#DejaVuSans-73" x="745.923828"/>
     <use xlink:href="#DejaVuSans-70" x="798.023438"/>
     <use xlink:href="#DejaVuSans-65" x="861.5"/>
     <use xlink:href="#DejaVuSans-63" x="923.023438"/>
    </g>
   </g>
  </g>
 </g>
 <defs>
  <clipPath id="pd95900e973">
   <rect x="55.595938" y="35.7555" width="390.6" height="388.08"/>
  </clipPath>
 </defs>
</svg>
