<?xml version="1.0" encoding="utf-8" standalone="no"?>
<!DOCTYPE svg PUBLIC "-//W3C//DTD SVG 1.1//EN"
  "http://www.w3.org/Graphics/SVG/1.1/DTD/svg11.dtd">
<svg xmlns:xlink="http://www.w3.org/1999/xlink" width="466.120937pt" height="463.659562pt" viewBox="0 0 466.120937 463.659562" xmlns="http://www.w3.org/2000/svg" version="1.1">
 <metadata>
  <rdf:RDF xmlns:dc="http://purl.org/dc/elements/1.1/" xmlns:cc="http://creativecommons.org/ns#" xmlns:rdf="http://www.w3.org/1999/02/22-rdf-syntax-ns#">
   <cc:Work>
    <dc:type rdf:resource="http://purl.org/dc/dcmitype/StillImage"/>
    <dc:date>2025-11-03T08:33:59.277509</dc:date>
    <dc:format>image/svg+xml</dc:format>
    <dc:creator>
     <cc:Agent>
      <dc:title>Matplotlib v3.8.0, https://matplotlib.org/</dc:title>
     </cc:Agent>
    </dc:creator>
   </cc:Work>
  </rdf:RDF>
 </metadata>
 <defs>
  <style type="text/css">*{stroke-linejoin: round; stroke-linecap: butt}</style>
 </defs>
 <g id="figure_1">
  <g id="patch_1">
   <path d="M 0 463.659562 
L 466.120937 463.659562 
L 466.120937 0 
L 0 0 
z
" style="fill: #ffffff"/>
  </g>
  <g id="axes_1">
   <g id="patch_2">
    <path d="M 68.320937 423.8355 
L 458.920938 423.8355 
L 458.920938 35.7555 
L 68.320937 35.7555 
z
" style="fill: #ffffff"/>
   </g>
   <g id="matplotlib.axis_1">
    <g id="xtick_1">
     <g id="line2d_1">
      <path d="M 119.394515 423.8355 
L 119.394515 35.7555 
" clip-path="url(#pf145b244c7)" style="fill: none; stroke: #b0b0b0; stroke-opacity: 0.3; stroke-width: 0.8; stroke-linecap: square"/>
     </g>
     <g id="line2d_2">
      <defs>
       <path id="m09639313fa" d="M 0 0 
L 0 4.8 
" style="stroke: #000000"/>
      </defs>
      <g>
       <use xlink:href="#m09639313fa" x="119.394515" y="423.8355" style="stroke: #000000"/>
      </g>
     </g>
     <g id="text_1">
      <!-- −2 -->
      <g transform="translate(112.023421 439.733937) scale(0.1 -0.1)">
       <defs>
        <path id="DejaVuSans-2212" d="M 678 2272 
L 4684 2272 
L 4684 1741 
L 678 1741 
L 678 2272 
z
" transform="scale(0.015625)"/>
        <path id="DejaVuSans-32" d="M 1228 531 
L 3431 531 
L 3431 0 
L 469 0 
L 469 531 
Q 828 903 1448 1529 
Q 2069 2156 2228 2338 
Q 2531 2678 2651 2914 
Q 2772 3150 2772 3378 
Q 2772 3750 2511 3984 
Q 2250 4219 1831 4219 
Q 1534 4219 1204 4116 
Q 875 4013 500 3803 
L 500 4441 
Q 881 4594 1212 4672 
Q 1544 4750 1819 4750 
Q 2544 4750 2975 4387 
Q 3406 4025 3406 3419 
Q 3406 3131 3298 2873 
Q 3191 2616 2906 2266 
Q 2828 2175 2409 1742 
Q 1991 1309 1228 531 
z
" transform="scale(0.015625)"/>
       </defs>
       <use xlink:href="#DejaVuSans-2212"/>
       <use xlink:href="#DejaVuSans-32" x="83.789062"/>
      </g>
     </g>
    </g>
    <g id="xtick_2">
     <g id="line2d_3">
      <path d="M 191.507726 423.8355 
L 191.507726 35.7555 
" clip-path="url(#pf145b244c7)" style="fill: none; stroke: #b0b0b0; stroke-opacity: 0.3; stroke-width: 0.8; stroke-linecap: square"/>
     </g>
     <g id="line2d_4">
      <g>
       <use xlink:href="#m09639313fa" x="191.507726" y="423.8355" style="stroke: #000000"/>
      </g>
     </g>
     <g id="text_2">
      <!-- −1 -->
      <g transform="translate(184.136633 439.733937) scale(0.1 -0.1)">
       <defs>
        <path id="DejaVuSans-31" d="M 794 531 
L 1825 531 
L 1825 4091 
L 703 3866 
L 703 4441 
L 1819 4666 
L 2450 4666 
L 2450 531 
L 3481 531 
L 3481 0 
L 794 0 
L 794 531 
z
" transform="scale(0.015625)"/>
       </defs>
       <use xlink:href="#DejaVuSans-2212"/>
       <use xlink:href="#DejaVuSans-31" x="83.789062"/>
      </g>
     </g>
    </g>
    <g id="xtick_3">
     <g id="line2d_5">
      <path d="M 263.620938 423.8355 
L 263.620938 35.7555 
" clip-path="url(#pf145b244c7)" style="fill: none; stroke: #b0b0b0; stroke-opacity: 0.3; stroke-width: 0.8; stroke-linecap: square"/>
     </g>
     <g id="line2d_6">
      <g>
       <use xlink:href="#m09639313fa" x="263.620938" y="423.8355" style="stroke: #000000"/>
      </g>
     </g>
     <g id="text_3">
      <!-- 0 -->
      <g transform="translate(260.439688 439.733937) scale(0.1 -0.1)">
       <defs>
        <path id="DejaVuSans-30" d="M 2034 4250 
Q 1547 4250 1301 3770 
Q 1056 3291 1056 2328 
Q 1056 1369 1301 889 
Q 1547 409 2034 409 
Q 2525 409 2770 889 
Q 3016 1369 3016 2328 
Q 3016 3291 2770 3770 
Q 2525 4250 2034 4250 
z
M 2034 4750 
Q 2819 4750 3233 4129 
Q 3647 3509 3647 2328 
Q 3647 1150 3233 529 
Q 2819 -91 2034 -91 
Q 1250 -91 836 529 
Q 422 1150 422 2328 
Q 422 3509 836 4129 
Q 1250 4750 2034 4750 
z
" transform="scale(0.015625)"/>
       </defs>
       <use xlink:href="#DejaVuSans-30"/>
      </g>
     </g>
    </g>
    <g id="xtick_4">
     <g id="line2d_7">
      <path d="M 335.734149 423.8355 
L 335.734149 35.7555 
" clip-path="url(#pf145b244c7)" style="fill: none; stroke: #b0b0b0; stroke-opacity: 0.3; stroke-width: 0.8; stroke-linecap: square"/>
     </g>
     <g id="line2d_8">
      <g>
       <use xlink:href="#m09639313fa" x="335.734149" y="423.8355" style="stroke: #000000"/>
      </g>
     </g>
     <g id="text_4">
      <!-- 1 -->
      <g transform="translate(332.552899 439.733937) scale(0.1 -0.1)">
       <use xlink:href="#DejaVuSans-31"/>
      </g>
     </g>
    </g>
    <g id="xtick_5">
     <g id="line2d_9">
      <path d="M 407.84736 423.8355 
L 407.84736 35.7555 
" clip-path="url(#pf145b244c7)" style="fill: none; stroke: #b0b0b0; stroke-opacity: 0.3; stroke-width: 0.8; stroke-linecap: square"/>
     </g>
     <g id="line2d_10">
      <g>
       <use xlink:href="#m09639313fa" x="407.84736" y="423.8355" style="stroke: #000000"/>
      </g>
     </g>
     <g id="text_5">
      <!-- 2 -->
      <g transform="translate(404.66611 439.733937) scale(0.1 -0.1)">
       <use xlink:href="#DejaVuSans-32"/>
      </g>
     </g>
    </g>
    <g id="text_6">
     <!-- Theoretical Quantiles -->
     <g transform="translate(205.017578 454.171906) scale(0.11 -0.11)">
      <defs>
       <path id="DejaVuSans-54" d="M -19 4666 
L 3928 4666 
L 3928 4134 
L 2272 4134 
L 2272 0 
L 1638 0 
L 1638 4134 
L -19 4134 
L -19 4666 
z
" transform="scale(0.015625)"/>
       <path id="DejaVuSans-68" d="M 3513 2113 
L 3513 0 
L 2938 0 
L 2938 2094 
Q 2938 2591 2744 2837 
Q 2550 3084 2163 3084 
Q 1697 3084 1428 2787 
Q 1159 2491 1159 1978 
L 1159 0 
L 581 0 
L 581 4863 
L 1159 4863 
L 1159 2956 
Q 1366 3272 1645 3428 
Q 1925 3584 2291 3584 
Q 2894 3584 3203 3211 
Q 3513 2838 3513 2113 
z
" transform="scale(0.015625)"/>
       <path id="DejaVuSans-65" d="M 3597 1894 
L 3597 1613 
L 953 1613 
Q 991 1019 1311 708 
Q 1631 397 2203 397 
Q 2534 397 2845 478 
Q 3156 559 3463 722 
L 3463 178 
Q 3153 47 2828 -22 
Q 2503 -91 2169 -91 
Q 1331 -91 842 396 
Q 353 884 353 1716 
Q 353 2575 817 3079 
Q 1281 3584 2069 3584 
Q 2775 3584 3186 3129 
Q 3597 2675 3597 1894 
z
M 3022 2063 
Q 3016 2534 2758 2815 
Q 2500 3097 2075 3097 
Q 1594 3097 1305 2825 
Q 1016 2553 972 2059 
L 3022 2063 
z
" transform="scale(0.015625)"/>
       <path id="DejaVuSans-6f" d="M 1959 3097 
Q 1497 3097 1228 2736 
Q 959 2375 959 1747 
Q 959 1119 1226 758 
Q 1494 397 1959 397 
Q 2419 397 2687 759 
Q 2956 1122 2956 1747 
Q 2956 2369 2687 2733 
Q 2419 3097 1959 3097 
z
M 1959 3584 
Q 2709 3584 3137 3096 
Q 3566 2609 3566 1747 
Q 3566 888 3137 398 
Q 2709 -91 1959 -91 
Q 1206 -91 779 398 
Q 353 888 353 1747 
Q 353 2609 779 3096 
Q 1206 3584 1959 3584 
z
" transform="scale(0.015625)"/>
       <path id="DejaVuSans-72" d="M 2631 2963 
Q 2534 3019 2420 3045 
Q 2306 3072 2169 3072 
Q 1681 3072 1420 2755 
Q 1159 2438 1159 1844 
L 1159 0 
L 581 0 
L 581 3500 
L 1159 3500 
L 1159 2956 
Q 1341 3275 1631 3429 
Q 1922 3584 2338 3584 
Q 2397 3584 2469 3576 
Q 2541 3569 2628 3553 
L 2631 2963 
z
" transform="scale(0.015625)"/>
       <path id="DejaVuSans-74" d="M 1172 4494 
L 1172 3500 
L 2356 3500 
L 2356 3053 
L 1172 3053 
L 1172 1153 
Q 1172 725 1289 603 
Q 1406 481 1766 481 
L 2356 481 
L 2356 0 
L 1766 0 
Q 1100 0 847 248 
Q 594 497 594 1153 
L 594 3053 
L 172 3053 
L 172 3500 
L 594 3500 
L 594 4494 
L 1172 4494 
z
" transform="scale(0.015625)"/>
       <path id="DejaVuSans-69" d="M 603 3500 
L 1178 3500 
L 1178 0 
L 603 0 
L 603 3500 
z
M 603 4863 
L 1178 4863 
L 1178 4134 
L 603 4134 
L 603 4863 
z
" transform="scale(0.015625)"/>
       <path id="DejaVuSans-63" d="M 3122 3366 
L 3122 2828 
Q 2878 2963 2633 3030 
Q 2388 3097 2138 3097 
Q 1578 3097 1268 2742 
Q 959 2388 959 1747 
Q 959 1106 1268 751 
Q 1578 397 2138 397 
Q 2388 397 2633 464 
Q 2878 531 3122 666 
L 3122 134 
Q 2881 22 2623 -34 
Q 2366 -91 2075 -91 
Q 1284 -91 818 406 
Q 353 903 353 1747 
Q 353 2603 823 3093 
Q 1294 3584 2113 3584 
Q 2378 3584 2631 3529 
Q 2884 3475 3122 3366 
z
" transform="scale(0.015625)"/>
       <path id="DejaVuSans-61" d="M 2194 1759 
Q 1497 1759 1228 1600 
Q 959 1441 959 1056 
Q 959 750 1161 570 
Q 1363 391 1709 391 
Q 2188 391 2477 730 
Q 2766 1069 2766 1631 
L 2766 1759 
L 2194 1759 
z
M 3341 1997 
L 3341 0 
L 2766 0 
L 2766 531 
Q 2569 213 2275 61 
Q 1981 -91 1556 -91 
Q 1019 -91 701 211 
Q 384 513 384 1019 
Q 384 1609 779 1909 
Q 1175 2209 1959 2209 
L 2766 2209 
L 2766 2266 
Q 2766 2663 2505 2880 
Q 2244 3097 1772 3097 
Q 1472 3097 1187 3025 
Q 903 2953 641 2809 
L 641 3341 
Q 956 3463 1253 3523 
Q 1550 3584 1831 3584 
Q 2591 3584 2966 3190 
Q 3341 2797 3341 1997 
z
" transform="scale(0.015625)"/>
       <path id="DejaVuSans-6c" d="M 603 4863 
L 1178 4863 
L 1178 0 
L 603 0 
L 603 4863 
z
" transform="scale(0.015625)"/>
       <path id="DejaVuSans-20" transform="scale(0.015625)"/>
       <path id="DejaVuSans-51" d="M 2522 4238 
Q 1834 4238 1429 3725 
Q 1025 3213 1025 2328 
Q 1025 1447 1429 934 
Q 1834 422 2522 422 
Q 3209 422 3611 934 
Q 4013 1447 4013 2328 
Q 4013 3213 3611 3725 
Q 3209 4238 2522 4238 
z
M 3406 84 
L 4238 -825 
L 3475 -825 
L 2784 -78 
Q 2681 -84 2626 -87 
Q 2572 -91 2522 -91 
Q 1538 -91 948 567 
Q 359 1225 359 2328 
Q 359 3434 948 4092 
Q 1538 4750 2522 4750 
Q 3503 4750 4090 4092 
Q 4678 3434 4678 2328 
Q 4678 1516 4351 937 
Q 4025 359 3406 84 
z
" transform="scale(0.015625)"/>
       <path id="DejaVuSans-75" d="M 544 1381 
L 544 3500 
L 1119 3500 
L 1119 1403 
Q 1119 906 1312 657 
Q 1506 409 1894 409 
Q 2359 409 2629 706 
Q 2900 1003 2900 1516 
L 2900 3500 
L 3475 3500 
L 3475 0 
L 2900 0 
L 2900 538 
Q 2691 219 2414 64 
Q 2138 -91 1772 -91 
Q 1169 -91 856 284 
Q 544 659 544 1381 
z
M 1991 3584 
L 1991 3584 
z
" transform="scale(0.015625)"/>
       <path id="DejaVuSans-6e" d="M 3513 2113 
L 3513 0 
L 2938 0 
L 2938 2094 
Q 2938 2591 2744 2837 
Q 2550 3084 2163 3084 
Q 1697 3084 1428 2787 
Q 1159 2491 1159 1978 
L 1159 0 
L 581 0 
L 581 3500 
L 1159 3500 
L 1159 2956 
Q 1366 3272 1645 3428 
Q 1925 3584 2291 3584 
Q 2894 3584 3203 3211 
Q 3513 2838 3513 2113 
z
" transform="scale(0.015625)"/>
       <path id="DejaVuSans-73" d="M 2834 3397 
L 2834 2853 
Q 2591 2978 2328 3040 
Q 2066 3103 1784 3103 
Q 1356 3103 1142 2972 
Q 928 2841 928 2578 
Q 928 2378 1081 2264 
Q 1234 2150 1697 2047 
L 1894 2003 
Q 2506 1872 2764 1633 
Q 3022 1394 3022 966 
Q 3022 478 2636 193 
Q 2250 -91 1575 -91 
Q 1294 -91 989 -36 
Q 684 19 347 128 
L 347 722 
Q 666 556 975 473 
Q 1284 391 1588 391 
Q 1994 391 2212 530 
Q 2431 669 2431 922 
Q 2431 1156 2273 1281 
Q 2116 1406 1581 1522 
L 1381 1569 
Q 847 1681 609 1914 
Q 372 2147 372 2553 
Q 372 3047 722 3315 
Q 1072 3584 1716 3584 
Q 2034 3584 2315 3537 
Q 2597 3491 2834 3397 
z
" transform="scale(0.015625)"/>
      </defs>
      <use xlink:href="#DejaVuSans-54"/>
      <use xlink:href="#DejaVuSans-68" x="61.083984"/>
      <use xlink:href="#DejaVuSans-65" x="124.462891"/>
      <use xlink:href="#DejaVuSans-6f" x="185.986328"/>
      <use xlink:href="#DejaVuSans-72" x="247.167969"/>
      <use xlink:href="#DejaVuSans-65" x="286.03125"/>
      <use xlink:href="#DejaVuSans-74" x="347.554688"/>
      <use xlink:href="#DejaVuSans-69" x="386.763672"/>
      <use xlink:href="#DejaVuSans-63" x="414.546875"/>
      <use xlink:href="#DejaVuSans-61" x="469.527344"/>
      <use xlink:href="#DejaVuSans-6c" x="530.806641"/>
      <use xlink:href="#DejaVuSans-20" x="558.589844"/>
      <use xlink:href="#DejaVuSans-51" x="590.376953"/>
      <use xlink:href="#DejaVuSans-75" x="669.087891"/>
      <use xlink:href="#DejaVuSans-61" x="732.466797"/>
      <use xlink:href="#DejaVuSans-6e" x="793.746094"/>
      <use xlink:href="#DejaVuSans-74" x="857.125"/>
      <use xlink:href="#DejaVuSans-69" x="896.333984"/>
      <use xlink:href="#DejaVuSans-6c" x="924.117188"/>
      <use xlink:href="#DejaVuSans-65" x="951.900391"/>
      <use xlink:href="#DejaVuSans-73" x="1013.423828"/>
     </g>
    </g>
   </g>
   <g id="matplotlib.axis_2">
    <g id="ytick_1">
     <g id="line2d_11">
      <path d="M 68.320937 385.396621 
L 458.920938 385.396621 
" clip-path="url(#pf145b244c7)" style="fill: none; stroke: #b0b0b0; stroke-opacity: 0.3; stroke-width: 0.8; stroke-linecap: square"/>
     </g>
     <g id="line2d_12">
      <defs>
       <path id="mb412e95423" d="M 0 0 
L -4.8 0 
" style="stroke: #000000"/>
      </defs>
      <g>
       <use xlink:href="#mb412e95423" x="68.320937" y="385.396621" style="stroke: #000000"/>
      </g>
     </g>
     <g id="text_7">
      <!-- 225000 -->
      <g transform="translate(21.845937 389.19584) scale(0.1 -0.1)">
       <defs>
        <path id="DejaVuSans-35" d="M 691 4666 
L 3169 4666 
L 3169 4134 
L 1269 4134 
L 1269 2991 
Q 1406 3038 1543 3061 
Q 1681 3084 1819 3084 
Q 2600 3084 3056 2656 
Q 3513 2228 3513 1497 
Q 3513 744 3044 326 
Q 2575 -91 1722 -91 
Q 1428 -91 1123 -41 
Q 819 9 494 109 
L 494 744 
Q 775 591 1075 516 
Q 1375 441 1709 441 
Q 2250 441 2565 725 
Q 2881 1009 2881 1497 
Q 2881 1984 2565 2268 
Q 2250 2553 1709 2553 
Q 1456 2553 1204 2497 
Q 953 2441 691 2322 
L 691 4666 
z
" transform="scale(0.015625)"/>
       </defs>
       <use xlink:href="#DejaVuSans-32"/>
       <use xlink:href="#DejaVuSans-32" x="63.623047"/>
       <use xlink:href="#DejaVuSans-35" x="127.246094"/>
       <use xlink:href="#DejaVuSans-30" x="190.869141"/>
       <use xlink:href="#DejaVuSans-30" x="254.492188"/>
       <use xlink:href="#DejaVuSans-30" x="318.115234"/>
      </g>
     </g>
    </g>
    <g id="ytick_2">
     <g id="line2d_13">
      <path d="M 68.320937 336.374821 
L 458.920938 336.374821 
" clip-path="url(#pf145b244c7)" style="fill: none; stroke: #b0b0b0; stroke-opacity: 0.3; stroke-width: 0.8; stroke-linecap: square"/>
     </g>
     <g id="line2d_14">
      <g>
       <use xlink:href="#mb412e95423" x="68.320937" y="336.374821" style="stroke: #000000"/>
      </g>
     </g>
     <g id="text_8">
      <!-- 250000 -->
      <g transform="translate(21.845937 340.17404) scale(0.1 -0.1)">
       <use xlink:href="#DejaVuSans-32"/>
       <use xlink:href="#DejaVuSans-35" x="63.623047"/>
       <use xlink:href="#DejaVuSans-30" x="127.246094"/>
       <use xlink:href="#DejaVuSans-30" x="190.869141"/>
       <use xlink:href="#DejaVuSans-30" x="254.492188"/>
       <use xlink:href="#DejaVuSans-30" x="318.115234"/>
      </g>
     </g>
    </g>
    <g id="ytick_3">
     <g id="line2d_15">
      <path d="M 68.320937 287.353021 
L 458.920938 287.353021 
" clip-path="url(#pf145b244c7)" style="fill: none; stroke: #b0b0b0; stroke-opacity: 0.3; stroke-width: 0.8; stroke-linecap: square"/>
     </g>
     <g id="line2d_16">
      <g>
       <use xlink:href="#mb412e95423" x="68.320937" y="287.353021" style="stroke: #000000"/>
      </g>
     </g>
     <g id="text_9">
      <!-- 275000 -->
      <g transform="translate(21.845937 291.15224) scale(0.1 -0.1)">
       <defs>
        <path id="DejaVuSans-37" d="M 525 4666 
L 3525 4666 
L 3525 4397 
L 1831 0 
L 1172 0 
L 2766 4134 
L 525 4134 
L 525 4666 
z
" transform="scale(0.015625)"/>
       </defs>
       <use xlink:href="#DejaVuSans-32"/>
       <use xlink:href="#DejaVuSans-37" x="63.623047"/>
       <use xlink:href="#DejaVuSans-35" x="127.246094"/>
       <use xlink:href="#DejaVuSans-30" x="190.869141"/>
       <use xlink:href="#DejaVuSans-30" x="254.492188"/>
       <use xlink:href="#DejaVuSans-30" x="318.115234"/>
      </g>
     </g>
    </g>
    <g id="ytick_4">
     <g id="line2d_17">
      <path d="M 68.320937 238.331221 
L 458.920938 238.331221 
" clip-path="url(#pf145b244c7)" style="fill: none; stroke: #b0b0b0; stroke-opacity: 0.3; stroke-width: 0.8; stroke-linecap: square"/>
     </g>
     <g id="line2d_18">
      <g>
       <use xlink:href="#mb412e95423" x="68.320937" y="238.331221" style="stroke: #000000"/>
      </g>
     </g>
     <g id="text_10">
      <!-- 300000 -->
      <g transform="translate(21.845937 242.13044) scale(0.1 -0.1)">
       <defs>
        <path id="DejaVuSans-33" d="M 2597 2516 
Q 3050 2419 3304 2112 
Q 3559 1806 3559 1356 
Q 3559 666 3084 287 
Q 2609 -91 1734 -91 
Q 1441 -91 1130 -33 
Q 819 25 488 141 
L 488 750 
Q 750 597 1062 519 
Q 1375 441 1716 441 
Q 2309 441 2620 675 
Q 2931 909 2931 1356 
Q 2931 1769 2642 2001 
Q 2353 2234 1838 2234 
L 1294 2234 
L 1294 2753 
L 1863 2753 
Q 2328 2753 2575 2939 
Q 2822 3125 2822 3475 
Q 2822 3834 2567 4026 
Q 2313 4219 1838 4219 
Q 1578 4219 1281 4162 
Q 984 4106 628 3988 
L 628 4550 
Q 988 4650 1302 4700 
Q 1616 4750 1894 4750 
Q 2613 4750 3031 4423 
Q 3450 4097 3450 3541 
Q 3450 3153 3228 2886 
Q 3006 2619 2597 2516 
z
" transform="scale(0.015625)"/>
       </defs>
       <use xlink:href="#DejaVuSans-33"/>
       <use xlink:href="#DejaVuSans-30" x="63.623047"/>
       <use xlink:href="#DejaVuSans-30" x="127.246094"/>
       <use xlink:href="#DejaVuSans-30" x="190.869141"/>
       <use xlink:href="#DejaVuSans-30" x="254.492188"/>
       <use xlink:href="#DejaVuSans-30" x="318.115234"/>
      </g>
     </g>
    </g>
    <g id="ytick_5">
     <g id="line2d_19">
      <path d="M 68.320937 189.309421 
L 458.920938 189.309421 
" clip-path="url(#pf145b244c7)" style="fill: none; stroke: #b0b0b0; stroke-opacity: 0.3; stroke-width: 0.8; stroke-linecap: square"/>
     </g>
     <g id="line2d_20">
      <g>
       <use xlink:href="#mb412e95423" x="68.320937" y="189.309421" style="stroke: #000000"/>
      </g>
     </g>
     <g id="text_11">
      <!-- 325000 -->
      <g transform="translate(21.845937 193.10864) scale(0.1 -0.1)">
       <use xlink:href="#DejaVuSans-33"/>
       <use xlink:href="#DejaVuSans-32" x="63.623047"/>
       <use xlink:href="#DejaVuSans-35" x="127.246094"/>
       <use xlink:href="#DejaVuSans-30" x="190.869141"/>
       <use xlink:href="#DejaVuSans-30" x="254.492188"/>
       <use xlink:href="#DejaVuSans-30" x="318.115234"/>
      </g>
     </g>
    </g>
    <g id="ytick_6">
     <g id="line2d_21">
      <path d="M 68.320937 140.287621 
L 458.920938 140.287621 
" clip-path="url(#pf145b244c7)" style="fill: none; stroke: #b0b0b0; stroke-opacity: 0.3; stroke-width: 0.8; stroke-linecap: square"/>
     </g>
     <g id="line2d_22">
      <g>
       <use xlink:href="#mb412e95423" x="68.320937" y="140.287621" style="stroke: #000000"/>
      </g>
     </g>
     <g id="text_12">
      <!-- 350000 -->
      <g transform="translate(21.845937 144.08684) scale(0.1 -0.1)">
       <use xlink:href="#DejaVuSans-33"/>
       <use xlink:href="#DejaVuSans-35" x="63.623047"/>
       <use xlink:href="#DejaVuSans-30" x="127.246094"/>
       <use xlink:href="#DejaVuSans-30" x="190.869141"/>
       <use xlink:href="#DejaVuSans-30" x="254.492188"/>
       <use xlink:href="#DejaVuSans-30" x="318.115234"/>
      </g>
     </g>
    </g>
    <g id="ytick_7">
     <g id="line2d_23">
      <path d="M 68.320937 91.265821 
L 458.920938 91.265821 
" clip-path="url(#pf145b244c7)" style="fill: none; stroke: #b0b0b0; stroke-opacity: 0.3; stroke-width: 0.8; stroke-linecap: square"/>
     </g>
     <g id="line2d_24">
      <g>
       <use xlink:href="#mb412e95423" x="68.320937" y="91.265821" style="stroke: #000000"/>
      </g>
     </g>
     <g id="text_13">
      <!-- 375000 -->
      <g transform="translate(21.845937 95.06504) scale(0.1 -0.1)">
       <use xlink:href="#DejaVuSans-33"/>
       <use xlink:href="#DejaVuSans-37" x="63.623047"/>
       <use xlink:href="#DejaVuSans-35" x="127.246094"/>
       <use xlink:href="#DejaVuSans-30" x="190.869141"/>
       <use xlink:href="#DejaVuSans-30" x="254.492188"/>
       <use xlink:href="#DejaVuSans-30" x="318.115234"/>
      </g>
     </g>
    </g>
    <g id="ytick_8">
     <g id="line2d_25">
      <path d="M 68.320937 42.244021 
L 458.920938 42.244021 
" clip-path="url(#pf145b244c7)" style="fill: none; stroke: #b0b0b0; stroke-opacity: 0.3; stroke-width: 0.8; stroke-linecap: square"/>
     </g>
     <g id="line2d_26">
      <g>
       <use xlink:href="#mb412e95423" x="68.320937" y="42.244021" style="stroke: #000000"/>
      </g>
     </g>
     <g id="text_14">
      <!-- 400000 -->
      <g transform="translate(21.845937 46.04324) scale(0.1 -0.1)">
       <defs>
        <path id="DejaVuSans-34" d="M 2419 4116 
L 825 1625 
L 2419 1625 
L 2419 4116 
z
M 2253 4666 
L 3047 4666 
L 3047 1625 
L 3713 1625 
L 3713 1100 
L 3047 1100 
L 3047 0 
L 2419 0 
L 2419 1100 
L 313 1100 
L 313 1709 
L 2253 4666 
z
" transform="scale(0.015625)"/>
       </defs>
       <use xlink:href="#DejaVuSans-34"/>
       <use xlink:href="#DejaVuSans-30" x="63.623047"/>
       <use xlink:href="#DejaVuSans-30" x="127.246094"/>
       <use xlink:href="#DejaVuSans-30" x="190.869141"/>
       <use xlink:href="#DejaVuSans-30" x="254.492188"/>
       <use xlink:href="#DejaVuSans-30" x="318.115234"/>
      </g>
     </g>
    </g>
    <g id="text_15">
     <!-- Sample Quantiles -->
     <g transform="translate(15.558281 278.299484) rotate(-90) scale(0.11 -0.11)">
      <defs>
       <path id="DejaVuSans-53" d="M 3425 4513 
L 3425 3897 
Q 3066 4069 2747 4153 
Q 2428 4238 2131 4238 
Q 1616 4238 1336 4038 
Q 1056 3838 1056 3469 
Q 1056 3159 1242 3001 
Q 1428 2844 1947 2747 
L 2328 2669 
Q 3034 2534 3370 2195 
Q 3706 1856 3706 1288 
Q 3706 609 3251 259 
Q 2797 -91 1919 -91 
Q 1588 -91 1214 -16 
Q 841 59 441 206 
L 441 856 
Q 825 641 1194 531 
Q 1563 422 1919 422 
Q 2459 422 2753 634 
Q 3047 847 3047 1241 
Q 3047 1584 2836 1778 
Q 2625 1972 2144 2069 
L 1759 2144 
Q 1053 2284 737 2584 
Q 422 2884 422 3419 
Q 422 4038 858 4394 
Q 1294 4750 2059 4750 
Q 2388 4750 2728 4690 
Q 3069 4631 3425 4513 
z
" transform="scale(0.015625)"/>
       <path id="DejaVuSans-6d" d="M 3328 2828 
Q 3544 3216 3844 3400 
Q 4144 3584 4550 3584 
Q 5097 3584 5394 3201 
Q 5691 2819 5691 2113 
L 5691 0 
L 5113 0 
L 5113 2094 
Q 5113 2597 4934 2840 
Q 4756 3084 4391 3084 
Q 3944 3084 3684 2787 
Q 3425 2491 3425 1978 
L 3425 0 
L 2847 0 
L 2847 2094 
Q 2847 2600 2669 2842 
Q 2491 3084 2119 3084 
Q 1678 3084 1418 2786 
Q 1159 2488 1159 1978 
L 1159 0 
L 581 0 
L 581 3500 
L 1159 3500 
L 1159 2956 
Q 1356 3278 1631 3431 
Q 1906 3584 2284 3584 
Q 2666 3584 2933 3390 
Q 3200 3197 3328 2828 
z
" transform="scale(0.015625)"/>
       <path id="DejaVuSans-70" d="M 1159 525 
L 1159 -1331 
L 581 -1331 
L 581 3500 
L 1159 3500 
L 1159 2969 
Q 1341 3281 1617 3432 
Q 1894 3584 2278 3584 
Q 2916 3584 3314 3078 
Q 3713 2572 3713 1747 
Q 3713 922 3314 415 
Q 2916 -91 2278 -91 
Q 1894 -91 1617 61 
Q 1341 213 1159 525 
z
M 3116 1747 
Q 3116 2381 2855 2742 
Q 2594 3103 2138 3103 
Q 1681 3103 1420 2742 
Q 1159 2381 1159 1747 
Q 1159 1113 1420 752 
Q 1681 391 2138 391 
Q 2594 391 2855 752 
Q 3116 1113 3116 1747 
z
" transform="scale(0.015625)"/>
      </defs>
      <use xlink:href="#DejaVuSans-53"/>
      <use xlink:href="#DejaVuSans-61" x="63.476562"/>
      <use xlink:href="#DejaVuSans-6d" x="124.755859"/>
      <use xlink:href="#DejaVuSans-70" x="222.167969"/>
      <use xlink:href="#DejaVuSans-6c" x="285.644531"/>
      <use xlink:href="#DejaVuSans-65" x="313.427734"/>
      <use xlink:href="#DejaVuSans-20" x="374.951172"/>
      <use xlink:href="#DejaVuSans-51" x="406.738281"/>
      <use xlink:href="#DejaVuSans-75" x="485.449219"/>
      <use xlink:href="#DejaVuSans-61" x="548.828125"/>
      <use xlink:href="#DejaVuSans-6e" x="610.107422"/>
      <use xlink:href="#DejaVuSans-74" x="673.486328"/>
      <use xlink:href="#DejaVuSans-69" x="712.695312"/>
      <use xlink:href="#DejaVuSans-6c" x="740.478516"/>
      <use xlink:href="#DejaVuSans-65" x="768.261719"/>
      <use xlink:href="#DejaVuSans-73" x="829.785156"/>
     </g>
    </g>
   </g>
   <g id="line2d_27">
    <defs>
     <path id="m0c54386431" d="M 0 3.5 
C 0.928211 3.5 1.81853 3.131218 2.474874 2.474874 
C 3.131218 1.81853 3.5 0.928211 3.5 0 
C 3.5 -0.928211 3.131218 -1.81853 2.474874 -2.474874 
C 1.81853 -3.131218 0.928211 -3.5 0 -3.5 
C -0.928211 -3.5 -1.81853 -3.131218 -2.474874 -2.474874 
C -3.131218 -1.81853 -3.5 -0.928211 -3.5 0 
C -3.5 0.928211 -3.131218 1.81853 -2.474874 2.474874 
C -1.81853 3.131218 -0.928211 3.5 0 3.5 
z
" style="stroke: #0000ff; stroke-opacity: 0.7"/>
    </defs>
    <g clip-path="url(#pf145b244c7)">
     <use xlink:href="#m0c54386431" x="86.075483" y="366.209489" style="fill: #0000ff; fill-opacity: 0.7; stroke: #0000ff; stroke-opacity: 0.7"/>
     <use xlink:href="#m0c54386431" x="110.329345" y="360.615121" style="fill: #0000ff; fill-opacity: 0.7; stroke: #0000ff; stroke-opacity: 0.7"/>
     <use xlink:href="#m0c54386431" x="124.353901" y="354.0462" style="fill: #0000ff; fill-opacity: 0.7; stroke: #0000ff; stroke-opacity: 0.7"/>
     <use xlink:href="#m0c54386431" x="134.506088" y="338.051367" style="fill: #0000ff; fill-opacity: 0.7; stroke: #0000ff; stroke-opacity: 0.7"/>
     <use xlink:href="#m0c54386431" x="142.601049" y="333.83157" style="fill: #0000ff; fill-opacity: 0.7; stroke: #0000ff; stroke-opacity: 0.7"/>
     <use xlink:href="#m0c54386431" x="149.407225" y="331.876581" style="fill: #0000ff; fill-opacity: 0.7; stroke: #0000ff; stroke-opacity: 0.7"/>
     <use xlink:href="#m0c54386431" x="155.325555" y="331.71775" style="fill: #0000ff; fill-opacity: 0.7; stroke: #0000ff; stroke-opacity: 0.7"/>
     <use xlink:href="#m0c54386431" x="160.592978" y="329.370587" style="fill: #0000ff; fill-opacity: 0.7; stroke: #0000ff; stroke-opacity: 0.7"/>
     <use xlink:href="#m0c54386431" x="165.361734" y="326.741057" style="fill: #0000ff; fill-opacity: 0.7; stroke: #0000ff; stroke-opacity: 0.7"/>
     <use xlink:href="#m0c54386431" x="169.73573" y="324.931172" style="fill: #0000ff; fill-opacity: 0.7; stroke: #0000ff; stroke-opacity: 0.7"/>
     <use xlink:href="#m0c54386431" x="173.789208" y="324.825285" style="fill: #0000ff; fill-opacity: 0.7; stroke: #0000ff; stroke-opacity: 0.7"/>
     <use xlink:href="#m0c54386431" x="177.577153" y="322.809509" style="fill: #0000ff; fill-opacity: 0.7; stroke: #0000ff; stroke-opacity: 0.7"/>
     <use xlink:href="#m0c54386431" x="181.141489" y="321.231007" style="fill: #0000ff; fill-opacity: 0.7; stroke: #0000ff; stroke-opacity: 0.7"/>
     <use xlink:href="#m0c54386431" x="184.514958" y="319.542696" style="fill: #0000ff; fill-opacity: 0.7; stroke: #0000ff; stroke-opacity: 0.7"/>
     <use xlink:href="#m0c54386431" x="187.723649" y="318.240677" style="fill: #0000ff; fill-opacity: 0.7; stroke: #0000ff; stroke-opacity: 0.7"/>
     <use xlink:href="#m0c54386431" x="190.788709" y="310.648181" style="fill: #0000ff; fill-opacity: 0.7; stroke: #0000ff; stroke-opacity: 0.7"/>
     <use xlink:href="#m0c54386431" x="193.72754" y="308.163756" style="fill: #0000ff; fill-opacity: 0.7; stroke: #0000ff; stroke-opacity: 0.7"/>
     <use xlink:href="#m0c54386431" x="196.554647" y="307.514707" style="fill: #0000ff; fill-opacity: 0.7; stroke: #0000ff; stroke-opacity: 0.7"/>
     <use xlink:href="#m0c54386431" x="199.282256" y="305.781296" style="fill: #0000ff; fill-opacity: 0.7; stroke: #0000ff; stroke-opacity: 0.7"/>
     <use xlink:href="#m0c54386431" x="201.920787" y="302.294866" style="fill: #0000ff; fill-opacity: 0.7; stroke: #0000ff; stroke-opacity: 0.7"/>
     <use xlink:href="#m0c54386431" x="204.479193" y="302.114466" style="fill: #0000ff; fill-opacity: 0.7; stroke: #0000ff; stroke-opacity: 0.7"/>
     <use xlink:href="#m0c54386431" x="206.965239" y="301.800726" style="fill: #0000ff; fill-opacity: 0.7; stroke: #0000ff; stroke-opacity: 0.7"/>
     <use xlink:href="#m0c54386431" x="209.385704" y="301.477182" style="fill: #0000ff; fill-opacity: 0.7; stroke: #0000ff; stroke-opacity: 0.7"/>
     <use xlink:href="#m0c54386431" x="211.746553" y="299.726124" style="fill: #0000ff; fill-opacity: 0.7; stroke: #0000ff; stroke-opacity: 0.7"/>
     <use xlink:href="#m0c54386431" x="214.053067" y="299.257475" style="fill: #0000ff; fill-opacity: 0.7; stroke: #0000ff; stroke-opacity: 0.7"/>
     <use xlink:href="#m0c54386431" x="216.309949" y="296.533824" style="fill: #0000ff; fill-opacity: 0.7; stroke: #0000ff; stroke-opacity: 0.7"/>
     <use xlink:href="#m0c54386431" x="218.521412" y="295.104348" style="fill: #0000ff; fill-opacity: 0.7; stroke: #0000ff; stroke-opacity: 0.7"/>
     <use xlink:href="#m0c54386431" x="220.691249" y="294.990618" style="fill: #0000ff; fill-opacity: 0.7; stroke: #0000ff; stroke-opacity: 0.7"/>
     <use xlink:href="#m0c54386431" x="222.822894" y="293.737621" style="fill: #0000ff; fill-opacity: 0.7; stroke: #0000ff; stroke-opacity: 0.7"/>
     <use xlink:href="#m0c54386431" x="224.919468" y="292.466975" style="fill: #0000ff; fill-opacity: 0.7; stroke: #0000ff; stroke-opacity: 0.7"/>
     <use xlink:href="#m0c54386431" x="226.983825" y="290.672778" style="fill: #0000ff; fill-opacity: 0.7; stroke: #0000ff; stroke-opacity: 0.7"/>
     <use xlink:href="#m0c54386431" x="229.018583" y="289.141337" style="fill: #0000ff; fill-opacity: 0.7; stroke: #0000ff; stroke-opacity: 0.7"/>
     <use xlink:href="#m0c54386431" x="231.026154" y="289.102119" style="fill: #0000ff; fill-opacity: 0.7; stroke: #0000ff; stroke-opacity: 0.7"/>
     <use xlink:href="#m0c54386431" x="233.008772" y="285.005857" style="fill: #0000ff; fill-opacity: 0.7; stroke: #0000ff; stroke-opacity: 0.7"/>
     <use xlink:href="#m0c54386431" x="234.968514" y="282.935177" style="fill: #0000ff; fill-opacity: 0.7; stroke: #0000ff; stroke-opacity: 0.7"/>
     <use xlink:href="#m0c54386431" x="236.907317" y="282.544963" style="fill: #0000ff; fill-opacity: 0.7; stroke: #0000ff; stroke-opacity: 0.7"/>
     <use xlink:href="#m0c54386431" x="238.826998" y="280.801748" style="fill: #0000ff; fill-opacity: 0.7; stroke: #0000ff; stroke-opacity: 0.7"/>
     <use xlink:href="#m0c54386431" x="240.729265" y="279.48012" style="fill: #0000ff; fill-opacity: 0.7; stroke: #0000ff; stroke-opacity: 0.7"/>
     <use xlink:href="#m0c54386431" x="242.615732" y="276.819217" style="fill: #0000ff; fill-opacity: 0.7; stroke: #0000ff; stroke-opacity: 0.7"/>
     <use xlink:href="#m0c54386431" x="244.487931" y="276.227034" style="fill: #0000ff; fill-opacity: 0.7; stroke: #0000ff; stroke-opacity: 0.7"/>
     <use xlink:href="#m0c54386431" x="246.34732" y="275.99369" style="fill: #0000ff; fill-opacity: 0.7; stroke: #0000ff; stroke-opacity: 0.7"/>
     <use xlink:href="#m0c54386431" x="248.195293" y="274.424992" style="fill: #0000ff; fill-opacity: 0.7; stroke: #0000ff; stroke-opacity: 0.7"/>
     <use xlink:href="#m0c54386431" x="250.03319" y="269.305155" style="fill: #0000ff; fill-opacity: 0.7; stroke: #0000ff; stroke-opacity: 0.7"/>
     <use xlink:href="#m0c54386431" x="251.862302" y="267.083487" style="fill: #0000ff; fill-opacity: 0.7; stroke: #0000ff; stroke-opacity: 0.7"/>
     <use xlink:href="#m0c54386431" x="253.683879" y="266.934461" style="fill: #0000ff; fill-opacity: 0.7; stroke: #0000ff; stroke-opacity: 0.7"/>
     <use xlink:href="#m0c54386431" x="255.499136" y="264.422584" style="fill: #0000ff; fill-opacity: 0.7; stroke: #0000ff; stroke-opacity: 0.7"/>
     <use xlink:href="#m0c54386431" x="257.309261" y="263.751966" style="fill: #0000ff; fill-opacity: 0.7; stroke: #0000ff; stroke-opacity: 0.7"/>
     <use xlink:href="#m0c54386431" x="259.115417" y="263.300965" style="fill: #0000ff; fill-opacity: 0.7; stroke: #0000ff; stroke-opacity: 0.7"/>
     <use xlink:href="#m0c54386431" x="260.918751" y="261.900903" style="fill: #0000ff; fill-opacity: 0.7; stroke: #0000ff; stroke-opacity: 0.7"/>
     <use xlink:href="#m0c54386431" x="262.720396" y="261.224402" style="fill: #0000ff; fill-opacity: 0.7; stroke: #0000ff; stroke-opacity: 0.7"/>
     <use xlink:href="#m0c54386431" x="264.521479" y="259.857674" style="fill: #0000ff; fill-opacity: 0.7; stroke: #0000ff; stroke-opacity: 0.7"/>
     <use xlink:href="#m0c54386431" x="266.323124" y="259.410595" style="fill: #0000ff; fill-opacity: 0.7; stroke: #0000ff; stroke-opacity: 0.7"/>
     <use xlink:href="#m0c54386431" x="268.126458" y="255.382964" style="fill: #0000ff; fill-opacity: 0.7; stroke: #0000ff; stroke-opacity: 0.7"/>
     <use xlink:href="#m0c54386431" x="269.932614" y="251.745547" style="fill: #0000ff; fill-opacity: 0.7; stroke: #0000ff; stroke-opacity: 0.7"/>
     <use xlink:href="#m0c54386431" x="271.742739" y="248.566973" style="fill: #0000ff; fill-opacity: 0.7; stroke: #0000ff; stroke-opacity: 0.7"/>
     <use xlink:href="#m0c54386431" x="273.557996" y="247.723798" style="fill: #0000ff; fill-opacity: 0.7; stroke: #0000ff; stroke-opacity: 0.7"/>
     <use xlink:href="#m0c54386431" x="275.379573" y="243.847154" style="fill: #0000ff; fill-opacity: 0.7; stroke: #0000ff; stroke-opacity: 0.7"/>
     <use xlink:href="#m0c54386431" x="277.208685" y="242.770635" style="fill: #0000ff; fill-opacity: 0.7; stroke: #0000ff; stroke-opacity: 0.7"/>
     <use xlink:href="#m0c54386431" x="279.046582" y="238.025325" style="fill: #0000ff; fill-opacity: 0.7; stroke: #0000ff; stroke-opacity: 0.7"/>
     <use xlink:href="#m0c54386431" x="280.894555" y="236.333093" style="fill: #0000ff; fill-opacity: 0.7; stroke: #0000ff; stroke-opacity: 0.7"/>
     <use xlink:href="#m0c54386431" x="282.753944" y="235.42717" style="fill: #0000ff; fill-opacity: 0.7; stroke: #0000ff; stroke-opacity: 0.7"/>
     <use xlink:href="#m0c54386431" x="284.626143" y="231.697591" style="fill: #0000ff; fill-opacity: 0.7; stroke: #0000ff; stroke-opacity: 0.7"/>
     <use xlink:href="#m0c54386431" x="286.51261" y="228.695496" style="fill: #0000ff; fill-opacity: 0.7; stroke: #0000ff; stroke-opacity: 0.7"/>
     <use xlink:href="#m0c54386431" x="288.414877" y="226.716976" style="fill: #0000ff; fill-opacity: 0.7; stroke: #0000ff; stroke-opacity: 0.7"/>
     <use xlink:href="#m0c54386431" x="290.334558" y="225.946354" style="fill: #0000ff; fill-opacity: 0.7; stroke: #0000ff; stroke-opacity: 0.7"/>
     <use xlink:href="#m0c54386431" x="292.273361" y="225.865958" style="fill: #0000ff; fill-opacity: 0.7; stroke: #0000ff; stroke-opacity: 0.7"/>
     <use xlink:href="#m0c54386431" x="294.233103" y="225.438488" style="fill: #0000ff; fill-opacity: 0.7; stroke: #0000ff; stroke-opacity: 0.7"/>
     <use xlink:href="#m0c54386431" x="296.215721" y="222.479532" style="fill: #0000ff; fill-opacity: 0.7; stroke: #0000ff; stroke-opacity: 0.7"/>
     <use xlink:href="#m0c54386431" x="298.223292" y="222.140301" style="fill: #0000ff; fill-opacity: 0.7; stroke: #0000ff; stroke-opacity: 0.7"/>
     <use xlink:href="#m0c54386431" x="300.25805" y="219.400963" style="fill: #0000ff; fill-opacity: 0.7; stroke: #0000ff; stroke-opacity: 0.7"/>
     <use xlink:href="#m0c54386431" x="302.322407" y="214.951744" style="fill: #0000ff; fill-opacity: 0.7; stroke: #0000ff; stroke-opacity: 0.7"/>
     <use xlink:href="#m0c54386431" x="304.418981" y="213.671295" style="fill: #0000ff; fill-opacity: 0.7; stroke: #0000ff; stroke-opacity: 0.7"/>
     <use xlink:href="#m0c54386431" x="306.550626" y="213.347751" style="fill: #0000ff; fill-opacity: 0.7; stroke: #0000ff; stroke-opacity: 0.7"/>
     <use xlink:href="#m0c54386431" x="308.720463" y="210.308399" style="fill: #0000ff; fill-opacity: 0.7; stroke: #0000ff; stroke-opacity: 0.7"/>
     <use xlink:href="#m0c54386431" x="310.931926" y="208.355371" style="fill: #0000ff; fill-opacity: 0.7; stroke: #0000ff; stroke-opacity: 0.7"/>
     <use xlink:href="#m0c54386431" x="313.188808" y="205.774863" style="fill: #0000ff; fill-opacity: 0.7; stroke: #0000ff; stroke-opacity: 0.7"/>
     <use xlink:href="#m0c54386431" x="315.495322" y="205.07091" style="fill: #0000ff; fill-opacity: 0.7; stroke: #0000ff; stroke-opacity: 0.7"/>
     <use xlink:href="#m0c54386431" x="317.856171" y="203.957135" style="fill: #0000ff; fill-opacity: 0.7; stroke: #0000ff; stroke-opacity: 0.7"/>
     <use xlink:href="#m0c54386431" x="320.276636" y="198.34708" style="fill: #0000ff; fill-opacity: 0.7; stroke: #0000ff; stroke-opacity: 0.7"/>
     <use xlink:href="#m0c54386431" x="322.762682" y="196.560726" style="fill: #0000ff; fill-opacity: 0.7; stroke: #0000ff; stroke-opacity: 0.7"/>
     <use xlink:href="#m0c54386431" x="325.321088" y="192.111507" style="fill: #0000ff; fill-opacity: 0.7; stroke: #0000ff; stroke-opacity: 0.7"/>
     <use xlink:href="#m0c54386431" x="327.959619" y="191.293824" style="fill: #0000ff; fill-opacity: 0.7; stroke: #0000ff; stroke-opacity: 0.7"/>
     <use xlink:href="#m0c54386431" x="330.687228" y="190.064357" style="fill: #0000ff; fill-opacity: 0.7; stroke: #0000ff; stroke-opacity: 0.7"/>
     <use xlink:href="#m0c54386431" x="333.514335" y="186.879901" style="fill: #0000ff; fill-opacity: 0.7; stroke: #0000ff; stroke-opacity: 0.7"/>
     <use xlink:href="#m0c54386431" x="336.453166" y="182.026743" style="fill: #0000ff; fill-opacity: 0.7; stroke: #0000ff; stroke-opacity: 0.7"/>
     <use xlink:href="#m0c54386431" x="339.518226" y="179.99724" style="fill: #0000ff; fill-opacity: 0.7; stroke: #0000ff; stroke-opacity: 0.7"/>
     <use xlink:href="#m0c54386431" x="342.726917" y="170.298767" style="fill: #0000ff; fill-opacity: 0.7; stroke: #0000ff; stroke-opacity: 0.7"/>
     <use xlink:href="#m0c54386431" x="346.100386" y="167.339811" style="fill: #0000ff; fill-opacity: 0.7; stroke: #0000ff; stroke-opacity: 0.7"/>
     <use xlink:href="#m0c54386431" x="349.664722" y="160.131646" style="fill: #0000ff; fill-opacity: 0.7; stroke: #0000ff; stroke-opacity: 0.7"/>
     <use xlink:href="#m0c54386431" x="353.452667" y="158.798253" style="fill: #0000ff; fill-opacity: 0.7; stroke: #0000ff; stroke-opacity: 0.7"/>
     <use xlink:href="#m0c54386431" x="357.506145" y="158.337448" style="fill: #0000ff; fill-opacity: 0.7; stroke: #0000ff; stroke-opacity: 0.7"/>
     <use xlink:href="#m0c54386431" x="361.880141" y="150.350816" style="fill: #0000ff; fill-opacity: 0.7; stroke: #0000ff; stroke-opacity: 0.7"/>
     <use xlink:href="#m0c54386431" x="366.648897" y="147.709522" style="fill: #0000ff; fill-opacity: 0.7; stroke: #0000ff; stroke-opacity: 0.7"/>
     <use xlink:href="#m0c54386431" x="371.91632" y="143.36619" style="fill: #0000ff; fill-opacity: 0.7; stroke: #0000ff; stroke-opacity: 0.7"/>
     <use xlink:href="#m0c54386431" x="377.83465" y="136.291364" style="fill: #0000ff; fill-opacity: 0.7; stroke: #0000ff; stroke-opacity: 0.7"/>
     <use xlink:href="#m0c54386431" x="384.640826" y="134.569718" style="fill: #0000ff; fill-opacity: 0.7; stroke: #0000ff; stroke-opacity: 0.7"/>
     <use xlink:href="#m0c54386431" x="392.735787" y="117.739554" style="fill: #0000ff; fill-opacity: 0.7; stroke: #0000ff; stroke-opacity: 0.7"/>
     <use xlink:href="#m0c54386431" x="402.887974" y="106.750827" style="fill: #0000ff; fill-opacity: 0.7; stroke: #0000ff; stroke-opacity: 0.7"/>
     <use xlink:href="#m0c54386431" x="416.91253" y="106.35277" style="fill: #0000ff; fill-opacity: 0.7; stroke: #0000ff; stroke-opacity: 0.7"/>
     <use xlink:href="#m0c54386431" x="441.166392" y="53.3955" style="fill: #0000ff; fill-opacity: 0.7; stroke: #0000ff; stroke-opacity: 0.7"/>
    </g>
   </g>
   <g id="line2d_28">
    <path d="M 86.075483 406.1955 
L 110.329345 384.678336 
L 124.353901 372.236249 
L 134.506088 363.229589 
L 142.601049 356.048029 
L 149.407225 350.009831 
L 155.325555 344.759299 
L 160.592978 340.086229 
L 165.361734 335.855558 
L 169.73573 331.975104 
L 173.789208 328.379003 
L 177.577153 325.018473 
L 181.141489 321.856321 
L 184.514958 318.863499 
L 187.723649 316.016863 
L 190.788709 313.29765 
L 193.72754 310.690424 
L 196.554647 308.182316 
L 199.282256 305.762477 
L 201.920787 303.421667 
L 204.479193 301.15194 
L 206.965239 298.946409 
L 209.385704 296.799058 
L 211.746553 294.704597 
L 214.053067 292.65834 
L 216.309949 290.656114 
L 218.521412 288.694183 
L 220.691249 286.769181 
L 222.822894 284.878061 
L 224.919468 283.018055 
L 226.983825 281.186631 
L 229.018583 279.381467 
L 231.026154 277.600421 
L 233.008772 275.841512 
L 234.968514 274.102899 
L 236.907317 272.382862 
L 238.826998 270.679789 
L 240.729265 268.992166 
L 242.615732 267.318559 
L 244.487931 265.657611 
L 246.34732 264.008027 
L 248.195293 262.368571 
L 250.03319 260.738054 
L 251.862302 259.115331 
L 253.683879 257.499293 
L 255.499136 255.888861 
L 257.309261 254.282983 
L 259.115417 252.680626 
L 260.918751 251.080772 
L 262.720396 249.482417 
L 264.521479 247.88456 
L 266.323124 246.286204 
L 268.126458 244.686351 
L 269.932614 243.083993 
L 271.742739 241.478115 
L 273.557996 239.867683 
L 275.379573 238.251645 
L 277.208685 236.628922 
L 279.046582 234.998405 
L 280.894555 233.358949 
L 282.753944 231.709365 
L 284.626143 230.048417 
L 286.51261 228.37481 
L 288.414877 226.687187 
L 290.334558 224.984114 
L 292.273361 223.264077 
L 294.233103 221.525464 
L 296.215721 219.766555 
L 298.223292 217.98551 
L 300.25805 216.180345 
L 302.322407 214.348921 
L 304.418981 212.488915 
L 306.550626 210.597796 
L 308.720463 208.672793 
L 310.931926 206.710862 
L 313.188808 204.708637 
L 315.495322 202.662379 
L 317.856171 200.567918 
L 320.276636 198.420567 
L 322.762682 196.215036 
L 325.321088 193.945309 
L 327.959619 191.604499 
L 330.687228 189.18466 
L 333.514335 186.676552 
L 336.453166 184.069326 
L 339.518226 181.350113 
L 342.726917 178.503477 
L 346.100386 175.510655 
L 349.664722 172.348503 
L 353.452667 168.987973 
L 357.506145 165.391872 
L 361.880141 161.511418 
L 366.648897 157.280747 
L 371.91632 152.607677 
L 377.83465 147.357145 
L 384.640826 141.318947 
L 392.735787 134.137387 
L 402.887974 125.130727 
L 416.91253 112.68864 
L 441.166392 91.171476 
" clip-path="url(#pf145b244c7)" style="fill: none; stroke-dasharray: 7.4,3.2; stroke-dashoffset: 0; stroke: #ff0000; stroke-opacity: 0.7; stroke-width: 2"/>
   </g>
   <g id="patch_3">
    <path d="M 68.320937 423.8355 
L 68.320937 35.7555 
" style="fill: none; stroke: #000000; stroke-linejoin: miter; stroke-linecap: square"/>
   </g>
   <g id="patch_4">
    <path d="M 458.920938 423.8355 
L 458.920938 35.7555 
" style="fill: none; stroke: #000000; stroke-linejoin: miter; stroke-linecap: square"/>
   </g>
   <g id="patch_5">
    <path d="M 68.320938 423.8355 
L 458.920938 423.8355 
" style="fill: none; stroke: #000000; stroke-linejoin: miter; stroke-linecap: square"/>
   </g>
   <g id="patch_6">
    <path d="M 68.320938 35.7555 
L 458.920938 35.7555 
" style="fill: none; stroke: #000000; stroke-linejoin: miter; stroke-linecap: square"/>
   </g>
   <g id="text_16">
    <g id="patch_7">
     <path d="M 87.850938 96.803906 
L 164.547812 96.803906 
Q 167.247813 96.803906 167.247813 94.103906 
L 167.247813 55.1595 
Q 167.247813 52.4595 164.547812 52.4595 
L 87.850938 52.4595 
Q 85.150937 52.4595 85.150937 55.1595 
L 85.150937 94.103906 
Q 85.150937 96.803906 87.850938 96.803906 
z
" style="fill: #f8d7da; opacity: 0.8; stroke: #721c24; stroke-width: 0.8; stroke-linejoin: miter"/>
    </g>
    <!-- Shapiro-Wilk Test -->
    <g style="fill: #721c24" transform="translate(87.850938 61.998094) scale(0.09 -0.09)">
     <defs>
      <path id="DejaVuSans-2d" d="M 313 2009 
L 1997 2009 
L 1997 1497 
L 313 1497 
L 313 2009 
z
" transform="scale(0.015625)"/>
      <path id="DejaVuSans-57" d="M 213 4666 
L 850 4666 
L 1831 722 
L 2809 4666 
L 3519 4666 
L 4500 722 
L 5478 4666 
L 6119 4666 
L 4947 0 
L 4153 0 
L 3169 4050 
L 2175 0 
L 1381 0 
L 213 4666 
z
" transform="scale(0.015625)"/>
      <path id="DejaVuSans-6b" d="M 581 4863 
L 1159 4863 
L 1159 1991 
L 2875 3500 
L 3609 3500 
L 1753 1863 
L 3688 0 
L 2938 0 
L 1159 1709 
L 1159 0 
L 581 0 
L 581 4863 
z
" transform="scale(0.015625)"/>
     </defs>
     <use xlink:href="#DejaVuSans-53"/>
     <use xlink:href="#DejaVuSans-68" x="63.476562"/>
     <use xlink:href="#DejaVuSans-61" x="126.855469"/>
     <use xlink:href="#DejaVuSans-70" x="188.134766"/>
     <use xlink:href="#DejaVuSans-69" x="251.611328"/>
     <use xlink:href="#DejaVuSans-72" x="279.394531"/>
     <use xlink:href="#DejaVuSans-6f" x="318.257812"/>
     <use xlink:href="#DejaVuSans-2d" x="381.314453"/>
     <use xlink:href="#DejaVuSans-57" x="413.398438"/>
     <use xlink:href="#DejaVuSans-69" x="510.025391"/>
     <use xlink:href="#DejaVuSans-6c" x="537.808594"/>
     <use xlink:href="#DejaVuSans-6b" x="565.591797"/>
     <use xlink:href="#DejaVuSans-20" x="623.501953"/>
     <use xlink:href="#DejaVuSans-54" x="655.289062"/>
     <use xlink:href="#DejaVuSans-65" x="699.373047"/>
     <use xlink:href="#DejaVuSans-73" x="760.896484"/>
     <use xlink:href="#DejaVuSans-74" x="812.996094"/>
    </g>
    <!-- p = 0.032 -->
    <g style="fill: #721c24" transform="translate(87.850938 72.076125) scale(0.09 -0.09)">
     <defs>
      <path id="DejaVuSans-3d" d="M 678 2906 
L 4684 2906 
L 4684 2381 
L 678 2381 
L 678 2906 
z
M 678 1631 
L 4684 1631 
L 4684 1100 
L 678 1100 
L 678 1631 
z
" transform="scale(0.015625)"/>
      <path id="DejaVuSans-2e" d="M 684 794 
L 1344 794 
L 1344 0 
L 684 0 
L 684 794 
z
" transform="scale(0.015625)"/>
     </defs>
     <use xlink:href="#DejaVuSans-70"/>
     <use xlink:href="#DejaVuSans-20" x="63.476562"/>
     <use xlink:href="#DejaVuSans-3d" x="95.263672"/>
     <use xlink:href="#DejaVuSans-20" x="179.052734"/>
     <use xlink:href="#DejaVuSans-30" x="210.839844"/>
     <use xlink:href="#DejaVuSans-2e" x="274.462891"/>
     <use xlink:href="#DejaVuSans-30" x="306.25"/>
     <use xlink:href="#DejaVuSans-33" x="369.873047"/>
     <use xlink:href="#DejaVuSans-32" x="433.496094"/>
    </g>
    <!-- ⚠️ Non-normal -->
    <g style="fill: #721c24" transform="translate(87.850938 82.154156) scale(0.09 -0.09)">
     <defs>
      <path id="DejaVuSans-26a0" d="M 2897 4663 
L 2919 4663 
L 5425 28 
L 5425 0 
L 366 0 
L 341 28 
L 313 28 
Q 2797 4559 2897 4663 
z
M 2869 4075 
L 794 322 
L 794 269 
L 4972 269 
L 4972 297 
Q 2959 3988 2869 4075 
z
M 2897 3381 
Q 3138 3381 3138 3169 
Q 2975 1253 2897 1253 
Q 2825 1253 2656 3197 
Q 2734 3381 2897 3381 
z
M 2894 1022 
Q 2953 1022 3011 990 
Q 3069 959 3101 903 
Q 3134 847 3134 781 
Q 3134 719 3103 662 
Q 3072 606 3012 575 
Q 2953 544 2894 544 
Q 2831 544 2775 575 
Q 2719 606 2686 662 
Q 2653 719 2653 781 
Q 2653 847 2686 903 
Q 2719 959 2775 990 
Q 2831 1022 2894 1022 
z
" transform="scale(0.015625)"/>
      <path id="DejaVuSans-fe0f" transform="scale(0.015625)"/>
      <path id="DejaVuSans-4e" d="M 628 4666 
L 1478 4666 
L 3547 763 
L 3547 4666 
L 4159 4666 
L 4159 0 
L 3309 0 
L 1241 3903 
L 1241 0 
L 628 0 
L 628 4666 
z
" transform="scale(0.015625)"/>
     </defs>
     <use xlink:href="#DejaVuSans-26a0"/>
     <use xlink:href="#DejaVuSans-fe0f" x="89.648438"/>
     <use xlink:href="#DejaVuSans-20" x="89.648438"/>
     <use xlink:href="#DejaVuSans-4e" x="121.435547"/>
     <use xlink:href="#DejaVuSans-6f" x="196.240234"/>
     <use xlink:href="#DejaVuSans-6e" x="257.421875"/>
     <use xlink:href="#DejaVuSans-2d" x="320.800781"/>
     <use xlink:href="#DejaVuSans-6e" x="356.884766"/>
     <use xlink:href="#DejaVuSans-6f" x="420.263672"/>
     <use xlink:href="#DejaVuSans-72" x="481.445312"/>
     <use xlink:href="#DejaVuSans-6d" x="520.808594"/>
     <use xlink:href="#DejaVuSans-61" x="618.220703"/>
     <use xlink:href="#DejaVuSans-6c" x="679.5"/>
    </g>
    <!-- (α = 0.05) -->
    <g style="fill: #721c24" transform="translate(87.850938 92.232187) scale(0.09 -0.09)">
     <defs>
      <path id="DejaVuSans-28" d="M 1984 4856 
Q 1566 4138 1362 3434 
Q 1159 2731 1159 2009 
Q 1159 1288 1364 580 
Q 1569 -128 1984 -844 
L 1484 -844 
Q 1016 -109 783 600 
Q 550 1309 550 2009 
Q 550 2706 781 3412 
Q 1013 4119 1484 4856 
L 1984 4856 
z
" transform="scale(0.015625)"/>
      <path id="DejaVuSans-3b1" d="M 2644 1628 
L 2506 2350 
Q 2366 3091 1809 3091 
Q 1391 3091 1200 2747 
Q 959 2316 959 1747 
Q 959 1059 1194 731 
Q 1431 397 1809 397 
Q 2228 397 2453 1063 
L 2644 1628 
z
M 2966 2584 
L 3275 3500 
L 3788 3500 
L 3147 1603 
L 3272 919 
Q 3300 766 3409 638 
Q 3538 488 3638 488 
L 3913 488 
L 3913 0 
L 3569 0 
Q 3275 0 3013 263 
Q 2884 394 2831 669 
Q 2688 322 2394 50 
Q 2256 -78 1809 -78 
Q 1075 -78 719 397 
Q 353 888 353 1747 
Q 353 2666 750 3097 
Q 1191 3578 1809 3578 
Q 2781 3578 2966 2584 
z
" transform="scale(0.015625)"/>
      <path id="DejaVuSans-29" d="M 513 4856 
L 1013 4856 
Q 1481 4119 1714 3412 
Q 1947 2706 1947 2009 
Q 1947 1309 1714 600 
Q 1481 -109 1013 -844 
L 513 -844 
Q 928 -128 1133 580 
Q 1338 1288 1338 2009 
Q 1338 2731 1133 3434 
Q 928 4138 513 4856 
z
" transform="scale(0.015625)"/>
     </defs>
     <use xlink:href="#DejaVuSans-28"/>
     <use xlink:href="#DejaVuSans-3b1" x="39.013672"/>
     <use xlink:href="#DejaVuSans-20" x="104.931641"/>
     <use xlink:href="#DejaVuSans-3d" x="136.71875"/>
     <use xlink:href="#DejaVuSans-20" x="220.507812"/>
     <use xlink:href="#DejaVuSans-30" x="252.294922"/>
     <use xlink:href="#DejaVuSans-2e" x="315.917969"/>
     <use xlink:href="#DejaVuSans-30" x="347.705078"/>
     <use xlink:href="#DejaVuSans-35" x="411.328125"/>
     <use xlink:href="#DejaVuSans-29" x="474.951172"/>
    </g>
   </g>
   <g id="text_17">
    <!-- Q-Q Plot: Input Tokens (count) -->
    <g transform="translate(173.332188 16.318125) scale(0.12 -0.12)">
     <defs>
      <path id="DejaVuSans-50" d="M 1259 4147 
L 1259 2394 
L 2053 2394 
Q 2494 2394 2734 2622 
Q 2975 2850 2975 3272 
Q 2975 3691 2734 3919 
Q 2494 4147 2053 4147 
L 1259 4147 
z
M 628 4666 
L 2053 4666 
Q 2838 4666 3239 4311 
Q 3641 3956 3641 3272 
Q 3641 2581 3239 2228 
Q 2838 1875 2053 1875 
L 1259 1875 
L 1259 0 
L 628 0 
L 628 4666 
z
" transform="scale(0.015625)"/>
      <path id="DejaVuSans-3a" d="M 750 794 
L 1409 794 
L 1409 0 
L 750 0 
L 750 794 
z
M 750 3309 
L 1409 3309 
L 1409 2516 
L 750 2516 
L 750 3309 
z
" transform="scale(0.015625)"/>
      <path id="DejaVuSans-49" d="M 628 4666 
L 1259 4666 
L 1259 0 
L 628 0 
L 628 4666 
z
" transform="scale(0.015625)"/>
     </defs>
     <use xlink:href="#DejaVuSans-51"/>
     <use xlink:href="#DejaVuSans-2d" x="81.460938"/>
     <use xlink:href="#DejaVuSans-51" x="121.169922"/>
     <use xlink:href="#DejaVuSans-20" x="199.880859"/>
     <use xlink:href="#DejaVuSans-50" x="231.667969"/>
     <use xlink:href="#DejaVuSans-6c" x="291.970703"/>
     <use xlink:href="#DejaVuSans-6f" x="319.753906"/>
     <use xlink:href="#DejaVuSans-74" x="380.935547"/>
     <use xlink:href="#DejaVuSans-3a" x="420.144531"/>
     <use xlink:href="#DejaVuSans-20" x="453.835938"/>
     <use xlink:href="#DejaVuSans-49" x="485.623047"/>
     <use xlink:href="#DejaVuSans-6e" x="515.115234"/>
     <use xlink:href="#DejaVuSans-70" x="578.494141"/>
     <use xlink:href="#DejaVuSans-75" x="641.970703"/>
     <use xlink:href="#DejaVuSans-74" x="705.349609"/>
     <use xlink:href="#DejaVuSans-20" x="744.558594"/>
     <use xlink:href="#DejaVuSans-54" x="776.345703"/>
     <use xlink:href="#DejaVuSans-6f" x="820.429688"/>
     <use xlink:href="#DejaVuSans-6b" x="881.611328"/>
     <use xlink:href="#DejaVuSans-65" x="935.896484"/>
     <use xlink:href="#DejaVuSans-6e" x="997.419922"/>
     <use xlink:href="#DejaVuSans-73" x="1060.798828"/>
     <use xlink:href="#DejaVuSans-20" x="1112.898438"/>
     <use xlink:href="#DejaVuSans-28" x="1144.685547"/>
     <use xlink:href="#DejaVuSans-63" x="1183.699219"/>
     <use xlink:href="#DejaVuSans-6f" x="1238.679688"/>
     <use xlink:href="#DejaVuSans-75" x="1299.861328"/>
     <use xlink:href="#DejaVuSans-6e" x="1363.240234"/>
     <use xlink:href="#DejaVuSans-74" x="1426.619141"/>
     <use xlink:href="#DejaVuSans-29" x="1465.828125"/>
    </g>
    <!-- Framework: ghspec -->
    <g transform="translate(204.940938 29.7555) scale(0.12 -0.12)">
     <defs>
      <path id="DejaVuSans-46" d="M 628 4666 
L 3309 4666 
L 3309 4134 
L 1259 4134 
L 1259 2759 
L 3109 2759 
L 3109 2228 
L 1259 2228 
L 1259 0 
L 628 0 
L 628 4666 
z
" transform="scale(0.015625)"/>
      <path id="DejaVuSans-77" d="M 269 3500 
L 844 3500 
L 1563 769 
L 2278 3500 
L 2956 3500 
L 3675 769 
L 4391 3500 
L 4966 3500 
L 4050 0 
L 3372 0 
L 2619 2869 
L 1863 0 
L 1184 0 
L 269 3500 
z
" transform="scale(0.015625)"/>
      <path id="DejaVuSans-67" d="M 2906 1791 
Q 2906 2416 2648 2759 
Q 2391 3103 1925 3103 
Q 1463 3103 1205 2759 
Q 947 2416 947 1791 
Q 947 1169 1205 825 
Q 1463 481 1925 481 
Q 2391 481 2648 825 
Q 2906 1169 2906 1791 
z
M 3481 434 
Q 3481 -459 3084 -895 
Q 2688 -1331 1869 -1331 
Q 1566 -1331 1297 -1286 
Q 1028 -1241 775 -1147 
L 775 -588 
Q 1028 -725 1275 -790 
Q 1522 -856 1778 -856 
Q 2344 -856 2625 -561 
Q 2906 -266 2906 331 
L 2906 616 
Q 2728 306 2450 153 
Q 2172 0 1784 0 
Q 1141 0 747 490 
Q 353 981 353 1791 
Q 353 2603 747 3093 
Q 1141 3584 1784 3584 
Q 2172 3584 2450 3431 
Q 2728 3278 2906 2969 
L 2906 3500 
L 3481 3500 
L 3481 434 
z
" transform="scale(0.015625)"/>
     </defs>
     <use xlink:href="#DejaVuSans-46"/>
     <use xlink:href="#DejaVuSans-72" x="50.269531"/>
     <use xlink:href="#DejaVuSans-61" x="91.382812"/>
     <use xlink:href="#DejaVuSans-6d" x="152.662109"/>
     <use xlink:href="#DejaVuSans-65" x="250.074219"/>
     <use xlink:href="#DejaVuSans-77" x="311.597656"/>
     <use xlink:href="#DejaVuSans-6f" x="393.384766"/>
     <use xlink:href="#DejaVuSans-72" x="454.566406"/>
     <use xlink:href="#DejaVuSans-6b" x="495.679688"/>
     <use xlink:href="#DejaVuSans-3a" x="553.589844"/>
     <use xlink:href="#DejaVuSans-20" x="587.28125"/>
     <use xlink:href="#DejaVuSans-67" x="619.068359"/>
     <use xlink:href="#DejaVuSans-68" x="682.544922"/>
     <use xlink:href="#DejaVuSans-73" x="745.923828"/>
     <use xlink:href="#DejaVuSans-70" x="798.023438"/>
     <use xlink:href="#DejaVuSans-65" x="861.5"/>
     <use xlink:href="#DejaVuSans-63" x="923.023438"/>
    </g>
   </g>
  </g>
 </g>
 <defs>
  <clipPath id="pf145b244c7">
   <rect x="68.320937" y="35.7555" width="390.6" height="388.08"/>
  </clipPath>
 </defs>
</svg>
