<?xml version="1.0" encoding="utf-8" standalone="no"?>
<!DOCTYPE svg PUBLIC "-//W3C//DTD SVG 1.1//EN"
  "http://www.w3.org/Graphics/SVG/1.1/DTD/svg11.dtd">
<svg xmlns:xlink="http://www.w3.org/1999/xlink" width="870.303906pt" height="425.390109pt" viewBox="0 0 870.303906 425.390109" xmlns="http://www.w3.org/2000/svg" version="1.1">
 <metadata>
  <rdf:RDF xmlns:dc="http://purl.org/dc/elements/1.1/" xmlns:cc="http://creativecommons.org/ns#" xmlns:rdf="http://www.w3.org/1999/02/22-rdf-syntax-ns#">
   <cc:Work>
    <dc:type rdf:resource="http://purl.org/dc/dcmitype/StillImage"/>
    <dc:date>2025-11-03T08:51:30.612747</dc:date>
    <dc:format>image/svg+xml</dc:format>
    <dc:creator>
     <cc:Agent>
      <dc:title>Matplotlib v3.8.0, https://matplotlib.org/</dc:title>
     </cc:Agent>
    </dc:creator>
   </cc:Work>
  </rdf:RDF>
 </metadata>
 <defs>
  <style type="text/css">*{stroke-linejoin: round; stroke-linecap: butt}</style>
 </defs>
 <g id="figure_1">
  <g id="patch_1">
   <path d="M 0 425.390109 
L 870.303906 425.390109 
L 870.303906 0 
L 0 0 
z
" style="fill: #ffffff"/>
  </g>
  <g id="axes_1">
   <g id="patch_2">
    <path d="M 159.684063 368.161012 
L 800.244063 368.161012 
L 800.244063 23.837812 
L 159.684063 23.837812 
z
" style="fill: #ffffff"/>
   </g>
   <g id="matplotlib.axis_1">
    <g id="xtick_1">
     <g id="line2d_1">
      <path d="M 159.684063 368.161012 
L 159.684063 23.837812 
" clip-path="url(#pcc56d82a1c)" style="fill: none; stroke: #b0b0b0; stroke-opacity: 0.3; stroke-width: 0.8; stroke-linecap: square"/>
     </g>
     <g id="line2d_2">
      <defs>
       <path id="mb288029d58" d="M 0 0 
L 0 4.8 
" style="stroke: #000000"/>
      </defs>
      <g>
       <use xlink:href="#mb288029d58" x="159.684063" y="368.161012" style="stroke: #000000"/>
      </g>
     </g>
     <g id="text_1">
      <!-- 0 -->
      <g transform="translate(156.502813 384.05945) scale(0.1 -0.1)">
       <defs>
        <path id="DejaVuSans-30" d="M 2034 4250 
Q 1547 4250 1301 3770 
Q 1056 3291 1056 2328 
Q 1056 1369 1301 889 
Q 1547 409 2034 409 
Q 2525 409 2770 889 
Q 3016 1369 3016 2328 
Q 3016 3291 2770 3770 
Q 2525 4250 2034 4250 
z
M 2034 4750 
Q 2819 4750 3233 4129 
Q 3647 3509 3647 2328 
Q 3647 1150 3233 529 
Q 2819 -91 2034 -91 
Q 1250 -91 836 529 
Q 422 1150 422 2328 
Q 422 3509 836 4129 
Q 1250 4750 2034 4750 
z
" transform="scale(0.015625)"/>
       </defs>
       <use xlink:href="#DejaVuSans-30"/>
      </g>
     </g>
    </g>
    <g id="xtick_2">
     <g id="line2d_3">
      <path d="M 259.360726 368.161012 
L 259.360726 23.837812 
" clip-path="url(#pcc56d82a1c)" style="fill: none; stroke: #b0b0b0; stroke-opacity: 0.3; stroke-width: 0.8; stroke-linecap: square"/>
     </g>
     <g id="line2d_4">
      <g>
       <use xlink:href="#mb288029d58" x="259.360726" y="368.161012" style="stroke: #000000"/>
      </g>
     </g>
     <g id="text_2">
      <!-- 1 -->
      <g transform="translate(256.179476 384.05945) scale(0.1 -0.1)">
       <defs>
        <path id="DejaVuSans-31" d="M 794 531 
L 1825 531 
L 1825 4091 
L 703 3866 
L 703 4441 
L 1819 4666 
L 2450 4666 
L 2450 531 
L 3481 531 
L 3481 0 
L 794 0 
L 794 531 
z
" transform="scale(0.015625)"/>
       </defs>
       <use xlink:href="#DejaVuSans-31"/>
      </g>
     </g>
    </g>
    <g id="xtick_3">
     <g id="line2d_5">
      <path d="M 359.037389 368.161012 
L 359.037389 23.837812 
" clip-path="url(#pcc56d82a1c)" style="fill: none; stroke: #b0b0b0; stroke-opacity: 0.3; stroke-width: 0.8; stroke-linecap: square"/>
     </g>
     <g id="line2d_6">
      <g>
       <use xlink:href="#mb288029d58" x="359.037389" y="368.161012" style="stroke: #000000"/>
      </g>
     </g>
     <g id="text_3">
      <!-- 2 -->
      <g transform="translate(355.856139 384.05945) scale(0.1 -0.1)">
       <defs>
        <path id="DejaVuSans-32" d="M 1228 531 
L 3431 531 
L 3431 0 
L 469 0 
L 469 531 
Q 828 903 1448 1529 
Q 2069 2156 2228 2338 
Q 2531 2678 2651 2914 
Q 2772 3150 2772 3378 
Q 2772 3750 2511 3984 
Q 2250 4219 1831 4219 
Q 1534 4219 1204 4116 
Q 875 4013 500 3803 
L 500 4441 
Q 881 4594 1212 4672 
Q 1544 4750 1819 4750 
Q 2544 4750 2975 4387 
Q 3406 4025 3406 3419 
Q 3406 3131 3298 2873 
Q 3191 2616 2906 2266 
Q 2828 2175 2409 1742 
Q 1991 1309 1228 531 
z
" transform="scale(0.015625)"/>
       </defs>
       <use xlink:href="#DejaVuSans-32"/>
      </g>
     </g>
    </g>
    <g id="xtick_4">
     <g id="line2d_7">
      <path d="M 458.714052 368.161012 
L 458.714052 23.837812 
" clip-path="url(#pcc56d82a1c)" style="fill: none; stroke: #b0b0b0; stroke-opacity: 0.3; stroke-width: 0.8; stroke-linecap: square"/>
     </g>
     <g id="line2d_8">
      <g>
       <use xlink:href="#mb288029d58" x="458.714052" y="368.161012" style="stroke: #000000"/>
      </g>
     </g>
     <g id="text_4">
      <!-- 3 -->
      <g transform="translate(455.532802 384.05945) scale(0.1 -0.1)">
       <defs>
        <path id="DejaVuSans-33" d="M 2597 2516 
Q 3050 2419 3304 2112 
Q 3559 1806 3559 1356 
Q 3559 666 3084 287 
Q 2609 -91 1734 -91 
Q 1441 -91 1130 -33 
Q 819 25 488 141 
L 488 750 
Q 750 597 1062 519 
Q 1375 441 1716 441 
Q 2309 441 2620 675 
Q 2931 909 2931 1356 
Q 2931 1769 2642 2001 
Q 2353 2234 1838 2234 
L 1294 2234 
L 1294 2753 
L 1863 2753 
Q 2328 2753 2575 2939 
Q 2822 3125 2822 3475 
Q 2822 3834 2567 4026 
Q 2313 4219 1838 4219 
Q 1578 4219 1281 4162 
Q 984 4106 628 3988 
L 628 4550 
Q 988 4650 1302 4700 
Q 1616 4750 1894 4750 
Q 2613 4750 3031 4423 
Q 3450 4097 3450 3541 
Q 3450 3153 3228 2886 
Q 3006 2619 2597 2516 
z
" transform="scale(0.015625)"/>
       </defs>
       <use xlink:href="#DejaVuSans-33"/>
      </g>
     </g>
    </g>
    <g id="xtick_5">
     <g id="line2d_9">
      <path d="M 558.390715 368.161012 
L 558.390715 23.837812 
" clip-path="url(#pcc56d82a1c)" style="fill: none; stroke: #b0b0b0; stroke-opacity: 0.3; stroke-width: 0.8; stroke-linecap: square"/>
     </g>
     <g id="line2d_10">
      <g>
       <use xlink:href="#mb288029d58" x="558.390715" y="368.161012" style="stroke: #000000"/>
      </g>
     </g>
     <g id="text_5">
      <!-- 4 -->
      <g transform="translate(555.209465 384.05945) scale(0.1 -0.1)">
       <defs>
        <path id="DejaVuSans-34" d="M 2419 4116 
L 825 1625 
L 2419 1625 
L 2419 4116 
z
M 2253 4666 
L 3047 4666 
L 3047 1625 
L 3713 1625 
L 3713 1100 
L 3047 1100 
L 3047 0 
L 2419 0 
L 2419 1100 
L 313 1100 
L 313 1709 
L 2253 4666 
z
" transform="scale(0.015625)"/>
       </defs>
       <use xlink:href="#DejaVuSans-34"/>
      </g>
     </g>
    </g>
    <g id="xtick_6">
     <g id="line2d_11">
      <path d="M 658.067378 368.161012 
L 658.067378 23.837812 
" clip-path="url(#pcc56d82a1c)" style="fill: none; stroke: #b0b0b0; stroke-opacity: 0.3; stroke-width: 0.8; stroke-linecap: square"/>
     </g>
     <g id="line2d_12">
      <g>
       <use xlink:href="#mb288029d58" x="658.067378" y="368.161012" style="stroke: #000000"/>
      </g>
     </g>
     <g id="text_6">
      <!-- 5 -->
      <g transform="translate(654.886128 384.05945) scale(0.1 -0.1)">
       <defs>
        <path id="DejaVuSans-35" d="M 691 4666 
L 3169 4666 
L 3169 4134 
L 1269 4134 
L 1269 2991 
Q 1406 3038 1543 3061 
Q 1681 3084 1819 3084 
Q 2600 3084 3056 2656 
Q 3513 2228 3513 1497 
Q 3513 744 3044 326 
Q 2575 -91 1722 -91 
Q 1428 -91 1123 -41 
Q 819 9 494 109 
L 494 744 
Q 775 591 1075 516 
Q 1375 441 1709 441 
Q 2250 441 2565 725 
Q 2881 1009 2881 1497 
Q 2881 1984 2565 2268 
Q 2250 2553 1709 2553 
Q 1456 2553 1204 2497 
Q 953 2441 691 2322 
L 691 4666 
z
" transform="scale(0.015625)"/>
       </defs>
       <use xlink:href="#DejaVuSans-35"/>
      </g>
     </g>
    </g>
    <g id="xtick_7">
     <g id="line2d_13">
      <path d="M 757.744041 368.161012 
L 757.744041 23.837812 
" clip-path="url(#pcc56d82a1c)" style="fill: none; stroke: #b0b0b0; stroke-opacity: 0.3; stroke-width: 0.8; stroke-linecap: square"/>
     </g>
     <g id="line2d_14">
      <g>
       <use xlink:href="#mb288029d58" x="757.744041" y="368.161012" style="stroke: #000000"/>
      </g>
     </g>
     <g id="text_7">
      <!-- 6 -->
      <g transform="translate(754.562791 384.05945) scale(0.1 -0.1)">
       <defs>
        <path id="DejaVuSans-36" d="M 2113 2584 
Q 1688 2584 1439 2293 
Q 1191 2003 1191 1497 
Q 1191 994 1439 701 
Q 1688 409 2113 409 
Q 2538 409 2786 701 
Q 3034 994 3034 1497 
Q 3034 2003 2786 2293 
Q 2538 2584 2113 2584 
z
M 3366 4563 
L 3366 3988 
Q 3128 4100 2886 4159 
Q 2644 4219 2406 4219 
Q 1781 4219 1451 3797 
Q 1122 3375 1075 2522 
Q 1259 2794 1537 2939 
Q 1816 3084 2150 3084 
Q 2853 3084 3261 2657 
Q 3669 2231 3669 1497 
Q 3669 778 3244 343 
Q 2819 -91 2113 -91 
Q 1303 -91 875 529 
Q 447 1150 447 2328 
Q 447 3434 972 4092 
Q 1497 4750 2381 4750 
Q 2619 4750 2861 4703 
Q 3103 4656 3366 4563 
z
" transform="scale(0.015625)"/>
       </defs>
       <use xlink:href="#DejaVuSans-36"/>
      </g>
     </g>
    </g>
    <g id="text_8">
     <!-- Coefficient of Variation (CV = σ/μ) -->
     <g transform="translate(364.51 399.257262) scale(0.12 -0.12)">
      <defs>
       <path id="DejaVuSans-Bold-43" d="M 4288 256 
Q 3956 84 3597 -3 
Q 3238 -91 2847 -91 
Q 1681 -91 1000 561 
Q 319 1213 319 2328 
Q 319 3447 1000 4098 
Q 1681 4750 2847 4750 
Q 3238 4750 3597 4662 
Q 3956 4575 4288 4403 
L 4288 3438 
Q 3953 3666 3628 3772 
Q 3303 3878 2944 3878 
Q 2300 3878 1931 3465 
Q 1563 3053 1563 2328 
Q 1563 1606 1931 1193 
Q 2300 781 2944 781 
Q 3303 781 3628 887 
Q 3953 994 4288 1222 
L 4288 256 
z
" transform="scale(0.015625)"/>
       <path id="DejaVuSans-Bold-6f" d="M 2203 2784 
Q 1831 2784 1636 2517 
Q 1441 2250 1441 1747 
Q 1441 1244 1636 976 
Q 1831 709 2203 709 
Q 2569 709 2762 976 
Q 2956 1244 2956 1747 
Q 2956 2250 2762 2517 
Q 2569 2784 2203 2784 
z
M 2203 3584 
Q 3106 3584 3614 3096 
Q 4122 2609 4122 1747 
Q 4122 884 3614 396 
Q 3106 -91 2203 -91 
Q 1297 -91 786 396 
Q 275 884 275 1747 
Q 275 2609 786 3096 
Q 1297 3584 2203 3584 
z
" transform="scale(0.015625)"/>
       <path id="DejaVuSans-Bold-65" d="M 4031 1759 
L 4031 1441 
L 1416 1441 
Q 1456 1047 1700 850 
Q 1944 653 2381 653 
Q 2734 653 3104 758 
Q 3475 863 3866 1075 
L 3866 213 
Q 3469 63 3072 -14 
Q 2675 -91 2278 -91 
Q 1328 -91 801 392 
Q 275 875 275 1747 
Q 275 2603 792 3093 
Q 1309 3584 2216 3584 
Q 3041 3584 3536 3087 
Q 4031 2591 4031 1759 
z
M 2881 2131 
Q 2881 2450 2695 2645 
Q 2509 2841 2209 2841 
Q 1884 2841 1681 2658 
Q 1478 2475 1428 2131 
L 2881 2131 
z
" transform="scale(0.015625)"/>
       <path id="DejaVuSans-Bold-66" d="M 2841 4863 
L 2841 4128 
L 2222 4128 
Q 1984 4128 1890 4042 
Q 1797 3956 1797 3744 
L 1797 3500 
L 2753 3500 
L 2753 2700 
L 1797 2700 
L 1797 0 
L 678 0 
L 678 2700 
L 122 2700 
L 122 3500 
L 678 3500 
L 678 3744 
Q 678 4316 997 4589 
Q 1316 4863 1984 4863 
L 2841 4863 
z
" transform="scale(0.015625)"/>
       <path id="DejaVuSans-Bold-69" d="M 538 3500 
L 1656 3500 
L 1656 0 
L 538 0 
L 538 3500 
z
M 538 4863 
L 1656 4863 
L 1656 3950 
L 538 3950 
L 538 4863 
z
" transform="scale(0.015625)"/>
       <path id="DejaVuSans-Bold-63" d="M 3366 3391 
L 3366 2478 
Q 3138 2634 2908 2709 
Q 2678 2784 2431 2784 
Q 1963 2784 1702 2511 
Q 1441 2238 1441 1747 
Q 1441 1256 1702 982 
Q 1963 709 2431 709 
Q 2694 709 2930 787 
Q 3166 866 3366 1019 
L 3366 103 
Q 3103 6 2833 -42 
Q 2563 -91 2291 -91 
Q 1344 -91 809 395 
Q 275 881 275 1747 
Q 275 2613 809 3098 
Q 1344 3584 2291 3584 
Q 2566 3584 2833 3536 
Q 3100 3488 3366 3391 
z
" transform="scale(0.015625)"/>
       <path id="DejaVuSans-Bold-6e" d="M 4056 2131 
L 4056 0 
L 2931 0 
L 2931 347 
L 2931 1631 
Q 2931 2084 2911 2256 
Q 2891 2428 2841 2509 
Q 2775 2619 2662 2680 
Q 2550 2741 2406 2741 
Q 2056 2741 1856 2470 
Q 1656 2200 1656 1722 
L 1656 0 
L 538 0 
L 538 3500 
L 1656 3500 
L 1656 2988 
Q 1909 3294 2193 3439 
Q 2478 3584 2822 3584 
Q 3428 3584 3742 3212 
Q 4056 2841 4056 2131 
z
" transform="scale(0.015625)"/>
       <path id="DejaVuSans-Bold-74" d="M 1759 4494 
L 1759 3500 
L 2913 3500 
L 2913 2700 
L 1759 2700 
L 1759 1216 
Q 1759 972 1856 886 
Q 1953 800 2241 800 
L 2816 800 
L 2816 0 
L 1856 0 
Q 1194 0 917 276 
Q 641 553 641 1216 
L 641 2700 
L 84 2700 
L 84 3500 
L 641 3500 
L 641 4494 
L 1759 4494 
z
" transform="scale(0.015625)"/>
       <path id="DejaVuSans-Bold-20" transform="scale(0.015625)"/>
       <path id="DejaVuSans-Bold-56" d="M 31 4666 
L 1241 4666 
L 2478 1222 
L 3713 4666 
L 4922 4666 
L 3194 0 
L 1759 0 
L 31 4666 
z
" transform="scale(0.015625)"/>
       <path id="DejaVuSans-Bold-61" d="M 2106 1575 
Q 1756 1575 1579 1456 
Q 1403 1338 1403 1106 
Q 1403 894 1545 773 
Q 1688 653 1941 653 
Q 2256 653 2472 879 
Q 2688 1106 2688 1447 
L 2688 1575 
L 2106 1575 
z
M 3816 1997 
L 3816 0 
L 2688 0 
L 2688 519 
Q 2463 200 2181 54 
Q 1900 -91 1497 -91 
Q 953 -91 614 226 
Q 275 544 275 1050 
Q 275 1666 698 1953 
Q 1122 2241 2028 2241 
L 2688 2241 
L 2688 2328 
Q 2688 2594 2478 2717 
Q 2269 2841 1825 2841 
Q 1466 2841 1156 2769 
Q 847 2697 581 2553 
L 581 3406 
Q 941 3494 1303 3539 
Q 1666 3584 2028 3584 
Q 2975 3584 3395 3211 
Q 3816 2838 3816 1997 
z
" transform="scale(0.015625)"/>
       <path id="DejaVuSans-Bold-72" d="M 3138 2547 
Q 2991 2616 2845 2648 
Q 2700 2681 2553 2681 
Q 2122 2681 1889 2404 
Q 1656 2128 1656 1613 
L 1656 0 
L 538 0 
L 538 3500 
L 1656 3500 
L 1656 2925 
Q 1872 3269 2151 3426 
Q 2431 3584 2822 3584 
Q 2878 3584 2943 3579 
Q 3009 3575 3134 3559 
L 3138 2547 
z
" transform="scale(0.015625)"/>
       <path id="DejaVuSans-Bold-28" d="M 2413 -844 
L 1484 -844 
Q 1006 -72 778 623 
Q 550 1319 550 2003 
Q 550 2688 779 3389 
Q 1009 4091 1484 4856 
L 2413 4856 
Q 2013 4116 1813 3408 
Q 1613 2700 1613 2009 
Q 1613 1319 1811 609 
Q 2009 -100 2413 -844 
z
" transform="scale(0.015625)"/>
       <path id="DejaVuSans-Bold-3d" d="M 678 3084 
L 4684 3084 
L 4684 2350 
L 678 2350 
L 678 3084 
z
M 678 1663 
L 4684 1663 
L 4684 922 
L 678 922 
L 678 1663 
z
" transform="scale(0.015625)"/>
       <path id="DejaVuSans-Bold-3c3" d="M 2200 2784 
Q 1831 2784 1636 2517 
Q 1441 2250 1441 1747 
Q 1441 1244 1636 976 
Q 1831 709 2200 709 
Q 2569 709 2762 976 
Q 2956 1244 2956 1747 
Q 2956 2250 2762 2517 
Q 2569 2784 2200 2784 
z
M 4650 2700 
L 3916 2700 
Q 4122 2291 4122 1747 
Q 4122 884 3614 396 
Q 3106 -91 2203 -91 
Q 1297 -91 786 396 
Q 275 884 275 1747 
Q 275 2609 788 3097 
Q 1209 3500 2203 3500 
L 4650 3500 
L 4650 2700 
z
" transform="scale(0.015625)"/>
       <path id="DejaVuSans-Bold-2f" d="M 1644 4666 
L 2338 4666 
L 691 -594 
L 0 -594 
L 1644 4666 
z
" transform="scale(0.015625)"/>
       <path id="DejaVuSans-Bold-3bc" d="M 544 -1338 
L 544 3500 
L 1672 3500 
L 1672 1466 
Q 1672 1103 1828 926 
Q 1984 750 2303 750 
Q 2625 750 2781 926 
Q 2938 1103 2938 1466 
L 2938 3500 
L 4063 3500 
L 4063 1159 
Q 4063 938 4114 850 
Q 4166 763 4288 763 
Q 4344 763 4395 778 
Q 4447 794 4506 831 
L 4506 50 
Q 4341 -22 4195 -56 
Q 4050 -91 3909 -91 
Q 3631 -91 3454 26 
Q 3278 144 3169 403 
Q 3022 156 2811 32 
Q 2600 -91 2322 -91 
Q 2091 -91 1928 -17 
Q 1766 56 1672 206 
L 1672 -1338 
L 544 -1338 
z
" transform="scale(0.015625)"/>
       <path id="DejaVuSans-Bold-29" d="M 513 -844 
Q 913 -100 1113 609 
Q 1313 1319 1313 2009 
Q 1313 2700 1113 3408 
Q 913 4116 513 4856 
L 1441 4856 
Q 1916 4091 2145 3389 
Q 2375 2688 2375 2003 
Q 2375 1319 2147 623 
Q 1919 -72 1441 -844 
L 513 -844 
z
" transform="scale(0.015625)"/>
      </defs>
      <use xlink:href="#DejaVuSans-Bold-43"/>
      <use xlink:href="#DejaVuSans-Bold-6f" x="73.388672"/>
      <use xlink:href="#DejaVuSans-Bold-65" x="142.089844"/>
      <use xlink:href="#DejaVuSans-Bold-66" x="209.912109"/>
      <use xlink:href="#DejaVuSans-Bold-66" x="253.417969"/>
      <use xlink:href="#DejaVuSans-Bold-69" x="296.923828"/>
      <use xlink:href="#DejaVuSans-Bold-63" x="331.201172"/>
      <use xlink:href="#DejaVuSans-Bold-69" x="390.478516"/>
      <use xlink:href="#DejaVuSans-Bold-65" x="424.755859"/>
      <use xlink:href="#DejaVuSans-Bold-6e" x="492.578125"/>
      <use xlink:href="#DejaVuSans-Bold-74" x="563.769531"/>
      <use xlink:href="#DejaVuSans-Bold-20" x="611.572266"/>
      <use xlink:href="#DejaVuSans-Bold-6f" x="646.386719"/>
      <use xlink:href="#DejaVuSans-Bold-66" x="715.087891"/>
      <use xlink:href="#DejaVuSans-Bold-20" x="758.59375"/>
      <use xlink:href="#DejaVuSans-Bold-56" x="793.408203"/>
      <use xlink:href="#DejaVuSans-Bold-61" x="865.300781"/>
      <use xlink:href="#DejaVuSans-Bold-72" x="932.78125"/>
      <use xlink:href="#DejaVuSans-Bold-69" x="982.097656"/>
      <use xlink:href="#DejaVuSans-Bold-61" x="1016.375"/>
      <use xlink:href="#DejaVuSans-Bold-74" x="1083.855469"/>
      <use xlink:href="#DejaVuSans-Bold-69" x="1131.658203"/>
      <use xlink:href="#DejaVuSans-Bold-6f" x="1165.935547"/>
      <use xlink:href="#DejaVuSans-Bold-6e" x="1234.636719"/>
      <use xlink:href="#DejaVuSans-Bold-20" x="1305.828125"/>
      <use xlink:href="#DejaVuSans-Bold-28" x="1340.642578"/>
      <use xlink:href="#DejaVuSans-Bold-43" x="1386.345703"/>
      <use xlink:href="#DejaVuSans-Bold-56" x="1459.734375"/>
      <use xlink:href="#DejaVuSans-Bold-20" x="1537.126953"/>
      <use xlink:href="#DejaVuSans-Bold-3d" x="1571.941406"/>
      <use xlink:href="#DejaVuSans-Bold-20" x="1655.730469"/>
      <use xlink:href="#DejaVuSans-Bold-3c3" x="1690.544922"/>
      <use xlink:href="#DejaVuSans-Bold-2f" x="1768.425781"/>
      <use xlink:href="#DejaVuSans-Bold-3bc" x="1804.949219"/>
      <use xlink:href="#DejaVuSans-Bold-29" x="1878.533203"/>
     </g>
    </g>
   </g>
   <g id="matplotlib.axis_2">
    <g id="ytick_1">
     <g id="line2d_15">
      <path d="M 159.684063 352.509958 
L 800.244063 352.509958 
" clip-path="url(#pcc56d82a1c)" style="fill: none; stroke: #b0b0b0; stroke-opacity: 0.3; stroke-width: 0.8; stroke-linecap: square"/>
     </g>
     <g id="line2d_16">
      <defs>
       <path id="m309ab4d6b3" d="M 0 0 
L -4.8 0 
" style="stroke: #000000"/>
      </defs>
      <g>
       <use xlink:href="#m309ab4d6b3" x="159.684063" y="352.509958" style="stroke: #000000"/>
      </g>
     </g>
     <g id="text_9">
      <!-- API Calls (count) -->
      <g transform="translate(69.315312 356.309177) scale(0.1 -0.1)">
       <defs>
        <path id="DejaVuSans-41" d="M 2188 4044 
L 1331 1722 
L 3047 1722 
L 2188 4044 
z
M 1831 4666 
L 2547 4666 
L 4325 0 
L 3669 0 
L 3244 1197 
L 1141 1197 
L 716 0 
L 50 0 
L 1831 4666 
z
" transform="scale(0.015625)"/>
        <path id="DejaVuSans-50" d="M 1259 4147 
L 1259 2394 
L 2053 2394 
Q 2494 2394 2734 2622 
Q 2975 2850 2975 3272 
Q 2975 3691 2734 3919 
Q 2494 4147 2053 4147 
L 1259 4147 
z
M 628 4666 
L 2053 4666 
Q 2838 4666 3239 4311 
Q 3641 3956 3641 3272 
Q 3641 2581 3239 2228 
Q 2838 1875 2053 1875 
L 1259 1875 
L 1259 0 
L 628 0 
L 628 4666 
z
" transform="scale(0.015625)"/>
        <path id="DejaVuSans-49" d="M 628 4666 
L 1259 4666 
L 1259 0 
L 628 0 
L 628 4666 
z
" transform="scale(0.015625)"/>
        <path id="DejaVuSans-20" transform="scale(0.015625)"/>
        <path id="DejaVuSans-43" d="M 4122 4306 
L 4122 3641 
Q 3803 3938 3442 4084 
Q 3081 4231 2675 4231 
Q 1875 4231 1450 3742 
Q 1025 3253 1025 2328 
Q 1025 1406 1450 917 
Q 1875 428 2675 428 
Q 3081 428 3442 575 
Q 3803 722 4122 1019 
L 4122 359 
Q 3791 134 3420 21 
Q 3050 -91 2638 -91 
Q 1578 -91 968 557 
Q 359 1206 359 2328 
Q 359 3453 968 4101 
Q 1578 4750 2638 4750 
Q 3056 4750 3426 4639 
Q 3797 4528 4122 4306 
z
" transform="scale(0.015625)"/>
        <path id="DejaVuSans-61" d="M 2194 1759 
Q 1497 1759 1228 1600 
Q 959 1441 959 1056 
Q 959 750 1161 570 
Q 1363 391 1709 391 
Q 2188 391 2477 730 
Q 2766 1069 2766 1631 
L 2766 1759 
L 2194 1759 
z
M 3341 1997 
L 3341 0 
L 2766 0 
L 2766 531 
Q 2569 213 2275 61 
Q 1981 -91 1556 -91 
Q 1019 -91 701 211 
Q 384 513 384 1019 
Q 384 1609 779 1909 
Q 1175 2209 1959 2209 
L 2766 2209 
L 2766 2266 
Q 2766 2663 2505 2880 
Q 2244 3097 1772 3097 
Q 1472 3097 1187 3025 
Q 903 2953 641 2809 
L 641 3341 
Q 956 3463 1253 3523 
Q 1550 3584 1831 3584 
Q 2591 3584 2966 3190 
Q 3341 2797 3341 1997 
z
" transform="scale(0.015625)"/>
        <path id="DejaVuSans-6c" d="M 603 4863 
L 1178 4863 
L 1178 0 
L 603 0 
L 603 4863 
z
" transform="scale(0.015625)"/>
        <path id="DejaVuSans-73" d="M 2834 3397 
L 2834 2853 
Q 2591 2978 2328 3040 
Q 2066 3103 1784 3103 
Q 1356 3103 1142 2972 
Q 928 2841 928 2578 
Q 928 2378 1081 2264 
Q 1234 2150 1697 2047 
L 1894 2003 
Q 2506 1872 2764 1633 
Q 3022 1394 3022 966 
Q 3022 478 2636 193 
Q 2250 -91 1575 -91 
Q 1294 -91 989 -36 
Q 684 19 347 128 
L 347 722 
Q 666 556 975 473 
Q 1284 391 1588 391 
Q 1994 391 2212 530 
Q 2431 669 2431 922 
Q 2431 1156 2273 1281 
Q 2116 1406 1581 1522 
L 1381 1569 
Q 847 1681 609 1914 
Q 372 2147 372 2553 
Q 372 3047 722 3315 
Q 1072 3584 1716 3584 
Q 2034 3584 2315 3537 
Q 2597 3491 2834 3397 
z
" transform="scale(0.015625)"/>
        <path id="DejaVuSans-28" d="M 1984 4856 
Q 1566 4138 1362 3434 
Q 1159 2731 1159 2009 
Q 1159 1288 1364 580 
Q 1569 -128 1984 -844 
L 1484 -844 
Q 1016 -109 783 600 
Q 550 1309 550 2009 
Q 550 2706 781 3412 
Q 1013 4119 1484 4856 
L 1984 4856 
z
" transform="scale(0.015625)"/>
        <path id="DejaVuSans-63" d="M 3122 3366 
L 3122 2828 
Q 2878 2963 2633 3030 
Q 2388 3097 2138 3097 
Q 1578 3097 1268 2742 
Q 959 2388 959 1747 
Q 959 1106 1268 751 
Q 1578 397 2138 397 
Q 2388 397 2633 464 
Q 2878 531 3122 666 
L 3122 134 
Q 2881 22 2623 -34 
Q 2366 -91 2075 -91 
Q 1284 -91 818 406 
Q 353 903 353 1747 
Q 353 2603 823 3093 
Q 1294 3584 2113 3584 
Q 2378 3584 2631 3529 
Q 2884 3475 3122 3366 
z
" transform="scale(0.015625)"/>
        <path id="DejaVuSans-6f" d="M 1959 3097 
Q 1497 3097 1228 2736 
Q 959 2375 959 1747 
Q 959 1119 1226 758 
Q 1494 397 1959 397 
Q 2419 397 2687 759 
Q 2956 1122 2956 1747 
Q 2956 2369 2687 2733 
Q 2419 3097 1959 3097 
z
M 1959 3584 
Q 2709 3584 3137 3096 
Q 3566 2609 3566 1747 
Q 3566 888 3137 398 
Q 2709 -91 1959 -91 
Q 1206 -91 779 398 
Q 353 888 353 1747 
Q 353 2609 779 3096 
Q 1206 3584 1959 3584 
z
" transform="scale(0.015625)"/>
        <path id="DejaVuSans-75" d="M 544 1381 
L 544 3500 
L 1119 3500 
L 1119 1403 
Q 1119 906 1312 657 
Q 1506 409 1894 409 
Q 2359 409 2629 706 
Q 2900 1003 2900 1516 
L 2900 3500 
L 3475 3500 
L 3475 0 
L 2900 0 
L 2900 538 
Q 2691 219 2414 64 
Q 2138 -91 1772 -91 
Q 1169 -91 856 284 
Q 544 659 544 1381 
z
M 1991 3584 
L 1991 3584 
z
" transform="scale(0.015625)"/>
        <path id="DejaVuSans-6e" d="M 3513 2113 
L 3513 0 
L 2938 0 
L 2938 2094 
Q 2938 2591 2744 2837 
Q 2550 3084 2163 3084 
Q 1697 3084 1428 2787 
Q 1159 2491 1159 1978 
L 1159 0 
L 581 0 
L 581 3500 
L 1159 3500 
L 1159 2956 
Q 1366 3272 1645 3428 
Q 1925 3584 2291 3584 
Q 2894 3584 3203 3211 
Q 3513 2838 3513 2113 
z
" transform="scale(0.015625)"/>
        <path id="DejaVuSans-74" d="M 1172 4494 
L 1172 3500 
L 2356 3500 
L 2356 3053 
L 1172 3053 
L 1172 1153 
Q 1172 725 1289 603 
Q 1406 481 1766 481 
L 2356 481 
L 2356 0 
L 1766 0 
Q 1100 0 847 248 
Q 594 497 594 1153 
L 594 3053 
L 172 3053 
L 172 3500 
L 594 3500 
L 594 4494 
L 1172 4494 
z
" transform="scale(0.015625)"/>
        <path id="DejaVuSans-29" d="M 513 4856 
L 1013 4856 
Q 1481 4119 1714 3412 
Q 1947 2706 1947 2009 
Q 1947 1309 1714 600 
Q 1481 -109 1013 -844 
L 513 -844 
Q 928 -128 1133 580 
Q 1338 1288 1338 2009 
Q 1338 2731 1133 3434 
Q 928 4138 513 4856 
z
" transform="scale(0.015625)"/>
       </defs>
       <use xlink:href="#DejaVuSans-41"/>
       <use xlink:href="#DejaVuSans-50" x="68.408203"/>
       <use xlink:href="#DejaVuSans-49" x="128.710938"/>
       <use xlink:href="#DejaVuSans-20" x="158.203125"/>
       <use xlink:href="#DejaVuSans-43" x="189.990234"/>
       <use xlink:href="#DejaVuSans-61" x="259.814453"/>
       <use xlink:href="#DejaVuSans-6c" x="321.09375"/>
       <use xlink:href="#DejaVuSans-6c" x="348.876953"/>
       <use xlink:href="#DejaVuSans-73" x="376.660156"/>
       <use xlink:href="#DejaVuSans-20" x="428.759766"/>
       <use xlink:href="#DejaVuSans-28" x="460.546875"/>
       <use xlink:href="#DejaVuSans-63" x="499.560547"/>
       <use xlink:href="#DejaVuSans-6f" x="554.541016"/>
       <use xlink:href="#DejaVuSans-75" x="615.722656"/>
       <use xlink:href="#DejaVuSans-6e" x="679.101562"/>
       <use xlink:href="#DejaVuSans-74" x="742.480469"/>
       <use xlink:href="#DejaVuSans-29" x="781.689453"/>
      </g>
     </g>
    </g>
    <g id="ytick_2">
     <g id="line2d_17">
      <path d="M 159.684063 300.339776 
L 800.244063 300.339776 
" clip-path="url(#pcc56d82a1c)" style="fill: none; stroke: #b0b0b0; stroke-opacity: 0.3; stroke-width: 0.8; stroke-linecap: square"/>
     </g>
     <g id="line2d_18">
      <g>
       <use xlink:href="#m309ab4d6b3" x="159.684063" y="300.339776" style="stroke: #000000"/>
      </g>
     </g>
     <g id="text_10">
      <!-- Cached Tokens (count) -->
      <g transform="translate(37.909062 304.138995) scale(0.1 -0.1)">
       <defs>
        <path id="DejaVuSans-68" d="M 3513 2113 
L 3513 0 
L 2938 0 
L 2938 2094 
Q 2938 2591 2744 2837 
Q 2550 3084 2163 3084 
Q 1697 3084 1428 2787 
Q 1159 2491 1159 1978 
L 1159 0 
L 581 0 
L 581 4863 
L 1159 4863 
L 1159 2956 
Q 1366 3272 1645 3428 
Q 1925 3584 2291 3584 
Q 2894 3584 3203 3211 
Q 3513 2838 3513 2113 
z
" transform="scale(0.015625)"/>
        <path id="DejaVuSans-65" d="M 3597 1894 
L 3597 1613 
L 953 1613 
Q 991 1019 1311 708 
Q 1631 397 2203 397 
Q 2534 397 2845 478 
Q 3156 559 3463 722 
L 3463 178 
Q 3153 47 2828 -22 
Q 2503 -91 2169 -91 
Q 1331 -91 842 396 
Q 353 884 353 1716 
Q 353 2575 817 3079 
Q 1281 3584 2069 3584 
Q 2775 3584 3186 3129 
Q 3597 2675 3597 1894 
z
M 3022 2063 
Q 3016 2534 2758 2815 
Q 2500 3097 2075 3097 
Q 1594 3097 1305 2825 
Q 1016 2553 972 2059 
L 3022 2063 
z
" transform="scale(0.015625)"/>
        <path id="DejaVuSans-64" d="M 2906 2969 
L 2906 4863 
L 3481 4863 
L 3481 0 
L 2906 0 
L 2906 525 
Q 2725 213 2448 61 
Q 2172 -91 1784 -91 
Q 1150 -91 751 415 
Q 353 922 353 1747 
Q 353 2572 751 3078 
Q 1150 3584 1784 3584 
Q 2172 3584 2448 3432 
Q 2725 3281 2906 2969 
z
M 947 1747 
Q 947 1113 1208 752 
Q 1469 391 1925 391 
Q 2381 391 2643 752 
Q 2906 1113 2906 1747 
Q 2906 2381 2643 2742 
Q 2381 3103 1925 3103 
Q 1469 3103 1208 2742 
Q 947 2381 947 1747 
z
" transform="scale(0.015625)"/>
        <path id="DejaVuSans-54" d="M -19 4666 
L 3928 4666 
L 3928 4134 
L 2272 4134 
L 2272 0 
L 1638 0 
L 1638 4134 
L -19 4134 
L -19 4666 
z
" transform="scale(0.015625)"/>
        <path id="DejaVuSans-6b" d="M 581 4863 
L 1159 4863 
L 1159 1991 
L 2875 3500 
L 3609 3500 
L 1753 1863 
L 3688 0 
L 2938 0 
L 1159 1709 
L 1159 0 
L 581 0 
L 581 4863 
z
" transform="scale(0.015625)"/>
       </defs>
       <use xlink:href="#DejaVuSans-43"/>
       <use xlink:href="#DejaVuSans-61" x="69.824219"/>
       <use xlink:href="#DejaVuSans-63" x="131.103516"/>
       <use xlink:href="#DejaVuSans-68" x="186.083984"/>
       <use xlink:href="#DejaVuSans-65" x="249.462891"/>
       <use xlink:href="#DejaVuSans-64" x="310.986328"/>
       <use xlink:href="#DejaVuSans-20" x="374.462891"/>
       <use xlink:href="#DejaVuSans-54" x="406.25"/>
       <use xlink:href="#DejaVuSans-6f" x="450.333984"/>
       <use xlink:href="#DejaVuSans-6b" x="511.515625"/>
       <use xlink:href="#DejaVuSans-65" x="565.800781"/>
       <use xlink:href="#DejaVuSans-6e" x="627.324219"/>
       <use xlink:href="#DejaVuSans-73" x="690.703125"/>
       <use xlink:href="#DejaVuSans-20" x="742.802734"/>
       <use xlink:href="#DejaVuSans-28" x="774.589844"/>
       <use xlink:href="#DejaVuSans-63" x="813.603516"/>
       <use xlink:href="#DejaVuSans-6f" x="868.583984"/>
       <use xlink:href="#DejaVuSans-75" x="929.765625"/>
       <use xlink:href="#DejaVuSans-6e" x="993.144531"/>
       <use xlink:href="#DejaVuSans-74" x="1056.523438"/>
       <use xlink:href="#DejaVuSans-29" x="1095.732422"/>
      </g>
     </g>
    </g>
    <g id="ytick_3">
     <g id="line2d_19">
      <path d="M 159.684063 248.169594 
L 800.244063 248.169594 
" clip-path="url(#pcc56d82a1c)" style="fill: none; stroke: #b0b0b0; stroke-opacity: 0.3; stroke-width: 0.8; stroke-linecap: square"/>
     </g>
     <g id="line2d_20">
      <g>
       <use xlink:href="#m309ab4d6b3" x="159.684063" y="248.169594" style="stroke: #000000"/>
      </g>
     </g>
     <g id="text_11">
      <!-- Execution Time (seconds) -->
      <g transform="translate(22.81375 251.968813) scale(0.1 -0.1)">
       <defs>
        <path id="DejaVuSans-45" d="M 628 4666 
L 3578 4666 
L 3578 4134 
L 1259 4134 
L 1259 2753 
L 3481 2753 
L 3481 2222 
L 1259 2222 
L 1259 531 
L 3634 531 
L 3634 0 
L 628 0 
L 628 4666 
z
" transform="scale(0.015625)"/>
        <path id="DejaVuSans-78" d="M 3513 3500 
L 2247 1797 
L 3578 0 
L 2900 0 
L 1881 1375 
L 863 0 
L 184 0 
L 1544 1831 
L 300 3500 
L 978 3500 
L 1906 2253 
L 2834 3500 
L 3513 3500 
z
" transform="scale(0.015625)"/>
        <path id="DejaVuSans-69" d="M 603 3500 
L 1178 3500 
L 1178 0 
L 603 0 
L 603 3500 
z
M 603 4863 
L 1178 4863 
L 1178 4134 
L 603 4134 
L 603 4863 
z
" transform="scale(0.015625)"/>
        <path id="DejaVuSans-6d" d="M 3328 2828 
Q 3544 3216 3844 3400 
Q 4144 3584 4550 3584 
Q 5097 3584 5394 3201 
Q 5691 2819 5691 2113 
L 5691 0 
L 5113 0 
L 5113 2094 
Q 5113 2597 4934 2840 
Q 4756 3084 4391 3084 
Q 3944 3084 3684 2787 
Q 3425 2491 3425 1978 
L 3425 0 
L 2847 0 
L 2847 2094 
Q 2847 2600 2669 2842 
Q 2491 3084 2119 3084 
Q 1678 3084 1418 2786 
Q 1159 2488 1159 1978 
L 1159 0 
L 581 0 
L 581 3500 
L 1159 3500 
L 1159 2956 
Q 1356 3278 1631 3431 
Q 1906 3584 2284 3584 
Q 2666 3584 2933 3390 
Q 3200 3197 3328 2828 
z
" transform="scale(0.015625)"/>
       </defs>
       <use xlink:href="#DejaVuSans-45"/>
       <use xlink:href="#DejaVuSans-78" x="63.183594"/>
       <use xlink:href="#DejaVuSans-65" x="119.238281"/>
       <use xlink:href="#DejaVuSans-63" x="180.761719"/>
       <use xlink:href="#DejaVuSans-75" x="235.742188"/>
       <use xlink:href="#DejaVuSans-74" x="299.121094"/>
       <use xlink:href="#DejaVuSans-69" x="338.330078"/>
       <use xlink:href="#DejaVuSans-6f" x="366.113281"/>
       <use xlink:href="#DejaVuSans-6e" x="427.294922"/>
       <use xlink:href="#DejaVuSans-20" x="490.673828"/>
       <use xlink:href="#DejaVuSans-54" x="522.460938"/>
       <use xlink:href="#DejaVuSans-69" x="580.419922"/>
       <use xlink:href="#DejaVuSans-6d" x="608.203125"/>
       <use xlink:href="#DejaVuSans-65" x="705.615234"/>
       <use xlink:href="#DejaVuSans-20" x="767.138672"/>
       <use xlink:href="#DejaVuSans-28" x="798.925781"/>
       <use xlink:href="#DejaVuSans-73" x="837.939453"/>
       <use xlink:href="#DejaVuSans-65" x="890.039062"/>
       <use xlink:href="#DejaVuSans-63" x="951.5625"/>
       <use xlink:href="#DejaVuSans-6f" x="1006.542969"/>
       <use xlink:href="#DejaVuSans-6e" x="1067.724609"/>
       <use xlink:href="#DejaVuSans-64" x="1131.103516"/>
       <use xlink:href="#DejaVuSans-73" x="1194.580078"/>
       <use xlink:href="#DejaVuSans-29" x="1246.679688"/>
      </g>
     </g>
    </g>
    <g id="ytick_4">
     <g id="line2d_21">
      <path d="M 159.684063 195.999412 
L 800.244063 195.999412 
" clip-path="url(#pcc56d82a1c)" style="fill: none; stroke: #b0b0b0; stroke-opacity: 0.3; stroke-width: 0.8; stroke-linecap: square"/>
     </g>
     <g id="line2d_22">
      <g>
       <use xlink:href="#m309ab4d6b3" x="159.684063" y="195.999412" style="stroke: #000000"/>
      </g>
     </g>
     <g id="text_12">
      <!-- Input Tokens (count) -->
      <g transform="translate(49.46375 199.798631) scale(0.1 -0.1)">
       <defs>
        <path id="DejaVuSans-70" d="M 1159 525 
L 1159 -1331 
L 581 -1331 
L 581 3500 
L 1159 3500 
L 1159 2969 
Q 1341 3281 1617 3432 
Q 1894 3584 2278 3584 
Q 2916 3584 3314 3078 
Q 3713 2572 3713 1747 
Q 3713 922 3314 415 
Q 2916 -91 2278 -91 
Q 1894 -91 1617 61 
Q 1341 213 1159 525 
z
M 3116 1747 
Q 3116 2381 2855 2742 
Q 2594 3103 2138 3103 
Q 1681 3103 1420 2742 
Q 1159 2381 1159 1747 
Q 1159 1113 1420 752 
Q 1681 391 2138 391 
Q 2594 391 2855 752 
Q 3116 1113 3116 1747 
z
" transform="scale(0.015625)"/>
       </defs>
       <use xlink:href="#DejaVuSans-49"/>
       <use xlink:href="#DejaVuSans-6e" x="29.492188"/>
       <use xlink:href="#DejaVuSans-70" x="92.871094"/>
       <use xlink:href="#DejaVuSans-75" x="156.347656"/>
       <use xlink:href="#DejaVuSans-74" x="219.726562"/>
       <use xlink:href="#DejaVuSans-20" x="258.935547"/>
       <use xlink:href="#DejaVuSans-54" x="290.722656"/>
       <use xlink:href="#DejaVuSans-6f" x="334.806641"/>
       <use xlink:href="#DejaVuSans-6b" x="395.988281"/>
       <use xlink:href="#DejaVuSans-65" x="450.273438"/>
       <use xlink:href="#DejaVuSans-6e" x="511.796875"/>
       <use xlink:href="#DejaVuSans-73" x="575.175781"/>
       <use xlink:href="#DejaVuSans-20" x="627.275391"/>
       <use xlink:href="#DejaVuSans-28" x="659.0625"/>
       <use xlink:href="#DejaVuSans-63" x="698.076172"/>
       <use xlink:href="#DejaVuSans-6f" x="753.056641"/>
       <use xlink:href="#DejaVuSans-75" x="814.238281"/>
       <use xlink:href="#DejaVuSans-6e" x="877.617188"/>
       <use xlink:href="#DejaVuSans-74" x="940.996094"/>
       <use xlink:href="#DejaVuSans-29" x="980.205078"/>
      </g>
     </g>
    </g>
    <g id="ytick_5">
     <g id="line2d_23">
      <path d="M 159.684063 143.829231 
L 800.244063 143.829231 
" clip-path="url(#pcc56d82a1c)" style="fill: none; stroke: #b0b0b0; stroke-opacity: 0.3; stroke-width: 0.8; stroke-linecap: square"/>
     </g>
     <g id="line2d_24">
      <g>
       <use xlink:href="#m309ab4d6b3" x="159.684063" y="143.829231" style="stroke: #000000"/>
      </g>
     </g>
     <g id="text_13">
      <!-- Output Tokens (count) -->
      <g transform="translate(40.621562 147.628449) scale(0.1 -0.1)">
       <defs>
        <path id="DejaVuSans-4f" d="M 2522 4238 
Q 1834 4238 1429 3725 
Q 1025 3213 1025 2328 
Q 1025 1447 1429 934 
Q 1834 422 2522 422 
Q 3209 422 3611 934 
Q 4013 1447 4013 2328 
Q 4013 3213 3611 3725 
Q 3209 4238 2522 4238 
z
M 2522 4750 
Q 3503 4750 4090 4092 
Q 4678 3434 4678 2328 
Q 4678 1225 4090 567 
Q 3503 -91 2522 -91 
Q 1538 -91 948 565 
Q 359 1222 359 2328 
Q 359 3434 948 4092 
Q 1538 4750 2522 4750 
z
" transform="scale(0.015625)"/>
       </defs>
       <use xlink:href="#DejaVuSans-4f"/>
       <use xlink:href="#DejaVuSans-75" x="78.710938"/>
       <use xlink:href="#DejaVuSans-74" x="142.089844"/>
       <use xlink:href="#DejaVuSans-70" x="181.298828"/>
       <use xlink:href="#DejaVuSans-75" x="244.775391"/>
       <use xlink:href="#DejaVuSans-74" x="308.154297"/>
       <use xlink:href="#DejaVuSans-20" x="347.363281"/>
       <use xlink:href="#DejaVuSans-54" x="379.150391"/>
       <use xlink:href="#DejaVuSans-6f" x="423.234375"/>
       <use xlink:href="#DejaVuSans-6b" x="484.416016"/>
       <use xlink:href="#DejaVuSans-65" x="538.701172"/>
       <use xlink:href="#DejaVuSans-6e" x="600.224609"/>
       <use xlink:href="#DejaVuSans-73" x="663.603516"/>
       <use xlink:href="#DejaVuSans-20" x="715.703125"/>
       <use xlink:href="#DejaVuSans-28" x="747.490234"/>
       <use xlink:href="#DejaVuSans-63" x="786.503906"/>
       <use xlink:href="#DejaVuSans-6f" x="841.484375"/>
       <use xlink:href="#DejaVuSans-75" x="902.666016"/>
       <use xlink:href="#DejaVuSans-6e" x="966.044922"/>
       <use xlink:href="#DejaVuSans-74" x="1029.423828"/>
       <use xlink:href="#DejaVuSans-29" x="1068.632812"/>
      </g>
     </g>
    </g>
    <g id="ytick_6">
     <g id="line2d_25">
      <path d="M 159.684063 91.659049 
L 800.244063 91.659049 
" clip-path="url(#pcc56d82a1c)" style="fill: none; stroke: #b0b0b0; stroke-opacity: 0.3; stroke-width: 0.8; stroke-linecap: square"/>
     </g>
     <g id="line2d_26">
      <g>
       <use xlink:href="#m309ab4d6b3" x="159.684063" y="91.659049" style="stroke: #000000"/>
      </g>
     </g>
     <g id="text_14">
      <!-- Total Tokens (count) -->
      <g transform="translate(52.004375 95.458268) scale(0.1 -0.1)">
       <use xlink:href="#DejaVuSans-54"/>
       <use xlink:href="#DejaVuSans-6f" x="44.083984"/>
       <use xlink:href="#DejaVuSans-74" x="105.265625"/>
       <use xlink:href="#DejaVuSans-61" x="144.474609"/>
       <use xlink:href="#DejaVuSans-6c" x="205.753906"/>
       <use xlink:href="#DejaVuSans-20" x="233.537109"/>
       <use xlink:href="#DejaVuSans-54" x="265.324219"/>
       <use xlink:href="#DejaVuSans-6f" x="309.408203"/>
       <use xlink:href="#DejaVuSans-6b" x="370.589844"/>
       <use xlink:href="#DejaVuSans-65" x="424.875"/>
       <use xlink:href="#DejaVuSans-6e" x="486.398438"/>
       <use xlink:href="#DejaVuSans-73" x="549.777344"/>
       <use xlink:href="#DejaVuSans-20" x="601.876953"/>
       <use xlink:href="#DejaVuSans-28" x="633.664062"/>
       <use xlink:href="#DejaVuSans-63" x="672.677734"/>
       <use xlink:href="#DejaVuSans-6f" x="727.658203"/>
       <use xlink:href="#DejaVuSans-75" x="788.839844"/>
       <use xlink:href="#DejaVuSans-6e" x="852.21875"/>
       <use xlink:href="#DejaVuSans-74" x="915.597656"/>
       <use xlink:href="#DejaVuSans-29" x="954.806641"/>
      </g>
     </g>
    </g>
    <g id="ytick_7">
     <g id="line2d_27">
      <path d="M 159.684063 39.488867 
L 800.244063 39.488867 
" clip-path="url(#pcc56d82a1c)" style="fill: none; stroke: #b0b0b0; stroke-opacity: 0.3; stroke-width: 0.8; stroke-linecap: square"/>
     </g>
     <g id="line2d_28">
      <g>
       <use xlink:href="#m309ab4d6b3" x="159.684063" y="39.488867" style="stroke: #000000"/>
      </g>
     </g>
     <g id="text_15">
      <!-- Total Cost (USD) -->
      <g transform="translate(70.273125 43.288086) scale(0.1 -0.1)">
       <defs>
        <path id="DejaVuSans-55" d="M 556 4666 
L 1191 4666 
L 1191 1831 
Q 1191 1081 1462 751 
Q 1734 422 2344 422 
Q 2950 422 3222 751 
Q 3494 1081 3494 1831 
L 3494 4666 
L 4128 4666 
L 4128 1753 
Q 4128 841 3676 375 
Q 3225 -91 2344 -91 
Q 1459 -91 1007 375 
Q 556 841 556 1753 
L 556 4666 
z
" transform="scale(0.015625)"/>
        <path id="DejaVuSans-53" d="M 3425 4513 
L 3425 3897 
Q 3066 4069 2747 4153 
Q 2428 4238 2131 4238 
Q 1616 4238 1336 4038 
Q 1056 3838 1056 3469 
Q 1056 3159 1242 3001 
Q 1428 2844 1947 2747 
L 2328 2669 
Q 3034 2534 3370 2195 
Q 3706 1856 3706 1288 
Q 3706 609 3251 259 
Q 2797 -91 1919 -91 
Q 1588 -91 1214 -16 
Q 841 59 441 206 
L 441 856 
Q 825 641 1194 531 
Q 1563 422 1919 422 
Q 2459 422 2753 634 
Q 3047 847 3047 1241 
Q 3047 1584 2836 1778 
Q 2625 1972 2144 2069 
L 1759 2144 
Q 1053 2284 737 2584 
Q 422 2884 422 3419 
Q 422 4038 858 4394 
Q 1294 4750 2059 4750 
Q 2388 4750 2728 4690 
Q 3069 4631 3425 4513 
z
" transform="scale(0.015625)"/>
        <path id="DejaVuSans-44" d="M 1259 4147 
L 1259 519 
L 2022 519 
Q 2988 519 3436 956 
Q 3884 1394 3884 2338 
Q 3884 3275 3436 3711 
Q 2988 4147 2022 4147 
L 1259 4147 
z
M 628 4666 
L 1925 4666 
Q 3281 4666 3915 4102 
Q 4550 3538 4550 2338 
Q 4550 1131 3912 565 
Q 3275 0 1925 0 
L 628 0 
L 628 4666 
z
" transform="scale(0.015625)"/>
       </defs>
       <use xlink:href="#DejaVuSans-54"/>
       <use xlink:href="#DejaVuSans-6f" x="44.083984"/>
       <use xlink:href="#DejaVuSans-74" x="105.265625"/>
       <use xlink:href="#DejaVuSans-61" x="144.474609"/>
       <use xlink:href="#DejaVuSans-6c" x="205.753906"/>
       <use xlink:href="#DejaVuSans-20" x="233.537109"/>
       <use xlink:href="#DejaVuSans-43" x="265.324219"/>
       <use xlink:href="#DejaVuSans-6f" x="335.148438"/>
       <use xlink:href="#DejaVuSans-73" x="396.330078"/>
       <use xlink:href="#DejaVuSans-74" x="448.429688"/>
       <use xlink:href="#DejaVuSans-20" x="487.638672"/>
       <use xlink:href="#DejaVuSans-28" x="519.425781"/>
       <use xlink:href="#DejaVuSans-55" x="558.439453"/>
       <use xlink:href="#DejaVuSans-53" x="631.632812"/>
       <use xlink:href="#DejaVuSans-44" x="695.109375"/>
       <use xlink:href="#DejaVuSans-29" x="772.111328"/>
      </g>
     </g>
    </g>
    <g id="text_16">
     <!-- Metric -->
     <g transform="translate(16.318125 217.48035) rotate(-90) scale(0.12 -0.12)">
      <defs>
       <path id="DejaVuSans-Bold-4d" d="M 588 4666 
L 2119 4666 
L 3181 2169 
L 4250 4666 
L 5778 4666 
L 5778 0 
L 4641 0 
L 4641 3413 
L 3566 897 
L 2803 897 
L 1728 3413 
L 1728 0 
L 588 0 
L 588 4666 
z
" transform="scale(0.015625)"/>
      </defs>
      <use xlink:href="#DejaVuSans-Bold-4d"/>
      <use xlink:href="#DejaVuSans-Bold-65" x="99.511719"/>
      <use xlink:href="#DejaVuSans-Bold-74" x="167.333984"/>
      <use xlink:href="#DejaVuSans-Bold-72" x="215.136719"/>
      <use xlink:href="#DejaVuSans-Bold-69" x="264.453125"/>
      <use xlink:href="#DejaVuSans-Bold-63" x="298.730469"/>
     </g>
    </g>
   </g>
   <g id="PathCollection_1">
    <defs>
     <path id="m836bf8cd87" d="M 0 5 
C 1.326016 5 2.597899 4.473168 3.535534 3.535534 
C 4.473168 2.597899 5 1.326016 5 0 
C 5 -1.326016 4.473168 -2.597899 3.535534 -3.535534 
C 2.597899 -4.473168 1.326016 -5 0 -5 
C -1.326016 -5 -2.597899 -4.473168 -3.535534 -3.535534 
C -4.473168 -2.597899 -5 -1.326016 -5 0 
C -5 1.326016 -4.473168 2.597899 -3.535534 3.535534 
C -2.597899 4.473168 -1.326016 5 0 5 
z
" style="stroke: #000000; stroke-opacity: 0.7; stroke-width: 1.5"/>
    </defs>
    <g clip-path="url(#pcc56d82a1c)">
     <use xlink:href="#m836bf8cd87" x="170.872989" y="352.509958" style="fill: #029e73; fill-opacity: 0.7; stroke: #000000; stroke-opacity: 0.7; stroke-width: 1.5"/>
    </g>
   </g>
   <g id="PathCollection_2">
    <defs>
     <path id="mb2d5d50ddd" d="M 0 5 
C 1.326016 5 2.597899 4.473168 3.535534 3.535534 
C 4.473168 2.597899 5 1.326016 5 0 
C 5 -1.326016 4.473168 -2.597899 3.535534 -3.535534 
C 2.597899 -4.473168 1.326016 -5 0 -5 
C -1.326016 -5 -2.597899 -4.473168 -3.535534 -3.535534 
C -4.473168 -2.597899 -5 -1.326016 -5 0 
C -5 1.326016 -4.473168 2.597899 -3.535534 3.535534 
C -2.597899 4.473168 -1.326016 5 0 5 
z
" style="stroke: #000000; stroke-opacity: 0.7; stroke-width: 1.5"/>
    </defs>
    <g clip-path="url(#pcc56d82a1c)">
     <use xlink:href="#mb2d5d50ddd" x="162.440949" y="352.509958" style="fill: #0173b2; fill-opacity: 0.7; stroke: #000000; stroke-opacity: 0.7; stroke-width: 1.5"/>
    </g>
   </g>
   <g id="PathCollection_3">
    <defs>
     <path id="m8f3042c448" d="M 0 5 
C 1.326016 5 2.597899 4.473168 3.535534 3.535534 
C 4.473168 2.597899 5 1.326016 5 0 
C 5 -1.326016 4.473168 -2.597899 3.535534 -3.535534 
C 2.597899 -4.473168 1.326016 -5 0 -5 
C -1.326016 -5 -2.597899 -4.473168 -3.535534 -3.535534 
C -4.473168 -2.597899 -5 -1.326016 -5 0 
C -5 1.326016 -4.473168 2.597899 -3.535534 3.535534 
C -2.597899 4.473168 -1.326016 5 0 5 
z
" style="stroke: #000000; stroke-opacity: 0.7; stroke-width: 1.5"/>
    </defs>
    <g clip-path="url(#pcc56d82a1c)">
     <use xlink:href="#m8f3042c448" x="176.909169" y="352.509958" style="fill: #de8f05; fill-opacity: 0.7; stroke: #000000; stroke-opacity: 0.7; stroke-width: 1.5"/>
    </g>
   </g>
   <g id="PathCollection_4">
    <g clip-path="url(#pcc56d82a1c)">
     <use xlink:href="#m836bf8cd87" x="173.16003" y="300.339776" style="fill: #029e73; fill-opacity: 0.7; stroke: #000000; stroke-opacity: 0.7; stroke-width: 1.5"/>
    </g>
   </g>
   <g id="PathCollection_5">
    <defs>
     <path id="m340e17d1df" d="M -3.061862 6.123724 
L 0 3.061862 
L 3.061862 6.123724 
L 6.123724 3.061862 
L 3.061862 0 
L 6.123724 -3.061862 
L 3.061862 -6.123724 
L 0 -3.061862 
L -3.061862 -6.123724 
L -6.123724 -3.061862 
L -3.061862 0 
L -6.123724 3.061862 
z
" style="stroke: #000000; stroke-opacity: 0.7; stroke-width: 1.5"/>
    </defs>
    <g clip-path="url(#pcc56d82a1c)">
     <use xlink:href="#m340e17d1df" x="740.690865" y="300.339776" style="fill: #0173b2; fill-opacity: 0.7; stroke: #000000; stroke-opacity: 0.7; stroke-width: 1.5"/>
    </g>
   </g>
   <g id="PathCollection_6">
    <defs>
     <path id="ma1cf56b3db" d="M -3.061862 6.123724 
L 0 3.061862 
L 3.061862 6.123724 
L 6.123724 3.061862 
L 3.061862 0 
L 6.123724 -3.061862 
L 3.061862 -6.123724 
L 0 -3.061862 
L -3.061862 -6.123724 
L -6.123724 -3.061862 
L -3.061862 0 
L -6.123724 3.061862 
z
" style="stroke: #000000; stroke-opacity: 0.7; stroke-width: 1.5"/>
    </defs>
    <g clip-path="url(#pcc56d82a1c)">
     <use xlink:href="#ma1cf56b3db" x="235.551931" y="300.339776" style="fill: #de8f05; fill-opacity: 0.7; stroke: #000000; stroke-opacity: 0.7; stroke-width: 1.5"/>
    </g>
   </g>
   <g id="PathCollection_7">
    <g clip-path="url(#pcc56d82a1c)">
     <use xlink:href="#m836bf8cd87" x="177.231281" y="248.169594" style="fill: #029e73; fill-opacity: 0.7; stroke: #000000; stroke-opacity: 0.7; stroke-width: 1.5"/>
    </g>
   </g>
   <g id="PathCollection_8">
    <g clip-path="url(#pcc56d82a1c)">
     <use xlink:href="#mb2d5d50ddd" x="178.007631" y="248.169594" style="fill: #0173b2; fill-opacity: 0.7; stroke: #000000; stroke-opacity: 0.7; stroke-width: 1.5"/>
    </g>
   </g>
   <g id="PathCollection_9">
    <g clip-path="url(#pcc56d82a1c)">
     <use xlink:href="#ma1cf56b3db" x="184.114026" y="248.169594" style="fill: #de8f05; fill-opacity: 0.7; stroke: #000000; stroke-opacity: 0.7; stroke-width: 1.5"/>
    </g>
   </g>
   <g id="PathCollection_10">
    <g clip-path="url(#pcc56d82a1c)">
     <use xlink:href="#m836bf8cd87" x="170.698635" y="195.999412" style="fill: #029e73; fill-opacity: 0.7; stroke: #000000; stroke-opacity: 0.7; stroke-width: 1.5"/>
    </g>
   </g>
   <g id="PathCollection_11">
    <g clip-path="url(#pcc56d82a1c)">
     <use xlink:href="#mb2d5d50ddd" x="162.341768" y="195.999412" style="fill: #0173b2; fill-opacity: 0.7; stroke: #000000; stroke-opacity: 0.7; stroke-width: 1.5"/>
    </g>
   </g>
   <g id="PathCollection_12">
    <g clip-path="url(#pcc56d82a1c)">
     <use xlink:href="#ma1cf56b3db" x="180.755592" y="195.999412" style="fill: #de8f05; fill-opacity: 0.7; stroke: #000000; stroke-opacity: 0.7; stroke-width: 1.5"/>
    </g>
   </g>
   <g id="PathCollection_13">
    <g clip-path="url(#pcc56d82a1c)">
     <use xlink:href="#m836bf8cd87" x="171.745617" y="143.829231" style="fill: #029e73; fill-opacity: 0.7; stroke: #000000; stroke-opacity: 0.7; stroke-width: 1.5"/>
    </g>
   </g>
   <g id="PathCollection_14">
    <g clip-path="url(#pcc56d82a1c)">
     <use xlink:href="#mb2d5d50ddd" x="165.816533" y="143.829231" style="fill: #0173b2; fill-opacity: 0.7; stroke: #000000; stroke-opacity: 0.7; stroke-width: 1.5"/>
    </g>
   </g>
   <g id="PathCollection_15">
    <g clip-path="url(#pcc56d82a1c)">
     <use xlink:href="#ma1cf56b3db" x="179.689898" y="143.829231" style="fill: #de8f05; fill-opacity: 0.7; stroke: #000000; stroke-opacity: 0.7; stroke-width: 1.5"/>
    </g>
   </g>
   <g id="PathCollection_16">
    <g clip-path="url(#pcc56d82a1c)">
     <use xlink:href="#m836bf8cd87" x="170.626412" y="91.659049" style="fill: #029e73; fill-opacity: 0.7; stroke: #000000; stroke-opacity: 0.7; stroke-width: 1.5"/>
    </g>
   </g>
   <g id="PathCollection_17">
    <g clip-path="url(#pcc56d82a1c)">
     <use xlink:href="#mb2d5d50ddd" x="163.062696" y="91.659049" style="fill: #0173b2; fill-opacity: 0.7; stroke: #000000; stroke-opacity: 0.7; stroke-width: 1.5"/>
    </g>
   </g>
   <g id="PathCollection_18">
    <g clip-path="url(#pcc56d82a1c)">
     <use xlink:href="#ma1cf56b3db" x="180.05249" y="91.659049" style="fill: #de8f05; fill-opacity: 0.7; stroke: #000000; stroke-opacity: 0.7; stroke-width: 1.5"/>
    </g>
   </g>
   <g id="PathCollection_19">
    <g clip-path="url(#pcc56d82a1c)">
     <use xlink:href="#m836bf8cd87" x="170.676083" y="39.488867" style="fill: #029e73; fill-opacity: 0.7; stroke: #000000; stroke-opacity: 0.7; stroke-width: 1.5"/>
    </g>
   </g>
   <g id="PathCollection_20">
    <g clip-path="url(#pcc56d82a1c)">
     <use xlink:href="#mb2d5d50ddd" x="164.159189" y="39.488867" style="fill: #0173b2; fill-opacity: 0.7; stroke: #000000; stroke-opacity: 0.7; stroke-width: 1.5"/>
    </g>
   </g>
   <g id="PathCollection_21">
    <g clip-path="url(#pcc56d82a1c)">
     <use xlink:href="#m8f3042c448" x="179.061512" y="39.488867" style="fill: #de8f05; fill-opacity: 0.7; stroke: #000000; stroke-opacity: 0.7; stroke-width: 1.5"/>
    </g>
   </g>
   <g id="patch_3">
    <path d="M 159.684063 368.161012 
L 159.684063 23.837812 
L 189.587061 23.837812 
L 189.587061 368.161012 
z
" clip-path="url(#pcc56d82a1c)" style="fill: #008000; opacity: 0.1; stroke: #008000; stroke-width: 0.8; stroke-linejoin: miter"/>
   </g>
   <g id="patch_4">
    <path d="M 189.587061 368.161012 
L 189.587061 23.837812 
L 769.741205 23.837812 
L 769.741205 368.161012 
z
" clip-path="url(#pcc56d82a1c)" style="fill: #ff0000; opacity: 0.1; stroke: #ff0000; stroke-width: 0.8; stroke-linejoin: miter"/>
   </g>
   <g id="line2d_29">
    <path d="M 189.587061 368.161012 
L 189.587061 23.837812 
" clip-path="url(#pcc56d82a1c)" style="fill: none; stroke-dasharray: 7.4,3.2; stroke-dashoffset: 0; stroke: #ff0000; stroke-opacity: 0.7; stroke-width: 2"/>
   </g>
   <g id="patch_5">
    <path d="M 159.684063 368.161012 
L 159.684063 23.837812 
" style="fill: none; stroke: #000000; stroke-linejoin: miter; stroke-linecap: square"/>
   </g>
   <g id="patch_6">
    <path d="M 800.244063 368.161012 
L 800.244063 23.837812 
" style="fill: none; stroke: #000000; stroke-linejoin: miter; stroke-linecap: square"/>
   </g>
   <g id="patch_7">
    <path d="M 159.684063 368.161012 
L 800.244063 368.161012 
" style="fill: none; stroke: #000000; stroke-linejoin: miter; stroke-linecap: square"/>
   </g>
   <g id="patch_8">
    <path d="M 159.684063 23.837812 
L 800.244063 23.837812 
" style="fill: none; stroke: #000000; stroke-linejoin: miter; stroke-linecap: square"/>
   </g>
   <g id="text_17">
    <!-- ○ = Stable (CV &lt; 0.3), ✕ = Unstable (CV ≥ 0.3). Lower CV indicates more reproducible results across runs. High CV suggests nondeterministic behavior or high variance. -->
    <g transform="translate(96.824219 416.31839) scale(0.09 -0.09)">
     <defs>
      <path id="DejaVuSans-Oblique-25cb" d="M 1756 3459 
Q 716 2859 716 1662 
Q 716 466 1756 -134 
Q 2272 -434 2791 -434 
Q 3313 -434 3828 -134 
Q 4869 466 4869 1662 
Q 4869 2859 3828 3459 
Q 3313 3759 2791 3759 
Q 2272 3759 1756 3459 
z
M 1572 -450 
Q 350 256 350 1662 
Q 350 3069 1572 3775 
Q 2181 4128 2791 4128 
Q 3403 4128 4013 3775 
Q 5234 3069 5234 1662 
Q 5234 256 4013 -450 
Q 3403 -803 2791 -803 
Q 2181 -803 1572 -450 
z
" transform="scale(0.015625)"/>
      <path id="DejaVuSans-Oblique-20" transform="scale(0.015625)"/>
      <path id="DejaVuSans-Oblique-3d" d="M 678 2906 
L 4684 2906 
L 4684 2381 
L 678 2381 
L 678 2906 
z
M 678 1631 
L 4684 1631 
L 4684 1100 
L 678 1100 
L 678 1631 
z
" transform="scale(0.015625)"/>
      <path id="DejaVuSans-Oblique-53" d="M 3859 4513 
L 3738 3897 
Q 3422 4066 3111 4152 
Q 2800 4238 2509 4238 
Q 1944 4238 1609 3991 
Q 1275 3744 1275 3334 
Q 1275 3109 1398 2989 
Q 1522 2869 2034 2731 
L 2413 2638 
Q 3053 2472 3303 2217 
Q 3553 1963 3553 1503 
Q 3553 797 2998 353 
Q 2444 -91 1538 -91 
Q 1166 -91 791 -17 
Q 416 56 38 206 
L 166 856 
Q 513 641 861 531 
Q 1209 422 1556 422 
Q 2147 422 2503 684 
Q 2859 947 2859 1369 
Q 2859 1650 2717 1795 
Q 2575 1941 2106 2059 
L 1728 2156 
Q 1081 2325 845 2545 
Q 609 2766 609 3163 
Q 609 3859 1145 4304 
Q 1681 4750 2541 4750 
Q 2875 4750 3203 4690 
Q 3531 4631 3859 4513 
z
" transform="scale(0.015625)"/>
      <path id="DejaVuSans-Oblique-74" d="M 2706 3500 
L 2619 3053 
L 1472 3053 
L 1100 1153 
Q 1081 1047 1072 975 
Q 1063 903 1063 863 
Q 1063 663 1183 572 
Q 1303 481 1569 481 
L 2150 481 
L 2053 0 
L 1503 0 
Q 991 0 739 200 
Q 488 400 488 806 
Q 488 878 497 964 
Q 506 1050 525 1153 
L 897 3053 
L 409 3053 
L 500 3500 
L 978 3500 
L 1172 4494 
L 1747 4494 
L 1556 3500 
L 2706 3500 
z
" transform="scale(0.015625)"/>
      <path id="DejaVuSans-Oblique-61" d="M 3438 1997 
L 3047 0 
L 2472 0 
L 2578 531 
Q 2325 219 2001 64 
Q 1678 -91 1281 -91 
Q 834 -91 548 182 
Q 263 456 263 884 
Q 263 1497 752 1853 
Q 1241 2209 2100 2209 
L 2900 2209 
L 2931 2363 
Q 2938 2388 2941 2417 
Q 2944 2447 2944 2509 
Q 2944 2788 2717 2942 
Q 2491 3097 2081 3097 
Q 1800 3097 1504 3025 
Q 1209 2953 897 2809 
L 997 3341 
Q 1322 3463 1633 3523 
Q 1944 3584 2234 3584 
Q 2853 3584 3176 3315 
Q 3500 3047 3500 2534 
Q 3500 2431 3484 2292 
Q 3469 2153 3438 1997 
z
M 2816 1759 
L 2241 1759 
Q 1534 1759 1195 1570 
Q 856 1381 856 984 
Q 856 709 1029 553 
Q 1203 397 1509 397 
Q 1978 397 2328 733 
Q 2678 1069 2791 1631 
L 2816 1759 
z
" transform="scale(0.015625)"/>
      <path id="DejaVuSans-Oblique-62" d="M 3169 2138 
Q 3169 2591 2961 2847 
Q 2753 3103 2388 3103 
Q 2122 3103 1889 2973 
Q 1656 2844 1484 2597 
Q 1303 2338 1198 1995 
Q 1094 1653 1094 1313 
Q 1094 881 1298 636 
Q 1503 391 1863 391 
Q 2134 391 2365 517 
Q 2597 644 2772 891 
Q 2950 1147 3059 1487 
Q 3169 1828 3169 2138 
z
M 1381 2969 
Q 1594 3256 1914 3420 
Q 2234 3584 2584 3584 
Q 3122 3584 3439 3221 
Q 3756 2859 3756 2241 
Q 3756 1734 3570 1259 
Q 3384 784 3041 416 
Q 2816 172 2522 40 
Q 2228 -91 1906 -91 
Q 1566 -91 1316 65 
Q 1066 222 909 531 
L 806 0 
L 231 0 
L 1178 4863 
L 1753 4863 
L 1381 2969 
z
" transform="scale(0.015625)"/>
      <path id="DejaVuSans-Oblique-6c" d="M 1172 4863 
L 1747 4863 
L 800 0 
L 225 0 
L 1172 4863 
z
" transform="scale(0.015625)"/>
      <path id="DejaVuSans-Oblique-65" d="M 3078 2063 
Q 3088 2113 3092 2166 
Q 3097 2219 3097 2272 
Q 3097 2653 2873 2875 
Q 2650 3097 2266 3097 
Q 1838 3097 1509 2826 
Q 1181 2556 1013 2059 
L 3078 2063 
z
M 3578 1613 
L 903 1613 
Q 884 1494 878 1425 
Q 872 1356 872 1306 
Q 872 872 1139 634 
Q 1406 397 1894 397 
Q 2269 397 2603 481 
Q 2938 566 3225 728 
L 3116 159 
Q 2806 34 2476 -28 
Q 2147 -91 1806 -91 
Q 1078 -91 686 257 
Q 294 606 294 1247 
Q 294 1794 489 2264 
Q 684 2734 1063 3103 
Q 1306 3334 1642 3459 
Q 1978 3584 2356 3584 
Q 2950 3584 3301 3228 
Q 3653 2872 3653 2272 
Q 3653 2128 3634 1964 
Q 3616 1800 3578 1613 
z
" transform="scale(0.015625)"/>
      <path id="DejaVuSans-Oblique-28" d="M 2731 4856 
Q 1903 3822 1495 2892 
Q 1088 1963 1088 1100 
Q 1088 606 1206 120 
Q 1325 -366 1563 -844 
L 1063 -844 
Q 775 -306 634 201 
Q 494 709 494 1197 
Q 494 2125 923 3036 
Q 1353 3947 2222 4856 
L 2731 4856 
z
" transform="scale(0.015625)"/>
      <path id="DejaVuSans-Oblique-43" d="M 4447 4306 
L 4319 3641 
Q 4019 3944 3683 4091 
Q 3347 4238 2956 4238 
Q 2422 4238 2017 3981 
Q 1613 3725 1319 3200 
Q 1131 2863 1032 2486 
Q 934 2109 934 1728 
Q 934 1091 1264 756 
Q 1594 422 2222 422 
Q 2656 422 3056 561 
Q 3456 700 3834 978 
L 3688 231 
Q 3316 72 2936 -9 
Q 2556 -91 2175 -91 
Q 1278 -91 773 396 
Q 269 884 269 1753 
Q 269 2309 461 2846 
Q 653 3384 1013 3828 
Q 1394 4300 1883 4525 
Q 2372 4750 3022 4750 
Q 3422 4750 3780 4639 
Q 4138 4528 4447 4306 
z
" transform="scale(0.015625)"/>
      <path id="DejaVuSans-Oblique-56" d="M 1319 0 
L 500 4666 
L 1119 4666 
L 1797 653 
L 4063 4666 
L 4750 4666 
L 2053 0 
L 1319 0 
z
" transform="scale(0.015625)"/>
      <path id="DejaVuSans-Oblique-3c" d="M 4684 3150 
L 1459 2003 
L 4684 863 
L 4684 294 
L 678 1747 
L 678 2266 
L 4684 3719 
L 4684 3150 
z
" transform="scale(0.015625)"/>
      <path id="DejaVuSans-Oblique-30" d="M 2444 4750 
Q 3078 4750 3414 4328 
Q 3750 3906 3750 3116 
Q 3750 2516 3592 1923 
Q 3434 1331 3150 863 
Q 2859 394 2467 151 
Q 2075 -91 1600 -91 
Q 988 -91 653 334 
Q 319 759 319 1544 
Q 319 2138 480 2733 
Q 641 3328 928 3794 
Q 1216 4263 1602 4506 
Q 1988 4750 2444 4750 
z
M 2406 4250 
Q 2169 4250 1955 4123 
Q 1741 3997 1569 3750 
Q 1281 3338 1111 2720 
Q 941 2103 941 1453 
Q 941 938 1123 673 
Q 1306 409 1663 409 
Q 1913 409 2125 536 
Q 2338 663 2509 909 
Q 2794 1319 2961 1936 
Q 3128 2553 3128 3206 
Q 3128 3722 2945 3986 
Q 2763 4250 2406 4250 
z
" transform="scale(0.015625)"/>
      <path id="DejaVuSans-Oblique-2e" d="M 525 794 
L 1184 794 
L 1031 0 
L 372 0 
L 525 794 
z
" transform="scale(0.015625)"/>
      <path id="DejaVuSans-Oblique-33" d="M 1013 4550 
Q 1356 4650 1679 4700 
Q 2003 4750 2316 4750 
Q 2934 4750 3296 4475 
Q 3659 4200 3659 3738 
Q 3659 3284 3373 2959 
Q 3088 2634 2584 2516 
Q 2978 2403 3162 2165 
Q 3347 1928 3347 1538 
Q 3347 1163 3167 834 
Q 2988 506 2650 269 
Q 2394 88 2037 -1 
Q 1681 -91 1216 -91 
Q 922 -91 622 -33 
Q 322 25 13 141 
L 128 738 
Q 422 575 720 495 
Q 1019 416 1331 416 
Q 1947 416 2330 733 
Q 2713 1050 2713 1556 
Q 2713 1881 2469 2057 
Q 2225 2234 1772 2234 
L 1228 2234 
L 1325 2747 
L 1900 2747 
Q 2419 2747 2717 2984 
Q 3016 3222 3016 3628 
Q 3016 3922 2797 4083 
Q 2578 4244 2181 4244 
Q 1881 4244 1567 4180 
Q 1253 4116 916 3988 
L 1013 4550 
z
" transform="scale(0.015625)"/>
      <path id="DejaVuSans-Oblique-29" d="M -397 -844 
Q 434 191 840 1120 
Q 1247 2050 1247 2913 
Q 1247 3406 1130 3892 
Q 1013 4378 775 4856 
L 1275 4856 
Q 1563 4316 1703 3812 
Q 1844 3309 1844 2822 
Q 1844 1891 1411 973 
Q 978 56 116 -844 
L -397 -844 
z
" transform="scale(0.015625)"/>
      <path id="DejaVuSans-Oblique-2c" d="M 575 794 
L 1234 794 
L 1131 256 
L 422 -744 
L 19 -744 
L 469 256 
L 575 794 
z
" transform="scale(0.015625)"/>
      <path id="DejaVuSans-Oblique-2715" d="M 3122 2331 
L 4550 903 
L 4106 463 
L 2681 1891 
L 1253 463 
L 809 903 
L 2238 2331 
L 809 3759 
L 1253 4200 
L 2681 2775 
L 4109 4203 
L 4553 3763 
L 3122 2331 
z
" transform="scale(0.015625)"/>
      <path id="DejaVuSans-Oblique-55" d="M 991 4666 
L 1625 4666 
L 1075 1831 
Q 1041 1641 1027 1517 
Q 1013 1394 1013 1300 
Q 1013 869 1253 645 
Q 1494 422 1959 422 
Q 2563 422 2898 753 
Q 3234 1084 3378 1831 
L 3928 4666 
L 4563 4666 
L 4000 1753 
Q 3816 809 3300 359 
Q 2784 -91 1888 -91 
Q 1188 -91 780 261 
Q 372 613 372 1216 
Q 372 1325 387 1461 
Q 403 1597 434 1753 
L 991 4666 
z
" transform="scale(0.015625)"/>
      <path id="DejaVuSans-Oblique-6e" d="M 3566 2113 
L 3156 0 
L 2578 0 
L 2988 2091 
Q 3016 2238 3031 2350 
Q 3047 2463 3047 2528 
Q 3047 2791 2881 2937 
Q 2716 3084 2419 3084 
Q 1956 3084 1622 2776 
Q 1288 2469 1184 1941 
L 800 0 
L 225 0 
L 903 3500 
L 1478 3500 
L 1363 2950 
Q 1603 3253 1940 3418 
Q 2278 3584 2650 3584 
Q 3113 3584 3367 3334 
Q 3622 3084 3622 2631 
Q 3622 2519 3608 2391 
Q 3594 2263 3566 2113 
z
" transform="scale(0.015625)"/>
      <path id="DejaVuSans-Oblique-73" d="M 3200 3397 
L 3091 2853 
Q 2863 2978 2609 3040 
Q 2356 3103 2088 3103 
Q 1634 3103 1373 2948 
Q 1113 2794 1113 2528 
Q 1113 2219 1719 2053 
Q 1766 2041 1788 2034 
L 1972 1978 
Q 2547 1819 2739 1644 
Q 2931 1469 2931 1166 
Q 2931 609 2489 259 
Q 2047 -91 1331 -91 
Q 1053 -91 747 -37 
Q 441 16 72 128 
L 184 722 
Q 500 559 806 475 
Q 1113 391 1394 391 
Q 1816 391 2080 572 
Q 2344 753 2344 1031 
Q 2344 1331 1650 1516 
L 1591 1531 
L 1394 1581 
Q 956 1697 753 1886 
Q 550 2075 550 2369 
Q 550 2928 970 3256 
Q 1391 3584 2113 3584 
Q 2397 3584 2667 3537 
Q 2938 3491 3200 3397 
z
" transform="scale(0.015625)"/>
      <path id="DejaVuSans-Oblique-2265" d="M 678 3175 
L 678 3725 
L 4684 2578 
L 4684 2047 
L 678 897 
L 678 1453 
L 3681 2309 
L 678 3175 
z
M 4684 531 
L 4684 0 
L 678 0 
L 678 531 
L 4684 531 
z
" transform="scale(0.015625)"/>
      <path id="DejaVuSans-Oblique-4c" d="M 1075 4666 
L 1709 4666 
L 909 525 
L 3181 525 
L 3078 0 
L 172 0 
L 1075 4666 
z
" transform="scale(0.015625)"/>
      <path id="DejaVuSans-Oblique-6f" d="M 1625 -91 
Q 1009 -91 651 289 
Q 294 669 294 1325 
Q 294 1706 417 2101 
Q 541 2497 738 2766 
Q 1047 3184 1428 3384 
Q 1809 3584 2291 3584 
Q 2888 3584 3255 3212 
Q 3622 2841 3622 2241 
Q 3622 1825 3500 1412 
Q 3378 1000 3181 728 
Q 2875 309 2494 109 
Q 2113 -91 1625 -91 
z
M 891 1344 
Q 891 869 1089 633 
Q 1288 397 1691 397 
Q 2269 397 2648 901 
Q 3028 1406 3028 2181 
Q 3028 2634 2825 2865 
Q 2622 3097 2228 3097 
Q 1903 3097 1650 2945 
Q 1397 2794 1197 2484 
Q 1050 2253 970 1956 
Q 891 1659 891 1344 
z
" transform="scale(0.015625)"/>
      <path id="DejaVuSans-Oblique-77" d="M 544 3500 
L 1113 3500 
L 1259 684 
L 2566 3500 
L 3231 3500 
L 3425 684 
L 4666 3500 
L 5241 3500 
L 3641 0 
L 2969 0 
L 2797 2900 
L 1459 0 
L 781 0 
L 544 3500 
z
" transform="scale(0.015625)"/>
      <path id="DejaVuSans-Oblique-72" d="M 2853 2969 
Q 2766 3016 2653 3041 
Q 2541 3066 2413 3066 
Q 1953 3066 1609 2717 
Q 1266 2369 1153 1784 
L 800 0 
L 225 0 
L 909 3500 
L 1484 3500 
L 1375 2956 
Q 1603 3259 1920 3421 
Q 2238 3584 2597 3584 
Q 2691 3584 2781 3573 
Q 2872 3563 2963 3538 
L 2853 2969 
z
" transform="scale(0.015625)"/>
      <path id="DejaVuSans-Oblique-69" d="M 1172 4863 
L 1747 4863 
L 1606 4134 
L 1031 4134 
L 1172 4863 
z
M 909 3500 
L 1484 3500 
L 800 0 
L 225 0 
L 909 3500 
z
" transform="scale(0.015625)"/>
      <path id="DejaVuSans-Oblique-64" d="M 2675 525 
Q 2444 222 2128 65 
Q 1813 -91 1428 -91 
Q 903 -91 598 267 
Q 294 625 294 1247 
Q 294 1766 478 2236 
Q 663 2706 1013 3078 
Q 1244 3325 1534 3454 
Q 1825 3584 2144 3584 
Q 2481 3584 2739 3421 
Q 2997 3259 3138 2956 
L 3513 4863 
L 4091 4863 
L 3144 0 
L 2566 0 
L 2675 525 
z
M 891 1350 
Q 891 897 1095 644 
Q 1300 391 1663 391 
Q 1931 391 2161 520 
Q 2391 650 2566 903 
Q 2750 1166 2856 1509 
Q 2963 1853 2963 2188 
Q 2963 2622 2758 2865 
Q 2553 3109 2194 3109 
Q 1922 3109 1687 2981 
Q 1453 2853 1288 2613 
Q 1106 2353 998 2009 
Q 891 1666 891 1350 
z
" transform="scale(0.015625)"/>
      <path id="DejaVuSans-Oblique-63" d="M 3431 3366 
L 3316 2797 
Q 3109 2947 2876 3022 
Q 2644 3097 2394 3097 
Q 2119 3097 1870 3000 
Q 1622 2903 1453 2725 
Q 1184 2453 1037 2087 
Q 891 1722 891 1331 
Q 891 859 1127 628 
Q 1363 397 1844 397 
Q 2081 397 2348 469 
Q 2616 541 2906 684 
L 2797 116 
Q 2547 13 2283 -39 
Q 2019 -91 1741 -91 
Q 1044 -91 669 257 
Q 294 606 294 1253 
Q 294 1797 489 2255 
Q 684 2713 1069 3078 
Q 1331 3328 1684 3456 
Q 2038 3584 2456 3584 
Q 2700 3584 2940 3529 
Q 3181 3475 3431 3366 
z
" transform="scale(0.015625)"/>
      <path id="DejaVuSans-Oblique-6d" d="M 5747 2113 
L 5338 0 
L 4763 0 
L 5166 2094 
Q 5191 2228 5203 2325 
Q 5216 2422 5216 2491 
Q 5216 2772 5059 2928 
Q 4903 3084 4622 3084 
Q 4203 3084 3875 2770 
Q 3547 2456 3450 1953 
L 3066 0 
L 2491 0 
L 2900 2094 
Q 2925 2209 2937 2307 
Q 2950 2406 2950 2484 
Q 2950 2769 2794 2926 
Q 2638 3084 2363 3084 
Q 1938 3084 1609 2770 
Q 1281 2456 1184 1953 
L 800 0 
L 225 0 
L 909 3500 
L 1484 3500 
L 1375 2956 
Q 1609 3263 1923 3423 
Q 2238 3584 2597 3584 
Q 2978 3584 3223 3384 
Q 3469 3184 3519 2828 
Q 3781 3197 4126 3390 
Q 4472 3584 4856 3584 
Q 5306 3584 5551 3325 
Q 5797 3066 5797 2591 
Q 5797 2488 5784 2364 
Q 5772 2241 5747 2113 
z
" transform="scale(0.015625)"/>
      <path id="DejaVuSans-Oblique-70" d="M 3175 2156 
Q 3175 2616 2975 2859 
Q 2775 3103 2400 3103 
Q 2144 3103 1911 2972 
Q 1678 2841 1497 2591 
Q 1319 2344 1212 1994 
Q 1106 1644 1106 1300 
Q 1106 863 1306 627 
Q 1506 391 1875 391 
Q 2147 391 2380 519 
Q 2613 647 2778 891 
Q 2956 1147 3065 1494 
Q 3175 1841 3175 2156 
z
M 1394 2969 
Q 1625 3272 1939 3428 
Q 2253 3584 2638 3584 
Q 3175 3584 3472 3232 
Q 3769 2881 3769 2247 
Q 3769 1728 3584 1258 
Q 3400 788 3053 416 
Q 2822 169 2531 39 
Q 2241 -91 1919 -91 
Q 1547 -91 1294 64 
Q 1041 219 916 525 
L 556 -1331 
L -19 -1331 
L 922 3500 
L 1497 3500 
L 1394 2969 
z
" transform="scale(0.015625)"/>
      <path id="DejaVuSans-Oblique-75" d="M 428 1388 
L 838 3500 
L 1416 3500 
L 1006 1409 
Q 975 1256 961 1147 
Q 947 1038 947 966 
Q 947 700 1109 554 
Q 1272 409 1569 409 
Q 2031 409 2368 721 
Q 2706 1034 2809 1563 
L 3194 3500 
L 3769 3500 
L 3091 0 
L 2516 0 
L 2631 550 
Q 2388 244 2052 76 
Q 1716 -91 1338 -91 
Q 878 -91 622 161 
Q 366 413 366 863 
Q 366 956 381 1097 
Q 397 1238 428 1388 
z
" transform="scale(0.015625)"/>
      <path id="DejaVuSans-Oblique-48" d="M 1081 4666 
L 1716 4666 
L 1344 2753 
L 3634 2753 
L 4006 4666 
L 4641 4666 
L 3731 0 
L 3097 0 
L 3531 2222 
L 1241 2222 
L 806 0 
L 172 0 
L 1081 4666 
z
" transform="scale(0.015625)"/>
      <path id="DejaVuSans-Oblique-67" d="M 3816 3500 
L 3219 434 
Q 3047 -456 2561 -893 
Q 2075 -1331 1253 -1331 
Q 950 -1331 690 -1286 
Q 431 -1241 206 -1147 
L 313 -588 
Q 525 -725 762 -790 
Q 1000 -856 1269 -856 
Q 1816 -856 2167 -557 
Q 2519 -259 2631 300 
L 2681 563 
Q 2441 288 2122 144 
Q 1803 0 1434 0 
Q 903 0 598 351 
Q 294 703 294 1319 
Q 294 1803 478 2267 
Q 663 2731 997 3091 
Q 1219 3328 1514 3456 
Q 1809 3584 2131 3584 
Q 2484 3584 2746 3420 
Q 3009 3256 3138 2956 
L 3238 3500 
L 3816 3500 
z
M 2950 2216 
Q 2950 2641 2750 2872 
Q 2550 3103 2181 3103 
Q 1953 3103 1747 3012 
Q 1541 2922 1394 2759 
Q 1156 2491 1023 2127 
Q 891 1763 891 1375 
Q 891 944 1092 712 
Q 1294 481 1672 481 
Q 2219 481 2584 976 
Q 2950 1472 2950 2216 
z
" transform="scale(0.015625)"/>
      <path id="DejaVuSans-Oblique-68" d="M 3566 2113 
L 3156 0 
L 2578 0 
L 2988 2091 
Q 3016 2238 3031 2350 
Q 3047 2463 3047 2528 
Q 3047 2791 2881 2937 
Q 2716 3084 2419 3084 
Q 1956 3084 1617 2771 
Q 1278 2459 1178 1941 
L 800 0 
L 225 0 
L 1172 4863 
L 1747 4863 
L 1375 2950 
Q 1594 3244 1934 3414 
Q 2275 3584 2650 3584 
Q 3113 3584 3367 3334 
Q 3622 3084 3622 2631 
Q 3622 2519 3608 2391 
Q 3594 2263 3566 2113 
z
" transform="scale(0.015625)"/>
      <path id="DejaVuSans-Oblique-76" d="M 459 3500 
L 1069 3500 
L 1581 525 
L 3256 3500 
L 3866 3500 
L 1875 0 
L 1100 0 
L 459 3500 
z
" transform="scale(0.015625)"/>
     </defs>
     <use xlink:href="#DejaVuSans-Oblique-25cb"/>
     <use xlink:href="#DejaVuSans-Oblique-20" x="87.255859"/>
     <use xlink:href="#DejaVuSans-Oblique-3d" x="119.042969"/>
     <use xlink:href="#DejaVuSans-Oblique-20" x="202.832031"/>
     <use xlink:href="#DejaVuSans-Oblique-53" x="234.619141"/>
     <use xlink:href="#DejaVuSans-Oblique-74" x="298.095703"/>
     <use xlink:href="#DejaVuSans-Oblique-61" x="337.304688"/>
     <use xlink:href="#DejaVuSans-Oblique-62" x="398.583984"/>
     <use xlink:href="#DejaVuSans-Oblique-6c" x="462.060547"/>
     <use xlink:href="#DejaVuSans-Oblique-65" x="489.84375"/>
     <use xlink:href="#DejaVuSans-Oblique-20" x="551.367188"/>
     <use xlink:href="#DejaVuSans-Oblique-28" x="583.154297"/>
     <use xlink:href="#DejaVuSans-Oblique-43" x="622.167969"/>
     <use xlink:href="#DejaVuSans-Oblique-56" x="691.992188"/>
     <use xlink:href="#DejaVuSans-Oblique-20" x="760.400391"/>
     <use xlink:href="#DejaVuSans-Oblique-3c" x="792.1875"/>
     <use xlink:href="#DejaVuSans-Oblique-20" x="875.976562"/>
     <use xlink:href="#DejaVuSans-Oblique-30" x="907.763672"/>
     <use xlink:href="#DejaVuSans-Oblique-2e" x="971.386719"/>
     <use xlink:href="#DejaVuSans-Oblique-33" x="1003.173828"/>
     <use xlink:href="#DejaVuSans-Oblique-29" x="1066.796875"/>
     <use xlink:href="#DejaVuSans-Oblique-2c" x="1105.810547"/>
     <use xlink:href="#DejaVuSans-Oblique-20" x="1137.597656"/>
     <use xlink:href="#DejaVuSans-Oblique-2715" x="1169.384766"/>
     <use xlink:href="#DejaVuSans-Oblique-20" x="1253.173828"/>
     <use xlink:href="#DejaVuSans-Oblique-3d" x="1284.960938"/>
     <use xlink:href="#DejaVuSans-Oblique-20" x="1368.75"/>
     <use xlink:href="#DejaVuSans-Oblique-55" x="1400.537109"/>
     <use xlink:href="#DejaVuSans-Oblique-6e" x="1473.730469"/>
     <use xlink:href="#DejaVuSans-Oblique-73" x="1537.109375"/>
     <use xlink:href="#DejaVuSans-Oblique-74" x="1589.208984"/>
     <use xlink:href="#DejaVuSans-Oblique-61" x="1628.417969"/>
     <use xlink:href="#DejaVuSans-Oblique-62" x="1689.697266"/>
     <use xlink:href="#DejaVuSans-Oblique-6c" x="1753.173828"/>
     <use xlink:href="#DejaVuSans-Oblique-65" x="1780.957031"/>
     <use xlink:href="#DejaVuSans-Oblique-20" x="1842.480469"/>
     <use xlink:href="#DejaVuSans-Oblique-28" x="1874.267578"/>
     <use xlink:href="#DejaVuSans-Oblique-43" x="1913.28125"/>
     <use xlink:href="#DejaVuSans-Oblique-56" x="1983.105469"/>
     <use xlink:href="#DejaVuSans-Oblique-20" x="2051.513672"/>
     <use xlink:href="#DejaVuSans-Oblique-2265" x="2083.300781"/>
     <use xlink:href="#DejaVuSans-Oblique-20" x="2167.089844"/>
     <use xlink:href="#DejaVuSans-Oblique-30" x="2198.876953"/>
     <use xlink:href="#DejaVuSans-Oblique-2e" x="2262.5"/>
     <use xlink:href="#DejaVuSans-Oblique-33" x="2294.287109"/>
     <use xlink:href="#DejaVuSans-Oblique-29" x="2357.910156"/>
     <use xlink:href="#DejaVuSans-Oblique-2e" x="2396.923828"/>
     <use xlink:href="#DejaVuSans-Oblique-20" x="2428.710938"/>
     <use xlink:href="#DejaVuSans-Oblique-4c" x="2460.498047"/>
     <use xlink:href="#DejaVuSans-Oblique-6f" x="2516.210938"/>
     <use xlink:href="#DejaVuSans-Oblique-77" x="2577.392578"/>
     <use xlink:href="#DejaVuSans-Oblique-65" x="2659.179688"/>
     <use xlink:href="#DejaVuSans-Oblique-72" x="2720.703125"/>
     <use xlink:href="#DejaVuSans-Oblique-20" x="2761.816406"/>
     <use xlink:href="#DejaVuSans-Oblique-43" x="2793.603516"/>
     <use xlink:href="#DejaVuSans-Oblique-56" x="2863.427734"/>
     <use xlink:href="#DejaVuSans-Oblique-20" x="2931.835938"/>
     <use xlink:href="#DejaVuSans-Oblique-69" x="2963.623047"/>
     <use xlink:href="#DejaVuSans-Oblique-6e" x="2991.40625"/>
     <use xlink:href="#DejaVuSans-Oblique-64" x="3054.785156"/>
     <use xlink:href="#DejaVuSans-Oblique-69" x="3118.261719"/>
     <use xlink:href="#DejaVuSans-Oblique-63" x="3146.044922"/>
     <use xlink:href="#DejaVuSans-Oblique-61" x="3201.025391"/>
     <use xlink:href="#DejaVuSans-Oblique-74" x="3262.304688"/>
     <use xlink:href="#DejaVuSans-Oblique-65" x="3301.513672"/>
     <use xlink:href="#DejaVuSans-Oblique-73" x="3363.037109"/>
     <use xlink:href="#DejaVuSans-Oblique-20" x="3415.136719"/>
     <use xlink:href="#DejaVuSans-Oblique-6d" x="3446.923828"/>
     <use xlink:href="#DejaVuSans-Oblique-6f" x="3544.335938"/>
     <use xlink:href="#DejaVuSans-Oblique-72" x="3605.517578"/>
     <use xlink:href="#DejaVuSans-Oblique-65" x="3646.630859"/>
     <use xlink:href="#DejaVuSans-Oblique-20" x="3708.154297"/>
     <use xlink:href="#DejaVuSans-Oblique-72" x="3739.941406"/>
     <use xlink:href="#DejaVuSans-Oblique-65" x="3781.054688"/>
     <use xlink:href="#DejaVuSans-Oblique-70" x="3842.578125"/>
     <use xlink:href="#DejaVuSans-Oblique-72" x="3906.054688"/>
     <use xlink:href="#DejaVuSans-Oblique-6f" x="3947.167969"/>
     <use xlink:href="#DejaVuSans-Oblique-64" x="4008.349609"/>
     <use xlink:href="#DejaVuSans-Oblique-75" x="4071.826172"/>
     <use xlink:href="#DejaVuSans-Oblique-63" x="4135.205078"/>
     <use xlink:href="#DejaVuSans-Oblique-69" x="4190.185547"/>
     <use xlink:href="#DejaVuSans-Oblique-62" x="4217.96875"/>
     <use xlink:href="#DejaVuSans-Oblique-6c" x="4281.445312"/>
     <use xlink:href="#DejaVuSans-Oblique-65" x="4309.228516"/>
     <use xlink:href="#DejaVuSans-Oblique-20" x="4370.751953"/>
     <use xlink:href="#DejaVuSans-Oblique-72" x="4402.539062"/>
     <use xlink:href="#DejaVuSans-Oblique-65" x="4443.652344"/>
     <use xlink:href="#DejaVuSans-Oblique-73" x="4505.175781"/>
     <use xlink:href="#DejaVuSans-Oblique-75" x="4557.275391"/>
     <use xlink:href="#DejaVuSans-Oblique-6c" x="4620.654297"/>
     <use xlink:href="#DejaVuSans-Oblique-74" x="4648.4375"/>
     <use xlink:href="#DejaVuSans-Oblique-73" x="4687.646484"/>
     <use xlink:href="#DejaVuSans-Oblique-20" x="4739.746094"/>
     <use xlink:href="#DejaVuSans-Oblique-61" x="4771.533203"/>
     <use xlink:href="#DejaVuSans-Oblique-63" x="4832.8125"/>
     <use xlink:href="#DejaVuSans-Oblique-72" x="4887.792969"/>
     <use xlink:href="#DejaVuSans-Oblique-6f" x="4928.90625"/>
     <use xlink:href="#DejaVuSans-Oblique-73" x="4990.087891"/>
     <use xlink:href="#DejaVuSans-Oblique-73" x="5042.1875"/>
     <use xlink:href="#DejaVuSans-Oblique-20" x="5094.287109"/>
     <use xlink:href="#DejaVuSans-Oblique-72" x="5126.074219"/>
     <use xlink:href="#DejaVuSans-Oblique-75" x="5167.1875"/>
     <use xlink:href="#DejaVuSans-Oblique-6e" x="5230.566406"/>
     <use xlink:href="#DejaVuSans-Oblique-73" x="5293.945312"/>
     <use xlink:href="#DejaVuSans-Oblique-2e" x="5346.044922"/>
     <use xlink:href="#DejaVuSans-Oblique-20" x="5377.832031"/>
     <use xlink:href="#DejaVuSans-Oblique-48" x="5409.619141"/>
     <use xlink:href="#DejaVuSans-Oblique-69" x="5484.814453"/>
     <use xlink:href="#DejaVuSans-Oblique-67" x="5512.597656"/>
     <use xlink:href="#DejaVuSans-Oblique-68" x="5576.074219"/>
     <use xlink:href="#DejaVuSans-Oblique-20" x="5639.453125"/>
     <use xlink:href="#DejaVuSans-Oblique-43" x="5671.240234"/>
     <use xlink:href="#DejaVuSans-Oblique-56" x="5741.064453"/>
     <use xlink:href="#DejaVuSans-Oblique-20" x="5809.472656"/>
     <use xlink:href="#DejaVuSans-Oblique-73" x="5841.259766"/>
     <use xlink:href="#DejaVuSans-Oblique-75" x="5893.359375"/>
     <use xlink:href="#DejaVuSans-Oblique-67" x="5956.738281"/>
     <use xlink:href="#DejaVuSans-Oblique-67" x="6020.214844"/>
     <use xlink:href="#DejaVuSans-Oblique-65" x="6083.691406"/>
     <use xlink:href="#DejaVuSans-Oblique-73" x="6145.214844"/>
     <use xlink:href="#DejaVuSans-Oblique-74" x="6197.314453"/>
     <use xlink:href="#DejaVuSans-Oblique-73" x="6236.523438"/>
     <use xlink:href="#DejaVuSans-Oblique-20" x="6288.623047"/>
     <use xlink:href="#DejaVuSans-Oblique-6e" x="6320.410156"/>
     <use xlink:href="#DejaVuSans-Oblique-6f" x="6383.789062"/>
     <use xlink:href="#DejaVuSans-Oblique-6e" x="6444.970703"/>
     <use xlink:href="#DejaVuSans-Oblique-64" x="6508.349609"/>
     <use xlink:href="#DejaVuSans-Oblique-65" x="6571.826172"/>
     <use xlink:href="#DejaVuSans-Oblique-74" x="6633.349609"/>
     <use xlink:href="#DejaVuSans-Oblique-65" x="6672.558594"/>
     <use xlink:href="#DejaVuSans-Oblique-72" x="6734.082031"/>
     <use xlink:href="#DejaVuSans-Oblique-6d" x="6775.195312"/>
     <use xlink:href="#DejaVuSans-Oblique-69" x="6872.607422"/>
     <use xlink:href="#DejaVuSans-Oblique-6e" x="6900.390625"/>
     <use xlink:href="#DejaVuSans-Oblique-69" x="6963.769531"/>
     <use xlink:href="#DejaVuSans-Oblique-73" x="6991.552734"/>
     <use xlink:href="#DejaVuSans-Oblique-74" x="7043.652344"/>
     <use xlink:href="#DejaVuSans-Oblique-69" x="7082.861328"/>
     <use xlink:href="#DejaVuSans-Oblique-63" x="7110.644531"/>
     <use xlink:href="#DejaVuSans-Oblique-20" x="7165.625"/>
     <use xlink:href="#DejaVuSans-Oblique-62" x="7197.412109"/>
     <use xlink:href="#DejaVuSans-Oblique-65" x="7260.888672"/>
     <use xlink:href="#DejaVuSans-Oblique-68" x="7322.412109"/>
     <use xlink:href="#DejaVuSans-Oblique-61" x="7385.791016"/>
     <use xlink:href="#DejaVuSans-Oblique-76" x="7447.070312"/>
     <use xlink:href="#DejaVuSans-Oblique-69" x="7506.25"/>
     <use xlink:href="#DejaVuSans-Oblique-6f" x="7534.033203"/>
     <use xlink:href="#DejaVuSans-Oblique-72" x="7595.214844"/>
     <use xlink:href="#DejaVuSans-Oblique-20" x="7636.328125"/>
     <use xlink:href="#DejaVuSans-Oblique-6f" x="7668.115234"/>
     <use xlink:href="#DejaVuSans-Oblique-72" x="7729.296875"/>
     <use xlink:href="#DejaVuSans-Oblique-20" x="7770.410156"/>
     <use xlink:href="#DejaVuSans-Oblique-68" x="7802.197266"/>
     <use xlink:href="#DejaVuSans-Oblique-69" x="7865.576172"/>
     <use xlink:href="#DejaVuSans-Oblique-67" x="7893.359375"/>
     <use xlink:href="#DejaVuSans-Oblique-68" x="7956.835938"/>
     <use xlink:href="#DejaVuSans-Oblique-20" x="8020.214844"/>
     <use xlink:href="#DejaVuSans-Oblique-76" x="8052.001953"/>
     <use xlink:href="#DejaVuSans-Oblique-61" x="8111.181641"/>
     <use xlink:href="#DejaVuSans-Oblique-72" x="8172.460938"/>
     <use xlink:href="#DejaVuSans-Oblique-69" x="8213.574219"/>
     <use xlink:href="#DejaVuSans-Oblique-61" x="8241.357422"/>
     <use xlink:href="#DejaVuSans-Oblique-6e" x="8302.636719"/>
     <use xlink:href="#DejaVuSans-Oblique-63" x="8366.015625"/>
     <use xlink:href="#DejaVuSans-Oblique-65" x="8420.996094"/>
     <use xlink:href="#DejaVuSans-Oblique-2e" x="8482.519531"/>
    </g>
   </g>
   <g id="text_18">
    <!-- Metric Stability Across Frameworks -->
    <g transform="translate(340.099688 17.837812) scale(0.14 -0.14)">
     <defs>
      <path id="DejaVuSans-Bold-53" d="M 3834 4519 
L 3834 3531 
Q 3450 3703 3084 3790 
Q 2719 3878 2394 3878 
Q 1963 3878 1756 3759 
Q 1550 3641 1550 3391 
Q 1550 3203 1689 3098 
Q 1828 2994 2194 2919 
L 2706 2816 
Q 3484 2659 3812 2340 
Q 4141 2022 4141 1434 
Q 4141 663 3683 286 
Q 3225 -91 2284 -91 
Q 1841 -91 1394 -6 
Q 947 78 500 244 
L 500 1259 
Q 947 1022 1364 901 
Q 1781 781 2169 781 
Q 2563 781 2772 912 
Q 2981 1044 2981 1288 
Q 2981 1506 2839 1625 
Q 2697 1744 2272 1838 
L 1806 1941 
Q 1106 2091 782 2419 
Q 459 2747 459 3303 
Q 459 4000 909 4375 
Q 1359 4750 2203 4750 
Q 2588 4750 2994 4692 
Q 3400 4634 3834 4519 
z
" transform="scale(0.015625)"/>
      <path id="DejaVuSans-Bold-62" d="M 2400 722 
Q 2759 722 2948 984 
Q 3138 1247 3138 1747 
Q 3138 2247 2948 2509 
Q 2759 2772 2400 2772 
Q 2041 2772 1848 2508 
Q 1656 2244 1656 1747 
Q 1656 1250 1848 986 
Q 2041 722 2400 722 
z
M 1656 2988 
Q 1888 3294 2169 3439 
Q 2450 3584 2816 3584 
Q 3463 3584 3878 3070 
Q 4294 2556 4294 1747 
Q 4294 938 3878 423 
Q 3463 -91 2816 -91 
Q 2450 -91 2169 54 
Q 1888 200 1656 506 
L 1656 0 
L 538 0 
L 538 4863 
L 1656 4863 
L 1656 2988 
z
" transform="scale(0.015625)"/>
      <path id="DejaVuSans-Bold-6c" d="M 538 4863 
L 1656 4863 
L 1656 0 
L 538 0 
L 538 4863 
z
" transform="scale(0.015625)"/>
      <path id="DejaVuSans-Bold-79" d="M 78 3500 
L 1197 3500 
L 2138 1125 
L 2938 3500 
L 4056 3500 
L 2584 -331 
Q 2363 -916 2067 -1148 
Q 1772 -1381 1288 -1381 
L 641 -1381 
L 641 -647 
L 991 -647 
Q 1275 -647 1404 -556 
Q 1534 -466 1606 -231 
L 1638 -134 
L 78 3500 
z
" transform="scale(0.015625)"/>
      <path id="DejaVuSans-Bold-41" d="M 3419 850 
L 1538 850 
L 1241 0 
L 31 0 
L 1759 4666 
L 3194 4666 
L 4922 0 
L 3713 0 
L 3419 850 
z
M 1838 1716 
L 3116 1716 
L 2478 3572 
L 1838 1716 
z
" transform="scale(0.015625)"/>
      <path id="DejaVuSans-Bold-73" d="M 3272 3391 
L 3272 2541 
Q 2913 2691 2578 2766 
Q 2244 2841 1947 2841 
Q 1628 2841 1473 2761 
Q 1319 2681 1319 2516 
Q 1319 2381 1436 2309 
Q 1553 2238 1856 2203 
L 2053 2175 
Q 2913 2066 3209 1816 
Q 3506 1566 3506 1031 
Q 3506 472 3093 190 
Q 2681 -91 1863 -91 
Q 1516 -91 1145 -36 
Q 775 19 384 128 
L 384 978 
Q 719 816 1070 734 
Q 1422 653 1784 653 
Q 2113 653 2278 743 
Q 2444 834 2444 1013 
Q 2444 1163 2330 1236 
Q 2216 1309 1875 1350 
L 1678 1375 
Q 931 1469 631 1722 
Q 331 1975 331 2491 
Q 331 3047 712 3315 
Q 1094 3584 1881 3584 
Q 2191 3584 2531 3537 
Q 2872 3491 3272 3391 
z
" transform="scale(0.015625)"/>
      <path id="DejaVuSans-Bold-46" d="M 588 4666 
L 3834 4666 
L 3834 3756 
L 1791 3756 
L 1791 2888 
L 3713 2888 
L 3713 1978 
L 1791 1978 
L 1791 0 
L 588 0 
L 588 4666 
z
" transform="scale(0.015625)"/>
      <path id="DejaVuSans-Bold-6d" d="M 3781 2919 
Q 3994 3244 4286 3414 
Q 4578 3584 4928 3584 
Q 5531 3584 5847 3212 
Q 6163 2841 6163 2131 
L 6163 0 
L 5038 0 
L 5038 1825 
Q 5041 1866 5042 1909 
Q 5044 1953 5044 2034 
Q 5044 2406 4934 2573 
Q 4825 2741 4581 2741 
Q 4263 2741 4089 2478 
Q 3916 2216 3909 1719 
L 3909 0 
L 2784 0 
L 2784 1825 
Q 2784 2406 2684 2573 
Q 2584 2741 2328 2741 
Q 2006 2741 1831 2477 
Q 1656 2213 1656 1722 
L 1656 0 
L 531 0 
L 531 3500 
L 1656 3500 
L 1656 2988 
Q 1863 3284 2130 3434 
Q 2397 3584 2719 3584 
Q 3081 3584 3359 3409 
Q 3638 3234 3781 2919 
z
" transform="scale(0.015625)"/>
      <path id="DejaVuSans-Bold-77" d="M 225 3500 
L 1313 3500 
L 1900 1088 
L 2491 3500 
L 3425 3500 
L 4013 1113 
L 4603 3500 
L 5691 3500 
L 4769 0 
L 3547 0 
L 2956 2406 
L 2369 0 
L 1147 0 
L 225 3500 
z
" transform="scale(0.015625)"/>
      <path id="DejaVuSans-Bold-6b" d="M 538 4863 
L 1656 4863 
L 1656 2216 
L 2944 3500 
L 4244 3500 
L 2534 1894 
L 4378 0 
L 3022 0 
L 1656 1459 
L 1656 0 
L 538 0 
L 538 4863 
z
" transform="scale(0.015625)"/>
     </defs>
     <use xlink:href="#DejaVuSans-Bold-4d"/>
     <use xlink:href="#DejaVuSans-Bold-65" x="99.511719"/>
     <use xlink:href="#DejaVuSans-Bold-74" x="167.333984"/>
     <use xlink:href="#DejaVuSans-Bold-72" x="215.136719"/>
     <use xlink:href="#DejaVuSans-Bold-69" x="264.453125"/>
     <use xlink:href="#DejaVuSans-Bold-63" x="298.730469"/>
     <use xlink:href="#DejaVuSans-Bold-20" x="358.007812"/>
     <use xlink:href="#DejaVuSans-Bold-53" x="392.822266"/>
     <use xlink:href="#DejaVuSans-Bold-74" x="464.84375"/>
     <use xlink:href="#DejaVuSans-Bold-61" x="512.646484"/>
     <use xlink:href="#DejaVuSans-Bold-62" x="580.126953"/>
     <use xlink:href="#DejaVuSans-Bold-69" x="651.708984"/>
     <use xlink:href="#DejaVuSans-Bold-6c" x="685.986328"/>
     <use xlink:href="#DejaVuSans-Bold-69" x="720.263672"/>
     <use xlink:href="#DejaVuSans-Bold-74" x="754.541016"/>
     <use xlink:href="#DejaVuSans-Bold-79" x="802.34375"/>
     <use xlink:href="#DejaVuSans-Bold-20" x="867.529297"/>
     <use xlink:href="#DejaVuSans-Bold-41" x="902.34375"/>
     <use xlink:href="#DejaVuSans-Bold-63" x="979.736328"/>
     <use xlink:href="#DejaVuSans-Bold-72" x="1039.013672"/>
     <use xlink:href="#DejaVuSans-Bold-6f" x="1088.330078"/>
     <use xlink:href="#DejaVuSans-Bold-73" x="1157.03125"/>
     <use xlink:href="#DejaVuSans-Bold-73" x="1216.552734"/>
     <use xlink:href="#DejaVuSans-Bold-20" x="1276.074219"/>
     <use xlink:href="#DejaVuSans-Bold-46" x="1310.888672"/>
     <use xlink:href="#DejaVuSans-Bold-72" x="1372.824219"/>
     <use xlink:href="#DejaVuSans-Bold-61" x="1422.140625"/>
     <use xlink:href="#DejaVuSans-Bold-6d" x="1489.621094"/>
     <use xlink:href="#DejaVuSans-Bold-65" x="1593.820312"/>
     <use xlink:href="#DejaVuSans-Bold-77" x="1661.642578"/>
     <use xlink:href="#DejaVuSans-Bold-6f" x="1754.025391"/>
     <use xlink:href="#DejaVuSans-Bold-72" x="1822.726562"/>
     <use xlink:href="#DejaVuSans-Bold-6b" x="1872.042969"/>
     <use xlink:href="#DejaVuSans-Bold-73" x="1938.546875"/>
    </g>
   </g>
   <g id="legend_1">
    <g id="patch_9">
     <path d="M 393.806641 363.661012 
L 566.121484 363.661012 
Q 567.921484 363.661012 567.921484 361.861012 
L 567.921484 283.499137 
Q 567.921484 281.699137 566.121484 281.699137 
L 393.806641 281.699137 
Q 392.006641 281.699137 392.006641 283.499137 
L 392.006641 361.861012 
Q 392.006641 363.661012 393.806641 363.661012 
z
" style="fill: #ffffff; opacity: 0.9; stroke: #cccccc; stroke-width: 0.8; stroke-linejoin: miter"/>
    </g>
    <g id="PathCollection_22">
     <g>
      <use xlink:href="#m836bf8cd87" x="404.606641" y="289.775231" style="fill: #029e73; fill-opacity: 0.7; stroke: #000000; stroke-opacity: 0.7; stroke-width: 1.5"/>
     </g>
    </g>
    <g id="text_19">
     <!-- ghspec -->
     <g transform="translate(420.806641 292.137731) scale(0.09 -0.09)">
      <defs>
       <path id="DejaVuSans-67" d="M 2906 1791 
Q 2906 2416 2648 2759 
Q 2391 3103 1925 3103 
Q 1463 3103 1205 2759 
Q 947 2416 947 1791 
Q 947 1169 1205 825 
Q 1463 481 1925 481 
Q 2391 481 2648 825 
Q 2906 1169 2906 1791 
z
M 3481 434 
Q 3481 -459 3084 -895 
Q 2688 -1331 1869 -1331 
Q 1566 -1331 1297 -1286 
Q 1028 -1241 775 -1147 
L 775 -588 
Q 1028 -725 1275 -790 
Q 1522 -856 1778 -856 
Q 2344 -856 2625 -561 
Q 2906 -266 2906 331 
L 2906 616 
Q 2728 306 2450 153 
Q 2172 0 1784 0 
Q 1141 0 747 490 
Q 353 981 353 1791 
Q 353 2603 747 3093 
Q 1141 3584 1784 3584 
Q 2172 3584 2450 3431 
Q 2728 3278 2906 2969 
L 2906 3500 
L 3481 3500 
L 3481 434 
z
" transform="scale(0.015625)"/>
      </defs>
      <use xlink:href="#DejaVuSans-67"/>
      <use xlink:href="#DejaVuSans-68" x="63.476562"/>
      <use xlink:href="#DejaVuSans-73" x="126.855469"/>
      <use xlink:href="#DejaVuSans-70" x="178.955078"/>
      <use xlink:href="#DejaVuSans-65" x="242.431641"/>
      <use xlink:href="#DejaVuSans-63" x="303.955078"/>
     </g>
    </g>
    <g id="PathCollection_23">
     <g>
      <use xlink:href="#mb2d5d50ddd" x="404.606641" y="302.985544" style="fill: #0173b2; fill-opacity: 0.7; stroke: #000000; stroke-opacity: 0.7; stroke-width: 1.5"/>
     </g>
    </g>
    <g id="text_20">
     <!-- baes -->
     <g transform="translate(420.806641 305.348044) scale(0.09 -0.09)">
      <defs>
       <path id="DejaVuSans-62" d="M 3116 1747 
Q 3116 2381 2855 2742 
Q 2594 3103 2138 3103 
Q 1681 3103 1420 2742 
Q 1159 2381 1159 1747 
Q 1159 1113 1420 752 
Q 1681 391 2138 391 
Q 2594 391 2855 752 
Q 3116 1113 3116 1747 
z
M 1159 2969 
Q 1341 3281 1617 3432 
Q 1894 3584 2278 3584 
Q 2916 3584 3314 3078 
Q 3713 2572 3713 1747 
Q 3713 922 3314 415 
Q 2916 -91 2278 -91 
Q 1894 -91 1617 61 
Q 1341 213 1159 525 
L 1159 0 
L 581 0 
L 581 4863 
L 1159 4863 
L 1159 2969 
z
" transform="scale(0.015625)"/>
      </defs>
      <use xlink:href="#DejaVuSans-62"/>
      <use xlink:href="#DejaVuSans-61" x="63.476562"/>
      <use xlink:href="#DejaVuSans-65" x="124.755859"/>
      <use xlink:href="#DejaVuSans-73" x="186.279297"/>
     </g>
    </g>
    <g id="PathCollection_24">
     <g>
      <use xlink:href="#m8f3042c448" x="404.606641" y="316.195856" style="fill: #de8f05; fill-opacity: 0.7; stroke: #000000; stroke-opacity: 0.7; stroke-width: 1.5"/>
     </g>
    </g>
    <g id="text_21">
     <!-- chatdev -->
     <g transform="translate(420.806641 318.558356) scale(0.09 -0.09)">
      <defs>
       <path id="DejaVuSans-76" d="M 191 3500 
L 800 3500 
L 1894 563 
L 2988 3500 
L 3597 3500 
L 2284 0 
L 1503 0 
L 191 3500 
z
" transform="scale(0.015625)"/>
      </defs>
      <use xlink:href="#DejaVuSans-63"/>
      <use xlink:href="#DejaVuSans-68" x="54.980469"/>
      <use xlink:href="#DejaVuSans-61" x="118.359375"/>
      <use xlink:href="#DejaVuSans-74" x="179.638672"/>
      <use xlink:href="#DejaVuSans-64" x="218.847656"/>
      <use xlink:href="#DejaVuSans-65" x="282.324219"/>
      <use xlink:href="#DejaVuSans-76" x="343.847656"/>
     </g>
    </g>
    <g id="line2d_30">
     <path d="M 395.606641 328.618669 
L 404.606641 328.618669 
L 413.606641 328.618669 
" style="fill: none; stroke-dasharray: 7.4,3.2; stroke-dashoffset: 0; stroke: #ff0000; stroke-opacity: 0.7; stroke-width: 2"/>
    </g>
    <g id="text_22">
     <!-- Stability Threshold (CV=0.3) -->
     <g transform="translate(420.806641 331.768669) scale(0.09 -0.09)">
      <defs>
       <path id="DejaVuSans-79" d="M 2059 -325 
Q 1816 -950 1584 -1140 
Q 1353 -1331 966 -1331 
L 506 -1331 
L 506 -850 
L 844 -850 
Q 1081 -850 1212 -737 
Q 1344 -625 1503 -206 
L 1606 56 
L 191 3500 
L 800 3500 
L 1894 763 
L 2988 3500 
L 3597 3500 
L 2059 -325 
z
" transform="scale(0.015625)"/>
       <path id="DejaVuSans-72" d="M 2631 2963 
Q 2534 3019 2420 3045 
Q 2306 3072 2169 3072 
Q 1681 3072 1420 2755 
Q 1159 2438 1159 1844 
L 1159 0 
L 581 0 
L 581 3500 
L 1159 3500 
L 1159 2956 
Q 1341 3275 1631 3429 
Q 1922 3584 2338 3584 
Q 2397 3584 2469 3576 
Q 2541 3569 2628 3553 
L 2631 2963 
z
" transform="scale(0.015625)"/>
       <path id="DejaVuSans-56" d="M 1831 0 
L 50 4666 
L 709 4666 
L 2188 738 
L 3669 4666 
L 4325 4666 
L 2547 0 
L 1831 0 
z
" transform="scale(0.015625)"/>
       <path id="DejaVuSans-3d" d="M 678 2906 
L 4684 2906 
L 4684 2381 
L 678 2381 
L 678 2906 
z
M 678 1631 
L 4684 1631 
L 4684 1100 
L 678 1100 
L 678 1631 
z
" transform="scale(0.015625)"/>
       <path id="DejaVuSans-2e" d="M 684 794 
L 1344 794 
L 1344 0 
L 684 0 
L 684 794 
z
" transform="scale(0.015625)"/>
      </defs>
      <use xlink:href="#DejaVuSans-53"/>
      <use xlink:href="#DejaVuSans-74" x="63.476562"/>
      <use xlink:href="#DejaVuSans-61" x="102.685547"/>
      <use xlink:href="#DejaVuSans-62" x="163.964844"/>
      <use xlink:href="#DejaVuSans-69" x="227.441406"/>
      <use xlink:href="#DejaVuSans-6c" x="255.224609"/>
      <use xlink:href="#DejaVuSans-69" x="283.007812"/>
      <use xlink:href="#DejaVuSans-74" x="310.791016"/>
      <use xlink:href="#DejaVuSans-79" x="350"/>
      <use xlink:href="#DejaVuSans-20" x="409.179688"/>
      <use xlink:href="#DejaVuSans-54" x="440.966797"/>
      <use xlink:href="#DejaVuSans-68" x="502.050781"/>
      <use xlink:href="#DejaVuSans-72" x="565.429688"/>
      <use xlink:href="#DejaVuSans-65" x="604.292969"/>
      <use xlink:href="#DejaVuSans-73" x="665.816406"/>
      <use xlink:href="#DejaVuSans-68" x="717.916016"/>
      <use xlink:href="#DejaVuSans-6f" x="781.294922"/>
      <use xlink:href="#DejaVuSans-6c" x="842.476562"/>
      <use xlink:href="#DejaVuSans-64" x="870.259766"/>
      <use xlink:href="#DejaVuSans-20" x="933.736328"/>
      <use xlink:href="#DejaVuSans-28" x="965.523438"/>
      <use xlink:href="#DejaVuSans-43" x="1004.537109"/>
      <use xlink:href="#DejaVuSans-56" x="1074.361328"/>
      <use xlink:href="#DejaVuSans-3d" x="1142.769531"/>
      <use xlink:href="#DejaVuSans-30" x="1226.558594"/>
      <use xlink:href="#DejaVuSans-2e" x="1290.181641"/>
      <use xlink:href="#DejaVuSans-33" x="1321.96875"/>
      <use xlink:href="#DejaVuSans-29" x="1385.591797"/>
     </g>
    </g>
    <g id="patch_10">
     <path d="M 395.606641 344.978981 
L 413.606641 344.978981 
L 413.606641 338.678981 
L 395.606641 338.678981 
z
" style="fill: #008000; opacity: 0.1; stroke: #008000; stroke-width: 0.8; stroke-linejoin: miter"/>
    </g>
    <g id="text_23">
     <!-- Stable Zone (CV &lt; threshold) -->
     <g transform="translate(420.806641 344.978981) scale(0.09 -0.09)">
      <defs>
       <path id="DejaVuSans-5a" d="M 359 4666 
L 4025 4666 
L 4025 4184 
L 1075 531 
L 4097 531 
L 4097 0 
L 288 0 
L 288 481 
L 3238 4134 
L 359 4134 
L 359 4666 
z
" transform="scale(0.015625)"/>
       <path id="DejaVuSans-3c" d="M 4684 3150 
L 1459 2003 
L 4684 863 
L 4684 294 
L 678 1747 
L 678 2266 
L 4684 3719 
L 4684 3150 
z
" transform="scale(0.015625)"/>
      </defs>
      <use xlink:href="#DejaVuSans-53"/>
      <use xlink:href="#DejaVuSans-74" x="63.476562"/>
      <use xlink:href="#DejaVuSans-61" x="102.685547"/>
      <use xlink:href="#DejaVuSans-62" x="163.964844"/>
      <use xlink:href="#DejaVuSans-6c" x="227.441406"/>
      <use xlink:href="#DejaVuSans-65" x="255.224609"/>
      <use xlink:href="#DejaVuSans-20" x="316.748047"/>
      <use xlink:href="#DejaVuSans-5a" x="348.535156"/>
      <use xlink:href="#DejaVuSans-6f" x="417.041016"/>
      <use xlink:href="#DejaVuSans-6e" x="478.222656"/>
      <use xlink:href="#DejaVuSans-65" x="541.601562"/>
      <use xlink:href="#DejaVuSans-20" x="603.125"/>
      <use xlink:href="#DejaVuSans-28" x="634.912109"/>
      <use xlink:href="#DejaVuSans-43" x="673.925781"/>
      <use xlink:href="#DejaVuSans-56" x="743.75"/>
      <use xlink:href="#DejaVuSans-20" x="812.158203"/>
      <use xlink:href="#DejaVuSans-3c" x="843.945312"/>
      <use xlink:href="#DejaVuSans-20" x="927.734375"/>
      <use xlink:href="#DejaVuSans-74" x="959.521484"/>
      <use xlink:href="#DejaVuSans-68" x="998.730469"/>
      <use xlink:href="#DejaVuSans-72" x="1062.109375"/>
      <use xlink:href="#DejaVuSans-65" x="1100.972656"/>
      <use xlink:href="#DejaVuSans-73" x="1162.496094"/>
      <use xlink:href="#DejaVuSans-68" x="1214.595703"/>
      <use xlink:href="#DejaVuSans-6f" x="1277.974609"/>
      <use xlink:href="#DejaVuSans-6c" x="1339.15625"/>
      <use xlink:href="#DejaVuSans-64" x="1366.939453"/>
      <use xlink:href="#DejaVuSans-29" x="1430.416016"/>
     </g>
    </g>
    <g id="patch_11">
     <path d="M 395.606641 358.189294 
L 413.606641 358.189294 
L 413.606641 351.889294 
L 395.606641 351.889294 
z
" style="fill: #ff0000; opacity: 0.1; stroke: #ff0000; stroke-width: 0.8; stroke-linejoin: miter"/>
    </g>
    <g id="text_24">
     <!-- Unstable Zone (CV ≥ threshold) -->
     <g transform="translate(420.806641 358.189294) scale(0.09 -0.09)">
      <defs>
       <path id="DejaVuSans-2265" d="M 678 3175 
L 678 3725 
L 4684 2578 
L 4684 2047 
L 678 897 
L 678 1453 
L 3681 2309 
L 678 3175 
z
M 4684 531 
L 4684 0 
L 678 0 
L 678 531 
L 4684 531 
z
" transform="scale(0.015625)"/>
      </defs>
      <use xlink:href="#DejaVuSans-55"/>
      <use xlink:href="#DejaVuSans-6e" x="73.193359"/>
      <use xlink:href="#DejaVuSans-73" x="136.572266"/>
      <use xlink:href="#DejaVuSans-74" x="188.671875"/>
      <use xlink:href="#DejaVuSans-61" x="227.880859"/>
      <use xlink:href="#DejaVuSans-62" x="289.160156"/>
      <use xlink:href="#DejaVuSans-6c" x="352.636719"/>
      <use xlink:href="#DejaVuSans-65" x="380.419922"/>
      <use xlink:href="#DejaVuSans-20" x="441.943359"/>
      <use xlink:href="#DejaVuSans-5a" x="473.730469"/>
      <use xlink:href="#DejaVuSans-6f" x="542.236328"/>
      <use xlink:href="#DejaVuSans-6e" x="603.417969"/>
      <use xlink:href="#DejaVuSans-65" x="666.796875"/>
      <use xlink:href="#DejaVuSans-20" x="728.320312"/>
      <use xlink:href="#DejaVuSans-28" x="760.107422"/>
      <use xlink:href="#DejaVuSans-43" x="799.121094"/>
      <use xlink:href="#DejaVuSans-56" x="868.945312"/>
      <use xlink:href="#DejaVuSans-20" x="937.353516"/>
      <use xlink:href="#DejaVuSans-2265" x="969.140625"/>
      <use xlink:href="#DejaVuSans-20" x="1052.929688"/>
      <use xlink:href="#DejaVuSans-74" x="1084.716797"/>
      <use xlink:href="#DejaVuSans-68" x="1123.925781"/>
      <use xlink:href="#DejaVuSans-72" x="1187.304688"/>
      <use xlink:href="#DejaVuSans-65" x="1226.167969"/>
      <use xlink:href="#DejaVuSans-73" x="1287.691406"/>
      <use xlink:href="#DejaVuSans-68" x="1339.791016"/>
      <use xlink:href="#DejaVuSans-6f" x="1403.169922"/>
      <use xlink:href="#DejaVuSans-6c" x="1464.351562"/>
      <use xlink:href="#DejaVuSans-64" x="1492.134766"/>
      <use xlink:href="#DejaVuSans-29" x="1555.611328"/>
     </g>
    </g>
   </g>
  </g>
 </g>
 <defs>
  <clipPath id="pcc56d82a1c">
   <rect x="159.684063" y="23.837812" width="640.56" height="344.3232"/>
  </clipPath>
 </defs>
</svg>
