<?xml version="1.0" encoding="utf-8" standalone="no"?>
<!DOCTYPE svg PUBLIC "-//W3C//DTD SVG 1.1//EN"
  "http://www.w3.org/Graphics/SVG/1.1/DTD/svg11.dtd">
<svg xmlns:xlink="http://www.w3.org/1999/xlink" width="506.011562pt" height="394.782188pt" viewBox="0 0 506.011562 394.782188" xmlns="http://www.w3.org/2000/svg" version="1.1">
 <metadata>
  <rdf:RDF xmlns:dc="http://purl.org/dc/elements/1.1/" xmlns:cc="http://creativecommons.org/ns#" xmlns:rdf="http://www.w3.org/1999/02/22-rdf-syntax-ns#">
   <cc:Work>
    <dc:type rdf:resource="http://purl.org/dc/dcmitype/StillImage"/>
    <dc:date>2025-11-03T08:44:53.290392</dc:date>
    <dc:format>image/svg+xml</dc:format>
    <dc:creator>
     <cc:Agent>
      <dc:title>Matplotlib v3.8.0, https://matplotlib.org/</dc:title>
     </cc:Agent>
    </dc:creator>
   </cc:Work>
  </rdf:RDF>
 </metadata>
 <defs>
  <style type="text/css">*{stroke-linejoin: round; stroke-linecap: butt}</style>
 </defs>
 <g id="figure_1">
  <g id="patch_1">
   <path d="M 0 394.782188 
L 506.011562 394.782188 
L 506.011562 -0 
L 0 -0 
z
" style="fill: #ffffff"/>
  </g>
  <g id="axes_1">
   <g id="patch_2">
    <path d="M 52.411563 354.958125 
L 498.811562 354.958125 
L 498.811562 22.318125 
L 52.411563 22.318125 
z
" style="fill: #ffffff"/>
   </g>
   <g id="matplotlib.axis_1">
    <g id="xtick_1">
     <g id="line2d_1">
      <defs>
       <path id="m683e550a8b" d="M 0 0 
L 0 4.8 
" style="stroke: #000000"/>
      </defs>
      <g>
       <use xlink:href="#m683e550a8b" x="126.811562" y="354.958125" style="stroke: #000000"/>
      </g>
     </g>
     <g id="text_1">
      <!-- ghspec -->
      <g transform="translate(108.863906 370.856562) scale(0.1 -0.1)">
       <defs>
        <path id="DejaVuSans-67" d="M 2906 1791 
Q 2906 2416 2648 2759 
Q 2391 3103 1925 3103 
Q 1463 3103 1205 2759 
Q 947 2416 947 1791 
Q 947 1169 1205 825 
Q 1463 481 1925 481 
Q 2391 481 2648 825 
Q 2906 1169 2906 1791 
z
M 3481 434 
Q 3481 -459 3084 -895 
Q 2688 -1331 1869 -1331 
Q 1566 -1331 1297 -1286 
Q 1028 -1241 775 -1147 
L 775 -588 
Q 1028 -725 1275 -790 
Q 1522 -856 1778 -856 
Q 2344 -856 2625 -561 
Q 2906 -266 2906 331 
L 2906 616 
Q 2728 306 2450 153 
Q 2172 0 1784 0 
Q 1141 0 747 490 
Q 353 981 353 1791 
Q 353 2603 747 3093 
Q 1141 3584 1784 3584 
Q 2172 3584 2450 3431 
Q 2728 3278 2906 2969 
L 2906 3500 
L 3481 3500 
L 3481 434 
z
" transform="scale(0.015625)"/>
        <path id="DejaVuSans-68" d="M 3513 2113 
L 3513 0 
L 2938 0 
L 2938 2094 
Q 2938 2591 2744 2837 
Q 2550 3084 2163 3084 
Q 1697 3084 1428 2787 
Q 1159 2491 1159 1978 
L 1159 0 
L 581 0 
L 581 4863 
L 1159 4863 
L 1159 2956 
Q 1366 3272 1645 3428 
Q 1925 3584 2291 3584 
Q 2894 3584 3203 3211 
Q 3513 2838 3513 2113 
z
" transform="scale(0.015625)"/>
        <path id="DejaVuSans-73" d="M 2834 3397 
L 2834 2853 
Q 2591 2978 2328 3040 
Q 2066 3103 1784 3103 
Q 1356 3103 1142 2972 
Q 928 2841 928 2578 
Q 928 2378 1081 2264 
Q 1234 2150 1697 2047 
L 1894 2003 
Q 2506 1872 2764 1633 
Q 3022 1394 3022 966 
Q 3022 478 2636 193 
Q 2250 -91 1575 -91 
Q 1294 -91 989 -36 
Q 684 19 347 128 
L 347 722 
Q 666 556 975 473 
Q 1284 391 1588 391 
Q 1994 391 2212 530 
Q 2431 669 2431 922 
Q 2431 1156 2273 1281 
Q 2116 1406 1581 1522 
L 1381 1569 
Q 847 1681 609 1914 
Q 372 2147 372 2553 
Q 372 3047 722 3315 
Q 1072 3584 1716 3584 
Q 2034 3584 2315 3537 
Q 2597 3491 2834 3397 
z
" transform="scale(0.015625)"/>
        <path id="DejaVuSans-70" d="M 1159 525 
L 1159 -1331 
L 581 -1331 
L 581 3500 
L 1159 3500 
L 1159 2969 
Q 1341 3281 1617 3432 
Q 1894 3584 2278 3584 
Q 2916 3584 3314 3078 
Q 3713 2572 3713 1747 
Q 3713 922 3314 415 
Q 2916 -91 2278 -91 
Q 1894 -91 1617 61 
Q 1341 213 1159 525 
z
M 3116 1747 
Q 3116 2381 2855 2742 
Q 2594 3103 2138 3103 
Q 1681 3103 1420 2742 
Q 1159 2381 1159 1747 
Q 1159 1113 1420 752 
Q 1681 391 2138 391 
Q 2594 391 2855 752 
Q 3116 1113 3116 1747 
z
" transform="scale(0.015625)"/>
        <path id="DejaVuSans-65" d="M 3597 1894 
L 3597 1613 
L 953 1613 
Q 991 1019 1311 708 
Q 1631 397 2203 397 
Q 2534 397 2845 478 
Q 3156 559 3463 722 
L 3463 178 
Q 3153 47 2828 -22 
Q 2503 -91 2169 -91 
Q 1331 -91 842 396 
Q 353 884 353 1716 
Q 353 2575 817 3079 
Q 1281 3584 2069 3584 
Q 2775 3584 3186 3129 
Q 3597 2675 3597 1894 
z
M 3022 2063 
Q 3016 2534 2758 2815 
Q 2500 3097 2075 3097 
Q 1594 3097 1305 2825 
Q 1016 2553 972 2059 
L 3022 2063 
z
" transform="scale(0.015625)"/>
        <path id="DejaVuSans-63" d="M 3122 3366 
L 3122 2828 
Q 2878 2963 2633 3030 
Q 2388 3097 2138 3097 
Q 1578 3097 1268 2742 
Q 959 2388 959 1747 
Q 959 1106 1268 751 
Q 1578 397 2138 397 
Q 2388 397 2633 464 
Q 2878 531 3122 666 
L 3122 134 
Q 2881 22 2623 -34 
Q 2366 -91 2075 -91 
Q 1284 -91 818 406 
Q 353 903 353 1747 
Q 353 2603 823 3093 
Q 1294 3584 2113 3584 
Q 2378 3584 2631 3529 
Q 2884 3475 3122 3366 
z
" transform="scale(0.015625)"/>
       </defs>
       <use xlink:href="#DejaVuSans-67"/>
       <use xlink:href="#DejaVuSans-68" x="63.476562"/>
       <use xlink:href="#DejaVuSans-73" x="126.855469"/>
       <use xlink:href="#DejaVuSans-70" x="178.955078"/>
       <use xlink:href="#DejaVuSans-65" x="242.431641"/>
       <use xlink:href="#DejaVuSans-63" x="303.955078"/>
      </g>
     </g>
    </g>
    <g id="xtick_2">
     <g id="line2d_2">
      <g>
       <use xlink:href="#m683e550a8b" x="275.611562" y="354.958125" style="stroke: #000000"/>
      </g>
     </g>
     <g id="text_2">
      <!-- baes -->
      <g transform="translate(263.692031 370.856562) scale(0.1 -0.1)">
       <defs>
        <path id="DejaVuSans-62" d="M 3116 1747 
Q 3116 2381 2855 2742 
Q 2594 3103 2138 3103 
Q 1681 3103 1420 2742 
Q 1159 2381 1159 1747 
Q 1159 1113 1420 752 
Q 1681 391 2138 391 
Q 2594 391 2855 752 
Q 3116 1113 3116 1747 
z
M 1159 2969 
Q 1341 3281 1617 3432 
Q 1894 3584 2278 3584 
Q 2916 3584 3314 3078 
Q 3713 2572 3713 1747 
Q 3713 922 3314 415 
Q 2916 -91 2278 -91 
Q 1894 -91 1617 61 
Q 1341 213 1159 525 
L 1159 0 
L 581 0 
L 581 4863 
L 1159 4863 
L 1159 2969 
z
" transform="scale(0.015625)"/>
        <path id="DejaVuSans-61" d="M 2194 1759 
Q 1497 1759 1228 1600 
Q 959 1441 959 1056 
Q 959 750 1161 570 
Q 1363 391 1709 391 
Q 2188 391 2477 730 
Q 2766 1069 2766 1631 
L 2766 1759 
L 2194 1759 
z
M 3341 1997 
L 3341 0 
L 2766 0 
L 2766 531 
Q 2569 213 2275 61 
Q 1981 -91 1556 -91 
Q 1019 -91 701 211 
Q 384 513 384 1019 
Q 384 1609 779 1909 
Q 1175 2209 1959 2209 
L 2766 2209 
L 2766 2266 
Q 2766 2663 2505 2880 
Q 2244 3097 1772 3097 
Q 1472 3097 1187 3025 
Q 903 2953 641 2809 
L 641 3341 
Q 956 3463 1253 3523 
Q 1550 3584 1831 3584 
Q 2591 3584 2966 3190 
Q 3341 2797 3341 1997 
z
" transform="scale(0.015625)"/>
       </defs>
       <use xlink:href="#DejaVuSans-62"/>
       <use xlink:href="#DejaVuSans-61" x="63.476562"/>
       <use xlink:href="#DejaVuSans-65" x="124.755859"/>
       <use xlink:href="#DejaVuSans-73" x="186.279297"/>
      </g>
     </g>
    </g>
    <g id="xtick_3">
     <g id="line2d_3">
      <g>
       <use xlink:href="#m683e550a8b" x="424.411562" y="354.958125" style="stroke: #000000"/>
      </g>
     </g>
     <g id="text_3">
      <!-- chatdev -->
      <g transform="translate(404.259219 370.856562) scale(0.1 -0.1)">
       <defs>
        <path id="DejaVuSans-74" d="M 1172 4494 
L 1172 3500 
L 2356 3500 
L 2356 3053 
L 1172 3053 
L 1172 1153 
Q 1172 725 1289 603 
Q 1406 481 1766 481 
L 2356 481 
L 2356 0 
L 1766 0 
Q 1100 0 847 248 
Q 594 497 594 1153 
L 594 3053 
L 172 3053 
L 172 3500 
L 594 3500 
L 594 4494 
L 1172 4494 
z
" transform="scale(0.015625)"/>
        <path id="DejaVuSans-64" d="M 2906 2969 
L 2906 4863 
L 3481 4863 
L 3481 0 
L 2906 0 
L 2906 525 
Q 2725 213 2448 61 
Q 2172 -91 1784 -91 
Q 1150 -91 751 415 
Q 353 922 353 1747 
Q 353 2572 751 3078 
Q 1150 3584 1784 3584 
Q 2172 3584 2448 3432 
Q 2725 3281 2906 2969 
z
M 947 1747 
Q 947 1113 1208 752 
Q 1469 391 1925 391 
Q 2381 391 2643 752 
Q 2906 1113 2906 1747 
Q 2906 2381 2643 2742 
Q 2381 3103 1925 3103 
Q 1469 3103 1208 2742 
Q 947 2381 947 1747 
z
" transform="scale(0.015625)"/>
        <path id="DejaVuSans-76" d="M 191 3500 
L 800 3500 
L 1894 563 
L 2988 3500 
L 3597 3500 
L 2284 0 
L 1503 0 
L 191 3500 
z
" transform="scale(0.015625)"/>
       </defs>
       <use xlink:href="#DejaVuSans-63"/>
       <use xlink:href="#DejaVuSans-68" x="54.980469"/>
       <use xlink:href="#DejaVuSans-61" x="118.359375"/>
       <use xlink:href="#DejaVuSans-74" x="179.638672"/>
       <use xlink:href="#DejaVuSans-64" x="218.847656"/>
       <use xlink:href="#DejaVuSans-65" x="282.324219"/>
       <use xlink:href="#DejaVuSans-76" x="343.847656"/>
      </g>
     </g>
    </g>
    <g id="text_4">
     <!-- Framework -->
     <g transform="translate(245.164766 385.294531) scale(0.11 -0.11)">
      <defs>
       <path id="DejaVuSans-46" d="M 628 4666 
L 3309 4666 
L 3309 4134 
L 1259 4134 
L 1259 2759 
L 3109 2759 
L 3109 2228 
L 1259 2228 
L 1259 0 
L 628 0 
L 628 4666 
z
" transform="scale(0.015625)"/>
       <path id="DejaVuSans-72" d="M 2631 2963 
Q 2534 3019 2420 3045 
Q 2306 3072 2169 3072 
Q 1681 3072 1420 2755 
Q 1159 2438 1159 1844 
L 1159 0 
L 581 0 
L 581 3500 
L 1159 3500 
L 1159 2956 
Q 1341 3275 1631 3429 
Q 1922 3584 2338 3584 
Q 2397 3584 2469 3576 
Q 2541 3569 2628 3553 
L 2631 2963 
z
" transform="scale(0.015625)"/>
       <path id="DejaVuSans-6d" d="M 3328 2828 
Q 3544 3216 3844 3400 
Q 4144 3584 4550 3584 
Q 5097 3584 5394 3201 
Q 5691 2819 5691 2113 
L 5691 0 
L 5113 0 
L 5113 2094 
Q 5113 2597 4934 2840 
Q 4756 3084 4391 3084 
Q 3944 3084 3684 2787 
Q 3425 2491 3425 1978 
L 3425 0 
L 2847 0 
L 2847 2094 
Q 2847 2600 2669 2842 
Q 2491 3084 2119 3084 
Q 1678 3084 1418 2786 
Q 1159 2488 1159 1978 
L 1159 0 
L 581 0 
L 581 3500 
L 1159 3500 
L 1159 2956 
Q 1356 3278 1631 3431 
Q 1906 3584 2284 3584 
Q 2666 3584 2933 3390 
Q 3200 3197 3328 2828 
z
" transform="scale(0.015625)"/>
       <path id="DejaVuSans-77" d="M 269 3500 
L 844 3500 
L 1563 769 
L 2278 3500 
L 2956 3500 
L 3675 769 
L 4391 3500 
L 4966 3500 
L 4050 0 
L 3372 0 
L 2619 2869 
L 1863 0 
L 1184 0 
L 269 3500 
z
" transform="scale(0.015625)"/>
       <path id="DejaVuSans-6f" d="M 1959 3097 
Q 1497 3097 1228 2736 
Q 959 2375 959 1747 
Q 959 1119 1226 758 
Q 1494 397 1959 397 
Q 2419 397 2687 759 
Q 2956 1122 2956 1747 
Q 2956 2369 2687 2733 
Q 2419 3097 1959 3097 
z
M 1959 3584 
Q 2709 3584 3137 3096 
Q 3566 2609 3566 1747 
Q 3566 888 3137 398 
Q 2709 -91 1959 -91 
Q 1206 -91 779 398 
Q 353 888 353 1747 
Q 353 2609 779 3096 
Q 1206 3584 1959 3584 
z
" transform="scale(0.015625)"/>
       <path id="DejaVuSans-6b" d="M 581 4863 
L 1159 4863 
L 1159 1991 
L 2875 3500 
L 3609 3500 
L 1753 1863 
L 3688 0 
L 2938 0 
L 1159 1709 
L 1159 0 
L 581 0 
L 581 4863 
z
" transform="scale(0.015625)"/>
      </defs>
      <use xlink:href="#DejaVuSans-46"/>
      <use xlink:href="#DejaVuSans-72" x="50.269531"/>
      <use xlink:href="#DejaVuSans-61" x="91.382812"/>
      <use xlink:href="#DejaVuSans-6d" x="152.662109"/>
      <use xlink:href="#DejaVuSans-65" x="250.074219"/>
      <use xlink:href="#DejaVuSans-77" x="311.597656"/>
      <use xlink:href="#DejaVuSans-6f" x="393.384766"/>
      <use xlink:href="#DejaVuSans-72" x="454.566406"/>
      <use xlink:href="#DejaVuSans-6b" x="495.679688"/>
     </g>
    </g>
   </g>
   <g id="matplotlib.axis_2">
    <g id="ytick_1">
     <g id="line2d_4">
      <path d="M 52.411563 305.845602 
L 498.811562 305.845602 
" clip-path="url(#p8061bfbd81)" style="fill: none; stroke: #b0b0b0; stroke-opacity: 0.3; stroke-width: 0.8; stroke-linecap: square"/>
     </g>
     <g id="line2d_5">
      <defs>
       <path id="me4dc72b8d5" d="M 0 0 
L -4.8 0 
" style="stroke: #000000"/>
      </defs>
      <g>
       <use xlink:href="#me4dc72b8d5" x="52.411563" y="305.845602" style="stroke: #000000"/>
      </g>
     </g>
     <g id="text_5">
      <!-- 0.02 -->
      <g transform="translate(21.845938 309.644821) scale(0.1 -0.1)">
       <defs>
        <path id="DejaVuSans-30" d="M 2034 4250 
Q 1547 4250 1301 3770 
Q 1056 3291 1056 2328 
Q 1056 1369 1301 889 
Q 1547 409 2034 409 
Q 2525 409 2770 889 
Q 3016 1369 3016 2328 
Q 3016 3291 2770 3770 
Q 2525 4250 2034 4250 
z
M 2034 4750 
Q 2819 4750 3233 4129 
Q 3647 3509 3647 2328 
Q 3647 1150 3233 529 
Q 2819 -91 2034 -91 
Q 1250 -91 836 529 
Q 422 1150 422 2328 
Q 422 3509 836 4129 
Q 1250 4750 2034 4750 
z
" transform="scale(0.015625)"/>
        <path id="DejaVuSans-2e" d="M 684 794 
L 1344 794 
L 1344 0 
L 684 0 
L 684 794 
z
" transform="scale(0.015625)"/>
        <path id="DejaVuSans-32" d="M 1228 531 
L 3431 531 
L 3431 0 
L 469 0 
L 469 531 
Q 828 903 1448 1529 
Q 2069 2156 2228 2338 
Q 2531 2678 2651 2914 
Q 2772 3150 2772 3378 
Q 2772 3750 2511 3984 
Q 2250 4219 1831 4219 
Q 1534 4219 1204 4116 
Q 875 4013 500 3803 
L 500 4441 
Q 881 4594 1212 4672 
Q 1544 4750 1819 4750 
Q 2544 4750 2975 4387 
Q 3406 4025 3406 3419 
Q 3406 3131 3298 2873 
Q 3191 2616 2906 2266 
Q 2828 2175 2409 1742 
Q 1991 1309 1228 531 
z
" transform="scale(0.015625)"/>
       </defs>
       <use xlink:href="#DejaVuSans-30"/>
       <use xlink:href="#DejaVuSans-2e" x="63.623047"/>
       <use xlink:href="#DejaVuSans-30" x="95.410156"/>
       <use xlink:href="#DejaVuSans-32" x="159.033203"/>
      </g>
     </g>
    </g>
    <g id="ytick_2">
     <g id="line2d_6">
      <path d="M 52.411563 237.189612 
L 498.811562 237.189612 
" clip-path="url(#p8061bfbd81)" style="fill: none; stroke: #b0b0b0; stroke-opacity: 0.3; stroke-width: 0.8; stroke-linecap: square"/>
     </g>
     <g id="line2d_7">
      <g>
       <use xlink:href="#me4dc72b8d5" x="52.411563" y="237.189612" style="stroke: #000000"/>
      </g>
     </g>
     <g id="text_6">
      <!-- 0.04 -->
      <g transform="translate(21.845938 240.98883) scale(0.1 -0.1)">
       <defs>
        <path id="DejaVuSans-34" d="M 2419 4116 
L 825 1625 
L 2419 1625 
L 2419 4116 
z
M 2253 4666 
L 3047 4666 
L 3047 1625 
L 3713 1625 
L 3713 1100 
L 3047 1100 
L 3047 0 
L 2419 0 
L 2419 1100 
L 313 1100 
L 313 1709 
L 2253 4666 
z
" transform="scale(0.015625)"/>
       </defs>
       <use xlink:href="#DejaVuSans-30"/>
       <use xlink:href="#DejaVuSans-2e" x="63.623047"/>
       <use xlink:href="#DejaVuSans-30" x="95.410156"/>
       <use xlink:href="#DejaVuSans-34" x="159.033203"/>
      </g>
     </g>
    </g>
    <g id="ytick_3">
     <g id="line2d_8">
      <path d="M 52.411563 168.533621 
L 498.811562 168.533621 
" clip-path="url(#p8061bfbd81)" style="fill: none; stroke: #b0b0b0; stroke-opacity: 0.3; stroke-width: 0.8; stroke-linecap: square"/>
     </g>
     <g id="line2d_9">
      <g>
       <use xlink:href="#me4dc72b8d5" x="52.411563" y="168.533621" style="stroke: #000000"/>
      </g>
     </g>
     <g id="text_7">
      <!-- 0.06 -->
      <g transform="translate(21.845938 172.33284) scale(0.1 -0.1)">
       <defs>
        <path id="DejaVuSans-36" d="M 2113 2584 
Q 1688 2584 1439 2293 
Q 1191 2003 1191 1497 
Q 1191 994 1439 701 
Q 1688 409 2113 409 
Q 2538 409 2786 701 
Q 3034 994 3034 1497 
Q 3034 2003 2786 2293 
Q 2538 2584 2113 2584 
z
M 3366 4563 
L 3366 3988 
Q 3128 4100 2886 4159 
Q 2644 4219 2406 4219 
Q 1781 4219 1451 3797 
Q 1122 3375 1075 2522 
Q 1259 2794 1537 2939 
Q 1816 3084 2150 3084 
Q 2853 3084 3261 2657 
Q 3669 2231 3669 1497 
Q 3669 778 3244 343 
Q 2819 -91 2113 -91 
Q 1303 -91 875 529 
Q 447 1150 447 2328 
Q 447 3434 972 4092 
Q 1497 4750 2381 4750 
Q 2619 4750 2861 4703 
Q 3103 4656 3366 4563 
z
" transform="scale(0.015625)"/>
       </defs>
       <use xlink:href="#DejaVuSans-30"/>
       <use xlink:href="#DejaVuSans-2e" x="63.623047"/>
       <use xlink:href="#DejaVuSans-30" x="95.410156"/>
       <use xlink:href="#DejaVuSans-36" x="159.033203"/>
      </g>
     </g>
    </g>
    <g id="ytick_4">
     <g id="line2d_10">
      <path d="M 52.411563 99.87763 
L 498.811562 99.87763 
" clip-path="url(#p8061bfbd81)" style="fill: none; stroke: #b0b0b0; stroke-opacity: 0.3; stroke-width: 0.8; stroke-linecap: square"/>
     </g>
     <g id="line2d_11">
      <g>
       <use xlink:href="#me4dc72b8d5" x="52.411563" y="99.87763" style="stroke: #000000"/>
      </g>
     </g>
     <g id="text_8">
      <!-- 0.08 -->
      <g transform="translate(21.845938 103.676849) scale(0.1 -0.1)">
       <defs>
        <path id="DejaVuSans-38" d="M 2034 2216 
Q 1584 2216 1326 1975 
Q 1069 1734 1069 1313 
Q 1069 891 1326 650 
Q 1584 409 2034 409 
Q 2484 409 2743 651 
Q 3003 894 3003 1313 
Q 3003 1734 2745 1975 
Q 2488 2216 2034 2216 
z
M 1403 2484 
Q 997 2584 770 2862 
Q 544 3141 544 3541 
Q 544 4100 942 4425 
Q 1341 4750 2034 4750 
Q 2731 4750 3128 4425 
Q 3525 4100 3525 3541 
Q 3525 3141 3298 2862 
Q 3072 2584 2669 2484 
Q 3125 2378 3379 2068 
Q 3634 1759 3634 1313 
Q 3634 634 3220 271 
Q 2806 -91 2034 -91 
Q 1263 -91 848 271 
Q 434 634 434 1313 
Q 434 1759 690 2068 
Q 947 2378 1403 2484 
z
M 1172 3481 
Q 1172 3119 1398 2916 
Q 1625 2713 2034 2713 
Q 2441 2713 2670 2916 
Q 2900 3119 2900 3481 
Q 2900 3844 2670 4047 
Q 2441 4250 2034 4250 
Q 1625 4250 1398 4047 
Q 1172 3844 1172 3481 
z
" transform="scale(0.015625)"/>
       </defs>
       <use xlink:href="#DejaVuSans-30"/>
       <use xlink:href="#DejaVuSans-2e" x="63.623047"/>
       <use xlink:href="#DejaVuSans-30" x="95.410156"/>
       <use xlink:href="#DejaVuSans-38" x="159.033203"/>
      </g>
     </g>
    </g>
    <g id="ytick_5">
     <g id="line2d_12">
      <path d="M 52.411563 31.221639 
L 498.811562 31.221639 
" clip-path="url(#p8061bfbd81)" style="fill: none; stroke: #b0b0b0; stroke-opacity: 0.3; stroke-width: 0.8; stroke-linecap: square"/>
     </g>
     <g id="line2d_13">
      <g>
       <use xlink:href="#me4dc72b8d5" x="52.411563" y="31.221639" style="stroke: #000000"/>
      </g>
     </g>
     <g id="text_9">
      <!-- 0.10 -->
      <g transform="translate(21.845938 35.020858) scale(0.1 -0.1)">
       <defs>
        <path id="DejaVuSans-31" d="M 794 531 
L 1825 531 
L 1825 4091 
L 703 3866 
L 703 4441 
L 1819 4666 
L 2450 4666 
L 2450 531 
L 3481 531 
L 3481 0 
L 794 0 
L 794 531 
z
" transform="scale(0.015625)"/>
       </defs>
       <use xlink:href="#DejaVuSans-30"/>
       <use xlink:href="#DejaVuSans-2e" x="63.623047"/>
       <use xlink:href="#DejaVuSans-31" x="95.410156"/>
       <use xlink:href="#DejaVuSans-30" x="159.033203"/>
      </g>
     </g>
    </g>
    <g id="text_10">
     <!-- Total Cost (USD) -->
     <g transform="translate(15.558281 233.249141) rotate(-90) scale(0.11 -0.11)">
      <defs>
       <path id="DejaVuSans-54" d="M -19 4666 
L 3928 4666 
L 3928 4134 
L 2272 4134 
L 2272 0 
L 1638 0 
L 1638 4134 
L -19 4134 
L -19 4666 
z
" transform="scale(0.015625)"/>
       <path id="DejaVuSans-6c" d="M 603 4863 
L 1178 4863 
L 1178 0 
L 603 0 
L 603 4863 
z
" transform="scale(0.015625)"/>
       <path id="DejaVuSans-20" transform="scale(0.015625)"/>
       <path id="DejaVuSans-43" d="M 4122 4306 
L 4122 3641 
Q 3803 3938 3442 4084 
Q 3081 4231 2675 4231 
Q 1875 4231 1450 3742 
Q 1025 3253 1025 2328 
Q 1025 1406 1450 917 
Q 1875 428 2675 428 
Q 3081 428 3442 575 
Q 3803 722 4122 1019 
L 4122 359 
Q 3791 134 3420 21 
Q 3050 -91 2638 -91 
Q 1578 -91 968 557 
Q 359 1206 359 2328 
Q 359 3453 968 4101 
Q 1578 4750 2638 4750 
Q 3056 4750 3426 4639 
Q 3797 4528 4122 4306 
z
" transform="scale(0.015625)"/>
       <path id="DejaVuSans-28" d="M 1984 4856 
Q 1566 4138 1362 3434 
Q 1159 2731 1159 2009 
Q 1159 1288 1364 580 
Q 1569 -128 1984 -844 
L 1484 -844 
Q 1016 -109 783 600 
Q 550 1309 550 2009 
Q 550 2706 781 3412 
Q 1013 4119 1484 4856 
L 1984 4856 
z
" transform="scale(0.015625)"/>
       <path id="DejaVuSans-55" d="M 556 4666 
L 1191 4666 
L 1191 1831 
Q 1191 1081 1462 751 
Q 1734 422 2344 422 
Q 2950 422 3222 751 
Q 3494 1081 3494 1831 
L 3494 4666 
L 4128 4666 
L 4128 1753 
Q 4128 841 3676 375 
Q 3225 -91 2344 -91 
Q 1459 -91 1007 375 
Q 556 841 556 1753 
L 556 4666 
z
" transform="scale(0.015625)"/>
       <path id="DejaVuSans-53" d="M 3425 4513 
L 3425 3897 
Q 3066 4069 2747 4153 
Q 2428 4238 2131 4238 
Q 1616 4238 1336 4038 
Q 1056 3838 1056 3469 
Q 1056 3159 1242 3001 
Q 1428 2844 1947 2747 
L 2328 2669 
Q 3034 2534 3370 2195 
Q 3706 1856 3706 1288 
Q 3706 609 3251 259 
Q 2797 -91 1919 -91 
Q 1588 -91 1214 -16 
Q 841 59 441 206 
L 441 856 
Q 825 641 1194 531 
Q 1563 422 1919 422 
Q 2459 422 2753 634 
Q 3047 847 3047 1241 
Q 3047 1584 2836 1778 
Q 2625 1972 2144 2069 
L 1759 2144 
Q 1053 2284 737 2584 
Q 422 2884 422 3419 
Q 422 4038 858 4394 
Q 1294 4750 2059 4750 
Q 2388 4750 2728 4690 
Q 3069 4631 3425 4513 
z
" transform="scale(0.015625)"/>
       <path id="DejaVuSans-44" d="M 1259 4147 
L 1259 519 
L 2022 519 
Q 2988 519 3436 956 
Q 3884 1394 3884 2338 
Q 3884 3275 3436 3711 
Q 2988 4147 2022 4147 
L 1259 4147 
z
M 628 4666 
L 1925 4666 
Q 3281 4666 3915 4102 
Q 4550 3538 4550 2338 
Q 4550 1131 3912 565 
Q 3275 0 1925 0 
L 628 0 
L 628 4666 
z
" transform="scale(0.015625)"/>
       <path id="DejaVuSans-29" d="M 513 4856 
L 1013 4856 
Q 1481 4119 1714 3412 
Q 1947 2706 1947 2009 
Q 1947 1309 1714 600 
Q 1481 -109 1013 -844 
L 513 -844 
Q 928 -128 1133 580 
Q 1338 1288 1338 2009 
Q 1338 2731 1133 3434 
Q 928 4138 513 4856 
z
" transform="scale(0.015625)"/>
      </defs>
      <use xlink:href="#DejaVuSans-54"/>
      <use xlink:href="#DejaVuSans-6f" x="44.083984"/>
      <use xlink:href="#DejaVuSans-74" x="105.265625"/>
      <use xlink:href="#DejaVuSans-61" x="144.474609"/>
      <use xlink:href="#DejaVuSans-6c" x="205.753906"/>
      <use xlink:href="#DejaVuSans-20" x="233.537109"/>
      <use xlink:href="#DejaVuSans-43" x="265.324219"/>
      <use xlink:href="#DejaVuSans-6f" x="335.148438"/>
      <use xlink:href="#DejaVuSans-73" x="396.330078"/>
      <use xlink:href="#DejaVuSans-74" x="448.429688"/>
      <use xlink:href="#DejaVuSans-20" x="487.638672"/>
      <use xlink:href="#DejaVuSans-28" x="519.425781"/>
      <use xlink:href="#DejaVuSans-55" x="558.439453"/>
      <use xlink:href="#DejaVuSans-53" x="631.632812"/>
      <use xlink:href="#DejaVuSans-44" x="695.109375"/>
      <use xlink:href="#DejaVuSans-29" x="772.111328"/>
     </g>
    </g>
   </g>
   <g id="PolyCollection_1">
    <defs>
     <path id="m7ec4dac6d4" d="M 126.825581 -172.502493 
L 126.797544 -172.502493 
L 126.791348 -174.184305 
L 126.783129 -175.866117 
L 126.77251 -177.547929 
L 126.759127 -179.229741 
L 126.742639 -180.911553 
L 126.722731 -182.593365 
L 126.699107 -184.275177 
L 126.671471 -185.956989 
L 126.639495 -187.638802 
L 126.602794 -189.320614 
L 126.560907 -191.002426 
L 126.513291 -192.684238 
L 126.459345 -194.36605 
L 126.398444 -196.047862 
L 126.33001 -197.729674 
L 126.25357 -199.411486 
L 126.168841 -201.093298 
L 126.075793 -202.77511 
L 125.974706 -204.456922 
L 125.86622 -206.138735 
L 125.751364 -207.820547 
L 125.631563 -209.502359 
L 125.508631 -211.184171 
L 125.38473 -212.865983 
L 125.262309 -214.547795 
L 125.144007 -216.229607 
L 125.032533 -217.911419 
L 124.93053 -219.593231 
L 124.840424 -221.275043 
L 124.764265 -222.956855 
L 124.70358 -224.638668 
L 124.659229 -226.32048 
L 124.631295 -228.002292 
L 124.619003 -229.684104 
L 124.620721 -231.365916 
L 124.634026 -233.047728 
L 124.655882 -234.72954 
L 124.682908 -236.411352 
L 124.711735 -238.093164 
L 124.739397 -239.774976 
L 124.763717 -241.456789 
L 124.783615 -243.138601 
L 124.799291 -244.820413 
L 124.812225 -246.502225 
L 124.824994 -248.184037 
L 124.840919 -249.865849 
L 124.863582 -251.547661 
L 124.896302 -253.229473 
L 124.941633 -254.911285 
L 125.000969 -256.593097 
L 125.07433 -258.274909 
L 125.160326 -259.956722 
L 125.256338 -261.638534 
L 125.358849 -263.320346 
L 125.463887 -265.002158 
L 125.567506 -266.68397 
L 125.66624 -268.365782 
L 125.75746 -270.047594 
L 125.839608 -271.729406 
L 125.91227 -273.411218 
L 125.976102 -275.09303 
L 126.032617 -276.774842 
L 126.083883 -278.456655 
L 126.132168 -280.138467 
L 126.179591 -281.820279 
L 126.227818 -283.502091 
L 126.277857 -285.183903 
L 126.329958 -286.865715 
L 126.383636 -288.547527 
L 126.437791 -290.229339 
L 126.490909 -291.911151 
L 126.541296 -293.592963 
L 126.587306 -295.274775 
L 126.627541 -296.956588 
L 126.66099 -298.6384 
L 126.687109 -300.320212 
L 126.705835 -302.002024 
L 126.717562 -303.683836 
L 126.723073 -305.365648 
L 126.723465 -307.04746 
L 126.720048 -308.729272 
L 126.714246 -310.411084 
L 126.707492 -312.092896 
L 126.701124 -313.774709 
L 126.696283 -315.456521 
L 126.693835 -317.138333 
L 126.69431 -318.820145 
L 126.697878 -320.501957 
L 126.70437 -322.183769 
L 126.713329 -323.865581 
L 126.724095 -325.547393 
L 126.735906 -327.229205 
L 126.747999 -328.911017 
L 126.759693 -330.592829 
L 126.770454 -332.274642 
L 126.77992 -333.956454 
L 126.787909 -335.638266 
L 126.79439 -337.320078 
L 126.799455 -339.00189 
L 126.82367 -339.00189 
L 126.82367 -339.00189 
L 126.828735 -337.320078 
L 126.835216 -335.638266 
L 126.843205 -333.956454 
L 126.852671 -332.274642 
L 126.863432 -330.592829 
L 126.875126 -328.911017 
L 126.887219 -327.229205 
L 126.89903 -325.547393 
L 126.909796 -323.865581 
L 126.918755 -322.183769 
L 126.925247 -320.501957 
L 126.928815 -318.820145 
L 126.92929 -317.138333 
L 126.926842 -315.456521 
L 126.922001 -313.774709 
L 126.915633 -312.092896 
L 126.908879 -310.411084 
L 126.903077 -308.729272 
L 126.89966 -307.04746 
L 126.900052 -305.365648 
L 126.905563 -303.683836 
L 126.91729 -302.002024 
L 126.936016 -300.320212 
L 126.962135 -298.6384 
L 126.995584 -296.956588 
L 127.035819 -295.274775 
L 127.081829 -293.592963 
L 127.132216 -291.911151 
L 127.185334 -290.229339 
L 127.239489 -288.547527 
L 127.293167 -286.865715 
L 127.345268 -285.183903 
L 127.395307 -283.502091 
L 127.443534 -281.820279 
L 127.490957 -280.138467 
L 127.539242 -278.456655 
L 127.590508 -276.774842 
L 127.647023 -275.09303 
L 127.710855 -273.411218 
L 127.783517 -271.729406 
L 127.865665 -270.047594 
L 127.956885 -268.365782 
L 128.055619 -266.68397 
L 128.159238 -265.002158 
L 128.264276 -263.320346 
L 128.366787 -261.638534 
L 128.462799 -259.956722 
L 128.548795 -258.274909 
L 128.622156 -256.593097 
L 128.681492 -254.911285 
L 128.726823 -253.229473 
L 128.759543 -251.547661 
L 128.782206 -249.865849 
L 128.798131 -248.184037 
L 128.8109 -246.502225 
L 128.823834 -244.820413 
L 128.83951 -243.138601 
L 128.859408 -241.456789 
L 128.883728 -239.774976 
L 128.91139 -238.093164 
L 128.940217 -236.411352 
L 128.967243 -234.72954 
L 128.989099 -233.047728 
L 129.002404 -231.365916 
L 129.004122 -229.684104 
L 128.99183 -228.002292 
L 128.963896 -226.32048 
L 128.919545 -224.638668 
L 128.85886 -222.956855 
L 128.782701 -221.275043 
L 128.692595 -219.593231 
L 128.590592 -217.911419 
L 128.479118 -216.229607 
L 128.360816 -214.547795 
L 128.238395 -212.865983 
L 128.114494 -211.184171 
L 127.991562 -209.502359 
L 127.871761 -207.820547 
L 127.756905 -206.138735 
L 127.648419 -204.456922 
L 127.547332 -202.77511 
L 127.454284 -201.093298 
L 127.369555 -199.411486 
L 127.293115 -197.729674 
L 127.224681 -196.047862 
L 127.16378 -194.36605 
L 127.109834 -192.684238 
L 127.062218 -191.002426 
L 127.020331 -189.320614 
L 126.98363 -187.638802 
L 126.951654 -185.956989 
L 126.924018 -184.275177 
L 126.900394 -182.593365 
L 126.880486 -180.911553 
L 126.863998 -179.229741 
L 126.850615 -177.547929 
L 126.839996 -175.866117 
L 126.831777 -174.184305 
L 126.825581 -172.502493 
z
" style="stroke: #303030; stroke-width: 1.2"/>
    </defs>
    <g clip-path="url(#p8061bfbd81)">
     <use xlink:href="#m7ec4dac6d4" x="0" y="394.782188" style="fill: #176d9c; stroke: #303030; stroke-width: 1.2"/>
    </g>
   </g>
   <g id="PolyCollection_2">
    <defs>
     <path id="ma60fedaa95" d="M 276.564708 -54.944063 
L 274.658417 -54.944063 
L 274.197044 -55.044756 
L 273.550823 -55.14545 
L 272.665084 -55.246144 
L 271.477787 -55.346837 
L 269.922382 -55.447531 
L 267.932496 -55.548225 
L 265.448565 -55.648918 
L 262.426194 -55.749612 
L 258.845664 -55.850306 
L 254.721595 -55.950999 
L 250.111386 -56.051693 
L 245.120873 -56.152387 
L 239.905644 -56.25308 
L 234.666803 -56.353774 
L 229.640588 -56.454468 
L 225.082178 -56.555161 
L 221.244973 -56.655855 
L 218.357576 -56.756549 
L 216.601349 -56.857242 
L 216.091562 -56.957936 
L 216.864891 -57.05863 
L 218.875105 -57.159323 
L 221.997655 -57.260017 
L 226.042503 -57.360711 
L 230.77331 -57.461404 
L 235.930256 -57.562098 
L 241.253352 -57.662792 
L 246.503322 -57.763485 
L 251.477694 -57.864179 
L 256.020765 -57.964873 
L 260.027073 -58.065566 
L 263.439003 -58.16626 
L 266.239865 -58.266954 
L 268.444142 -58.367647 
L 270.086727 -58.468341 
L 271.212719 -58.569035 
L 271.869037 -58.669728 
L 272.098619 -58.770422 
L 271.937543 -58.871116 
L 271.414991 -58.971809 
L 270.555652 -59.072503 
L 269.383879 -59.173197 
L 267.92878 -59.27389 
L 266.229258 -59.374584 
L 264.338086 -59.475278 
L 262.32413 -59.575971 
L 260.272113 -59.676665 
L 258.279587 -59.777359 
L 256.451248 -59.878052 
L 254.891125 -59.978746 
L 253.693583 -60.07944 
L 252.934367 -60.180133 
L 252.662963 -60.280827 
L 252.897427 -60.381521 
L 253.622502 -60.482214 
L 254.791308 -60.582908 
L 256.330382 -60.683602 
L 258.147324 -60.784295 
L 260.139937 -60.884989 
L 262.205625 -60.985683 
L 264.249842 -61.086376 
L 266.192676 -61.18707 
L 267.973004 -61.287764 
L 269.550083 -61.388457 
L 270.902821 -61.489151 
L 272.027242 -61.589845 
L 272.93282 -61.690539 
L 273.638353 -61.791232 
L 274.167972 -61.891926 
L 274.547734 -61.99262 
L 274.803031 -62.093313 
L 274.956915 -62.194007 
L 275.029282 -62.294701 
L 275.036747 -62.395394 
L 274.993041 -62.496088 
L 274.909686 -62.596782 
L 274.796768 -62.697475 
L 274.663637 -62.798169 
L 274.519408 -62.898863 
L 274.373211 -62.999556 
L 274.234142 -63.10025 
L 274.110973 -63.200944 
L 274.01167 -63.301637 
L 273.942829 -63.402331 
L 273.909133 -63.503025 
L 273.912936 -63.603718 
L 273.954061 -63.704412 
L 274.029848 -63.805106 
L 274.135464 -63.905799 
L 274.26442 -64.006493 
L 274.409237 -64.107187 
L 274.562166 -64.20788 
L 274.715854 -64.308574 
L 274.863905 -64.409268 
L 275.001256 -64.509961 
L 275.124369 -64.610655 
L 275.231229 -64.711349 
L 275.321203 -64.812042 
L 275.394784 -64.912736 
L 275.828341 -64.912736 
L 275.828341 -64.912736 
L 275.901922 -64.812042 
L 275.991896 -64.711349 
L 276.098756 -64.610655 
L 276.221869 -64.509961 
L 276.35922 -64.409268 
L 276.507271 -64.308574 
L 276.660959 -64.20788 
L 276.813888 -64.107187 
L 276.958705 -64.006493 
L 277.087661 -63.905799 
L 277.193277 -63.805106 
L 277.269064 -63.704412 
L 277.310189 -63.603718 
L 277.313992 -63.503025 
L 277.280296 -63.402331 
L 277.211455 -63.301637 
L 277.112152 -63.200944 
L 276.988983 -63.10025 
L 276.849914 -62.999556 
L 276.703717 -62.898863 
L 276.559488 -62.798169 
L 276.426357 -62.697475 
L 276.313439 -62.596782 
L 276.230084 -62.496088 
L 276.186378 -62.395394 
L 276.193843 -62.294701 
L 276.26621 -62.194007 
L 276.420094 -62.093313 
L 276.675391 -61.99262 
L 277.055153 -61.891926 
L 277.584772 -61.791232 
L 278.290305 -61.690539 
L 279.195883 -61.589845 
L 280.320304 -61.489151 
L 281.673042 -61.388457 
L 283.250121 -61.287764 
L 285.030449 -61.18707 
L 286.973283 -61.086376 
L 289.0175 -60.985683 
L 291.083188 -60.884989 
L 293.075801 -60.784295 
L 294.892743 -60.683602 
L 296.431817 -60.582908 
L 297.600623 -60.482214 
L 298.325698 -60.381521 
L 298.560162 -60.280827 
L 298.288758 -60.180133 
L 297.529542 -60.07944 
L 296.332 -59.978746 
L 294.771877 -59.878052 
L 292.943538 -59.777359 
L 290.951012 -59.676665 
L 288.898995 -59.575971 
L 286.885039 -59.475278 
L 284.993867 -59.374584 
L 283.294345 -59.27389 
L 281.839246 -59.173197 
L 280.667473 -59.072503 
L 279.808134 -58.971809 
L 279.285582 -58.871116 
L 279.124506 -58.770422 
L 279.354088 -58.669728 
L 280.010406 -58.569035 
L 281.136398 -58.468341 
L 282.778983 -58.367647 
L 284.98326 -58.266954 
L 287.784122 -58.16626 
L 291.196052 -58.065566 
L 295.20236 -57.964873 
L 299.745431 -57.864179 
L 304.719803 -57.763485 
L 309.969773 -57.662792 
L 315.292869 -57.562098 
L 320.449815 -57.461404 
L 325.180622 -57.360711 
L 329.22547 -57.260017 
L 332.34802 -57.159323 
L 334.358234 -57.05863 
L 335.131562 -56.957936 
L 334.621776 -56.857242 
L 332.865549 -56.756549 
L 329.978152 -56.655855 
L 326.140947 -56.555161 
L 321.582537 -56.454468 
L 316.556322 -56.353774 
L 311.317481 -56.25308 
L 306.102252 -56.152387 
L 301.111739 -56.051693 
L 296.50153 -55.950999 
L 292.377461 -55.850306 
L 288.796931 -55.749612 
L 285.77456 -55.648918 
L 283.290629 -55.548225 
L 281.300743 -55.447531 
L 279.745338 -55.346837 
L 278.558041 -55.246144 
L 277.672302 -55.14545 
L 277.026081 -55.044756 
L 276.564708 -54.944063 
z
" style="stroke: #303030; stroke-width: 1.2"/>
    </defs>
    <g clip-path="url(#p8061bfbd81)">
     <use xlink:href="#ma60fedaa95" x="0" y="394.782188" style="fill: #c38820; stroke: #303030; stroke-width: 1.2"/>
    </g>
   </g>
   <g id="PolyCollection_3">
    <defs>
     <path id="m0475027a4b" d="M 424.430008 -120.7863 
L 424.393117 -120.7863 
L 424.383976 -123.175772 
L 424.371285 -125.565244 
L 424.354124 -127.954717 
L 424.331516 -130.344189 
L 424.302484 -132.733661 
L 424.266111 -135.123134 
L 424.221613 -137.512606 
L 424.16839 -139.902079 
L 424.106058 -142.291551 
L 424.03445 -144.681023 
L 423.9536 -147.070496 
L 423.863698 -149.459968 
L 423.765057 -151.84944 
L 423.658104 -154.238913 
L 423.543417 -156.628385 
L 423.42182 -159.017857 
L 423.294522 -161.40733 
L 423.16328 -163.796802 
L 423.03054 -166.186274 
L 422.899499 -168.575747 
L 422.774061 -170.965219 
L 422.658643 -173.354691 
L 422.557858 -175.744164 
L 422.476094 -178.133636 
L 422.417078 -180.523109 
L 422.383463 -182.912581 
L 422.376544 -185.302053 
L 422.39613 -187.691526 
L 422.440581 -190.080998 
L 422.507016 -192.47047 
L 422.591627 -194.859943 
L 422.690048 -197.249415 
L 422.797726 -199.638887 
L 422.91025 -202.02836 
L 423.023599 -204.417832 
L 423.134311 -206.807304 
L 423.239575 -209.196777 
L 423.337252 -211.586249 
L 423.425853 -213.975721 
L 423.504473 -216.365194 
L 423.572715 -218.754666 
L 423.630603 -221.144138 
L 423.678498 -223.533611 
L 423.717029 -225.923083 
L 423.747045 -228.312556 
L 423.769581 -230.702028 
L 423.78584 -233.0915 
L 423.797172 -235.480973 
L 423.805044 -237.870445 
L 423.810987 -240.259917 
L 423.816513 -242.64939 
L 423.823012 -245.038862 
L 423.831644 -247.428334 
L 423.843237 -249.817807 
L 423.858225 -252.207279 
L 423.87663 -254.596751 
L 423.8981 -256.986224 
L 423.921999 -259.375696 
L 423.947538 -261.765168 
L 423.973906 -264.154641 
L 424.000402 -266.544113 
L 424.026521 -268.933586 
L 424.052001 -271.323058 
L 424.07681 -273.71253 
L 424.101095 -276.102003 
L 424.125099 -278.491475 
L 424.149066 -280.880947 
L 424.173154 -283.27042 
L 424.197379 -285.659892 
L 424.221581 -288.049364 
L 424.245435 -290.438837 
L 424.268486 -292.828309 
L 424.290206 -295.217781 
L 424.310065 -297.607254 
L 424.327593 -299.996726 
L 424.342433 -302.386198 
L 424.354383 -304.775671 
L 424.363408 -307.165143 
L 424.369643 -309.554615 
L 424.373374 -311.944088 
L 424.375014 -314.33356 
L 424.375062 -316.723033 
L 424.374065 -319.112505 
L 424.372572 -321.501977 
L 424.37109 -323.89145 
L 424.370047 -326.280922 
L 424.369761 -328.670394 
L 424.370421 -331.059867 
L 424.372084 -333.449339 
L 424.374683 -335.838811 
L 424.378054 -338.228284 
L 424.381965 -340.617756 
L 424.386156 -343.007228 
L 424.390372 -345.396701 
L 424.394391 -347.786173 
L 424.398044 -350.175645 
L 424.401224 -352.565118 
L 424.403881 -354.95459 
L 424.406019 -357.344062 
L 424.417106 -357.344062 
L 424.417106 -357.344062 
L 424.419244 -354.95459 
L 424.421901 -352.565118 
L 424.425081 -350.175645 
L 424.428734 -347.786173 
L 424.432753 -345.396701 
L 424.436969 -343.007228 
L 424.44116 -340.617756 
L 424.445071 -338.228284 
L 424.448442 -335.838811 
L 424.451041 -333.449339 
L 424.452704 -331.059867 
L 424.453364 -328.670394 
L 424.453078 -326.280922 
L 424.452035 -323.89145 
L 424.450553 -321.501977 
L 424.44906 -319.112505 
L 424.448063 -316.723033 
L 424.448111 -314.33356 
L 424.449751 -311.944088 
L 424.453482 -309.554615 
L 424.459717 -307.165143 
L 424.468742 -304.775671 
L 424.480692 -302.386198 
L 424.495532 -299.996726 
L 424.51306 -297.607254 
L 424.532919 -295.217781 
L 424.554639 -292.828309 
L 424.57769 -290.438837 
L 424.601544 -288.049364 
L 424.625746 -285.659892 
L 424.649971 -283.27042 
L 424.674059 -280.880947 
L 424.698026 -278.491475 
L 424.72203 -276.102003 
L 424.746315 -273.71253 
L 424.771124 -271.323058 
L 424.796604 -268.933586 
L 424.822723 -266.544113 
L 424.849219 -264.154641 
L 424.875587 -261.765168 
L 424.901126 -259.375696 
L 424.925025 -256.986224 
L 424.946495 -254.596751 
L 424.9649 -252.207279 
L 424.979888 -249.817807 
L 424.991481 -247.428334 
L 425.000113 -245.038862 
L 425.006612 -242.64939 
L 425.012138 -240.259917 
L 425.018081 -237.870445 
L 425.025953 -235.480973 
L 425.037285 -233.0915 
L 425.053544 -230.702028 
L 425.07608 -228.312556 
L 425.106096 -225.923083 
L 425.144627 -223.533611 
L 425.192522 -221.144138 
L 425.25041 -218.754666 
L 425.318652 -216.365194 
L 425.397272 -213.975721 
L 425.485873 -211.586249 
L 425.58355 -209.196777 
L 425.688814 -206.807304 
L 425.799526 -204.417832 
L 425.912875 -202.02836 
L 426.025399 -199.638887 
L 426.133077 -197.249415 
L 426.231498 -194.859943 
L 426.316109 -192.47047 
L 426.382544 -190.080998 
L 426.426995 -187.691526 
L 426.446581 -185.302053 
L 426.439662 -182.912581 
L 426.406047 -180.523109 
L 426.347031 -178.133636 
L 426.265267 -175.744164 
L 426.164482 -173.354691 
L 426.049064 -170.965219 
L 425.923626 -168.575747 
L 425.792585 -166.186274 
L 425.659845 -163.796802 
L 425.528603 -161.40733 
L 425.401305 -159.017857 
L 425.279708 -156.628385 
L 425.165021 -154.238913 
L 425.058068 -151.84944 
L 424.959427 -149.459968 
L 424.869525 -147.070496 
L 424.788675 -144.681023 
L 424.717067 -142.291551 
L 424.654735 -139.902079 
L 424.601512 -137.512606 
L 424.557014 -135.123134 
L 424.520641 -132.733661 
L 424.491609 -130.344189 
L 424.469001 -127.954717 
L 424.45184 -125.565244 
L 424.439149 -123.175772 
L 424.430008 -120.7863 
z
" style="stroke: #303030; stroke-width: 1.2"/>
    </defs>
    <g clip-path="url(#p8061bfbd81)">
     <use xlink:href="#m0475027a4b" x="0" y="394.782188" style="fill: #158b6a; stroke: #303030; stroke-width: 1.2"/>
    </g>
   </g>
   <g id="line2d_14">
    <path d="M 124.724659 170.768116 
L 128.898466 170.768116 
" clip-path="url(#p8061bfbd81)" style="fill: none; stroke-dasharray: 2.16,2.16; stroke-dashoffset: 0; stroke: #303030; stroke-width: 1.2"/>
   </g>
   <g id="line2d_15">
    <path d="M 124.732734 156.250463 
L 128.890391 156.250463 
" clip-path="url(#p8061bfbd81)" style="fill: none; stroke-dasharray: 4.32,4.32; stroke-dashoffset: 0; stroke: #303030; stroke-width: 1.2"/>
   </g>
   <g id="line2d_16">
    <path d="M 124.960332 139.270979 
L 128.662793 139.270979 
" clip-path="url(#p8061bfbd81)" style="fill: none; stroke-dasharray: 2.16,2.16; stroke-dashoffset: 0; stroke: #303030; stroke-width: 1.2"/>
   </g>
   <g id="line2d_17">
    <path d="M 216.686762 337.838264 
L 334.536362 337.838264 
" clip-path="url(#p8061bfbd81)" style="fill: none; stroke-dasharray: 2.16,2.16; stroke-dashoffset: 0; stroke: #303030; stroke-width: 1.2"/>
   </g>
   <g id="line2d_18">
    <path d="M 216.686762 337.794496 
L 334.536362 337.794496 
" clip-path="url(#p8061bfbd81)" style="fill: none; stroke-dasharray: 4.32,4.32; stroke-dashoffset: 0; stroke: #303030; stroke-width: 1.2"/>
   </g>
   <g id="line2d_19">
    <path d="M 252.892449 334.540717 
L 298.330676 334.540717 
" clip-path="url(#p8061bfbd81)" style="fill: none; stroke-dasharray: 2.16,2.16; stroke-dashoffset: 0; stroke: #303030; stroke-width: 1.2"/>
   </g>
   <g id="line2d_20">
    <path d="M 422.495449 215.902908 
L 426.327676 215.902908 
" clip-path="url(#p8061bfbd81)" style="fill: none; stroke-dasharray: 2.16,2.16; stroke-dashoffset: 0; stroke: #303030; stroke-width: 1.2"/>
   </g>
   <g id="line2d_21">
    <path d="M 422.460291 203.931019 
L 426.362834 203.931019 
" clip-path="url(#p8061bfbd81)" style="fill: none; stroke-dasharray: 4.32,4.32; stroke-dashoffset: 0; stroke: #303030; stroke-width: 1.2"/>
   </g>
   <g id="line2d_22">
    <path d="M 423.638413 174.544539 
L 425.184712 174.544539 
" clip-path="url(#p8061bfbd81)" style="fill: none; stroke-dasharray: 2.16,2.16; stroke-dashoffset: 0; stroke: #303030; stroke-width: 1.2"/>
   </g>
   <g id="patch_3">
    <path d="M 52.411563 354.958125 
L 52.411563 22.318125 
" style="fill: none; stroke: #000000; stroke-linejoin: miter; stroke-linecap: square"/>
   </g>
   <g id="patch_4">
    <path d="M 498.811562 354.958125 
L 498.811562 22.318125 
" style="fill: none; stroke: #000000; stroke-linejoin: miter; stroke-linecap: square"/>
   </g>
   <g id="patch_5">
    <path d="M 52.411563 354.958125 
L 498.811562 354.958125 
" style="fill: none; stroke: #000000; stroke-linejoin: miter; stroke-linecap: square"/>
   </g>
   <g id="patch_6">
    <path d="M 52.411563 22.318125 
L 498.811562 22.318125 
" style="fill: none; stroke: #000000; stroke-linejoin: miter; stroke-linecap: square"/>
   </g>
   <g id="text_11">
    <!-- Distribution Shape: Total Cost (USD) -->
    <g transform="translate(167.318125 16.318125) scale(0.12 -0.12)">
     <defs>
      <path id="DejaVuSans-69" d="M 603 3500 
L 1178 3500 
L 1178 0 
L 603 0 
L 603 3500 
z
M 603 4863 
L 1178 4863 
L 1178 4134 
L 603 4134 
L 603 4863 
z
" transform="scale(0.015625)"/>
      <path id="DejaVuSans-75" d="M 544 1381 
L 544 3500 
L 1119 3500 
L 1119 1403 
Q 1119 906 1312 657 
Q 1506 409 1894 409 
Q 2359 409 2629 706 
Q 2900 1003 2900 1516 
L 2900 3500 
L 3475 3500 
L 3475 0 
L 2900 0 
L 2900 538 
Q 2691 219 2414 64 
Q 2138 -91 1772 -91 
Q 1169 -91 856 284 
Q 544 659 544 1381 
z
M 1991 3584 
L 1991 3584 
z
" transform="scale(0.015625)"/>
      <path id="DejaVuSans-6e" d="M 3513 2113 
L 3513 0 
L 2938 0 
L 2938 2094 
Q 2938 2591 2744 2837 
Q 2550 3084 2163 3084 
Q 1697 3084 1428 2787 
Q 1159 2491 1159 1978 
L 1159 0 
L 581 0 
L 581 3500 
L 1159 3500 
L 1159 2956 
Q 1366 3272 1645 3428 
Q 1925 3584 2291 3584 
Q 2894 3584 3203 3211 
Q 3513 2838 3513 2113 
z
" transform="scale(0.015625)"/>
      <path id="DejaVuSans-3a" d="M 750 794 
L 1409 794 
L 1409 0 
L 750 0 
L 750 794 
z
M 750 3309 
L 1409 3309 
L 1409 2516 
L 750 2516 
L 750 3309 
z
" transform="scale(0.015625)"/>
     </defs>
     <use xlink:href="#DejaVuSans-44"/>
     <use xlink:href="#DejaVuSans-69" x="77.001953"/>
     <use xlink:href="#DejaVuSans-73" x="104.785156"/>
     <use xlink:href="#DejaVuSans-74" x="156.884766"/>
     <use xlink:href="#DejaVuSans-72" x="196.09375"/>
     <use xlink:href="#DejaVuSans-69" x="237.207031"/>
     <use xlink:href="#DejaVuSans-62" x="264.990234"/>
     <use xlink:href="#DejaVuSans-75" x="328.466797"/>
     <use xlink:href="#DejaVuSans-74" x="391.845703"/>
     <use xlink:href="#DejaVuSans-69" x="431.054688"/>
     <use xlink:href="#DejaVuSans-6f" x="458.837891"/>
     <use xlink:href="#DejaVuSans-6e" x="520.019531"/>
     <use xlink:href="#DejaVuSans-20" x="583.398438"/>
     <use xlink:href="#DejaVuSans-53" x="615.185547"/>
     <use xlink:href="#DejaVuSans-68" x="678.662109"/>
     <use xlink:href="#DejaVuSans-61" x="742.041016"/>
     <use xlink:href="#DejaVuSans-70" x="803.320312"/>
     <use xlink:href="#DejaVuSans-65" x="866.796875"/>
     <use xlink:href="#DejaVuSans-3a" x="928.320312"/>
     <use xlink:href="#DejaVuSans-20" x="962.011719"/>
     <use xlink:href="#DejaVuSans-54" x="993.798828"/>
     <use xlink:href="#DejaVuSans-6f" x="1037.882812"/>
     <use xlink:href="#DejaVuSans-74" x="1099.064453"/>
     <use xlink:href="#DejaVuSans-61" x="1138.273438"/>
     <use xlink:href="#DejaVuSans-6c" x="1199.552734"/>
     <use xlink:href="#DejaVuSans-20" x="1227.335938"/>
     <use xlink:href="#DejaVuSans-43" x="1259.123047"/>
     <use xlink:href="#DejaVuSans-6f" x="1328.947266"/>
     <use xlink:href="#DejaVuSans-73" x="1390.128906"/>
     <use xlink:href="#DejaVuSans-74" x="1442.228516"/>
     <use xlink:href="#DejaVuSans-20" x="1481.4375"/>
     <use xlink:href="#DejaVuSans-28" x="1513.224609"/>
     <use xlink:href="#DejaVuSans-55" x="1552.238281"/>
     <use xlink:href="#DejaVuSans-53" x="1625.431641"/>
     <use xlink:href="#DejaVuSans-44" x="1688.908203"/>
     <use xlink:href="#DejaVuSans-29" x="1765.910156"/>
    </g>
   </g>
  </g>
 </g>
 <defs>
  <clipPath id="p8061bfbd81">
   <rect x="52.411563" y="22.318125" width="446.4" height="332.64"/>
  </clipPath>
 </defs>
</svg>
