<?xml version="1.0" encoding="utf-8" standalone="no"?>
<!DOCTYPE svg PUBLIC "-//W3C//DTD SVG 1.1//EN"
  "http://www.w3.org/Graphics/SVG/1.1/DTD/svg11.dtd">
<svg xmlns:xlink="http://www.w3.org/1999/xlink" width="521.920937pt" height="394.782188pt" viewBox="0 0 521.920937 394.782188" xmlns="http://www.w3.org/2000/svg" version="1.1">
 <metadata>
  <rdf:RDF xmlns:dc="http://purl.org/dc/elements/1.1/" xmlns:cc="http://creativecommons.org/ns#" xmlns:rdf="http://www.w3.org/1999/02/22-rdf-syntax-ns#">
   <cc:Work>
    <dc:type rdf:resource="http://purl.org/dc/dcmitype/StillImage"/>
    <dc:date>2025-11-03T08:33:04.215685</dc:date>
    <dc:format>image/svg+xml</dc:format>
    <dc:creator>
     <cc:Agent>
      <dc:title>Matplotlib v3.8.0, https://matplotlib.org/</dc:title>
     </cc:Agent>
    </dc:creator>
   </cc:Work>
  </rdf:RDF>
 </metadata>
 <defs>
  <style type="text/css">*{stroke-linejoin: round; stroke-linecap: butt}</style>
 </defs>
 <g id="figure_1">
  <g id="patch_1">
   <path d="M 0 394.782188 
L 521.920937 394.782188 
L 521.920937 -0 
L 0 -0 
z
" style="fill: #ffffff"/>
  </g>
  <g id="axes_1">
   <g id="patch_2">
    <path d="M 68.320938 354.958125 
L 514.720937 354.958125 
L 514.720937 22.318125 
L 68.320938 22.318125 
z
" style="fill: #ffffff"/>
   </g>
   <g id="matplotlib.axis_1">
    <g id="xtick_1">
     <g id="line2d_1">
      <defs>
       <path id="m371a37edb4" d="M 0 0 
L 0 4.8 
" style="stroke: #000000"/>
      </defs>
      <g>
       <use xlink:href="#m371a37edb4" x="142.720937" y="354.958125" style="stroke: #000000"/>
      </g>
     </g>
     <g id="text_1">
      <!-- ghspec -->
      <g transform="translate(124.773281 370.856562) scale(0.1 -0.1)">
       <defs>
        <path id="DejaVuSans-67" d="M 2906 1791 
Q 2906 2416 2648 2759 
Q 2391 3103 1925 3103 
Q 1463 3103 1205 2759 
Q 947 2416 947 1791 
Q 947 1169 1205 825 
Q 1463 481 1925 481 
Q 2391 481 2648 825 
Q 2906 1169 2906 1791 
z
M 3481 434 
Q 3481 -459 3084 -895 
Q 2688 -1331 1869 -1331 
Q 1566 -1331 1297 -1286 
Q 1028 -1241 775 -1147 
L 775 -588 
Q 1028 -725 1275 -790 
Q 1522 -856 1778 -856 
Q 2344 -856 2625 -561 
Q 2906 -266 2906 331 
L 2906 616 
Q 2728 306 2450 153 
Q 2172 0 1784 0 
Q 1141 0 747 490 
Q 353 981 353 1791 
Q 353 2603 747 3093 
Q 1141 3584 1784 3584 
Q 2172 3584 2450 3431 
Q 2728 3278 2906 2969 
L 2906 3500 
L 3481 3500 
L 3481 434 
z
" transform="scale(0.015625)"/>
        <path id="DejaVuSans-68" d="M 3513 2113 
L 3513 0 
L 2938 0 
L 2938 2094 
Q 2938 2591 2744 2837 
Q 2550 3084 2163 3084 
Q 1697 3084 1428 2787 
Q 1159 2491 1159 1978 
L 1159 0 
L 581 0 
L 581 4863 
L 1159 4863 
L 1159 2956 
Q 1366 3272 1645 3428 
Q 1925 3584 2291 3584 
Q 2894 3584 3203 3211 
Q 3513 2838 3513 2113 
z
" transform="scale(0.015625)"/>
        <path id="DejaVuSans-73" d="M 2834 3397 
L 2834 2853 
Q 2591 2978 2328 3040 
Q 2066 3103 1784 3103 
Q 1356 3103 1142 2972 
Q 928 2841 928 2578 
Q 928 2378 1081 2264 
Q 1234 2150 1697 2047 
L 1894 2003 
Q 2506 1872 2764 1633 
Q 3022 1394 3022 966 
Q 3022 478 2636 193 
Q 2250 -91 1575 -91 
Q 1294 -91 989 -36 
Q 684 19 347 128 
L 347 722 
Q 666 556 975 473 
Q 1284 391 1588 391 
Q 1994 391 2212 530 
Q 2431 669 2431 922 
Q 2431 1156 2273 1281 
Q 2116 1406 1581 1522 
L 1381 1569 
Q 847 1681 609 1914 
Q 372 2147 372 2553 
Q 372 3047 722 3315 
Q 1072 3584 1716 3584 
Q 2034 3584 2315 3537 
Q 2597 3491 2834 3397 
z
" transform="scale(0.015625)"/>
        <path id="DejaVuSans-70" d="M 1159 525 
L 1159 -1331 
L 581 -1331 
L 581 3500 
L 1159 3500 
L 1159 2969 
Q 1341 3281 1617 3432 
Q 1894 3584 2278 3584 
Q 2916 3584 3314 3078 
Q 3713 2572 3713 1747 
Q 3713 922 3314 415 
Q 2916 -91 2278 -91 
Q 1894 -91 1617 61 
Q 1341 213 1159 525 
z
M 3116 1747 
Q 3116 2381 2855 2742 
Q 2594 3103 2138 3103 
Q 1681 3103 1420 2742 
Q 1159 2381 1159 1747 
Q 1159 1113 1420 752 
Q 1681 391 2138 391 
Q 2594 391 2855 752 
Q 3116 1113 3116 1747 
z
" transform="scale(0.015625)"/>
        <path id="DejaVuSans-65" d="M 3597 1894 
L 3597 1613 
L 953 1613 
Q 991 1019 1311 708 
Q 1631 397 2203 397 
Q 2534 397 2845 478 
Q 3156 559 3463 722 
L 3463 178 
Q 3153 47 2828 -22 
Q 2503 -91 2169 -91 
Q 1331 -91 842 396 
Q 353 884 353 1716 
Q 353 2575 817 3079 
Q 1281 3584 2069 3584 
Q 2775 3584 3186 3129 
Q 3597 2675 3597 1894 
z
M 3022 2063 
Q 3016 2534 2758 2815 
Q 2500 3097 2075 3097 
Q 1594 3097 1305 2825 
Q 1016 2553 972 2059 
L 3022 2063 
z
" transform="scale(0.015625)"/>
        <path id="DejaVuSans-63" d="M 3122 3366 
L 3122 2828 
Q 2878 2963 2633 3030 
Q 2388 3097 2138 3097 
Q 1578 3097 1268 2742 
Q 959 2388 959 1747 
Q 959 1106 1268 751 
Q 1578 397 2138 397 
Q 2388 397 2633 464 
Q 2878 531 3122 666 
L 3122 134 
Q 2881 22 2623 -34 
Q 2366 -91 2075 -91 
Q 1284 -91 818 406 
Q 353 903 353 1747 
Q 353 2603 823 3093 
Q 1294 3584 2113 3584 
Q 2378 3584 2631 3529 
Q 2884 3475 3122 3366 
z
" transform="scale(0.015625)"/>
       </defs>
       <use xlink:href="#DejaVuSans-67"/>
       <use xlink:href="#DejaVuSans-68" x="63.476562"/>
       <use xlink:href="#DejaVuSans-73" x="126.855469"/>
       <use xlink:href="#DejaVuSans-70" x="178.955078"/>
       <use xlink:href="#DejaVuSans-65" x="242.431641"/>
       <use xlink:href="#DejaVuSans-63" x="303.955078"/>
      </g>
     </g>
    </g>
    <g id="xtick_2">
     <g id="line2d_2">
      <g>
       <use xlink:href="#m371a37edb4" x="291.520937" y="354.958125" style="stroke: #000000"/>
      </g>
     </g>
     <g id="text_2">
      <!-- baes -->
      <g transform="translate(279.601406 370.856562) scale(0.1 -0.1)">
       <defs>
        <path id="DejaVuSans-62" d="M 3116 1747 
Q 3116 2381 2855 2742 
Q 2594 3103 2138 3103 
Q 1681 3103 1420 2742 
Q 1159 2381 1159 1747 
Q 1159 1113 1420 752 
Q 1681 391 2138 391 
Q 2594 391 2855 752 
Q 3116 1113 3116 1747 
z
M 1159 2969 
Q 1341 3281 1617 3432 
Q 1894 3584 2278 3584 
Q 2916 3584 3314 3078 
Q 3713 2572 3713 1747 
Q 3713 922 3314 415 
Q 2916 -91 2278 -91 
Q 1894 -91 1617 61 
Q 1341 213 1159 525 
L 1159 0 
L 581 0 
L 581 4863 
L 1159 4863 
L 1159 2969 
z
" transform="scale(0.015625)"/>
        <path id="DejaVuSans-61" d="M 2194 1759 
Q 1497 1759 1228 1600 
Q 959 1441 959 1056 
Q 959 750 1161 570 
Q 1363 391 1709 391 
Q 2188 391 2477 730 
Q 2766 1069 2766 1631 
L 2766 1759 
L 2194 1759 
z
M 3341 1997 
L 3341 0 
L 2766 0 
L 2766 531 
Q 2569 213 2275 61 
Q 1981 -91 1556 -91 
Q 1019 -91 701 211 
Q 384 513 384 1019 
Q 384 1609 779 1909 
Q 1175 2209 1959 2209 
L 2766 2209 
L 2766 2266 
Q 2766 2663 2505 2880 
Q 2244 3097 1772 3097 
Q 1472 3097 1187 3025 
Q 903 2953 641 2809 
L 641 3341 
Q 956 3463 1253 3523 
Q 1550 3584 1831 3584 
Q 2591 3584 2966 3190 
Q 3341 2797 3341 1997 
z
" transform="scale(0.015625)"/>
       </defs>
       <use xlink:href="#DejaVuSans-62"/>
       <use xlink:href="#DejaVuSans-61" x="63.476562"/>
       <use xlink:href="#DejaVuSans-65" x="124.755859"/>
       <use xlink:href="#DejaVuSans-73" x="186.279297"/>
      </g>
     </g>
    </g>
    <g id="xtick_3">
     <g id="line2d_3">
      <g>
       <use xlink:href="#m371a37edb4" x="440.320937" y="354.958125" style="stroke: #000000"/>
      </g>
     </g>
     <g id="text_3">
      <!-- chatdev -->
      <g transform="translate(420.168594 370.856562) scale(0.1 -0.1)">
       <defs>
        <path id="DejaVuSans-74" d="M 1172 4494 
L 1172 3500 
L 2356 3500 
L 2356 3053 
L 1172 3053 
L 1172 1153 
Q 1172 725 1289 603 
Q 1406 481 1766 481 
L 2356 481 
L 2356 0 
L 1766 0 
Q 1100 0 847 248 
Q 594 497 594 1153 
L 594 3053 
L 172 3053 
L 172 3500 
L 594 3500 
L 594 4494 
L 1172 4494 
z
" transform="scale(0.015625)"/>
        <path id="DejaVuSans-64" d="M 2906 2969 
L 2906 4863 
L 3481 4863 
L 3481 0 
L 2906 0 
L 2906 525 
Q 2725 213 2448 61 
Q 2172 -91 1784 -91 
Q 1150 -91 751 415 
Q 353 922 353 1747 
Q 353 2572 751 3078 
Q 1150 3584 1784 3584 
Q 2172 3584 2448 3432 
Q 2725 3281 2906 2969 
z
M 947 1747 
Q 947 1113 1208 752 
Q 1469 391 1925 391 
Q 2381 391 2643 752 
Q 2906 1113 2906 1747 
Q 2906 2381 2643 2742 
Q 2381 3103 1925 3103 
Q 1469 3103 1208 2742 
Q 947 2381 947 1747 
z
" transform="scale(0.015625)"/>
        <path id="DejaVuSans-76" d="M 191 3500 
L 800 3500 
L 1894 563 
L 2988 3500 
L 3597 3500 
L 2284 0 
L 1503 0 
L 191 3500 
z
" transform="scale(0.015625)"/>
       </defs>
       <use xlink:href="#DejaVuSans-63"/>
       <use xlink:href="#DejaVuSans-68" x="54.980469"/>
       <use xlink:href="#DejaVuSans-61" x="118.359375"/>
       <use xlink:href="#DejaVuSans-74" x="179.638672"/>
       <use xlink:href="#DejaVuSans-64" x="218.847656"/>
       <use xlink:href="#DejaVuSans-65" x="282.324219"/>
       <use xlink:href="#DejaVuSans-76" x="343.847656"/>
      </g>
     </g>
    </g>
    <g id="text_4">
     <!-- Framework -->
     <g transform="translate(261.074141 385.294531) scale(0.11 -0.11)">
      <defs>
       <path id="DejaVuSans-46" d="M 628 4666 
L 3309 4666 
L 3309 4134 
L 1259 4134 
L 1259 2759 
L 3109 2759 
L 3109 2228 
L 1259 2228 
L 1259 0 
L 628 0 
L 628 4666 
z
" transform="scale(0.015625)"/>
       <path id="DejaVuSans-72" d="M 2631 2963 
Q 2534 3019 2420 3045 
Q 2306 3072 2169 3072 
Q 1681 3072 1420 2755 
Q 1159 2438 1159 1844 
L 1159 0 
L 581 0 
L 581 3500 
L 1159 3500 
L 1159 2956 
Q 1341 3275 1631 3429 
Q 1922 3584 2338 3584 
Q 2397 3584 2469 3576 
Q 2541 3569 2628 3553 
L 2631 2963 
z
" transform="scale(0.015625)"/>
       <path id="DejaVuSans-6d" d="M 3328 2828 
Q 3544 3216 3844 3400 
Q 4144 3584 4550 3584 
Q 5097 3584 5394 3201 
Q 5691 2819 5691 2113 
L 5691 0 
L 5113 0 
L 5113 2094 
Q 5113 2597 4934 2840 
Q 4756 3084 4391 3084 
Q 3944 3084 3684 2787 
Q 3425 2491 3425 1978 
L 3425 0 
L 2847 0 
L 2847 2094 
Q 2847 2600 2669 2842 
Q 2491 3084 2119 3084 
Q 1678 3084 1418 2786 
Q 1159 2488 1159 1978 
L 1159 0 
L 581 0 
L 581 3500 
L 1159 3500 
L 1159 2956 
Q 1356 3278 1631 3431 
Q 1906 3584 2284 3584 
Q 2666 3584 2933 3390 
Q 3200 3197 3328 2828 
z
" transform="scale(0.015625)"/>
       <path id="DejaVuSans-77" d="M 269 3500 
L 844 3500 
L 1563 769 
L 2278 3500 
L 2956 3500 
L 3675 769 
L 4391 3500 
L 4966 3500 
L 4050 0 
L 3372 0 
L 2619 2869 
L 1863 0 
L 1184 0 
L 269 3500 
z
" transform="scale(0.015625)"/>
       <path id="DejaVuSans-6f" d="M 1959 3097 
Q 1497 3097 1228 2736 
Q 959 2375 959 1747 
Q 959 1119 1226 758 
Q 1494 397 1959 397 
Q 2419 397 2687 759 
Q 2956 1122 2956 1747 
Q 2956 2369 2687 2733 
Q 2419 3097 1959 3097 
z
M 1959 3584 
Q 2709 3584 3137 3096 
Q 3566 2609 3566 1747 
Q 3566 888 3137 398 
Q 2709 -91 1959 -91 
Q 1206 -91 779 398 
Q 353 888 353 1747 
Q 353 2609 779 3096 
Q 1206 3584 1959 3584 
z
" transform="scale(0.015625)"/>
       <path id="DejaVuSans-6b" d="M 581 4863 
L 1159 4863 
L 1159 1991 
L 2875 3500 
L 3609 3500 
L 1753 1863 
L 3688 0 
L 2938 0 
L 1159 1709 
L 1159 0 
L 581 0 
L 581 4863 
z
" transform="scale(0.015625)"/>
      </defs>
      <use xlink:href="#DejaVuSans-46"/>
      <use xlink:href="#DejaVuSans-72" x="50.269531"/>
      <use xlink:href="#DejaVuSans-61" x="91.382812"/>
      <use xlink:href="#DejaVuSans-6d" x="152.662109"/>
      <use xlink:href="#DejaVuSans-65" x="250.074219"/>
      <use xlink:href="#DejaVuSans-77" x="311.597656"/>
      <use xlink:href="#DejaVuSans-6f" x="393.384766"/>
      <use xlink:href="#DejaVuSans-72" x="454.566406"/>
      <use xlink:href="#DejaVuSans-6b" x="495.679688"/>
     </g>
    </g>
   </g>
   <g id="matplotlib.axis_2">
    <g id="ytick_1">
     <g id="line2d_4">
      <path d="M 68.320938 327.617869 
L 514.720937 327.617869 
" clip-path="url(#pd3093dc57c)" style="fill: none; stroke: #b0b0b0; stroke-opacity: 0.3; stroke-width: 0.8; stroke-linecap: square"/>
     </g>
     <g id="line2d_5">
      <defs>
       <path id="mcee695d402" d="M 0 0 
L -4.8 0 
" style="stroke: #000000"/>
      </defs>
      <g>
       <use xlink:href="#mcee695d402" x="68.320938" y="327.617869" style="stroke: #000000"/>
      </g>
     </g>
     <g id="text_5">
      <!-- 50000 -->
      <g transform="translate(28.208438 331.417088) scale(0.1 -0.1)">
       <defs>
        <path id="DejaVuSans-35" d="M 691 4666 
L 3169 4666 
L 3169 4134 
L 1269 4134 
L 1269 2991 
Q 1406 3038 1543 3061 
Q 1681 3084 1819 3084 
Q 2600 3084 3056 2656 
Q 3513 2228 3513 1497 
Q 3513 744 3044 326 
Q 2575 -91 1722 -91 
Q 1428 -91 1123 -41 
Q 819 9 494 109 
L 494 744 
Q 775 591 1075 516 
Q 1375 441 1709 441 
Q 2250 441 2565 725 
Q 2881 1009 2881 1497 
Q 2881 1984 2565 2268 
Q 2250 2553 1709 2553 
Q 1456 2553 1204 2497 
Q 953 2441 691 2322 
L 691 4666 
z
" transform="scale(0.015625)"/>
        <path id="DejaVuSans-30" d="M 2034 4250 
Q 1547 4250 1301 3770 
Q 1056 3291 1056 2328 
Q 1056 1369 1301 889 
Q 1547 409 2034 409 
Q 2525 409 2770 889 
Q 3016 1369 3016 2328 
Q 3016 3291 2770 3770 
Q 2525 4250 2034 4250 
z
M 2034 4750 
Q 2819 4750 3233 4129 
Q 3647 3509 3647 2328 
Q 3647 1150 3233 529 
Q 2819 -91 2034 -91 
Q 1250 -91 836 529 
Q 422 1150 422 2328 
Q 422 3509 836 4129 
Q 1250 4750 2034 4750 
z
" transform="scale(0.015625)"/>
       </defs>
       <use xlink:href="#DejaVuSans-35"/>
       <use xlink:href="#DejaVuSans-30" x="63.623047"/>
       <use xlink:href="#DejaVuSans-30" x="127.246094"/>
       <use xlink:href="#DejaVuSans-30" x="190.869141"/>
       <use xlink:href="#DejaVuSans-30" x="254.492188"/>
      </g>
     </g>
    </g>
    <g id="ytick_2">
     <g id="line2d_6">
      <path d="M 68.320938 288.430203 
L 514.720937 288.430203 
" clip-path="url(#pd3093dc57c)" style="fill: none; stroke: #b0b0b0; stroke-opacity: 0.3; stroke-width: 0.8; stroke-linecap: square"/>
     </g>
     <g id="line2d_7">
      <g>
       <use xlink:href="#mcee695d402" x="68.320938" y="288.430203" style="stroke: #000000"/>
      </g>
     </g>
     <g id="text_6">
      <!-- 100000 -->
      <g transform="translate(21.845938 292.229422) scale(0.1 -0.1)">
       <defs>
        <path id="DejaVuSans-31" d="M 794 531 
L 1825 531 
L 1825 4091 
L 703 3866 
L 703 4441 
L 1819 4666 
L 2450 4666 
L 2450 531 
L 3481 531 
L 3481 0 
L 794 0 
L 794 531 
z
" transform="scale(0.015625)"/>
       </defs>
       <use xlink:href="#DejaVuSans-31"/>
       <use xlink:href="#DejaVuSans-30" x="63.623047"/>
       <use xlink:href="#DejaVuSans-30" x="127.246094"/>
       <use xlink:href="#DejaVuSans-30" x="190.869141"/>
       <use xlink:href="#DejaVuSans-30" x="254.492188"/>
       <use xlink:href="#DejaVuSans-30" x="318.115234"/>
      </g>
     </g>
    </g>
    <g id="ytick_3">
     <g id="line2d_8">
      <path d="M 68.320938 249.242538 
L 514.720937 249.242538 
" clip-path="url(#pd3093dc57c)" style="fill: none; stroke: #b0b0b0; stroke-opacity: 0.3; stroke-width: 0.8; stroke-linecap: square"/>
     </g>
     <g id="line2d_9">
      <g>
       <use xlink:href="#mcee695d402" x="68.320938" y="249.242538" style="stroke: #000000"/>
      </g>
     </g>
     <g id="text_7">
      <!-- 150000 -->
      <g transform="translate(21.845938 253.041756) scale(0.1 -0.1)">
       <use xlink:href="#DejaVuSans-31"/>
       <use xlink:href="#DejaVuSans-35" x="63.623047"/>
       <use xlink:href="#DejaVuSans-30" x="127.246094"/>
       <use xlink:href="#DejaVuSans-30" x="190.869141"/>
       <use xlink:href="#DejaVuSans-30" x="254.492188"/>
       <use xlink:href="#DejaVuSans-30" x="318.115234"/>
      </g>
     </g>
    </g>
    <g id="ytick_4">
     <g id="line2d_10">
      <path d="M 68.320938 210.054872 
L 514.720937 210.054872 
" clip-path="url(#pd3093dc57c)" style="fill: none; stroke: #b0b0b0; stroke-opacity: 0.3; stroke-width: 0.8; stroke-linecap: square"/>
     </g>
     <g id="line2d_11">
      <g>
       <use xlink:href="#mcee695d402" x="68.320938" y="210.054872" style="stroke: #000000"/>
      </g>
     </g>
     <g id="text_8">
      <!-- 200000 -->
      <g transform="translate(21.845938 213.854091) scale(0.1 -0.1)">
       <defs>
        <path id="DejaVuSans-32" d="M 1228 531 
L 3431 531 
L 3431 0 
L 469 0 
L 469 531 
Q 828 903 1448 1529 
Q 2069 2156 2228 2338 
Q 2531 2678 2651 2914 
Q 2772 3150 2772 3378 
Q 2772 3750 2511 3984 
Q 2250 4219 1831 4219 
Q 1534 4219 1204 4116 
Q 875 4013 500 3803 
L 500 4441 
Q 881 4594 1212 4672 
Q 1544 4750 1819 4750 
Q 2544 4750 2975 4387 
Q 3406 4025 3406 3419 
Q 3406 3131 3298 2873 
Q 3191 2616 2906 2266 
Q 2828 2175 2409 1742 
Q 1991 1309 1228 531 
z
" transform="scale(0.015625)"/>
       </defs>
       <use xlink:href="#DejaVuSans-32"/>
       <use xlink:href="#DejaVuSans-30" x="63.623047"/>
       <use xlink:href="#DejaVuSans-30" x="127.246094"/>
       <use xlink:href="#DejaVuSans-30" x="190.869141"/>
       <use xlink:href="#DejaVuSans-30" x="254.492188"/>
       <use xlink:href="#DejaVuSans-30" x="318.115234"/>
      </g>
     </g>
    </g>
    <g id="ytick_5">
     <g id="line2d_12">
      <path d="M 68.320938 170.867206 
L 514.720937 170.867206 
" clip-path="url(#pd3093dc57c)" style="fill: none; stroke: #b0b0b0; stroke-opacity: 0.3; stroke-width: 0.8; stroke-linecap: square"/>
     </g>
     <g id="line2d_13">
      <g>
       <use xlink:href="#mcee695d402" x="68.320938" y="170.867206" style="stroke: #000000"/>
      </g>
     </g>
     <g id="text_9">
      <!-- 250000 -->
      <g transform="translate(21.845938 174.666425) scale(0.1 -0.1)">
       <use xlink:href="#DejaVuSans-32"/>
       <use xlink:href="#DejaVuSans-35" x="63.623047"/>
       <use xlink:href="#DejaVuSans-30" x="127.246094"/>
       <use xlink:href="#DejaVuSans-30" x="190.869141"/>
       <use xlink:href="#DejaVuSans-30" x="254.492188"/>
       <use xlink:href="#DejaVuSans-30" x="318.115234"/>
      </g>
     </g>
    </g>
    <g id="ytick_6">
     <g id="line2d_14">
      <path d="M 68.320938 131.67954 
L 514.720937 131.67954 
" clip-path="url(#pd3093dc57c)" style="fill: none; stroke: #b0b0b0; stroke-opacity: 0.3; stroke-width: 0.8; stroke-linecap: square"/>
     </g>
     <g id="line2d_15">
      <g>
       <use xlink:href="#mcee695d402" x="68.320938" y="131.67954" style="stroke: #000000"/>
      </g>
     </g>
     <g id="text_10">
      <!-- 300000 -->
      <g transform="translate(21.845938 135.478759) scale(0.1 -0.1)">
       <defs>
        <path id="DejaVuSans-33" d="M 2597 2516 
Q 3050 2419 3304 2112 
Q 3559 1806 3559 1356 
Q 3559 666 3084 287 
Q 2609 -91 1734 -91 
Q 1441 -91 1130 -33 
Q 819 25 488 141 
L 488 750 
Q 750 597 1062 519 
Q 1375 441 1716 441 
Q 2309 441 2620 675 
Q 2931 909 2931 1356 
Q 2931 1769 2642 2001 
Q 2353 2234 1838 2234 
L 1294 2234 
L 1294 2753 
L 1863 2753 
Q 2328 2753 2575 2939 
Q 2822 3125 2822 3475 
Q 2822 3834 2567 4026 
Q 2313 4219 1838 4219 
Q 1578 4219 1281 4162 
Q 984 4106 628 3988 
L 628 4550 
Q 988 4650 1302 4700 
Q 1616 4750 1894 4750 
Q 2613 4750 3031 4423 
Q 3450 4097 3450 3541 
Q 3450 3153 3228 2886 
Q 3006 2619 2597 2516 
z
" transform="scale(0.015625)"/>
       </defs>
       <use xlink:href="#DejaVuSans-33"/>
       <use xlink:href="#DejaVuSans-30" x="63.623047"/>
       <use xlink:href="#DejaVuSans-30" x="127.246094"/>
       <use xlink:href="#DejaVuSans-30" x="190.869141"/>
       <use xlink:href="#DejaVuSans-30" x="254.492188"/>
       <use xlink:href="#DejaVuSans-30" x="318.115234"/>
      </g>
     </g>
    </g>
    <g id="ytick_7">
     <g id="line2d_16">
      <path d="M 68.320938 92.491874 
L 514.720937 92.491874 
" clip-path="url(#pd3093dc57c)" style="fill: none; stroke: #b0b0b0; stroke-opacity: 0.3; stroke-width: 0.8; stroke-linecap: square"/>
     </g>
     <g id="line2d_17">
      <g>
       <use xlink:href="#mcee695d402" x="68.320938" y="92.491874" style="stroke: #000000"/>
      </g>
     </g>
     <g id="text_11">
      <!-- 350000 -->
      <g transform="translate(21.845938 96.291093) scale(0.1 -0.1)">
       <use xlink:href="#DejaVuSans-33"/>
       <use xlink:href="#DejaVuSans-35" x="63.623047"/>
       <use xlink:href="#DejaVuSans-30" x="127.246094"/>
       <use xlink:href="#DejaVuSans-30" x="190.869141"/>
       <use xlink:href="#DejaVuSans-30" x="254.492188"/>
       <use xlink:href="#DejaVuSans-30" x="318.115234"/>
      </g>
     </g>
    </g>
    <g id="ytick_8">
     <g id="line2d_18">
      <path d="M 68.320938 53.304209 
L 514.720937 53.304209 
" clip-path="url(#pd3093dc57c)" style="fill: none; stroke: #b0b0b0; stroke-opacity: 0.3; stroke-width: 0.8; stroke-linecap: square"/>
     </g>
     <g id="line2d_19">
      <g>
       <use xlink:href="#mcee695d402" x="68.320938" y="53.304209" style="stroke: #000000"/>
      </g>
     </g>
     <g id="text_12">
      <!-- 400000 -->
      <g transform="translate(21.845938 57.103427) scale(0.1 -0.1)">
       <defs>
        <path id="DejaVuSans-34" d="M 2419 4116 
L 825 1625 
L 2419 1625 
L 2419 4116 
z
M 2253 4666 
L 3047 4666 
L 3047 1625 
L 3713 1625 
L 3713 1100 
L 3047 1100 
L 3047 0 
L 2419 0 
L 2419 1100 
L 313 1100 
L 313 1709 
L 2253 4666 
z
" transform="scale(0.015625)"/>
       </defs>
       <use xlink:href="#DejaVuSans-34"/>
       <use xlink:href="#DejaVuSans-30" x="63.623047"/>
       <use xlink:href="#DejaVuSans-30" x="127.246094"/>
       <use xlink:href="#DejaVuSans-30" x="190.869141"/>
       <use xlink:href="#DejaVuSans-30" x="254.492188"/>
       <use xlink:href="#DejaVuSans-30" x="318.115234"/>
      </g>
     </g>
    </g>
    <g id="text_13">
     <!-- Input Tokens (count) -->
     <g transform="translate(15.558281 244.694297) rotate(-90) scale(0.11 -0.11)">
      <defs>
       <path id="DejaVuSans-49" d="M 628 4666 
L 1259 4666 
L 1259 0 
L 628 0 
L 628 4666 
z
" transform="scale(0.015625)"/>
       <path id="DejaVuSans-6e" d="M 3513 2113 
L 3513 0 
L 2938 0 
L 2938 2094 
Q 2938 2591 2744 2837 
Q 2550 3084 2163 3084 
Q 1697 3084 1428 2787 
Q 1159 2491 1159 1978 
L 1159 0 
L 581 0 
L 581 3500 
L 1159 3500 
L 1159 2956 
Q 1366 3272 1645 3428 
Q 1925 3584 2291 3584 
Q 2894 3584 3203 3211 
Q 3513 2838 3513 2113 
z
" transform="scale(0.015625)"/>
       <path id="DejaVuSans-75" d="M 544 1381 
L 544 3500 
L 1119 3500 
L 1119 1403 
Q 1119 906 1312 657 
Q 1506 409 1894 409 
Q 2359 409 2629 706 
Q 2900 1003 2900 1516 
L 2900 3500 
L 3475 3500 
L 3475 0 
L 2900 0 
L 2900 538 
Q 2691 219 2414 64 
Q 2138 -91 1772 -91 
Q 1169 -91 856 284 
Q 544 659 544 1381 
z
M 1991 3584 
L 1991 3584 
z
" transform="scale(0.015625)"/>
       <path id="DejaVuSans-20" transform="scale(0.015625)"/>
       <path id="DejaVuSans-54" d="M -19 4666 
L 3928 4666 
L 3928 4134 
L 2272 4134 
L 2272 0 
L 1638 0 
L 1638 4134 
L -19 4134 
L -19 4666 
z
" transform="scale(0.015625)"/>
       <path id="DejaVuSans-28" d="M 1984 4856 
Q 1566 4138 1362 3434 
Q 1159 2731 1159 2009 
Q 1159 1288 1364 580 
Q 1569 -128 1984 -844 
L 1484 -844 
Q 1016 -109 783 600 
Q 550 1309 550 2009 
Q 550 2706 781 3412 
Q 1013 4119 1484 4856 
L 1984 4856 
z
" transform="scale(0.015625)"/>
       <path id="DejaVuSans-29" d="M 513 4856 
L 1013 4856 
Q 1481 4119 1714 3412 
Q 1947 2706 1947 2009 
Q 1947 1309 1714 600 
Q 1481 -109 1013 -844 
L 513 -844 
Q 928 -128 1133 580 
Q 1338 1288 1338 2009 
Q 1338 2731 1133 3434 
Q 928 4138 513 4856 
z
" transform="scale(0.015625)"/>
      </defs>
      <use xlink:href="#DejaVuSans-49"/>
      <use xlink:href="#DejaVuSans-6e" x="29.492188"/>
      <use xlink:href="#DejaVuSans-70" x="92.871094"/>
      <use xlink:href="#DejaVuSans-75" x="156.347656"/>
      <use xlink:href="#DejaVuSans-74" x="219.726562"/>
      <use xlink:href="#DejaVuSans-20" x="258.935547"/>
      <use xlink:href="#DejaVuSans-54" x="290.722656"/>
      <use xlink:href="#DejaVuSans-6f" x="334.806641"/>
      <use xlink:href="#DejaVuSans-6b" x="395.988281"/>
      <use xlink:href="#DejaVuSans-65" x="450.273438"/>
      <use xlink:href="#DejaVuSans-6e" x="511.796875"/>
      <use xlink:href="#DejaVuSans-73" x="575.175781"/>
      <use xlink:href="#DejaVuSans-20" x="627.275391"/>
      <use xlink:href="#DejaVuSans-28" x="659.0625"/>
      <use xlink:href="#DejaVuSans-63" x="698.076172"/>
      <use xlink:href="#DejaVuSans-6f" x="753.056641"/>
      <use xlink:href="#DejaVuSans-75" x="814.238281"/>
      <use xlink:href="#DejaVuSans-6e" x="877.617188"/>
      <use xlink:href="#DejaVuSans-74" x="940.996094"/>
      <use xlink:href="#DejaVuSans-29" x="980.205078"/>
     </g>
    </g>
   </g>
   <g id="PolyCollection_1">
    <defs>
     <path id="m68ce6d31ad" d="M 142.728243 -191.666886 
L 142.713632 -191.666886 
L 142.710417 -193.340393 
L 142.706111 -195.0139 
L 142.700471 -196.687406 
L 142.693238 -198.360913 
L 142.684143 -200.03442 
L 142.672912 -201.707927 
L 142.659274 -203.381434 
L 142.642959 -205.054941 
L 142.623704 -206.728447 
L 142.601259 -208.401954 
L 142.575394 -210.075461 
L 142.545918 -211.748968 
L 142.512697 -213.422475 
L 142.475683 -215.095982 
L 142.434944 -216.769488 
L 142.390691 -218.442995 
L 142.343297 -220.116502 
L 142.293302 -221.790009 
L 142.241411 -223.463516 
L 142.188468 -225.137023 
L 142.135428 -226.810529 
L 142.083312 -228.484036 
L 142.033163 -230.157543 
L 141.986001 -231.83105 
L 141.942782 -233.504557 
L 141.904352 -235.178064 
L 141.871415 -236.85157 
L 141.844497 -238.525077 
L 141.823918 -240.198584 
L 141.809771 -241.872091 
L 141.801915 -243.545598 
L 141.79997 -245.219105 
L 141.803344 -246.892611 
L 141.811258 -248.566118 
L 141.822798 -250.239625 
L 141.83698 -251.913132 
L 141.852817 -253.586639 
L 141.869398 -255.260146 
L 141.885961 -256.933652 
L 141.901954 -258.607159 
L 141.917078 -260.280666 
L 141.9313 -261.954173 
L 141.944843 -263.62768 
L 141.958136 -265.301187 
L 141.971747 -266.974693 
L 141.986295 -268.6482 
L 142.002358 -270.321707 
L 142.020392 -271.995214 
L 142.040667 -273.668721 
L 142.063229 -275.342228 
L 142.087899 -277.015734 
L 142.114299 -278.689241 
L 142.141901 -280.362748 
L 142.170095 -282.036255 
L 142.198266 -283.709762 
L 142.22586 -285.383269 
L 142.252443 -287.056775 
L 142.277736 -288.730282 
L 142.301627 -290.403789 
L 142.324157 -292.077296 
L 142.345493 -293.750803 
L 142.365874 -295.42431 
L 142.38557 -297.097816 
L 142.404828 -298.771323 
L 142.423843 -300.44483 
L 142.442738 -302.118337 
L 142.461555 -303.791844 
L 142.480276 -305.465351 
L 142.498829 -307.138857 
L 142.517117 -308.812364 
L 142.535025 -310.485871 
L 142.552438 -312.159378 
L 142.569234 -313.832885 
L 142.585288 -315.506392 
L 142.600467 -317.179898 
L 142.61463 -318.853405 
L 142.627633 -320.526912 
L 142.639348 -322.200419 
L 142.649677 -323.873926 
L 142.658569 -325.547433 
L 142.666043 -327.220939 
L 142.672188 -328.894446 
L 142.67716 -330.567953 
L 142.681172 -332.24146 
L 142.684466 -333.914967 
L 142.687289 -335.588474 
L 142.689862 -337.26198 
L 142.692362 -338.935487 
L 142.694905 -340.608994 
L 142.697542 -342.282501 
L 142.70027 -343.956008 
L 142.703039 -345.629515 
L 142.705773 -347.303021 
L 142.708386 -348.976528 
L 142.710801 -350.650035 
L 142.712955 -352.323542 
L 142.714811 -353.997049 
L 142.716358 -355.670556 
L 142.717603 -357.344062 
L 142.724272 -357.344062 
L 142.724272 -357.344062 
L 142.725517 -355.670556 
L 142.727064 -353.997049 
L 142.72892 -352.323542 
L 142.731074 -350.650035 
L 142.733489 -348.976528 
L 142.736102 -347.303021 
L 142.738836 -345.629515 
L 142.741605 -343.956008 
L 142.744333 -342.282501 
L 142.74697 -340.608994 
L 142.749513 -338.935487 
L 142.752013 -337.26198 
L 142.754586 -335.588474 
L 142.757409 -333.914967 
L 142.760703 -332.24146 
L 142.764715 -330.567953 
L 142.769687 -328.894446 
L 142.775832 -327.220939 
L 142.783306 -325.547433 
L 142.792198 -323.873926 
L 142.802527 -322.200419 
L 142.814242 -320.526912 
L 142.827245 -318.853405 
L 142.841408 -317.179898 
L 142.856587 -315.506392 
L 142.872641 -313.832885 
L 142.889437 -312.159378 
L 142.90685 -310.485871 
L 142.924758 -308.812364 
L 142.943046 -307.138857 
L 142.961599 -305.465351 
L 142.98032 -303.791844 
L 142.999137 -302.118337 
L 143.018032 -300.44483 
L 143.037047 -298.771323 
L 143.056305 -297.097816 
L 143.076001 -295.42431 
L 143.096382 -293.750803 
L 143.117718 -292.077296 
L 143.140248 -290.403789 
L 143.164139 -288.730282 
L 143.189432 -287.056775 
L 143.216015 -285.383269 
L 143.243609 -283.709762 
L 143.27178 -282.036255 
L 143.299974 -280.362748 
L 143.327576 -278.689241 
L 143.353976 -277.015734 
L 143.378646 -275.342228 
L 143.401208 -273.668721 
L 143.421483 -271.995214 
L 143.439517 -270.321707 
L 143.45558 -268.6482 
L 143.470128 -266.974693 
L 143.483739 -265.301187 
L 143.497032 -263.62768 
L 143.510575 -261.954173 
L 143.524797 -260.280666 
L 143.539921 -258.607159 
L 143.555914 -256.933652 
L 143.572477 -255.260146 
L 143.589058 -253.586639 
L 143.604895 -251.913132 
L 143.619077 -250.239625 
L 143.630617 -248.566118 
L 143.638531 -246.892611 
L 143.641905 -245.219105 
L 143.63996 -243.545598 
L 143.632104 -241.872091 
L 143.617957 -240.198584 
L 143.597378 -238.525077 
L 143.57046 -236.85157 
L 143.537523 -235.178064 
L 143.499093 -233.504557 
L 143.455874 -231.83105 
L 143.408712 -230.157543 
L 143.358563 -228.484036 
L 143.306447 -226.810529 
L 143.253407 -225.137023 
L 143.200464 -223.463516 
L 143.148573 -221.790009 
L 143.098578 -220.116502 
L 143.051184 -218.442995 
L 143.006931 -216.769488 
L 142.966192 -215.095982 
L 142.929178 -213.422475 
L 142.895957 -211.748968 
L 142.866481 -210.075461 
L 142.840616 -208.401954 
L 142.818171 -206.728447 
L 142.798916 -205.054941 
L 142.782601 -203.381434 
L 142.768963 -201.707927 
L 142.757732 -200.03442 
L 142.748637 -198.360913 
L 142.741404 -196.687406 
L 142.735764 -195.0139 
L 142.731458 -193.340393 
L 142.728243 -191.666886 
z
" style="stroke: #303030; stroke-width: 1.2"/>
    </defs>
    <g clip-path="url(#pd3093dc57c)">
     <use xlink:href="#m68ce6d31ad" x="0" y="394.782188" style="fill: #176d9c; stroke: #303030; stroke-width: 1.2"/>
    </g>
   </g>
   <g id="PolyCollection_2">
    <defs>
     <path id="m4b12c6f834" d="M 299.579576 -54.944063 
L 283.462299 -54.944063 
L 280.947499 -54.985925 
L 277.920062 -55.027788 
L 274.368989 -55.069651 
L 270.31507 -55.111514 
L 265.817296 -55.153377 
L 260.976702 -55.19524 
L 255.936519 -55.237103 
L 250.877869 -55.278966 
L 246.010698 -55.320829 
L 241.560325 -55.362692 
L 237.750642 -55.404555 
L 234.785666 -55.446418 
L 232.831501 -55.488281 
L 232.000937 -55.530144 
L 232.342668 -55.572007 
L 233.836548 -55.61387 
L 236.395538 -55.655733 
L 239.874066 -55.697596 
L 244.081675 -55.739459 
L 248.800162 -55.781322 
L 253.802044 -55.823185 
L 258.868167 -55.865048 
L 263.802557 -55.906911 
L 268.443197 -55.948774 
L 272.668039 -55.990637 
L 276.396306 -56.0325 
L 279.585677 -56.074363 
L 282.22638 -56.116226 
L 284.333432 -56.158089 
L 285.93824 -56.199952 
L 287.080666 -56.241815 
L 287.802383 -56.283678 
L 288.142059 -56.325541 
L 288.132633 -56.367404 
L 287.800662 -56.409267 
L 287.16752 -56.45113 
L 286.252047 -56.492993 
L 285.074151 -56.534856 
L 283.658755 -56.576719 
L 282.039467 -56.618582 
L 280.261373 -56.660445 
L 278.382413 -56.702308 
L 276.472978 -56.744171 
L 274.613545 -56.786034 
L 272.890463 -56.827897 
L 271.390227 -56.86976 
L 270.19287 -56.911623 
L 269.36525 -56.953486 
L 268.955083 -56.995349 
L 268.986516 -57.037212 
L 269.457852 -57.079075 
L 270.341744 -57.120938 
L 271.587845 -57.162801 
L 273.127571 -57.204664 
L 274.880343 -57.246527 
L 276.760533 -57.28839 
L 278.684278 -57.330253 
L 280.575422 -57.372116 
L 282.370034 -57.413979 
L 284.019187 -57.455842 
L 285.489957 -57.497705 
L 286.764817 -57.539568 
L 287.839776 -57.581431 
L 288.721704 -57.623294 
L 289.425282 -57.665157 
L 289.969987 -57.70702 
L 290.37742 -57.748883 
L 290.669161 -57.790746 
L 290.865257 -57.832609 
L 290.983318 -57.874472 
L 291.038165 -57.916335 
L 291.041922 -57.958198 
L 291.004395 -58.000061 
L 290.933649 -58.041924 
L 290.836617 -58.083787 
L 290.71969 -58.125649 
L 290.58917 -58.167512 
L 290.451562 -58.209375 
L 290.313669 -58.251238 
L 290.182487 -58.293101 
L 290.064942 -58.334964 
L 289.967498 -58.376827 
L 289.895707 -58.41869 
L 289.853782 -58.460553 
L 289.844237 -58.502416 
L 289.867674 -58.544279 
L 289.922742 -58.586142 
L 290.006272 -58.628005 
L 290.113592 -58.669868 
L 290.238957 -58.711731 
L 290.376061 -58.753594 
L 290.518559 -58.795457 
L 290.660536 -58.83732 
L 290.796891 -58.879183 
L 290.923589 -58.921046 
L 291.037784 -58.962909 
L 291.137814 -59.004772 
L 291.223094 -59.046635 
L 291.293934 -59.088498 
L 291.747941 -59.088498 
L 291.747941 -59.088498 
L 291.818781 -59.046635 
L 291.904061 -59.004772 
L 292.004091 -58.962909 
L 292.118286 -58.921046 
L 292.244984 -58.879183 
L 292.381339 -58.83732 
L 292.523316 -58.795457 
L 292.665814 -58.753594 
L 292.802918 -58.711731 
L 292.928283 -58.669868 
L 293.035603 -58.628005 
L 293.119133 -58.586142 
L 293.174201 -58.544279 
L 293.197638 -58.502416 
L 293.188093 -58.460553 
L 293.146168 -58.41869 
L 293.074377 -58.376827 
L 292.976933 -58.334964 
L 292.859388 -58.293101 
L 292.728206 -58.251238 
L 292.590313 -58.209375 
L 292.452705 -58.167512 
L 292.322185 -58.125649 
L 292.205258 -58.083787 
L 292.108226 -58.041924 
L 292.03748 -58.000061 
L 291.999953 -57.958198 
L 292.00371 -57.916335 
L 292.058557 -57.874472 
L 292.176618 -57.832609 
L 292.372714 -57.790746 
L 292.664455 -57.748883 
L 293.071888 -57.70702 
L 293.616593 -57.665157 
L 294.320171 -57.623294 
L 295.202099 -57.581431 
L 296.277058 -57.539568 
L 297.551918 -57.497705 
L 299.022688 -57.455842 
L 300.671841 -57.413979 
L 302.466453 -57.372116 
L 304.357597 -57.330253 
L 306.281342 -57.28839 
L 308.161532 -57.246527 
L 309.914304 -57.204664 
L 311.45403 -57.162801 
L 312.700131 -57.120938 
L 313.584023 -57.079075 
L 314.055359 -57.037212 
L 314.086792 -56.995349 
L 313.676625 -56.953486 
L 312.849005 -56.911623 
L 311.651648 -56.86976 
L 310.151412 -56.827897 
L 308.42833 -56.786034 
L 306.568897 -56.744171 
L 304.659462 -56.702308 
L 302.780502 -56.660445 
L 301.002408 -56.618582 
L 299.38312 -56.576719 
L 297.967724 -56.534856 
L 296.789828 -56.492993 
L 295.874355 -56.45113 
L 295.241213 -56.409267 
L 294.909242 -56.367404 
L 294.899816 -56.325541 
L 295.239492 -56.283678 
L 295.961209 -56.241815 
L 297.103635 -56.199952 
L 298.708443 -56.158089 
L 300.815495 -56.116226 
L 303.456198 -56.074363 
L 306.645569 -56.0325 
L 310.373836 -55.990637 
L 314.598678 -55.948774 
L 319.239318 -55.906911 
L 324.173708 -55.865048 
L 329.239831 -55.823185 
L 334.241713 -55.781322 
L 338.9602 -55.739459 
L 343.167809 -55.697596 
L 346.646337 -55.655733 
L 349.205327 -55.61387 
L 350.699207 -55.572007 
L 351.040937 -55.530144 
L 350.210374 -55.488281 
L 348.256209 -55.446418 
L 345.291233 -55.404555 
L 341.48155 -55.362692 
L 337.031177 -55.320829 
L 332.164006 -55.278966 
L 327.105356 -55.237103 
L 322.065173 -55.19524 
L 317.224579 -55.153377 
L 312.726805 -55.111514 
L 308.672886 -55.069651 
L 305.121813 -55.027788 
L 302.094376 -54.985925 
L 299.579576 -54.944063 
z
" style="stroke: #303030; stroke-width: 1.2"/>
    </defs>
    <g clip-path="url(#pd3093dc57c)">
     <use xlink:href="#m4b12c6f834" x="0" y="394.782188" style="fill: #c38820; stroke: #303030; stroke-width: 1.2"/>
    </g>
   </g>
   <g id="PolyCollection_3">
    <defs>
     <path id="m28bafb9fc6" d="M 440.333073 -88.255501 
L 440.308802 -88.255501 
L 440.302652 -90.086317 
L 440.294128 -91.917134 
L 440.282668 -93.74795 
L 440.267722 -95.578766 
L 440.248803 -97.409583 
L 440.225549 -99.240399 
L 440.197769 -101.071215 
L 440.165473 -102.902031 
L 440.12888 -104.732848 
L 440.088378 -106.563664 
L 440.04446 -108.39448 
L 439.997639 -110.225297 
L 439.948349 -112.056113 
L 439.896878 -113.886929 
L 439.843327 -115.717746 
L 439.787633 -117.548562 
L 439.729648 -119.379378 
L 439.669276 -121.210194 
L 439.606633 -123.041011 
L 439.542213 -124.871827 
L 439.477016 -126.702643 
L 439.412606 -128.53346 
L 439.35108 -130.364276 
L 439.294938 -132.195092 
L 439.246864 -134.025909 
L 439.209453 -135.856725 
L 439.18492 -137.687541 
L 439.174835 -139.518357 
L 439.179928 -141.349174 
L 439.199999 -143.17999 
L 439.233924 -145.010806 
L 439.27977 -146.841623 
L 439.334987 -148.672439 
L 439.396643 -150.503255 
L 439.461685 -152.334071 
L 439.527169 -154.164888 
L 439.590471 -155.995704 
L 439.649431 -157.82652 
L 439.702446 -159.657337 
L 439.748504 -161.488153 
L 439.787166 -163.318969 
L 439.818507 -165.149786 
L 439.843039 -166.980602 
L 439.861608 -168.811418 
L 439.875308 -170.642234 
L 439.885385 -172.473051 
L 439.893166 -174.303867 
L 439.899984 -176.134683 
L 439.90711 -177.9655 
L 439.915686 -179.796316 
L 439.926656 -181.627132 
L 439.940692 -183.457949 
L 439.958141 -185.288765 
L 439.978988 -187.119581 
L 440.00286 -188.950397 
L 440.029062 -190.781214 
L 440.056656 -192.61203 
L 440.084571 -194.442846 
L 440.111731 -196.273663 
L 440.137172 -198.104479 
L 440.160142 -199.935295 
L 440.180169 -201.766112 
L 440.19708 -203.596928 
L 440.210984 -205.427744 
L 440.222218 -207.25856 
L 440.231277 -209.089377 
L 440.238726 -210.920193 
L 440.245128 -212.751009 
L 440.25097 -214.581826 
L 440.256623 -216.412642 
L 440.262318 -218.243458 
L 440.268137 -220.074274 
L 440.274033 -221.905091 
L 440.279859 -223.735907 
L 440.285402 -225.566723 
L 440.290428 -227.39754 
L 440.294714 -229.228356 
L 440.298087 -231.059172 
L 440.300444 -232.889989 
L 440.301769 -234.720805 
L 440.302133 -236.551621 
L 440.301695 -238.382437 
L 440.300677 -240.213254 
L 440.299349 -242.04407 
L 440.297995 -243.874886 
L 440.296883 -245.705703 
L 440.296235 -247.536519 
L 440.296205 -249.367335 
L 440.296861 -251.198152 
L 440.298187 -253.028968 
L 440.300091 -254.859784 
L 440.302424 -256.6906 
L 440.305008 -258.521417 
L 440.307661 -260.352233 
L 440.31022 -262.183049 
L 440.312558 -264.013866 
L 440.314593 -265.844682 
L 440.316285 -267.675498 
L 440.317634 -269.506315 
L 440.324241 -269.506315 
L 440.324241 -269.506315 
L 440.32559 -267.675498 
L 440.327282 -265.844682 
L 440.329317 -264.013866 
L 440.331655 -262.183049 
L 440.334214 -260.352233 
L 440.336867 -258.521417 
L 440.339451 -256.6906 
L 440.341784 -254.859784 
L 440.343688 -253.028968 
L 440.345014 -251.198152 
L 440.34567 -249.367335 
L 440.34564 -247.536519 
L 440.344992 -245.705703 
L 440.34388 -243.874886 
L 440.342526 -242.04407 
L 440.341198 -240.213254 
L 440.34018 -238.382437 
L 440.339742 -236.551621 
L 440.340106 -234.720805 
L 440.341431 -232.889989 
L 440.343788 -231.059172 
L 440.347161 -229.228356 
L 440.351447 -227.39754 
L 440.356473 -225.566723 
L 440.362016 -223.735907 
L 440.367842 -221.905091 
L 440.373738 -220.074274 
L 440.379557 -218.243458 
L 440.385252 -216.412642 
L 440.390905 -214.581826 
L 440.396747 -212.751009 
L 440.403149 -210.920193 
L 440.410598 -209.089377 
L 440.419657 -207.25856 
L 440.430891 -205.427744 
L 440.444795 -203.596928 
L 440.461706 -201.766112 
L 440.481733 -199.935295 
L 440.504703 -198.104479 
L 440.530144 -196.273663 
L 440.557304 -194.442846 
L 440.585219 -192.61203 
L 440.612813 -190.781214 
L 440.639015 -188.950397 
L 440.662887 -187.119581 
L 440.683734 -185.288765 
L 440.701183 -183.457949 
L 440.715219 -181.627132 
L 440.726189 -179.796316 
L 440.734765 -177.9655 
L 440.741891 -176.134683 
L 440.748709 -174.303867 
L 440.75649 -172.473051 
L 440.766567 -170.642234 
L 440.780267 -168.811418 
L 440.798836 -166.980602 
L 440.823368 -165.149786 
L 440.854709 -163.318969 
L 440.893371 -161.488153 
L 440.939429 -159.657337 
L 440.992444 -157.82652 
L 441.051404 -155.995704 
L 441.114706 -154.164888 
L 441.18019 -152.334071 
L 441.245232 -150.503255 
L 441.306888 -148.672439 
L 441.362105 -146.841623 
L 441.407951 -145.010806 
L 441.441876 -143.17999 
L 441.461947 -141.349174 
L 441.46704 -139.518357 
L 441.456955 -137.687541 
L 441.432422 -135.856725 
L 441.395011 -134.025909 
L 441.346937 -132.195092 
L 441.290795 -130.364276 
L 441.229269 -128.53346 
L 441.164859 -126.702643 
L 441.099662 -124.871827 
L 441.035242 -123.041011 
L 440.972599 -121.210194 
L 440.912227 -119.379378 
L 440.854242 -117.548562 
L 440.798548 -115.717746 
L 440.744997 -113.886929 
L 440.693526 -112.056113 
L 440.644236 -110.225297 
L 440.597415 -108.39448 
L 440.553497 -106.563664 
L 440.512995 -104.732848 
L 440.476402 -102.902031 
L 440.444106 -101.071215 
L 440.416326 -99.240399 
L 440.393072 -97.409583 
L 440.374153 -95.578766 
L 440.359207 -93.74795 
L 440.347747 -91.917134 
L 440.339223 -90.086317 
L 440.333073 -88.255501 
z
" style="stroke: #303030; stroke-width: 1.2"/>
    </defs>
    <g clip-path="url(#pd3093dc57c)">
     <use xlink:href="#m28bafb9fc6" x="0" y="394.782188" style="fill: #158b6a; stroke: #303030; stroke-width: 1.2"/>
    </g>
   </g>
   <g id="line2d_20">
    <path d="M 141.832888 155.215065 
L 143.608987 155.215065 
" clip-path="url(#pd3093dc57c)" style="fill: none; stroke-dasharray: 2.16,2.16; stroke-dashoffset: 0; stroke: #303030; stroke-width: 1.2"/>
   </g>
   <g id="line2d_21">
    <path d="M 141.861498 140.556722 
L 143.580377 140.556722 
" clip-path="url(#pd3093dc57c)" style="fill: none; stroke-dasharray: 4.32,4.32; stroke-dashoffset: 0; stroke: #303030; stroke-width: 1.2"/>
   </g>
   <g id="line2d_22">
    <path d="M 142.069806 119.440448 
L 143.372069 119.440448 
" clip-path="url(#pd3093dc57c)" style="fill: none; stroke-dasharray: 2.16,2.16; stroke-dashoffset: 0; stroke: #303030; stroke-width: 1.2"/>
   </g>
   <g id="line2d_23">
    <path d="M 232.596137 339.243282 
L 350.445737 339.243282 
" clip-path="url(#pd3093dc57c)" style="fill: none; stroke-dasharray: 2.16,2.16; stroke-dashoffset: 0; stroke: #303030; stroke-width: 1.2"/>
   </g>
   <g id="line2d_24">
    <path d="M 232.596137 339.243282 
L 350.445737 339.243282 
" clip-path="url(#pd3093dc57c)" style="fill: none; stroke-dasharray: 4.32,4.32; stroke-dashoffset: 0; stroke: #303030; stroke-width: 1.2"/>
   </g>
   <g id="line2d_25">
    <path d="M 269.21186 337.765907 
L 313.830015 337.765907 
" clip-path="url(#pd3093dc57c)" style="fill: none; stroke-dasharray: 2.16,2.16; stroke-dashoffset: 0; stroke: #303030; stroke-width: 1.2"/>
   </g>
   <g id="line2d_26">
    <path d="M 439.257605 260.596184 
L 441.38427 260.596184 
" clip-path="url(#pd3093dc57c)" style="fill: none; stroke-dasharray: 2.16,2.16; stroke-dashoffset: 0; stroke: #303030; stroke-width: 1.2"/>
   </g>
   <g id="line2d_27">
    <path d="M 439.211209 251.594189 
L 441.430666 251.594189 
" clip-path="url(#pd3093dc57c)" style="fill: none; stroke-dasharray: 4.32,4.32; stroke-dashoffset: 0; stroke: #303030; stroke-width: 1.2"/>
   </g>
   <g id="line2d_28">
    <path d="M 439.792503 231.058089 
L 440.849372 231.058089 
" clip-path="url(#pd3093dc57c)" style="fill: none; stroke-dasharray: 2.16,2.16; stroke-dashoffset: 0; stroke: #303030; stroke-width: 1.2"/>
   </g>
   <g id="patch_3">
    <path d="M 68.320938 354.958125 
L 68.320938 22.318125 
" style="fill: none; stroke: #000000; stroke-linejoin: miter; stroke-linecap: square"/>
   </g>
   <g id="patch_4">
    <path d="M 514.720937 354.958125 
L 514.720937 22.318125 
" style="fill: none; stroke: #000000; stroke-linejoin: miter; stroke-linecap: square"/>
   </g>
   <g id="patch_5">
    <path d="M 68.320937 354.958125 
L 514.720937 354.958125 
" style="fill: none; stroke: #000000; stroke-linejoin: miter; stroke-linecap: square"/>
   </g>
   <g id="patch_6">
    <path d="M 68.320937 22.318125 
L 514.720937 22.318125 
" style="fill: none; stroke: #000000; stroke-linejoin: miter; stroke-linecap: square"/>
   </g>
   <g id="text_14">
    <!-- Distribution Shape: Input Tokens (count) -->
    <g transform="translate(170.741875 16.318125) scale(0.12 -0.12)">
     <defs>
      <path id="DejaVuSans-44" d="M 1259 4147 
L 1259 519 
L 2022 519 
Q 2988 519 3436 956 
Q 3884 1394 3884 2338 
Q 3884 3275 3436 3711 
Q 2988 4147 2022 4147 
L 1259 4147 
z
M 628 4666 
L 1925 4666 
Q 3281 4666 3915 4102 
Q 4550 3538 4550 2338 
Q 4550 1131 3912 565 
Q 3275 0 1925 0 
L 628 0 
L 628 4666 
z
" transform="scale(0.015625)"/>
      <path id="DejaVuSans-69" d="M 603 3500 
L 1178 3500 
L 1178 0 
L 603 0 
L 603 3500 
z
M 603 4863 
L 1178 4863 
L 1178 4134 
L 603 4134 
L 603 4863 
z
" transform="scale(0.015625)"/>
      <path id="DejaVuSans-53" d="M 3425 4513 
L 3425 3897 
Q 3066 4069 2747 4153 
Q 2428 4238 2131 4238 
Q 1616 4238 1336 4038 
Q 1056 3838 1056 3469 
Q 1056 3159 1242 3001 
Q 1428 2844 1947 2747 
L 2328 2669 
Q 3034 2534 3370 2195 
Q 3706 1856 3706 1288 
Q 3706 609 3251 259 
Q 2797 -91 1919 -91 
Q 1588 -91 1214 -16 
Q 841 59 441 206 
L 441 856 
Q 825 641 1194 531 
Q 1563 422 1919 422 
Q 2459 422 2753 634 
Q 3047 847 3047 1241 
Q 3047 1584 2836 1778 
Q 2625 1972 2144 2069 
L 1759 2144 
Q 1053 2284 737 2584 
Q 422 2884 422 3419 
Q 422 4038 858 4394 
Q 1294 4750 2059 4750 
Q 2388 4750 2728 4690 
Q 3069 4631 3425 4513 
z
" transform="scale(0.015625)"/>
      <path id="DejaVuSans-3a" d="M 750 794 
L 1409 794 
L 1409 0 
L 750 0 
L 750 794 
z
M 750 3309 
L 1409 3309 
L 1409 2516 
L 750 2516 
L 750 3309 
z
" transform="scale(0.015625)"/>
     </defs>
     <use xlink:href="#DejaVuSans-44"/>
     <use xlink:href="#DejaVuSans-69" x="77.001953"/>
     <use xlink:href="#DejaVuSans-73" x="104.785156"/>
     <use xlink:href="#DejaVuSans-74" x="156.884766"/>
     <use xlink:href="#DejaVuSans-72" x="196.09375"/>
     <use xlink:href="#DejaVuSans-69" x="237.207031"/>
     <use xlink:href="#DejaVuSans-62" x="264.990234"/>
     <use xlink:href="#DejaVuSans-75" x="328.466797"/>
     <use xlink:href="#DejaVuSans-74" x="391.845703"/>
     <use xlink:href="#DejaVuSans-69" x="431.054688"/>
     <use xlink:href="#DejaVuSans-6f" x="458.837891"/>
     <use xlink:href="#DejaVuSans-6e" x="520.019531"/>
     <use xlink:href="#DejaVuSans-20" x="583.398438"/>
     <use xlink:href="#DejaVuSans-53" x="615.185547"/>
     <use xlink:href="#DejaVuSans-68" x="678.662109"/>
     <use xlink:href="#DejaVuSans-61" x="742.041016"/>
     <use xlink:href="#DejaVuSans-70" x="803.320312"/>
     <use xlink:href="#DejaVuSans-65" x="866.796875"/>
     <use xlink:href="#DejaVuSans-3a" x="928.320312"/>
     <use xlink:href="#DejaVuSans-20" x="962.011719"/>
     <use xlink:href="#DejaVuSans-49" x="993.798828"/>
     <use xlink:href="#DejaVuSans-6e" x="1023.291016"/>
     <use xlink:href="#DejaVuSans-70" x="1086.669922"/>
     <use xlink:href="#DejaVuSans-75" x="1150.146484"/>
     <use xlink:href="#DejaVuSans-74" x="1213.525391"/>
     <use xlink:href="#DejaVuSans-20" x="1252.734375"/>
     <use xlink:href="#DejaVuSans-54" x="1284.521484"/>
     <use xlink:href="#DejaVuSans-6f" x="1328.605469"/>
     <use xlink:href="#DejaVuSans-6b" x="1389.787109"/>
     <use xlink:href="#DejaVuSans-65" x="1444.072266"/>
     <use xlink:href="#DejaVuSans-6e" x="1505.595703"/>
     <use xlink:href="#DejaVuSans-73" x="1568.974609"/>
     <use xlink:href="#DejaVuSans-20" x="1621.074219"/>
     <use xlink:href="#DejaVuSans-28" x="1652.861328"/>
     <use xlink:href="#DejaVuSans-63" x="1691.875"/>
     <use xlink:href="#DejaVuSans-6f" x="1746.855469"/>
     <use xlink:href="#DejaVuSans-75" x="1808.037109"/>
     <use xlink:href="#DejaVuSans-6e" x="1871.416016"/>
     <use xlink:href="#DejaVuSans-74" x="1934.794922"/>
     <use xlink:href="#DejaVuSans-29" x="1974.003906"/>
    </g>
   </g>
  </g>
 </g>
 <defs>
  <clipPath id="pd3093dc57c">
   <rect x="68.320938" y="22.318125" width="446.4" height="332.64"/>
  </clipPath>
 </defs>
</svg>
