<?xml version="1.0" encoding="utf-8" standalone="no"?>
<!DOCTYPE svg PUBLIC "-//W3C//DTD SVG 1.1//EN"
  "http://www.w3.org/Graphics/SVG/1.1/DTD/svg11.dtd">
<svg xmlns:xlink="http://www.w3.org/1999/xlink" width="502.833437pt" height="394.782188pt" viewBox="0 0 502.833437 394.782188" xmlns="http://www.w3.org/2000/svg" version="1.1">
 <metadata>
  <rdf:RDF xmlns:dc="http://purl.org/dc/elements/1.1/" xmlns:cc="http://creativecommons.org/ns#" xmlns:rdf="http://www.w3.org/1999/02/22-rdf-syntax-ns#">
   <cc:Work>
    <dc:type rdf:resource="http://purl.org/dc/dcmitype/StillImage"/>
    <dc:date>2025-11-03T08:19:35.047379</dc:date>
    <dc:format>image/svg+xml</dc:format>
    <dc:creator>
     <cc:Agent>
      <dc:title>Matplotlib v3.8.0, https://matplotlib.org/</dc:title>
     </cc:Agent>
    </dc:creator>
   </cc:Work>
  </rdf:RDF>
 </metadata>
 <defs>
  <style type="text/css">*{stroke-linejoin: round; stroke-linecap: butt}</style>
 </defs>
 <g id="figure_1">
  <g id="patch_1">
   <path d="M 0 394.782188 
L 502.833437 394.782188 
L 502.833437 -0 
L 0 -0 
z
" style="fill: #ffffff"/>
  </g>
  <g id="axes_1">
   <g id="patch_2">
    <path d="M 49.233438 354.958125 
L 495.633438 354.958125 
L 495.633438 22.318125 
L 49.233438 22.318125 
z
" style="fill: #ffffff"/>
   </g>
   <g id="matplotlib.axis_1">
    <g id="xtick_1">
     <g id="line2d_1">
      <defs>
       <path id="m2d412d5512" d="M 0 0 
L 0 4.8 
" style="stroke: #000000"/>
      </defs>
      <g>
       <use xlink:href="#m2d412d5512" x="123.633437" y="354.958125" style="stroke: #000000"/>
      </g>
     </g>
     <g id="text_1">
      <!-- ghspec -->
      <g transform="translate(105.685781 370.856562) scale(0.1 -0.1)">
       <defs>
        <path id="DejaVuSans-67" d="M 2906 1791 
Q 2906 2416 2648 2759 
Q 2391 3103 1925 3103 
Q 1463 3103 1205 2759 
Q 947 2416 947 1791 
Q 947 1169 1205 825 
Q 1463 481 1925 481 
Q 2391 481 2648 825 
Q 2906 1169 2906 1791 
z
M 3481 434 
Q 3481 -459 3084 -895 
Q 2688 -1331 1869 -1331 
Q 1566 -1331 1297 -1286 
Q 1028 -1241 775 -1147 
L 775 -588 
Q 1028 -725 1275 -790 
Q 1522 -856 1778 -856 
Q 2344 -856 2625 -561 
Q 2906 -266 2906 331 
L 2906 616 
Q 2728 306 2450 153 
Q 2172 0 1784 0 
Q 1141 0 747 490 
Q 353 981 353 1791 
Q 353 2603 747 3093 
Q 1141 3584 1784 3584 
Q 2172 3584 2450 3431 
Q 2728 3278 2906 2969 
L 2906 3500 
L 3481 3500 
L 3481 434 
z
" transform="scale(0.015625)"/>
        <path id="DejaVuSans-68" d="M 3513 2113 
L 3513 0 
L 2938 0 
L 2938 2094 
Q 2938 2591 2744 2837 
Q 2550 3084 2163 3084 
Q 1697 3084 1428 2787 
Q 1159 2491 1159 1978 
L 1159 0 
L 581 0 
L 581 4863 
L 1159 4863 
L 1159 2956 
Q 1366 3272 1645 3428 
Q 1925 3584 2291 3584 
Q 2894 3584 3203 3211 
Q 3513 2838 3513 2113 
z
" transform="scale(0.015625)"/>
        <path id="DejaVuSans-73" d="M 2834 3397 
L 2834 2853 
Q 2591 2978 2328 3040 
Q 2066 3103 1784 3103 
Q 1356 3103 1142 2972 
Q 928 2841 928 2578 
Q 928 2378 1081 2264 
Q 1234 2150 1697 2047 
L 1894 2003 
Q 2506 1872 2764 1633 
Q 3022 1394 3022 966 
Q 3022 478 2636 193 
Q 2250 -91 1575 -91 
Q 1294 -91 989 -36 
Q 684 19 347 128 
L 347 722 
Q 666 556 975 473 
Q 1284 391 1588 391 
Q 1994 391 2212 530 
Q 2431 669 2431 922 
Q 2431 1156 2273 1281 
Q 2116 1406 1581 1522 
L 1381 1569 
Q 847 1681 609 1914 
Q 372 2147 372 2553 
Q 372 3047 722 3315 
Q 1072 3584 1716 3584 
Q 2034 3584 2315 3537 
Q 2597 3491 2834 3397 
z
" transform="scale(0.015625)"/>
        <path id="DejaVuSans-70" d="M 1159 525 
L 1159 -1331 
L 581 -1331 
L 581 3500 
L 1159 3500 
L 1159 2969 
Q 1341 3281 1617 3432 
Q 1894 3584 2278 3584 
Q 2916 3584 3314 3078 
Q 3713 2572 3713 1747 
Q 3713 922 3314 415 
Q 2916 -91 2278 -91 
Q 1894 -91 1617 61 
Q 1341 213 1159 525 
z
M 3116 1747 
Q 3116 2381 2855 2742 
Q 2594 3103 2138 3103 
Q 1681 3103 1420 2742 
Q 1159 2381 1159 1747 
Q 1159 1113 1420 752 
Q 1681 391 2138 391 
Q 2594 391 2855 752 
Q 3116 1113 3116 1747 
z
" transform="scale(0.015625)"/>
        <path id="DejaVuSans-65" d="M 3597 1894 
L 3597 1613 
L 953 1613 
Q 991 1019 1311 708 
Q 1631 397 2203 397 
Q 2534 397 2845 478 
Q 3156 559 3463 722 
L 3463 178 
Q 3153 47 2828 -22 
Q 2503 -91 2169 -91 
Q 1331 -91 842 396 
Q 353 884 353 1716 
Q 353 2575 817 3079 
Q 1281 3584 2069 3584 
Q 2775 3584 3186 3129 
Q 3597 2675 3597 1894 
z
M 3022 2063 
Q 3016 2534 2758 2815 
Q 2500 3097 2075 3097 
Q 1594 3097 1305 2825 
Q 1016 2553 972 2059 
L 3022 2063 
z
" transform="scale(0.015625)"/>
        <path id="DejaVuSans-63" d="M 3122 3366 
L 3122 2828 
Q 2878 2963 2633 3030 
Q 2388 3097 2138 3097 
Q 1578 3097 1268 2742 
Q 959 2388 959 1747 
Q 959 1106 1268 751 
Q 1578 397 2138 397 
Q 2388 397 2633 464 
Q 2878 531 3122 666 
L 3122 134 
Q 2881 22 2623 -34 
Q 2366 -91 2075 -91 
Q 1284 -91 818 406 
Q 353 903 353 1747 
Q 353 2603 823 3093 
Q 1294 3584 2113 3584 
Q 2378 3584 2631 3529 
Q 2884 3475 3122 3366 
z
" transform="scale(0.015625)"/>
       </defs>
       <use xlink:href="#DejaVuSans-67"/>
       <use xlink:href="#DejaVuSans-68" x="63.476562"/>
       <use xlink:href="#DejaVuSans-73" x="126.855469"/>
       <use xlink:href="#DejaVuSans-70" x="178.955078"/>
       <use xlink:href="#DejaVuSans-65" x="242.431641"/>
       <use xlink:href="#DejaVuSans-63" x="303.955078"/>
      </g>
     </g>
    </g>
    <g id="xtick_2">
     <g id="line2d_2">
      <g>
       <use xlink:href="#m2d412d5512" x="272.433437" y="354.958125" style="stroke: #000000"/>
      </g>
     </g>
     <g id="text_2">
      <!-- baes -->
      <g transform="translate(260.513906 370.856562) scale(0.1 -0.1)">
       <defs>
        <path id="DejaVuSans-62" d="M 3116 1747 
Q 3116 2381 2855 2742 
Q 2594 3103 2138 3103 
Q 1681 3103 1420 2742 
Q 1159 2381 1159 1747 
Q 1159 1113 1420 752 
Q 1681 391 2138 391 
Q 2594 391 2855 752 
Q 3116 1113 3116 1747 
z
M 1159 2969 
Q 1341 3281 1617 3432 
Q 1894 3584 2278 3584 
Q 2916 3584 3314 3078 
Q 3713 2572 3713 1747 
Q 3713 922 3314 415 
Q 2916 -91 2278 -91 
Q 1894 -91 1617 61 
Q 1341 213 1159 525 
L 1159 0 
L 581 0 
L 581 4863 
L 1159 4863 
L 1159 2969 
z
" transform="scale(0.015625)"/>
        <path id="DejaVuSans-61" d="M 2194 1759 
Q 1497 1759 1228 1600 
Q 959 1441 959 1056 
Q 959 750 1161 570 
Q 1363 391 1709 391 
Q 2188 391 2477 730 
Q 2766 1069 2766 1631 
L 2766 1759 
L 2194 1759 
z
M 3341 1997 
L 3341 0 
L 2766 0 
L 2766 531 
Q 2569 213 2275 61 
Q 1981 -91 1556 -91 
Q 1019 -91 701 211 
Q 384 513 384 1019 
Q 384 1609 779 1909 
Q 1175 2209 1959 2209 
L 2766 2209 
L 2766 2266 
Q 2766 2663 2505 2880 
Q 2244 3097 1772 3097 
Q 1472 3097 1187 3025 
Q 903 2953 641 2809 
L 641 3341 
Q 956 3463 1253 3523 
Q 1550 3584 1831 3584 
Q 2591 3584 2966 3190 
Q 3341 2797 3341 1997 
z
" transform="scale(0.015625)"/>
       </defs>
       <use xlink:href="#DejaVuSans-62"/>
       <use xlink:href="#DejaVuSans-61" x="63.476562"/>
       <use xlink:href="#DejaVuSans-65" x="124.755859"/>
       <use xlink:href="#DejaVuSans-73" x="186.279297"/>
      </g>
     </g>
    </g>
    <g id="xtick_3">
     <g id="line2d_3">
      <g>
       <use xlink:href="#m2d412d5512" x="421.233437" y="354.958125" style="stroke: #000000"/>
      </g>
     </g>
     <g id="text_3">
      <!-- chatdev -->
      <g transform="translate(401.081094 370.856562) scale(0.1 -0.1)">
       <defs>
        <path id="DejaVuSans-74" d="M 1172 4494 
L 1172 3500 
L 2356 3500 
L 2356 3053 
L 1172 3053 
L 1172 1153 
Q 1172 725 1289 603 
Q 1406 481 1766 481 
L 2356 481 
L 2356 0 
L 1766 0 
Q 1100 0 847 248 
Q 594 497 594 1153 
L 594 3053 
L 172 3053 
L 172 3500 
L 594 3500 
L 594 4494 
L 1172 4494 
z
" transform="scale(0.015625)"/>
        <path id="DejaVuSans-64" d="M 2906 2969 
L 2906 4863 
L 3481 4863 
L 3481 0 
L 2906 0 
L 2906 525 
Q 2725 213 2448 61 
Q 2172 -91 1784 -91 
Q 1150 -91 751 415 
Q 353 922 353 1747 
Q 353 2572 751 3078 
Q 1150 3584 1784 3584 
Q 2172 3584 2448 3432 
Q 2725 3281 2906 2969 
z
M 947 1747 
Q 947 1113 1208 752 
Q 1469 391 1925 391 
Q 2381 391 2643 752 
Q 2906 1113 2906 1747 
Q 2906 2381 2643 2742 
Q 2381 3103 1925 3103 
Q 1469 3103 1208 2742 
Q 947 2381 947 1747 
z
" transform="scale(0.015625)"/>
        <path id="DejaVuSans-76" d="M 191 3500 
L 800 3500 
L 1894 563 
L 2988 3500 
L 3597 3500 
L 2284 0 
L 1503 0 
L 191 3500 
z
" transform="scale(0.015625)"/>
       </defs>
       <use xlink:href="#DejaVuSans-63"/>
       <use xlink:href="#DejaVuSans-68" x="54.980469"/>
       <use xlink:href="#DejaVuSans-61" x="118.359375"/>
       <use xlink:href="#DejaVuSans-74" x="179.638672"/>
       <use xlink:href="#DejaVuSans-64" x="218.847656"/>
       <use xlink:href="#DejaVuSans-65" x="282.324219"/>
       <use xlink:href="#DejaVuSans-76" x="343.847656"/>
      </g>
     </g>
    </g>
    <g id="text_4">
     <!-- Framework -->
     <g transform="translate(241.986641 385.294531) scale(0.11 -0.11)">
      <defs>
       <path id="DejaVuSans-46" d="M 628 4666 
L 3309 4666 
L 3309 4134 
L 1259 4134 
L 1259 2759 
L 3109 2759 
L 3109 2228 
L 1259 2228 
L 1259 0 
L 628 0 
L 628 4666 
z
" transform="scale(0.015625)"/>
       <path id="DejaVuSans-72" d="M 2631 2963 
Q 2534 3019 2420 3045 
Q 2306 3072 2169 3072 
Q 1681 3072 1420 2755 
Q 1159 2438 1159 1844 
L 1159 0 
L 581 0 
L 581 3500 
L 1159 3500 
L 1159 2956 
Q 1341 3275 1631 3429 
Q 1922 3584 2338 3584 
Q 2397 3584 2469 3576 
Q 2541 3569 2628 3553 
L 2631 2963 
z
" transform="scale(0.015625)"/>
       <path id="DejaVuSans-6d" d="M 3328 2828 
Q 3544 3216 3844 3400 
Q 4144 3584 4550 3584 
Q 5097 3584 5394 3201 
Q 5691 2819 5691 2113 
L 5691 0 
L 5113 0 
L 5113 2094 
Q 5113 2597 4934 2840 
Q 4756 3084 4391 3084 
Q 3944 3084 3684 2787 
Q 3425 2491 3425 1978 
L 3425 0 
L 2847 0 
L 2847 2094 
Q 2847 2600 2669 2842 
Q 2491 3084 2119 3084 
Q 1678 3084 1418 2786 
Q 1159 2488 1159 1978 
L 1159 0 
L 581 0 
L 581 3500 
L 1159 3500 
L 1159 2956 
Q 1356 3278 1631 3431 
Q 1906 3584 2284 3584 
Q 2666 3584 2933 3390 
Q 3200 3197 3328 2828 
z
" transform="scale(0.015625)"/>
       <path id="DejaVuSans-77" d="M 269 3500 
L 844 3500 
L 1563 769 
L 2278 3500 
L 2956 3500 
L 3675 769 
L 4391 3500 
L 4966 3500 
L 4050 0 
L 3372 0 
L 2619 2869 
L 1863 0 
L 1184 0 
L 269 3500 
z
" transform="scale(0.015625)"/>
       <path id="DejaVuSans-6f" d="M 1959 3097 
Q 1497 3097 1228 2736 
Q 959 2375 959 1747 
Q 959 1119 1226 758 
Q 1494 397 1959 397 
Q 2419 397 2687 759 
Q 2956 1122 2956 1747 
Q 2956 2369 2687 2733 
Q 2419 3097 1959 3097 
z
M 1959 3584 
Q 2709 3584 3137 3096 
Q 3566 2609 3566 1747 
Q 3566 888 3137 398 
Q 2709 -91 1959 -91 
Q 1206 -91 779 398 
Q 353 888 353 1747 
Q 353 2609 779 3096 
Q 1206 3584 1959 3584 
z
" transform="scale(0.015625)"/>
       <path id="DejaVuSans-6b" d="M 581 4863 
L 1159 4863 
L 1159 1991 
L 2875 3500 
L 3609 3500 
L 1753 1863 
L 3688 0 
L 2938 0 
L 1159 1709 
L 1159 0 
L 581 0 
L 581 4863 
z
" transform="scale(0.015625)"/>
      </defs>
      <use xlink:href="#DejaVuSans-46"/>
      <use xlink:href="#DejaVuSans-72" x="50.269531"/>
      <use xlink:href="#DejaVuSans-61" x="91.382812"/>
      <use xlink:href="#DejaVuSans-6d" x="152.662109"/>
      <use xlink:href="#DejaVuSans-65" x="250.074219"/>
      <use xlink:href="#DejaVuSans-77" x="311.597656"/>
      <use xlink:href="#DejaVuSans-6f" x="393.384766"/>
      <use xlink:href="#DejaVuSans-72" x="454.566406"/>
      <use xlink:href="#DejaVuSans-6b" x="495.679688"/>
     </g>
    </g>
   </g>
   <g id="matplotlib.axis_2">
    <g id="ytick_1">
     <g id="line2d_4">
      <path d="M 49.233438 326.69735 
L 495.633438 326.69735 
" clip-path="url(#p8e0f31bffb)" style="fill: none; stroke: #b0b0b0; stroke-opacity: 0.3; stroke-width: 0.8; stroke-linecap: square"/>
     </g>
     <g id="line2d_5">
      <defs>
       <path id="m4d9eea4f57" d="M 0 0 
L -4.8 0 
" style="stroke: #000000"/>
      </defs>
      <g>
       <use xlink:href="#m4d9eea4f57" x="49.233438" y="326.69735" style="stroke: #000000"/>
      </g>
     </g>
     <g id="text_5">
      <!-- 25 -->
      <g transform="translate(28.208438 330.496569) scale(0.1 -0.1)">
       <defs>
        <path id="DejaVuSans-32" d="M 1228 531 
L 3431 531 
L 3431 0 
L 469 0 
L 469 531 
Q 828 903 1448 1529 
Q 2069 2156 2228 2338 
Q 2531 2678 2651 2914 
Q 2772 3150 2772 3378 
Q 2772 3750 2511 3984 
Q 2250 4219 1831 4219 
Q 1534 4219 1204 4116 
Q 875 4013 500 3803 
L 500 4441 
Q 881 4594 1212 4672 
Q 1544 4750 1819 4750 
Q 2544 4750 2975 4387 
Q 3406 4025 3406 3419 
Q 3406 3131 3298 2873 
Q 3191 2616 2906 2266 
Q 2828 2175 2409 1742 
Q 1991 1309 1228 531 
z
" transform="scale(0.015625)"/>
        <path id="DejaVuSans-35" d="M 691 4666 
L 3169 4666 
L 3169 4134 
L 1269 4134 
L 1269 2991 
Q 1406 3038 1543 3061 
Q 1681 3084 1819 3084 
Q 2600 3084 3056 2656 
Q 3513 2228 3513 1497 
Q 3513 744 3044 326 
Q 2575 -91 1722 -91 
Q 1428 -91 1123 -41 
Q 819 9 494 109 
L 494 744 
Q 775 591 1075 516 
Q 1375 441 1709 441 
Q 2250 441 2565 725 
Q 2881 1009 2881 1497 
Q 2881 1984 2565 2268 
Q 2250 2553 1709 2553 
Q 1456 2553 1204 2497 
Q 953 2441 691 2322 
L 691 4666 
z
" transform="scale(0.015625)"/>
       </defs>
       <use xlink:href="#DejaVuSans-32"/>
       <use xlink:href="#DejaVuSans-35" x="63.623047"/>
      </g>
     </g>
    </g>
    <g id="ytick_2">
     <g id="line2d_6">
      <path d="M 49.233438 282.322159 
L 495.633438 282.322159 
" clip-path="url(#p8e0f31bffb)" style="fill: none; stroke: #b0b0b0; stroke-opacity: 0.3; stroke-width: 0.8; stroke-linecap: square"/>
     </g>
     <g id="line2d_7">
      <g>
       <use xlink:href="#m4d9eea4f57" x="49.233438" y="282.322159" style="stroke: #000000"/>
      </g>
     </g>
     <g id="text_6">
      <!-- 50 -->
      <g transform="translate(28.208438 286.121377) scale(0.1 -0.1)">
       <defs>
        <path id="DejaVuSans-30" d="M 2034 4250 
Q 1547 4250 1301 3770 
Q 1056 3291 1056 2328 
Q 1056 1369 1301 889 
Q 1547 409 2034 409 
Q 2525 409 2770 889 
Q 3016 1369 3016 2328 
Q 3016 3291 2770 3770 
Q 2525 4250 2034 4250 
z
M 2034 4750 
Q 2819 4750 3233 4129 
Q 3647 3509 3647 2328 
Q 3647 1150 3233 529 
Q 2819 -91 2034 -91 
Q 1250 -91 836 529 
Q 422 1150 422 2328 
Q 422 3509 836 4129 
Q 1250 4750 2034 4750 
z
" transform="scale(0.015625)"/>
       </defs>
       <use xlink:href="#DejaVuSans-35"/>
       <use xlink:href="#DejaVuSans-30" x="63.623047"/>
      </g>
     </g>
    </g>
    <g id="ytick_3">
     <g id="line2d_8">
      <path d="M 49.233438 237.946967 
L 495.633438 237.946967 
" clip-path="url(#p8e0f31bffb)" style="fill: none; stroke: #b0b0b0; stroke-opacity: 0.3; stroke-width: 0.8; stroke-linecap: square"/>
     </g>
     <g id="line2d_9">
      <g>
       <use xlink:href="#m4d9eea4f57" x="49.233438" y="237.946967" style="stroke: #000000"/>
      </g>
     </g>
     <g id="text_7">
      <!-- 75 -->
      <g transform="translate(28.208438 241.746186) scale(0.1 -0.1)">
       <defs>
        <path id="DejaVuSans-37" d="M 525 4666 
L 3525 4666 
L 3525 4397 
L 1831 0 
L 1172 0 
L 2766 4134 
L 525 4134 
L 525 4666 
z
" transform="scale(0.015625)"/>
       </defs>
       <use xlink:href="#DejaVuSans-37"/>
       <use xlink:href="#DejaVuSans-35" x="63.623047"/>
      </g>
     </g>
    </g>
    <g id="ytick_4">
     <g id="line2d_10">
      <path d="M 49.233438 193.571776 
L 495.633438 193.571776 
" clip-path="url(#p8e0f31bffb)" style="fill: none; stroke: #b0b0b0; stroke-opacity: 0.3; stroke-width: 0.8; stroke-linecap: square"/>
     </g>
     <g id="line2d_11">
      <g>
       <use xlink:href="#m4d9eea4f57" x="49.233438" y="193.571776" style="stroke: #000000"/>
      </g>
     </g>
     <g id="text_8">
      <!-- 100 -->
      <g transform="translate(21.845938 197.370995) scale(0.1 -0.1)">
       <defs>
        <path id="DejaVuSans-31" d="M 794 531 
L 1825 531 
L 1825 4091 
L 703 3866 
L 703 4441 
L 1819 4666 
L 2450 4666 
L 2450 531 
L 3481 531 
L 3481 0 
L 794 0 
L 794 531 
z
" transform="scale(0.015625)"/>
       </defs>
       <use xlink:href="#DejaVuSans-31"/>
       <use xlink:href="#DejaVuSans-30" x="63.623047"/>
       <use xlink:href="#DejaVuSans-30" x="127.246094"/>
      </g>
     </g>
    </g>
    <g id="ytick_5">
     <g id="line2d_12">
      <path d="M 49.233438 149.196584 
L 495.633438 149.196584 
" clip-path="url(#p8e0f31bffb)" style="fill: none; stroke: #b0b0b0; stroke-opacity: 0.3; stroke-width: 0.8; stroke-linecap: square"/>
     </g>
     <g id="line2d_13">
      <g>
       <use xlink:href="#m4d9eea4f57" x="49.233438" y="149.196584" style="stroke: #000000"/>
      </g>
     </g>
     <g id="text_9">
      <!-- 125 -->
      <g transform="translate(21.845938 152.995803) scale(0.1 -0.1)">
       <use xlink:href="#DejaVuSans-31"/>
       <use xlink:href="#DejaVuSans-32" x="63.623047"/>
       <use xlink:href="#DejaVuSans-35" x="127.246094"/>
      </g>
     </g>
    </g>
    <g id="ytick_6">
     <g id="line2d_14">
      <path d="M 49.233438 104.821393 
L 495.633438 104.821393 
" clip-path="url(#p8e0f31bffb)" style="fill: none; stroke: #b0b0b0; stroke-opacity: 0.3; stroke-width: 0.8; stroke-linecap: square"/>
     </g>
     <g id="line2d_15">
      <g>
       <use xlink:href="#m4d9eea4f57" x="49.233438" y="104.821393" style="stroke: #000000"/>
      </g>
     </g>
     <g id="text_10">
      <!-- 150 -->
      <g transform="translate(21.845938 108.620612) scale(0.1 -0.1)">
       <use xlink:href="#DejaVuSans-31"/>
       <use xlink:href="#DejaVuSans-35" x="63.623047"/>
       <use xlink:href="#DejaVuSans-30" x="127.246094"/>
      </g>
     </g>
    </g>
    <g id="ytick_7">
     <g id="line2d_16">
      <path d="M 49.233438 60.446202 
L 495.633438 60.446202 
" clip-path="url(#p8e0f31bffb)" style="fill: none; stroke: #b0b0b0; stroke-opacity: 0.3; stroke-width: 0.8; stroke-linecap: square"/>
     </g>
     <g id="line2d_17">
      <g>
       <use xlink:href="#m4d9eea4f57" x="49.233438" y="60.446202" style="stroke: #000000"/>
      </g>
     </g>
     <g id="text_11">
      <!-- 175 -->
      <g transform="translate(21.845938 64.24542) scale(0.1 -0.1)">
       <use xlink:href="#DejaVuSans-31"/>
       <use xlink:href="#DejaVuSans-37" x="63.623047"/>
       <use xlink:href="#DejaVuSans-35" x="127.246094"/>
      </g>
     </g>
    </g>
    <g id="text_12">
     <!-- API Calls (count) -->
     <g transform="translate(15.558281 233.775938) rotate(-90) scale(0.11 -0.11)">
      <defs>
       <path id="DejaVuSans-41" d="M 2188 4044 
L 1331 1722 
L 3047 1722 
L 2188 4044 
z
M 1831 4666 
L 2547 4666 
L 4325 0 
L 3669 0 
L 3244 1197 
L 1141 1197 
L 716 0 
L 50 0 
L 1831 4666 
z
" transform="scale(0.015625)"/>
       <path id="DejaVuSans-50" d="M 1259 4147 
L 1259 2394 
L 2053 2394 
Q 2494 2394 2734 2622 
Q 2975 2850 2975 3272 
Q 2975 3691 2734 3919 
Q 2494 4147 2053 4147 
L 1259 4147 
z
M 628 4666 
L 2053 4666 
Q 2838 4666 3239 4311 
Q 3641 3956 3641 3272 
Q 3641 2581 3239 2228 
Q 2838 1875 2053 1875 
L 1259 1875 
L 1259 0 
L 628 0 
L 628 4666 
z
" transform="scale(0.015625)"/>
       <path id="DejaVuSans-49" d="M 628 4666 
L 1259 4666 
L 1259 0 
L 628 0 
L 628 4666 
z
" transform="scale(0.015625)"/>
       <path id="DejaVuSans-20" transform="scale(0.015625)"/>
       <path id="DejaVuSans-43" d="M 4122 4306 
L 4122 3641 
Q 3803 3938 3442 4084 
Q 3081 4231 2675 4231 
Q 1875 4231 1450 3742 
Q 1025 3253 1025 2328 
Q 1025 1406 1450 917 
Q 1875 428 2675 428 
Q 3081 428 3442 575 
Q 3803 722 4122 1019 
L 4122 359 
Q 3791 134 3420 21 
Q 3050 -91 2638 -91 
Q 1578 -91 968 557 
Q 359 1206 359 2328 
Q 359 3453 968 4101 
Q 1578 4750 2638 4750 
Q 3056 4750 3426 4639 
Q 3797 4528 4122 4306 
z
" transform="scale(0.015625)"/>
       <path id="DejaVuSans-6c" d="M 603 4863 
L 1178 4863 
L 1178 0 
L 603 0 
L 603 4863 
z
" transform="scale(0.015625)"/>
       <path id="DejaVuSans-28" d="M 1984 4856 
Q 1566 4138 1362 3434 
Q 1159 2731 1159 2009 
Q 1159 1288 1364 580 
Q 1569 -128 1984 -844 
L 1484 -844 
Q 1016 -109 783 600 
Q 550 1309 550 2009 
Q 550 2706 781 3412 
Q 1013 4119 1484 4856 
L 1984 4856 
z
" transform="scale(0.015625)"/>
       <path id="DejaVuSans-75" d="M 544 1381 
L 544 3500 
L 1119 3500 
L 1119 1403 
Q 1119 906 1312 657 
Q 1506 409 1894 409 
Q 2359 409 2629 706 
Q 2900 1003 2900 1516 
L 2900 3500 
L 3475 3500 
L 3475 0 
L 2900 0 
L 2900 538 
Q 2691 219 2414 64 
Q 2138 -91 1772 -91 
Q 1169 -91 856 284 
Q 544 659 544 1381 
z
M 1991 3584 
L 1991 3584 
z
" transform="scale(0.015625)"/>
       <path id="DejaVuSans-6e" d="M 3513 2113 
L 3513 0 
L 2938 0 
L 2938 2094 
Q 2938 2591 2744 2837 
Q 2550 3084 2163 3084 
Q 1697 3084 1428 2787 
Q 1159 2491 1159 1978 
L 1159 0 
L 581 0 
L 581 3500 
L 1159 3500 
L 1159 2956 
Q 1366 3272 1645 3428 
Q 1925 3584 2291 3584 
Q 2894 3584 3203 3211 
Q 3513 2838 3513 2113 
z
" transform="scale(0.015625)"/>
       <path id="DejaVuSans-29" d="M 513 4856 
L 1013 4856 
Q 1481 4119 1714 3412 
Q 1947 2706 1947 2009 
Q 1947 1309 1714 600 
Q 1481 -109 1013 -844 
L 513 -844 
Q 928 -128 1133 580 
Q 1338 1288 1338 2009 
Q 1338 2731 1133 3434 
Q 928 4138 513 4856 
z
" transform="scale(0.015625)"/>
      </defs>
      <use xlink:href="#DejaVuSans-41"/>
      <use xlink:href="#DejaVuSans-50" x="68.408203"/>
      <use xlink:href="#DejaVuSans-49" x="128.710938"/>
      <use xlink:href="#DejaVuSans-20" x="158.203125"/>
      <use xlink:href="#DejaVuSans-43" x="189.990234"/>
      <use xlink:href="#DejaVuSans-61" x="259.814453"/>
      <use xlink:href="#DejaVuSans-6c" x="321.09375"/>
      <use xlink:href="#DejaVuSans-6c" x="348.876953"/>
      <use xlink:href="#DejaVuSans-73" x="376.660156"/>
      <use xlink:href="#DejaVuSans-20" x="428.759766"/>
      <use xlink:href="#DejaVuSans-28" x="460.546875"/>
      <use xlink:href="#DejaVuSans-63" x="499.560547"/>
      <use xlink:href="#DejaVuSans-6f" x="554.541016"/>
      <use xlink:href="#DejaVuSans-75" x="615.722656"/>
      <use xlink:href="#DejaVuSans-6e" x="679.101562"/>
      <use xlink:href="#DejaVuSans-74" x="742.480469"/>
      <use xlink:href="#DejaVuSans-29" x="781.689453"/>
     </g>
    </g>
   </g>
   <g id="PolyCollection_1">
    <defs>
     <path id="me6328367f8" d="M 123.640471 -133.696451 
L 123.626404 -133.696451 
L 123.623567 -134.809358 
L 123.619824 -135.922265 
L 123.614963 -137.035173 
L 123.608737 -138.14808 
L 123.600864 -139.260987 
L 123.59101 -140.373894 
L 123.578787 -141.486802 
L 123.563741 -142.599709 
L 123.545348 -143.712616 
L 123.523015 -144.825523 
L 123.496087 -145.93843 
L 123.463877 -147.051338 
L 123.425707 -148.164245 
L 123.380961 -149.277152 
L 123.329159 -150.390059 
L 123.270034 -151.502966 
L 123.203606 -152.615874 
L 123.130246 -153.728781 
L 123.050713 -154.841688 
L 122.966159 -155.954595 
L 122.878089 -157.067503 
L 122.788294 -158.18041 
L 122.698732 -159.293317 
L 122.611404 -160.406224 
L 122.528203 -161.519131 
L 122.450791 -162.632039 
L 122.380483 -163.744946 
L 122.31818 -164.857853 
L 122.264337 -165.97076 
L 122.218982 -167.083667 
L 122.181764 -168.196575 
L 122.152046 -169.309482 
L 122.129002 -170.422389 
L 122.111731 -171.535296 
L 122.09937 -172.648204 
L 122.09118 -173.761111 
L 122.086629 -174.874018 
L 122.085438 -175.986925 
L 122.087595 -177.099832 
L 122.093335 -178.21274 
L 122.103089 -179.325647 
L 122.117393 -180.438554 
L 122.136782 -181.551461 
L 122.161669 -182.664368 
L 122.192231 -183.777276 
L 122.22832 -184.890183 
L 122.269414 -186.00309 
L 122.314619 -187.115997 
L 122.362725 -188.228905 
L 122.412307 -189.341812 
L 122.461872 -190.454719 
L 122.51001 -191.567626 
L 122.555541 -192.680533 
L 122.597628 -193.793441 
L 122.635846 -194.906348 
L 122.670192 -196.019255 
L 122.701039 -197.132162 
L 122.72905 -198.245069 
L 122.755054 -199.357977 
L 122.779921 -200.470884 
L 122.804445 -201.583791 
L 122.829254 -202.696698 
L 122.854753 -203.809606 
L 122.881115 -204.922513 
L 122.9083 -206.03542 
L 122.936117 -207.148327 
L 122.964289 -208.261234 
L 122.992535 -209.374142 
L 123.020635 -210.487049 
L 123.048476 -211.599956 
L 123.076076 -212.712863 
L 123.103578 -213.82577 
L 123.131207 -214.938678 
L 123.159227 -216.051585 
L 123.18787 -217.164492 
L 123.217286 -218.277399 
L 123.247494 -219.390306 
L 123.278362 -220.503214 
L 123.309614 -221.616121 
L 123.340851 -222.729028 
L 123.371604 -223.841935 
L 123.401383 -224.954843 
L 123.429732 -226.06775 
L 123.456271 -227.180657 
L 123.480727 -228.293564 
L 123.502939 -229.406471 
L 123.522856 -230.519379 
L 123.540519 -231.632286 
L 123.556032 -232.745193 
L 123.569542 -233.8581 
L 123.581214 -234.971007 
L 123.591219 -236.083915 
L 123.599717 -237.196822 
L 123.606863 -238.309729 
L 123.6128 -239.422636 
L 123.617665 -240.535544 
L 123.621588 -241.648451 
L 123.624697 -242.761358 
L 123.627113 -243.874265 
L 123.639762 -243.874265 
L 123.639762 -243.874265 
L 123.642178 -242.761358 
L 123.645287 -241.648451 
L 123.64921 -240.535544 
L 123.654075 -239.422636 
L 123.660012 -238.309729 
L 123.667158 -237.196822 
L 123.675656 -236.083915 
L 123.685661 -234.971007 
L 123.697333 -233.8581 
L 123.710843 -232.745193 
L 123.726356 -231.632286 
L 123.744019 -230.519379 
L 123.763936 -229.406471 
L 123.786148 -228.293564 
L 123.810604 -227.180657 
L 123.837143 -226.06775 
L 123.865492 -224.954843 
L 123.895271 -223.841935 
L 123.926024 -222.729028 
L 123.957261 -221.616121 
L 123.988513 -220.503214 
L 124.019381 -219.390306 
L 124.049589 -218.277399 
L 124.079005 -217.164492 
L 124.107648 -216.051585 
L 124.135668 -214.938678 
L 124.163297 -213.82577 
L 124.190799 -212.712863 
L 124.218399 -211.599956 
L 124.24624 -210.487049 
L 124.27434 -209.374142 
L 124.302586 -208.261234 
L 124.330758 -207.148327 
L 124.358575 -206.03542 
L 124.38576 -204.922513 
L 124.412122 -203.809606 
L 124.437621 -202.696698 
L 124.46243 -201.583791 
L 124.486954 -200.470884 
L 124.511821 -199.357977 
L 124.537825 -198.245069 
L 124.565836 -197.132162 
L 124.596683 -196.019255 
L 124.631029 -194.906348 
L 124.669247 -193.793441 
L 124.711334 -192.680533 
L 124.756865 -191.567626 
L 124.805003 -190.454719 
L 124.854568 -189.341812 
L 124.90415 -188.228905 
L 124.952256 -187.115997 
L 124.997461 -186.00309 
L 125.038555 -184.890183 
L 125.074644 -183.777276 
L 125.105206 -182.664368 
L 125.130093 -181.551461 
L 125.149482 -180.438554 
L 125.163786 -179.325647 
L 125.17354 -178.21274 
L 125.17928 -177.099832 
L 125.181437 -175.986925 
L 125.180246 -174.874018 
L 125.175695 -173.761111 
L 125.167505 -172.648204 
L 125.155144 -171.535296 
L 125.137873 -170.422389 
L 125.114829 -169.309482 
L 125.085111 -168.196575 
L 125.047893 -167.083667 
L 125.002538 -165.97076 
L 124.948695 -164.857853 
L 124.886392 -163.744946 
L 124.816084 -162.632039 
L 124.738672 -161.519131 
L 124.655471 -160.406224 
L 124.568143 -159.293317 
L 124.478581 -158.18041 
L 124.388786 -157.067503 
L 124.300716 -155.954595 
L 124.216162 -154.841688 
L 124.136629 -153.728781 
L 124.063269 -152.615874 
L 123.996841 -151.502966 
L 123.937716 -150.390059 
L 123.885914 -149.277152 
L 123.841168 -148.164245 
L 123.802998 -147.051338 
L 123.770788 -145.93843 
L 123.74386 -144.825523 
L 123.721527 -143.712616 
L 123.703134 -142.599709 
L 123.688088 -141.486802 
L 123.675865 -140.373894 
L 123.666011 -139.260987 
L 123.658138 -138.14808 
L 123.651912 -137.035173 
L 123.647051 -135.922265 
L 123.643308 -134.809358 
L 123.640471 -133.696451 
z
" style="stroke: #303030; stroke-width: 1.2"/>
    </defs>
    <g clip-path="url(#p8e0f31bffb)">
     <use xlink:href="#me6328367f8" x="0" y="394.782188" style="fill: #176d9c; stroke: #303030; stroke-width: 1.2"/>
    </g>
   </g>
   <g id="PolyCollection_2">
    <defs>
     <path id="m477f890cd5" d="M 280.492579 -54.944063 
L 264.374296 -54.944063 
L 261.862208 -54.99438 
L 258.838537 -55.044698 
L 255.292268 -55.095016 
L 251.244037 -55.145334 
L 246.752508 -55.195651 
L 241.918206 -55.245969 
L 236.883698 -55.296287 
L 231.829325 -55.346605 
L 226.96422 -55.396922 
L 222.512954 -55.44724 
L 218.698847 -55.497558 
L 215.725613 -55.547876 
L 213.759403 -55.598193 
L 212.913437 -55.648511 
L 213.237206 -55.698829 
L 214.711661 -55.749147 
L 217.251051 -55.799464 
L 220.711148 -55.849782 
L 224.902746 -55.9001 
L 229.608671 -55.950418 
L 234.602154 -56.000735 
L 239.664386 -56.051053 
L 244.599375 -56.101371 
L 249.244763 -56.151689 
L 253.477926 -56.202006 
L 257.217378 -56.252324 
L 260.420056 -56.302642 
L 263.075509 -56.35296 
L 265.198202 -56.403277 
L 266.819145 -56.453595 
L 267.977965 -56.503913 
L 268.716218 -56.554231 
L 269.072529 -56.604549 
L 269.07979 -56.654866 
L 268.76444 -56.705184 
L 268.147597 -56.755502 
L 267.247667 -56.80582 
L 266.083932 -56.856137 
L 264.680511 -56.906455 
L 263.070096 -56.956773 
L 261.29682 -57.007091 
L 259.417755 -57.057408 
L 257.502622 -57.107726 
L 255.631551 -57.158044 
L 253.890946 -57.208362 
L 252.367817 -57.258679 
L 251.143169 -57.308997 
L 250.285231 -57.359315 
L 249.843379 -57.409633 
L 249.843566 -57.45995 
L 250.285873 -57.510268 
L 251.14454 -57.560586 
L 252.370474 -57.610904 
L 253.895906 -57.661221 
L 255.640588 -57.711539 
L 257.518747 -57.761857 
L 259.44596 -57.812175 
L 261.345185 -57.862492 
L 263.151406 -57.91281 
L 264.814531 -57.963128 
L 266.300505 -58.013446 
L 267.590795 -58.063763 
L 268.680589 -58.114081 
L 269.576149 -58.164399 
L 270.291762 -58.214717 
L 270.846715 -58.265035 
L 271.262577 -58.315352 
L 271.561023 -58.36567 
L 271.762273 -58.415988 
L 271.88416 -58.466306 
L 271.941748 -58.516623 
L 271.947393 -58.566941 
L 271.91112 -58.617259 
L 271.841182 -58.667577 
L 271.744672 -58.717894 
L 271.62811 -58.768212 
L 271.497894 -58.81853 
L 271.360598 -58.868848 
L 271.223065 -58.919165 
L 271.092312 -58.969483 
L 270.975262 -59.019801 
L 270.878361 -59.070119 
L 270.807137 -59.120436 
L 270.765767 -59.170754 
L 270.756732 -59.221072 
L 270.780606 -59.27139 
L 270.836014 -59.321707 
L 270.919778 -59.372025 
L 271.027222 -59.422343 
L 271.152612 -59.472661 
L 271.289659 -59.522978 
L 271.432036 -59.573296 
L 271.573853 -59.623614 
L 271.710031 -59.673932 
L 271.836553 -59.72425 
L 271.950588 -59.774567 
L 272.050483 -59.824885 
L 272.135656 -59.875203 
L 272.206419 -59.925521 
L 272.660456 -59.925521 
L 272.660456 -59.925521 
L 272.731219 -59.875203 
L 272.816392 -59.824885 
L 272.916287 -59.774567 
L 273.030322 -59.72425 
L 273.156844 -59.673932 
L 273.293022 -59.623614 
L 273.434839 -59.573296 
L 273.577216 -59.522978 
L 273.714263 -59.472661 
L 273.839653 -59.422343 
L 273.947097 -59.372025 
L 274.030861 -59.321707 
L 274.086269 -59.27139 
L 274.110143 -59.221072 
L 274.101108 -59.170754 
L 274.059738 -59.120436 
L 273.988514 -59.070119 
L 273.891613 -59.019801 
L 273.774563 -58.969483 
L 273.64381 -58.919165 
L 273.506277 -58.868848 
L 273.368981 -58.81853 
L 273.238765 -58.768212 
L 273.122203 -58.717894 
L 273.025693 -58.667577 
L 272.955755 -58.617259 
L 272.919482 -58.566941 
L 272.925127 -58.516623 
L 272.982715 -58.466306 
L 273.104602 -58.415988 
L 273.305852 -58.36567 
L 273.604298 -58.315352 
L 274.02016 -58.265035 
L 274.575113 -58.214717 
L 275.290726 -58.164399 
L 276.186286 -58.114081 
L 277.27608 -58.063763 
L 278.56637 -58.013446 
L 280.052344 -57.963128 
L 281.715469 -57.91281 
L 283.52169 -57.862492 
L 285.420915 -57.812175 
L 287.348128 -57.761857 
L 289.226287 -57.711539 
L 290.970969 -57.661221 
L 292.496401 -57.610904 
L 293.722335 -57.560586 
L 294.581002 -57.510268 
L 295.023309 -57.45995 
L 295.023496 -57.409633 
L 294.581644 -57.359315 
L 293.723706 -57.308997 
L 292.499058 -57.258679 
L 290.975929 -57.208362 
L 289.235324 -57.158044 
L 287.364253 -57.107726 
L 285.44912 -57.057408 
L 283.570055 -57.007091 
L 281.796779 -56.956773 
L 280.186364 -56.906455 
L 278.782943 -56.856137 
L 277.619208 -56.80582 
L 276.719278 -56.755502 
L 276.102435 -56.705184 
L 275.787085 -56.654866 
L 275.794346 -56.604549 
L 276.150657 -56.554231 
L 276.88891 -56.503913 
L 278.04773 -56.453595 
L 279.668673 -56.403277 
L 281.791366 -56.35296 
L 284.446819 -56.302642 
L 287.649497 -56.252324 
L 291.388949 -56.202006 
L 295.622112 -56.151689 
L 300.2675 -56.101371 
L 305.202489 -56.051053 
L 310.264721 -56.000735 
L 315.258204 -55.950418 
L 319.964129 -55.9001 
L 324.155727 -55.849782 
L 327.615824 -55.799464 
L 330.155214 -55.749147 
L 331.629669 -55.698829 
L 331.953437 -55.648511 
L 331.107472 -55.598193 
L 329.141262 -55.547876 
L 326.168028 -55.497558 
L 322.353921 -55.44724 
L 317.902655 -55.396922 
L 313.03755 -55.346605 
L 307.983177 -55.296287 
L 302.948669 -55.245969 
L 298.114367 -55.195651 
L 293.622838 -55.145334 
L 289.574607 -55.095016 
L 286.028338 -55.044698 
L 283.004667 -54.99438 
L 280.492579 -54.944063 
z
" style="stroke: #303030; stroke-width: 1.2"/>
    </defs>
    <g clip-path="url(#p8e0f31bffb)">
     <use xlink:href="#m477f890cd5" x="0" y="394.782188" style="fill: #c38820; stroke: #303030; stroke-width: 1.2"/>
    </g>
   </g>
   <g id="PolyCollection_3">
    <defs>
     <path id="m03c6bec144" d="M 421.251985 -146.252197 
L 421.21489 -146.252197 
L 421.207211 -148.384438 
L 421.197111 -150.516679 
L 421.184142 -152.648921 
L 421.167892 -154.781162 
L 421.148025 -156.913403 
L 421.124334 -159.045644 
L 421.096788 -161.177885 
L 421.06557 -163.310126 
L 421.031101 -165.442367 
L 420.994035 -167.574608 
L 420.95523 -169.706849 
L 420.915692 -171.83909 
L 420.876486 -173.971331 
L 420.838635 -176.103572 
L 420.803018 -178.235813 
L 420.770267 -180.368054 
L 420.740697 -182.500295 
L 420.714274 -184.632536 
L 420.690621 -186.764778 
L 420.66908 -188.897019 
L 420.648812 -191.02926 
L 420.628928 -193.161501 
L 420.60864 -195.293742 
L 420.587393 -197.425983 
L 420.564981 -199.558224 
L 420.541614 -201.690465 
L 420.517923 -203.822706 
L 420.49491 -205.954947 
L 420.473836 -208.087188 
L 420.456066 -210.219429 
L 420.442893 -212.35167 
L 420.435364 -214.483911 
L 420.434127 -216.616152 
L 420.439338 -218.748393 
L 420.450619 -220.880635 
L 420.467097 -223.012876 
L 420.487503 -225.145117 
L 420.51032 -227.277358 
L 420.53396 -229.409599 
L 420.55695 -231.54184 
L 420.578091 -233.674081 
L 420.596569 -235.806322 
L 420.612023 -237.938563 
L 420.624539 -240.070804 
L 420.63459 -242.203045 
L 420.642933 -244.335286 
L 420.650481 -246.467527 
L 420.658159 -248.599768 
L 420.666786 -250.732009 
L 420.676979 -252.86425 
L 420.689095 -254.996492 
L 420.703217 -257.128733 
L 420.719185 -259.260974 
L 420.736648 -261.393215 
L 420.755139 -263.525456 
L 420.774159 -265.657697 
L 420.793248 -267.789938 
L 420.812043 -269.922179 
L 420.830313 -272.05442 
L 420.847971 -274.186661 
L 420.865064 -276.318902 
L 420.881743 -278.451143 
L 420.898221 -280.583384 
L 420.91473 -282.715625 
L 420.931477 -284.847866 
L 420.948611 -286.980107 
L 420.966197 -289.112349 
L 420.984204 -291.24459 
L 421.002513 -293.376831 
L 421.020928 -295.509072 
L 421.039199 -297.641313 
L 421.057048 -299.773554 
L 421.074203 -301.905795 
L 421.090414 -304.038036 
L 421.105481 -306.170277 
L 421.119264 -308.302518 
L 421.131691 -310.434759 
L 421.142753 -312.567 
L 421.152503 -314.699241 
L 421.161042 -316.831482 
L 421.168507 -318.963723 
L 421.175054 -321.095964 
L 421.180847 -323.228206 
L 421.18604 -325.360447 
L 421.190773 -327.492688 
L 421.195159 -329.624929 
L 421.19928 -331.75717 
L 421.203189 -333.889411 
L 421.206908 -336.021652 
L 421.210439 -338.153893 
L 421.213763 -340.286134 
L 421.216854 -342.418375 
L 421.219682 -344.550616 
L 421.222222 -346.682857 
L 421.224457 -348.815098 
L 421.22638 -350.947339 
L 421.227999 -353.07958 
L 421.229329 -355.211821 
L 421.230397 -357.344063 
L 421.236478 -357.344063 
L 421.236478 -357.344063 
L 421.237546 -355.211821 
L 421.238876 -353.07958 
L 421.240495 -350.947339 
L 421.242418 -348.815098 
L 421.244653 -346.682857 
L 421.247193 -344.550616 
L 421.250021 -342.418375 
L 421.253112 -340.286134 
L 421.256436 -338.153893 
L 421.259967 -336.021652 
L 421.263686 -333.889411 
L 421.267595 -331.75717 
L 421.271716 -329.624929 
L 421.276102 -327.492688 
L 421.280835 -325.360447 
L 421.286028 -323.228206 
L 421.291821 -321.095964 
L 421.298368 -318.963723 
L 421.305833 -316.831482 
L 421.314372 -314.699241 
L 421.324122 -312.567 
L 421.335184 -310.434759 
L 421.347611 -308.302518 
L 421.361394 -306.170277 
L 421.376461 -304.038036 
L 421.392672 -301.905795 
L 421.409827 -299.773554 
L 421.427676 -297.641313 
L 421.445947 -295.509072 
L 421.464362 -293.376831 
L 421.482671 -291.24459 
L 421.500678 -289.112349 
L 421.518264 -286.980107 
L 421.535398 -284.847866 
L 421.552145 -282.715625 
L 421.568654 -280.583384 
L 421.585132 -278.451143 
L 421.601811 -276.318902 
L 421.618904 -274.186661 
L 421.636562 -272.05442 
L 421.654832 -269.922179 
L 421.673627 -267.789938 
L 421.692716 -265.657697 
L 421.711736 -263.525456 
L 421.730227 -261.393215 
L 421.74769 -259.260974 
L 421.763658 -257.128733 
L 421.77778 -254.996492 
L 421.789896 -252.86425 
L 421.800089 -250.732009 
L 421.808716 -248.599768 
L 421.816394 -246.467527 
L 421.823942 -244.335286 
L 421.832285 -242.203045 
L 421.842336 -240.070804 
L 421.854852 -237.938563 
L 421.870306 -235.806322 
L 421.888784 -233.674081 
L 421.909925 -231.54184 
L 421.932915 -229.409599 
L 421.956555 -227.277358 
L 421.979372 -225.145117 
L 421.999778 -223.012876 
L 422.016256 -220.880635 
L 422.027537 -218.748393 
L 422.032748 -216.616152 
L 422.031511 -214.483911 
L 422.023982 -212.35167 
L 422.010809 -210.219429 
L 421.993039 -208.087188 
L 421.971965 -205.954947 
L 421.948952 -203.822706 
L 421.925261 -201.690465 
L 421.901894 -199.558224 
L 421.879482 -197.425983 
L 421.858235 -195.293742 
L 421.837947 -193.161501 
L 421.818063 -191.02926 
L 421.797795 -188.897019 
L 421.776254 -186.764778 
L 421.752601 -184.632536 
L 421.726178 -182.500295 
L 421.696608 -180.368054 
L 421.663857 -178.235813 
L 421.62824 -176.103572 
L 421.590389 -173.971331 
L 421.551183 -171.83909 
L 421.511645 -169.706849 
L 421.47284 -167.574608 
L 421.435774 -165.442367 
L 421.401305 -163.310126 
L 421.370087 -161.177885 
L 421.342541 -159.045644 
L 421.31885 -156.913403 
L 421.298983 -154.781162 
L 421.282733 -152.648921 
L 421.269764 -150.516679 
L 421.259664 -148.384438 
L 421.251985 -146.252197 
z
" style="stroke: #303030; stroke-width: 1.2"/>
    </defs>
    <g clip-path="url(#p8e0f31bffb)">
     <use xlink:href="#m03c6bec144" x="0" y="394.782188" style="fill: #158b6a; stroke: #303030; stroke-width: 1.2"/>
    </g>
   </g>
   <g id="line2d_18">
    <path d="M 122.16686 225.521914 
L 125.100015 225.521914 
" clip-path="url(#p8e0f31bffb)" style="fill: none; stroke-dasharray: 2.16,2.16; stroke-dashoffset: 0; stroke: #303030; stroke-width: 1.2"/>
   </g>
   <g id="line2d_19">
    <path d="M 122.151749 213.09686 
L 125.115126 213.09686 
" clip-path="url(#p8e0f31bffb)" style="fill: none; stroke-dasharray: 4.32,4.32; stroke-dashoffset: 0; stroke: #303030; stroke-width: 1.2"/>
   </g>
   <g id="line2d_20">
    <path d="M 122.679824 198.453047 
L 124.587051 198.453047 
" clip-path="url(#p8e0f31bffb)" style="fill: none; stroke-dasharray: 2.16,2.16; stroke-dashoffset: 0; stroke: #303030; stroke-width: 1.2"/>
   </g>
   <g id="line2d_21">
    <path d="M 213.508637 339.122404 
L 331.358237 339.122404 
" clip-path="url(#p8e0f31bffb)" style="fill: none; stroke-dasharray: 2.16,2.16; stroke-dashoffset: 0; stroke: #303030; stroke-width: 1.2"/>
   </g>
   <g id="line2d_22">
    <path d="M 213.508637 339.122404 
L 331.358237 339.122404 
" clip-path="url(#p8e0f31bffb)" style="fill: none; stroke-dasharray: 4.32,4.32; stroke-dashoffset: 0; stroke: #303030; stroke-width: 1.2"/>
   </g>
   <g id="line2d_23">
    <path d="M 250.069279 337.347396 
L 294.797596 337.347396 
" clip-path="url(#p8e0f31bffb)" style="fill: none; stroke-dasharray: 2.16,2.16; stroke-dashoffset: 0; stroke: #303030; stroke-width: 1.2"/>
   </g>
   <g id="line2d_24">
    <path d="M 420.502296 188.246753 
L 421.964579 188.246753 
" clip-path="url(#p8e0f31bffb)" style="fill: none; stroke-dasharray: 2.16,2.16; stroke-dashoffset: 0; stroke: #303030; stroke-width: 1.2"/>
   </g>
   <g id="line2d_25">
    <path d="M 420.458447 174.046692 
L 422.008428 174.046692 
" clip-path="url(#p8e0f31bffb)" style="fill: none; stroke-dasharray: 4.32,4.32; stroke-dashoffset: 0; stroke: #303030; stroke-width: 1.2"/>
   </g>
   <g id="line2d_26">
    <path d="M 420.682544 141.652802 
L 421.784331 141.652802 
" clip-path="url(#p8e0f31bffb)" style="fill: none; stroke-dasharray: 2.16,2.16; stroke-dashoffset: 0; stroke: #303030; stroke-width: 1.2"/>
   </g>
   <g id="patch_3">
    <path d="M 49.233438 354.958125 
L 49.233438 22.318125 
" style="fill: none; stroke: #000000; stroke-linejoin: miter; stroke-linecap: square"/>
   </g>
   <g id="patch_4">
    <path d="M 495.633438 354.958125 
L 495.633438 22.318125 
" style="fill: none; stroke: #000000; stroke-linejoin: miter; stroke-linecap: square"/>
   </g>
   <g id="patch_5">
    <path d="M 49.233438 354.958125 
L 495.633437 354.958125 
" style="fill: none; stroke: #000000; stroke-linejoin: miter; stroke-linecap: square"/>
   </g>
   <g id="patch_6">
    <path d="M 49.233438 22.318125 
L 495.633437 22.318125 
" style="fill: none; stroke: #000000; stroke-linejoin: miter; stroke-linecap: square"/>
   </g>
   <g id="text_13">
    <!-- Distribution Shape: API Calls (count) -->
    <g transform="translate(163.565312 16.318125) scale(0.12 -0.12)">
     <defs>
      <path id="DejaVuSans-44" d="M 1259 4147 
L 1259 519 
L 2022 519 
Q 2988 519 3436 956 
Q 3884 1394 3884 2338 
Q 3884 3275 3436 3711 
Q 2988 4147 2022 4147 
L 1259 4147 
z
M 628 4666 
L 1925 4666 
Q 3281 4666 3915 4102 
Q 4550 3538 4550 2338 
Q 4550 1131 3912 565 
Q 3275 0 1925 0 
L 628 0 
L 628 4666 
z
" transform="scale(0.015625)"/>
      <path id="DejaVuSans-69" d="M 603 3500 
L 1178 3500 
L 1178 0 
L 603 0 
L 603 3500 
z
M 603 4863 
L 1178 4863 
L 1178 4134 
L 603 4134 
L 603 4863 
z
" transform="scale(0.015625)"/>
      <path id="DejaVuSans-53" d="M 3425 4513 
L 3425 3897 
Q 3066 4069 2747 4153 
Q 2428 4238 2131 4238 
Q 1616 4238 1336 4038 
Q 1056 3838 1056 3469 
Q 1056 3159 1242 3001 
Q 1428 2844 1947 2747 
L 2328 2669 
Q 3034 2534 3370 2195 
Q 3706 1856 3706 1288 
Q 3706 609 3251 259 
Q 2797 -91 1919 -91 
Q 1588 -91 1214 -16 
Q 841 59 441 206 
L 441 856 
Q 825 641 1194 531 
Q 1563 422 1919 422 
Q 2459 422 2753 634 
Q 3047 847 3047 1241 
Q 3047 1584 2836 1778 
Q 2625 1972 2144 2069 
L 1759 2144 
Q 1053 2284 737 2584 
Q 422 2884 422 3419 
Q 422 4038 858 4394 
Q 1294 4750 2059 4750 
Q 2388 4750 2728 4690 
Q 3069 4631 3425 4513 
z
" transform="scale(0.015625)"/>
      <path id="DejaVuSans-3a" d="M 750 794 
L 1409 794 
L 1409 0 
L 750 0 
L 750 794 
z
M 750 3309 
L 1409 3309 
L 1409 2516 
L 750 2516 
L 750 3309 
z
" transform="scale(0.015625)"/>
     </defs>
     <use xlink:href="#DejaVuSans-44"/>
     <use xlink:href="#DejaVuSans-69" x="77.001953"/>
     <use xlink:href="#DejaVuSans-73" x="104.785156"/>
     <use xlink:href="#DejaVuSans-74" x="156.884766"/>
     <use xlink:href="#DejaVuSans-72" x="196.09375"/>
     <use xlink:href="#DejaVuSans-69" x="237.207031"/>
     <use xlink:href="#DejaVuSans-62" x="264.990234"/>
     <use xlink:href="#DejaVuSans-75" x="328.466797"/>
     <use xlink:href="#DejaVuSans-74" x="391.845703"/>
     <use xlink:href="#DejaVuSans-69" x="431.054688"/>
     <use xlink:href="#DejaVuSans-6f" x="458.837891"/>
     <use xlink:href="#DejaVuSans-6e" x="520.019531"/>
     <use xlink:href="#DejaVuSans-20" x="583.398438"/>
     <use xlink:href="#DejaVuSans-53" x="615.185547"/>
     <use xlink:href="#DejaVuSans-68" x="678.662109"/>
     <use xlink:href="#DejaVuSans-61" x="742.041016"/>
     <use xlink:href="#DejaVuSans-70" x="803.320312"/>
     <use xlink:href="#DejaVuSans-65" x="866.796875"/>
     <use xlink:href="#DejaVuSans-3a" x="928.320312"/>
     <use xlink:href="#DejaVuSans-20" x="962.011719"/>
     <use xlink:href="#DejaVuSans-41" x="993.798828"/>
     <use xlink:href="#DejaVuSans-50" x="1062.207031"/>
     <use xlink:href="#DejaVuSans-49" x="1122.509766"/>
     <use xlink:href="#DejaVuSans-20" x="1152.001953"/>
     <use xlink:href="#DejaVuSans-43" x="1183.789062"/>
     <use xlink:href="#DejaVuSans-61" x="1253.613281"/>
     <use xlink:href="#DejaVuSans-6c" x="1314.892578"/>
     <use xlink:href="#DejaVuSans-6c" x="1342.675781"/>
     <use xlink:href="#DejaVuSans-73" x="1370.458984"/>
     <use xlink:href="#DejaVuSans-20" x="1422.558594"/>
     <use xlink:href="#DejaVuSans-28" x="1454.345703"/>
     <use xlink:href="#DejaVuSans-63" x="1493.359375"/>
     <use xlink:href="#DejaVuSans-6f" x="1548.339844"/>
     <use xlink:href="#DejaVuSans-75" x="1609.521484"/>
     <use xlink:href="#DejaVuSans-6e" x="1672.900391"/>
     <use xlink:href="#DejaVuSans-74" x="1736.279297"/>
     <use xlink:href="#DejaVuSans-29" x="1775.488281"/>
    </g>
   </g>
  </g>
 </g>
 <defs>
  <clipPath id="p8e0f31bffb">
   <rect x="49.233438" y="22.318125" width="446.4" height="332.64"/>
  </clipPath>
 </defs>
</svg>
