<?xml version="1.0" encoding="utf-8" standalone="no"?>
<!DOCTYPE svg PUBLIC "-//W3C//DTD SVG 1.1//EN"
  "http://www.w3.org/Graphics/SVG/1.1/DTD/svg11.dtd">
<svg xmlns:xlink="http://www.w3.org/1999/xlink" width="521.920937pt" height="394.782188pt" viewBox="0 0 521.920937 394.782188" xmlns="http://www.w3.org/2000/svg" version="1.1">
 <metadata>
  <rdf:RDF xmlns:dc="http://purl.org/dc/elements/1.1/" xmlns:cc="http://creativecommons.org/ns#" xmlns:rdf="http://www.w3.org/1999/02/22-rdf-syntax-ns#">
   <cc:Work>
    <dc:type rdf:resource="http://purl.org/dc/dcmitype/StillImage"/>
    <dc:date>2025-11-03T08:41:15.572265</dc:date>
    <dc:format>image/svg+xml</dc:format>
    <dc:creator>
     <cc:Agent>
      <dc:title>Matplotlib v3.8.0, https://matplotlib.org/</dc:title>
     </cc:Agent>
    </dc:creator>
   </cc:Work>
  </rdf:RDF>
 </metadata>
 <defs>
  <style type="text/css">*{stroke-linejoin: round; stroke-linecap: butt}</style>
 </defs>
 <g id="figure_1">
  <g id="patch_1">
   <path d="M 0 394.782188 
L 521.920937 394.782188 
L 521.920937 -0 
L 0 -0 
z
" style="fill: #ffffff"/>
  </g>
  <g id="axes_1">
   <g id="patch_2">
    <path d="M 68.320938 354.958125 
L 514.720937 354.958125 
L 514.720937 22.318125 
L 68.320938 22.318125 
z
" style="fill: #ffffff"/>
   </g>
   <g id="matplotlib.axis_1">
    <g id="xtick_1">
     <g id="line2d_1">
      <defs>
       <path id="m8b8c32f692" d="M 0 0 
L 0 4.8 
" style="stroke: #000000"/>
      </defs>
      <g>
       <use xlink:href="#m8b8c32f692" x="142.720937" y="354.958125" style="stroke: #000000"/>
      </g>
     </g>
     <g id="text_1">
      <!-- ghspec -->
      <g transform="translate(124.773281 370.856562) scale(0.1 -0.1)">
       <defs>
        <path id="DejaVuSans-67" d="M 2906 1791 
Q 2906 2416 2648 2759 
Q 2391 3103 1925 3103 
Q 1463 3103 1205 2759 
Q 947 2416 947 1791 
Q 947 1169 1205 825 
Q 1463 481 1925 481 
Q 2391 481 2648 825 
Q 2906 1169 2906 1791 
z
M 3481 434 
Q 3481 -459 3084 -895 
Q 2688 -1331 1869 -1331 
Q 1566 -1331 1297 -1286 
Q 1028 -1241 775 -1147 
L 775 -588 
Q 1028 -725 1275 -790 
Q 1522 -856 1778 -856 
Q 2344 -856 2625 -561 
Q 2906 -266 2906 331 
L 2906 616 
Q 2728 306 2450 153 
Q 2172 0 1784 0 
Q 1141 0 747 490 
Q 353 981 353 1791 
Q 353 2603 747 3093 
Q 1141 3584 1784 3584 
Q 2172 3584 2450 3431 
Q 2728 3278 2906 2969 
L 2906 3500 
L 3481 3500 
L 3481 434 
z
" transform="scale(0.015625)"/>
        <path id="DejaVuSans-68" d="M 3513 2113 
L 3513 0 
L 2938 0 
L 2938 2094 
Q 2938 2591 2744 2837 
Q 2550 3084 2163 3084 
Q 1697 3084 1428 2787 
Q 1159 2491 1159 1978 
L 1159 0 
L 581 0 
L 581 4863 
L 1159 4863 
L 1159 2956 
Q 1366 3272 1645 3428 
Q 1925 3584 2291 3584 
Q 2894 3584 3203 3211 
Q 3513 2838 3513 2113 
z
" transform="scale(0.015625)"/>
        <path id="DejaVuSans-73" d="M 2834 3397 
L 2834 2853 
Q 2591 2978 2328 3040 
Q 2066 3103 1784 3103 
Q 1356 3103 1142 2972 
Q 928 2841 928 2578 
Q 928 2378 1081 2264 
Q 1234 2150 1697 2047 
L 1894 2003 
Q 2506 1872 2764 1633 
Q 3022 1394 3022 966 
Q 3022 478 2636 193 
Q 2250 -91 1575 -91 
Q 1294 -91 989 -36 
Q 684 19 347 128 
L 347 722 
Q 666 556 975 473 
Q 1284 391 1588 391 
Q 1994 391 2212 530 
Q 2431 669 2431 922 
Q 2431 1156 2273 1281 
Q 2116 1406 1581 1522 
L 1381 1569 
Q 847 1681 609 1914 
Q 372 2147 372 2553 
Q 372 3047 722 3315 
Q 1072 3584 1716 3584 
Q 2034 3584 2315 3537 
Q 2597 3491 2834 3397 
z
" transform="scale(0.015625)"/>
        <path id="DejaVuSans-70" d="M 1159 525 
L 1159 -1331 
L 581 -1331 
L 581 3500 
L 1159 3500 
L 1159 2969 
Q 1341 3281 1617 3432 
Q 1894 3584 2278 3584 
Q 2916 3584 3314 3078 
Q 3713 2572 3713 1747 
Q 3713 922 3314 415 
Q 2916 -91 2278 -91 
Q 1894 -91 1617 61 
Q 1341 213 1159 525 
z
M 3116 1747 
Q 3116 2381 2855 2742 
Q 2594 3103 2138 3103 
Q 1681 3103 1420 2742 
Q 1159 2381 1159 1747 
Q 1159 1113 1420 752 
Q 1681 391 2138 391 
Q 2594 391 2855 752 
Q 3116 1113 3116 1747 
z
" transform="scale(0.015625)"/>
        <path id="DejaVuSans-65" d="M 3597 1894 
L 3597 1613 
L 953 1613 
Q 991 1019 1311 708 
Q 1631 397 2203 397 
Q 2534 397 2845 478 
Q 3156 559 3463 722 
L 3463 178 
Q 3153 47 2828 -22 
Q 2503 -91 2169 -91 
Q 1331 -91 842 396 
Q 353 884 353 1716 
Q 353 2575 817 3079 
Q 1281 3584 2069 3584 
Q 2775 3584 3186 3129 
Q 3597 2675 3597 1894 
z
M 3022 2063 
Q 3016 2534 2758 2815 
Q 2500 3097 2075 3097 
Q 1594 3097 1305 2825 
Q 1016 2553 972 2059 
L 3022 2063 
z
" transform="scale(0.015625)"/>
        <path id="DejaVuSans-63" d="M 3122 3366 
L 3122 2828 
Q 2878 2963 2633 3030 
Q 2388 3097 2138 3097 
Q 1578 3097 1268 2742 
Q 959 2388 959 1747 
Q 959 1106 1268 751 
Q 1578 397 2138 397 
Q 2388 397 2633 464 
Q 2878 531 3122 666 
L 3122 134 
Q 2881 22 2623 -34 
Q 2366 -91 2075 -91 
Q 1284 -91 818 406 
Q 353 903 353 1747 
Q 353 2603 823 3093 
Q 1294 3584 2113 3584 
Q 2378 3584 2631 3529 
Q 2884 3475 3122 3366 
z
" transform="scale(0.015625)"/>
       </defs>
       <use xlink:href="#DejaVuSans-67"/>
       <use xlink:href="#DejaVuSans-68" x="63.476562"/>
       <use xlink:href="#DejaVuSans-73" x="126.855469"/>
       <use xlink:href="#DejaVuSans-70" x="178.955078"/>
       <use xlink:href="#DejaVuSans-65" x="242.431641"/>
       <use xlink:href="#DejaVuSans-63" x="303.955078"/>
      </g>
     </g>
    </g>
    <g id="xtick_2">
     <g id="line2d_2">
      <g>
       <use xlink:href="#m8b8c32f692" x="291.520937" y="354.958125" style="stroke: #000000"/>
      </g>
     </g>
     <g id="text_2">
      <!-- baes -->
      <g transform="translate(279.601406 370.856562) scale(0.1 -0.1)">
       <defs>
        <path id="DejaVuSans-62" d="M 3116 1747 
Q 3116 2381 2855 2742 
Q 2594 3103 2138 3103 
Q 1681 3103 1420 2742 
Q 1159 2381 1159 1747 
Q 1159 1113 1420 752 
Q 1681 391 2138 391 
Q 2594 391 2855 752 
Q 3116 1113 3116 1747 
z
M 1159 2969 
Q 1341 3281 1617 3432 
Q 1894 3584 2278 3584 
Q 2916 3584 3314 3078 
Q 3713 2572 3713 1747 
Q 3713 922 3314 415 
Q 2916 -91 2278 -91 
Q 1894 -91 1617 61 
Q 1341 213 1159 525 
L 1159 0 
L 581 0 
L 581 4863 
L 1159 4863 
L 1159 2969 
z
" transform="scale(0.015625)"/>
        <path id="DejaVuSans-61" d="M 2194 1759 
Q 1497 1759 1228 1600 
Q 959 1441 959 1056 
Q 959 750 1161 570 
Q 1363 391 1709 391 
Q 2188 391 2477 730 
Q 2766 1069 2766 1631 
L 2766 1759 
L 2194 1759 
z
M 3341 1997 
L 3341 0 
L 2766 0 
L 2766 531 
Q 2569 213 2275 61 
Q 1981 -91 1556 -91 
Q 1019 -91 701 211 
Q 384 513 384 1019 
Q 384 1609 779 1909 
Q 1175 2209 1959 2209 
L 2766 2209 
L 2766 2266 
Q 2766 2663 2505 2880 
Q 2244 3097 1772 3097 
Q 1472 3097 1187 3025 
Q 903 2953 641 2809 
L 641 3341 
Q 956 3463 1253 3523 
Q 1550 3584 1831 3584 
Q 2591 3584 2966 3190 
Q 3341 2797 3341 1997 
z
" transform="scale(0.015625)"/>
       </defs>
       <use xlink:href="#DejaVuSans-62"/>
       <use xlink:href="#DejaVuSans-61" x="63.476562"/>
       <use xlink:href="#DejaVuSans-65" x="124.755859"/>
       <use xlink:href="#DejaVuSans-73" x="186.279297"/>
      </g>
     </g>
    </g>
    <g id="xtick_3">
     <g id="line2d_3">
      <g>
       <use xlink:href="#m8b8c32f692" x="440.320937" y="354.958125" style="stroke: #000000"/>
      </g>
     </g>
     <g id="text_3">
      <!-- chatdev -->
      <g transform="translate(420.168594 370.856562) scale(0.1 -0.1)">
       <defs>
        <path id="DejaVuSans-74" d="M 1172 4494 
L 1172 3500 
L 2356 3500 
L 2356 3053 
L 1172 3053 
L 1172 1153 
Q 1172 725 1289 603 
Q 1406 481 1766 481 
L 2356 481 
L 2356 0 
L 1766 0 
Q 1100 0 847 248 
Q 594 497 594 1153 
L 594 3053 
L 172 3053 
L 172 3500 
L 594 3500 
L 594 4494 
L 1172 4494 
z
" transform="scale(0.015625)"/>
        <path id="DejaVuSans-64" d="M 2906 2969 
L 2906 4863 
L 3481 4863 
L 3481 0 
L 2906 0 
L 2906 525 
Q 2725 213 2448 61 
Q 2172 -91 1784 -91 
Q 1150 -91 751 415 
Q 353 922 353 1747 
Q 353 2572 751 3078 
Q 1150 3584 1784 3584 
Q 2172 3584 2448 3432 
Q 2725 3281 2906 2969 
z
M 947 1747 
Q 947 1113 1208 752 
Q 1469 391 1925 391 
Q 2381 391 2643 752 
Q 2906 1113 2906 1747 
Q 2906 2381 2643 2742 
Q 2381 3103 1925 3103 
Q 1469 3103 1208 2742 
Q 947 2381 947 1747 
z
" transform="scale(0.015625)"/>
        <path id="DejaVuSans-76" d="M 191 3500 
L 800 3500 
L 1894 563 
L 2988 3500 
L 3597 3500 
L 2284 0 
L 1503 0 
L 191 3500 
z
" transform="scale(0.015625)"/>
       </defs>
       <use xlink:href="#DejaVuSans-63"/>
       <use xlink:href="#DejaVuSans-68" x="54.980469"/>
       <use xlink:href="#DejaVuSans-61" x="118.359375"/>
       <use xlink:href="#DejaVuSans-74" x="179.638672"/>
       <use xlink:href="#DejaVuSans-64" x="218.847656"/>
       <use xlink:href="#DejaVuSans-65" x="282.324219"/>
       <use xlink:href="#DejaVuSans-76" x="343.847656"/>
      </g>
     </g>
    </g>
    <g id="text_4">
     <!-- Framework -->
     <g transform="translate(261.074141 385.294531) scale(0.11 -0.11)">
      <defs>
       <path id="DejaVuSans-46" d="M 628 4666 
L 3309 4666 
L 3309 4134 
L 1259 4134 
L 1259 2759 
L 3109 2759 
L 3109 2228 
L 1259 2228 
L 1259 0 
L 628 0 
L 628 4666 
z
" transform="scale(0.015625)"/>
       <path id="DejaVuSans-72" d="M 2631 2963 
Q 2534 3019 2420 3045 
Q 2306 3072 2169 3072 
Q 1681 3072 1420 2755 
Q 1159 2438 1159 1844 
L 1159 0 
L 581 0 
L 581 3500 
L 1159 3500 
L 1159 2956 
Q 1341 3275 1631 3429 
Q 1922 3584 2338 3584 
Q 2397 3584 2469 3576 
Q 2541 3569 2628 3553 
L 2631 2963 
z
" transform="scale(0.015625)"/>
       <path id="DejaVuSans-6d" d="M 3328 2828 
Q 3544 3216 3844 3400 
Q 4144 3584 4550 3584 
Q 5097 3584 5394 3201 
Q 5691 2819 5691 2113 
L 5691 0 
L 5113 0 
L 5113 2094 
Q 5113 2597 4934 2840 
Q 4756 3084 4391 3084 
Q 3944 3084 3684 2787 
Q 3425 2491 3425 1978 
L 3425 0 
L 2847 0 
L 2847 2094 
Q 2847 2600 2669 2842 
Q 2491 3084 2119 3084 
Q 1678 3084 1418 2786 
Q 1159 2488 1159 1978 
L 1159 0 
L 581 0 
L 581 3500 
L 1159 3500 
L 1159 2956 
Q 1356 3278 1631 3431 
Q 1906 3584 2284 3584 
Q 2666 3584 2933 3390 
Q 3200 3197 3328 2828 
z
" transform="scale(0.015625)"/>
       <path id="DejaVuSans-77" d="M 269 3500 
L 844 3500 
L 1563 769 
L 2278 3500 
L 2956 3500 
L 3675 769 
L 4391 3500 
L 4966 3500 
L 4050 0 
L 3372 0 
L 2619 2869 
L 1863 0 
L 1184 0 
L 269 3500 
z
" transform="scale(0.015625)"/>
       <path id="DejaVuSans-6f" d="M 1959 3097 
Q 1497 3097 1228 2736 
Q 959 2375 959 1747 
Q 959 1119 1226 758 
Q 1494 397 1959 397 
Q 2419 397 2687 759 
Q 2956 1122 2956 1747 
Q 2956 2369 2687 2733 
Q 2419 3097 1959 3097 
z
M 1959 3584 
Q 2709 3584 3137 3096 
Q 3566 2609 3566 1747 
Q 3566 888 3137 398 
Q 2709 -91 1959 -91 
Q 1206 -91 779 398 
Q 353 888 353 1747 
Q 353 2609 779 3096 
Q 1206 3584 1959 3584 
z
" transform="scale(0.015625)"/>
       <path id="DejaVuSans-6b" d="M 581 4863 
L 1159 4863 
L 1159 1991 
L 2875 3500 
L 3609 3500 
L 1753 1863 
L 3688 0 
L 2938 0 
L 1159 1709 
L 1159 0 
L 581 0 
L 581 4863 
z
" transform="scale(0.015625)"/>
      </defs>
      <use xlink:href="#DejaVuSans-46"/>
      <use xlink:href="#DejaVuSans-72" x="50.269531"/>
      <use xlink:href="#DejaVuSans-61" x="91.382812"/>
      <use xlink:href="#DejaVuSans-6d" x="152.662109"/>
      <use xlink:href="#DejaVuSans-65" x="250.074219"/>
      <use xlink:href="#DejaVuSans-77" x="311.597656"/>
      <use xlink:href="#DejaVuSans-6f" x="393.384766"/>
      <use xlink:href="#DejaVuSans-72" x="454.566406"/>
      <use xlink:href="#DejaVuSans-6b" x="495.679688"/>
     </g>
    </g>
   </g>
   <g id="matplotlib.axis_2">
    <g id="ytick_1">
     <g id="line2d_4">
      <path d="M 68.320938 301.622256 
L 514.720937 301.622256 
" clip-path="url(#p3c885332bb)" style="fill: none; stroke: #b0b0b0; stroke-opacity: 0.3; stroke-width: 0.8; stroke-linecap: square"/>
     </g>
     <g id="line2d_5">
      <defs>
       <path id="m476d583aa6" d="M 0 0 
L -4.8 0 
" style="stroke: #000000"/>
      </defs>
      <g>
       <use xlink:href="#m476d583aa6" x="68.320938" y="301.622256" style="stroke: #000000"/>
      </g>
     </g>
     <g id="text_5">
      <!-- 100000 -->
      <g transform="translate(21.845938 305.421475) scale(0.1 -0.1)">
       <defs>
        <path id="DejaVuSans-31" d="M 794 531 
L 1825 531 
L 1825 4091 
L 703 3866 
L 703 4441 
L 1819 4666 
L 2450 4666 
L 2450 531 
L 3481 531 
L 3481 0 
L 794 0 
L 794 531 
z
" transform="scale(0.015625)"/>
        <path id="DejaVuSans-30" d="M 2034 4250 
Q 1547 4250 1301 3770 
Q 1056 3291 1056 2328 
Q 1056 1369 1301 889 
Q 1547 409 2034 409 
Q 2525 409 2770 889 
Q 3016 1369 3016 2328 
Q 3016 3291 2770 3770 
Q 2525 4250 2034 4250 
z
M 2034 4750 
Q 2819 4750 3233 4129 
Q 3647 3509 3647 2328 
Q 3647 1150 3233 529 
Q 2819 -91 2034 -91 
Q 1250 -91 836 529 
Q 422 1150 422 2328 
Q 422 3509 836 4129 
Q 1250 4750 2034 4750 
z
" transform="scale(0.015625)"/>
       </defs>
       <use xlink:href="#DejaVuSans-31"/>
       <use xlink:href="#DejaVuSans-30" x="63.623047"/>
       <use xlink:href="#DejaVuSans-30" x="127.246094"/>
       <use xlink:href="#DejaVuSans-30" x="190.869141"/>
       <use xlink:href="#DejaVuSans-30" x="254.492188"/>
       <use xlink:href="#DejaVuSans-30" x="318.115234"/>
      </g>
     </g>
    </g>
    <g id="ytick_2">
     <g id="line2d_6">
      <path d="M 68.320938 234.691688 
L 514.720937 234.691688 
" clip-path="url(#p3c885332bb)" style="fill: none; stroke: #b0b0b0; stroke-opacity: 0.3; stroke-width: 0.8; stroke-linecap: square"/>
     </g>
     <g id="line2d_7">
      <g>
       <use xlink:href="#m476d583aa6" x="68.320938" y="234.691688" style="stroke: #000000"/>
      </g>
     </g>
     <g id="text_6">
      <!-- 200000 -->
      <g transform="translate(21.845938 238.490907) scale(0.1 -0.1)">
       <defs>
        <path id="DejaVuSans-32" d="M 1228 531 
L 3431 531 
L 3431 0 
L 469 0 
L 469 531 
Q 828 903 1448 1529 
Q 2069 2156 2228 2338 
Q 2531 2678 2651 2914 
Q 2772 3150 2772 3378 
Q 2772 3750 2511 3984 
Q 2250 4219 1831 4219 
Q 1534 4219 1204 4116 
Q 875 4013 500 3803 
L 500 4441 
Q 881 4594 1212 4672 
Q 1544 4750 1819 4750 
Q 2544 4750 2975 4387 
Q 3406 4025 3406 3419 
Q 3406 3131 3298 2873 
Q 3191 2616 2906 2266 
Q 2828 2175 2409 1742 
Q 1991 1309 1228 531 
z
" transform="scale(0.015625)"/>
       </defs>
       <use xlink:href="#DejaVuSans-32"/>
       <use xlink:href="#DejaVuSans-30" x="63.623047"/>
       <use xlink:href="#DejaVuSans-30" x="127.246094"/>
       <use xlink:href="#DejaVuSans-30" x="190.869141"/>
       <use xlink:href="#DejaVuSans-30" x="254.492188"/>
       <use xlink:href="#DejaVuSans-30" x="318.115234"/>
      </g>
     </g>
    </g>
    <g id="ytick_3">
     <g id="line2d_8">
      <path d="M 68.320938 167.76112 
L 514.720937 167.76112 
" clip-path="url(#p3c885332bb)" style="fill: none; stroke: #b0b0b0; stroke-opacity: 0.3; stroke-width: 0.8; stroke-linecap: square"/>
     </g>
     <g id="line2d_9">
      <g>
       <use xlink:href="#m476d583aa6" x="68.320938" y="167.76112" style="stroke: #000000"/>
      </g>
     </g>
     <g id="text_7">
      <!-- 300000 -->
      <g transform="translate(21.845938 171.560338) scale(0.1 -0.1)">
       <defs>
        <path id="DejaVuSans-33" d="M 2597 2516 
Q 3050 2419 3304 2112 
Q 3559 1806 3559 1356 
Q 3559 666 3084 287 
Q 2609 -91 1734 -91 
Q 1441 -91 1130 -33 
Q 819 25 488 141 
L 488 750 
Q 750 597 1062 519 
Q 1375 441 1716 441 
Q 2309 441 2620 675 
Q 2931 909 2931 1356 
Q 2931 1769 2642 2001 
Q 2353 2234 1838 2234 
L 1294 2234 
L 1294 2753 
L 1863 2753 
Q 2328 2753 2575 2939 
Q 2822 3125 2822 3475 
Q 2822 3834 2567 4026 
Q 2313 4219 1838 4219 
Q 1578 4219 1281 4162 
Q 984 4106 628 3988 
L 628 4550 
Q 988 4650 1302 4700 
Q 1616 4750 1894 4750 
Q 2613 4750 3031 4423 
Q 3450 4097 3450 3541 
Q 3450 3153 3228 2886 
Q 3006 2619 2597 2516 
z
" transform="scale(0.015625)"/>
       </defs>
       <use xlink:href="#DejaVuSans-33"/>
       <use xlink:href="#DejaVuSans-30" x="63.623047"/>
       <use xlink:href="#DejaVuSans-30" x="127.246094"/>
       <use xlink:href="#DejaVuSans-30" x="190.869141"/>
       <use xlink:href="#DejaVuSans-30" x="254.492188"/>
       <use xlink:href="#DejaVuSans-30" x="318.115234"/>
      </g>
     </g>
    </g>
    <g id="ytick_4">
     <g id="line2d_10">
      <path d="M 68.320938 100.830551 
L 514.720937 100.830551 
" clip-path="url(#p3c885332bb)" style="fill: none; stroke: #b0b0b0; stroke-opacity: 0.3; stroke-width: 0.8; stroke-linecap: square"/>
     </g>
     <g id="line2d_11">
      <g>
       <use xlink:href="#m476d583aa6" x="68.320938" y="100.830551" style="stroke: #000000"/>
      </g>
     </g>
     <g id="text_8">
      <!-- 400000 -->
      <g transform="translate(21.845938 104.62977) scale(0.1 -0.1)">
       <defs>
        <path id="DejaVuSans-34" d="M 2419 4116 
L 825 1625 
L 2419 1625 
L 2419 4116 
z
M 2253 4666 
L 3047 4666 
L 3047 1625 
L 3713 1625 
L 3713 1100 
L 3047 1100 
L 3047 0 
L 2419 0 
L 2419 1100 
L 313 1100 
L 313 1709 
L 2253 4666 
z
" transform="scale(0.015625)"/>
       </defs>
       <use xlink:href="#DejaVuSans-34"/>
       <use xlink:href="#DejaVuSans-30" x="63.623047"/>
       <use xlink:href="#DejaVuSans-30" x="127.246094"/>
       <use xlink:href="#DejaVuSans-30" x="190.869141"/>
       <use xlink:href="#DejaVuSans-30" x="254.492188"/>
       <use xlink:href="#DejaVuSans-30" x="318.115234"/>
      </g>
     </g>
    </g>
    <g id="ytick_5">
     <g id="line2d_12">
      <path d="M 68.320938 33.899983 
L 514.720937 33.899983 
" clip-path="url(#p3c885332bb)" style="fill: none; stroke: #b0b0b0; stroke-opacity: 0.3; stroke-width: 0.8; stroke-linecap: square"/>
     </g>
     <g id="line2d_13">
      <g>
       <use xlink:href="#m476d583aa6" x="68.320938" y="33.899983" style="stroke: #000000"/>
      </g>
     </g>
     <g id="text_9">
      <!-- 500000 -->
      <g transform="translate(21.845938 37.699202) scale(0.1 -0.1)">
       <defs>
        <path id="DejaVuSans-35" d="M 691 4666 
L 3169 4666 
L 3169 4134 
L 1269 4134 
L 1269 2991 
Q 1406 3038 1543 3061 
Q 1681 3084 1819 3084 
Q 2600 3084 3056 2656 
Q 3513 2228 3513 1497 
Q 3513 744 3044 326 
Q 2575 -91 1722 -91 
Q 1428 -91 1123 -41 
Q 819 9 494 109 
L 494 744 
Q 775 591 1075 516 
Q 1375 441 1709 441 
Q 2250 441 2565 725 
Q 2881 1009 2881 1497 
Q 2881 1984 2565 2268 
Q 2250 2553 1709 2553 
Q 1456 2553 1204 2497 
Q 953 2441 691 2322 
L 691 4666 
z
" transform="scale(0.015625)"/>
       </defs>
       <use xlink:href="#DejaVuSans-35"/>
       <use xlink:href="#DejaVuSans-30" x="63.623047"/>
       <use xlink:href="#DejaVuSans-30" x="127.246094"/>
       <use xlink:href="#DejaVuSans-30" x="190.869141"/>
       <use xlink:href="#DejaVuSans-30" x="254.492188"/>
       <use xlink:href="#DejaVuSans-30" x="318.115234"/>
      </g>
     </g>
    </g>
    <g id="text_10">
     <!-- Total Tokens (count) -->
     <g transform="translate(15.558281 243.296953) rotate(-90) scale(0.11 -0.11)">
      <defs>
       <path id="DejaVuSans-54" d="M -19 4666 
L 3928 4666 
L 3928 4134 
L 2272 4134 
L 2272 0 
L 1638 0 
L 1638 4134 
L -19 4134 
L -19 4666 
z
" transform="scale(0.015625)"/>
       <path id="DejaVuSans-6c" d="M 603 4863 
L 1178 4863 
L 1178 0 
L 603 0 
L 603 4863 
z
" transform="scale(0.015625)"/>
       <path id="DejaVuSans-20" transform="scale(0.015625)"/>
       <path id="DejaVuSans-6e" d="M 3513 2113 
L 3513 0 
L 2938 0 
L 2938 2094 
Q 2938 2591 2744 2837 
Q 2550 3084 2163 3084 
Q 1697 3084 1428 2787 
Q 1159 2491 1159 1978 
L 1159 0 
L 581 0 
L 581 3500 
L 1159 3500 
L 1159 2956 
Q 1366 3272 1645 3428 
Q 1925 3584 2291 3584 
Q 2894 3584 3203 3211 
Q 3513 2838 3513 2113 
z
" transform="scale(0.015625)"/>
       <path id="DejaVuSans-28" d="M 1984 4856 
Q 1566 4138 1362 3434 
Q 1159 2731 1159 2009 
Q 1159 1288 1364 580 
Q 1569 -128 1984 -844 
L 1484 -844 
Q 1016 -109 783 600 
Q 550 1309 550 2009 
Q 550 2706 781 3412 
Q 1013 4119 1484 4856 
L 1984 4856 
z
" transform="scale(0.015625)"/>
       <path id="DejaVuSans-75" d="M 544 1381 
L 544 3500 
L 1119 3500 
L 1119 1403 
Q 1119 906 1312 657 
Q 1506 409 1894 409 
Q 2359 409 2629 706 
Q 2900 1003 2900 1516 
L 2900 3500 
L 3475 3500 
L 3475 0 
L 2900 0 
L 2900 538 
Q 2691 219 2414 64 
Q 2138 -91 1772 -91 
Q 1169 -91 856 284 
Q 544 659 544 1381 
z
M 1991 3584 
L 1991 3584 
z
" transform="scale(0.015625)"/>
       <path id="DejaVuSans-29" d="M 513 4856 
L 1013 4856 
Q 1481 4119 1714 3412 
Q 1947 2706 1947 2009 
Q 1947 1309 1714 600 
Q 1481 -109 1013 -844 
L 513 -844 
Q 928 -128 1133 580 
Q 1338 1288 1338 2009 
Q 1338 2731 1133 3434 
Q 928 4138 513 4856 
z
" transform="scale(0.015625)"/>
      </defs>
      <use xlink:href="#DejaVuSans-54"/>
      <use xlink:href="#DejaVuSans-6f" x="44.083984"/>
      <use xlink:href="#DejaVuSans-74" x="105.265625"/>
      <use xlink:href="#DejaVuSans-61" x="144.474609"/>
      <use xlink:href="#DejaVuSans-6c" x="205.753906"/>
      <use xlink:href="#DejaVuSans-20" x="233.537109"/>
      <use xlink:href="#DejaVuSans-54" x="265.324219"/>
      <use xlink:href="#DejaVuSans-6f" x="309.408203"/>
      <use xlink:href="#DejaVuSans-6b" x="370.589844"/>
      <use xlink:href="#DejaVuSans-65" x="424.875"/>
      <use xlink:href="#DejaVuSans-6e" x="486.398438"/>
      <use xlink:href="#DejaVuSans-73" x="549.777344"/>
      <use xlink:href="#DejaVuSans-20" x="601.876953"/>
      <use xlink:href="#DejaVuSans-28" x="633.664062"/>
      <use xlink:href="#DejaVuSans-63" x="672.677734"/>
      <use xlink:href="#DejaVuSans-6f" x="727.658203"/>
      <use xlink:href="#DejaVuSans-75" x="788.839844"/>
      <use xlink:href="#DejaVuSans-6e" x="852.21875"/>
      <use xlink:href="#DejaVuSans-74" x="915.597656"/>
      <use xlink:href="#DejaVuSans-29" x="954.806641"/>
     </g>
    </g>
   </g>
   <g id="PolyCollection_1">
    <defs>
     <path id="m3c8259e378" d="M 142.730868 -189.813888 
L 142.711007 -189.813888 
L 142.706754 -191.506112 
L 142.70113 -193.198336 
L 142.693867 -194.89056 
L 142.684691 -196.582784 
L 142.673331 -198.275008 
L 142.65952 -199.967232 
L 142.642993 -201.659456 
L 142.623479 -203.35168 
L 142.600693 -205.043904 
L 142.574326 -206.736128 
L 142.544041 -208.428352 
L 142.509488 -210.120576 
L 142.470323 -211.8128 
L 142.426249 -213.505024 
L 142.377066 -215.197248 
L 142.322725 -216.889472 
L 142.263375 -218.581696 
L 142.199403 -220.27392 
L 142.131447 -221.966144 
L 142.060389 -223.658368 
L 141.987334 -225.350592 
L 141.913564 -227.042816 
L 141.840488 -228.73504 
L 141.769589 -230.427264 
L 141.702376 -232.119488 
L 141.640333 -233.811712 
L 141.584871 -235.503936 
L 141.537275 -237.19616 
L 141.498639 -238.888384 
L 141.469794 -240.580608 
L 141.45122 -242.272832 
L 141.442976 -243.965056 
L 141.444626 -245.657279 
L 141.455226 -247.349503 
L 141.473339 -249.041727 
L 141.497135 -250.733951 
L 141.52454 -252.426175 
L 141.553437 -254.118399 
L 141.581892 -255.810623 
L 141.60837 -257.502847 
L 141.631896 -259.195071 
L 141.652147 -260.887295 
L 141.669442 -262.579519 
L 141.68464 -264.271743 
L 141.698964 -265.963967 
L 141.713777 -267.656191 
L 141.730358 -269.348415 
L 141.749711 -271.040639 
L 141.772437 -272.732863 
L 141.798686 -274.425087 
L 141.82819 -276.117311 
L 141.860356 -277.809535 
L 141.894403 -279.501759 
L 141.929508 -281.193983 
L 141.964935 -282.886207 
L 142.000138 -284.578431 
L 142.034805 -286.270655 
L 142.068861 -287.962879 
L 142.102424 -289.655103 
L 142.135737 -291.347327 
L 142.169073 -293.039551 
L 142.202658 -294.731775 
L 142.236601 -296.423999 
L 142.270858 -298.116223 
L 142.305223 -299.808447 
L 142.339352 -301.500671 
L 142.372812 -303.192895 
L 142.405139 -304.885119 
L 142.4359 -306.577343 
L 142.464741 -308.269567 
L 142.491417 -309.961791 
L 142.515804 -311.654015 
L 142.537887 -313.346239 
L 142.557735 -315.038463 
L 142.57547 -316.730687 
L 142.591237 -318.422911 
L 142.605177 -320.115135 
L 142.617423 -321.807359 
L 142.628093 -323.499583 
L 142.637304 -325.191807 
L 142.645185 -326.884031 
L 142.651887 -328.576255 
L 142.657595 -330.268479 
L 142.662519 -331.960703 
L 142.666884 -333.652927 
L 142.670914 -335.345151 
L 142.674804 -337.037375 
L 142.678702 -338.729599 
L 142.682695 -340.421823 
L 142.686806 -342.114047 
L 142.690997 -343.806271 
L 142.695184 -345.498495 
L 142.699258 -347.190719 
L 142.703102 -348.882943 
L 142.706615 -350.575167 
L 142.709721 -352.267391 
L 142.712376 -353.959615 
L 142.714572 -355.651839 
L 142.716329 -357.344062 
L 142.725546 -357.344062 
L 142.725546 -357.344062 
L 142.727303 -355.651839 
L 142.729499 -353.959615 
L 142.732154 -352.267391 
L 142.73526 -350.575167 
L 142.738773 -348.882943 
L 142.742617 -347.190719 
L 142.746691 -345.498495 
L 142.750878 -343.806271 
L 142.755069 -342.114047 
L 142.75918 -340.421823 
L 142.763173 -338.729599 
L 142.767071 -337.037375 
L 142.770961 -335.345151 
L 142.774991 -333.652927 
L 142.779356 -331.960703 
L 142.78428 -330.268479 
L 142.789988 -328.576255 
L 142.79669 -326.884031 
L 142.804571 -325.191807 
L 142.813782 -323.499583 
L 142.824452 -321.807359 
L 142.836698 -320.115135 
L 142.850638 -318.422911 
L 142.866405 -316.730687 
L 142.88414 -315.038463 
L 142.903988 -313.346239 
L 142.926071 -311.654015 
L 142.950458 -309.961791 
L 142.977134 -308.269567 
L 143.005975 -306.577343 
L 143.036736 -304.885119 
L 143.069063 -303.192895 
L 143.102523 -301.500671 
L 143.136652 -299.808447 
L 143.171017 -298.116223 
L 143.205274 -296.423999 
L 143.239217 -294.731775 
L 143.272802 -293.039551 
L 143.306138 -291.347327 
L 143.339451 -289.655103 
L 143.373014 -287.962879 
L 143.40707 -286.270655 
L 143.441737 -284.578431 
L 143.47694 -282.886207 
L 143.512367 -281.193983 
L 143.547472 -279.501759 
L 143.581519 -277.809535 
L 143.613685 -276.117311 
L 143.643189 -274.425087 
L 143.669438 -272.732863 
L 143.692164 -271.040639 
L 143.711517 -269.348415 
L 143.728098 -267.656191 
L 143.742911 -265.963967 
L 143.757235 -264.271743 
L 143.772433 -262.579519 
L 143.789728 -260.887295 
L 143.809979 -259.195071 
L 143.833505 -257.502847 
L 143.859983 -255.810623 
L 143.888438 -254.118399 
L 143.917335 -252.426175 
L 143.94474 -250.733951 
L 143.968536 -249.041727 
L 143.986649 -247.349503 
L 143.997249 -245.657279 
L 143.998899 -243.965056 
L 143.990655 -242.272832 
L 143.972081 -240.580608 
L 143.943236 -238.888384 
L 143.9046 -237.19616 
L 143.857004 -235.503936 
L 143.801542 -233.811712 
L 143.739499 -232.119488 
L 143.672286 -230.427264 
L 143.601387 -228.73504 
L 143.528311 -227.042816 
L 143.454541 -225.350592 
L 143.381486 -223.658368 
L 143.310428 -221.966144 
L 143.242472 -220.27392 
L 143.1785 -218.581696 
L 143.11915 -216.889472 
L 143.064809 -215.197248 
L 143.015626 -213.505024 
L 142.971552 -211.8128 
L 142.932387 -210.120576 
L 142.897834 -208.428352 
L 142.867549 -206.736128 
L 142.841182 -205.043904 
L 142.818396 -203.35168 
L 142.798882 -201.659456 
L 142.782355 -199.967232 
L 142.768544 -198.275008 
L 142.757184 -196.582784 
L 142.748008 -194.89056 
L 142.740745 -193.198336 
L 142.735121 -191.506112 
L 142.730868 -189.813888 
z
" style="stroke: #303030; stroke-width: 1.2"/>
    </defs>
    <g clip-path="url(#p3c885332bb)">
     <use xlink:href="#m3c8259e378" x="0" y="394.782188" style="fill: #176d9c; stroke: #303030; stroke-width: 1.2"/>
    </g>
   </g>
   <g id="PolyCollection_2">
    <defs>
     <path id="m17cf1c166f" d="M 298.002416 -54.944063 
L 285.039459 -54.944063 
L 282.877656 -55.001755 
L 280.223062 -55.059448 
L 277.045609 -55.11714 
L 273.341787 -55.174833 
L 269.142371 -55.232525 
L 264.518407 -55.290218 
L 259.584228 -55.34791 
L 254.496421 -55.405603 
L 249.448068 -55.463295 
L 244.658121 -55.520988 
L 240.356506 -55.57868 
L 236.766231 -55.636373 
L 234.084393 -55.694065 
L 232.464294 -55.751758 
L 232.000937 -55.80945 
L 232.721793 -55.867143 
L 234.584085 -55.924835 
L 237.478972 -55.982528 
L 241.242031 -56.040221 
L 245.668643 -56.097913 
L 250.532246 -56.155606 
L 255.603182 -56.213298 
L 260.665944 -56.270991 
L 265.533037 -56.328683 
L 270.054323 -56.386376 
L 274.121405 -56.444068 
L 277.667326 -56.501761 
L 280.662382 -56.559453 
L 283.107217 -56.617146 
L 285.024481 -56.674838 
L 286.450299 -56.732531 
L 287.426561 -56.790223 
L 287.994802 -56.847916 
L 288.1921 -56.905608 
L 288.049147 -56.963301 
L 287.590374 -57.020993 
L 286.835849 -57.078686 
L 285.804463 -57.136379 
L 284.517849 -57.194071 
L 283.004392 -57.251764 
L 281.302701 -57.309456 
L 279.463913 -57.367149 
L 277.552376 -57.424841 
L 275.644371 -57.482534 
L 273.824837 -57.540226 
L 272.182302 -57.597919 
L 270.80252 -57.655611 
L 269.761531 -57.713304 
L 269.119013 -57.770996 
L 268.912787 -57.828689 
L 269.155239 -57.886381 
L 269.832146 -57.944074 
L 270.904092 -58.001766 
L 272.310285 -58.059459 
L 273.974268 -58.117151 
L 275.810783 -58.174844 
L 277.732932 -58.232537 
L 279.658805 -58.290229 
L 281.516893 -58.347922 
L 283.249838 -58.405614 
L 284.816335 -58.463307 
L 286.191262 -58.520999 
L 287.364333 -58.578692 
L 288.337687 -58.636384 
L 289.122885 -58.694077 
L 289.737762 -58.751769 
L 290.203499 -58.809462 
L 290.542177 -58.867154 
L 290.774941 -58.924847 
L 290.920826 -58.982539 
L 290.99618 -59.040232 
L 291.01459 -59.097924 
L 290.987174 -59.155617 
L 290.923106 -59.21331 
L 290.830228 -59.271002 
L 290.71565 -59.328695 
L 290.586243 -59.386387 
L 290.448959 -59.44408 
L 290.310955 -59.501772 
L 290.179513 -59.559465 
L 290.061784 -59.617157 
L 289.964402 -59.67485 
L 289.893035 -59.732542 
L 289.851953 -59.790235 
L 289.843666 -59.847927 
L 289.868719 -59.90562 
L 289.925656 -59.963312 
L 290.011171 -60.021005 
L 290.120438 -60.078697 
L 290.247563 -60.13639 
L 290.386113 -60.194082 
L 290.529648 -60.251775 
L 290.672204 -60.309468 
L 290.808673 -60.36716 
L 290.935055 -60.424853 
L 291.048571 -60.482545 
L 291.147648 -60.540238 
L 291.231795 -60.59793 
L 291.301416 -60.655623 
L 291.740459 -60.655623 
L 291.740459 -60.655623 
L 291.81008 -60.59793 
L 291.894227 -60.540238 
L 291.993304 -60.482545 
L 292.10682 -60.424853 
L 292.233202 -60.36716 
L 292.369671 -60.309468 
L 292.512227 -60.251775 
L 292.655762 -60.194082 
L 292.794312 -60.13639 
L 292.921437 -60.078697 
L 293.030704 -60.021005 
L 293.116219 -59.963312 
L 293.173156 -59.90562 
L 293.198209 -59.847927 
L 293.189922 -59.790235 
L 293.14884 -59.732542 
L 293.077473 -59.67485 
L 292.980091 -59.617157 
L 292.862362 -59.559465 
L 292.73092 -59.501772 
L 292.592916 -59.44408 
L 292.455632 -59.386387 
L 292.326225 -59.328695 
L 292.211647 -59.271002 
L 292.118769 -59.21331 
L 292.054701 -59.155617 
L 292.027285 -59.097924 
L 292.045695 -59.040232 
L 292.121049 -58.982539 
L 292.266934 -58.924847 
L 292.499698 -58.867154 
L 292.838376 -58.809462 
L 293.304113 -58.751769 
L 293.91899 -58.694077 
L 294.704188 -58.636384 
L 295.677542 -58.578692 
L 296.850613 -58.520999 
L 298.22554 -58.463307 
L 299.792037 -58.405614 
L 301.524982 -58.347922 
L 303.38307 -58.290229 
L 305.308943 -58.232537 
L 307.231092 -58.174844 
L 309.067607 -58.117151 
L 310.73159 -58.059459 
L 312.137783 -58.001766 
L 313.209729 -57.944074 
L 313.886636 -57.886381 
L 314.129088 -57.828689 
L 313.922862 -57.770996 
L 313.280344 -57.713304 
L 312.239355 -57.655611 
L 310.859573 -57.597919 
L 309.217038 -57.540226 
L 307.397504 -57.482534 
L 305.489499 -57.424841 
L 303.577962 -57.367149 
L 301.739174 -57.309456 
L 300.037483 -57.251764 
L 298.524026 -57.194071 
L 297.237412 -57.136379 
L 296.206026 -57.078686 
L 295.451501 -57.020993 
L 294.992728 -56.963301 
L 294.849775 -56.905608 
L 295.047073 -56.847916 
L 295.615314 -56.790223 
L 296.591576 -56.732531 
L 298.017394 -56.674838 
L 299.934658 -56.617146 
L 302.379493 -56.559453 
L 305.374549 -56.501761 
L 308.92047 -56.444068 
L 312.987552 -56.386376 
L 317.508838 -56.328683 
L 322.375931 -56.270991 
L 327.438693 -56.213298 
L 332.509629 -56.155606 
L 337.373232 -56.097913 
L 341.799844 -56.040221 
L 345.562903 -55.982528 
L 348.45779 -55.924835 
L 350.320082 -55.867143 
L 351.040937 -55.80945 
L 350.577581 -55.751758 
L 348.957482 -55.694065 
L 346.275644 -55.636373 
L 342.685369 -55.57868 
L 338.383754 -55.520988 
L 333.593807 -55.463295 
L 328.545454 -55.405603 
L 323.457647 -55.34791 
L 318.523468 -55.290218 
L 313.899504 -55.232525 
L 309.700088 -55.174833 
L 305.996266 -55.11714 
L 302.818813 -55.059448 
L 300.164219 -55.001755 
L 298.002416 -54.944063 
z
" style="stroke: #303030; stroke-width: 1.2"/>
    </defs>
    <g clip-path="url(#p3c885332bb)">
     <use xlink:href="#m17cf1c166f" x="0" y="394.782188" style="fill: #c38820; stroke: #303030; stroke-width: 1.2"/>
    </g>
   </g>
   <g id="PolyCollection_3">
    <defs>
     <path id="mbe4aef5ce4" d="M 440.334215 -97.415956 
L 440.30766 -97.415956 
L 440.300871 -99.394141 
L 440.291383 -101.372327 
L 440.278499 -103.350512 
L 440.261494 -105.328698 
L 440.239668 -107.306883 
L 440.212413 -109.285069 
L 440.179275 -111.263254 
L 440.140001 -113.24144 
L 440.094571 -115.219625 
L 440.043181 -117.197811 
L 439.986201 -119.175996 
L 439.924096 -121.154182 
L 439.857338 -123.132367 
L 439.786324 -125.110553 
L 439.711339 -127.088738 
L 439.63257 -129.066924 
L 439.550203 -131.045109 
L 439.464572 -133.023294 
L 439.376358 -135.00148 
L 439.286778 -136.979665 
L 439.197714 -138.957851 
L 439.11175 -140.936036 
L 439.032071 -142.914222 
L 438.962227 -144.892407 
L 438.905789 -146.870593 
L 438.865949 -148.848778 
L 438.845124 -150.826964 
L 438.844644 -152.805149 
L 438.864573 -154.783335 
L 438.903687 -156.76152 
L 438.959609 -158.739706 
L 439.02908 -160.717891 
L 439.108296 -162.696077 
L 439.193278 -164.674262 
L 439.280199 -166.652448 
L 439.36565 -168.630633 
L 439.446807 -170.608818 
L 439.521511 -172.587004 
L 439.588272 -174.565189 
L 439.646212 -176.543375 
L 439.694984 -178.52156 
L 439.734686 -180.499746 
L 439.76579 -182.477931 
L 439.789078 -184.456117 
L 439.805601 -186.434302 
L 439.816641 -188.412488 
L 439.82366 -190.390673 
L 439.828228 -192.368859 
L 439.831934 -194.347044 
L 439.836273 -196.32523 
L 439.842534 -198.303415 
L 439.851695 -200.281601 
L 439.864355 -202.259786 
L 439.880716 -204.237971 
L 439.900601 -206.216157 
L 439.923527 -208.194342 
L 439.948798 -210.172528 
L 439.975606 -212.150713 
L 440.003129 -214.128899 
L 440.030606 -216.107084 
L 440.05739 -218.08527 
L 440.082979 -220.063455 
L 440.10703 -222.041641 
L 440.129354 -224.019826 
L 440.149904 -225.998012 
L 440.168748 -227.976197 
L 440.186039 -229.954383 
L 440.201965 -231.932568 
L 440.216711 -233.910754 
L 440.230419 -235.888939 
L 440.243158 -237.867125 
L 440.254916 -239.84531 
L 440.265611 -241.823495 
L 440.275109 -243.801681 
L 440.283258 -245.779866 
L 440.289924 -247.758052 
L 440.295017 -249.736237 
L 440.29852 -251.714423 
L 440.300491 -253.692608 
L 440.301076 -255.670794 
L 440.300498 -257.648979 
L 440.299043 -259.627165 
L 440.297042 -261.60535 
L 440.294848 -263.583536 
L 440.292804 -265.561721 
L 440.291215 -267.539907 
L 440.290317 -269.518092 
L 440.290261 -271.496278 
L 440.291096 -273.474463 
L 440.292773 -275.452648 
L 440.29516 -277.430834 
L 440.298064 -279.409019 
L 440.301262 -281.387205 
L 440.304533 -283.36539 
L 440.30768 -285.343576 
L 440.310553 -287.321761 
L 440.313054 -289.299947 
L 440.315136 -291.278132 
L 440.3168 -293.256318 
L 440.325075 -293.256318 
L 440.325075 -293.256318 
L 440.326739 -291.278132 
L 440.328821 -289.299947 
L 440.331322 -287.321761 
L 440.334195 -285.343576 
L 440.337342 -283.36539 
L 440.340613 -281.387205 
L 440.343811 -279.409019 
L 440.346715 -277.430834 
L 440.349102 -275.452648 
L 440.350779 -273.474463 
L 440.351614 -271.496278 
L 440.351558 -269.518092 
L 440.35066 -267.539907 
L 440.349071 -265.561721 
L 440.347027 -263.583536 
L 440.344833 -261.60535 
L 440.342832 -259.627165 
L 440.341377 -257.648979 
L 440.340799 -255.670794 
L 440.341384 -253.692608 
L 440.343355 -251.714423 
L 440.346858 -249.736237 
L 440.351951 -247.758052 
L 440.358617 -245.779866 
L 440.366766 -243.801681 
L 440.376264 -241.823495 
L 440.386959 -239.84531 
L 440.398717 -237.867125 
L 440.411456 -235.888939 
L 440.425164 -233.910754 
L 440.43991 -231.932568 
L 440.455836 -229.954383 
L 440.473127 -227.976197 
L 440.491971 -225.998012 
L 440.512521 -224.019826 
L 440.534845 -222.041641 
L 440.558896 -220.063455 
L 440.584485 -218.08527 
L 440.611269 -216.107084 
L 440.638746 -214.128899 
L 440.666269 -212.150713 
L 440.693077 -210.172528 
L 440.718348 -208.194342 
L 440.741274 -206.216157 
L 440.761159 -204.237971 
L 440.77752 -202.259786 
L 440.79018 -200.281601 
L 440.799341 -198.303415 
L 440.805602 -196.32523 
L 440.809941 -194.347044 
L 440.813647 -192.368859 
L 440.818215 -190.390673 
L 440.825234 -188.412488 
L 440.836274 -186.434302 
L 440.852797 -184.456117 
L 440.876085 -182.477931 
L 440.907189 -180.499746 
L 440.946891 -178.52156 
L 440.995663 -176.543375 
L 441.053603 -174.565189 
L 441.120364 -172.587004 
L 441.195068 -170.608818 
L 441.276225 -168.630633 
L 441.361676 -166.652448 
L 441.448597 -164.674262 
L 441.533579 -162.696077 
L 441.612795 -160.717891 
L 441.682266 -158.739706 
L 441.738188 -156.76152 
L 441.777302 -154.783335 
L 441.797231 -152.805149 
L 441.796751 -150.826964 
L 441.775926 -148.848778 
L 441.736086 -146.870593 
L 441.679648 -144.892407 
L 441.609804 -142.914222 
L 441.530125 -140.936036 
L 441.444161 -138.957851 
L 441.355097 -136.979665 
L 441.265517 -135.00148 
L 441.177303 -133.023294 
L 441.091672 -131.045109 
L 441.009305 -129.066924 
L 440.930536 -127.088738 
L 440.855551 -125.110553 
L 440.784537 -123.132367 
L 440.717779 -121.154182 
L 440.655674 -119.175996 
L 440.598694 -117.197811 
L 440.547304 -115.219625 
L 440.501874 -113.24144 
L 440.4626 -111.263254 
L 440.429462 -109.285069 
L 440.402207 -107.306883 
L 440.380381 -105.328698 
L 440.363376 -103.350512 
L 440.350492 -101.372327 
L 440.341004 -99.394141 
L 440.334215 -97.415956 
z
" style="stroke: #303030; stroke-width: 1.2"/>
    </defs>
    <g clip-path="url(#p3c885332bb)">
     <use xlink:href="#mbe4aef5ce4" x="0" y="394.782188" style="fill: #158b6a; stroke: #303030; stroke-width: 1.2"/>
    </g>
   </g>
   <g id="line2d_14">
    <path d="M 141.482305 154.926012 
L 143.95957 154.926012 
" clip-path="url(#p3c885332bb)" style="fill: none; stroke-dasharray: 2.16,2.16; stroke-dashoffset: 0; stroke: #303030; stroke-width: 1.2"/>
   </g>
   <g id="line2d_15">
    <path d="M 141.536504 141.80076 
L 143.905371 141.80076 
" clip-path="url(#p3c885332bb)" style="fill: none; stroke-dasharray: 4.32,4.32; stroke-dashoffset: 0; stroke: #303030; stroke-width: 1.2"/>
   </g>
   <g id="line2d_16">
    <path d="M 141.807908 120.28024 
L 143.633967 120.28024 
" clip-path="url(#p3c885332bb)" style="fill: none; stroke-dasharray: 2.16,2.16; stroke-dashoffset: 0; stroke: #303030; stroke-width: 1.2"/>
   </g>
   <g id="line2d_17">
    <path d="M 232.596137 338.984573 
L 350.445737 338.984573 
" clip-path="url(#p3c885332bb)" style="fill: none; stroke-dasharray: 2.16,2.16; stroke-dashoffset: 0; stroke: #303030; stroke-width: 1.2"/>
   </g>
   <g id="line2d_18">
    <path d="M 232.596137 338.970517 
L 350.445737 338.970517 
" clip-path="url(#p3c885332bb)" style="fill: none; stroke-dasharray: 4.32,4.32; stroke-dashoffset: 0; stroke: #303030; stroke-width: 1.2"/>
   </g>
   <g id="line2d_19">
    <path d="M 269.138869 336.967955 
L 313.903006 336.967955 
" clip-path="url(#p3c885332bb)" style="fill: none; stroke-dasharray: 2.16,2.16; stroke-dashoffset: 0; stroke: #303030; stroke-width: 1.2"/>
   </g>
   <g id="line2d_20">
    <path d="M 438.880499 246.90568 
L 441.761376 246.90568 
" clip-path="url(#p3c885332bb)" style="fill: none; stroke-dasharray: 2.16,2.16; stroke-dashoffset: 0; stroke: #303030; stroke-width: 1.2"/>
   </g>
   <g id="line2d_21">
    <path d="M 438.91786 238.855773 
L 441.724015 238.855773 
" clip-path="url(#p3c885332bb)" style="fill: none; stroke-dasharray: 4.32,4.32; stroke-dashoffset: 0; stroke: #303030; stroke-width: 1.2"/>
   </g>
   <g id="line2d_22">
    <path d="M 439.652959 217.539726 
L 440.988916 217.539726 
" clip-path="url(#p3c885332bb)" style="fill: none; stroke-dasharray: 2.16,2.16; stroke-dashoffset: 0; stroke: #303030; stroke-width: 1.2"/>
   </g>
   <g id="patch_3">
    <path d="M 68.320938 354.958125 
L 68.320938 22.318125 
" style="fill: none; stroke: #000000; stroke-linejoin: miter; stroke-linecap: square"/>
   </g>
   <g id="patch_4">
    <path d="M 514.720937 354.958125 
L 514.720937 22.318125 
" style="fill: none; stroke: #000000; stroke-linejoin: miter; stroke-linecap: square"/>
   </g>
   <g id="patch_5">
    <path d="M 68.320937 354.958125 
L 514.720937 354.958125 
" style="fill: none; stroke: #000000; stroke-linejoin: miter; stroke-linecap: square"/>
   </g>
   <g id="patch_6">
    <path d="M 68.320937 22.318125 
L 514.720937 22.318125 
" style="fill: none; stroke: #000000; stroke-linejoin: miter; stroke-linecap: square"/>
   </g>
   <g id="text_11">
    <!-- Distribution Shape: Total Tokens (count) -->
    <g transform="translate(172.26625 16.318125) scale(0.12 -0.12)">
     <defs>
      <path id="DejaVuSans-44" d="M 1259 4147 
L 1259 519 
L 2022 519 
Q 2988 519 3436 956 
Q 3884 1394 3884 2338 
Q 3884 3275 3436 3711 
Q 2988 4147 2022 4147 
L 1259 4147 
z
M 628 4666 
L 1925 4666 
Q 3281 4666 3915 4102 
Q 4550 3538 4550 2338 
Q 4550 1131 3912 565 
Q 3275 0 1925 0 
L 628 0 
L 628 4666 
z
" transform="scale(0.015625)"/>
      <path id="DejaVuSans-69" d="M 603 3500 
L 1178 3500 
L 1178 0 
L 603 0 
L 603 3500 
z
M 603 4863 
L 1178 4863 
L 1178 4134 
L 603 4134 
L 603 4863 
z
" transform="scale(0.015625)"/>
      <path id="DejaVuSans-53" d="M 3425 4513 
L 3425 3897 
Q 3066 4069 2747 4153 
Q 2428 4238 2131 4238 
Q 1616 4238 1336 4038 
Q 1056 3838 1056 3469 
Q 1056 3159 1242 3001 
Q 1428 2844 1947 2747 
L 2328 2669 
Q 3034 2534 3370 2195 
Q 3706 1856 3706 1288 
Q 3706 609 3251 259 
Q 2797 -91 1919 -91 
Q 1588 -91 1214 -16 
Q 841 59 441 206 
L 441 856 
Q 825 641 1194 531 
Q 1563 422 1919 422 
Q 2459 422 2753 634 
Q 3047 847 3047 1241 
Q 3047 1584 2836 1778 
Q 2625 1972 2144 2069 
L 1759 2144 
Q 1053 2284 737 2584 
Q 422 2884 422 3419 
Q 422 4038 858 4394 
Q 1294 4750 2059 4750 
Q 2388 4750 2728 4690 
Q 3069 4631 3425 4513 
z
" transform="scale(0.015625)"/>
      <path id="DejaVuSans-3a" d="M 750 794 
L 1409 794 
L 1409 0 
L 750 0 
L 750 794 
z
M 750 3309 
L 1409 3309 
L 1409 2516 
L 750 2516 
L 750 3309 
z
" transform="scale(0.015625)"/>
     </defs>
     <use xlink:href="#DejaVuSans-44"/>
     <use xlink:href="#DejaVuSans-69" x="77.001953"/>
     <use xlink:href="#DejaVuSans-73" x="104.785156"/>
     <use xlink:href="#DejaVuSans-74" x="156.884766"/>
     <use xlink:href="#DejaVuSans-72" x="196.09375"/>
     <use xlink:href="#DejaVuSans-69" x="237.207031"/>
     <use xlink:href="#DejaVuSans-62" x="264.990234"/>
     <use xlink:href="#DejaVuSans-75" x="328.466797"/>
     <use xlink:href="#DejaVuSans-74" x="391.845703"/>
     <use xlink:href="#DejaVuSans-69" x="431.054688"/>
     <use xlink:href="#DejaVuSans-6f" x="458.837891"/>
     <use xlink:href="#DejaVuSans-6e" x="520.019531"/>
     <use xlink:href="#DejaVuSans-20" x="583.398438"/>
     <use xlink:href="#DejaVuSans-53" x="615.185547"/>
     <use xlink:href="#DejaVuSans-68" x="678.662109"/>
     <use xlink:href="#DejaVuSans-61" x="742.041016"/>
     <use xlink:href="#DejaVuSans-70" x="803.320312"/>
     <use xlink:href="#DejaVuSans-65" x="866.796875"/>
     <use xlink:href="#DejaVuSans-3a" x="928.320312"/>
     <use xlink:href="#DejaVuSans-20" x="962.011719"/>
     <use xlink:href="#DejaVuSans-54" x="993.798828"/>
     <use xlink:href="#DejaVuSans-6f" x="1037.882812"/>
     <use xlink:href="#DejaVuSans-74" x="1099.064453"/>
     <use xlink:href="#DejaVuSans-61" x="1138.273438"/>
     <use xlink:href="#DejaVuSans-6c" x="1199.552734"/>
     <use xlink:href="#DejaVuSans-20" x="1227.335938"/>
     <use xlink:href="#DejaVuSans-54" x="1259.123047"/>
     <use xlink:href="#DejaVuSans-6f" x="1303.207031"/>
     <use xlink:href="#DejaVuSans-6b" x="1364.388672"/>
     <use xlink:href="#DejaVuSans-65" x="1418.673828"/>
     <use xlink:href="#DejaVuSans-6e" x="1480.197266"/>
     <use xlink:href="#DejaVuSans-73" x="1543.576172"/>
     <use xlink:href="#DejaVuSans-20" x="1595.675781"/>
     <use xlink:href="#DejaVuSans-28" x="1627.462891"/>
     <use xlink:href="#DejaVuSans-63" x="1666.476562"/>
     <use xlink:href="#DejaVuSans-6f" x="1721.457031"/>
     <use xlink:href="#DejaVuSans-75" x="1782.638672"/>
     <use xlink:href="#DejaVuSans-6e" x="1846.017578"/>
     <use xlink:href="#DejaVuSans-74" x="1909.396484"/>
     <use xlink:href="#DejaVuSans-29" x="1948.605469"/>
    </g>
   </g>
  </g>
 </g>
 <defs>
  <clipPath id="p3c885332bb">
   <rect x="68.320938" y="22.318125" width="446.4" height="332.64"/>
  </clipPath>
 </defs>
</svg>
