<?xml version="1.0" encoding="utf-8" standalone="no"?>
<!DOCTYPE svg PUBLIC "-//W3C//DTD SVG 1.1//EN"
  "http://www.w3.org/Graphics/SVG/1.1/DTD/svg11.dtd">
<svg xmlns:xlink="http://www.w3.org/1999/xlink" width="521.920937pt" height="394.782188pt" viewBox="0 0 521.920937 394.782188" xmlns="http://www.w3.org/2000/svg" version="1.1">
 <metadata>
  <rdf:RDF xmlns:dc="http://purl.org/dc/elements/1.1/" xmlns:cc="http://creativecommons.org/ns#" xmlns:rdf="http://www.w3.org/1999/02/22-rdf-syntax-ns#">
   <cc:Work>
    <dc:type rdf:resource="http://purl.org/dc/dcmitype/StillImage"/>
    <dc:date>2025-11-03T08:23:49.589256</dc:date>
    <dc:format>image/svg+xml</dc:format>
    <dc:creator>
     <cc:Agent>
      <dc:title>Matplotlib v3.8.0, https://matplotlib.org/</dc:title>
     </cc:Agent>
    </dc:creator>
   </cc:Work>
  </rdf:RDF>
 </metadata>
 <defs>
  <style type="text/css">*{stroke-linejoin: round; stroke-linecap: butt}</style>
 </defs>
 <g id="figure_1">
  <g id="patch_1">
   <path d="M 0 394.782188 
L 521.920937 394.782188 
L 521.920937 -0 
L 0 -0 
z
" style="fill: #ffffff"/>
  </g>
  <g id="axes_1">
   <g id="patch_2">
    <path d="M 68.320938 354.958125 
L 514.720937 354.958125 
L 514.720937 22.318125 
L 68.320938 22.318125 
z
" style="fill: #ffffff"/>
   </g>
   <g id="matplotlib.axis_1">
    <g id="xtick_1">
     <g id="line2d_1">
      <defs>
       <path id="m159b7d3f0e" d="M 0 0 
L 0 4.8 
" style="stroke: #000000"/>
      </defs>
      <g>
       <use xlink:href="#m159b7d3f0e" x="142.720937" y="354.958125" style="stroke: #000000"/>
      </g>
     </g>
     <g id="text_1">
      <!-- ghspec -->
      <g transform="translate(124.773281 370.856562) scale(0.1 -0.1)">
       <defs>
        <path id="DejaVuSans-67" d="M 2906 1791 
Q 2906 2416 2648 2759 
Q 2391 3103 1925 3103 
Q 1463 3103 1205 2759 
Q 947 2416 947 1791 
Q 947 1169 1205 825 
Q 1463 481 1925 481 
Q 2391 481 2648 825 
Q 2906 1169 2906 1791 
z
M 3481 434 
Q 3481 -459 3084 -895 
Q 2688 -1331 1869 -1331 
Q 1566 -1331 1297 -1286 
Q 1028 -1241 775 -1147 
L 775 -588 
Q 1028 -725 1275 -790 
Q 1522 -856 1778 -856 
Q 2344 -856 2625 -561 
Q 2906 -266 2906 331 
L 2906 616 
Q 2728 306 2450 153 
Q 2172 0 1784 0 
Q 1141 0 747 490 
Q 353 981 353 1791 
Q 353 2603 747 3093 
Q 1141 3584 1784 3584 
Q 2172 3584 2450 3431 
Q 2728 3278 2906 2969 
L 2906 3500 
L 3481 3500 
L 3481 434 
z
" transform="scale(0.015625)"/>
        <path id="DejaVuSans-68" d="M 3513 2113 
L 3513 0 
L 2938 0 
L 2938 2094 
Q 2938 2591 2744 2837 
Q 2550 3084 2163 3084 
Q 1697 3084 1428 2787 
Q 1159 2491 1159 1978 
L 1159 0 
L 581 0 
L 581 4863 
L 1159 4863 
L 1159 2956 
Q 1366 3272 1645 3428 
Q 1925 3584 2291 3584 
Q 2894 3584 3203 3211 
Q 3513 2838 3513 2113 
z
" transform="scale(0.015625)"/>
        <path id="DejaVuSans-73" d="M 2834 3397 
L 2834 2853 
Q 2591 2978 2328 3040 
Q 2066 3103 1784 3103 
Q 1356 3103 1142 2972 
Q 928 2841 928 2578 
Q 928 2378 1081 2264 
Q 1234 2150 1697 2047 
L 1894 2003 
Q 2506 1872 2764 1633 
Q 3022 1394 3022 966 
Q 3022 478 2636 193 
Q 2250 -91 1575 -91 
Q 1294 -91 989 -36 
Q 684 19 347 128 
L 347 722 
Q 666 556 975 473 
Q 1284 391 1588 391 
Q 1994 391 2212 530 
Q 2431 669 2431 922 
Q 2431 1156 2273 1281 
Q 2116 1406 1581 1522 
L 1381 1569 
Q 847 1681 609 1914 
Q 372 2147 372 2553 
Q 372 3047 722 3315 
Q 1072 3584 1716 3584 
Q 2034 3584 2315 3537 
Q 2597 3491 2834 3397 
z
" transform="scale(0.015625)"/>
        <path id="DejaVuSans-70" d="M 1159 525 
L 1159 -1331 
L 581 -1331 
L 581 3500 
L 1159 3500 
L 1159 2969 
Q 1341 3281 1617 3432 
Q 1894 3584 2278 3584 
Q 2916 3584 3314 3078 
Q 3713 2572 3713 1747 
Q 3713 922 3314 415 
Q 2916 -91 2278 -91 
Q 1894 -91 1617 61 
Q 1341 213 1159 525 
z
M 3116 1747 
Q 3116 2381 2855 2742 
Q 2594 3103 2138 3103 
Q 1681 3103 1420 2742 
Q 1159 2381 1159 1747 
Q 1159 1113 1420 752 
Q 1681 391 2138 391 
Q 2594 391 2855 752 
Q 3116 1113 3116 1747 
z
" transform="scale(0.015625)"/>
        <path id="DejaVuSans-65" d="M 3597 1894 
L 3597 1613 
L 953 1613 
Q 991 1019 1311 708 
Q 1631 397 2203 397 
Q 2534 397 2845 478 
Q 3156 559 3463 722 
L 3463 178 
Q 3153 47 2828 -22 
Q 2503 -91 2169 -91 
Q 1331 -91 842 396 
Q 353 884 353 1716 
Q 353 2575 817 3079 
Q 1281 3584 2069 3584 
Q 2775 3584 3186 3129 
Q 3597 2675 3597 1894 
z
M 3022 2063 
Q 3016 2534 2758 2815 
Q 2500 3097 2075 3097 
Q 1594 3097 1305 2825 
Q 1016 2553 972 2059 
L 3022 2063 
z
" transform="scale(0.015625)"/>
        <path id="DejaVuSans-63" d="M 3122 3366 
L 3122 2828 
Q 2878 2963 2633 3030 
Q 2388 3097 2138 3097 
Q 1578 3097 1268 2742 
Q 959 2388 959 1747 
Q 959 1106 1268 751 
Q 1578 397 2138 397 
Q 2388 397 2633 464 
Q 2878 531 3122 666 
L 3122 134 
Q 2881 22 2623 -34 
Q 2366 -91 2075 -91 
Q 1284 -91 818 406 
Q 353 903 353 1747 
Q 353 2603 823 3093 
Q 1294 3584 2113 3584 
Q 2378 3584 2631 3529 
Q 2884 3475 3122 3366 
z
" transform="scale(0.015625)"/>
       </defs>
       <use xlink:href="#DejaVuSans-67"/>
       <use xlink:href="#DejaVuSans-68" x="63.476562"/>
       <use xlink:href="#DejaVuSans-73" x="126.855469"/>
       <use xlink:href="#DejaVuSans-70" x="178.955078"/>
       <use xlink:href="#DejaVuSans-65" x="242.431641"/>
       <use xlink:href="#DejaVuSans-63" x="303.955078"/>
      </g>
     </g>
    </g>
    <g id="xtick_2">
     <g id="line2d_2">
      <g>
       <use xlink:href="#m159b7d3f0e" x="291.520937" y="354.958125" style="stroke: #000000"/>
      </g>
     </g>
     <g id="text_2">
      <!-- baes -->
      <g transform="translate(279.601406 370.856562) scale(0.1 -0.1)">
       <defs>
        <path id="DejaVuSans-62" d="M 3116 1747 
Q 3116 2381 2855 2742 
Q 2594 3103 2138 3103 
Q 1681 3103 1420 2742 
Q 1159 2381 1159 1747 
Q 1159 1113 1420 752 
Q 1681 391 2138 391 
Q 2594 391 2855 752 
Q 3116 1113 3116 1747 
z
M 1159 2969 
Q 1341 3281 1617 3432 
Q 1894 3584 2278 3584 
Q 2916 3584 3314 3078 
Q 3713 2572 3713 1747 
Q 3713 922 3314 415 
Q 2916 -91 2278 -91 
Q 1894 -91 1617 61 
Q 1341 213 1159 525 
L 1159 0 
L 581 0 
L 581 4863 
L 1159 4863 
L 1159 2969 
z
" transform="scale(0.015625)"/>
        <path id="DejaVuSans-61" d="M 2194 1759 
Q 1497 1759 1228 1600 
Q 959 1441 959 1056 
Q 959 750 1161 570 
Q 1363 391 1709 391 
Q 2188 391 2477 730 
Q 2766 1069 2766 1631 
L 2766 1759 
L 2194 1759 
z
M 3341 1997 
L 3341 0 
L 2766 0 
L 2766 531 
Q 2569 213 2275 61 
Q 1981 -91 1556 -91 
Q 1019 -91 701 211 
Q 384 513 384 1019 
Q 384 1609 779 1909 
Q 1175 2209 1959 2209 
L 2766 2209 
L 2766 2266 
Q 2766 2663 2505 2880 
Q 2244 3097 1772 3097 
Q 1472 3097 1187 3025 
Q 903 2953 641 2809 
L 641 3341 
Q 956 3463 1253 3523 
Q 1550 3584 1831 3584 
Q 2591 3584 2966 3190 
Q 3341 2797 3341 1997 
z
" transform="scale(0.015625)"/>
       </defs>
       <use xlink:href="#DejaVuSans-62"/>
       <use xlink:href="#DejaVuSans-61" x="63.476562"/>
       <use xlink:href="#DejaVuSans-65" x="124.755859"/>
       <use xlink:href="#DejaVuSans-73" x="186.279297"/>
      </g>
     </g>
    </g>
    <g id="xtick_3">
     <g id="line2d_3">
      <g>
       <use xlink:href="#m159b7d3f0e" x="440.320937" y="354.958125" style="stroke: #000000"/>
      </g>
     </g>
     <g id="text_3">
      <!-- chatdev -->
      <g transform="translate(420.168594 370.856562) scale(0.1 -0.1)">
       <defs>
        <path id="DejaVuSans-74" d="M 1172 4494 
L 1172 3500 
L 2356 3500 
L 2356 3053 
L 1172 3053 
L 1172 1153 
Q 1172 725 1289 603 
Q 1406 481 1766 481 
L 2356 481 
L 2356 0 
L 1766 0 
Q 1100 0 847 248 
Q 594 497 594 1153 
L 594 3053 
L 172 3053 
L 172 3500 
L 594 3500 
L 594 4494 
L 1172 4494 
z
" transform="scale(0.015625)"/>
        <path id="DejaVuSans-64" d="M 2906 2969 
L 2906 4863 
L 3481 4863 
L 3481 0 
L 2906 0 
L 2906 525 
Q 2725 213 2448 61 
Q 2172 -91 1784 -91 
Q 1150 -91 751 415 
Q 353 922 353 1747 
Q 353 2572 751 3078 
Q 1150 3584 1784 3584 
Q 2172 3584 2448 3432 
Q 2725 3281 2906 2969 
z
M 947 1747 
Q 947 1113 1208 752 
Q 1469 391 1925 391 
Q 2381 391 2643 752 
Q 2906 1113 2906 1747 
Q 2906 2381 2643 2742 
Q 2381 3103 1925 3103 
Q 1469 3103 1208 2742 
Q 947 2381 947 1747 
z
" transform="scale(0.015625)"/>
        <path id="DejaVuSans-76" d="M 191 3500 
L 800 3500 
L 1894 563 
L 2988 3500 
L 3597 3500 
L 2284 0 
L 1503 0 
L 191 3500 
z
" transform="scale(0.015625)"/>
       </defs>
       <use xlink:href="#DejaVuSans-63"/>
       <use xlink:href="#DejaVuSans-68" x="54.980469"/>
       <use xlink:href="#DejaVuSans-61" x="118.359375"/>
       <use xlink:href="#DejaVuSans-74" x="179.638672"/>
       <use xlink:href="#DejaVuSans-64" x="218.847656"/>
       <use xlink:href="#DejaVuSans-65" x="282.324219"/>
       <use xlink:href="#DejaVuSans-76" x="343.847656"/>
      </g>
     </g>
    </g>
    <g id="text_4">
     <!-- Framework -->
     <g transform="translate(261.074141 385.294531) scale(0.11 -0.11)">
      <defs>
       <path id="DejaVuSans-46" d="M 628 4666 
L 3309 4666 
L 3309 4134 
L 1259 4134 
L 1259 2759 
L 3109 2759 
L 3109 2228 
L 1259 2228 
L 1259 0 
L 628 0 
L 628 4666 
z
" transform="scale(0.015625)"/>
       <path id="DejaVuSans-72" d="M 2631 2963 
Q 2534 3019 2420 3045 
Q 2306 3072 2169 3072 
Q 1681 3072 1420 2755 
Q 1159 2438 1159 1844 
L 1159 0 
L 581 0 
L 581 3500 
L 1159 3500 
L 1159 2956 
Q 1341 3275 1631 3429 
Q 1922 3584 2338 3584 
Q 2397 3584 2469 3576 
Q 2541 3569 2628 3553 
L 2631 2963 
z
" transform="scale(0.015625)"/>
       <path id="DejaVuSans-6d" d="M 3328 2828 
Q 3544 3216 3844 3400 
Q 4144 3584 4550 3584 
Q 5097 3584 5394 3201 
Q 5691 2819 5691 2113 
L 5691 0 
L 5113 0 
L 5113 2094 
Q 5113 2597 4934 2840 
Q 4756 3084 4391 3084 
Q 3944 3084 3684 2787 
Q 3425 2491 3425 1978 
L 3425 0 
L 2847 0 
L 2847 2094 
Q 2847 2600 2669 2842 
Q 2491 3084 2119 3084 
Q 1678 3084 1418 2786 
Q 1159 2488 1159 1978 
L 1159 0 
L 581 0 
L 581 3500 
L 1159 3500 
L 1159 2956 
Q 1356 3278 1631 3431 
Q 1906 3584 2284 3584 
Q 2666 3584 2933 3390 
Q 3200 3197 3328 2828 
z
" transform="scale(0.015625)"/>
       <path id="DejaVuSans-77" d="M 269 3500 
L 844 3500 
L 1563 769 
L 2278 3500 
L 2956 3500 
L 3675 769 
L 4391 3500 
L 4966 3500 
L 4050 0 
L 3372 0 
L 2619 2869 
L 1863 0 
L 1184 0 
L 269 3500 
z
" transform="scale(0.015625)"/>
       <path id="DejaVuSans-6f" d="M 1959 3097 
Q 1497 3097 1228 2736 
Q 959 2375 959 1747 
Q 959 1119 1226 758 
Q 1494 397 1959 397 
Q 2419 397 2687 759 
Q 2956 1122 2956 1747 
Q 2956 2369 2687 2733 
Q 2419 3097 1959 3097 
z
M 1959 3584 
Q 2709 3584 3137 3096 
Q 3566 2609 3566 1747 
Q 3566 888 3137 398 
Q 2709 -91 1959 -91 
Q 1206 -91 779 398 
Q 353 888 353 1747 
Q 353 2609 779 3096 
Q 1206 3584 1959 3584 
z
" transform="scale(0.015625)"/>
       <path id="DejaVuSans-6b" d="M 581 4863 
L 1159 4863 
L 1159 1991 
L 2875 3500 
L 3609 3500 
L 1753 1863 
L 3688 0 
L 2938 0 
L 1159 1709 
L 1159 0 
L 581 0 
L 581 4863 
z
" transform="scale(0.015625)"/>
      </defs>
      <use xlink:href="#DejaVuSans-46"/>
      <use xlink:href="#DejaVuSans-72" x="50.269531"/>
      <use xlink:href="#DejaVuSans-61" x="91.382812"/>
      <use xlink:href="#DejaVuSans-6d" x="152.662109"/>
      <use xlink:href="#DejaVuSans-65" x="250.074219"/>
      <use xlink:href="#DejaVuSans-77" x="311.597656"/>
      <use xlink:href="#DejaVuSans-6f" x="393.384766"/>
      <use xlink:href="#DejaVuSans-72" x="454.566406"/>
      <use xlink:href="#DejaVuSans-6b" x="495.679688"/>
     </g>
    </g>
   </g>
   <g id="matplotlib.axis_2">
    <g id="ytick_1">
     <g id="line2d_4">
      <path d="M 68.320938 331.601061 
L 514.720937 331.601061 
" clip-path="url(#p9102ef8ebc)" style="fill: none; stroke: #b0b0b0; stroke-opacity: 0.3; stroke-width: 0.8; stroke-linecap: square"/>
     </g>
     <g id="line2d_5">
      <defs>
       <path id="m7dab55acde" d="M 0 0 
L -4.8 0 
" style="stroke: #000000"/>
      </defs>
      <g>
       <use xlink:href="#m7dab55acde" x="68.320938" y="331.601061" style="stroke: #000000"/>
      </g>
     </g>
     <g id="text_5">
      <!-- 0 -->
      <g transform="translate(53.658438 335.40028) scale(0.1 -0.1)">
       <defs>
        <path id="DejaVuSans-30" d="M 2034 4250 
Q 1547 4250 1301 3770 
Q 1056 3291 1056 2328 
Q 1056 1369 1301 889 
Q 1547 409 2034 409 
Q 2525 409 2770 889 
Q 3016 1369 3016 2328 
Q 3016 3291 2770 3770 
Q 2525 4250 2034 4250 
z
M 2034 4750 
Q 2819 4750 3233 4129 
Q 3647 3509 3647 2328 
Q 3647 1150 3233 529 
Q 2819 -91 2034 -91 
Q 1250 -91 836 529 
Q 422 1150 422 2328 
Q 422 3509 836 4129 
Q 1250 4750 2034 4750 
z
" transform="scale(0.015625)"/>
       </defs>
       <use xlink:href="#DejaVuSans-30"/>
      </g>
     </g>
    </g>
    <g id="ytick_2">
     <g id="line2d_6">
      <path d="M 68.320938 264.026799 
L 514.720937 264.026799 
" clip-path="url(#p9102ef8ebc)" style="fill: none; stroke: #b0b0b0; stroke-opacity: 0.3; stroke-width: 0.8; stroke-linecap: square"/>
     </g>
     <g id="line2d_7">
      <g>
       <use xlink:href="#m7dab55acde" x="68.320938" y="264.026799" style="stroke: #000000"/>
      </g>
     </g>
     <g id="text_6">
      <!-- 50000 -->
      <g transform="translate(28.208438 267.826018) scale(0.1 -0.1)">
       <defs>
        <path id="DejaVuSans-35" d="M 691 4666 
L 3169 4666 
L 3169 4134 
L 1269 4134 
L 1269 2991 
Q 1406 3038 1543 3061 
Q 1681 3084 1819 3084 
Q 2600 3084 3056 2656 
Q 3513 2228 3513 1497 
Q 3513 744 3044 326 
Q 2575 -91 1722 -91 
Q 1428 -91 1123 -41 
Q 819 9 494 109 
L 494 744 
Q 775 591 1075 516 
Q 1375 441 1709 441 
Q 2250 441 2565 725 
Q 2881 1009 2881 1497 
Q 2881 1984 2565 2268 
Q 2250 2553 1709 2553 
Q 1456 2553 1204 2497 
Q 953 2441 691 2322 
L 691 4666 
z
" transform="scale(0.015625)"/>
       </defs>
       <use xlink:href="#DejaVuSans-35"/>
       <use xlink:href="#DejaVuSans-30" x="63.623047"/>
       <use xlink:href="#DejaVuSans-30" x="127.246094"/>
       <use xlink:href="#DejaVuSans-30" x="190.869141"/>
       <use xlink:href="#DejaVuSans-30" x="254.492188"/>
      </g>
     </g>
    </g>
    <g id="ytick_3">
     <g id="line2d_8">
      <path d="M 68.320938 196.452537 
L 514.720937 196.452537 
" clip-path="url(#p9102ef8ebc)" style="fill: none; stroke: #b0b0b0; stroke-opacity: 0.3; stroke-width: 0.8; stroke-linecap: square"/>
     </g>
     <g id="line2d_9">
      <g>
       <use xlink:href="#m7dab55acde" x="68.320938" y="196.452537" style="stroke: #000000"/>
      </g>
     </g>
     <g id="text_7">
      <!-- 100000 -->
      <g transform="translate(21.845938 200.251756) scale(0.1 -0.1)">
       <defs>
        <path id="DejaVuSans-31" d="M 794 531 
L 1825 531 
L 1825 4091 
L 703 3866 
L 703 4441 
L 1819 4666 
L 2450 4666 
L 2450 531 
L 3481 531 
L 3481 0 
L 794 0 
L 794 531 
z
" transform="scale(0.015625)"/>
       </defs>
       <use xlink:href="#DejaVuSans-31"/>
       <use xlink:href="#DejaVuSans-30" x="63.623047"/>
       <use xlink:href="#DejaVuSans-30" x="127.246094"/>
       <use xlink:href="#DejaVuSans-30" x="190.869141"/>
       <use xlink:href="#DejaVuSans-30" x="254.492188"/>
       <use xlink:href="#DejaVuSans-30" x="318.115234"/>
      </g>
     </g>
    </g>
    <g id="ytick_4">
     <g id="line2d_10">
      <path d="M 68.320938 128.878275 
L 514.720937 128.878275 
" clip-path="url(#p9102ef8ebc)" style="fill: none; stroke: #b0b0b0; stroke-opacity: 0.3; stroke-width: 0.8; stroke-linecap: square"/>
     </g>
     <g id="line2d_11">
      <g>
       <use xlink:href="#m7dab55acde" x="68.320938" y="128.878275" style="stroke: #000000"/>
      </g>
     </g>
     <g id="text_8">
      <!-- 150000 -->
      <g transform="translate(21.845938 132.677494) scale(0.1 -0.1)">
       <use xlink:href="#DejaVuSans-31"/>
       <use xlink:href="#DejaVuSans-35" x="63.623047"/>
       <use xlink:href="#DejaVuSans-30" x="127.246094"/>
       <use xlink:href="#DejaVuSans-30" x="190.869141"/>
       <use xlink:href="#DejaVuSans-30" x="254.492188"/>
       <use xlink:href="#DejaVuSans-30" x="318.115234"/>
      </g>
     </g>
    </g>
    <g id="ytick_5">
     <g id="line2d_12">
      <path d="M 68.320938 61.304013 
L 514.720937 61.304013 
" clip-path="url(#p9102ef8ebc)" style="fill: none; stroke: #b0b0b0; stroke-opacity: 0.3; stroke-width: 0.8; stroke-linecap: square"/>
     </g>
     <g id="line2d_13">
      <g>
       <use xlink:href="#m7dab55acde" x="68.320938" y="61.304013" style="stroke: #000000"/>
      </g>
     </g>
     <g id="text_9">
      <!-- 200000 -->
      <g transform="translate(21.845938 65.103232) scale(0.1 -0.1)">
       <defs>
        <path id="DejaVuSans-32" d="M 1228 531 
L 3431 531 
L 3431 0 
L 469 0 
L 469 531 
Q 828 903 1448 1529 
Q 2069 2156 2228 2338 
Q 2531 2678 2651 2914 
Q 2772 3150 2772 3378 
Q 2772 3750 2511 3984 
Q 2250 4219 1831 4219 
Q 1534 4219 1204 4116 
Q 875 4013 500 3803 
L 500 4441 
Q 881 4594 1212 4672 
Q 1544 4750 1819 4750 
Q 2544 4750 2975 4387 
Q 3406 4025 3406 3419 
Q 3406 3131 3298 2873 
Q 3191 2616 2906 2266 
Q 2828 2175 2409 1742 
Q 1991 1309 1228 531 
z
" transform="scale(0.015625)"/>
       </defs>
       <use xlink:href="#DejaVuSans-32"/>
       <use xlink:href="#DejaVuSans-30" x="63.623047"/>
       <use xlink:href="#DejaVuSans-30" x="127.246094"/>
       <use xlink:href="#DejaVuSans-30" x="190.869141"/>
       <use xlink:href="#DejaVuSans-30" x="254.492188"/>
       <use xlink:href="#DejaVuSans-30" x="318.115234"/>
      </g>
     </g>
    </g>
    <g id="text_10">
     <!-- Cached Tokens (count) -->
     <g transform="translate(15.558281 251.049375) rotate(-90) scale(0.11 -0.11)">
      <defs>
       <path id="DejaVuSans-43" d="M 4122 4306 
L 4122 3641 
Q 3803 3938 3442 4084 
Q 3081 4231 2675 4231 
Q 1875 4231 1450 3742 
Q 1025 3253 1025 2328 
Q 1025 1406 1450 917 
Q 1875 428 2675 428 
Q 3081 428 3442 575 
Q 3803 722 4122 1019 
L 4122 359 
Q 3791 134 3420 21 
Q 3050 -91 2638 -91 
Q 1578 -91 968 557 
Q 359 1206 359 2328 
Q 359 3453 968 4101 
Q 1578 4750 2638 4750 
Q 3056 4750 3426 4639 
Q 3797 4528 4122 4306 
z
" transform="scale(0.015625)"/>
       <path id="DejaVuSans-20" transform="scale(0.015625)"/>
       <path id="DejaVuSans-54" d="M -19 4666 
L 3928 4666 
L 3928 4134 
L 2272 4134 
L 2272 0 
L 1638 0 
L 1638 4134 
L -19 4134 
L -19 4666 
z
" transform="scale(0.015625)"/>
       <path id="DejaVuSans-6e" d="M 3513 2113 
L 3513 0 
L 2938 0 
L 2938 2094 
Q 2938 2591 2744 2837 
Q 2550 3084 2163 3084 
Q 1697 3084 1428 2787 
Q 1159 2491 1159 1978 
L 1159 0 
L 581 0 
L 581 3500 
L 1159 3500 
L 1159 2956 
Q 1366 3272 1645 3428 
Q 1925 3584 2291 3584 
Q 2894 3584 3203 3211 
Q 3513 2838 3513 2113 
z
" transform="scale(0.015625)"/>
       <path id="DejaVuSans-28" d="M 1984 4856 
Q 1566 4138 1362 3434 
Q 1159 2731 1159 2009 
Q 1159 1288 1364 580 
Q 1569 -128 1984 -844 
L 1484 -844 
Q 1016 -109 783 600 
Q 550 1309 550 2009 
Q 550 2706 781 3412 
Q 1013 4119 1484 4856 
L 1984 4856 
z
" transform="scale(0.015625)"/>
       <path id="DejaVuSans-75" d="M 544 1381 
L 544 3500 
L 1119 3500 
L 1119 1403 
Q 1119 906 1312 657 
Q 1506 409 1894 409 
Q 2359 409 2629 706 
Q 2900 1003 2900 1516 
L 2900 3500 
L 3475 3500 
L 3475 0 
L 2900 0 
L 2900 538 
Q 2691 219 2414 64 
Q 2138 -91 1772 -91 
Q 1169 -91 856 284 
Q 544 659 544 1381 
z
M 1991 3584 
L 1991 3584 
z
" transform="scale(0.015625)"/>
       <path id="DejaVuSans-29" d="M 513 4856 
L 1013 4856 
Q 1481 4119 1714 3412 
Q 1947 2706 1947 2009 
Q 1947 1309 1714 600 
Q 1481 -109 1013 -844 
L 513 -844 
Q 928 -128 1133 580 
Q 1338 1288 1338 2009 
Q 1338 2731 1133 3434 
Q 928 4138 513 4856 
z
" transform="scale(0.015625)"/>
      </defs>
      <use xlink:href="#DejaVuSans-43"/>
      <use xlink:href="#DejaVuSans-61" x="69.824219"/>
      <use xlink:href="#DejaVuSans-63" x="131.103516"/>
      <use xlink:href="#DejaVuSans-68" x="186.083984"/>
      <use xlink:href="#DejaVuSans-65" x="249.462891"/>
      <use xlink:href="#DejaVuSans-64" x="310.986328"/>
      <use xlink:href="#DejaVuSans-20" x="374.462891"/>
      <use xlink:href="#DejaVuSans-54" x="406.25"/>
      <use xlink:href="#DejaVuSans-6f" x="450.333984"/>
      <use xlink:href="#DejaVuSans-6b" x="511.515625"/>
      <use xlink:href="#DejaVuSans-65" x="565.800781"/>
      <use xlink:href="#DejaVuSans-6e" x="627.324219"/>
      <use xlink:href="#DejaVuSans-73" x="690.703125"/>
      <use xlink:href="#DejaVuSans-20" x="742.802734"/>
      <use xlink:href="#DejaVuSans-28" x="774.589844"/>
      <use xlink:href="#DejaVuSans-63" x="813.603516"/>
      <use xlink:href="#DejaVuSans-6f" x="868.583984"/>
      <use xlink:href="#DejaVuSans-75" x="929.765625"/>
      <use xlink:href="#DejaVuSans-6e" x="993.144531"/>
      <use xlink:href="#DejaVuSans-74" x="1056.523438"/>
      <use xlink:href="#DejaVuSans-29" x="1095.732422"/>
     </g>
    </g>
   </g>
   <g id="PolyCollection_1">
    <defs>
     <path id="m1c4918eea5" d="M 142.725461 -195.438814 
L 142.716414 -195.438814 
L 142.71453 -197.07422 
L 142.712023 -198.709627 
L 142.708747 -200.345033 
L 142.704547 -201.98044 
L 142.699257 -203.615846 
L 142.692709 -205.251253 
L 142.68474 -206.886659 
L 142.675198 -208.522066 
L 142.663956 -210.157473 
L 142.650917 -211.792879 
L 142.636024 -213.428286 
L 142.619275 -215.063692 
L 142.600727 -216.699099 
L 142.580504 -218.334505 
L 142.558803 -219.969912 
L 142.535892 -221.605318 
L 142.512105 -223.240725 
L 142.487832 -224.876132 
L 142.4635 -226.511538 
L 142.439557 -228.146945 
L 142.41644 -229.782351 
L 142.39456 -231.417758 
L 142.374278 -233.053164 
L 142.355891 -234.688571 
L 142.339624 -236.323977 
L 142.325633 -237.959384 
L 142.314004 -239.594791 
L 142.304766 -241.230197 
L 142.297895 -242.865604 
L 142.293324 -244.50101 
L 142.290941 -246.136417 
L 142.290588 -247.771823 
L 142.292057 -249.40723 
L 142.295084 -251.042636 
L 142.299347 -252.678043 
L 142.304478 -254.31345 
L 142.31007 -255.948856 
L 142.315711 -257.584263 
L 142.32101 -259.219669 
L 142.325636 -260.855076 
L 142.329353 -262.490482 
L 142.332046 -264.125889 
L 142.333744 -265.761295 
L 142.334618 -267.396702 
L 142.334972 -269.032109 
L 142.335209 -270.667515 
L 142.335794 -272.302922 
L 142.337201 -273.938328 
L 142.339862 -275.573735 
L 142.344119 -277.209141 
L 142.350192 -278.844548 
L 142.358153 -280.479954 
L 142.367927 -282.115361 
L 142.379305 -283.750768 
L 142.391977 -285.386174 
L 142.405568 -287.021581 
L 142.419688 -288.656987 
L 142.433967 -290.292394 
L 142.448096 -291.9278 
L 142.461846 -293.563207 
L 142.475079 -295.198613 
L 142.487744 -296.83402 
L 142.49986 -298.469427 
L 142.511501 -300.104833 
L 142.522767 -301.74024 
L 142.533763 -303.375646 
L 142.544579 -305.011053 
L 142.555276 -306.646459 
L 142.565879 -308.281866 
L 142.576372 -309.917272 
L 142.586703 -311.552679 
L 142.596793 -313.188086 
L 142.606542 -314.823492 
L 142.615843 -316.458899 
L 142.624595 -318.094305 
L 142.632714 -319.729712 
L 142.640143 -321.365118 
L 142.646861 -323.000525 
L 142.652885 -324.635931 
L 142.658266 -326.271338 
L 142.663091 -327.906745 
L 142.667464 -329.542151 
L 142.6715 -331.177558 
L 142.675312 -332.812964 
L 142.678997 -334.448371 
L 142.682626 -336.083777 
L 142.68624 -337.719184 
L 142.68985 -339.35459 
L 142.693436 -340.989997 
L 142.696956 -342.625404 
L 142.700354 -344.26081 
L 142.703568 -345.896217 
L 142.706542 -347.531623 
L 142.709229 -349.16703 
L 142.711598 -350.802436 
L 142.713636 -352.437843 
L 142.715344 -354.073249 
L 142.716741 -355.708656 
L 142.717855 -357.344063 
L 142.72402 -357.344063 
L 142.72402 -357.344063 
L 142.725134 -355.708656 
L 142.726531 -354.073249 
L 142.728239 -352.437843 
L 142.730277 -350.802436 
L 142.732646 -349.16703 
L 142.735333 -347.531623 
L 142.738307 -345.896217 
L 142.741521 -344.26081 
L 142.744919 -342.625404 
L 142.748439 -340.989997 
L 142.752025 -339.35459 
L 142.755635 -337.719184 
L 142.759249 -336.083777 
L 142.762878 -334.448371 
L 142.766563 -332.812964 
L 142.770375 -331.177558 
L 142.774411 -329.542151 
L 142.778784 -327.906745 
L 142.783609 -326.271338 
L 142.78899 -324.635931 
L 142.795014 -323.000525 
L 142.801732 -321.365118 
L 142.809161 -319.729712 
L 142.81728 -318.094305 
L 142.826032 -316.458899 
L 142.835333 -314.823492 
L 142.845082 -313.188086 
L 142.855172 -311.552679 
L 142.865503 -309.917272 
L 142.875996 -308.281866 
L 142.886599 -306.646459 
L 142.897296 -305.011053 
L 142.908112 -303.375646 
L 142.919108 -301.74024 
L 142.930374 -300.104833 
L 142.942015 -298.469427 
L 142.954131 -296.83402 
L 142.966796 -295.198613 
L 142.980029 -293.563207 
L 142.993779 -291.9278 
L 143.007908 -290.292394 
L 143.022187 -288.656987 
L 143.036307 -287.021581 
L 143.049898 -285.386174 
L 143.06257 -283.750768 
L 143.073948 -282.115361 
L 143.083722 -280.479954 
L 143.091683 -278.844548 
L 143.097756 -277.209141 
L 143.102013 -275.573735 
L 143.104674 -273.938328 
L 143.106081 -272.302922 
L 143.106666 -270.667515 
L 143.106903 -269.032109 
L 143.107257 -267.396702 
L 143.108131 -265.761295 
L 143.109829 -264.125889 
L 143.112522 -262.490482 
L 143.116239 -260.855076 
L 143.120865 -259.219669 
L 143.126164 -257.584263 
L 143.131805 -255.948856 
L 143.137397 -254.31345 
L 143.142528 -252.678043 
L 143.146791 -251.042636 
L 143.149818 -249.40723 
L 143.151287 -247.771823 
L 143.150934 -246.136417 
L 143.148551 -244.50101 
L 143.14398 -242.865604 
L 143.137109 -241.230197 
L 143.127871 -239.594791 
L 143.116242 -237.959384 
L 143.102251 -236.323977 
L 143.085984 -234.688571 
L 143.067597 -233.053164 
L 143.047315 -231.417758 
L 143.025435 -229.782351 
L 143.002318 -228.146945 
L 142.978375 -226.511538 
L 142.954043 -224.876132 
L 142.92977 -223.240725 
L 142.905983 -221.605318 
L 142.883072 -219.969912 
L 142.861371 -218.334505 
L 142.841148 -216.699099 
L 142.8226 -215.063692 
L 142.805851 -213.428286 
L 142.790958 -211.792879 
L 142.777919 -210.157473 
L 142.766677 -208.522066 
L 142.757135 -206.886659 
L 142.749166 -205.251253 
L 142.742618 -203.615846 
L 142.737328 -201.98044 
L 142.733128 -200.345033 
L 142.729852 -198.709627 
L 142.727345 -197.07422 
L 142.725461 -195.438814 
z
" style="stroke: #303030; stroke-width: 1.2"/>
    </defs>
    <g clip-path="url(#p9102ef8ebc)">
     <use xlink:href="#m1c4918eea5" x="0" y="394.782188" style="fill: #176d9c; stroke: #303030; stroke-width: 1.2"/>
    </g>
   </g>
   <g id="PolyCollection_2">
    <defs>
     <path id="mdea5d55c01" d="M 299.613944 -62.747583 
L 283.427931 -62.747583 
L 279.479154 -62.793036 
L 274.374372 -62.838489 
L 268.15577 -62.883943 
L 261.051384 -62.929396 
L 253.495985 -62.974849 
L 246.108303 -63.020303 
L 239.618217 -63.065756 
L 234.752235 -63.111209 
L 232.100857 -63.156663 
L 232.000937 -63.202116 
L 234.465371 -63.247569 
L 239.180356 -63.293022 
L 245.571047 -63.338476 
L 252.916624 -63.383929 
L 260.483017 -63.429382 
L 267.639811 -63.474836 
L 273.936746 -63.520289 
L 279.130249 -63.565742 
L 283.16541 -63.611196 
L 286.12884 -63.656649 
L 288.190916 -63.702102 
L 289.552862 -63.747556 
L 290.407818 -63.793009 
L 290.918451 -63.838462 
L 291.208863 -63.883916 
L 291.366243 -63.929369 
L 291.447554 -63.974822 
L 291.487624 -64.020276 
L 291.506465 -64.065729 
L 291.51492 -64.111182 
L 291.518543 -64.156636 
L 291.520026 -64.202089 
L 291.520605 -64.247542 
L 291.520821 -64.292996 
L 291.520897 -64.338449 
L 291.52092 -64.383902 
L 291.520919 -64.429356 
L 291.520899 -64.474809 
L 291.520845 -64.520262 
L 291.52072 -64.565716 
L 291.520446 -64.611169 
L 291.519876 -64.656622 
L 291.518743 -64.702076 
L 291.516597 -64.747529 
L 291.51272 -64.792982 
L 291.506051 -64.838436 
L 291.49513 -64.883889 
L 291.478121 -64.929342 
L 291.452957 -64.974796 
L 291.417646 -65.020249 
L 291.370744 -65.065702 
L 291.31194 -65.111156 
L 291.242622 -65.156609 
L 291.166256 -65.202062 
L 291.088379 -65.247516 
L 291.016094 -65.292969 
L 290.957074 -65.338422 
L 290.918243 -65.383876 
L 290.904449 -65.429329 
L 290.917463 -65.474782 
L 290.955612 -65.520236 
L 291.014128 -65.565689 
L 291.086127 -65.611142 
L 291.163934 -65.656596 
L 291.2404 -65.702049 
L 291.309909 -65.747502 
L 291.368879 -65.792956 
L 291.41576 -65.838409 
L 291.450625 -65.883862 
L 291.474541 -65.929316 
L 291.488897 -65.974769 
L 291.494821 -66.020222 
L 291.492748 -66.065676 
L 291.482189 -66.111129 
L 291.461688 -66.156582 
L 291.428986 -66.202036 
L 291.381404 -66.247489 
L 291.316429 -66.292942 
L 291.23246 -66.338395 
L 291.129607 -66.383849 
L 291.010388 -66.429302 
L 290.880113 -66.474755 
L 290.746801 -66.520209 
L 290.62053 -66.565662 
L 290.512266 -66.611115 
L 290.432338 -66.656569 
L 290.388857 -66.702022 
L 290.386391 -66.747475 
L 290.425204 -66.792929 
L 290.501206 -66.838382 
L 290.606643 -66.883835 
L 290.731367 -66.929289 
L 290.864407 -66.974742 
L 290.995512 -67.020195 
L 291.116384 -67.065649 
L 291.221397 -67.111102 
L 291.307752 -67.156555 
L 291.375161 -67.202009 
L 291.425205 -67.247462 
L 291.61667 -67.247462 
L 291.61667 -67.247462 
L 291.666714 -67.202009 
L 291.734123 -67.156555 
L 291.820478 -67.111102 
L 291.925491 -67.065649 
L 292.046363 -67.020195 
L 292.177468 -66.974742 
L 292.310508 -66.929289 
L 292.435232 -66.883835 
L 292.540669 -66.838382 
L 292.616671 -66.792929 
L 292.655484 -66.747475 
L 292.653018 -66.702022 
L 292.609537 -66.656569 
L 292.529609 -66.611115 
L 292.421345 -66.565662 
L 292.295074 -66.520209 
L 292.161762 -66.474755 
L 292.031487 -66.429302 
L 291.912268 -66.383849 
L 291.809415 -66.338395 
L 291.725446 -66.292942 
L 291.660471 -66.247489 
L 291.612889 -66.202036 
L 291.580187 -66.156582 
L 291.559686 -66.111129 
L 291.549127 -66.065676 
L 291.547054 -66.020222 
L 291.552978 -65.974769 
L 291.567334 -65.929316 
L 291.59125 -65.883862 
L 291.626115 -65.838409 
L 291.672996 -65.792956 
L 291.731966 -65.747502 
L 291.801475 -65.702049 
L 291.877941 -65.656596 
L 291.955748 -65.611142 
L 292.027747 -65.565689 
L 292.086263 -65.520236 
L 292.124412 -65.474782 
L 292.137426 -65.429329 
L 292.123632 -65.383876 
L 292.084801 -65.338422 
L 292.025781 -65.292969 
L 291.953496 -65.247516 
L 291.875619 -65.202062 
L 291.799253 -65.156609 
L 291.729935 -65.111156 
L 291.671131 -65.065702 
L 291.624229 -65.020249 
L 291.588918 -64.974796 
L 291.563754 -64.929342 
L 291.546745 -64.883889 
L 291.535824 -64.838436 
L 291.529155 -64.792982 
L 291.525278 -64.747529 
L 291.523132 -64.702076 
L 291.521999 -64.656622 
L 291.521429 -64.611169 
L 291.521155 -64.565716 
L 291.52103 -64.520262 
L 291.520976 -64.474809 
L 291.520956 -64.429356 
L 291.520955 -64.383902 
L 291.520978 -64.338449 
L 291.521054 -64.292996 
L 291.52127 -64.247542 
L 291.521849 -64.202089 
L 291.523332 -64.156636 
L 291.526955 -64.111182 
L 291.53541 -64.065729 
L 291.554251 -64.020276 
L 291.594321 -63.974822 
L 291.675632 -63.929369 
L 291.833012 -63.883916 
L 292.123424 -63.838462 
L 292.634057 -63.793009 
L 293.489013 -63.747556 
L 294.850959 -63.702102 
L 296.913035 -63.656649 
L 299.876465 -63.611196 
L 303.911626 -63.565742 
L 309.105129 -63.520289 
L 315.402064 -63.474836 
L 322.558858 -63.429382 
L 330.125251 -63.383929 
L 337.470828 -63.338476 
L 343.861519 -63.293022 
L 348.576504 -63.247569 
L 351.040937 -63.202116 
L 350.941018 -63.156663 
L 348.28964 -63.111209 
L 343.423658 -63.065756 
L 336.933572 -63.020303 
L 329.54589 -62.974849 
L 321.990491 -62.929396 
L 314.886105 -62.883943 
L 308.667503 -62.838489 
L 303.562721 -62.793036 
L 299.613944 -62.747583 
z
" style="stroke: #303030; stroke-width: 1.2"/>
    </defs>
    <g clip-path="url(#p9102ef8ebc)">
     <use xlink:href="#mdea5d55c01" x="0" y="394.782188" style="fill: #c38820; stroke: #303030; stroke-width: 1.2"/>
    </g>
   </g>
   <g id="PolyCollection_3">
    <defs>
     <path id="madbe6951dc" d="M 440.337049 -54.944063 
L 440.304826 -54.944063 
L 440.296607 -55.648659 
L 440.28502 -56.353256 
L 440.269074 -57.057853 
L 440.247642 -57.76245 
L 440.219498 -58.467046 
L 440.183363 -59.171643 
L 440.137986 -59.87624 
L 440.082233 -60.580837 
L 440.015192 -61.285434 
L 439.936286 -61.99003 
L 439.845395 -62.694627 
L 439.742958 -63.399224 
L 439.630067 -64.103821 
L 439.508515 -64.808417 
L 439.380805 -65.513014 
L 439.250099 -66.217611 
L 439.120095 -66.922208 
L 438.994857 -67.626805 
L 438.878583 -68.331401 
L 438.775347 -69.035998 
L 438.688831 -69.740595 
L 438.62208 -70.445192 
L 438.577292 -71.149789 
L 438.555675 -71.854385 
L 438.557369 -72.558982 
L 438.581444 -73.263579 
L 438.625976 -73.968176 
L 438.688185 -74.672772 
L 438.764639 -75.377369 
L 438.851503 -76.081966 
L 438.944811 -76.786563 
L 439.040747 -77.49116 
L 439.135902 -78.195756 
L 439.22749 -78.900353 
L 439.313489 -79.60495 
L 439.392705 -80.309547 
L 439.464745 -81.014143 
L 439.529918 -81.71874 
L 439.589067 -82.423337 
L 439.643366 -83.127934 
L 439.694111 -83.832531 
L 439.74252 -84.537127 
L 439.789575 -85.241724 
L 439.835915 -85.946321 
L 439.881789 -86.650918 
L 439.92706 -87.355515 
L 439.971256 -88.060111 
L 440.013657 -88.764708 
L 440.053398 -89.469305 
L 440.089571 -90.173902 
L 440.121329 -90.878498 
L 440.147965 -91.583095 
L 440.168979 -92.287692 
L 440.184116 -92.992289 
L 440.193392 -93.696886 
L 440.19709 -94.401482 
L 440.195743 -95.106079 
L 440.190095 -95.810676 
L 440.181062 -96.515273 
L 440.16967 -97.219869 
L 440.156998 -97.924466 
L 440.144122 -98.629063 
L 440.13206 -99.33366 
L 440.121731 -100.038257 
L 440.11391 -100.742853 
L 440.109202 -101.44745 
L 440.108015 -102.152047 
L 440.110548 -102.856644 
L 440.116774 -103.561241 
L 440.126449 -104.265837 
L 440.139123 -104.970434 
L 440.154168 -105.675031 
L 440.170827 -106.379628 
L 440.188267 -107.084224 
L 440.205648 -107.788821 
L 440.22219 -108.493418 
L 440.23723 -109.198015 
L 440.250276 -109.902612 
L 440.261035 -110.607208 
L 440.269421 -111.311805 
L 440.275546 -112.016402 
L 440.279686 -112.720999 
L 440.28224 -113.425595 
L 440.283677 -114.130192 
L 440.284477 -114.834789 
L 440.285083 -115.539386 
L 440.285859 -116.243983 
L 440.28706 -116.948579 
L 440.288822 -117.653176 
L 440.291167 -118.357773 
L 440.29402 -119.06237 
L 440.297237 -119.766967 
L 440.300637 -120.471563 
L 440.304032 -121.17616 
L 440.307256 -121.880757 
L 440.31018 -122.585354 
L 440.312721 -123.28995 
L 440.314841 -123.994547 
L 440.316545 -124.699144 
L 440.32533 -124.699144 
L 440.32533 -124.699144 
L 440.327034 -123.994547 
L 440.329154 -123.28995 
L 440.331695 -122.585354 
L 440.334619 -121.880757 
L 440.337843 -121.17616 
L 440.341238 -120.471563 
L 440.344638 -119.766967 
L 440.347855 -119.06237 
L 440.350708 -118.357773 
L 440.353053 -117.653176 
L 440.354815 -116.948579 
L 440.356016 -116.243983 
L 440.356792 -115.539386 
L 440.357398 -114.834789 
L 440.358198 -114.130192 
L 440.359635 -113.425595 
L 440.362189 -112.720999 
L 440.366329 -112.016402 
L 440.372454 -111.311805 
L 440.38084 -110.607208 
L 440.391599 -109.902612 
L 440.404645 -109.198015 
L 440.419685 -108.493418 
L 440.436227 -107.788821 
L 440.453608 -107.084224 
L 440.471048 -106.379628 
L 440.487707 -105.675031 
L 440.502752 -104.970434 
L 440.515426 -104.265837 
L 440.525101 -103.561241 
L 440.531327 -102.856644 
L 440.53386 -102.152047 
L 440.532673 -101.44745 
L 440.527965 -100.742853 
L 440.520144 -100.038257 
L 440.509815 -99.33366 
L 440.497753 -98.629063 
L 440.484877 -97.924466 
L 440.472205 -97.219869 
L 440.460813 -96.515273 
L 440.45178 -95.810676 
L 440.446132 -95.106079 
L 440.444785 -94.401482 
L 440.448483 -93.696886 
L 440.457759 -92.992289 
L 440.472896 -92.287692 
L 440.49391 -91.583095 
L 440.520546 -90.878498 
L 440.552304 -90.173902 
L 440.588477 -89.469305 
L 440.628218 -88.764708 
L 440.670619 -88.060111 
L 440.714815 -87.355515 
L 440.760086 -86.650918 
L 440.80596 -85.946321 
L 440.8523 -85.241724 
L 440.899355 -84.537127 
L 440.947764 -83.832531 
L 440.998509 -83.127934 
L 441.052808 -82.423337 
L 441.111957 -81.71874 
L 441.17713 -81.014143 
L 441.24917 -80.309547 
L 441.328386 -79.60495 
L 441.414385 -78.900353 
L 441.505973 -78.195756 
L 441.601128 -77.49116 
L 441.697064 -76.786563 
L 441.790372 -76.081966 
L 441.877236 -75.377369 
L 441.95369 -74.672772 
L 442.015899 -73.968176 
L 442.060431 -73.263579 
L 442.084506 -72.558982 
L 442.0862 -71.854385 
L 442.064583 -71.149789 
L 442.019795 -70.445192 
L 441.953044 -69.740595 
L 441.866528 -69.035998 
L 441.763292 -68.331401 
L 441.647018 -67.626805 
L 441.52178 -66.922208 
L 441.391776 -66.217611 
L 441.26107 -65.513014 
L 441.13336 -64.808417 
L 441.011808 -64.103821 
L 440.898917 -63.399224 
L 440.79648 -62.694627 
L 440.705589 -61.99003 
L 440.626683 -61.285434 
L 440.559642 -60.580837 
L 440.503889 -59.87624 
L 440.458512 -59.171643 
L 440.422377 -58.467046 
L 440.394233 -57.76245 
L 440.372801 -57.057853 
L 440.356855 -56.353256 
L 440.345268 -55.648659 
L 440.337049 -54.944063 
z
" style="stroke: #303030; stroke-width: 1.2"/>
    </defs>
    <g clip-path="url(#p9102ef8ebc)">
     <use xlink:href="#madbe6951dc" x="0" y="394.782188" style="fill: #158b6a; stroke: #303030; stroke-width: 1.2"/>
    </g>
   </g>
   <g id="line2d_14">
    <path d="M 142.2976 150.869643 
L 143.144275 150.869643 
" clip-path="url(#p9102ef8ebc)" style="fill: none; stroke-dasharray: 2.16,2.16; stroke-dashoffset: 0; stroke: #303030; stroke-width: 1.2"/>
   </g>
   <g id="line2d_15">
    <path d="M 142.333269 132.921919 
L 143.108606 132.921919 
" clip-path="url(#p9102ef8ebc)" style="fill: none; stroke-dasharray: 4.32,4.32; stroke-dashoffset: 0; stroke: #303030; stroke-width: 1.2"/>
   </g>
   <g id="line2d_16">
    <path d="M 142.361781 114.022749 
L 143.080094 114.022749 
" clip-path="url(#p9102ef8ebc)" style="fill: none; stroke-dasharray: 2.16,2.16; stroke-dashoffset: 0; stroke: #303030; stroke-width: 1.2"/>
   </g>
   <g id="line2d_17">
    <path d="M 232.596137 331.601061 
L 350.445737 331.601061 
" clip-path="url(#p9102ef8ebc)" style="fill: none; stroke-dasharray: 2.16,2.16; stroke-dashoffset: 0; stroke: #303030; stroke-width: 1.2"/>
   </g>
   <g id="line2d_18">
    <path d="M 232.596137 331.601061 
L 350.445737 331.601061 
" clip-path="url(#p9102ef8ebc)" style="fill: none; stroke-dasharray: 4.32,4.32; stroke-dashoffset: 0; stroke: #303030; stroke-width: 1.2"/>
   </g>
   <g id="line2d_19">
    <path d="M 232.596137 331.601061 
L 350.445737 331.601061 
" clip-path="url(#p9102ef8ebc)" style="fill: none; stroke-dasharray: 2.16,2.16; stroke-dashoffset: 0; stroke: #303030; stroke-width: 1.2"/>
   </g>
   <g id="line2d_20">
    <path d="M 438.639068 324.594962 
L 442.002807 324.594962 
" clip-path="url(#p9102ef8ebc)" style="fill: none; stroke-dasharray: 2.16,2.16; stroke-dashoffset: 0; stroke: #303030; stroke-width: 1.2"/>
   </g>
   <g id="line2d_21">
    <path d="M 438.642925 320.96217 
L 441.99895 320.96217 
" clip-path="url(#p9102ef8ebc)" style="fill: none; stroke-dasharray: 4.32,4.32; stroke-dashoffset: 0; stroke: #303030; stroke-width: 1.2"/>
   </g>
   <g id="line2d_22">
    <path d="M 439.323564 314.994011 
L 441.318311 314.994011 
" clip-path="url(#p9102ef8ebc)" style="fill: none; stroke-dasharray: 2.16,2.16; stroke-dashoffset: 0; stroke: #303030; stroke-width: 1.2"/>
   </g>
   <g id="patch_3">
    <path d="M 68.320938 354.958125 
L 68.320938 22.318125 
" style="fill: none; stroke: #000000; stroke-linejoin: miter; stroke-linecap: square"/>
   </g>
   <g id="patch_4">
    <path d="M 514.720937 354.958125 
L 514.720937 22.318125 
" style="fill: none; stroke: #000000; stroke-linejoin: miter; stroke-linecap: square"/>
   </g>
   <g id="patch_5">
    <path d="M 68.320937 354.958125 
L 514.720937 354.958125 
" style="fill: none; stroke: #000000; stroke-linejoin: miter; stroke-linecap: square"/>
   </g>
   <g id="patch_6">
    <path d="M 68.320937 22.318125 
L 514.720937 22.318125 
" style="fill: none; stroke: #000000; stroke-linejoin: miter; stroke-linecap: square"/>
   </g>
   <g id="text_11">
    <!-- Distribution Shape: Cached Tokens (count) -->
    <g transform="translate(163.809063 16.318125) scale(0.12 -0.12)">
     <defs>
      <path id="DejaVuSans-44" d="M 1259 4147 
L 1259 519 
L 2022 519 
Q 2988 519 3436 956 
Q 3884 1394 3884 2338 
Q 3884 3275 3436 3711 
Q 2988 4147 2022 4147 
L 1259 4147 
z
M 628 4666 
L 1925 4666 
Q 3281 4666 3915 4102 
Q 4550 3538 4550 2338 
Q 4550 1131 3912 565 
Q 3275 0 1925 0 
L 628 0 
L 628 4666 
z
" transform="scale(0.015625)"/>
      <path id="DejaVuSans-69" d="M 603 3500 
L 1178 3500 
L 1178 0 
L 603 0 
L 603 3500 
z
M 603 4863 
L 1178 4863 
L 1178 4134 
L 603 4134 
L 603 4863 
z
" transform="scale(0.015625)"/>
      <path id="DejaVuSans-53" d="M 3425 4513 
L 3425 3897 
Q 3066 4069 2747 4153 
Q 2428 4238 2131 4238 
Q 1616 4238 1336 4038 
Q 1056 3838 1056 3469 
Q 1056 3159 1242 3001 
Q 1428 2844 1947 2747 
L 2328 2669 
Q 3034 2534 3370 2195 
Q 3706 1856 3706 1288 
Q 3706 609 3251 259 
Q 2797 -91 1919 -91 
Q 1588 -91 1214 -16 
Q 841 59 441 206 
L 441 856 
Q 825 641 1194 531 
Q 1563 422 1919 422 
Q 2459 422 2753 634 
Q 3047 847 3047 1241 
Q 3047 1584 2836 1778 
Q 2625 1972 2144 2069 
L 1759 2144 
Q 1053 2284 737 2584 
Q 422 2884 422 3419 
Q 422 4038 858 4394 
Q 1294 4750 2059 4750 
Q 2388 4750 2728 4690 
Q 3069 4631 3425 4513 
z
" transform="scale(0.015625)"/>
      <path id="DejaVuSans-3a" d="M 750 794 
L 1409 794 
L 1409 0 
L 750 0 
L 750 794 
z
M 750 3309 
L 1409 3309 
L 1409 2516 
L 750 2516 
L 750 3309 
z
" transform="scale(0.015625)"/>
     </defs>
     <use xlink:href="#DejaVuSans-44"/>
     <use xlink:href="#DejaVuSans-69" x="77.001953"/>
     <use xlink:href="#DejaVuSans-73" x="104.785156"/>
     <use xlink:href="#DejaVuSans-74" x="156.884766"/>
     <use xlink:href="#DejaVuSans-72" x="196.09375"/>
     <use xlink:href="#DejaVuSans-69" x="237.207031"/>
     <use xlink:href="#DejaVuSans-62" x="264.990234"/>
     <use xlink:href="#DejaVuSans-75" x="328.466797"/>
     <use xlink:href="#DejaVuSans-74" x="391.845703"/>
     <use xlink:href="#DejaVuSans-69" x="431.054688"/>
     <use xlink:href="#DejaVuSans-6f" x="458.837891"/>
     <use xlink:href="#DejaVuSans-6e" x="520.019531"/>
     <use xlink:href="#DejaVuSans-20" x="583.398438"/>
     <use xlink:href="#DejaVuSans-53" x="615.185547"/>
     <use xlink:href="#DejaVuSans-68" x="678.662109"/>
     <use xlink:href="#DejaVuSans-61" x="742.041016"/>
     <use xlink:href="#DejaVuSans-70" x="803.320312"/>
     <use xlink:href="#DejaVuSans-65" x="866.796875"/>
     <use xlink:href="#DejaVuSans-3a" x="928.320312"/>
     <use xlink:href="#DejaVuSans-20" x="962.011719"/>
     <use xlink:href="#DejaVuSans-43" x="993.798828"/>
     <use xlink:href="#DejaVuSans-61" x="1063.623047"/>
     <use xlink:href="#DejaVuSans-63" x="1124.902344"/>
     <use xlink:href="#DejaVuSans-68" x="1179.882812"/>
     <use xlink:href="#DejaVuSans-65" x="1243.261719"/>
     <use xlink:href="#DejaVuSans-64" x="1304.785156"/>
     <use xlink:href="#DejaVuSans-20" x="1368.261719"/>
     <use xlink:href="#DejaVuSans-54" x="1400.048828"/>
     <use xlink:href="#DejaVuSans-6f" x="1444.132812"/>
     <use xlink:href="#DejaVuSans-6b" x="1505.314453"/>
     <use xlink:href="#DejaVuSans-65" x="1559.599609"/>
     <use xlink:href="#DejaVuSans-6e" x="1621.123047"/>
     <use xlink:href="#DejaVuSans-73" x="1684.501953"/>
     <use xlink:href="#DejaVuSans-20" x="1736.601562"/>
     <use xlink:href="#DejaVuSans-28" x="1768.388672"/>
     <use xlink:href="#DejaVuSans-63" x="1807.402344"/>
     <use xlink:href="#DejaVuSans-6f" x="1862.382812"/>
     <use xlink:href="#DejaVuSans-75" x="1923.564453"/>
     <use xlink:href="#DejaVuSans-6e" x="1986.943359"/>
     <use xlink:href="#DejaVuSans-74" x="2050.322266"/>
     <use xlink:href="#DejaVuSans-29" x="2089.53125"/>
    </g>
   </g>
  </g>
 </g>
 <defs>
  <clipPath id="p9102ef8ebc">
   <rect x="68.320938" y="22.318125" width="446.4" height="332.64"/>
  </clipPath>
 </defs>
</svg>
