<?xml version="1.0" encoding="utf-8" standalone="no"?>
<!DOCTYPE svg PUBLIC "-//W3C//DTD SVG 1.1//EN"
  "http://www.w3.org/Graphics/SVG/1.1/DTD/svg11.dtd">
<svg xmlns:xlink="http://www.w3.org/1999/xlink" width="515.558437pt" height="394.782188pt" viewBox="0 0 515.558437 394.782188" xmlns="http://www.w3.org/2000/svg" version="1.1">
 <metadata>
  <rdf:RDF xmlns:dc="http://purl.org/dc/elements/1.1/" xmlns:cc="http://creativecommons.org/ns#" xmlns:rdf="http://www.w3.org/1999/02/22-rdf-syntax-ns#">
   <cc:Work>
    <dc:type rdf:resource="http://purl.org/dc/dcmitype/StillImage"/>
    <dc:date>2025-11-03T08:37:24.431557</dc:date>
    <dc:format>image/svg+xml</dc:format>
    <dc:creator>
     <cc:Agent>
      <dc:title>Matplotlib v3.8.0, https://matplotlib.org/</dc:title>
     </cc:Agent>
    </dc:creator>
   </cc:Work>
  </rdf:RDF>
 </metadata>
 <defs>
  <style type="text/css">*{stroke-linejoin: round; stroke-linecap: butt}</style>
 </defs>
 <g id="figure_1">
  <g id="patch_1">
   <path d="M 0 394.782188 
L 515.558437 394.782188 
L 515.558437 -0 
L 0 -0 
z
" style="fill: #ffffff"/>
  </g>
  <g id="axes_1">
   <g id="patch_2">
    <path d="M 61.958438 354.958125 
L 508.358437 354.958125 
L 508.358437 22.318125 
L 61.958438 22.318125 
z
" style="fill: #ffffff"/>
   </g>
   <g id="matplotlib.axis_1">
    <g id="xtick_1">
     <g id="line2d_1">
      <defs>
       <path id="mef4fd43cc8" d="M 0 0 
L 0 4.8 
" style="stroke: #000000"/>
      </defs>
      <g>
       <use xlink:href="#mef4fd43cc8" x="136.358437" y="354.958125" style="stroke: #000000"/>
      </g>
     </g>
     <g id="text_1">
      <!-- ghspec -->
      <g transform="translate(118.410781 370.856562) scale(0.1 -0.1)">
       <defs>
        <path id="DejaVuSans-67" d="M 2906 1791 
Q 2906 2416 2648 2759 
Q 2391 3103 1925 3103 
Q 1463 3103 1205 2759 
Q 947 2416 947 1791 
Q 947 1169 1205 825 
Q 1463 481 1925 481 
Q 2391 481 2648 825 
Q 2906 1169 2906 1791 
z
M 3481 434 
Q 3481 -459 3084 -895 
Q 2688 -1331 1869 -1331 
Q 1566 -1331 1297 -1286 
Q 1028 -1241 775 -1147 
L 775 -588 
Q 1028 -725 1275 -790 
Q 1522 -856 1778 -856 
Q 2344 -856 2625 -561 
Q 2906 -266 2906 331 
L 2906 616 
Q 2728 306 2450 153 
Q 2172 0 1784 0 
Q 1141 0 747 490 
Q 353 981 353 1791 
Q 353 2603 747 3093 
Q 1141 3584 1784 3584 
Q 2172 3584 2450 3431 
Q 2728 3278 2906 2969 
L 2906 3500 
L 3481 3500 
L 3481 434 
z
" transform="scale(0.015625)"/>
        <path id="DejaVuSans-68" d="M 3513 2113 
L 3513 0 
L 2938 0 
L 2938 2094 
Q 2938 2591 2744 2837 
Q 2550 3084 2163 3084 
Q 1697 3084 1428 2787 
Q 1159 2491 1159 1978 
L 1159 0 
L 581 0 
L 581 4863 
L 1159 4863 
L 1159 2956 
Q 1366 3272 1645 3428 
Q 1925 3584 2291 3584 
Q 2894 3584 3203 3211 
Q 3513 2838 3513 2113 
z
" transform="scale(0.015625)"/>
        <path id="DejaVuSans-73" d="M 2834 3397 
L 2834 2853 
Q 2591 2978 2328 3040 
Q 2066 3103 1784 3103 
Q 1356 3103 1142 2972 
Q 928 2841 928 2578 
Q 928 2378 1081 2264 
Q 1234 2150 1697 2047 
L 1894 2003 
Q 2506 1872 2764 1633 
Q 3022 1394 3022 966 
Q 3022 478 2636 193 
Q 2250 -91 1575 -91 
Q 1294 -91 989 -36 
Q 684 19 347 128 
L 347 722 
Q 666 556 975 473 
Q 1284 391 1588 391 
Q 1994 391 2212 530 
Q 2431 669 2431 922 
Q 2431 1156 2273 1281 
Q 2116 1406 1581 1522 
L 1381 1569 
Q 847 1681 609 1914 
Q 372 2147 372 2553 
Q 372 3047 722 3315 
Q 1072 3584 1716 3584 
Q 2034 3584 2315 3537 
Q 2597 3491 2834 3397 
z
" transform="scale(0.015625)"/>
        <path id="DejaVuSans-70" d="M 1159 525 
L 1159 -1331 
L 581 -1331 
L 581 3500 
L 1159 3500 
L 1159 2969 
Q 1341 3281 1617 3432 
Q 1894 3584 2278 3584 
Q 2916 3584 3314 3078 
Q 3713 2572 3713 1747 
Q 3713 922 3314 415 
Q 2916 -91 2278 -91 
Q 1894 -91 1617 61 
Q 1341 213 1159 525 
z
M 3116 1747 
Q 3116 2381 2855 2742 
Q 2594 3103 2138 3103 
Q 1681 3103 1420 2742 
Q 1159 2381 1159 1747 
Q 1159 1113 1420 752 
Q 1681 391 2138 391 
Q 2594 391 2855 752 
Q 3116 1113 3116 1747 
z
" transform="scale(0.015625)"/>
        <path id="DejaVuSans-65" d="M 3597 1894 
L 3597 1613 
L 953 1613 
Q 991 1019 1311 708 
Q 1631 397 2203 397 
Q 2534 397 2845 478 
Q 3156 559 3463 722 
L 3463 178 
Q 3153 47 2828 -22 
Q 2503 -91 2169 -91 
Q 1331 -91 842 396 
Q 353 884 353 1716 
Q 353 2575 817 3079 
Q 1281 3584 2069 3584 
Q 2775 3584 3186 3129 
Q 3597 2675 3597 1894 
z
M 3022 2063 
Q 3016 2534 2758 2815 
Q 2500 3097 2075 3097 
Q 1594 3097 1305 2825 
Q 1016 2553 972 2059 
L 3022 2063 
z
" transform="scale(0.015625)"/>
        <path id="DejaVuSans-63" d="M 3122 3366 
L 3122 2828 
Q 2878 2963 2633 3030 
Q 2388 3097 2138 3097 
Q 1578 3097 1268 2742 
Q 959 2388 959 1747 
Q 959 1106 1268 751 
Q 1578 397 2138 397 
Q 2388 397 2633 464 
Q 2878 531 3122 666 
L 3122 134 
Q 2881 22 2623 -34 
Q 2366 -91 2075 -91 
Q 1284 -91 818 406 
Q 353 903 353 1747 
Q 353 2603 823 3093 
Q 1294 3584 2113 3584 
Q 2378 3584 2631 3529 
Q 2884 3475 3122 3366 
z
" transform="scale(0.015625)"/>
       </defs>
       <use xlink:href="#DejaVuSans-67"/>
       <use xlink:href="#DejaVuSans-68" x="63.476562"/>
       <use xlink:href="#DejaVuSans-73" x="126.855469"/>
       <use xlink:href="#DejaVuSans-70" x="178.955078"/>
       <use xlink:href="#DejaVuSans-65" x="242.431641"/>
       <use xlink:href="#DejaVuSans-63" x="303.955078"/>
      </g>
     </g>
    </g>
    <g id="xtick_2">
     <g id="line2d_2">
      <g>
       <use xlink:href="#mef4fd43cc8" x="285.158437" y="354.958125" style="stroke: #000000"/>
      </g>
     </g>
     <g id="text_2">
      <!-- baes -->
      <g transform="translate(273.238906 370.856562) scale(0.1 -0.1)">
       <defs>
        <path id="DejaVuSans-62" d="M 3116 1747 
Q 3116 2381 2855 2742 
Q 2594 3103 2138 3103 
Q 1681 3103 1420 2742 
Q 1159 2381 1159 1747 
Q 1159 1113 1420 752 
Q 1681 391 2138 391 
Q 2594 391 2855 752 
Q 3116 1113 3116 1747 
z
M 1159 2969 
Q 1341 3281 1617 3432 
Q 1894 3584 2278 3584 
Q 2916 3584 3314 3078 
Q 3713 2572 3713 1747 
Q 3713 922 3314 415 
Q 2916 -91 2278 -91 
Q 1894 -91 1617 61 
Q 1341 213 1159 525 
L 1159 0 
L 581 0 
L 581 4863 
L 1159 4863 
L 1159 2969 
z
" transform="scale(0.015625)"/>
        <path id="DejaVuSans-61" d="M 2194 1759 
Q 1497 1759 1228 1600 
Q 959 1441 959 1056 
Q 959 750 1161 570 
Q 1363 391 1709 391 
Q 2188 391 2477 730 
Q 2766 1069 2766 1631 
L 2766 1759 
L 2194 1759 
z
M 3341 1997 
L 3341 0 
L 2766 0 
L 2766 531 
Q 2569 213 2275 61 
Q 1981 -91 1556 -91 
Q 1019 -91 701 211 
Q 384 513 384 1019 
Q 384 1609 779 1909 
Q 1175 2209 1959 2209 
L 2766 2209 
L 2766 2266 
Q 2766 2663 2505 2880 
Q 2244 3097 1772 3097 
Q 1472 3097 1187 3025 
Q 903 2953 641 2809 
L 641 3341 
Q 956 3463 1253 3523 
Q 1550 3584 1831 3584 
Q 2591 3584 2966 3190 
Q 3341 2797 3341 1997 
z
" transform="scale(0.015625)"/>
       </defs>
       <use xlink:href="#DejaVuSans-62"/>
       <use xlink:href="#DejaVuSans-61" x="63.476562"/>
       <use xlink:href="#DejaVuSans-65" x="124.755859"/>
       <use xlink:href="#DejaVuSans-73" x="186.279297"/>
      </g>
     </g>
    </g>
    <g id="xtick_3">
     <g id="line2d_3">
      <g>
       <use xlink:href="#mef4fd43cc8" x="433.958437" y="354.958125" style="stroke: #000000"/>
      </g>
     </g>
     <g id="text_3">
      <!-- chatdev -->
      <g transform="translate(413.806094 370.856562) scale(0.1 -0.1)">
       <defs>
        <path id="DejaVuSans-74" d="M 1172 4494 
L 1172 3500 
L 2356 3500 
L 2356 3053 
L 1172 3053 
L 1172 1153 
Q 1172 725 1289 603 
Q 1406 481 1766 481 
L 2356 481 
L 2356 0 
L 1766 0 
Q 1100 0 847 248 
Q 594 497 594 1153 
L 594 3053 
L 172 3053 
L 172 3500 
L 594 3500 
L 594 4494 
L 1172 4494 
z
" transform="scale(0.015625)"/>
        <path id="DejaVuSans-64" d="M 2906 2969 
L 2906 4863 
L 3481 4863 
L 3481 0 
L 2906 0 
L 2906 525 
Q 2725 213 2448 61 
Q 2172 -91 1784 -91 
Q 1150 -91 751 415 
Q 353 922 353 1747 
Q 353 2572 751 3078 
Q 1150 3584 1784 3584 
Q 2172 3584 2448 3432 
Q 2725 3281 2906 2969 
z
M 947 1747 
Q 947 1113 1208 752 
Q 1469 391 1925 391 
Q 2381 391 2643 752 
Q 2906 1113 2906 1747 
Q 2906 2381 2643 2742 
Q 2381 3103 1925 3103 
Q 1469 3103 1208 2742 
Q 947 2381 947 1747 
z
" transform="scale(0.015625)"/>
        <path id="DejaVuSans-76" d="M 191 3500 
L 800 3500 
L 1894 563 
L 2988 3500 
L 3597 3500 
L 2284 0 
L 1503 0 
L 191 3500 
z
" transform="scale(0.015625)"/>
       </defs>
       <use xlink:href="#DejaVuSans-63"/>
       <use xlink:href="#DejaVuSans-68" x="54.980469"/>
       <use xlink:href="#DejaVuSans-61" x="118.359375"/>
       <use xlink:href="#DejaVuSans-74" x="179.638672"/>
       <use xlink:href="#DejaVuSans-64" x="218.847656"/>
       <use xlink:href="#DejaVuSans-65" x="282.324219"/>
       <use xlink:href="#DejaVuSans-76" x="343.847656"/>
      </g>
     </g>
    </g>
    <g id="text_4">
     <!-- Framework -->
     <g transform="translate(254.711641 385.294531) scale(0.11 -0.11)">
      <defs>
       <path id="DejaVuSans-46" d="M 628 4666 
L 3309 4666 
L 3309 4134 
L 1259 4134 
L 1259 2759 
L 3109 2759 
L 3109 2228 
L 1259 2228 
L 1259 0 
L 628 0 
L 628 4666 
z
" transform="scale(0.015625)"/>
       <path id="DejaVuSans-72" d="M 2631 2963 
Q 2534 3019 2420 3045 
Q 2306 3072 2169 3072 
Q 1681 3072 1420 2755 
Q 1159 2438 1159 1844 
L 1159 0 
L 581 0 
L 581 3500 
L 1159 3500 
L 1159 2956 
Q 1341 3275 1631 3429 
Q 1922 3584 2338 3584 
Q 2397 3584 2469 3576 
Q 2541 3569 2628 3553 
L 2631 2963 
z
" transform="scale(0.015625)"/>
       <path id="DejaVuSans-6d" d="M 3328 2828 
Q 3544 3216 3844 3400 
Q 4144 3584 4550 3584 
Q 5097 3584 5394 3201 
Q 5691 2819 5691 2113 
L 5691 0 
L 5113 0 
L 5113 2094 
Q 5113 2597 4934 2840 
Q 4756 3084 4391 3084 
Q 3944 3084 3684 2787 
Q 3425 2491 3425 1978 
L 3425 0 
L 2847 0 
L 2847 2094 
Q 2847 2600 2669 2842 
Q 2491 3084 2119 3084 
Q 1678 3084 1418 2786 
Q 1159 2488 1159 1978 
L 1159 0 
L 581 0 
L 581 3500 
L 1159 3500 
L 1159 2956 
Q 1356 3278 1631 3431 
Q 1906 3584 2284 3584 
Q 2666 3584 2933 3390 
Q 3200 3197 3328 2828 
z
" transform="scale(0.015625)"/>
       <path id="DejaVuSans-77" d="M 269 3500 
L 844 3500 
L 1563 769 
L 2278 3500 
L 2956 3500 
L 3675 769 
L 4391 3500 
L 4966 3500 
L 4050 0 
L 3372 0 
L 2619 2869 
L 1863 0 
L 1184 0 
L 269 3500 
z
" transform="scale(0.015625)"/>
       <path id="DejaVuSans-6f" d="M 1959 3097 
Q 1497 3097 1228 2736 
Q 959 2375 959 1747 
Q 959 1119 1226 758 
Q 1494 397 1959 397 
Q 2419 397 2687 759 
Q 2956 1122 2956 1747 
Q 2956 2369 2687 2733 
Q 2419 3097 1959 3097 
z
M 1959 3584 
Q 2709 3584 3137 3096 
Q 3566 2609 3566 1747 
Q 3566 888 3137 398 
Q 2709 -91 1959 -91 
Q 1206 -91 779 398 
Q 353 888 353 1747 
Q 353 2609 779 3096 
Q 1206 3584 1959 3584 
z
" transform="scale(0.015625)"/>
       <path id="DejaVuSans-6b" d="M 581 4863 
L 1159 4863 
L 1159 1991 
L 2875 3500 
L 3609 3500 
L 1753 1863 
L 3688 0 
L 2938 0 
L 1159 1709 
L 1159 0 
L 581 0 
L 581 4863 
z
" transform="scale(0.015625)"/>
      </defs>
      <use xlink:href="#DejaVuSans-46"/>
      <use xlink:href="#DejaVuSans-72" x="50.269531"/>
      <use xlink:href="#DejaVuSans-61" x="91.382812"/>
      <use xlink:href="#DejaVuSans-6d" x="152.662109"/>
      <use xlink:href="#DejaVuSans-65" x="250.074219"/>
      <use xlink:href="#DejaVuSans-77" x="311.597656"/>
      <use xlink:href="#DejaVuSans-6f" x="393.384766"/>
      <use xlink:href="#DejaVuSans-72" x="454.566406"/>
      <use xlink:href="#DejaVuSans-6b" x="495.679688"/>
     </g>
    </g>
   </g>
   <g id="matplotlib.axis_2">
    <g id="ytick_1">
     <g id="line2d_4">
      <path d="M 61.958438 297.927404 
L 508.358437 297.927404 
" clip-path="url(#pd96a2ce3d1)" style="fill: none; stroke: #b0b0b0; stroke-opacity: 0.3; stroke-width: 0.8; stroke-linecap: square"/>
     </g>
     <g id="line2d_5">
      <defs>
       <path id="m9efa01996f" d="M 0 0 
L -4.8 0 
" style="stroke: #000000"/>
      </defs>
      <g>
       <use xlink:href="#m9efa01996f" x="61.958438" y="297.927404" style="stroke: #000000"/>
      </g>
     </g>
     <g id="text_5">
      <!-- 20000 -->
      <g transform="translate(21.845938 301.726623) scale(0.1 -0.1)">
       <defs>
        <path id="DejaVuSans-32" d="M 1228 531 
L 3431 531 
L 3431 0 
L 469 0 
L 469 531 
Q 828 903 1448 1529 
Q 2069 2156 2228 2338 
Q 2531 2678 2651 2914 
Q 2772 3150 2772 3378 
Q 2772 3750 2511 3984 
Q 2250 4219 1831 4219 
Q 1534 4219 1204 4116 
Q 875 4013 500 3803 
L 500 4441 
Q 881 4594 1212 4672 
Q 1544 4750 1819 4750 
Q 2544 4750 2975 4387 
Q 3406 4025 3406 3419 
Q 3406 3131 3298 2873 
Q 3191 2616 2906 2266 
Q 2828 2175 2409 1742 
Q 1991 1309 1228 531 
z
" transform="scale(0.015625)"/>
        <path id="DejaVuSans-30" d="M 2034 4250 
Q 1547 4250 1301 3770 
Q 1056 3291 1056 2328 
Q 1056 1369 1301 889 
Q 1547 409 2034 409 
Q 2525 409 2770 889 
Q 3016 1369 3016 2328 
Q 3016 3291 2770 3770 
Q 2525 4250 2034 4250 
z
M 2034 4750 
Q 2819 4750 3233 4129 
Q 3647 3509 3647 2328 
Q 3647 1150 3233 529 
Q 2819 -91 2034 -91 
Q 1250 -91 836 529 
Q 422 1150 422 2328 
Q 422 3509 836 4129 
Q 1250 4750 2034 4750 
z
" transform="scale(0.015625)"/>
       </defs>
       <use xlink:href="#DejaVuSans-32"/>
       <use xlink:href="#DejaVuSans-30" x="63.623047"/>
       <use xlink:href="#DejaVuSans-30" x="127.246094"/>
       <use xlink:href="#DejaVuSans-30" x="190.869141"/>
       <use xlink:href="#DejaVuSans-30" x="254.492188"/>
      </g>
     </g>
    </g>
    <g id="ytick_2">
     <g id="line2d_6">
      <path d="M 61.958438 225.077818 
L 508.358437 225.077818 
" clip-path="url(#pd96a2ce3d1)" style="fill: none; stroke: #b0b0b0; stroke-opacity: 0.3; stroke-width: 0.8; stroke-linecap: square"/>
     </g>
     <g id="line2d_7">
      <g>
       <use xlink:href="#m9efa01996f" x="61.958438" y="225.077818" style="stroke: #000000"/>
      </g>
     </g>
     <g id="text_6">
      <!-- 40000 -->
      <g transform="translate(21.845938 228.877037) scale(0.1 -0.1)">
       <defs>
        <path id="DejaVuSans-34" d="M 2419 4116 
L 825 1625 
L 2419 1625 
L 2419 4116 
z
M 2253 4666 
L 3047 4666 
L 3047 1625 
L 3713 1625 
L 3713 1100 
L 3047 1100 
L 3047 0 
L 2419 0 
L 2419 1100 
L 313 1100 
L 313 1709 
L 2253 4666 
z
" transform="scale(0.015625)"/>
       </defs>
       <use xlink:href="#DejaVuSans-34"/>
       <use xlink:href="#DejaVuSans-30" x="63.623047"/>
       <use xlink:href="#DejaVuSans-30" x="127.246094"/>
       <use xlink:href="#DejaVuSans-30" x="190.869141"/>
       <use xlink:href="#DejaVuSans-30" x="254.492188"/>
      </g>
     </g>
    </g>
    <g id="ytick_3">
     <g id="line2d_8">
      <path d="M 61.958438 152.228232 
L 508.358437 152.228232 
" clip-path="url(#pd96a2ce3d1)" style="fill: none; stroke: #b0b0b0; stroke-opacity: 0.3; stroke-width: 0.8; stroke-linecap: square"/>
     </g>
     <g id="line2d_9">
      <g>
       <use xlink:href="#m9efa01996f" x="61.958438" y="152.228232" style="stroke: #000000"/>
      </g>
     </g>
     <g id="text_7">
      <!-- 60000 -->
      <g transform="translate(21.845938 156.027451) scale(0.1 -0.1)">
       <defs>
        <path id="DejaVuSans-36" d="M 2113 2584 
Q 1688 2584 1439 2293 
Q 1191 2003 1191 1497 
Q 1191 994 1439 701 
Q 1688 409 2113 409 
Q 2538 409 2786 701 
Q 3034 994 3034 1497 
Q 3034 2003 2786 2293 
Q 2538 2584 2113 2584 
z
M 3366 4563 
L 3366 3988 
Q 3128 4100 2886 4159 
Q 2644 4219 2406 4219 
Q 1781 4219 1451 3797 
Q 1122 3375 1075 2522 
Q 1259 2794 1537 2939 
Q 1816 3084 2150 3084 
Q 2853 3084 3261 2657 
Q 3669 2231 3669 1497 
Q 3669 778 3244 343 
Q 2819 -91 2113 -91 
Q 1303 -91 875 529 
Q 447 1150 447 2328 
Q 447 3434 972 4092 
Q 1497 4750 2381 4750 
Q 2619 4750 2861 4703 
Q 3103 4656 3366 4563 
z
" transform="scale(0.015625)"/>
       </defs>
       <use xlink:href="#DejaVuSans-36"/>
       <use xlink:href="#DejaVuSans-30" x="63.623047"/>
       <use xlink:href="#DejaVuSans-30" x="127.246094"/>
       <use xlink:href="#DejaVuSans-30" x="190.869141"/>
       <use xlink:href="#DejaVuSans-30" x="254.492188"/>
      </g>
     </g>
    </g>
    <g id="ytick_4">
     <g id="line2d_10">
      <path d="M 61.958438 79.378646 
L 508.358437 79.378646 
" clip-path="url(#pd96a2ce3d1)" style="fill: none; stroke: #b0b0b0; stroke-opacity: 0.3; stroke-width: 0.8; stroke-linecap: square"/>
     </g>
     <g id="line2d_11">
      <g>
       <use xlink:href="#m9efa01996f" x="61.958438" y="79.378646" style="stroke: #000000"/>
      </g>
     </g>
     <g id="text_8">
      <!-- 80000 -->
      <g transform="translate(21.845938 83.177865) scale(0.1 -0.1)">
       <defs>
        <path id="DejaVuSans-38" d="M 2034 2216 
Q 1584 2216 1326 1975 
Q 1069 1734 1069 1313 
Q 1069 891 1326 650 
Q 1584 409 2034 409 
Q 2484 409 2743 651 
Q 3003 894 3003 1313 
Q 3003 1734 2745 1975 
Q 2488 2216 2034 2216 
z
M 1403 2484 
Q 997 2584 770 2862 
Q 544 3141 544 3541 
Q 544 4100 942 4425 
Q 1341 4750 2034 4750 
Q 2731 4750 3128 4425 
Q 3525 4100 3525 3541 
Q 3525 3141 3298 2862 
Q 3072 2584 2669 2484 
Q 3125 2378 3379 2068 
Q 3634 1759 3634 1313 
Q 3634 634 3220 271 
Q 2806 -91 2034 -91 
Q 1263 -91 848 271 
Q 434 634 434 1313 
Q 434 1759 690 2068 
Q 947 2378 1403 2484 
z
M 1172 3481 
Q 1172 3119 1398 2916 
Q 1625 2713 2034 2713 
Q 2441 2713 2670 2916 
Q 2900 3119 2900 3481 
Q 2900 3844 2670 4047 
Q 2441 4250 2034 4250 
Q 1625 4250 1398 4047 
Q 1172 3844 1172 3481 
z
" transform="scale(0.015625)"/>
       </defs>
       <use xlink:href="#DejaVuSans-38"/>
       <use xlink:href="#DejaVuSans-30" x="63.623047"/>
       <use xlink:href="#DejaVuSans-30" x="127.246094"/>
       <use xlink:href="#DejaVuSans-30" x="190.869141"/>
       <use xlink:href="#DejaVuSans-30" x="254.492188"/>
      </g>
     </g>
    </g>
    <g id="text_9">
     <!-- Output Tokens (count) -->
     <g transform="translate(15.558281 249.5575) rotate(-90) scale(0.11 -0.11)">
      <defs>
       <path id="DejaVuSans-4f" d="M 2522 4238 
Q 1834 4238 1429 3725 
Q 1025 3213 1025 2328 
Q 1025 1447 1429 934 
Q 1834 422 2522 422 
Q 3209 422 3611 934 
Q 4013 1447 4013 2328 
Q 4013 3213 3611 3725 
Q 3209 4238 2522 4238 
z
M 2522 4750 
Q 3503 4750 4090 4092 
Q 4678 3434 4678 2328 
Q 4678 1225 4090 567 
Q 3503 -91 2522 -91 
Q 1538 -91 948 565 
Q 359 1222 359 2328 
Q 359 3434 948 4092 
Q 1538 4750 2522 4750 
z
" transform="scale(0.015625)"/>
       <path id="DejaVuSans-75" d="M 544 1381 
L 544 3500 
L 1119 3500 
L 1119 1403 
Q 1119 906 1312 657 
Q 1506 409 1894 409 
Q 2359 409 2629 706 
Q 2900 1003 2900 1516 
L 2900 3500 
L 3475 3500 
L 3475 0 
L 2900 0 
L 2900 538 
Q 2691 219 2414 64 
Q 2138 -91 1772 -91 
Q 1169 -91 856 284 
Q 544 659 544 1381 
z
M 1991 3584 
L 1991 3584 
z
" transform="scale(0.015625)"/>
       <path id="DejaVuSans-20" transform="scale(0.015625)"/>
       <path id="DejaVuSans-54" d="M -19 4666 
L 3928 4666 
L 3928 4134 
L 2272 4134 
L 2272 0 
L 1638 0 
L 1638 4134 
L -19 4134 
L -19 4666 
z
" transform="scale(0.015625)"/>
       <path id="DejaVuSans-6e" d="M 3513 2113 
L 3513 0 
L 2938 0 
L 2938 2094 
Q 2938 2591 2744 2837 
Q 2550 3084 2163 3084 
Q 1697 3084 1428 2787 
Q 1159 2491 1159 1978 
L 1159 0 
L 581 0 
L 581 3500 
L 1159 3500 
L 1159 2956 
Q 1366 3272 1645 3428 
Q 1925 3584 2291 3584 
Q 2894 3584 3203 3211 
Q 3513 2838 3513 2113 
z
" transform="scale(0.015625)"/>
       <path id="DejaVuSans-28" d="M 1984 4856 
Q 1566 4138 1362 3434 
Q 1159 2731 1159 2009 
Q 1159 1288 1364 580 
Q 1569 -128 1984 -844 
L 1484 -844 
Q 1016 -109 783 600 
Q 550 1309 550 2009 
Q 550 2706 781 3412 
Q 1013 4119 1484 4856 
L 1984 4856 
z
" transform="scale(0.015625)"/>
       <path id="DejaVuSans-29" d="M 513 4856 
L 1013 4856 
Q 1481 4119 1714 3412 
Q 1947 2706 1947 2009 
Q 1947 1309 1714 600 
Q 1481 -109 1013 -844 
L 513 -844 
Q 928 -128 1133 580 
Q 1338 1288 1338 2009 
Q 1338 2731 1133 3434 
Q 928 4138 513 4856 
z
" transform="scale(0.015625)"/>
      </defs>
      <use xlink:href="#DejaVuSans-4f"/>
      <use xlink:href="#DejaVuSans-75" x="78.710938"/>
      <use xlink:href="#DejaVuSans-74" x="142.089844"/>
      <use xlink:href="#DejaVuSans-70" x="181.298828"/>
      <use xlink:href="#DejaVuSans-75" x="244.775391"/>
      <use xlink:href="#DejaVuSans-74" x="308.154297"/>
      <use xlink:href="#DejaVuSans-20" x="347.363281"/>
      <use xlink:href="#DejaVuSans-54" x="379.150391"/>
      <use xlink:href="#DejaVuSans-6f" x="423.234375"/>
      <use xlink:href="#DejaVuSans-6b" x="484.416016"/>
      <use xlink:href="#DejaVuSans-65" x="538.701172"/>
      <use xlink:href="#DejaVuSans-6e" x="600.224609"/>
      <use xlink:href="#DejaVuSans-73" x="663.603516"/>
      <use xlink:href="#DejaVuSans-20" x="715.703125"/>
      <use xlink:href="#DejaVuSans-28" x="747.490234"/>
      <use xlink:href="#DejaVuSans-63" x="786.503906"/>
      <use xlink:href="#DejaVuSans-6f" x="841.484375"/>
      <use xlink:href="#DejaVuSans-75" x="902.666016"/>
      <use xlink:href="#DejaVuSans-6e" x="966.044922"/>
      <use xlink:href="#DejaVuSans-74" x="1029.423828"/>
      <use xlink:href="#DejaVuSans-29" x="1068.632812"/>
     </g>
    </g>
   </g>
   <g id="PolyCollection_1">
    <defs>
     <path id="maedb1620a7" d="M 136.372757 -146.682845 
L 136.344118 -146.682845 
L 136.337722 -148.302445 
L 136.329243 -149.922045 
L 136.318315 -151.541645 
L 136.304601 -153.161245 
L 136.287798 -154.780845 
L 136.267641 -156.400445 
L 136.24387 -158.020045 
L 136.216183 -159.639646 
L 136.184184 -161.259246 
L 136.147311 -162.878846 
L 136.104801 -164.498446 
L 136.055679 -166.118046 
L 135.998804 -167.737646 
L 135.932968 -169.357246 
L 135.85703 -170.976846 
L 135.770089 -172.596446 
L 135.671638 -174.216046 
L 135.561696 -175.835646 
L 135.44088 -177.455246 
L 135.310416 -179.074846 
L 135.172092 -180.694446 
L 135.02815 -182.314046 
L 134.881153 -183.933646 
L 134.733817 -185.553247 
L 134.588849 -187.172847 
L 134.448776 -188.792447 
L 134.315803 -190.412047 
L 134.191696 -192.031647 
L 134.077727 -193.651247 
L 133.974678 -195.270847 
L 133.882922 -196.890447 
L 133.802557 -198.510047 
L 133.73357 -200.129647 
L 133.675976 -201.749247 
L 133.629893 -203.368847 
L 133.59552 -204.988447 
L 133.573018 -206.608047 
L 133.562325 -208.227647 
L 133.562961 -209.847248 
L 133.573902 -211.466848 
L 133.59357 -213.086448 
L 133.619981 -214.706048 
L 133.651025 -216.325648 
L 133.684827 -217.945248 
L 133.720109 -219.564848 
L 133.756461 -221.184448 
L 133.794456 -222.804048 
L 133.835568 -224.423648 
L 133.881912 -226.043248 
L 133.935859 -227.662848 
L 133.999588 -229.282448 
L 134.074696 -230.902048 
L 134.161909 -232.521648 
L 134.260962 -234.141249 
L 134.370659 -235.760849 
L 134.489071 -237.380449 
L 134.613834 -239.000049 
L 134.742455 -240.619649 
L 134.872581 -242.239249 
L 135.002152 -243.858849 
L 135.129455 -245.478449 
L 135.253061 -247.098049 
L 135.371713 -248.717649 
L 135.484211 -250.337249 
L 135.589336 -251.956849 
L 135.685869 -253.576449 
L 135.772675 -255.196049 
L 135.848857 -256.815649 
L 135.913914 -258.43525 
L 135.967865 -260.05485 
L 136.011292 -261.67445 
L 136.045291 -263.29405 
L 136.071335 -264.91365 
L 136.091089 -266.53325 
L 136.106202 -268.15285 
L 136.118143 -269.77245 
L 136.128092 -271.39205 
L 136.136905 -273.01165 
L 136.145141 -274.63125 
L 136.153144 -276.25085 
L 136.161126 -277.87045 
L 136.169254 -279.49005 
L 136.177695 -281.10965 
L 136.186639 -282.729251 
L 136.196279 -284.348851 
L 136.206779 -285.968451 
L 136.218226 -287.588051 
L 136.230599 -289.207651 
L 136.24375 -290.827251 
L 136.25741 -292.446851 
L 136.271216 -294.066451 
L 136.284757 -295.686051 
L 136.297622 -297.305651 
L 136.309449 -298.925251 
L 136.319966 -300.544851 
L 136.329009 -302.164451 
L 136.336526 -303.784051 
L 136.342567 -305.403651 
L 136.347262 -307.023252 
L 136.369613 -307.023252 
L 136.369613 -307.023252 
L 136.374308 -305.403651 
L 136.380349 -303.784051 
L 136.387866 -302.164451 
L 136.396909 -300.544851 
L 136.407426 -298.925251 
L 136.419253 -297.305651 
L 136.432118 -295.686051 
L 136.445659 -294.066451 
L 136.459465 -292.446851 
L 136.473125 -290.827251 
L 136.486276 -289.207651 
L 136.498649 -287.588051 
L 136.510096 -285.968451 
L 136.520596 -284.348851 
L 136.530236 -282.729251 
L 136.53918 -281.10965 
L 136.547621 -279.49005 
L 136.555749 -277.87045 
L 136.563731 -276.25085 
L 136.571734 -274.63125 
L 136.57997 -273.01165 
L 136.588783 -271.39205 
L 136.598732 -269.77245 
L 136.610673 -268.15285 
L 136.625786 -266.53325 
L 136.64554 -264.91365 
L 136.671584 -263.29405 
L 136.705583 -261.67445 
L 136.74901 -260.05485 
L 136.802961 -258.43525 
L 136.868018 -256.815649 
L 136.9442 -255.196049 
L 137.031006 -253.576449 
L 137.127539 -251.956849 
L 137.232664 -250.337249 
L 137.345162 -248.717649 
L 137.463814 -247.098049 
L 137.58742 -245.478449 
L 137.714723 -243.858849 
L 137.844294 -242.239249 
L 137.97442 -240.619649 
L 138.103041 -239.000049 
L 138.227804 -237.380449 
L 138.346216 -235.760849 
L 138.455913 -234.141249 
L 138.554966 -232.521648 
L 138.642179 -230.902048 
L 138.717287 -229.282448 
L 138.781016 -227.662848 
L 138.834963 -226.043248 
L 138.881307 -224.423648 
L 138.922419 -222.804048 
L 138.960414 -221.184448 
L 138.996766 -219.564848 
L 139.032048 -217.945248 
L 139.06585 -216.325648 
L 139.096894 -214.706048 
L 139.123305 -213.086448 
L 139.142973 -211.466848 
L 139.153914 -209.847248 
L 139.15455 -208.227647 
L 139.143857 -206.608047 
L 139.121355 -204.988447 
L 139.086982 -203.368847 
L 139.040899 -201.749247 
L 138.983305 -200.129647 
L 138.914318 -198.510047 
L 138.833953 -196.890447 
L 138.742197 -195.270847 
L 138.639148 -193.651247 
L 138.525179 -192.031647 
L 138.401072 -190.412047 
L 138.268099 -188.792447 
L 138.128026 -187.172847 
L 137.983058 -185.553247 
L 137.835722 -183.933646 
L 137.688725 -182.314046 
L 137.544783 -180.694446 
L 137.406459 -179.074846 
L 137.275995 -177.455246 
L 137.155179 -175.835646 
L 137.045237 -174.216046 
L 136.946786 -172.596446 
L 136.859845 -170.976846 
L 136.783907 -169.357246 
L 136.718071 -167.737646 
L 136.661196 -166.118046 
L 136.612074 -164.498446 
L 136.569564 -162.878846 
L 136.532691 -161.259246 
L 136.500692 -159.639646 
L 136.473005 -158.020045 
L 136.449234 -156.400445 
L 136.429077 -154.780845 
L 136.412274 -153.161245 
L 136.39856 -151.541645 
L 136.387632 -149.922045 
L 136.379153 -148.302445 
L 136.372757 -146.682845 
z
" style="stroke: #303030; stroke-width: 1.2"/>
    </defs>
    <g clip-path="url(#pd96a2ce3d1)">
     <use xlink:href="#maedb1620a7" x="0" y="394.782188" style="fill: #176d9c; stroke: #303030; stroke-width: 1.2"/>
    </g>
   </g>
   <g id="PolyCollection_2">
    <defs>
     <path id="mce0209b1a7" d="M 289.675956 -54.944063 
L 280.640919 -54.944063 
L 278.986247 -55.063499 
L 276.893529 -55.182935 
L 274.311774 -55.302371 
L 271.207168 -55.421808 
L 267.571478 -55.541244 
L 263.430062 -55.66068 
L 258.848293 -55.780117 
L 253.935145 -55.899553 
L 248.842802 -56.018989 
L 243.761513 -56.138426 
L 238.909477 -56.257862 
L 234.51825 -56.377298 
L 230.81488 -56.496735 
L 228.002646 -56.616171 
L 226.242628 -56.735607 
L 225.638437 -56.855044 
L 226.226106 -56.97448 
L 227.970515 -57.093916 
L 230.768848 -57.213353 
L 234.460574 -57.332789 
L 238.842617 -57.452225 
L 243.687696 -57.571662 
L 248.763494 -57.691098 
L 253.850422 -57.810534 
L 258.756083 -57.929971 
L 263.325204 -58.049407 
L 267.444535 -58.168843 
L 271.04292 -58.28828 
L 274.087322 -58.407716 
L 276.575982 -58.527152 
L 278.530014 -58.646589 
L 279.984727 -58.766025 
L 280.981739 -58.885461 
L 281.562673 -59.004898 
L 281.764922 -59.124334 
L 281.619631 -59.24377 
L 281.151815 -59.363207 
L 280.382285 -59.482643 
L 279.330919 -59.602079 
L 278.02066 -59.721516 
L 276.481605 -59.840952 
L 274.754484 -59.960388 
L 272.892919 -60.079825 
L 270.963954 -60.199261 
L 269.046563 -60.318697 
L 267.228084 -60.438134 
L 265.598839 -60.55757 
L 264.245488 -60.677006 
L 263.243871 -60.796443 
L 262.652273 -60.915879 
L 262.505977 -61.035315 
L 262.813894 -61.154751 
L 263.557718 -61.274188 
L 264.693768 -61.393624 
L 266.157242 -61.51306 
L 267.868342 -61.632497 
L 269.739444 -61.751933 
L 271.682434 -61.871369 
L 273.615356 -61.990806 
L 275.46771 -62.110242 
L 277.183964 -62.229678 
L 278.725156 -62.349115 
L 280.068705 -62.468551 
L 281.206772 -62.587987 
L 282.14362 -62.707424 
L 282.892462 -62.82686 
L 283.472259 -62.946296 
L 283.904814 -63.065733 
L 284.212419 -63.185169 
L 284.416152 -63.304605 
L 284.534859 -63.424042 
L 284.584722 -63.543478 
L 284.57932 -63.662914 
L 284.530006 -63.782351 
L 284.446469 -63.901787 
L 284.337332 -64.021223 
L 284.210677 -64.14066 
L 284.074418 -64.260096 
L 283.936472 -64.379532 
L 283.804719 -64.498969 
L 283.686769 -64.618405 
L 283.589592 -64.737841 
L 283.519076 -64.857278 
L 283.479592 -64.976714 
L 283.473645 -65.09615 
L 283.501674 -65.215587 
L 283.562035 -65.335023 
L 283.651182 -65.454459 
L 283.764027 -65.573896 
L 283.89442 -65.693332 
L 284.035714 -65.812768 
L 284.181313 -65.932205 
L 284.325171 -66.051641 
L 284.462172 -66.171077 
L 284.588374 -66.290514 
L 284.701109 -66.40995 
L 284.798945 -66.529386 
L 284.881547 -66.648823 
L 284.949468 -66.768259 
L 285.367407 -66.768259 
L 285.367407 -66.768259 
L 285.435328 -66.648823 
L 285.51793 -66.529386 
L 285.615766 -66.40995 
L 285.728501 -66.290514 
L 285.854703 -66.171077 
L 285.991704 -66.051641 
L 286.135562 -65.932205 
L 286.281161 -65.812768 
L 286.422455 -65.693332 
L 286.552848 -65.573896 
L 286.665693 -65.454459 
L 286.75484 -65.335023 
L 286.815201 -65.215587 
L 286.84323 -65.09615 
L 286.837283 -64.976714 
L 286.797799 -64.857278 
L 286.727283 -64.737841 
L 286.630106 -64.618405 
L 286.512156 -64.498969 
L 286.380403 -64.379532 
L 286.242457 -64.260096 
L 286.106198 -64.14066 
L 285.979543 -64.021223 
L 285.870406 -63.901787 
L 285.786869 -63.782351 
L 285.737555 -63.662914 
L 285.732153 -63.543478 
L 285.782016 -63.424042 
L 285.900723 -63.304605 
L 286.104456 -63.185169 
L 286.412061 -63.065733 
L 286.844616 -62.946296 
L 287.424413 -62.82686 
L 288.173255 -62.707424 
L 289.110103 -62.587987 
L 290.24817 -62.468551 
L 291.591719 -62.349115 
L 293.132911 -62.229678 
L 294.849165 -62.110242 
L 296.701519 -61.990806 
L 298.634441 -61.871369 
L 300.577431 -61.751933 
L 302.448533 -61.632497 
L 304.159633 -61.51306 
L 305.623107 -61.393624 
L 306.759157 -61.274188 
L 307.502981 -61.154751 
L 307.810898 -61.035315 
L 307.664602 -60.915879 
L 307.073004 -60.796443 
L 306.071387 -60.677006 
L 304.718036 -60.55757 
L 303.088791 -60.438134 
L 301.270312 -60.318697 
L 299.352921 -60.199261 
L 297.423956 -60.079825 
L 295.562391 -59.960388 
L 293.83527 -59.840952 
L 292.296215 -59.721516 
L 290.985956 -59.602079 
L 289.93459 -59.482643 
L 289.16506 -59.363207 
L 288.697244 -59.24377 
L 288.551953 -59.124334 
L 288.754202 -59.004898 
L 289.335136 -58.885461 
L 290.332148 -58.766025 
L 291.786861 -58.646589 
L 293.740893 -58.527152 
L 296.229553 -58.407716 
L 299.273955 -58.28828 
L 302.87234 -58.168843 
L 306.991671 -58.049407 
L 311.560792 -57.929971 
L 316.466453 -57.810534 
L 321.553381 -57.691098 
L 326.629179 -57.571662 
L 331.474258 -57.452225 
L 335.856301 -57.332789 
L 339.548027 -57.213353 
L 342.34636 -57.093916 
L 344.090769 -56.97448 
L 344.678437 -56.855044 
L 344.074247 -56.735607 
L 342.314229 -56.616171 
L 339.501995 -56.496735 
L 335.798625 -56.377298 
L 331.407398 -56.257862 
L 326.555362 -56.138426 
L 321.474073 -56.018989 
L 316.38173 -55.899553 
L 311.468582 -55.780117 
L 306.886813 -55.66068 
L 302.745397 -55.541244 
L 299.109707 -55.421808 
L 296.005101 -55.302371 
L 293.423346 -55.182935 
L 291.330628 -55.063499 
L 289.675956 -54.944063 
z
" style="stroke: #303030; stroke-width: 1.2"/>
    </defs>
    <g clip-path="url(#pd96a2ce3d1)">
     <use xlink:href="#mce0209b1a7" x="0" y="394.782188" style="fill: #c38820; stroke: #303030; stroke-width: 1.2"/>
    </g>
   </g>
   <g id="PolyCollection_3">
    <defs>
     <path id="m21ad2d2b36" d="M 433.971937 -122.944848 
L 433.944938 -122.944848 
L 433.938654 -125.312517 
L 433.929957 -127.680186 
L 433.91813 -130.047854 
L 433.902312 -132.415523 
L 433.881496 -134.783192 
L 433.854522 -137.150861 
L 433.820089 -139.51853 
L 433.776783 -141.886199 
L 433.723121 -144.253867 
L 433.657625 -146.621536 
L 433.57893 -148.989205 
L 433.485913 -151.356874 
L 433.37786 -153.724543 
L 433.254633 -156.092212 
L 433.116839 -158.45988 
L 432.965965 -160.827549 
L 432.804454 -163.195218 
L 432.635696 -165.562887 
L 432.463921 -167.930556 
L 432.293988 -170.298225 
L 432.131085 -172.665893 
L 431.980367 -175.033562 
L 431.846579 -177.401231 
L 431.73371 -179.7689 
L 431.644728 -182.136569 
L 431.58142 -184.504238 
L 431.544373 -186.871906 
L 431.533063 -189.239575 
L 431.54605 -191.607244 
L 431.581222 -193.974913 
L 431.636042 -196.342582 
L 431.707774 -198.710251 
L 431.793638 -201.077919 
L 431.890897 -203.445588 
L 431.996893 -205.813257 
L 432.109034 -208.180926 
L 432.224776 -210.548595 
L 432.341621 -212.916264 
L 432.457149 -215.283932 
L 432.569077 -217.651601 
L 432.675362 -220.01927 
L 432.77431 -222.386939 
L 432.864673 -224.754608 
L 432.945722 -227.122277 
L 433.017281 -229.489945 
L 433.079696 -231.857614 
L 433.133766 -234.225283 
L 433.180622 -236.592952 
L 433.221584 -238.960621 
L 433.258004 -241.32829 
L 433.291123 -243.695958 
L 433.321957 -246.063627 
L 433.351218 -248.431296 
L 433.379292 -250.798965 
L 433.406261 -253.166634 
L 433.431973 -255.534303 
L 433.456128 -257.901971 
L 433.478388 -260.26964 
L 433.49847 -262.637309 
L 433.516222 -265.004978 
L 433.531662 -267.372647 
L 433.544987 -269.740316 
L 433.556545 -272.107984 
L 433.566793 -274.475653 
L 433.576236 -276.843322 
L 433.585378 -279.210991 
L 433.594672 -281.57866 
L 433.604493 -283.946329 
L 433.615119 -286.313997 
L 433.626725 -288.681666 
L 433.639386 -291.049335 
L 433.653086 -293.417004 
L 433.667719 -295.784673 
L 433.683108 -298.152342 
L 433.699018 -300.52001 
L 433.715178 -302.887679 
L 433.731305 -305.255348 
L 433.747136 -307.623017 
L 433.762454 -309.990686 
L 433.777107 -312.358355 
L 433.791026 -314.726023 
L 433.804217 -317.093692 
L 433.816752 -319.461361 
L 433.828743 -321.82903 
L 433.840314 -324.196699 
L 433.851574 -326.564368 
L 433.862589 -328.932036 
L 433.873373 -331.299705 
L 433.883881 -333.667374 
L 433.894018 -336.035043 
L 433.903657 -338.402712 
L 433.912656 -340.770381 
L 433.920882 -343.138049 
L 433.928232 -345.505718 
L 433.934639 -347.873387 
L 433.940084 -350.241056 
L 433.944592 -352.608725 
L 433.948226 -354.976394 
L 433.951078 -357.344063 
L 433.965797 -357.344063 
L 433.965797 -357.344063 
L 433.968649 -354.976394 
L 433.972283 -352.608725 
L 433.976791 -350.241056 
L 433.982236 -347.873387 
L 433.988643 -345.505718 
L 433.995993 -343.138049 
L 434.004219 -340.770381 
L 434.013218 -338.402712 
L 434.022857 -336.035043 
L 434.032994 -333.667374 
L 434.043502 -331.299705 
L 434.054286 -328.932036 
L 434.065301 -326.564368 
L 434.076561 -324.196699 
L 434.088132 -321.82903 
L 434.100123 -319.461361 
L 434.112658 -317.093692 
L 434.125849 -314.726023 
L 434.139768 -312.358355 
L 434.154421 -309.990686 
L 434.169739 -307.623017 
L 434.18557 -305.255348 
L 434.201697 -302.887679 
L 434.217857 -300.52001 
L 434.233767 -298.152342 
L 434.249156 -295.784673 
L 434.263789 -293.417004 
L 434.277489 -291.049335 
L 434.29015 -288.681666 
L 434.301756 -286.313997 
L 434.312382 -283.946329 
L 434.322203 -281.57866 
L 434.331497 -279.210991 
L 434.340639 -276.843322 
L 434.350082 -274.475653 
L 434.36033 -272.107984 
L 434.371888 -269.740316 
L 434.385213 -267.372647 
L 434.400653 -265.004978 
L 434.418405 -262.637309 
L 434.438487 -260.26964 
L 434.460747 -257.901971 
L 434.484902 -255.534303 
L 434.510614 -253.166634 
L 434.537583 -250.798965 
L 434.565657 -248.431296 
L 434.594918 -246.063627 
L 434.625752 -243.695958 
L 434.658871 -241.32829 
L 434.695291 -238.960621 
L 434.736253 -236.592952 
L 434.783109 -234.225283 
L 434.837179 -231.857614 
L 434.899594 -229.489945 
L 434.971153 -227.122277 
L 435.052202 -224.754608 
L 435.142565 -222.386939 
L 435.241513 -220.01927 
L 435.347798 -217.651601 
L 435.459726 -215.283932 
L 435.575254 -212.916264 
L 435.692099 -210.548595 
L 435.807841 -208.180926 
L 435.919982 -205.813257 
L 436.025978 -203.445588 
L 436.123237 -201.077919 
L 436.209101 -198.710251 
L 436.280833 -196.342582 
L 436.335653 -193.974913 
L 436.370825 -191.607244 
L 436.383812 -189.239575 
L 436.372502 -186.871906 
L 436.335455 -184.504238 
L 436.272147 -182.136569 
L 436.183165 -179.7689 
L 436.070296 -177.401231 
L 435.936508 -175.033562 
L 435.78579 -172.665893 
L 435.622887 -170.298225 
L 435.452954 -167.930556 
L 435.281179 -165.562887 
L 435.112421 -163.195218 
L 434.95091 -160.827549 
L 434.800036 -158.45988 
L 434.662242 -156.092212 
L 434.539015 -153.724543 
L 434.430962 -151.356874 
L 434.337945 -148.989205 
L 434.25925 -146.621536 
L 434.193754 -144.253867 
L 434.140092 -141.886199 
L 434.096786 -139.51853 
L 434.062353 -137.150861 
L 434.035379 -134.783192 
L 434.014563 -132.415523 
L 433.998745 -130.047854 
L 433.986918 -127.680186 
L 433.978221 -125.312517 
L 433.971937 -122.944848 
z
" style="stroke: #303030; stroke-width: 1.2"/>
    </defs>
    <g clip-path="url(#pd96a2ce3d1)">
     <use xlink:href="#m21ad2d2b36" x="0" y="394.782188" style="fill: #158b6a; stroke: #303030; stroke-width: 1.2"/>
    </g>
   </g>
   <g id="line2d_12">
    <path d="M 133.907677 197.120879 
L 138.809198 197.120879 
" clip-path="url(#pd96a2ce3d1)" style="fill: none; stroke-dasharray: 2.16,2.16; stroke-dashoffset: 0; stroke: #303030; stroke-width: 1.2"/>
   </g>
   <g id="line2d_13">
    <path d="M 133.601747 182.668432 
L 139.115128 182.668432 
" clip-path="url(#pd96a2ce3d1)" style="fill: none; stroke-dasharray: 4.32,4.32; stroke-dashoffset: 0; stroke: #303030; stroke-width: 1.2"/>
   </g>
   <g id="line2d_14">
    <path d="M 134.023177 164.852155 
L 138.693698 164.852155 
" clip-path="url(#pd96a2ce3d1)" style="fill: none; stroke-dasharray: 2.16,2.16; stroke-dashoffset: 0; stroke: #303030; stroke-width: 1.2"/>
   </g>
   <g id="line2d_15">
    <path d="M 226.233637 337.95643 
L 344.083237 337.95643 
" clip-path="url(#pd96a2ce3d1)" style="fill: none; stroke-dasharray: 2.16,2.16; stroke-dashoffset: 0; stroke: #303030; stroke-width: 1.2"/>
   </g>
   <g id="line2d_16">
    <path d="M 226.233637 337.879938 
L 344.083237 337.879938 
" clip-path="url(#pd96a2ce3d1)" style="fill: none; stroke-dasharray: 4.32,4.32; stroke-dashoffset: 0; stroke: #303030; stroke-width: 1.2"/>
   </g>
   <g id="line2d_17">
    <path d="M 262.877335 333.847714 
L 307.43954 333.847714 
" clip-path="url(#pd96a2ce3d1)" style="fill: none; stroke-dasharray: 2.16,2.16; stroke-dashoffset: 0; stroke: #303030; stroke-width: 1.2"/>
   </g>
   <g id="line2d_18">
    <path d="M 431.667865 212.441147 
L 436.24901 212.441147 
" clip-path="url(#pd96a2ce3d1)" style="fill: none; stroke-dasharray: 2.16,2.16; stroke-dashoffset: 0; stroke: #303030; stroke-width: 1.2"/>
   </g>
   <g id="line2d_19">
    <path d="M 431.730281 195.877883 
L 436.186594 195.877883 
" clip-path="url(#pd96a2ce3d1)" style="fill: none; stroke-dasharray: 4.32,4.32; stroke-dashoffset: 0; stroke: #303030; stroke-width: 1.2"/>
   </g>
   <g id="line2d_20">
    <path d="M 432.786152 172.737212 
L 435.130723 172.737212 
" clip-path="url(#pd96a2ce3d1)" style="fill: none; stroke-dasharray: 2.16,2.16; stroke-dashoffset: 0; stroke: #303030; stroke-width: 1.2"/>
   </g>
   <g id="patch_3">
    <path d="M 61.958438 354.958125 
L 61.958438 22.318125 
" style="fill: none; stroke: #000000; stroke-linejoin: miter; stroke-linecap: square"/>
   </g>
   <g id="patch_4">
    <path d="M 508.358437 354.958125 
L 508.358437 22.318125 
" style="fill: none; stroke: #000000; stroke-linejoin: miter; stroke-linecap: square"/>
   </g>
   <g id="patch_5">
    <path d="M 61.958437 354.958125 
L 508.358437 354.958125 
" style="fill: none; stroke: #000000; stroke-linejoin: miter; stroke-linecap: square"/>
   </g>
   <g id="patch_6">
    <path d="M 61.958437 22.318125 
L 508.358437 22.318125 
" style="fill: none; stroke: #000000; stroke-linejoin: miter; stroke-linecap: square"/>
   </g>
   <g id="text_10">
    <!-- Distribution Shape: Output Tokens (count) -->
    <g transform="translate(159.074062 16.318125) scale(0.12 -0.12)">
     <defs>
      <path id="DejaVuSans-44" d="M 1259 4147 
L 1259 519 
L 2022 519 
Q 2988 519 3436 956 
Q 3884 1394 3884 2338 
Q 3884 3275 3436 3711 
Q 2988 4147 2022 4147 
L 1259 4147 
z
M 628 4666 
L 1925 4666 
Q 3281 4666 3915 4102 
Q 4550 3538 4550 2338 
Q 4550 1131 3912 565 
Q 3275 0 1925 0 
L 628 0 
L 628 4666 
z
" transform="scale(0.015625)"/>
      <path id="DejaVuSans-69" d="M 603 3500 
L 1178 3500 
L 1178 0 
L 603 0 
L 603 3500 
z
M 603 4863 
L 1178 4863 
L 1178 4134 
L 603 4134 
L 603 4863 
z
" transform="scale(0.015625)"/>
      <path id="DejaVuSans-53" d="M 3425 4513 
L 3425 3897 
Q 3066 4069 2747 4153 
Q 2428 4238 2131 4238 
Q 1616 4238 1336 4038 
Q 1056 3838 1056 3469 
Q 1056 3159 1242 3001 
Q 1428 2844 1947 2747 
L 2328 2669 
Q 3034 2534 3370 2195 
Q 3706 1856 3706 1288 
Q 3706 609 3251 259 
Q 2797 -91 1919 -91 
Q 1588 -91 1214 -16 
Q 841 59 441 206 
L 441 856 
Q 825 641 1194 531 
Q 1563 422 1919 422 
Q 2459 422 2753 634 
Q 3047 847 3047 1241 
Q 3047 1584 2836 1778 
Q 2625 1972 2144 2069 
L 1759 2144 
Q 1053 2284 737 2584 
Q 422 2884 422 3419 
Q 422 4038 858 4394 
Q 1294 4750 2059 4750 
Q 2388 4750 2728 4690 
Q 3069 4631 3425 4513 
z
" transform="scale(0.015625)"/>
      <path id="DejaVuSans-3a" d="M 750 794 
L 1409 794 
L 1409 0 
L 750 0 
L 750 794 
z
M 750 3309 
L 1409 3309 
L 1409 2516 
L 750 2516 
L 750 3309 
z
" transform="scale(0.015625)"/>
     </defs>
     <use xlink:href="#DejaVuSans-44"/>
     <use xlink:href="#DejaVuSans-69" x="77.001953"/>
     <use xlink:href="#DejaVuSans-73" x="104.785156"/>
     <use xlink:href="#DejaVuSans-74" x="156.884766"/>
     <use xlink:href="#DejaVuSans-72" x="196.09375"/>
     <use xlink:href="#DejaVuSans-69" x="237.207031"/>
     <use xlink:href="#DejaVuSans-62" x="264.990234"/>
     <use xlink:href="#DejaVuSans-75" x="328.466797"/>
     <use xlink:href="#DejaVuSans-74" x="391.845703"/>
     <use xlink:href="#DejaVuSans-69" x="431.054688"/>
     <use xlink:href="#DejaVuSans-6f" x="458.837891"/>
     <use xlink:href="#DejaVuSans-6e" x="520.019531"/>
     <use xlink:href="#DejaVuSans-20" x="583.398438"/>
     <use xlink:href="#DejaVuSans-53" x="615.185547"/>
     <use xlink:href="#DejaVuSans-68" x="678.662109"/>
     <use xlink:href="#DejaVuSans-61" x="742.041016"/>
     <use xlink:href="#DejaVuSans-70" x="803.320312"/>
     <use xlink:href="#DejaVuSans-65" x="866.796875"/>
     <use xlink:href="#DejaVuSans-3a" x="928.320312"/>
     <use xlink:href="#DejaVuSans-20" x="962.011719"/>
     <use xlink:href="#DejaVuSans-4f" x="993.798828"/>
     <use xlink:href="#DejaVuSans-75" x="1072.509766"/>
     <use xlink:href="#DejaVuSans-74" x="1135.888672"/>
     <use xlink:href="#DejaVuSans-70" x="1175.097656"/>
     <use xlink:href="#DejaVuSans-75" x="1238.574219"/>
     <use xlink:href="#DejaVuSans-74" x="1301.953125"/>
     <use xlink:href="#DejaVuSans-20" x="1341.162109"/>
     <use xlink:href="#DejaVuSans-54" x="1372.949219"/>
     <use xlink:href="#DejaVuSans-6f" x="1417.033203"/>
     <use xlink:href="#DejaVuSans-6b" x="1478.214844"/>
     <use xlink:href="#DejaVuSans-65" x="1532.5"/>
     <use xlink:href="#DejaVuSans-6e" x="1594.023438"/>
     <use xlink:href="#DejaVuSans-73" x="1657.402344"/>
     <use xlink:href="#DejaVuSans-20" x="1709.501953"/>
     <use xlink:href="#DejaVuSans-28" x="1741.289062"/>
     <use xlink:href="#DejaVuSans-63" x="1780.302734"/>
     <use xlink:href="#DejaVuSans-6f" x="1835.283203"/>
     <use xlink:href="#DejaVuSans-75" x="1896.464844"/>
     <use xlink:href="#DejaVuSans-6e" x="1959.84375"/>
     <use xlink:href="#DejaVuSans-74" x="2023.222656"/>
     <use xlink:href="#DejaVuSans-29" x="2062.431641"/>
    </g>
   </g>
  </g>
 </g>
 <defs>
  <clipPath id="pd96a2ce3d1">
   <rect x="61.958438" y="22.318125" width="446.4" height="332.64"/>
  </clipPath>
 </defs>
</svg>
