<?xml version="1.0" encoding="utf-8" standalone="no"?>
<!DOCTYPE svg PUBLIC "-//W3C//DTD SVG 1.1//EN"
  "http://www.w3.org/Graphics/SVG/1.1/DTD/svg11.dtd">
<svg xmlns:xlink="http://www.w3.org/1999/xlink" width="509.195937pt" height="394.782188pt" viewBox="0 0 509.195937 394.782188" xmlns="http://www.w3.org/2000/svg" version="1.1">
 <metadata>
  <rdf:RDF xmlns:dc="http://purl.org/dc/elements/1.1/" xmlns:cc="http://creativecommons.org/ns#" xmlns:rdf="http://www.w3.org/1999/02/22-rdf-syntax-ns#">
   <cc:Work>
    <dc:type rdf:resource="http://purl.org/dc/dcmitype/StillImage"/>
    <dc:date>2025-11-03T08:28:03.536052</dc:date>
    <dc:format>image/svg+xml</dc:format>
    <dc:creator>
     <cc:Agent>
      <dc:title>Matplotlib v3.8.0, https://matplotlib.org/</dc:title>
     </cc:Agent>
    </dc:creator>
   </cc:Work>
  </rdf:RDF>
 </metadata>
 <defs>
  <style type="text/css">*{stroke-linejoin: round; stroke-linecap: butt}</style>
 </defs>
 <g id="figure_1">
  <g id="patch_1">
   <path d="M 0 394.782188 
L 509.195937 394.782188 
L 509.195937 -0 
L 0 -0 
z
" style="fill: #ffffff"/>
  </g>
  <g id="axes_1">
   <g id="patch_2">
    <path d="M 55.595938 354.958125 
L 501.995937 354.958125 
L 501.995937 22.318125 
L 55.595938 22.318125 
z
" style="fill: #ffffff"/>
   </g>
   <g id="matplotlib.axis_1">
    <g id="xtick_1">
     <g id="line2d_1">
      <defs>
       <path id="mee5f6e7bf0" d="M 0 0 
L 0 4.8 
" style="stroke: #000000"/>
      </defs>
      <g>
       <use xlink:href="#mee5f6e7bf0" x="129.995937" y="354.958125" style="stroke: #000000"/>
      </g>
     </g>
     <g id="text_1">
      <!-- ghspec -->
      <g transform="translate(112.048281 370.856562) scale(0.1 -0.1)">
       <defs>
        <path id="DejaVuSans-67" d="M 2906 1791 
Q 2906 2416 2648 2759 
Q 2391 3103 1925 3103 
Q 1463 3103 1205 2759 
Q 947 2416 947 1791 
Q 947 1169 1205 825 
Q 1463 481 1925 481 
Q 2391 481 2648 825 
Q 2906 1169 2906 1791 
z
M 3481 434 
Q 3481 -459 3084 -895 
Q 2688 -1331 1869 -1331 
Q 1566 -1331 1297 -1286 
Q 1028 -1241 775 -1147 
L 775 -588 
Q 1028 -725 1275 -790 
Q 1522 -856 1778 -856 
Q 2344 -856 2625 -561 
Q 2906 -266 2906 331 
L 2906 616 
Q 2728 306 2450 153 
Q 2172 0 1784 0 
Q 1141 0 747 490 
Q 353 981 353 1791 
Q 353 2603 747 3093 
Q 1141 3584 1784 3584 
Q 2172 3584 2450 3431 
Q 2728 3278 2906 2969 
L 2906 3500 
L 3481 3500 
L 3481 434 
z
" transform="scale(0.015625)"/>
        <path id="DejaVuSans-68" d="M 3513 2113 
L 3513 0 
L 2938 0 
L 2938 2094 
Q 2938 2591 2744 2837 
Q 2550 3084 2163 3084 
Q 1697 3084 1428 2787 
Q 1159 2491 1159 1978 
L 1159 0 
L 581 0 
L 581 4863 
L 1159 4863 
L 1159 2956 
Q 1366 3272 1645 3428 
Q 1925 3584 2291 3584 
Q 2894 3584 3203 3211 
Q 3513 2838 3513 2113 
z
" transform="scale(0.015625)"/>
        <path id="DejaVuSans-73" d="M 2834 3397 
L 2834 2853 
Q 2591 2978 2328 3040 
Q 2066 3103 1784 3103 
Q 1356 3103 1142 2972 
Q 928 2841 928 2578 
Q 928 2378 1081 2264 
Q 1234 2150 1697 2047 
L 1894 2003 
Q 2506 1872 2764 1633 
Q 3022 1394 3022 966 
Q 3022 478 2636 193 
Q 2250 -91 1575 -91 
Q 1294 -91 989 -36 
Q 684 19 347 128 
L 347 722 
Q 666 556 975 473 
Q 1284 391 1588 391 
Q 1994 391 2212 530 
Q 2431 669 2431 922 
Q 2431 1156 2273 1281 
Q 2116 1406 1581 1522 
L 1381 1569 
Q 847 1681 609 1914 
Q 372 2147 372 2553 
Q 372 3047 722 3315 
Q 1072 3584 1716 3584 
Q 2034 3584 2315 3537 
Q 2597 3491 2834 3397 
z
" transform="scale(0.015625)"/>
        <path id="DejaVuSans-70" d="M 1159 525 
L 1159 -1331 
L 581 -1331 
L 581 3500 
L 1159 3500 
L 1159 2969 
Q 1341 3281 1617 3432 
Q 1894 3584 2278 3584 
Q 2916 3584 3314 3078 
Q 3713 2572 3713 1747 
Q 3713 922 3314 415 
Q 2916 -91 2278 -91 
Q 1894 -91 1617 61 
Q 1341 213 1159 525 
z
M 3116 1747 
Q 3116 2381 2855 2742 
Q 2594 3103 2138 3103 
Q 1681 3103 1420 2742 
Q 1159 2381 1159 1747 
Q 1159 1113 1420 752 
Q 1681 391 2138 391 
Q 2594 391 2855 752 
Q 3116 1113 3116 1747 
z
" transform="scale(0.015625)"/>
        <path id="DejaVuSans-65" d="M 3597 1894 
L 3597 1613 
L 953 1613 
Q 991 1019 1311 708 
Q 1631 397 2203 397 
Q 2534 397 2845 478 
Q 3156 559 3463 722 
L 3463 178 
Q 3153 47 2828 -22 
Q 2503 -91 2169 -91 
Q 1331 -91 842 396 
Q 353 884 353 1716 
Q 353 2575 817 3079 
Q 1281 3584 2069 3584 
Q 2775 3584 3186 3129 
Q 3597 2675 3597 1894 
z
M 3022 2063 
Q 3016 2534 2758 2815 
Q 2500 3097 2075 3097 
Q 1594 3097 1305 2825 
Q 1016 2553 972 2059 
L 3022 2063 
z
" transform="scale(0.015625)"/>
        <path id="DejaVuSans-63" d="M 3122 3366 
L 3122 2828 
Q 2878 2963 2633 3030 
Q 2388 3097 2138 3097 
Q 1578 3097 1268 2742 
Q 959 2388 959 1747 
Q 959 1106 1268 751 
Q 1578 397 2138 397 
Q 2388 397 2633 464 
Q 2878 531 3122 666 
L 3122 134 
Q 2881 22 2623 -34 
Q 2366 -91 2075 -91 
Q 1284 -91 818 406 
Q 353 903 353 1747 
Q 353 2603 823 3093 
Q 1294 3584 2113 3584 
Q 2378 3584 2631 3529 
Q 2884 3475 3122 3366 
z
" transform="scale(0.015625)"/>
       </defs>
       <use xlink:href="#DejaVuSans-67"/>
       <use xlink:href="#DejaVuSans-68" x="63.476562"/>
       <use xlink:href="#DejaVuSans-73" x="126.855469"/>
       <use xlink:href="#DejaVuSans-70" x="178.955078"/>
       <use xlink:href="#DejaVuSans-65" x="242.431641"/>
       <use xlink:href="#DejaVuSans-63" x="303.955078"/>
      </g>
     </g>
    </g>
    <g id="xtick_2">
     <g id="line2d_2">
      <g>
       <use xlink:href="#mee5f6e7bf0" x="278.795937" y="354.958125" style="stroke: #000000"/>
      </g>
     </g>
     <g id="text_2">
      <!-- baes -->
      <g transform="translate(266.876406 370.856562) scale(0.1 -0.1)">
       <defs>
        <path id="DejaVuSans-62" d="M 3116 1747 
Q 3116 2381 2855 2742 
Q 2594 3103 2138 3103 
Q 1681 3103 1420 2742 
Q 1159 2381 1159 1747 
Q 1159 1113 1420 752 
Q 1681 391 2138 391 
Q 2594 391 2855 752 
Q 3116 1113 3116 1747 
z
M 1159 2969 
Q 1341 3281 1617 3432 
Q 1894 3584 2278 3584 
Q 2916 3584 3314 3078 
Q 3713 2572 3713 1747 
Q 3713 922 3314 415 
Q 2916 -91 2278 -91 
Q 1894 -91 1617 61 
Q 1341 213 1159 525 
L 1159 0 
L 581 0 
L 581 4863 
L 1159 4863 
L 1159 2969 
z
" transform="scale(0.015625)"/>
        <path id="DejaVuSans-61" d="M 2194 1759 
Q 1497 1759 1228 1600 
Q 959 1441 959 1056 
Q 959 750 1161 570 
Q 1363 391 1709 391 
Q 2188 391 2477 730 
Q 2766 1069 2766 1631 
L 2766 1759 
L 2194 1759 
z
M 3341 1997 
L 3341 0 
L 2766 0 
L 2766 531 
Q 2569 213 2275 61 
Q 1981 -91 1556 -91 
Q 1019 -91 701 211 
Q 384 513 384 1019 
Q 384 1609 779 1909 
Q 1175 2209 1959 2209 
L 2766 2209 
L 2766 2266 
Q 2766 2663 2505 2880 
Q 2244 3097 1772 3097 
Q 1472 3097 1187 3025 
Q 903 2953 641 2809 
L 641 3341 
Q 956 3463 1253 3523 
Q 1550 3584 1831 3584 
Q 2591 3584 2966 3190 
Q 3341 2797 3341 1997 
z
" transform="scale(0.015625)"/>
       </defs>
       <use xlink:href="#DejaVuSans-62"/>
       <use xlink:href="#DejaVuSans-61" x="63.476562"/>
       <use xlink:href="#DejaVuSans-65" x="124.755859"/>
       <use xlink:href="#DejaVuSans-73" x="186.279297"/>
      </g>
     </g>
    </g>
    <g id="xtick_3">
     <g id="line2d_3">
      <g>
       <use xlink:href="#mee5f6e7bf0" x="427.595937" y="354.958125" style="stroke: #000000"/>
      </g>
     </g>
     <g id="text_3">
      <!-- chatdev -->
      <g transform="translate(407.443594 370.856562) scale(0.1 -0.1)">
       <defs>
        <path id="DejaVuSans-74" d="M 1172 4494 
L 1172 3500 
L 2356 3500 
L 2356 3053 
L 1172 3053 
L 1172 1153 
Q 1172 725 1289 603 
Q 1406 481 1766 481 
L 2356 481 
L 2356 0 
L 1766 0 
Q 1100 0 847 248 
Q 594 497 594 1153 
L 594 3053 
L 172 3053 
L 172 3500 
L 594 3500 
L 594 4494 
L 1172 4494 
z
" transform="scale(0.015625)"/>
        <path id="DejaVuSans-64" d="M 2906 2969 
L 2906 4863 
L 3481 4863 
L 3481 0 
L 2906 0 
L 2906 525 
Q 2725 213 2448 61 
Q 2172 -91 1784 -91 
Q 1150 -91 751 415 
Q 353 922 353 1747 
Q 353 2572 751 3078 
Q 1150 3584 1784 3584 
Q 2172 3584 2448 3432 
Q 2725 3281 2906 2969 
z
M 947 1747 
Q 947 1113 1208 752 
Q 1469 391 1925 391 
Q 2381 391 2643 752 
Q 2906 1113 2906 1747 
Q 2906 2381 2643 2742 
Q 2381 3103 1925 3103 
Q 1469 3103 1208 2742 
Q 947 2381 947 1747 
z
" transform="scale(0.015625)"/>
        <path id="DejaVuSans-76" d="M 191 3500 
L 800 3500 
L 1894 563 
L 2988 3500 
L 3597 3500 
L 2284 0 
L 1503 0 
L 191 3500 
z
" transform="scale(0.015625)"/>
       </defs>
       <use xlink:href="#DejaVuSans-63"/>
       <use xlink:href="#DejaVuSans-68" x="54.980469"/>
       <use xlink:href="#DejaVuSans-61" x="118.359375"/>
       <use xlink:href="#DejaVuSans-74" x="179.638672"/>
       <use xlink:href="#DejaVuSans-64" x="218.847656"/>
       <use xlink:href="#DejaVuSans-65" x="282.324219"/>
       <use xlink:href="#DejaVuSans-76" x="343.847656"/>
      </g>
     </g>
    </g>
    <g id="text_4">
     <!-- Framework -->
     <g transform="translate(248.349141 385.294531) scale(0.11 -0.11)">
      <defs>
       <path id="DejaVuSans-46" d="M 628 4666 
L 3309 4666 
L 3309 4134 
L 1259 4134 
L 1259 2759 
L 3109 2759 
L 3109 2228 
L 1259 2228 
L 1259 0 
L 628 0 
L 628 4666 
z
" transform="scale(0.015625)"/>
       <path id="DejaVuSans-72" d="M 2631 2963 
Q 2534 3019 2420 3045 
Q 2306 3072 2169 3072 
Q 1681 3072 1420 2755 
Q 1159 2438 1159 1844 
L 1159 0 
L 581 0 
L 581 3500 
L 1159 3500 
L 1159 2956 
Q 1341 3275 1631 3429 
Q 1922 3584 2338 3584 
Q 2397 3584 2469 3576 
Q 2541 3569 2628 3553 
L 2631 2963 
z
" transform="scale(0.015625)"/>
       <path id="DejaVuSans-6d" d="M 3328 2828 
Q 3544 3216 3844 3400 
Q 4144 3584 4550 3584 
Q 5097 3584 5394 3201 
Q 5691 2819 5691 2113 
L 5691 0 
L 5113 0 
L 5113 2094 
Q 5113 2597 4934 2840 
Q 4756 3084 4391 3084 
Q 3944 3084 3684 2787 
Q 3425 2491 3425 1978 
L 3425 0 
L 2847 0 
L 2847 2094 
Q 2847 2600 2669 2842 
Q 2491 3084 2119 3084 
Q 1678 3084 1418 2786 
Q 1159 2488 1159 1978 
L 1159 0 
L 581 0 
L 581 3500 
L 1159 3500 
L 1159 2956 
Q 1356 3278 1631 3431 
Q 1906 3584 2284 3584 
Q 2666 3584 2933 3390 
Q 3200 3197 3328 2828 
z
" transform="scale(0.015625)"/>
       <path id="DejaVuSans-77" d="M 269 3500 
L 844 3500 
L 1563 769 
L 2278 3500 
L 2956 3500 
L 3675 769 
L 4391 3500 
L 4966 3500 
L 4050 0 
L 3372 0 
L 2619 2869 
L 1863 0 
L 1184 0 
L 269 3500 
z
" transform="scale(0.015625)"/>
       <path id="DejaVuSans-6f" d="M 1959 3097 
Q 1497 3097 1228 2736 
Q 959 2375 959 1747 
Q 959 1119 1226 758 
Q 1494 397 1959 397 
Q 2419 397 2687 759 
Q 2956 1122 2956 1747 
Q 2956 2369 2687 2733 
Q 2419 3097 1959 3097 
z
M 1959 3584 
Q 2709 3584 3137 3096 
Q 3566 2609 3566 1747 
Q 3566 888 3137 398 
Q 2709 -91 1959 -91 
Q 1206 -91 779 398 
Q 353 888 353 1747 
Q 353 2609 779 3096 
Q 1206 3584 1959 3584 
z
" transform="scale(0.015625)"/>
       <path id="DejaVuSans-6b" d="M 581 4863 
L 1159 4863 
L 1159 1991 
L 2875 3500 
L 3609 3500 
L 1753 1863 
L 3688 0 
L 2938 0 
L 1159 1709 
L 1159 0 
L 581 0 
L 581 4863 
z
" transform="scale(0.015625)"/>
      </defs>
      <use xlink:href="#DejaVuSans-46"/>
      <use xlink:href="#DejaVuSans-72" x="50.269531"/>
      <use xlink:href="#DejaVuSans-61" x="91.382812"/>
      <use xlink:href="#DejaVuSans-6d" x="152.662109"/>
      <use xlink:href="#DejaVuSans-65" x="250.074219"/>
      <use xlink:href="#DejaVuSans-77" x="311.597656"/>
      <use xlink:href="#DejaVuSans-6f" x="393.384766"/>
      <use xlink:href="#DejaVuSans-72" x="454.566406"/>
      <use xlink:href="#DejaVuSans-6b" x="495.679688"/>
     </g>
    </g>
   </g>
   <g id="matplotlib.axis_2">
    <g id="ytick_1">
     <g id="line2d_4">
      <path d="M 55.595938 353.353059 
L 501.995937 353.353059 
" clip-path="url(#p95e7211c37)" style="fill: none; stroke: #b0b0b0; stroke-opacity: 0.3; stroke-width: 0.8; stroke-linecap: square"/>
     </g>
     <g id="line2d_5">
      <defs>
       <path id="m1fa69af930" d="M 0 0 
L -4.8 0 
" style="stroke: #000000"/>
      </defs>
      <g>
       <use xlink:href="#m1fa69af930" x="55.595938" y="353.353059" style="stroke: #000000"/>
      </g>
     </g>
     <g id="text_5">
      <!-- 0 -->
      <g transform="translate(40.933438 357.152278) scale(0.1 -0.1)">
       <defs>
        <path id="DejaVuSans-30" d="M 2034 4250 
Q 1547 4250 1301 3770 
Q 1056 3291 1056 2328 
Q 1056 1369 1301 889 
Q 1547 409 2034 409 
Q 2525 409 2770 889 
Q 3016 1369 3016 2328 
Q 3016 3291 2770 3770 
Q 2525 4250 2034 4250 
z
M 2034 4750 
Q 2819 4750 3233 4129 
Q 3647 3509 3647 2328 
Q 3647 1150 3233 529 
Q 2819 -91 2034 -91 
Q 1250 -91 836 529 
Q 422 1150 422 2328 
Q 422 3509 836 4129 
Q 1250 4750 2034 4750 
z
" transform="scale(0.015625)"/>
       </defs>
       <use xlink:href="#DejaVuSans-30"/>
      </g>
     </g>
    </g>
    <g id="ytick_2">
     <g id="line2d_6">
      <path d="M 55.595938 284.638442 
L 501.995937 284.638442 
" clip-path="url(#p95e7211c37)" style="fill: none; stroke: #b0b0b0; stroke-opacity: 0.3; stroke-width: 0.8; stroke-linecap: square"/>
     </g>
     <g id="line2d_7">
      <g>
       <use xlink:href="#m1fa69af930" x="55.595938" y="284.638442" style="stroke: #000000"/>
      </g>
     </g>
     <g id="text_6">
      <!-- 500 -->
      <g transform="translate(28.208438 288.437661) scale(0.1 -0.1)">
       <defs>
        <path id="DejaVuSans-35" d="M 691 4666 
L 3169 4666 
L 3169 4134 
L 1269 4134 
L 1269 2991 
Q 1406 3038 1543 3061 
Q 1681 3084 1819 3084 
Q 2600 3084 3056 2656 
Q 3513 2228 3513 1497 
Q 3513 744 3044 326 
Q 2575 -91 1722 -91 
Q 1428 -91 1123 -41 
Q 819 9 494 109 
L 494 744 
Q 775 591 1075 516 
Q 1375 441 1709 441 
Q 2250 441 2565 725 
Q 2881 1009 2881 1497 
Q 2881 1984 2565 2268 
Q 2250 2553 1709 2553 
Q 1456 2553 1204 2497 
Q 953 2441 691 2322 
L 691 4666 
z
" transform="scale(0.015625)"/>
       </defs>
       <use xlink:href="#DejaVuSans-35"/>
       <use xlink:href="#DejaVuSans-30" x="63.623047"/>
       <use xlink:href="#DejaVuSans-30" x="127.246094"/>
      </g>
     </g>
    </g>
    <g id="ytick_3">
     <g id="line2d_8">
      <path d="M 55.595938 215.923824 
L 501.995937 215.923824 
" clip-path="url(#p95e7211c37)" style="fill: none; stroke: #b0b0b0; stroke-opacity: 0.3; stroke-width: 0.8; stroke-linecap: square"/>
     </g>
     <g id="line2d_9">
      <g>
       <use xlink:href="#m1fa69af930" x="55.595938" y="215.923824" style="stroke: #000000"/>
      </g>
     </g>
     <g id="text_7">
      <!-- 1000 -->
      <g transform="translate(21.845938 219.723043) scale(0.1 -0.1)">
       <defs>
        <path id="DejaVuSans-31" d="M 794 531 
L 1825 531 
L 1825 4091 
L 703 3866 
L 703 4441 
L 1819 4666 
L 2450 4666 
L 2450 531 
L 3481 531 
L 3481 0 
L 794 0 
L 794 531 
z
" transform="scale(0.015625)"/>
       </defs>
       <use xlink:href="#DejaVuSans-31"/>
       <use xlink:href="#DejaVuSans-30" x="63.623047"/>
       <use xlink:href="#DejaVuSans-30" x="127.246094"/>
       <use xlink:href="#DejaVuSans-30" x="190.869141"/>
      </g>
     </g>
    </g>
    <g id="ytick_4">
     <g id="line2d_10">
      <path d="M 55.595938 147.209207 
L 501.995937 147.209207 
" clip-path="url(#p95e7211c37)" style="fill: none; stroke: #b0b0b0; stroke-opacity: 0.3; stroke-width: 0.8; stroke-linecap: square"/>
     </g>
     <g id="line2d_11">
      <g>
       <use xlink:href="#m1fa69af930" x="55.595938" y="147.209207" style="stroke: #000000"/>
      </g>
     </g>
     <g id="text_8">
      <!-- 1500 -->
      <g transform="translate(21.845938 151.008426) scale(0.1 -0.1)">
       <use xlink:href="#DejaVuSans-31"/>
       <use xlink:href="#DejaVuSans-35" x="63.623047"/>
       <use xlink:href="#DejaVuSans-30" x="127.246094"/>
       <use xlink:href="#DejaVuSans-30" x="190.869141"/>
      </g>
     </g>
    </g>
    <g id="ytick_5">
     <g id="line2d_12">
      <path d="M 55.595938 78.494589 
L 501.995937 78.494589 
" clip-path="url(#p95e7211c37)" style="fill: none; stroke: #b0b0b0; stroke-opacity: 0.3; stroke-width: 0.8; stroke-linecap: square"/>
     </g>
     <g id="line2d_13">
      <g>
       <use xlink:href="#m1fa69af930" x="55.595938" y="78.494589" style="stroke: #000000"/>
      </g>
     </g>
     <g id="text_9">
      <!-- 2000 -->
      <g transform="translate(21.845938 82.293808) scale(0.1 -0.1)">
       <defs>
        <path id="DejaVuSans-32" d="M 1228 531 
L 3431 531 
L 3431 0 
L 469 0 
L 469 531 
Q 828 903 1448 1529 
Q 2069 2156 2228 2338 
Q 2531 2678 2651 2914 
Q 2772 3150 2772 3378 
Q 2772 3750 2511 3984 
Q 2250 4219 1831 4219 
Q 1534 4219 1204 4116 
Q 875 4013 500 3803 
L 500 4441 
Q 881 4594 1212 4672 
Q 1544 4750 1819 4750 
Q 2544 4750 2975 4387 
Q 3406 4025 3406 3419 
Q 3406 3131 3298 2873 
Q 3191 2616 2906 2266 
Q 2828 2175 2409 1742 
Q 1991 1309 1228 531 
z
" transform="scale(0.015625)"/>
       </defs>
       <use xlink:href="#DejaVuSans-32"/>
       <use xlink:href="#DejaVuSans-30" x="63.623047"/>
       <use xlink:href="#DejaVuSans-30" x="127.246094"/>
       <use xlink:href="#DejaVuSans-30" x="190.869141"/>
      </g>
     </g>
    </g>
    <g id="text_10">
     <!-- Execution Time (seconds) -->
     <g transform="translate(15.558281 259.351797) rotate(-90) scale(0.11 -0.11)">
      <defs>
       <path id="DejaVuSans-45" d="M 628 4666 
L 3578 4666 
L 3578 4134 
L 1259 4134 
L 1259 2753 
L 3481 2753 
L 3481 2222 
L 1259 2222 
L 1259 531 
L 3634 531 
L 3634 0 
L 628 0 
L 628 4666 
z
" transform="scale(0.015625)"/>
       <path id="DejaVuSans-78" d="M 3513 3500 
L 2247 1797 
L 3578 0 
L 2900 0 
L 1881 1375 
L 863 0 
L 184 0 
L 1544 1831 
L 300 3500 
L 978 3500 
L 1906 2253 
L 2834 3500 
L 3513 3500 
z
" transform="scale(0.015625)"/>
       <path id="DejaVuSans-75" d="M 544 1381 
L 544 3500 
L 1119 3500 
L 1119 1403 
Q 1119 906 1312 657 
Q 1506 409 1894 409 
Q 2359 409 2629 706 
Q 2900 1003 2900 1516 
L 2900 3500 
L 3475 3500 
L 3475 0 
L 2900 0 
L 2900 538 
Q 2691 219 2414 64 
Q 2138 -91 1772 -91 
Q 1169 -91 856 284 
Q 544 659 544 1381 
z
M 1991 3584 
L 1991 3584 
z
" transform="scale(0.015625)"/>
       <path id="DejaVuSans-69" d="M 603 3500 
L 1178 3500 
L 1178 0 
L 603 0 
L 603 3500 
z
M 603 4863 
L 1178 4863 
L 1178 4134 
L 603 4134 
L 603 4863 
z
" transform="scale(0.015625)"/>
       <path id="DejaVuSans-6e" d="M 3513 2113 
L 3513 0 
L 2938 0 
L 2938 2094 
Q 2938 2591 2744 2837 
Q 2550 3084 2163 3084 
Q 1697 3084 1428 2787 
Q 1159 2491 1159 1978 
L 1159 0 
L 581 0 
L 581 3500 
L 1159 3500 
L 1159 2956 
Q 1366 3272 1645 3428 
Q 1925 3584 2291 3584 
Q 2894 3584 3203 3211 
Q 3513 2838 3513 2113 
z
" transform="scale(0.015625)"/>
       <path id="DejaVuSans-20" transform="scale(0.015625)"/>
       <path id="DejaVuSans-54" d="M -19 4666 
L 3928 4666 
L 3928 4134 
L 2272 4134 
L 2272 0 
L 1638 0 
L 1638 4134 
L -19 4134 
L -19 4666 
z
" transform="scale(0.015625)"/>
       <path id="DejaVuSans-28" d="M 1984 4856 
Q 1566 4138 1362 3434 
Q 1159 2731 1159 2009 
Q 1159 1288 1364 580 
Q 1569 -128 1984 -844 
L 1484 -844 
Q 1016 -109 783 600 
Q 550 1309 550 2009 
Q 550 2706 781 3412 
Q 1013 4119 1484 4856 
L 1984 4856 
z
" transform="scale(0.015625)"/>
       <path id="DejaVuSans-29" d="M 513 4856 
L 1013 4856 
Q 1481 4119 1714 3412 
Q 1947 2706 1947 2009 
Q 1947 1309 1714 600 
Q 1481 -109 1013 -844 
L 513 -844 
Q 928 -128 1133 580 
Q 1338 1288 1338 2009 
Q 1338 2731 1133 3434 
Q 928 4138 513 4856 
z
" transform="scale(0.015625)"/>
      </defs>
      <use xlink:href="#DejaVuSans-45"/>
      <use xlink:href="#DejaVuSans-78" x="63.183594"/>
      <use xlink:href="#DejaVuSans-65" x="119.238281"/>
      <use xlink:href="#DejaVuSans-63" x="180.761719"/>
      <use xlink:href="#DejaVuSans-75" x="235.742188"/>
      <use xlink:href="#DejaVuSans-74" x="299.121094"/>
      <use xlink:href="#DejaVuSans-69" x="338.330078"/>
      <use xlink:href="#DejaVuSans-6f" x="366.113281"/>
      <use xlink:href="#DejaVuSans-6e" x="427.294922"/>
      <use xlink:href="#DejaVuSans-20" x="490.673828"/>
      <use xlink:href="#DejaVuSans-54" x="522.460938"/>
      <use xlink:href="#DejaVuSans-69" x="580.419922"/>
      <use xlink:href="#DejaVuSans-6d" x="608.203125"/>
      <use xlink:href="#DejaVuSans-65" x="705.615234"/>
      <use xlink:href="#DejaVuSans-20" x="767.138672"/>
      <use xlink:href="#DejaVuSans-28" x="798.925781"/>
      <use xlink:href="#DejaVuSans-73" x="837.939453"/>
      <use xlink:href="#DejaVuSans-65" x="890.039062"/>
      <use xlink:href="#DejaVuSans-63" x="951.5625"/>
      <use xlink:href="#DejaVuSans-6f" x="1006.542969"/>
      <use xlink:href="#DejaVuSans-6e" x="1067.724609"/>
      <use xlink:href="#DejaVuSans-64" x="1131.103516"/>
      <use xlink:href="#DejaVuSans-73" x="1194.580078"/>
      <use xlink:href="#DejaVuSans-29" x="1246.679688"/>
     </g>
    </g>
   </g>
   <g id="PolyCollection_1">
    <defs>
     <path id="m9a6372a16d" d="M 130.071503 -101.299421 
L 129.920372 -101.299421 
L 129.886825 -102.883955 
L 129.842152 -104.468489 
L 129.784249 -106.053023 
L 129.711163 -107.637557 
L 129.621278 -109.222091 
L 129.513491 -110.806626 
L 129.387368 -112.39116 
L 129.243251 -113.975694 
L 129.082305 -115.560228 
L 128.906507 -117.144762 
L 128.718579 -118.729296 
L 128.521876 -120.31383 
L 128.320242 -121.898364 
L 128.117809 -123.482898 
L 127.918763 -125.067432 
L 127.72702 -126.651966 
L 127.545843 -128.236501 
L 127.377392 -129.821035 
L 127.222263 -131.405569 
L 127.079095 -132.990103 
L 126.944323 -134.574637 
L 126.81218 -136.159171 
L 126.674983 -137.743705 
L 126.52371 -139.328239 
L 126.348784 -140.912773 
L 126.140973 -142.497307 
L 125.892238 -144.081841 
L 125.596439 -145.666376 
L 125.249798 -147.25091 
L 124.851119 -148.835444 
L 124.401798 -150.419978 
L 123.905694 -152.004512 
L 123.368933 -153.589046 
L 122.799684 -155.17358 
L 122.207896 -156.758114 
L 121.604982 -158.342648 
L 121.003385 -159.927182 
L 120.416013 -161.511717 
L 119.855561 -163.096251 
L 119.333788 -164.680785 
L 118.860853 -166.265319 
L 118.444828 -167.849853 
L 118.091488 -169.434387 
L 117.804402 -171.018921 
L 117.585321 -172.603455 
L 117.434781 -174.187989 
L 117.352777 -175.772523 
L 117.339383 -177.357057 
L 117.395186 -178.941592 
L 117.52142 -180.526126 
L 117.719779 -182.11066 
L 117.991917 -183.695194 
L 118.338724 -185.279728 
L 118.759499 -186.864262 
L 119.251177 -188.448796 
L 119.807775 -190.03333 
L 120.420157 -191.617864 
L 121.076204 -193.202398 
L 121.761386 -194.786932 
L 122.45964 -196.371467 
L 123.154461 -197.956001 
L 123.83001 -199.540535 
L 124.472123 -201.125069 
L 125.069083 -202.709603 
L 125.612102 -204.294137 
L 126.095517 -205.878671 
L 126.516737 -207.463205 
L 126.876015 -209.047739 
L 127.176114 -210.632273 
L 127.421903 -212.216807 
L 127.619918 -213.801342 
L 127.777878 -215.385876 
L 127.904144 -216.97041 
L 128.007149 -218.554944 
L 128.094821 -220.139478 
L 128.174057 -221.724012 
L 128.250342 -223.308546 
L 128.327538 -224.89308 
L 128.407912 -226.477614 
L 128.492356 -228.062148 
L 128.580754 -229.646682 
L 128.672407 -231.231217 
L 128.76641 -232.815751 
L 128.86192 -234.400285 
L 128.958264 -235.984819 
L 129.054912 -237.569353 
L 129.151358 -239.153887 
L 129.246962 -240.738421 
L 129.340843 -242.322955 
L 129.43184 -243.907489 
L 129.518577 -245.492023 
L 129.599601 -247.076558 
L 129.673558 -248.661092 
L 129.739371 -250.245626 
L 129.796372 -251.83016 
L 129.844362 -253.414694 
L 129.883606 -254.999228 
L 129.91476 -256.583762 
L 129.938761 -258.168296 
L 130.053114 -258.168296 
L 130.053114 -258.168296 
L 130.077115 -256.583762 
L 130.108269 -254.999228 
L 130.147513 -253.414694 
L 130.195503 -251.83016 
L 130.252504 -250.245626 
L 130.318317 -248.661092 
L 130.392274 -247.076558 
L 130.473298 -245.492023 
L 130.560035 -243.907489 
L 130.651032 -242.322955 
L 130.744913 -240.738421 
L 130.840517 -239.153887 
L 130.936963 -237.569353 
L 131.033611 -235.984819 
L 131.129955 -234.400285 
L 131.225465 -232.815751 
L 131.319468 -231.231217 
L 131.411121 -229.646682 
L 131.499519 -228.062148 
L 131.583963 -226.477614 
L 131.664337 -224.89308 
L 131.741533 -223.308546 
L 131.817818 -221.724012 
L 131.897054 -220.139478 
L 131.984726 -218.554944 
L 132.087731 -216.97041 
L 132.213997 -215.385876 
L 132.371957 -213.801342 
L 132.569972 -212.216807 
L 132.815761 -210.632273 
L 133.11586 -209.047739 
L 133.475138 -207.463205 
L 133.896358 -205.878671 
L 134.379773 -204.294137 
L 134.922792 -202.709603 
L 135.519752 -201.125069 
L 136.161865 -199.540535 
L 136.837414 -197.956001 
L 137.532235 -196.371467 
L 138.230489 -194.786932 
L 138.915671 -193.202398 
L 139.571718 -191.617864 
L 140.1841 -190.03333 
L 140.740698 -188.448796 
L 141.232376 -186.864262 
L 141.653151 -185.279728 
L 141.999958 -183.695194 
L 142.272096 -182.11066 
L 142.470455 -180.526126 
L 142.596689 -178.941592 
L 142.652492 -177.357057 
L 142.639098 -175.772523 
L 142.557094 -174.187989 
L 142.406554 -172.603455 
L 142.187473 -171.018921 
L 141.900387 -169.434387 
L 141.547047 -167.849853 
L 141.131022 -166.265319 
L 140.658087 -164.680785 
L 140.136314 -163.096251 
L 139.575862 -161.511717 
L 138.98849 -159.927182 
L 138.386893 -158.342648 
L 137.783979 -156.758114 
L 137.192191 -155.17358 
L 136.622942 -153.589046 
L 136.086181 -152.004512 
L 135.590077 -150.419978 
L 135.140756 -148.835444 
L 134.742077 -147.25091 
L 134.395436 -145.666376 
L 134.099637 -144.081841 
L 133.850902 -142.497307 
L 133.643091 -140.912773 
L 133.468165 -139.328239 
L 133.316892 -137.743705 
L 133.179695 -136.159171 
L 133.047552 -134.574637 
L 132.91278 -132.990103 
L 132.769612 -131.405569 
L 132.614483 -129.821035 
L 132.446032 -128.236501 
L 132.264855 -126.651966 
L 132.073112 -125.067432 
L 131.874066 -123.482898 
L 131.671633 -121.898364 
L 131.469999 -120.31383 
L 131.273296 -118.729296 
L 131.085368 -117.144762 
L 130.90957 -115.560228 
L 130.748624 -113.975694 
L 130.604507 -112.39116 
L 130.478384 -110.806626 
L 130.370597 -109.222091 
L 130.280712 -107.637557 
L 130.207626 -106.053023 
L 130.149723 -104.468489 
L 130.10505 -102.883955 
L 130.071503 -101.299421 
z
" style="stroke: #303030; stroke-width: 1.2"/>
    </defs>
    <g clip-path="url(#p95e7211c37)">
     <use xlink:href="#m9a6372a16d" x="0" y="394.782188" style="fill: #176d9c; stroke: #303030; stroke-width: 1.2"/>
    </g>
   </g>
   <g id="PolyCollection_2">
    <defs>
     <path id="m66e8139b03" d="M 279.219168 -54.944063 
L 278.372707 -54.944063 
L 278.097107 -55.417853 
L 277.693871 -55.891644 
L 277.134512 -56.365435 
L 276.398674 -56.839226 
L 275.479955 -57.313016 
L 274.38935 -57.786807 
L 273.15422 -58.260598 
L 271.811807 -58.734389 
L 270.398443 -59.208179 
L 268.93775 -59.68197 
L 267.432407 -60.155761 
L 265.863311 -60.629552 
L 264.197251 -61.103342 
L 262.400428 -61.577133 
L 260.452193 -62.050924 
L 258.352902 -62.524715 
L 256.122334 -62.998505 
L 253.789625 -63.472296 
L 251.379853 -63.946087 
L 248.90402 -64.419878 
L 246.357338 -64.893669 
L 243.726456 -65.367459 
L 241.00193 -65.84125 
L 238.190129 -66.315041 
L 235.319879 -66.788832 
L 232.442525 -67.262622 
L 229.627552 -67.736413 
L 226.957529 -68.210204 
L 224.525043 -68.683995 
L 222.431617 -69.157785 
L 220.786139 -69.631576 
L 219.699762 -70.105367 
L 219.275937 -70.579158 
L 219.597017 -71.052948 
L 220.711043 -71.526739 
L 222.622554 -72.00053 
L 225.289546 -72.474321 
L 228.62628 -72.948111 
L 232.509946 -73.421902 
L 236.789088 -73.895693 
L 241.292947 -74.369484 
L 245.84224 -74.843275 
L 250.262289 -75.317065 
L 254.398373 -75.790856 
L 258.131288 -76.264647 
L 261.389579 -76.738438 
L 264.154734 -77.212228 
L 266.45717 -77.686019 
L 268.363514 -78.15981 
L 269.958343 -78.633601 
L 271.325163 -79.107391 
L 272.531324 -79.581182 
L 273.619984 -80.054973 
L 274.609813 -80.528764 
L 275.500819 -81.002554 
L 276.283306 -81.476345 
L 276.94674 -81.950136 
L 277.48615 -82.423927 
L 277.905024 -82.897717 
L 278.214964 -83.371508 
L 278.433205 -83.845299 
L 278.579336 -84.31909 
L 278.672345 -84.792881 
L 278.7286 -85.266671 
L 278.76093 -85.740462 
L 278.778581 -86.214253 
L 278.787734 -86.688044 
L 278.792241 -87.161834 
L 278.794343 -87.635625 
L 278.79526 -88.109416 
L 278.795599 -88.583207 
L 278.795612 -89.056997 
L 278.795319 -89.530788 
L 278.794524 -90.004579 
L 278.792748 -90.47837 
L 278.789066 -90.95216 
L 278.781873 -91.425951 
L 278.76861 -91.899742 
L 278.745538 -92.373533 
L 278.707706 -92.847323 
L 278.649322 -93.321114 
L 278.564682 -93.794905 
L 278.44971 -94.268696 
L 278.303911 -94.742487 
L 278.132235 -95.216277 
L 277.946138 -95.690068 
L 277.763135 -96.163859 
L 277.604487 -96.63765 
L 277.491292 -97.11144 
L 277.439916 -97.585231 
L 277.458115 -98.059022 
L 277.543119 -98.532813 
L 277.682321 -99.006603 
L 277.856342 -99.480394 
L 278.043442 -99.954185 
L 278.223899 -100.427976 
L 278.383172 -100.901766 
L 278.513228 -101.375557 
L 278.612142 -101.849348 
L 278.979733 -101.849348 
L 278.979733 -101.849348 
L 279.078647 -101.375557 
L 279.208703 -100.901766 
L 279.367976 -100.427976 
L 279.548433 -99.954185 
L 279.735533 -99.480394 
L 279.909554 -99.006603 
L 280.048756 -98.532813 
L 280.13376 -98.059022 
L 280.151959 -97.585231 
L 280.100583 -97.11144 
L 279.987388 -96.63765 
L 279.82874 -96.163859 
L 279.645737 -95.690068 
L 279.45964 -95.216277 
L 279.287964 -94.742487 
L 279.142165 -94.268696 
L 279.027193 -93.794905 
L 278.942553 -93.321114 
L 278.884169 -92.847323 
L 278.846337 -92.373533 
L 278.823265 -91.899742 
L 278.810002 -91.425951 
L 278.802809 -90.95216 
L 278.799127 -90.47837 
L 278.797351 -90.004579 
L 278.796556 -89.530788 
L 278.796263 -89.056997 
L 278.796276 -88.583207 
L 278.796615 -88.109416 
L 278.797532 -87.635625 
L 278.799634 -87.161834 
L 278.804141 -86.688044 
L 278.813294 -86.214253 
L 278.830945 -85.740462 
L 278.863275 -85.266671 
L 278.91953 -84.792881 
L 279.012539 -84.31909 
L 279.15867 -83.845299 
L 279.376911 -83.371508 
L 279.686851 -82.897717 
L 280.105725 -82.423927 
L 280.645135 -81.950136 
L 281.308569 -81.476345 
L 282.091056 -81.002554 
L 282.982062 -80.528764 
L 283.971891 -80.054973 
L 285.060551 -79.581182 
L 286.266712 -79.107391 
L 287.633532 -78.633601 
L 289.228361 -78.15981 
L 291.134705 -77.686019 
L 293.437141 -77.212228 
L 296.202296 -76.738438 
L 299.460587 -76.264647 
L 303.193502 -75.790856 
L 307.329586 -75.317065 
L 311.749635 -74.843275 
L 316.298928 -74.369484 
L 320.802787 -73.895693 
L 325.081929 -73.421902 
L 328.965595 -72.948111 
L 332.302329 -72.474321 
L 334.969321 -72.00053 
L 336.880832 -71.526739 
L 337.994858 -71.052948 
L 338.315937 -70.579158 
L 337.892113 -70.105367 
L 336.805736 -69.631576 
L 335.160258 -69.157785 
L 333.066832 -68.683995 
L 330.634346 -68.210204 
L 327.964323 -67.736413 
L 325.14935 -67.262622 
L 322.271996 -66.788832 
L 319.401746 -66.315041 
L 316.589945 -65.84125 
L 313.865419 -65.367459 
L 311.234537 -64.893669 
L 308.687855 -64.419878 
L 306.212022 -63.946087 
L 303.80225 -63.472296 
L 301.469541 -62.998505 
L 299.238973 -62.524715 
L 297.139682 -62.050924 
L 295.191447 -61.577133 
L 293.394624 -61.103342 
L 291.728564 -60.629552 
L 290.159468 -60.155761 
L 288.654125 -59.68197 
L 287.193432 -59.208179 
L 285.780068 -58.734389 
L 284.437655 -58.260598 
L 283.202525 -57.786807 
L 282.11192 -57.313016 
L 281.193201 -56.839226 
L 280.457363 -56.365435 
L 279.898004 -55.891644 
L 279.494768 -55.417853 
L 279.219168 -54.944063 
z
" style="stroke: #303030; stroke-width: 1.2"/>
    </defs>
    <g clip-path="url(#p95e7211c37)">
     <use xlink:href="#m66e8139b03" x="0" y="394.782188" style="fill: #c38820; stroke: #303030; stroke-width: 1.2"/>
    </g>
   </g>
   <g id="PolyCollection_3">
    <defs>
     <path id="mde665f29df" d="M 427.620052 -90.715324 
L 427.571823 -90.715324 
L 427.562588 -93.408544 
L 427.550858 -96.101764 
L 427.536319 -98.794983 
L 427.518706 -101.488203 
L 427.497796 -104.181422 
L 427.473385 -106.874642 
L 427.445239 -109.567861 
L 427.413018 -112.261081 
L 427.376181 -114.954301 
L 427.33389 -117.64752 
L 427.284916 -120.34074 
L 427.227569 -123.033959 
L 427.159671 -125.727179 
L 427.078564 -128.420398 
L 426.981169 -131.113618 
L 426.864078 -133.806838 
L 426.723675 -136.500057 
L 426.556276 -139.193277 
L 426.358292 -141.886496 
L 426.126397 -144.579716 
L 425.857742 -147.272936 
L 425.550194 -149.966155 
L 425.202632 -152.659375 
L 424.815278 -155.352594 
L 424.390045 -158.045814 
L 423.930859 -160.739033 
L 423.44389 -163.432253 
L 422.937624 -166.125473 
L 422.422718 -168.818692 
L 421.911591 -171.511912 
L 421.417761 -174.205131 
L 420.954962 -176.898351 
L 420.53615 -179.59157 
L 420.172528 -182.28479 
L 419.872741 -184.97801 
L 419.642374 -187.671229 
L 419.483846 -190.364449 
L 419.39672 -193.057668 
L 419.378352 -195.750888 
L 419.424752 -198.444107 
L 419.531456 -201.137327 
L 419.694229 -203.830547 
L 419.909437 -206.523766 
L 420.174019 -209.216986 
L 420.485089 -211.910205 
L 420.83928 -214.603425 
L 421.232011 -217.296645 
L 421.656888 -219.989864 
L 422.105387 -222.683084 
L 422.566953 -225.376303 
L 423.029489 -228.069523 
L 423.4802 -230.762742 
L 423.906613 -233.455962 
L 424.297638 -236.149182 
L 424.644486 -238.842401 
L 424.941319 -241.535621 
L 425.185579 -244.22884 
L 425.377961 -246.92206 
L 425.522078 -249.615279 
L 425.623885 -252.308499 
L 425.690947 -255.001719 
L 425.731647 -257.694938 
L 425.754403 -260.388158 
L 425.766973 -263.081377 
L 425.775907 -265.774597 
L 425.786172 -268.467816 
L 425.800992 -271.161036 
L 425.821885 -273.854256 
L 425.848896 -276.547475 
L 425.88097 -279.240695 
L 425.916427 -281.933914 
L 425.953439 -284.627134 
L 425.990463 -287.320354 
L 426.026567 -290.013573 
L 426.061593 -292.706793 
L 426.096167 -295.400012 
L 426.131569 -298.093232 
L 426.169489 -300.786451 
L 426.211743 -303.479671 
L 426.259987 -306.172891 
L 426.315482 -308.86611 
L 426.378929 -311.55933 
L 426.450396 -314.252549 
L 426.52932 -316.945769 
L 426.614571 -319.638988 
L 426.704562 -322.332208 
L 426.797385 -325.025428 
L 426.890948 -327.718647 
L 426.983124 -330.411867 
L 427.071886 -333.105086 
L 427.155423 -335.798306 
L 427.232247 -338.491525 
L 427.30126 -341.184745 
L 427.361798 -343.877965 
L 427.41363 -346.571184 
L 427.456928 -349.264404 
L 427.492202 -351.957623 
L 427.520218 -354.650843 
L 427.541904 -357.344062 
L 427.649971 -357.344062 
L 427.649971 -357.344062 
L 427.671657 -354.650843 
L 427.699673 -351.957623 
L 427.734947 -349.264404 
L 427.778245 -346.571184 
L 427.830077 -343.877965 
L 427.890615 -341.184745 
L 427.959628 -338.491525 
L 428.036452 -335.798306 
L 428.119989 -333.105086 
L 428.208751 -330.411867 
L 428.300927 -327.718647 
L 428.39449 -325.025428 
L 428.487313 -322.332208 
L 428.577304 -319.638988 
L 428.662555 -316.945769 
L 428.741479 -314.252549 
L 428.812946 -311.55933 
L 428.876393 -308.86611 
L 428.931888 -306.172891 
L 428.980132 -303.479671 
L 429.022386 -300.786451 
L 429.060306 -298.093232 
L 429.095708 -295.400012 
L 429.130282 -292.706793 
L 429.165308 -290.013573 
L 429.201412 -287.320354 
L 429.238436 -284.627134 
L 429.275448 -281.933914 
L 429.310905 -279.240695 
L 429.342979 -276.547475 
L 429.36999 -273.854256 
L 429.390883 -271.161036 
L 429.405703 -268.467816 
L 429.415968 -265.774597 
L 429.424902 -263.081377 
L 429.437472 -260.388158 
L 429.460228 -257.694938 
L 429.500928 -255.001719 
L 429.56799 -252.308499 
L 429.669797 -249.615279 
L 429.813914 -246.92206 
L 430.006296 -244.22884 
L 430.250556 -241.535621 
L 430.547389 -238.842401 
L 430.894237 -236.149182 
L 431.285262 -233.455962 
L 431.711675 -230.762742 
L 432.162386 -228.069523 
L 432.624922 -225.376303 
L 433.086488 -222.683084 
L 433.534987 -219.989864 
L 433.959864 -217.296645 
L 434.352595 -214.603425 
L 434.706786 -211.910205 
L 435.017856 -209.216986 
L 435.282438 -206.523766 
L 435.497646 -203.830547 
L 435.660419 -201.137327 
L 435.767123 -198.444107 
L 435.813523 -195.750888 
L 435.795155 -193.057668 
L 435.708029 -190.364449 
L 435.549501 -187.671229 
L 435.319134 -184.97801 
L 435.019347 -182.28479 
L 434.655725 -179.59157 
L 434.236913 -176.898351 
L 433.774114 -174.205131 
L 433.280284 -171.511912 
L 432.769157 -168.818692 
L 432.254251 -166.125473 
L 431.747985 -163.432253 
L 431.261016 -160.739033 
L 430.80183 -158.045814 
L 430.376597 -155.352594 
L 429.989243 -152.659375 
L 429.641681 -149.966155 
L 429.334133 -147.272936 
L 429.065478 -144.579716 
L 428.833583 -141.886496 
L 428.635599 -139.193277 
L 428.4682 -136.500057 
L 428.327797 -133.806838 
L 428.210706 -131.113618 
L 428.113311 -128.420398 
L 428.032204 -125.727179 
L 427.964306 -123.033959 
L 427.906959 -120.34074 
L 427.857985 -117.64752 
L 427.815694 -114.954301 
L 427.778857 -112.261081 
L 427.746636 -109.567861 
L 427.71849 -106.874642 
L 427.694079 -104.181422 
L 427.673169 -101.488203 
L 427.655556 -98.794983 
L 427.641017 -96.101764 
L 427.629287 -93.408544 
L 427.620052 -90.715324 
z
" style="stroke: #303030; stroke-width: 1.2"/>
    </defs>
    <g clip-path="url(#p95e7211c37)">
     <use xlink:href="#mde665f29df" x="0" y="394.782188" style="fill: #158b6a; stroke: #303030; stroke-width: 1.2"/>
    </g>
   </g>
   <g id="line2d_14">
    <path d="M 119.956965 231.675275 
L 140.03491 231.675275 
" clip-path="url(#p95e7211c37)" style="fill: none; stroke-dasharray: 2.16,2.16; stroke-dashoffset: 0; stroke: #303030; stroke-width: 1.2"/>
   </g>
   <g id="line2d_15">
    <path d="M 117.560393 219.894277 
L 142.431482 219.894277 
" clip-path="url(#p95e7211c37)" style="fill: none; stroke-dasharray: 4.32,4.32; stroke-dashoffset: 0; stroke: #303030; stroke-width: 1.2"/>
   </g>
   <g id="line2d_16">
    <path d="M 119.358625 206.985961 
L 140.63325 206.985961 
" clip-path="url(#p95e7211c37)" style="fill: none; stroke-dasharray: 2.16,2.16; stroke-dashoffset: 0; stroke: #303030; stroke-width: 1.2"/>
   </g>
   <g id="line2d_17">
    <path d="M 232.906059 327.701605 
L 324.685816 327.701605 
" clip-path="url(#p95e7211c37)" style="fill: none; stroke-dasharray: 2.16,2.16; stroke-dashoffset: 0; stroke: #303030; stroke-width: 1.2"/>
   </g>
   <g id="line2d_18">
    <path d="M 220.290724 324.490604 
L 337.301151 324.490604 
" clip-path="url(#p95e7211c37)" style="fill: none; stroke-dasharray: 4.32,4.32; stroke-dashoffset: 0; stroke: #303030; stroke-width: 1.2"/>
   </g>
   <g id="line2d_19">
    <path d="M 225.82461 322.326253 
L 331.767265 322.326253 
" clip-path="url(#p95e7211c37)" style="fill: none; stroke-dasharray: 2.16,2.16; stroke-dashoffset: 0; stroke: #303030; stroke-width: 1.2"/>
   </g>
   <g id="line2d_20">
    <path d="M 419.949973 210.493163 
L 435.241902 210.493163 
" clip-path="url(#p95e7211c37)" style="fill: none; stroke-dasharray: 2.16,2.16; stroke-dashoffset: 0; stroke: #303030; stroke-width: 1.2"/>
   </g>
   <g id="line2d_21">
    <path d="M 419.986302 189.095937 
L 435.205573 189.095937 
" clip-path="url(#p95e7211c37)" style="fill: none; stroke-dasharray: 4.32,4.32; stroke-dashoffset: 0; stroke: #303030; stroke-width: 1.2"/>
   </g>
   <g id="line2d_22">
    <path d="M 422.160293 172.85984 
L 433.031582 172.85984 
" clip-path="url(#p95e7211c37)" style="fill: none; stroke-dasharray: 2.16,2.16; stroke-dashoffset: 0; stroke: #303030; stroke-width: 1.2"/>
   </g>
   <g id="patch_3">
    <path d="M 55.595938 354.958125 
L 55.595938 22.318125 
" style="fill: none; stroke: #000000; stroke-linejoin: miter; stroke-linecap: square"/>
   </g>
   <g id="patch_4">
    <path d="M 501.995937 354.958125 
L 501.995937 22.318125 
" style="fill: none; stroke: #000000; stroke-linejoin: miter; stroke-linecap: square"/>
   </g>
   <g id="patch_5">
    <path d="M 55.595938 354.958125 
L 501.995937 354.958125 
" style="fill: none; stroke: #000000; stroke-linejoin: miter; stroke-linecap: square"/>
   </g>
   <g id="patch_6">
    <path d="M 55.595938 22.318125 
L 501.995937 22.318125 
" style="fill: none; stroke: #000000; stroke-linejoin: miter; stroke-linecap: square"/>
   </g>
   <g id="text_11">
    <!-- Distribution Shape: Execution Time (seconds) -->
    <g transform="translate(142.026875 16.318125) scale(0.12 -0.12)">
     <defs>
      <path id="DejaVuSans-44" d="M 1259 4147 
L 1259 519 
L 2022 519 
Q 2988 519 3436 956 
Q 3884 1394 3884 2338 
Q 3884 3275 3436 3711 
Q 2988 4147 2022 4147 
L 1259 4147 
z
M 628 4666 
L 1925 4666 
Q 3281 4666 3915 4102 
Q 4550 3538 4550 2338 
Q 4550 1131 3912 565 
Q 3275 0 1925 0 
L 628 0 
L 628 4666 
z
" transform="scale(0.015625)"/>
      <path id="DejaVuSans-53" d="M 3425 4513 
L 3425 3897 
Q 3066 4069 2747 4153 
Q 2428 4238 2131 4238 
Q 1616 4238 1336 4038 
Q 1056 3838 1056 3469 
Q 1056 3159 1242 3001 
Q 1428 2844 1947 2747 
L 2328 2669 
Q 3034 2534 3370 2195 
Q 3706 1856 3706 1288 
Q 3706 609 3251 259 
Q 2797 -91 1919 -91 
Q 1588 -91 1214 -16 
Q 841 59 441 206 
L 441 856 
Q 825 641 1194 531 
Q 1563 422 1919 422 
Q 2459 422 2753 634 
Q 3047 847 3047 1241 
Q 3047 1584 2836 1778 
Q 2625 1972 2144 2069 
L 1759 2144 
Q 1053 2284 737 2584 
Q 422 2884 422 3419 
Q 422 4038 858 4394 
Q 1294 4750 2059 4750 
Q 2388 4750 2728 4690 
Q 3069 4631 3425 4513 
z
" transform="scale(0.015625)"/>
      <path id="DejaVuSans-3a" d="M 750 794 
L 1409 794 
L 1409 0 
L 750 0 
L 750 794 
z
M 750 3309 
L 1409 3309 
L 1409 2516 
L 750 2516 
L 750 3309 
z
" transform="scale(0.015625)"/>
     </defs>
     <use xlink:href="#DejaVuSans-44"/>
     <use xlink:href="#DejaVuSans-69" x="77.001953"/>
     <use xlink:href="#DejaVuSans-73" x="104.785156"/>
     <use xlink:href="#DejaVuSans-74" x="156.884766"/>
     <use xlink:href="#DejaVuSans-72" x="196.09375"/>
     <use xlink:href="#DejaVuSans-69" x="237.207031"/>
     <use xlink:href="#DejaVuSans-62" x="264.990234"/>
     <use xlink:href="#DejaVuSans-75" x="328.466797"/>
     <use xlink:href="#DejaVuSans-74" x="391.845703"/>
     <use xlink:href="#DejaVuSans-69" x="431.054688"/>
     <use xlink:href="#DejaVuSans-6f" x="458.837891"/>
     <use xlink:href="#DejaVuSans-6e" x="520.019531"/>
     <use xlink:href="#DejaVuSans-20" x="583.398438"/>
     <use xlink:href="#DejaVuSans-53" x="615.185547"/>
     <use xlink:href="#DejaVuSans-68" x="678.662109"/>
     <use xlink:href="#DejaVuSans-61" x="742.041016"/>
     <use xlink:href="#DejaVuSans-70" x="803.320312"/>
     <use xlink:href="#DejaVuSans-65" x="866.796875"/>
     <use xlink:href="#DejaVuSans-3a" x="928.320312"/>
     <use xlink:href="#DejaVuSans-20" x="962.011719"/>
     <use xlink:href="#DejaVuSans-45" x="993.798828"/>
     <use xlink:href="#DejaVuSans-78" x="1056.982422"/>
     <use xlink:href="#DejaVuSans-65" x="1113.037109"/>
     <use xlink:href="#DejaVuSans-63" x="1174.560547"/>
     <use xlink:href="#DejaVuSans-75" x="1229.541016"/>
     <use xlink:href="#DejaVuSans-74" x="1292.919922"/>
     <use xlink:href="#DejaVuSans-69" x="1332.128906"/>
     <use xlink:href="#DejaVuSans-6f" x="1359.912109"/>
     <use xlink:href="#DejaVuSans-6e" x="1421.09375"/>
     <use xlink:href="#DejaVuSans-20" x="1484.472656"/>
     <use xlink:href="#DejaVuSans-54" x="1516.259766"/>
     <use xlink:href="#DejaVuSans-69" x="1574.21875"/>
     <use xlink:href="#DejaVuSans-6d" x="1602.001953"/>
     <use xlink:href="#DejaVuSans-65" x="1699.414062"/>
     <use xlink:href="#DejaVuSans-20" x="1760.9375"/>
     <use xlink:href="#DejaVuSans-28" x="1792.724609"/>
     <use xlink:href="#DejaVuSans-73" x="1831.738281"/>
     <use xlink:href="#DejaVuSans-65" x="1883.837891"/>
     <use xlink:href="#DejaVuSans-63" x="1945.361328"/>
     <use xlink:href="#DejaVuSans-6f" x="2000.341797"/>
     <use xlink:href="#DejaVuSans-6e" x="2061.523438"/>
     <use xlink:href="#DejaVuSans-64" x="2124.902344"/>
     <use xlink:href="#DejaVuSans-73" x="2188.378906"/>
     <use xlink:href="#DejaVuSans-29" x="2240.478516"/>
    </g>
   </g>
  </g>
 </g>
 <defs>
  <clipPath id="p95e7211c37">
   <rect x="55.595938" y="22.318125" width="446.4" height="332.64"/>
  </clipPath>
 </defs>
</svg>
